<?xml version="1.0" encoding="utf-8"?>
<!-- Generator: Adobe Illustrator 27.1.1, SVG Export Plug-In . SVG Version: 6.00 Build 0)  -->
<svg version="1.1" id="Слой_1" xmlns="http://www.w3.org/2000/svg" xmlns:xlink="http://www.w3.org/1999/xlink" x="0px" y="0px"
	 viewBox="0 0 109 109" style="enable-background:new 0 0 109 109;" xml:space="preserve">
<style type="text/css">
	.st0{fill:#E3E3E3;}
	.st1{fill:none;stroke:#393931;}
	.st2{opacity:0.3;}
	.st3{fill:#393931;}
</style>
<path class="st0" d="M16,0.5h76.3c8.6,0,15.5,6.9,15.5,15.5v76.3c0,8.6-6.9,15.5-15.5,15.5H16c-8.6,0-15.5-6.9-15.5-15.5V16
	C0.5,7.4,7.4,0.5,16,0.5z"/>
<path class="st1" d="M16,0.5h76.3c8.6,0,15.5,6.9,15.5,15.5v76.3c0,8.6-6.9,15.5-15.5,15.5H16c-8.6,0-15.5-6.9-15.5-15.5V16
	C0.5,7.4,7.4,0.5,16,0.5z"/>
<g class="st2">
	<path class="st3" d="M41.3,24.7h26c0.1,0,0.1,0.1,0.2,0.1c1.4,0.4,2.2,1.5,2.2,3c0,1.4,0,2.7,0,4.1c0,0.8-0.4,1.3-0.9,1.3
		c-0.6,0-0.9-0.5-0.9-1.3c0-1.3,0-2.5,0-3.8c0-1-0.3-1.3-1.2-1.3H41.9c-0.9,0-1.2,0.3-1.2,1.3c0,2,0,3.9,0,5.9c0,0.2,0,0.4,0,0.6
		h0.8c10.9,0,21.8,0,32.7,0c2,0,3.4,1.5,3.2,3.4c-0.1,0.6,0,1.3,0,1.9c1,0,1.8,0,2.7,0c1.6,0,2.8,0.8,3.5,2.3
		c0.1,0.3,0.2,0.6,0.3,0.8v32.5c-0.7,2.5-2.4,3.4-4.7,3.2c-0.6,0-1.1,0-1.8,0c0,0.2,0,0.3,0,0.5c0,0.7,0,1.5,0,2.2
		C77.3,83,76,84,74.3,84h-40c-0.1,0-0.2,0-0.3,0c-1.7-0.1-2.8-1.3-2.8-3.2c0-0.7,0-1.4,0-2.2c-0.9,0-1.7,0-2.6,0
		c-2.4,0-3.9-1.7-3.9-4.2c0-10.1,0-20.2,0-30.4c0-2.2,1.5-4.4,4.1-4.3c0.8,0,1.6,0,2.4,0c0-0.8,0-1.6,0-2.3c0-1.5,0.9-2.7,2.3-2.9
		c1.2-0.1,2.3-0.1,3.5-0.1c0.6,0,1.3,0,1.9,0v-0.7c0-2,0-4,0-6.1c0-0.7,0.2-1.3,0.6-1.8c0.4-0.5,0.9-0.9,1.5-1.1
		C41,24.8,41.2,24.7,41.3,24.7z M54.3,36.5h-20c-1,0-1.3,0.3-1.3,1.4v42.7c0,1.1,0.3,1.4,1.3,1.4h40c1.1,0,1.3-0.3,1.3-1.4
		c0-14.2,0-28.4,0-42.6c0-1.1-0.3-1.4-1.3-1.4H54.3z M31.1,41.9c-1.1,0-2.1,0-3.1,0c-0.3,0-0.6,0.2-0.9,0.4
		c-0.5,0.5-0.7,1.1-0.7,1.8c0,10.1,0,20.1,0,30.2c0,0.2,0,0.3,0,0.5c0.1,0.8,0.6,1.7,1.3,1.7c1.1,0.1,2.2,0,3.3,0L31.1,41.9z
		 M77.5,76.7c0.8,0,1.6,0,2.4,0c1.6,0,2.2-0.7,2.2-2.4c0-10,0-20,0-30c0-0.2,0-0.4,0-0.6c-0.1-0.9-0.7-1.7-1.4-1.8
		c-1-0.1-2.1,0-3.2,0L77.5,76.7z"/>
	<path class="st3" d="M54.7,33.3c-0.7,0-1.4,0-2.2,0c-0.9,0-1.2-0.4-1.2-1.3c0-1,0-1.9,0-2.9c0-0.7,0.3-1.1,1-1.2c1.6,0,3.2,0,4.8,0
		c0.7,0,1,0.4,1,1.1c0,1,0,2,0,2.9c0,0.8-0.3,1.2-1.1,1.2C56.2,33.3,55.4,33.3,54.7,33.3z M56.2,31.2v-1.1h-3v1.1H56.2z"/>
	<path class="st3" d="M47.9,30c-0.6,0-1.1-0.4-1.1-1c0-0.6,0.4-1.1,1.1-1c0.7,0,1.1,0.4,1.1,1S48.6,30,47.9,30z"/>
	<path class="st3" d="M61.4,30c-0.6,0-1.1-0.4-1.1-1c0-0.6,0.4-1.1,1.1-1.1c0.7,0,1.1,0.4,1.1,1C62.6,29.6,62.1,30,61.4,30z"/>
	<path class="st3" d="M47.9,33.3c-0.6,0-1.1-0.4-1.1-1c0-0.6,0.5-1,1.1-1c0.7,0,1.1,0.4,1.1,1C49.1,32.9,48.6,33.3,47.9,33.3z"/>
	<path class="st3" d="M61.5,33.3c-0.7,0-1.1-0.4-1.1-1.1c0-0.6,0.4-1,1.1-1c0.7,0,1.1,0.4,1.1,1C62.6,32.9,62.1,33.3,61.5,33.3z"/>
	<path class="st3" d="M67.6,47.3c0.8,1.2,1.5,2.3,2.1,3.4c0.4,0.7,0.3,1.2-0.3,1.6c-0.5,0.3-1,0.1-1.4-0.5c-0.6-1-1.2-1.9-1.8-2.8
		l-3.9,4.2c3.1,4.2,2.8,9.6,0,13.2l3.9,4.2c1-1.1,1.8-2.4,2.4-3.9c1-2.3,1.5-4.8,1.4-7.4c0-0.1,0-0.3,0-0.4c0-0.6,0.4-1.1,0.9-1.1
		c0.5,0,0.9,0.5,1,1.1c0.1,2.8-0.3,5.5-1.4,8.1c-0.7,1.9-1.8,3.5-3.1,5.2c0.6,0.6,1.2,1.2,1.8,1.7c0.3,0.4,0.4,0.8,0.2,1.3
		c-0.2,0.4-0.6,0.6-1,0.5c-0.2-0.1-0.5-0.2-0.6-0.4c-0.5-0.5-1-1.1-1.4-1.6c-7.8,6.3-15.5,6.3-23.4,0c-0.4,0.5-0.9,1.1-1.4,1.6
		c-0.5,0.6-1.1,0.6-1.5,0.2c-0.5-0.5-0.4-1,0.2-1.6c0.5-0.5,1-1.1,1.5-1.6c-5.8-6.9-5.9-17.7,0-24.8c-0.6-0.6-1.2-1.1-1.7-1.7
		c-0.2-0.1-0.3-0.3-0.3-0.6s0-0.4,0.1-0.6c0.2-0.4,0.6-0.6,1-0.5c0.2,0.1,0.5,0.2,0.6,0.4c0.5,0.5,1,1.1,1.5,1.6
		c7.8-6.3,15.5-6.3,23.3,0c0.4-0.5,0.9-1.1,1.4-1.6c0.5-0.5,1.1-0.6,1.5-0.2s0.4,1-0.1,1.6C68.6,46.3,68.1,46.8,67.6,47.3z M47,66.4
		c-1.4-2-2.2-4.2-2.2-6.7c0-2.4,0.7-4.7,2.1-6.6L43.1,49c-5.5,6.5-4.6,16.3,0.1,21.5L47,66.4z M48.5,51.5c1.8-1.5,4-2.4,6.2-2.4
		s4.5,0.8,6.2,2.4l3.9-4.1c-5.6-5.6-15-5.3-20.2,0L48.5,51.5z M44.6,72.1c5.9,5.7,15.1,5.1,20.2,0L61,68c-4.2,3.1-8.4,3.1-12.5,0
		L44.6,72.1z M48.3,64.9l4.8-5.1l-4.8-5.1C46.2,57.5,46.2,62.1,48.3,64.9z M49.9,66.5c2.1,2.4,7.4,2.4,9.6,0l-4.8-5.1L49.9,66.5z
		 M54.7,58.2l4.8-5.2c-2.7-2.5-7.4-2.2-9.6,0.1L54.7,58.2z M56.1,59.7l4.9,5.2c2.4-3,2.1-7.8,0-10.3L56.1,59.7z"/>
	<path class="st3" d="M70.3,55.6c-0.6,0-1-0.5-1-1.2c0-0.1,0-0.3,0.1-0.4c0-0.1,0.1-0.2,0.2-0.3c0.1-0.1,0.2-0.2,0.3-0.2
		c0.1-0.1,0.2-0.1,0.4-0.1c0.5,0,1,0.5,1,1.2c0,0.1,0,0.3-0.1,0.4c0,0.1-0.1,0.2-0.2,0.3c-0.1,0.1-0.2,0.2-0.3,0.2
		S70.5,55.6,70.3,55.6z"/>
</g>
</svg>
