<svg width="109" height="109" viewBox="0 0 109 109" fill="none" xmlns="http://www.w3.org/2000/svg">
<rect x="0.5" y="0.5" width="107.335" height="107.33" rx="15.5" fill="#E3E3E3"/>
<rect x="0.5" y="0.5" width="107.335" height="107.33" rx="15.5" stroke="#393931"/>
<g opacity="0.3">
<path d="M41.2824 24.665H67.2426C67.3022 24.7112 67.367 24.7491 67.4354 24.7779C68.8672 25.161 69.6719 26.2386 69.6754 27.7947C69.6754 29.1554 69.6754 30.5164 69.6754 31.8779C69.6754 32.6889 69.3201 33.17 68.7348 33.1588C68.1496 33.1477 67.8244 32.6752 67.8233 31.8482C67.8233 30.5908 67.8233 29.3323 67.8233 28.075C67.8233 27.0507 67.5388 26.7445 66.59 26.7445H41.906C41.0003 26.7445 40.7041 27.0644 40.703 28.044C40.703 30.0031 40.703 31.9623 40.703 33.9214C40.703 34.0975 40.725 34.2736 40.7378 34.4744H41.5507C52.4429 34.4744 63.3351 34.4955 74.2274 34.4558C76.2583 34.4484 77.6205 35.9264 77.4544 37.8819C77.401 38.5018 77.4451 39.1404 77.4451 39.7951C78.4066 39.7951 79.2752 39.7753 80.1438 39.7951C81.7277 39.8398 82.9052 40.5974 83.6065 42.1374C83.7308 42.409 83.8272 42.6942 83.9363 42.9732V75.5223C83.1873 77.9737 81.528 78.8826 79.2171 78.719C78.6458 78.6793 78.071 78.719 77.4451 78.719C77.4451 78.9285 77.4451 79.0674 77.4451 79.2063C77.4451 79.9503 77.4869 80.6942 77.4265 81.432C77.2976 82.9931 76.0133 84.0359 74.2796 84.0359H34.2454C34.1293 84.0359 34.0132 84.0359 33.8971 84.0359C32.1878 83.9355 31.0869 82.6955 31.0846 80.8678C31.0846 80.1722 31.0846 79.4766 31.0846 78.7128C30.187 78.7128 29.3428 78.7252 28.4997 78.7128C26.1448 78.6718 24.5934 76.9917 24.5934 74.4932C24.5934 64.3701 24.6282 54.247 24.5655 44.1239C24.5516 41.8919 26.0519 39.6848 28.6762 39.7902C29.4601 39.8224 30.2462 39.7902 31.0834 39.7902C31.0834 38.9594 31.0834 38.2005 31.0834 37.4429C31.0962 35.9847 32.0252 34.7336 33.3838 34.5711C34.545 34.4335 35.733 34.4943 36.9093 34.4757C37.5387 34.467 38.1692 34.4757 38.8485 34.4757V33.7317C38.8485 31.7105 38.8485 29.6906 38.8485 27.6695C38.8487 27.0154 39.0516 26.3798 39.4255 25.8617C39.7993 25.3436 40.3232 24.9721 40.9155 24.8052C41.0421 24.768 41.1605 24.7122 41.2824 24.665ZM54.273 36.5191H34.2315C33.2062 36.5191 32.9402 36.8068 32.9402 37.9129V80.5938C32.9402 81.6912 33.2143 81.9888 34.2385 81.99H74.268C75.3236 81.99 75.5872 81.6986 75.5872 80.5554C75.5872 66.3495 75.5872 52.1431 75.5872 37.9364C75.5872 36.7932 75.3305 36.5191 74.2611 36.5191H54.273ZM31.0672 41.8584C30.0012 41.8584 28.977 41.825 27.9656 41.8795C27.6683 41.8956 27.3455 42.1101 27.1005 42.3222C26.5663 42.7847 26.4421 43.4382 26.4421 44.1536C26.4482 54.2147 26.4513 64.2758 26.4513 74.3369C26.4513 74.5018 26.4455 74.668 26.4606 74.8329C26.5384 75.6649 27.0761 76.5106 27.7926 76.58C28.8725 76.6854 29.9675 76.6073 31.0718 76.6073L31.0672 41.8584ZM77.466 76.6693C78.2986 76.6693 79.0697 76.6693 79.8419 76.6693C81.413 76.6693 82.0784 75.9452 82.0784 74.2476C82.0784 64.2452 82.0784 54.2457 82.0784 44.2491C82.0784 44.0643 82.0865 43.8771 82.0714 43.6936C81.9971 42.8083 81.3979 41.949 80.6501 41.8907C79.605 41.8076 78.5436 41.8696 77.4672 41.8696L77.466 76.6693Z" fill="#393931"/>
<path d="M54.6696 33.3015C53.9462 33.3015 53.2217 33.309 52.4983 33.3015C51.6252 33.2902 51.2895 32.9241 51.2871 32.0145C51.2871 31.0533 51.2871 30.0922 51.2871 29.131C51.2871 28.3887 51.6252 27.9849 52.3121 27.9748C53.8964 27.9539 55.4814 27.9539 57.0672 27.9748C57.7588 27.9836 58.0969 28.3837 58.1016 29.1222C58.1087 30.1035 58.1016 31.086 58.1016 32.0673C58.1016 32.9039 57.7541 33.2826 56.9564 33.3002C56.1965 33.3141 55.4331 33.3015 54.6696 33.3015ZM56.193 31.2068V30.0745H53.2075V31.2068H56.193Z" fill="#393931"/>
<path d="M47.915 30.0373C47.267 30.0272 46.8252 29.612 46.8193 29.0069C46.8193 28.3779 47.2659 27.9564 47.9539 27.9652C48.6125 27.9728 49.0449 28.3766 49.0508 28.9855C49.0567 29.5944 48.5889 30.0461 47.915 30.0373Z" fill="#393931"/>
<path d="M61.4483 30.0372C60.7991 30.0372 60.3526 29.6207 60.342 29.0181C60.3314 28.3803 60.7779 27.9601 61.466 27.9651C62.1257 27.9651 62.5616 28.3677 62.5723 28.9716C62.5829 29.6056 62.121 30.0409 61.4483 30.0372Z" fill="#393931"/>
<path d="M47.908 33.3004C47.26 33.2878 46.8217 32.8701 46.8193 32.2638C46.8193 31.6347 47.2718 31.2171 47.961 31.2284C48.6196 31.2397 49.0496 31.6461 49.0508 32.2575C49.052 32.8689 48.5807 33.3142 47.908 33.3004Z" fill="#393931"/>
<path d="M61.4706 33.3004C60.7967 33.308 60.3337 32.8752 60.3419 32.2437C60.3502 31.6347 60.7837 31.2372 61.4435 31.2284C62.1315 31.2284 62.5804 31.641 62.5722 32.2764C62.5639 32.879 62.1186 33.2941 61.4706 33.3004Z" fill="#393931"/>
<path d="M67.6441 47.3215C68.3993 48.5254 69.1026 49.6036 69.7648 50.712C70.1571 51.3724 70.024 51.9612 69.4902 52.2732C68.9836 52.5676 68.5077 52.3638 68.1212 51.7323C67.5321 50.7774 66.9324 49.8376 66.3398 48.8966L62.4059 53.0973C65.4786 57.3206 65.1581 62.6988 62.4354 66.3371L66.3233 70.4887C67.2885 69.3411 68.0813 68.0408 68.6738 66.634C69.6677 64.3294 70.1534 61.8121 70.0935 59.2756C70.0935 59.1498 70.0829 59.024 70.0876 58.8982C70.1088 58.2692 70.4952 57.8301 71.0207 57.8301C71.5461 57.8301 71.9514 58.2805 71.9762 58.8919C72.1008 61.6563 71.638 64.4149 70.6225 66.9611C69.8814 68.8231 68.8682 70.5013 67.518 72.1557C68.1153 72.7432 68.7138 73.3081 69.2852 73.9031C69.6293 74.2617 69.6964 74.707 69.4372 75.1612C69.2075 75.5613 68.8481 75.7324 68.4287 75.6116C68.1897 75.5245 67.9747 75.3754 67.8031 75.1775C67.2941 74.6328 66.8111 74.0604 66.3716 73.5584C58.5498 79.8173 50.8658 79.8186 43.0051 73.5383C42.5774 74.0415 42.1061 74.6215 41.6042 75.1738C41.0858 75.7437 40.5368 75.7965 40.1138 75.3663C39.6579 74.9008 39.705 74.3346 40.2682 73.7308C40.7771 73.1848 41.3003 72.6539 41.8139 72.1205C35.9797 65.2011 35.9231 54.3817 41.8528 47.3504C41.2732 46.773 40.6746 46.2005 40.1056 45.603C39.9476 45.4565 39.8438 45.2546 39.8129 45.0336C39.782 44.8126 39.8261 44.5871 39.9371 44.3977C40.1504 43.9939 40.5015 43.7913 40.9256 43.9008C41.167 43.976 41.3865 44.1159 41.563 44.3072C42.0802 44.8481 42.568 45.4205 43.0392 45.9514C50.8316 39.6951 58.5357 39.6875 66.3752 45.9514C66.817 45.4482 67.2989 44.8771 67.8055 44.3298C68.3121 43.7825 68.8811 43.7247 69.2982 44.165C69.7153 44.6053 69.6917 45.1865 69.1604 45.7577C68.6479 46.3037 68.1189 46.8308 67.6441 47.3215ZM47.0061 66.4038C45.5841 64.4475 44.8135 62.2522 44.8135 59.7499C44.8053 57.3644 45.5578 55.047 46.9472 53.179L43.0781 49.0375C37.6091 55.5379 38.4656 65.3433 43.1653 70.5038L47.0061 66.4038ZM48.4659 51.5486C50.2282 50.0241 52.4274 49.1923 54.6954 49.1923C56.9634 49.1923 59.1627 50.0241 60.925 51.5486L64.7846 47.4272C59.1954 41.8124 49.763 42.1232 44.6144 47.4599L48.4659 51.5486ZM44.6156 72.1028C50.4687 77.8346 59.7503 77.2446 64.7764 72.0638L60.9686 67.9852C56.7967 71.1178 52.613 71.1304 48.4564 68.0116L44.6156 72.1028ZM48.348 64.8602L53.1538 59.7524L48.374 54.6069C46.1614 57.4829 46.1661 62.1214 48.348 64.8602ZM49.902 66.4856C52.0227 68.8419 57.2727 68.847 59.4994 66.4856L54.7054 61.364L49.902 66.4856ZM54.6524 58.1937L59.4829 53.0067C56.7931 50.4905 52.1029 50.7912 49.8608 53.0872L54.6524 58.1937ZM56.1463 59.7373L60.9992 64.9117C63.3555 61.9301 63.1317 57.1558 60.9733 54.6057L56.1463 59.7373Z" fill="#393931"/>
<path d="M70.3289 55.5591C69.7398 55.5742 69.2862 55.0446 69.2815 54.3262C69.2785 54.191 69.301 54.0565 69.3478 53.9308C69.3946 53.805 69.4646 53.6907 69.5536 53.5945C69.6427 53.4983 69.749 53.4223 69.8663 53.371C69.9835 53.3197 70.1092 53.2941 70.2358 53.2959C70.7849 53.2959 71.2314 53.8293 71.262 54.5124C71.2671 54.6471 71.2467 54.7815 71.2022 54.9076C71.1577 55.0337 71.0899 55.149 71.0029 55.2466C70.9159 55.3443 70.8114 55.4222 70.6956 55.4759C70.5798 55.5296 70.4551 55.5579 70.3289 55.5591Z" fill="#393931"/>
</g>
</svg>
