<?xml version="1.0" encoding="utf-8"?>
<!-- Generator: Adobe Illustrator 27.1.1, SVG Export Plug-In . SVG Version: 6.00 Build 0)  -->
<svg version="1.1" id="Слой_1" xmlns="http://www.w3.org/2000/svg" xmlns:xlink="http://www.w3.org/1999/xlink" x="0px" y="0px"
	 viewBox="0 0 21 24" style="enable-background:new 0 0 21 24;" xml:space="preserve">
<style type="text/css">
	.st0{fill:url(#SVGID_1_);}
	.st1{fill:#FD9F09;}
	.st2{fill:#FC8B09;}
	.st3{fill:#CA7402;}
	.st4{fill:#FE920A;}
	.st5{fill:#A85C03;}
	.st6{fill:#B96704;}
	.st7{fill:#441F00;}
	.st8{fill:url(#SVGID_00000082333235531732522880000008144441158532643241_);}
	.st9{fill-rule:evenodd;clip-rule:evenodd;fill:#441F00;}
</style>
<linearGradient id="SVGID_1_" gradientUnits="userSpaceOnUse" x1="10.5" y1="594" x2="10.5" y2="570.2" gradientTransform="matrix(1 0 0 1 0 -570)">
	<stop  offset="0" style="stop-color:#9C3600"/>
	<stop  offset="4.000000e-02" style="stop-color:#A44401"/>
	<stop  offset="0.25" style="stop-color:#CD8909"/>
	<stop  offset="0.4" style="stop-color:#E7B40D"/>
	<stop  offset="0.48" style="stop-color:#F1C40F"/>
	<stop  offset="0.53" style="stop-color:#F2C615"/>
	<stop  offset="0.6" style="stop-color:#F3CC25"/>
	<stop  offset="0.67" style="stop-color:#F7D53F"/>
	<stop  offset="0.75" style="stop-color:#FBE363"/>
	<stop  offset="0.81" style="stop-color:#FFF088"/>
	<stop  offset="1" style="stop-color:#FFF8D6"/>
</linearGradient>
<path class="st0" d="M10.5,0.2l10.3,6V18l-10.3,6L0.2,18V6.1L10.5,0.2z"/>
<path class="st1" d="M10.5,1.3v10.6L1.3,6.6L10.5,1.3z"/>
<path class="st2" d="M10.5,11.9l-9.1,5.3V6.6L10.5,11.9z"/>
<path class="st3" d="M10.5,11.9v10.6l-9.1-5.3L10.5,11.9z"/>
<path class="st4" d="M10.5,1.3l9.1,5.3l-9.1,5.3V1.3z"/>
<path class="st5" d="M10.5,11.9l9.1,5.3l-9.1,5.3V11.9z"/>
<path class="st6" d="M10.5,11.9l9.1-5.3v10.6L10.5,11.9z"/>
<path class="st7" d="M10.5,0.6L11,0.9L19.9,6l0.5,0.3v11.4L19.9,18L11,23.1l-0.5,0.3L10,23.1L1.1,18l-0.5-0.3V6.3L1.1,6L10,0.9
	L10.5,0.6z M10.5,0c-0.1,0-0.2,0-0.3,0.1L9.7,0.4L0.8,5.5L0.3,5.8C0.2,5.8,0.1,5.9,0.1,6C0,6.1,0,6.2,0,6.3v11.4
	c0,0.1,0,0.2,0.1,0.3c0.1,0.1,0.1,0.2,0.2,0.2l0.5,0.3l8.9,5.1l0.5,0.3c0.1,0.1,0.2,0.1,0.3,0.1s0.2,0,0.3-0.1l0.5-0.3l8.9-5.1
	l0.5-0.3c0.1-0.1,0.2-0.1,0.2-0.2c0.1-0.1,0.1-0.2,0.1-0.3V6.3c0-0.1,0-0.2-0.1-0.3c-0.1-0.1-0.1-0.2-0.2-0.2l-0.5-0.3l-8.9-5.1
	l-0.5-0.3C10.7,0,10.6,0,10.5,0L10.5,0z"/>
<path class="st7" d="M10.5,1.9L11,2.1l8,4.6L19.4,7v10.2L19,17.5l-8,4.6l-0.4,0.3l-0.4-0.3l-8-4.6l-0.4-0.3V7l0.4-0.3l8-4.6
	L10.5,1.9z M10.5,1.3c-0.1,0-0.2,0-0.3,0.1L9.8,1.7l-8,4.6L1.4,6.5c-0.1,0-0.1,0.1-0.2,0.2c0,0.1-0.1,0.2-0.1,0.3v10.2
	c0,0.1,0,0.2,0.1,0.3c0,0.1,0.1,0.1,0.2,0.2L1.8,18l8,4.6l0.4,0.3c0.1,0,0.2,0.1,0.3,0.1s0.2,0,0.3-0.1l0.4-0.3l8-4.6l0.4-0.3
	c0.1,0,0.1-0.1,0.2-0.2c0-0.1,0.1-0.2,0.1-0.3V7c0-0.1,0-0.2-0.1-0.3c0-0.1-0.1-0.1-0.2-0.2l-0.4-0.3l-8-4.6l-0.4-0.3
	C10.7,1.4,10.6,1.3,10.5,1.3L10.5,1.3z"/>
<g>
	<g>
		
			<linearGradient id="SVGID_00000163781148176131822260000003004754588919020216_" gradientUnits="userSpaceOnUse" x1="11.5331" y1="587.6171" x2="9.0222" y2="576.6882" gradientTransform="matrix(1 0 0 1 0 -570)">
			<stop  offset="0" style="stop-color:#9C3600"/>
			<stop  offset="4.000000e-02" style="stop-color:#A44401"/>
			<stop  offset="0.25" style="stop-color:#CD8909"/>
			<stop  offset="0.4" style="stop-color:#E7B40D"/>
			<stop  offset="0.48" style="stop-color:#F1C40F"/>
			<stop  offset="0.53" style="stop-color:#F2C615"/>
			<stop  offset="0.6" style="stop-color:#F3CC25"/>
			<stop  offset="0.67" style="stop-color:#F7D53F"/>
			<stop  offset="0.75" style="stop-color:#FBE363"/>
			<stop  offset="0.81" style="stop-color:#FFF088"/>
			<stop  offset="1" style="stop-color:#FFF8D6"/>
		</linearGradient>
		<path style="fill:url(#SVGID_00000163781148176131822260000003004754588919020216_);" d="M14.3,10.1c-0.1-1.2-1.1-1.6-2.5-1.7V6.8
			h-1v1.6c-0.3,0-0.6,0-0.8,0V6.8H9v1.6c-0.2,0-0.4,0-0.7,0l0,0H6.9v1.1h0.8c0.4,0,0.6,0.2,0.6,0.4L8,14.3c0,0.1-0.1,0.3-0.4,0.3
			H6.8l-0.2,1.2H8c0.3,0,0.5,0,0.7,0v1.7h1v-1.6c0.3,0,0.6,0,0.8,0v1.6h1v-1.7c1.8-0.1,3-0.5,3.2-2c0.1-1.3-0.5-1.8-1.4-2.1
			C14,11.5,14.4,11,14.3,10.1L14.3,10.1z M12.8,13.7c0,1.2-2.2,1.1-2.9,1.1v-2.2C10.6,12.5,12.8,12.4,12.8,13.7z M12.4,10.5
			c0,1.1-1.9,1-2.5,1v-2C10.5,9.5,12.4,9.4,12.4,10.5z"/>
		<path class="st9" d="M6.7,15.8l0.2-1.2c0,0,0.1,0,0.3,0c0.2,0,0.5,0,0.5,0l0,0l0,0c0.3,0,0.4-0.2,0.4-0.3l0,0l0.1-4.5
			c0-0.1-0.1-0.2-0.1-0.3c-0.2,0-0.3-0.1-0.6-0.1l0,0l0,0c0,0-0.1,0-0.3,0c-0.1,0-0.2,0-0.2,0c-0.1,0-0.3,0-0.3,0V8.3h1.4l0,0
			c0.2,0,0.4,0,0.7,0V6.7h1v1.6c0.2,0,0.3,0,0.5,0c0.1,0,0.2,0,0.3,0V6.7h1v1.6c1.3,0.1,2.4,0.6,2.5,1.7l0,0c0,0.6-0.1,1-0.4,1.3
			c-0.1,0.1-0.3,0.3-0.5,0.3c0.2,0.1,0.4,0.1,0.6,0.2c0.6,0.3,1,0.9,0.9,1.9c-0.2,1.6-1.4,2-3.2,2v1.7h-1v-1.6c-0.1,0-0.2,0-0.3,0
			h-0.1c-0.2,0-0.3,0-0.5,0v1.6h-1v-1.7L6.7,15.8z M8,16.3H6.6c-0.1,0-0.3-0.1-0.4-0.2c-0.1-0.1-0.1-0.3-0.1-0.4l0.2-1.2
			c0-0.2,0.3-0.4,0.5-0.4l0,0h0.1c0.1,0,0.2,0,0.3,0c0.1,0,0.2,0,0.3,0l0,0l0.1-4.3l0,0l0,0c0,0,0,0-0.1,0c0,0,0,0-0.1,0l0,0
			c-0.1,0-0.2,0-0.3,0c-0.1,0-0.2,0-0.3,0H6.7l0,0c-0.1,0-0.3-0.1-0.4-0.1c0-0.1,0-0.2,0-0.3V8.3c0-0.3,0.2-0.5,0.5-0.5h1.4
			c0,0,0,0,0.1,0h0.1V6.6c0-0.3,0.2-0.5,0.5-0.5h1c0.1,0,0.3,0.1,0.3,0.1s0,0.1,0.1,0.1l0,0c0.1-0.1,0.3-0.2,0.4-0.2h1
			c0.1,0,0.3,0.1,0.3,0.1c0.1,0.1,0.1,0.2,0.1,0.3v1.2c0.5,0.1,1.1,0.2,1.5,0.5c0.6,0.3,0.9,0.9,1,1.6l0,0c0,0.5,0,1-0.3,1.3
			c-0.1,0.1-0.1,0.2-0.2,0.2c0.2,0.1,0.4,0.3,0.6,0.5c0.4,0.5,0.5,1.1,0.4,1.8c-0.1,0.9-0.5,1.6-1.2,1.9c-0.5,0.3-1.2,0.4-1.9,0.5
			v1.2c0,0.3-0.2,0.5-0.5,0.5h-1c-0.1,0-0.3-0.1-0.3-0.1s0-0.1-0.1-0.1c0,0.5-0.2,0.5-0.4,0.5h-1c-0.1,0-0.3-0.1-0.3-0.1
			c-0.1-0.1-0.1-0.2-0.1-0.3v-1.2C8.2,16.3,8.1,16.3,8,16.3 M7.1,14.6C7.2,14.6,7.2,14.6,7.1,14.6C7.2,14.6,7.2,14.6,7.1,14.6z
			 M12.3,13.7c0-0.2-0.1-0.3-0.2-0.3c-0.1-0.1-0.3-0.2-0.6-0.2C11.1,13,10.7,13,10.4,13v1.3c0.3,0,0.8,0,1.1-0.1
			c0.3,0,0.5-0.1,0.6-0.2C12.2,13.9,12.3,13.8,12.3,13.7z M9.9,14.7C9.9,14.7,9.8,14.7,9.9,14.7v-2.2c0.1,0,0.2,0,0.3,0
			c0.9,0,2.7,0,2.6,1.1c0,1.1-1.9,1.1-2.7,1.1C10,14.7,9.9,14.7,9.9,14.7z M11.7,10.8c0.1-0.1,0.1-0.1,0.1-0.3s0-0.2-0.1-0.3
			s-0.2-0.1-0.5-0.2c-0.2,0-0.5,0-0.8,0v1.1c0.3,0,0.6,0,0.8-0.1C11.5,10.9,11.6,10.9,11.7,10.8z M9.9,11.5L9.9,11.5v-2
			c0.1,0,0.1,0,0.2,0c0.7,0,2.2,0,2.2,1S10.7,11.5,9.9,11.5C10,11.5,10,11.5,9.9,11.5z"/>
	</g>
</g>
</svg>
