<svg width="21" height="24" viewBox="0 0 21 24" fill="none" xmlns="http://www.w3.org/2000/svg">
<path d="M10.5011 0.192017L20.8102 6.14402V18.048L10.5011 24L0.191895 18.048V6.14402L10.5011 0.192017Z" fill="url(#paint0_linear_2091_322)"/>
<path d="M10.49 1.34399L10.4899 11.904L1.34424 6.62399L10.49 1.34399Z" fill="#E2C04F"/>
<path d="M10.49 11.904L1.34424 17.184V6.62402L10.49 11.904Z" fill="#BF951E"/>
<path d="M10.49 11.9041L10.4899 22.4641L1.34424 17.1841L10.49 11.9041Z" fill="#8A6E10"/>
<path d="M10.4897 1.34399L19.6355 6.62399L10.4897 11.904V1.34399Z" fill="#B69932"/>
<path d="M10.4897 11.9041L19.6355 17.1841L10.4897 22.4641V11.9041Z" fill="#634902"/>
<path d="M10.4897 11.904L19.6355 6.62402V17.184L10.4897 11.904Z" fill="#9B8122"/>
<path d="M14.9649 7.2229C15.041 7.28297 15.0869 7.37257 15.1431 7.45046L15.4305 7.82846L16.8465 9.62166C16.9343 9.73865 17.0735 9.88002 17.1274 10.0154L17.1196 10.0452L17.138 10.0821L15.7291 9.26861L15.1814 8.94407C15.091 8.89211 15.002 8.832 14.9053 8.79265L14.9649 7.2229Z" fill="#EB9503"/>
<path d="M10.5259 6.39868L12.7315 7.26689L12.1088 7.85648C11.9954 7.96405 11.8665 8.11503 11.7303 8.18769C11.6161 8.24861 11.4115 8.29009 11.2822 8.29143L11.202 8.28661L9.02213 8.12342L8.38135 7.51442L10.5259 6.39868Z" fill="#C64904"/>
<path d="M5.86828 8.78503L5.868 9.23604L5.09677 11.2843L4.941 12.2065L4.75612 13.1533C4.74134 13.2252 4.67826 13.4156 4.69147 13.4824C4.69454 13.4979 4.70803 13.5092 4.71633 13.5226L4.96699 14.0489L5.61966 15.4271L6.07865 16.4002C6.14633 16.5357 6.2116 16.6874 6.29769 16.8117L6.33163 16.905L4.86265 19.1162C4.6951 19.1144 3.93033 19.1705 3.8314 19.2592L3.80664 19.2221L3.84014 18.085L3.84333 18.0616L3.88162 14.0992L3.8957 11.4145L3.89148 10.6052C3.88894 10.4465 3.89404 10.2823 3.86725 10.1258L3.87485 10.1085L5.86828 8.78503Z" fill="#C64904"/>
<path d="M14.9053 8.7926C15.002 8.83195 15.091 8.89206 15.1814 8.94402L15.729 9.26856L17.138 10.0821L17.2417 10.1532L17.2497 10.1768C17.2296 10.3371 17.2358 10.5025 17.2351 10.664L17.2353 11.4573L17.2459 13.9709L17.2516 17.9538L17.2523 18.2835L17.2509 18.9815L17.2485 19.1815L17.226 19.2937L16.299 18.208C16.2506 18.0203 16.2329 17.8195 16.2069 17.6275L16.0903 16.8286L15.5625 13.2532C15.5629 13.2158 15.5564 13.186 15.5488 13.1499C15.4851 12.9653 15.453 12.7507 15.4107 12.5589L15.1569 11.3817L14.9389 10.4036C14.9111 10.2739 14.8677 10.1311 14.8571 9.99943C14.8447 9.84441 14.8639 9.67966 14.8721 9.52448L14.9053 8.7926Z" fill="#C64904"/>
<path d="M4.95008 18.8821C4.92299 18.872 4.89435 18.8667 4.86545 18.8664C4.76694 18.8653 4.52239 18.8801 4.2939 18.9055C4.17847 18.9182 4.06019 18.9345 3.96167 18.9542C3.91277 18.964 3.86357 18.9757 3.81985 18.99C3.78607 19.001 3.71903 19.0245 3.66466 19.0732C3.60362 19.1279 3.57329 19.2091 3.58348 19.2904C3.59368 19.3718 3.6431 19.4429 3.71576 19.4809L5.5043 20.4155L5.50427 20.4156L5.50929 20.4181L8.45146 21.8726L8.45169 21.8727L9.64292 22.4632L9.64291 22.4632L9.6445 22.464L10.1278 22.6993L10.1278 22.6995L10.1362 22.7032C10.1444 22.7068 10.1539 22.7112 10.1645 22.7161C10.229 22.7458 10.3347 22.7946 10.4457 22.8113C10.5627 22.8289 10.676 22.7622 10.7172 22.6513C10.7585 22.5405 10.7165 22.4159 10.6165 22.3527L6.96328 20.045L6.96337 20.0449L6.95551 20.0403L5.71447 19.3181L5.71392 19.3178L5.26859 19.0555C5.25566 19.0478 5.24044 19.0383 5.22337 19.0276C5.15315 18.9836 5.05169 18.92 4.95008 18.8821ZM3.96214 19.4701C3.96208 19.4701 3.963 19.4696 3.96509 19.4688C3.96325 19.4697 3.9622 19.4701 3.96214 19.4701Z" fill="#D07202" stroke="#441F00" stroke-width="0.5" stroke-linejoin="round"/>
<path d="M15.2403 12.9683C15.1239 12.893 15.0091 12.8127 14.8954 12.7332C14.8108 12.674 14.7268 12.6152 14.6433 12.5593M15.2403 12.9683L7.08668 8.47739C7.08797 8.47704 7.08925 8.4767 7.09051 8.47636C7.11801 8.46893 7.13948 8.46313 7.16444 8.44769C7.1731 8.44232 7.18199 8.4368 7.19108 8.43115C7.25215 8.39322 7.32252 8.34949 7.39473 8.3099C7.39351 8.32686 7.39258 8.34538 7.3925 8.36405C7.3924 8.38869 7.39345 8.43184 7.40606 8.47719C7.41663 8.51516 7.43363 8.54687 7.44663 8.56806M15.2403 12.9683C15.2606 13.058 15.2841 13.1487 15.3126 13.2316L15.549 13.15L15.6642 12.9281C15.596 12.8927 15.5292 12.8542 15.4628 12.8134C15.4568 12.7841 15.451 12.7549 15.4452 12.7258C15.434 12.6692 15.4228 12.6132 15.4109 12.559L15.1571 11.3819L14.9391 10.4038M15.2403 12.9683L14.9743 6.77547C14.9735 6.82845 14.9712 6.88197 14.9689 6.93562C14.9647 7.0318 14.9606 7.1284 14.9651 7.22301L14.9055 8.79276L14.8723 9.52463C14.8703 9.56339 14.8675 9.60275 14.8648 9.6424C14.8565 9.76151 14.848 9.88329 14.8573 9.99959C14.8648 10.0925 14.8887 10.1911 14.9118 10.2866C14.9214 10.3264 14.9309 10.3656 14.9391 10.4038M14.6433 12.5593L13.2514 11.6286M14.6433 12.5593L14.5042 12.7671L13.2444 11.9247M14.6433 12.5593L14.5043 12.7671C14.5785 12.8168 14.6568 12.8716 14.738 12.9284C14.9555 13.0805 15.1943 13.2475 15.4338 13.3719C15.5245 13.419 15.6349 13.4061 15.7123 13.3393C15.7898 13.2724 15.8187 13.1652 15.7853 13.0685C15.7454 12.9529 15.7212 12.831 15.6942 12.6948C15.6822 12.6347 15.6697 12.5719 15.6551 12.5056L15.6553 12.5064L15.4109 12.559L15.655 12.5052L15.4015 11.3292L15.4011 11.3275L15.1836 10.3515L14.9391 10.4038M13.2514 11.6286L11.1646 12.8857L9.52574 12.3538L8.90765 10.2562C8.91833 10.1326 8.81279 9.96746 8.73943 9.85265C8.73172 9.84059 8.72437 9.82908 8.71754 9.81824C8.50949 9.48766 8.28503 9.17267 8.03403 8.87305L7.75717 8.55569M13.2514 11.6286L13.1125 11.8364L13.2444 11.9247M13.2514 11.6286L13.3804 11.8427L13.2444 11.9247M7.75717 8.55569C7.75238 8.55022 7.74659 8.5438 7.74018 8.5367C7.71936 8.51364 7.69211 8.48346 7.67218 8.45585C7.63281 8.46942 7.58264 8.49236 7.52302 8.52469C7.49734 8.53862 7.47185 8.55319 7.44663 8.56806M7.75717 8.55569L7.56878 8.72003L7.569 8.72029C7.56771 8.71882 7.56508 8.7159 7.56149 8.71192C7.54811 8.69709 7.52151 8.66761 7.50238 8.64449C7.4884 8.62759 7.47164 8.6063 7.45629 8.58316C7.45353 8.57899 7.45023 8.57393 7.44663 8.56806M7.75717 8.55569L7.56913 8.72044L7.84398 9.0355M7.44663 8.56806C7.40469 8.59279 7.3635 8.61837 7.32346 8.64324C7.31427 8.64894 7.30513 8.65462 7.29607 8.66023L7.29598 8.66028C7.24816 8.68987 7.20294 8.70465 7.17353 8.7129M7.17353 8.7129L15.1497 10.2055C15.1602 10.2488 15.1717 10.2961 15.1833 10.3504L15.1831 10.3494L14.9391 10.4038M7.17353 8.7129C7.15283 8.72354 7.12844 8.73875 7.09625 8.76059C7.08816 8.76607 7.07894 8.77244 7.06891 8.77937C7.03723 8.80126 6.99747 8.82872 6.9599 8.85154L6.00036 9.44847C5.92324 9.49644 5.82618 9.49882 5.74681 9.45469C5.66744 9.41055 5.61824 9.32685 5.6183 9.23603L5.61859 8.79103L5.44852 5.20643C5.44371 5.10492 5.50081 5.0106 5.59299 4.96782C5.68516 4.92503 5.79406 4.9423 5.86848 5.0115L8.42973 7.39304L9.09617 7.81412H11.803L12.5582 7.08688C12.5655 7.0799 12.5731 7.07337 12.5812 7.06731C12.6854 6.98873 12.7794 6.89501 12.8841 6.79065C12.9266 6.74825 12.9709 6.70409 13.0183 6.65848L13.0211 6.65584L13.0211 6.65586L13.9377 5.80121C13.9424 5.79682 13.9473 5.79261 13.9523 5.78859C14.0816 5.68555 14.2032 5.57178 14.3306 5.44962L14.3307 5.4496C14.3448 5.43607 14.3602 5.42049 14.377 5.40352C14.4713 5.3083 14.6092 5.16916 14.8026 5.10051C14.8415 5.08672 14.8831 5.08275 14.9239 5.08896L14.9263 5.08933C14.936 5.09079 14.9538 5.09348 14.9703 5.09724C14.992 5.10217 15.0255 5.1117 15.0614 5.13335C15.0965 5.15451 15.1198 5.17884 15.1325 5.19302C15.1414 5.20289 15.1513 5.21527 15.1568 5.22202C15.1577 5.22318 15.1585 5.22416 15.1591 5.22495C15.1826 5.25383 15.1992 5.28758 15.208 5.32372C15.2329 5.42707 15.2369 5.53333 15.2364 5.62233C15.2362 5.66739 15.2348 5.71206 15.2335 5.75214L15.2335 5.75308C15.2322 5.79471 15.231 5.83105 15.2309 5.86508L15.2309 5.86613L15.2243 6.77729L15.2243 6.77923C15.2232 6.84845 15.2206 6.90813 15.2181 6.96351C15.2142 7.04991 15.2107 7.12583 15.2148 7.21113C15.2151 7.21824 15.2152 7.22537 15.2149 7.23249L15.1553 8.80224L15.1552 8.80407L15.1221 9.53595L15.122 9.53788C15.1194 9.58698 15.1162 9.63252 15.1132 9.67554C15.1054 9.78814 15.0988 9.88338 15.1065 9.9795L7.17353 8.7129ZM7.84398 9.0355C8.08602 9.32461 8.30341 9.62958 8.50596 9.9514L8.50596 9.95141C8.51453 9.96502 8.52308 9.97843 8.53156 9.99172C8.56381 10.0423 8.59497 10.0911 8.62143 10.1427C8.63738 10.1739 8.64786 10.1992 8.65373 10.2186C8.65718 10.23 8.65807 10.2362 8.65831 10.2381M7.84398 9.0355L7.84564 9.0374L8.03403 8.87306L7.84239 9.0336C7.84292 9.03423 7.84345 9.03487 7.84398 9.0355ZM8.65831 10.2381C8.65614 10.268 8.65937 10.2981 8.66785 10.3269L9.28593 12.4244C9.30925 12.5036 9.3701 12.5661 9.44856 12.5916L11.0875 13.1235C11.1564 13.1459 11.2316 13.1372 11.2936 13.0999L13.2444 11.9247M8.65831 10.2381C8.65836 10.2385 8.65838 10.2387 8.65839 10.2387C8.65841 10.2387 8.65835 10.2373 8.65858 10.2347C8.65848 10.2358 8.65839 10.237 8.65831 10.2381Z" fill="#FBBF05" stroke="#441F00" stroke-width="0.5" stroke-linejoin="round"/>
<path d="M10.8169 10.662C10.7341 10.659 10.6552 10.6971 10.6062 10.7638L10.3492 11.1135L10.3491 11.1136L10.2464 11.2531C10.2394 11.2627 10.233 11.2728 10.2274 11.2833C10.1629 11.4037 10.0826 11.516 9.99381 11.6403C9.96144 11.6856 9.92795 11.7324 9.89368 11.7819C9.84183 11.8566 9.8347 11.9537 9.87506 12.0352C9.91542 12.1168 9.9969 12.1699 10.0878 12.1741L11.7269 12.2484C11.8586 12.2544 11.9723 12.157 11.9867 12.0259L12.1034 10.9616C12.1111 10.8914 12.0887 10.8212 12.0419 10.7684C11.995 10.7156 11.9279 10.6851 11.8573 10.6844L11.2645 10.6787L10.8169 10.662Z" fill="#30290B" stroke="#441F00" stroke-width="0.5" stroke-linejoin="round"/>
<path d="M10.8167 10.662C10.7339 10.659 10.655 10.6971 10.606 10.7638L10.3489 11.1136C10.2766 11.212 10.2859 11.3481 10.3708 11.4357L10.4275 11.4942C10.5387 11.6254 10.6574 11.7353 10.7843 11.8385C10.8703 11.9084 10.9921 11.9133 11.0835 11.8506C11.2378 11.7446 11.3535 11.6043 11.4449 11.4933C11.4546 11.4816 11.4639 11.4703 11.473 11.4593L11.4731 11.4593C11.4862 11.4434 11.4997 11.4273 11.5136 11.4107C11.5956 11.3127 11.6874 11.203 11.7672 11.0846C11.8189 11.0079 11.824 10.9089 11.7805 10.8272C11.7369 10.7456 11.6519 10.6947 11.5594 10.6949C11.5337 10.6949 11.5046 10.6964 11.4813 10.6976L11.4795 10.6977L11.4789 10.6977C11.4529 10.699 11.4296 10.7002 11.4071 10.7006C11.3864 10.701 11.3707 10.7007 11.3594 10.6999C11.3305 10.6872 11.2994 10.68 11.2677 10.6788L10.8167 10.662Z" fill="#080706" stroke="#441F00" stroke-width="0.5" stroke-linejoin="round"/>
<path d="M10.6685 10.8817C10.7158 10.8362 10.7792 10.8112 10.8449 10.812C10.8467 10.8121 10.8494 10.8121 10.8528 10.812C10.874 10.812 10.9232 10.8119 10.9672 10.8182C11.025 10.8265 11.1107 10.8492 11.185 10.9201L10.6685 10.8817ZM10.6685 10.8817C10.6676 10.8825 10.666 10.8839 10.6639 10.8857C10.6377 10.9086 10.5249 11.0068 10.5158 11.1675L10.5158 11.1675C10.5126 11.2228 10.5216 11.2784 10.5384 11.3276C10.5547 11.3752 10.5854 11.4373 10.6421 11.4881L10.6421 11.4881C10.7602 11.5939 10.9068 11.5981 10.9759 11.5961C11.0344 11.5944 11.0904 11.5723 11.1343 11.5335C11.1354 11.5325 11.1372 11.531 11.1396 11.5291C11.17 11.5041 11.2921 11.404 11.3032 11.2373L11.3032 11.2373M10.6685 10.8817L11.3032 11.2373M11.3032 11.2373C11.3058 11.1972 11.3058 11.141 11.2864 11.0799M11.3032 11.2373L11.2864 11.0799M11.2864 11.0799C11.2657 11.0147 11.2291 10.9622 11.185 10.9201L11.2864 11.0799Z" fill="#FEFEFE" stroke="#441F00" stroke-width="0.5" stroke-linejoin="round"/>
<path d="M7.45949 8.31888C7.52369 8.416 7.64643 8.45595 7.75549 8.41522C7.77162 8.4092 7.81477 8.40179 7.89435 8.39942C7.93035 8.39835 7.96752 8.39836 8.00645 8.39846C8.00935 8.39847 8.01228 8.39848 8.01523 8.39849C8.04985 8.39859 8.08745 8.3987 8.12129 8.39774C8.1214 8.39774 8.12151 8.39774 8.12161 8.39773L9.02885 8.37336C9.12986 8.37065 9.21931 8.30739 9.25553 8.21305C9.29174 8.11871 9.26761 8.01185 9.19436 7.94224L8.55358 7.33323L8.55363 7.33318L8.54912 7.32909L6.96613 5.89633L6.9662 5.89626L6.96076 5.89161L6.23602 5.2724L6.23611 5.27231L6.22983 5.26728C6.21422 5.25479 6.19768 5.24134 6.1803 5.2272C6.07706 5.14323 5.94434 5.03529 5.80134 4.96176C5.70023 4.90976 5.57676 4.93254 5.50086 5.01721C5.42496 5.10187 5.41576 5.22709 5.47846 5.32194L7.45949 8.31888Z" fill="#E78A02" stroke="#441F00" stroke-width="0.5" stroke-linejoin="round"/>
<path d="M5.95839 5.28717C5.91006 5.17712 5.79026 5.11704 5.67315 5.14413C5.55605 5.17121 5.47479 5.2778 5.4797 5.3979L5.61826 8.79017L5.61799 9.236C5.61793 9.32682 5.66712 9.41052 5.7465 9.45465C5.82587 9.49878 5.92293 9.4964 6.00004 9.44843L6.95959 8.85151C6.99716 8.82868 7.03692 8.80122 7.0686 8.77933C7.07863 8.77241 7.08785 8.76604 7.09594 8.76055C7.13606 8.73333 7.16406 8.71641 7.18792 8.7058C7.31369 8.6499 7.37061 8.50285 7.31527 8.37683L5.95839 5.28717Z" fill="#FEFEFE" stroke="#441F00" stroke-width="0.5" stroke-linejoin="round"/>
<path d="M11.2172 8.03707C11.0953 8.02975 10.986 8.11155 10.9586 8.23055C10.9582 8.23208 10.9579 8.23357 10.9576 8.23502C10.9549 8.23749 10.9521 8.24011 10.949 8.2429C10.9381 8.25273 10.9263 8.26288 10.9128 8.27435C10.9109 8.27596 10.909 8.27762 10.907 8.27934C10.8961 8.28856 10.8836 8.2992 10.8722 8.30924L10.5563 8.58147C10.5563 8.58151 10.5562 8.58155 10.5562 8.5816C10.5562 8.58161 10.5562 8.58162 10.5561 8.58163C10.4405 8.68111 10.326 8.78096 10.2119 8.8804C9.75508 9.27878 9.30589 9.67046 8.82177 10.0049C8.75598 10.0503 8.7159 10.1245 8.71394 10.2045C8.71198 10.2844 8.74839 10.3605 8.81188 10.4091L9.39487 10.8555L9.39484 10.8555L9.39839 10.8581C9.4356 10.8856 9.47231 10.9125 9.50853 10.9391C9.77567 11.1351 10.016 11.3115 10.2313 11.5334C10.2352 11.5374 10.2393 11.5413 10.2434 11.545C10.288 11.6084 10.3597 11.6478 10.4376 11.651C10.5207 11.6544 10.6 11.6163 10.6492 11.5494L10.752 11.4098L10.7521 11.4097L11.0092 11.0599C11.0317 11.0292 11.047 10.9938 11.0537 10.9564L11.5284 8.336C11.5412 8.26567 11.5232 8.19324 11.479 8.13702C11.4349 8.08081 11.3688 8.04618 11.2974 8.04189L11.2172 8.03707Z" fill="#FBD522" stroke="#441F00" stroke-width="0.5" stroke-linejoin="round"/>
<path d="M14.9824 5.54C14.9911 5.43023 14.927 5.32766 14.8245 5.28743C14.722 5.24719 14.6052 5.27876 14.537 5.36517L12.0187 8.5531C11.9767 8.60621 11.9581 8.67407 11.967 8.74116C11.976 8.80826 12.0118 8.86885 12.0662 8.90909L13.0128 9.60894L13.0133 9.60938L14.2036 10.4948C14.2766 10.5491 14.3733 10.5595 14.4561 10.5219C14.5389 10.4843 14.5948 10.4047 14.602 10.3141L14.9824 5.54Z" fill="#FBD522" stroke="#441F00" stroke-width="0.5" stroke-linejoin="round"/>
<path d="M6.98492 8.24885C6.99665 8.24364 7.00875 8.23934 7.02113 8.23598L7.03858 8.23121L6.98492 8.24885ZM6.98492 8.24885C6.9185 8.27837 6.8602 8.31628 6.81532 8.34673C6.79934 8.35757 6.78545 8.36716 6.77283 8.37588C6.74513 8.39501 6.72353 8.40993 6.69938 8.42455L6.69937 8.42453L6.69678 8.42614L5.73604 9.02381C5.68911 9.05301 5.65318 9.09692 5.63386 9.1487L4.85338 11.2406C4.84799 11.2551 4.84395 11.27 4.84131 11.2852L4.45731 13.4932C4.44832 13.5449 4.45582 13.5981 4.47874 13.6452L6.04835 16.8768L6.98492 8.24885ZM8.92891 9.68497C8.71579 9.34634 8.48479 9.02197 8.22546 8.71241L8.2255 8.71238L8.22221 8.70861L7.94535 8.39124L7.945 8.39084C7.93903 8.38403 7.9308 8.37491 7.92356 8.36688C7.92035 8.36332 7.91733 8.35998 7.9148 8.35716C7.90742 8.34893 7.90052 8.34113 7.8942 8.33373C7.8943 8.3327 7.89439 8.33165 7.89449 8.33058C7.8957 8.31742 7.89711 8.30463 7.89872 8.2901C7.8992 8.28567 7.89971 8.28108 7.90023 8.27627C7.90215 8.2587 7.90475 8.23429 7.90575 8.21186C7.90923 8.13424 7.87641 8.05942 7.81697 8.0094C7.75752 7.95937 7.67819 7.93983 7.60231 7.95652C7.48931 7.98137 7.37605 8.03539 7.28446 8.08506C7.20204 8.12975 7.12155 8.17978 7.0584 8.21903C7.05172 8.22318 7.04524 8.22721 7.03897 8.2311L8.92891 9.68497Z" fill="#FEFEFE" stroke="#441F00" stroke-width="0.5" stroke-linejoin="round"/>
<path d="M7.52535 12.5223C7.61903 12.4725 7.73395 12.4872 7.81202 12.5591C7.85254 12.5964 7.90802 12.6338 7.9807 12.6771C8.00183 12.6897 8.02667 12.7041 8.05309 12.7193C8.10509 12.7493 8.16323 12.7829 8.21129 12.8137L8.21498 12.816L8.21496 12.8161L8.92955 13.2914C9.03455 13.3612 9.0711 13.4984 9.01478 13.6112C8.9789 13.6831 8.92787 13.7443 8.88958 13.7874C8.87036 13.809 8.85077 13.8299 8.83419 13.8475L8.83175 13.8501C8.81363 13.8694 8.79955 13.8845 8.78759 13.8982L8.78173 13.9049L8.78161 13.9048L8.09891 14.6309L8.6124 14.8143L8.61654 14.8158L8.61652 14.8159L9.03669 14.9743C9.03678 14.9744 9.03687 14.9744 9.03696 14.9745L9.0372 14.9745L9.02589 15.0045C9.03616 14.999 9.04814 14.9922 9.06154 14.9845M7.52535 12.5223L7.1215 15.2619C7.28707 15.1607 7.4464 15.0698 7.61441 14.9888L7.65318 15.0026L7.71216 15.2111C7.69434 15.2162 7.68159 15.2162 7.67722 15.216M7.52535 12.5223L6.38802 13.127C6.32605 13.1599 6.28078 13.2174 6.26328 13.2853C6.24577 13.3533 6.25763 13.4255 6.29597 13.4843L6.77653 14.2211L6.77628 14.2213L6.78346 14.2312L6.78552 14.234C6.88949 14.3776 7.00284 14.5341 7.1231 14.6813M7.52535 12.5223L7.1231 14.6813M9.06154 14.9845L9.07782 14.9916C9.08003 14.9926 9.08215 14.9935 9.08419 14.9945C9.09339 14.9986 9.1011 15.002 9.10895 15.0053L9.1201 15.0099L9.12353 15.0112M9.06154 14.9845C9.0664 14.9817 9.07145 14.9787 9.07668 14.9756C9.10207 14.9607 9.1279 14.9449 9.15182 14.9303L9.15473 14.9285L9.15784 14.9266C9.17866 14.9139 9.20365 14.8987 9.22067 14.8894L9.22291 14.8881L9.22292 14.8882L10.4028 14.2598L10.4056 14.2583L10.4056 14.2583C10.4427 14.2392 10.4819 14.2174 10.5259 14.1929L10.531 14.1901C10.5724 14.167 10.6178 14.1418 10.6639 14.1176C10.7583 14.0681 10.8707 14.015 10.9891 13.9855C11.1091 13.9555 11.233 14.0178 11.2805 14.1321C11.3279 14.2463 11.2847 14.3781 11.1788 14.442L10.4326 14.8925L10.4279 14.8953L10.4279 14.8953L9.41268 15.478L9.40951 15.4799L9.4095 15.4798C9.40951 15.4798 9.40873 15.4803 9.40696 15.4813L9.40014 15.4855L9.37866 15.4991C9.37632 15.5006 9.37385 15.5022 9.37128 15.5038C9.35596 15.5137 9.3369 15.5259 9.31791 15.5375C9.29607 15.5509 9.26901 15.5669 9.24145 15.5805C9.22201 15.5902 9.1714 15.6149 9.11141 15.6209L9.11136 15.6209C9.07954 15.6241 9.05256 15.6213 9.03733 15.6192C9.02022 15.6168 9.00466 15.6135 8.99231 15.6105C8.96783 15.6046 8.94367 15.5969 8.92484 15.5907C8.90915 15.5855 8.89312 15.5798 8.8806 15.5754C8.87789 15.5745 8.87534 15.5736 8.873 15.5728C8.86025 15.5683 8.85459 15.5664 8.85291 15.5659C8.85238 15.5657 8.85224 15.5657 8.85241 15.5657L8.84961 15.565L8.84962 15.5649L7.89535 15.2898L7.89366 15.2893L7.89366 15.2893C7.8615 15.2798 7.82714 15.2667 7.80162 15.257L7.80072 15.2567L7.79673 15.2551C7.76937 15.2447 7.74658 15.2361 7.72444 15.2287C7.70857 15.2234 7.69679 15.2201 7.68844 15.2182M9.06154 14.9845L7.1231 14.6813M9.12353 15.0112L9.12281 15.0111L9.11613 15.0094C9.11305 15.0087 9.10817 15.0077 9.10188 15.0068C9.09578 15.0059 9.08639 15.0049 9.07465 15.0048L9.07374 15.1006C9.08244 15.0951 9.0913 15.0894 9.10058 15.0834C9.10335 15.0817 9.10616 15.0799 9.10902 15.078L9.10912 15.078C9.12441 15.0682 9.14593 15.0544 9.16503 15.0437L9.27153 14.9825L9.2728 14.9818L10.1766 14.463L10.4297 14.3102L10.4317 14.309L10.9204 14.014L11.0496 14.228L11.1101 14.4706C11.0507 14.4854 10.9807 14.5161 10.8961 14.5604C10.8556 14.5816 10.8152 14.6041 10.7723 14.628L10.7691 14.6298C10.7266 14.6535 10.6812 14.6787 10.6365 14.7018L10.3951 14.8304L10.3917 14.8322L9.45969 15.3285C9.45913 15.3289 9.45808 15.3295 9.45643 15.3304L9.44628 15.3364L9.41523 15.3553L9.41151 15.3576C9.3965 15.3667 9.37921 15.3773 9.36109 15.3882C9.36048 15.3886 9.35987 15.3889 9.35926 15.3893C9.34982 15.395 9.34018 15.4007 9.33053 15.4064C9.3008 15.4239 9.2669 15.4433 9.23592 15.4588C9.2207 15.4665 9.20189 15.4754 9.18214 15.483C9.18184 15.4831 9.1815 15.4832 9.18114 15.4834C9.17148 15.4871 9.14019 15.4992 9.09966 15.5033C9.09965 15.5033 9.09964 15.5033 9.09963 15.5033C9.09025 15.5043 9.08038 15.5048 9.07017 15.5047L9.0699 15.5047C9.04161 15.5045 9.01827 15.4999 9.00492 15.4969C8.99009 15.4935 8.97692 15.4894 8.96673 15.486C8.94658 15.4793 8.92737 15.4715 8.91311 15.4654C8.90274 15.461 8.89223 15.4563 8.88364 15.4525C8.88316 15.4523 8.88269 15.4521 8.88222 15.4519C8.88119 15.4514 8.8802 15.451 8.87923 15.4505C8.87751 15.4498 8.87589 15.449 8.87441 15.4484C8.86707 15.4451 8.86327 15.4435 8.8617 15.4428C8.86061 15.4423 8.8606 15.4423 8.86124 15.4426L8.86073 15.4424L8.44211 15.2845L7.94781 15.1079L7.94741 15.1077L7.65363 15.0028L7.71495 15.2103L7.68844 15.2182M9.12353 15.0112L9.12426 15.0115L9.12475 15.0117C9.1247 15.0117 9.12431 15.0115 9.12353 15.0112ZM7.68844 15.2182C7.68443 15.2172 7.68121 15.2166 7.6787 15.2162C7.67812 15.2161 7.67763 15.216 7.67722 15.216M7.68844 15.2182L6.75846 15.4929C6.6468 15.5259 6.52714 15.4774 6.46991 15.376C6.41268 15.2746 6.43303 15.1471 6.51899 15.0686C6.61339 14.9823 6.72681 14.915 6.81245 14.8642C6.82985 14.8538 6.84611 14.8442 6.86082 14.8352L6.86083 14.8352C6.94738 14.7823 7.03429 14.7309 7.1231 14.6813M7.67722 15.216C7.67608 15.2158 7.67555 15.2158 7.67556 15.2158L7.67722 15.216ZM8.9871 15.0842L8.98814 15.0845L8.96388 15.1687L8.9871 15.0842ZM8.9871 15.0842L8.56158 14.9615L8.55998 14.9611L8.0349 14.8097C8.02388 14.8064 8.00743 14.8003 7.97854 14.7893C7.97654 14.7886 7.97449 14.7878 7.9724 14.787C7.96367 14.7837 7.95409 14.78 7.94393 14.7762L8.9871 15.0842ZM8.95634 15.1889L8.95076 15.2091L8.95634 15.1889ZM8.96355 15.1698L8.99497 15.0865C9.00207 15.0886 9.00864 15.0908 9.01399 15.0925L9.03816 15.1008C9.04151 15.102 9.04475 15.1031 9.04791 15.1043C9.05231 15.1058 9.05655 15.1073 9.06069 15.1087C9.05926 15.1096 9.05782 15.1105 9.05638 15.1114C9.03908 15.122 9.02705 15.1288 9.01969 15.1324C9.01612 15.1342 9.01679 15.1336 9.02079 15.1322L9.02088 15.1321C9.02347 15.1312 9.0386 15.1257 9.06169 15.1234L9.07247 15.2313L9.07227 15.2546L9.07249 15.2315L9.0748 15.2546L8.96355 15.1698ZM9.07339 15.1225L9.07247 15.231L9.06174 15.1234C9.06584 15.123 9.06974 15.1227 9.07339 15.1225Z" fill="#080706" stroke="#441F00" stroke-width="0.5" stroke-linejoin="round"/>
<path d="M6.56925 16.827C6.53932 16.7361 6.4601 16.6702 6.36523 16.6574C6.27036 16.6446 6.17651 16.6871 6.12354 16.7668L4.65456 18.978C4.61233 19.0416 4.60145 19.1209 4.62501 19.1935C4.64857 19.2661 4.70399 19.324 4.7755 19.3506C4.8251 19.3691 4.86649 19.3949 4.92705 19.4326C4.95184 19.448 4.97984 19.4654 5.01292 19.4852L5.01292 19.4852L5.01421 19.4859L5.46077 19.7489L5.46077 19.7489L5.46188 19.7495L6.70403 20.4724C6.78411 20.519 6.8834 20.5175 6.96203 20.4685C7.04066 20.4195 7.08572 20.331 7.07914 20.2386C7.03968 19.6849 6.94757 19.1213 6.85855 18.5765C6.82796 18.3893 6.79773 18.2043 6.77012 18.0227L6.6668 17.3239L6.66676 17.3236C6.66355 17.3021 6.66035 17.2793 6.657 17.2556C6.63905 17.1282 6.61711 16.9725 6.56925 16.827Z" fill="#FBBF05" stroke="#441F00" stroke-width="0.5" stroke-linejoin="round"/>
<path d="M6.98474 8.24885C6.99646 8.24364 7.00857 8.23934 7.02095 8.23598L7.03839 8.23121L6.98474 8.24885ZM6.98474 8.24885C6.91832 8.27837 6.86001 8.31628 6.81514 8.34673C6.79916 8.35757 6.78527 8.36716 6.77265 8.37588C6.74494 8.39501 6.72335 8.40993 6.69919 8.42455L6.69919 8.42453L6.6966 8.42614L5.73585 9.02381C5.68914 9.05287 5.65333 9.09652 5.63394 9.148L4.86272 11.1962C4.82614 11.2933 4.85339 11.403 4.9312 11.4717L6.33265 12.7093C6.40024 12.769 6.49473 12.7876 6.57993 12.7581L7.65434 12.3861L7.65435 12.3861L7.65674 12.3853C7.68503 12.3752 7.70872 12.3678 7.73707 12.3591C7.76185 12.3514 7.79019 12.3427 7.82827 12.33C7.89238 12.3086 7.97709 12.2778 8.05011 12.2321M6.98474 8.24885L8.05011 12.2321M7.81678 8.0094C7.87623 8.05942 7.90904 8.13424 7.90557 8.21186C7.90457 8.23429 7.90196 8.2587 7.90005 8.27627C7.89952 8.28109 7.89902 8.28569 7.89853 8.29012C7.89693 8.30464 7.89552 8.31743 7.89431 8.33058C7.89421 8.33165 7.89411 8.3327 7.89402 8.33373C7.90034 8.34113 7.90724 8.34893 7.91461 8.35716C7.91715 8.35999 7.92017 8.36333 7.92339 8.36689C7.93062 8.37491 7.93885 8.38403 7.94481 8.39084L7.94517 8.39124L8.22203 8.70861L8.22532 8.71238L8.22528 8.71241C8.4846 9.02197 8.71561 9.34634 8.92872 9.68497L7.81678 8.0094ZM7.81678 8.0094C7.75733 7.95937 7.67801 7.93983 7.60213 7.95652M7.81678 8.0094L7.60213 7.95652M7.60213 7.95652C7.48912 7.98137 7.37587 8.03539 7.28428 8.08506C7.20186 8.12975 7.12137 8.17978 7.05822 8.21903C7.05154 8.22318 7.04506 8.22721 7.03879 8.2311L7.60213 7.95652ZM9.15633 10.2776C9.15323 10.3135 9.14244 10.3482 9.12468 10.3795C9.10163 10.4201 9.03694 10.5394 8.9504 10.6989C8.857 10.8711 8.73814 11.0903 8.6187 11.3081C8.50491 11.5156 8.39142 11.7204 8.30208 11.8764C8.25758 11.954 8.2179 12.0216 8.18663 12.072C8.17121 12.0968 8.15605 12.1203 8.14235 12.1398C8.13565 12.1493 8.1271 12.1609 8.11747 12.1725C8.11731 12.1727 8.11712 12.1729 8.11689 12.1732C8.1117 12.1794 8.08742 12.2088 8.05011 12.2321C8.05011 12.2321 8.05011 12.2321 8.05011 12.2321M9.15633 10.2776L8.05011 12.2321M9.15633 10.2776C9.16874 10.1341 9.10891 9.99838 9.06606 9.91472M9.15633 10.2776L9.06606 9.91472M9.06606 9.91472C9.02753 9.83948 8.97987 9.76503 8.94718 9.71394M9.06606 9.91472L8.94718 9.71394M8.94718 9.71394C8.94029 9.70318 8.93407 9.69346 8.92873 9.68498L8.94718 9.71394Z" fill="url(#paint1_linear_2091_322)" stroke="#441F00" stroke-width="0.5" stroke-linejoin="round"/>
<path d="M7.00984 10.5391C6.93438 10.4773 6.82988 10.4651 6.74216 10.5077L6.23202 10.7557C6.11549 10.8123 6.06155 10.9486 6.10773 11.0696C6.14477 11.1667 6.19069 11.2646 6.23197 11.3526C6.24168 11.3733 6.25114 11.3935 6.26017 11.413C6.31025 11.521 6.35072 11.6153 6.37596 11.7061C6.40358 11.8055 6.48939 11.8777 6.59202 11.8879L7.06269 11.9348L7.06269 11.9349L7.06644 11.9352L7.55408 11.9764C7.63895 11.9835 7.72163 11.947 7.77348 11.8794C7.82532 11.8119 7.83919 11.7225 7.81029 11.6424L7.53715 10.8854C7.51264 10.8174 7.45995 10.7634 7.39264 10.7372L7.37508 10.7304C7.23779 10.6751 7.09118 10.6057 7.00984 10.5391Z" fill="#080706" stroke="#441F00" stroke-width="0.5" stroke-linejoin="round"/>
<path d="M6.65488 10.7205C6.70148 10.6943 6.75522 10.6838 6.80824 10.6904C6.84537 10.695 6.90123 10.7025 6.95866 10.7272C7.02081 10.7538 7.06577 10.7918 7.10129 10.8264C7.12824 10.8526 7.14892 10.8846 7.16179 10.9199C7.16223 10.9211 7.16271 10.9225 7.16323 10.9238C7.17133 10.9459 7.18785 10.9909 7.19433 11.0416C7.20254 11.1058 7.19463 11.1693 7.17005 11.2328L6.65488 10.7205ZM6.65488 10.7205C6.65267 10.7217 6.6501 10.7231 6.64722 10.7247M6.65488 10.7205L6.64722 10.7247M6.94185 11.4584C6.89712 11.4816 6.84638 11.4908 6.79632 11.4847C6.75363 11.4795 6.69821 11.4707 6.64045 11.4465C6.57884 11.4206 6.52879 11.3835 6.48491 11.339C6.46078 11.3146 6.44194 11.2854 6.42959 11.2533C6.41226 11.2083 6.37819 11.1168 6.41022 10.999L6.94185 11.4584ZM6.94185 11.4584C6.94296 11.4578 6.94485 11.4569 6.94742 11.4557M6.94185 11.4584L6.94742 11.4557M6.94742 11.4557C6.97895 11.4412 7.11327 11.3792 7.17001 11.2329L6.94742 11.4557ZM6.64722 10.7247C6.59802 10.7517 6.45635 10.8293 6.41022 10.9989L6.64722 10.7247Z" fill="#FEFEFE" stroke="#441F00" stroke-width="0.5" stroke-linejoin="round"/>
<path d="M4.83647 13.3032C4.74133 13.2513 4.6236 13.2667 4.54492 13.3412C4.46623 13.4157 4.44449 13.5324 4.49109 13.6302L4.74151 14.156L4.74175 14.1565L5.39402 15.5338L5.39418 15.5342L5.85301 16.5069L5.85295 16.507L5.85546 16.512C5.8677 16.5365 5.88085 16.5638 5.89492 16.5931C5.94793 16.7033 6.01393 16.8405 6.09265 16.9541C6.14909 17.0356 6.24835 17.076 6.34567 17.0572C6.44299 17.0384 6.51999 16.9638 6.54195 16.8671C6.55125 16.8262 6.55448 16.787 6.5546 16.7516L9.01952 18.5454C9.10415 18.607 9.2182 18.6094 9.30529 18.5513L14.8364 14.864C14.9392 14.7955 14.9765 14.6622 14.9243 14.5503C14.8722 14.4384 14.7461 14.3813 14.6276 14.416L12.9179 14.9157L10.7619 15.5082L10.7619 15.5082L10.7603 15.5087L9.11703 15.9718C9.09173 15.9784 9.06569 15.9868 9.04469 15.9936C9.03707 15.9961 9.02996 15.9985 9.02315 16.0007C9.00789 16.0058 8.99415 16.0103 8.97954 16.0149C8.96501 16.0195 8.95296 16.023 8.94301 16.0255C8.93522 16.0224 8.92692 16.0189 8.9169 16.0147L8.91571 16.0142C8.90595 16.0101 8.89126 16.0039 8.87732 15.9987L8.4718 15.8415L6.87638 15.1858C6.84817 15.1732 6.83505 15.1597 6.79101 15.1145C6.77571 15.0988 6.75669 15.0793 6.73201 15.0547L6.73128 15.0539L6.47082 14.7961L6.47087 14.796L6.46653 14.7919L5.53349 13.9114L5.53349 13.9114L5.53289 13.9108L5.13478 13.5375L5.13481 13.5375L5.13146 13.5345C5.12289 13.5267 5.11352 13.5181 5.10341 13.5088C5.03887 13.4492 4.94426 13.362 4.83647 13.3032Z" fill="#DCDCD8" stroke="#441F00" stroke-width="0.5" stroke-linejoin="round"/>
<path d="M15.2541 13.0276C15.2527 13.0227 15.2515 13.0177 15.2504 13.0127L15.2493 13.0076C15.2339 12.9424 15.2203 12.877 15.2078 12.8149L14.8506 11.156L14.695 10.4581L14.6945 10.456L14.6945 10.456C14.6892 10.4311 14.6819 10.4008 14.6737 10.3669C14.6493 10.2662 14.6172 10.1339 14.608 10.0196L14.608 10.0196C14.597 9.88247 14.6075 9.73271 14.6161 9.61049C14.6186 9.57511 14.6209 9.54204 14.6225 9.51225C14.6225 9.51194 14.6226 9.51164 14.6226 9.51133L14.6513 8.87757C14.6492 8.87292 14.6472 8.86788 14.6452 8.86246C14.6407 8.85018 14.6361 8.83466 14.6331 8.81638C14.6302 8.798 14.6287 8.77576 14.6312 8.75084C14.6338 8.72554 14.6405 8.6987 14.6527 8.67207C14.665 8.64536 14.6813 8.62214 14.7 8.60276C14.7185 8.58365 14.7378 8.56968 14.7554 8.55958C14.7728 8.54955 14.7891 8.54295 14.8027 8.53854C14.8163 8.53411 14.8285 8.53143 14.8385 8.52974C14.8579 8.52647 14.8741 8.52611 14.8845 8.52628C14.8954 8.52646 14.9046 8.52733 14.9111 8.52814C14.9179 8.52897 14.9236 8.52995 14.928 8.53081C14.9367 8.53247 14.9437 8.53429 14.9482 8.53554C14.953 8.53686 14.9571 8.53813 14.9601 8.53912C14.966 8.54106 14.971 8.54291 14.9743 8.54419C14.981 8.54675 14.987 8.54931 14.9913 8.55119C15.0002 8.55508 15.0094 8.55939 15.0174 8.56329C15.0254 8.56718 15.0344 8.57176 15.0429 8.57638C15.0471 8.57861 15.0528 8.58176 15.0589 8.58546C15.062 8.58731 15.0665 8.5901 15.0717 8.59361C15.0744 8.5954 15.0779 8.59783 15.0819 8.6008C15.0857 8.60361 15.0915 8.60807 15.0982 8.61394C15.1016 8.61695 15.106 8.62093 15.1108 8.6258C15.1155 8.63053 15.1219 8.63731 15.1289 8.64597C15.1355 8.65423 15.1453 8.66747 15.1547 8.68521C15.1596 8.69433 15.165 8.7059 15.1698 8.71969C15.1747 8.73345 15.1794 8.7508 15.182 8.77116C15.1846 8.79171 15.1851 8.81594 15.1808 8.8425C15.1764 8.86943 15.1675 8.89656 15.1535 8.92234C15.1524 8.92434 15.1513 8.92631 15.1502 8.92826L15.1083 9.97786L15.339 11.049L15.401 11.3274L15.4014 11.3291L15.4014 11.3291L15.6549 12.5051C15.655 12.5053 15.655 12.5055 15.655 12.5057C15.6697 12.5719 15.6821 12.6347 15.694 12.6947C15.6966 12.7078 15.6992 12.7208 15.7018 12.7336L15.7375 12.8995L15.7893 13.0815C15.7909 13.087 15.7923 13.0926 15.7935 13.0982C15.7939 13.1002 15.7943 13.1022 15.7947 13.1043C15.801 13.1338 15.8105 13.1784 15.8123 13.2326L16.5564 18.1336L16.9488 18.6045L17.3371 18.7469C17.4365 18.7834 17.5022 18.8786 17.501 18.9845L17.4986 19.1844C17.4986 19.1845 17.4986 19.1845 17.4986 19.1846M15.2541 13.0276L17.4986 19.1846M15.2541 13.0276C15.2689 13.0887 15.2854 13.1493 15.3042 13.2067L15.3046 13.2093L13.9408 15.8966L11.9742 19.562L11.9732 19.5639L10.9186 21.4888L10.5765 22.0772C10.5765 22.0772 10.5765 22.0772 10.5765 22.0772C10.5638 22.099 10.5495 22.1222 10.5329 22.1492L10.5325 22.1498C10.5165 22.1758 10.4986 22.205 10.4811 22.2348C10.4467 22.2935 10.4071 22.3663 10.3804 22.4438C10.3555 22.5158 10.3648 22.5953 10.4057 22.6595C10.4466 22.7238 10.5145 22.766 10.5903 22.774L10.6449 22.7798C10.707 22.8015 10.7755 22.798 10.8355 22.7692L17.0379 19.7902M15.2541 13.0276L17.0379 19.7902M17.4986 19.1846C17.4985 19.1943 17.4988 19.2024 17.4992 19.2148C17.4993 19.2207 17.4996 19.2275 17.4998 19.2359C17.5004 19.2577 17.5009 19.2903 17.4974 19.3256C17.4894 19.4047 17.4604 19.5015 17.3741 19.5846L17.3741 19.5846C17.2659 19.6886 17.1288 19.7507 17.0379 19.7902M17.4986 19.1846L17.0379 19.7902M14.9054 8.7927L15.1286 8.80161C15.1312 8.77687 15.1297 8.7548 15.1267 8.73656C15.1238 8.71832 15.1192 8.70284 15.1147 8.69061C15.1102 8.67833 15.1053 8.66799 15.101 8.65978C15.0926 8.64382 15.084 8.63176 15.0781 8.62412C15.0719 8.61614 15.0663 8.60984 15.0621 8.60542C15.0578 8.60089 15.054 8.59718 15.051 8.59438C15.0452 8.58894 15.0402 8.58487 15.0372 8.58243C15.0343 8.58011 15.0317 8.57816 15.0296 8.57662L14.9054 8.7927ZM14.9054 8.7927L14.6848 8.78271C14.6853 8.77626 14.6861 8.76964 14.6872 8.76287C14.6915 8.73597 14.7004 8.70887 14.7144 8.68312C14.7284 8.65747 14.7458 8.63627 14.7641 8.61928C14.7822 8.60254 14.8005 8.59056 14.8166 8.58203C14.8326 8.57354 14.8473 8.56792 14.8595 8.56413C14.8717 8.56032 14.8827 8.55795 14.8916 8.55642C14.9091 8.55343 14.9236 8.55288 14.9331 8.55286C14.943 8.55284 14.9513 8.55342 14.9572 8.554C14.9634 8.55459 14.9686 8.55532 14.9726 8.55596C14.9804 8.55721 14.9865 8.5586 14.9903 8.5595C14.9938 8.56033 14.9968 8.56115 14.9993 8.56184L14.9054 8.7927Z" fill="#FBBF05" stroke="#441F00" stroke-width="0.5" stroke-linejoin="round"/>
<path d="M16.4893 18.0458C16.4026 17.9443 16.2515 17.9288 16.146 18.0106L13.3542 20.1765L13.3539 20.1767L11.5792 21.5582L10.9493 22.0379L10.6794 22.2333L10.6794 22.2333L10.6769 22.2351C10.6723 22.2385 10.6671 22.2422 10.6576 22.2488C10.656 22.2499 10.6543 22.2511 10.6524 22.2524C10.6414 22.2601 10.6261 22.2708 10.6104 22.2828C10.584 22.303 10.5313 22.3453 10.494 22.4086C10.4585 22.469 10.4499 22.5415 10.4704 22.6086C10.4909 22.6756 10.5387 22.7309 10.602 22.7611L10.6198 22.7696C10.6881 22.8021 10.7674 22.802 10.8356 22.7692L17.038 19.7903C17.1289 19.7507 17.266 19.6887 17.3741 19.5846L17.3742 19.5846C17.4604 19.5016 17.4895 19.4048 17.4974 19.3256C17.501 19.2903 17.5004 19.2578 17.4999 19.236C17.4996 19.2276 17.4994 19.2207 17.4992 19.2149C17.4988 19.2024 17.4986 19.1943 17.4987 19.1845C17.5001 19.0554 17.4031 18.9465 17.2748 18.9331C17.265 18.9321 17.2553 18.9316 17.2457 18.9317L16.4893 18.0458Z" fill="#D07202" stroke="#441F00" stroke-width="0.5" stroke-linejoin="round"/>
<path d="M4.86279 19.1164C4.96108 19.153 5.05112 19.2169 5.14106 19.2706L5.58762 19.5335L6.82976 20.2564L10.4829 22.5641C10.3965 22.5511 10.3169 22.5098 10.2373 22.4745L9.75395 22.2392L8.56249 21.6486L5.62008 20.1939L3.83154 19.2593C3.93047 19.1707 4.69524 19.1146 4.86279 19.1164Z" fill="#D07202"/>
<path d="M5.86859 8.78518L5.69824 5.19458L8.27653 7.59197L9.02381 8.06412H11.9038L12.7316 7.26696C12.8942 7.14447 13.0442 6.98033 13.1916 6.83871L14.1082 5.98406C14.247 5.87339 14.3756 5.75284 14.5037 5.63006C14.6243 5.51439 14.7236 5.39384 14.8862 5.33611C14.9357 5.34365 14.9333 5.34334 14.965 5.38241C15.0005 5.52967 14.9814 5.71114 14.9809 5.86432L14.9743 6.77547C14.9721 6.92342 14.9581 7.07563 14.9651 7.22301L14.9055 8.79276L14.8723 9.52463C14.8641 9.67981 14.8449 9.84457 14.8573 9.99959C14.8679 10.1312 14.9114 10.274 14.9391 10.4038L15.1571 11.3819L15.4109 12.559C15.4532 12.7508 15.4853 12.9655 15.549 13.15C15.2362 12.9876 14.937 12.7559 14.6433 12.5593L13.2514 11.6286L11.1646 12.8857L9.52574 12.3538L8.90765 10.2562C8.91946 10.1196 8.78932 9.93228 8.71754 9.81824C8.50949 9.48766 8.28503 9.17267 8.03403 8.87305L7.75717 8.55569C7.72727 8.52156 7.65803 8.45013 7.64691 8.41018C7.6338 8.36304 7.65383 8.25397 7.65621 8.20078C7.50047 8.23503 7.30291 8.36194 7.16444 8.44769C7.13834 8.46384 7.11605 8.46944 7.08668 8.47739C6.9964 8.51753 6.91407 8.58705 6.82905 8.63852L5.8683 9.23619L5.86859 8.78518Z" fill="#FBBF05"/>
<path d="M10.8076 10.9119L11.2587 10.9286L11.8549 10.9344L11.7382 11.9987L10.0991 11.9243C10.2163 11.7553 10.3508 11.5824 10.4478 11.4013L10.5505 11.2617L10.8076 10.9119Z" fill="#30290B"/>
<path d="M10.8074 10.9119L11.2584 10.9286L11.2713 10.9357C11.3384 10.963 11.4837 10.945 11.5599 10.9449C11.4756 11.0699 11.377 11.1837 11.2808 11.2995C11.1767 11.4247 11.0775 11.5514 10.942 11.6445C10.8214 11.5465 10.7131 11.4455 10.6131 11.3264L10.5503 11.2617L10.8074 10.9119Z" fill="#080706"/>
<path d="M10.8416 11.062C10.8991 11.0628 10.9675 11.0581 11.0124 11.101C11.0491 11.136 11.057 11.1712 11.0537 11.2208C11.0499 11.2779 11.0087 11.3109 10.9687 11.3462C10.9136 11.3478 10.8519 11.3404 10.8089 11.3019C10.7787 11.2749 10.7631 11.2219 10.7654 11.1817C10.7685 11.1266 10.8046 11.0976 10.8416 11.062Z" fill="#FEFEFE"/>
<path d="M7.66804 8.18102L5.68701 5.18408C5.82544 5.25527 5.95232 5.3654 6.07363 5.46248L6.79836 6.08169L8.38136 7.51444L9.02213 8.12345L8.11445 8.14784C7.9867 8.1515 7.78425 8.13763 7.66804 8.18102Z" fill="#E78A02"/>
<path d="M5.86827 8.78515L5.72949 5.3877L7.08637 8.47736C6.99609 8.51749 6.91375 8.58702 6.82873 8.63848L5.86799 9.23616L5.86827 8.78515Z" fill="#FEFEFE"/>
<path d="M11.2022 8.28662L11.2824 8.29144L10.8078 10.9118L10.5506 11.2616L10.4479 11.4012L10.4331 11.3772L10.4107 11.3593C10.1482 11.0888 9.85045 10.8811 9.54686 10.657L8.96387 10.2106C9.5832 9.78274 10.1493 9.26133 10.7193 8.771L11.0365 8.49765C11.0827 8.4568 11.1537 8.40236 11.1872 8.35174C11.1949 8.34 11.1987 8.30199 11.2022 8.28662Z" fill="#FBD522"/>
<path d="M14.7332 5.52014L14.3528 10.2942L13.162 9.40836L12.2148 8.70807L14.7332 5.52014Z" fill="#FBD522"/>
<path d="M7.08647 8.47729C7.11584 8.46934 7.13813 8.46374 7.16424 8.44758C7.3027 8.36184 7.50026 8.23493 7.656 8.20068C7.65362 8.25387 7.63359 8.36294 7.64671 8.41008C7.65782 8.45003 7.72706 8.52146 7.75696 8.55559L8.03382 8.87296C8.28482 9.17257 8.50928 9.48756 8.71733 9.81814C8.78911 9.93219 8.91925 10.1195 8.90745 10.2561L9.52553 12.3537L11.1644 12.8856L13.2512 11.6285L14.6431 12.5592C14.9368 12.7558 15.236 12.9875 15.5488 13.1499L15.4107 12.5589L16.3196 18.24L17.0876 19.104L17.2485 19.1816C17.2476 19.2642 17.2654 19.3421 17.2006 19.4044C17.127 19.4752 17.0265 19.5225 16.9339 19.5628L10.7272 22.5438L10.7093 22.5353L10.6166 22.5254C10.5993 22.5581 10.5863 22.5872 10.5601 22.6137L10.4829 22.564L6.82971 20.2563L5.58757 19.5334L5.141 19.2704C5.05107 19.2168 4.86274 19.1163 4.86274 19.1163L6.33561 16.896L4.70361 13.536L5.08761 11.328L5.86809 9.23609L6.82884 8.63842C6.91386 8.58695 6.99619 8.51743 7.08647 8.47729Z" fill="#FEFEFE"/>
<path d="M7.64271 12.743C7.76314 12.8539 7.93763 12.9353 8.0765 13.0242L8.79109 13.4996C8.75008 13.5817 8.66055 13.6637 8.59948 13.7335L7.90294 14.4744C7.82215 14.5544 7.70757 14.6408 7.64433 14.734L8.52829 15.0498L8.94896 15.2085C8.97645 15.2188 9.04588 15.2545 9.07227 15.2548C9.10946 15.2551 9.29591 15.1331 9.34043 15.1088L10.5203 14.4805C10.685 14.3954 10.8717 14.2724 11.0496 14.228L10.3034 14.6785L9.28821 15.2612C9.24279 15.2864 9.13135 15.3677 9.08655 15.3721C9.05296 15.3755 8.95497 15.3347 8.91888 15.3247L7.96461 15.0496C7.87746 15.0238 7.72845 14.9467 7.64412 14.9706L6.68763 15.2532C6.778 15.1706 6.88704 15.1121 6.99116 15.0485C7.16969 14.9395 7.34556 14.8392 7.53471 14.7498C7.489 14.6929 7.42523 14.6517 7.37718 14.5955C7.23991 14.4351 7.10987 14.2557 6.98593 14.0845L6.50537 13.3477L7.64271 12.743Z" fill="#080706"/>
<path d="M6.33177 16.9052C6.37995 17.0516 6.39682 17.2084 6.41949 17.3604L6.52289 18.0598C6.63299 18.7842 6.77768 19.5255 6.82977 20.2563L5.58763 19.5335L5.14106 19.2705C5.05112 19.2168 4.96109 19.153 4.86279 19.1163L6.33177 16.9052Z" fill="#FBBF05"/>
<path d="M7.08629 8.47729C7.11565 8.46934 7.13794 8.46374 7.16405 8.44758C7.30251 8.36184 7.50008 8.23493 7.65582 8.20068C7.65344 8.25387 7.6334 8.36294 7.64652 8.41008C7.65763 8.45003 7.72688 8.52146 7.75678 8.55559L8.03364 8.87296C8.28464 9.17257 8.50909 9.48756 8.71715 9.81814C8.78893 9.93219 8.91906 10.1195 8.90726 10.2561C8.8094 10.4285 7.98098 11.9805 7.9175 12.0202C7.8254 12.0778 7.67592 12.1129 7.57255 12.1499L6.49813 12.5219L5.09668 11.2843L5.86791 9.23609L6.82865 8.63842C6.91368 8.58695 6.99601 8.51743 7.08629 8.47729Z" fill="url(#paint2_linear_2091_322)"/>
<path d="M6.85145 10.7325C6.96568 10.8261 7.14556 10.9075 7.28308 10.9629L7.30199 10.9702L7.57513 11.7273L7.08749 11.6861L6.61682 11.6391C6.55462 11.4154 6.42467 11.199 6.34131 10.9805L6.85145 10.7325Z" fill="#080706"/>
<path d="M6.77725 10.9385C6.84915 10.9475 6.87626 10.9563 6.92691 11.0056C6.9452 11.0557 6.95712 11.0904 6.93693 11.1425C6.91696 11.194 6.87229 11.2127 6.82649 11.2366C6.75618 11.228 6.71317 11.2144 6.66289 11.1635C6.64962 11.129 6.64138 11.1016 6.65146 11.0645C6.6689 11.0004 6.72309 10.9689 6.77725 10.9385Z" fill="#FEFEFE"/>
<path d="M4.7168 13.5227C4.80821 13.5725 4.88672 13.6502 4.96379 13.7199L5.3619 14.0932L6.29494 14.9737L6.55539 15.2316C6.62742 15.3035 6.68265 15.3741 6.77844 15.4158L8.37909 16.0737L8.7888 16.2325C8.82293 16.245 8.89252 16.2795 8.92767 16.2798C8.99585 16.2805 9.11215 16.2311 9.18234 16.2131L10.8282 15.7493L12.9861 15.1563L14.6977 14.6559L9.16662 18.3433L6.25762 16.2263L6.28357 16.5737C6.29265 16.6518 6.31578 16.7342 6.29816 16.8117C6.21207 16.6875 6.1468 16.5358 6.07912 16.4003L5.62013 15.4272L4.96745 14.049L4.7168 13.5227Z" fill="#DCDCD8"/>
<path d="M14.9054 8.7927C14.815 8.74073 15.0021 8.83205 14.9054 8.7927L14.8572 9.99953L15.4948 12.9601L15.5489 13.15L15.5626 13.2533L16.3197 18.2401L16.7997 18.8161L17.251 18.9816L17.2486 19.1816C17.2477 19.2642 17.2655 19.3421 17.2007 19.4044C17.1271 19.4753 17.0266 19.5226 16.934 19.5628L10.7273 22.5438L10.7094 22.5353L10.6167 22.5254C10.6538 22.4181 10.7347 22.3023 10.7925 22.2031L11.1363 21.6117L12.1935 19.6821L14.1624 16.0123L15.5626 13.2533C15.563 13.2159 15.5565 13.1861 15.5489 13.15C15.4852 12.9654 15.4531 12.7508 15.4108 12.559L15.157 11.3818L14.939 10.4037C14.9113 10.2739 14.8678 10.1312 14.8572 9.99953C14.8448 9.84451 14.864 9.67975 14.8722 9.52457L14.9054 8.7927Z" fill="#FBBF05"/>
<path d="M16.2992 18.2081L17.2262 19.2939L17.2487 19.1817C17.2478 19.2643 17.2656 19.3422 17.2008 19.4045C17.1272 19.4753 17.0267 19.5227 16.9341 19.5629L10.7273 22.5439L10.7095 22.5354C10.7325 22.4963 10.789 22.4632 10.826 22.4358L11.0983 22.2387L11.7317 21.7563L13.5074 20.374L16.2992 18.2081Z" fill="#D07202"/>
<path fill-rule="evenodd" clip-rule="evenodd" d="M20.8102 5.952L10.5011 0L0.191895 5.952V17.856L10.5011 23.808L20.8102 17.856V5.952ZM10.2696 1.22327C10.3501 1.17667 10.4415 1.15209 10.5345 1.152V1.15387C10.6277 1.15396 10.7192 1.17854 10.7999 1.22514L19.6517 6.33563C19.7324 6.38221 19.7993 6.44919 19.8459 6.52985C19.8925 6.61051 19.9171 6.70201 19.9171 6.79515V17.0171C19.9171 17.1102 19.8925 17.2017 19.8459 17.2824C19.7993 17.363 19.7324 17.43 19.6517 17.4766L10.7985 22.5847C10.7179 22.6314 10.6264 22.656 10.5333 22.656C10.4402 22.656 10.3487 22.6314 10.2682 22.5847L1.41729 17.4747C1.33662 17.4281 1.26963 17.3612 1.22305 17.2805C1.17646 17.1998 1.15192 17.1083 1.15189 17.0152V6.79328C1.15192 6.70013 1.17646 6.60863 1.22305 6.52797C1.26963 6.44731 1.33662 6.38034 1.41729 6.33376L10.2696 1.22327Z" fill="url(#paint3_linear_2091_322)"/>
<path d="M10.5344 1.87431L10.9766 2.12939L18.9446 6.73019L19.3867 6.98527V17.2072L18.9446 17.4623L10.9766 22.0631L10.5344 22.3181L10.0927 22.0631L2.12434 17.4623L1.68217 17.2072V6.98527L2.12434 6.73019L10.0927 2.12939L10.5344 1.87431ZM10.5344 1.34399C10.4414 1.34408 10.35 1.36866 10.2695 1.41527L9.82736 1.67034L1.85895 6.27067L1.41725 6.52576C1.33659 6.57233 1.26959 6.63931 1.22301 6.71997C1.17642 6.80063 1.15188 6.89212 1.15186 6.98527V17.2072C1.15188 17.3003 1.17642 17.3918 1.22301 17.4725C1.26959 17.5532 1.33659 17.6201 1.41725 17.6667L1.85895 17.9218L9.82595 22.5217L10.2681 22.7767C10.3487 22.8234 10.4402 22.848 10.5333 22.848C10.6264 22.848 10.7179 22.8234 10.7984 22.7767L11.2401 22.5217L19.21 17.9237L19.6517 17.6686C19.7323 17.622 19.7993 17.555 19.8459 17.4744C19.8925 17.3937 19.917 17.3022 19.917 17.2091V6.98715C19.917 6.894 19.8925 6.8025 19.8459 6.72184C19.7993 6.64118 19.7323 6.5742 19.6517 6.52763L19.21 6.27255L11.2415 1.67222L10.7998 1.41714C10.7192 1.37054 10.6276 1.34596 10.5344 1.34587V1.34399Z" fill="#441F00"/>
<path d="M10.4716 0.591872L10.9651 0.876562L19.8579 6.01138L20.3514 6.29607V17.7045L19.8579 17.9891L10.9651 23.124L10.4716 23.4087L9.97867 23.124L1.08537 17.9891L0.591872 17.7045V6.29607L1.08537 6.01138L9.97867 0.876562L10.4716 0.591872ZM10.4716 0C10.3678 9.68358e-05 10.2658 0.0275324 10.176 0.0795458L9.68248 0.364229L0.789165 5.49853L0.296201 5.78322C0.206171 5.8352 0.131404 5.90995 0.0794116 5.99997C0.0274193 6.08999 3.12962e-05 6.19211 0 6.29607V17.7045C3.12962e-05 17.8084 0.0274193 17.9105 0.0794116 18.0006C0.131404 18.0906 0.206171 18.1653 0.296201 18.2173L0.789165 18.502L9.68091 23.6358L10.1744 23.9205C10.2643 23.9726 10.3664 24 10.4703 24C10.5743 24 10.6763 23.9726 10.7663 23.9205L11.2592 23.6358L20.1541 18.5041L20.6471 18.2194C20.7371 18.1674 20.8119 18.0927 20.8639 18.0027C20.9159 17.9126 20.9433 17.8105 20.9433 17.7066V6.29816C20.9433 6.1942 20.9159 6.09209 20.8639 6.00206C20.8119 5.91204 20.7371 5.83728 20.6471 5.78531L20.1541 5.50062L11.2608 0.366324L10.7678 0.0816347C10.6778 0.0296243 10.5756 0.0021923 10.4716 0.00208894V0Z" fill="#441F00"/>
<defs>
<linearGradient id="paint0_linear_2091_322" x1="10.5011" y1="23.9995" x2="10.5011" y2="0.192017" gradientUnits="userSpaceOnUse">
<stop stop-color="#9C3600"/>
<stop offset="0.04" stop-color="#A44401"/>
<stop offset="0.25" stop-color="#CD8909"/>
<stop offset="0.4" stop-color="#E7B40D"/>
<stop offset="0.48" stop-color="#F1C40F"/>
<stop offset="0.53" stop-color="#F2C615"/>
<stop offset="0.6" stop-color="#F3CC25"/>
<stop offset="0.67" stop-color="#F7D53F"/>
<stop offset="0.75" stop-color="#FBE363"/>
<stop offset="0.81" stop-color="#FFF088"/>
<stop offset="1" stop-color="#FFF8D6"/>
</linearGradient>
<linearGradient id="paint1_linear_2091_322" x1="5.24331" y1="10.1669" x2="8.84324" y2="10.5336" gradientUnits="userSpaceOnUse">
<stop stop-color="#FFBD03"/>
<stop offset="1" stop-color="#FEE104"/>
</linearGradient>
<linearGradient id="paint2_linear_2091_322" x1="5.24331" y1="10.1669" x2="8.84324" y2="10.5336" gradientUnits="userSpaceOnUse">
<stop stop-color="#FFBD03"/>
<stop offset="1" stop-color="#FEE104"/>
</linearGradient>
<linearGradient id="paint3_linear_2091_322" x1="10.5011" y1="23.8075" x2="10.5011" y2="0" gradientUnits="userSpaceOnUse">
<stop stop-color="#9C3600"/>
<stop offset="0.04" stop-color="#A44401"/>
<stop offset="0.25" stop-color="#CD8909"/>
<stop offset="0.4" stop-color="#E7B40D"/>
<stop offset="0.48" stop-color="#F1C40F"/>
<stop offset="0.53" stop-color="#F2C615"/>
<stop offset="0.6" stop-color="#F3CC25"/>
<stop offset="0.67" stop-color="#F7D53F"/>
<stop offset="0.75" stop-color="#FBE363"/>
<stop offset="0.81" stop-color="#FFF088"/>
<stop offset="1" stop-color="#FFF8D6"/>
</linearGradient>
</defs>
</svg>
