<?xml version="1.0" encoding="utf-8"?>
<!-- Generator: Adobe Illustrator 27.1.1, SVG Export Plug-In . SVG Version: 6.00 Build 0)  -->
<svg version="1.1" id="Слой_1" xmlns="http://www.w3.org/2000/svg" xmlns:xlink="http://www.w3.org/1999/xlink" x="0px" y="0px"
	 viewBox="0 0 345 6" style="enable-background:new 0 0 345 6;" xml:space="preserve">
<style type="text/css">
	.st0{fill:#C2C2C2;}
	.st1{fill:none;stroke:#393931;}
</style>
<path class="st0" d="M3,0.5h339c1.4,0,2.5,1.1,2.5,2.5l0,0c0,1.4-1.1,2.5-2.5,2.5H3C1.6,5.5,0.5,4.4,0.5,3l0,0
	C0.5,1.6,1.6,0.5,3,0.5z"/>
<path class="st1" d="M3,0.5h339c1.4,0,2.5,1.1,2.5,2.5l0,0c0,1.4-1.1,2.5-2.5,2.5H3C1.6,5.5,0.5,4.4,0.5,3l0,0
	C0.5,1.6,1.6,0.5,3,0.5z"/>
</svg>
