<svg width="159" height="109" viewBox="0 0 159 109" fill="none" xmlns="http://www.w3.org/2000/svg">
<path d="M150.283 27.4722V13.9052L138.534 7.12207L126.784 13.9052V27.4722L138.534 34.2554L150.283 27.4722Z" fill="#66FECB"/>
<path d="M145.396 24.6506V16.726L138.534 12.7644L131.671 16.726V24.6506L138.534 28.613L145.396 24.6506Z" fill="#66FECB"/>
<path d="M138.533 12.7644V7.12207L150.283 13.9052L145.396 16.7261L138.533 12.7644Z" fill="#5EDEB3"/>
<path d="M145.396 24.6506V16.726L150.283 13.9052V27.4721L145.396 24.6506Z" fill="#01B478"/>
<path d="M138.533 28.6129V34.2553L150.283 27.4722L145.396 24.6506L138.533 28.6129Z" fill="#1DCE92"/>
<path d="M131.671 24.6506L126.784 27.4722L138.534 34.2553V28.6129L131.671 24.6506Z" fill="#01B478"/>
<path d="M138.534 12.7644L131.671 16.7261L126.784 13.9052L138.534 7.12207V12.7644Z" fill="#2AFFB7"/>
<path d="M150.283 13.9052L145.097 16.5546L138.767 12.8958L138.536 7.12L138.302 12.8958L131.968 16.5525L126.783 13.9031L131.669 16.7247V19.5393C131.762 18.6599 131.854 17.78 131.946 16.8996L138.533 13.3175L145.121 16.8996C145.213 17.78 145.305 18.6599 145.397 19.5393V16.7247L145.463 16.6866L150.283 13.9052Z" fill="white"/>
<path d="M138.533 7.12204L150.283 13.9052V27.4722L138.533 34.2553L126.784 27.4722V13.9052L138.533 7.12204ZM138.533 6.34009C138.396 6.33998 138.261 6.37598 138.142 6.44448L126.391 13.2276C126.272 13.2964 126.174 13.3951 126.105 13.5141C126.036 13.633 126 13.7679 126 13.9052V27.4722C126 27.6094 126.036 27.7442 126.105 27.863C126.174 27.9818 126.272 28.0805 126.391 28.149L138.145 34.9329C138.264 35.0013 138.399 35.0373 138.536 35.0373C138.673 35.0373 138.808 35.0013 138.927 34.9329L150.676 28.149C150.795 28.0805 150.894 27.9818 150.962 27.863C151.031 27.7442 151.067 27.6094 151.067 27.4722V13.9052C151.067 13.7679 151.031 13.633 150.962 13.5141C150.894 13.3951 150.795 13.2964 150.676 13.2276L138.927 6.44448C138.808 6.37588 138.673 6.33988 138.536 6.34009H138.533Z" fill="#003725"/>
<mask id="path-10-inside-1_117_4076" fill="white">
<path fill-rule="evenodd" clip-rule="evenodd" d="M118.25 12.3401C118.25 5.71267 112.877 0.340088 106.25 0.340088H12.25C5.62258 0.340088 0.25 5.71266 0.25 12.3401V96.6701C0.25 103.298 5.62258 108.67 12.25 108.67H146.25C152.877 108.67 158.25 103.298 158.25 96.6701V52.3401C158.25 45.7127 152.877 40.3401 146.25 40.3401H130.25C123.623 40.3401 118.25 34.9675 118.25 28.3401V12.3401Z"/>
</mask>
<path fill-rule="evenodd" clip-rule="evenodd" d="M118.25 12.3401C118.25 5.71267 112.877 0.340088 106.25 0.340088H12.25C5.62258 0.340088 0.25 5.71266 0.25 12.3401V96.6701C0.25 103.298 5.62258 108.67 12.25 108.67H146.25C152.877 108.67 158.25 103.298 158.25 96.6701V52.3401C158.25 45.7127 152.877 40.3401 146.25 40.3401H130.25C123.623 40.3401 118.25 34.9675 118.25 28.3401V12.3401Z" fill="white"/>
<path d="M12.25 1.34009H106.25V-0.659912H12.25V1.34009ZM1.25 96.6701V12.3401H-0.75V96.6701H1.25ZM146.25 107.67H12.25V109.67H146.25V107.67ZM157.25 52.3401V96.6701H159.25V52.3401H157.25ZM146.25 39.3401H130.25V41.3401H146.25V39.3401ZM119.25 28.3401V12.3401H117.25V28.3401H119.25ZM130.25 39.3401C124.175 39.3401 119.25 34.4152 119.25 28.3401H117.25C117.25 35.5198 123.07 41.3401 130.25 41.3401V39.3401ZM159.25 52.3401C159.25 45.1604 153.43 39.3401 146.25 39.3401V41.3401C152.325 41.3401 157.25 46.265 157.25 52.3401H159.25ZM146.25 109.67C153.43 109.67 159.25 103.85 159.25 96.6701H157.25C157.25 102.745 152.325 107.67 146.25 107.67V109.67ZM-0.75 96.6701C-0.75 103.85 5.0703 109.67 12.25 109.67V107.67C6.17487 107.67 1.25 102.745 1.25 96.6701H-0.75ZM106.25 1.34009C112.325 1.34009 117.25 6.26496 117.25 12.3401H119.25C119.25 5.16039 113.43 -0.659912 106.25 -0.659912V1.34009ZM12.25 -0.659912C5.0703 -0.659912 -0.75 5.16038 -0.75 12.3401H1.25C1.25 6.26495 6.17487 1.34009 12.25 1.34009V-0.659912Z" fill="#C2C2C2" mask="url(#path-10-inside-1_117_4076)"/>
<path d="M85.294 83.6439L79.6341 80.3529L71.3995 75.5304L60.6689 69.3224L57.5002 67.4679L56.8777 67.0655C56.8389 67.0388 56.7269 66.94 56.688 66.9334C56.6257 66.9228 56.4141 67.0051 56.3351 67.0261C55.7336 67.1858 55.126 67.3606 54.5418 67.5758L53.9885 67.7984C53.958 67.8113 53.8254 67.8794 53.8012 67.8783C53.7889 67.8778 53.6528 67.7689 53.6389 67.7587L53.0861 67.3688L51.0747 66.145L51.1106 62.8791L49.656 62.8794C48.8903 62.8784 48.2122 62.9421 47.6218 62.3618C46.8551 61.6081 47.0155 60.6474 47.0162 59.6668L47.0193 56.0127C47.0205 55.4104 46.9473 54.6831 47.0784 54.0967C47.1471 53.7887 47.3275 53.5162 47.5471 53.2945C47.837 53.0018 48.1873 52.8001 48.5348 52.5844L49.7561 51.8204L49.7627 47.8599L48.8564 47.743C48.5112 47.677 48.0506 47.7775 47.7452 47.6231L47.6908 47.596C47.36 47.4215 47.1632 47.1091 47.0676 46.7561C46.9669 46.3847 47.0154 45.8917 47.0137 45.5083L47.0091 43.0983L47.0114 40.7064C47.0126 40.26 46.9865 39.791 47.0312 39.3474C47.0579 39.0815 47.1331 38.8347 47.2766 38.6068C47.4991 38.2537 47.8548 38.0317 48.2006 37.8145L49.4216 37.0652C49.5004 37.0148 49.706 36.9097 49.7591 36.8384C49.7653 36.83 49.7566 36.6558 49.7565 36.6366C49.7468 35.8345 49.6776 35.0728 50.3578 34.501C50.8043 34.1258 51.3916 33.8575 51.8913 33.5536L54.8746 31.7041L59.5126 28.8338L65.6868 25.0169C65.9091 24.888 66.1268 24.7872 66.3798 24.7351C66.8942 24.6291 67.42 24.6722 67.8975 24.899C68.6497 25.2563 69.37 25.7606 70.0933 26.1786L75.5062 29.3456L88.8331 37.0949L104.038 45.8837L108.164 48.2767L110.16 49.4368C110.478 49.6241 110.814 49.7957 111.119 50.0035C111.539 50.29 111.884 50.8079 111.973 51.3097C112.019 51.575 111.991 51.88 111.99 52.1497L111.988 53.7407L111.978 59.7263L111.981 69.9108L111.986 73.2213C111.987 73.7533 112.02 74.3106 111.982 74.8402C111.958 75.1737 111.801 75.5281 111.604 75.7958C111.45 76.0057 111.256 76.1827 111.044 76.3331C110.707 76.5723 110.326 76.7718 109.969 76.981L107.945 78.1706L101.172 82.1706L98.081 84.0048C97.6186 84.2249 97.1751 84.5072 96.7301 84.7618L94.5752 86.0146C93.9868 86.3726 93.328 86.9035 92.6617 87.0942C92.2264 87.2188 91.6874 87.2056 91.2579 87.064C90.8057 86.9149 90.3656 86.5576 89.9488 86.322L85.294 83.6439Z" fill="#050607"/>
<path d="M60.6071 35.9317L60.6045 34.9143C61.3361 35.1746 61.8472 35.5714 62.2095 36.2676C61.9864 36.2515 61.6843 36.0871 61.4545 36.0218C61.176 35.9429 60.8948 35.9425 60.6071 35.9317Z" fill="#6C7599"/>
<path d="M49.7164 38.5465L49.7967 38.5284C49.8534 38.6504 49.8265 38.8484 49.8263 38.9846L49.8237 40.1426L48.5101 40.143C48.4521 40.1358 48.4268 40.123 48.376 40.0966C48.3679 39.9061 48.3428 39.6981 48.4217 39.5195L48.4442 39.4725C48.6472 39.0324 49.3072 38.7787 49.7164 38.5465Z" fill="#9EE5E7"/>
<path d="M48.3785 55.2375C48.3783 54.8649 48.3381 54.4738 48.6242 54.1856C48.9365 53.8709 49.4689 53.6006 49.8585 53.3801L49.8596 55.2373L48.3785 55.2375Z" fill="#9EE5E7"/>
<path d="M48.3569 44.9981L49.823 44.9973L49.8113 46.4562L48.3614 46.4618L48.3569 44.9981Z" fill="#2A465B"/>
<path d="M54.3719 62.9482L55.4171 62.9581L55.4016 65.3671L54.3677 64.8686L54.3719 62.9482Z" fill="#1B3143"/>
<path d="M48.3945 59.8686L49.8094 59.8595C49.8388 60.4447 50.0037 60.9684 50.1824 61.5224L49.1702 61.5186C49.0494 61.5172 48.8624 61.5397 48.7482 61.5135C48.6531 61.4916 48.5016 61.3323 48.4278 61.2694C48.3821 61.1297 48.4036 60.9505 48.4021 60.8022L48.3945 59.8686Z" fill="#1B3143"/>
<path d="M75.9644 74.8781C76.1611 75.1117 76.5694 75.2827 76.8369 75.4353L78.2488 76.2626L78.2403 77.868L75.9685 76.5295L75.9644 74.8781Z" fill="#EC4D38"/>
<path d="M69.8579 71.3901L72.1348 72.6947L72.1336 74.325L69.8698 72.9997L69.8579 71.3901Z" fill="#EC4D38"/>
<path d="M82.0479 78.3197C82.7386 78.8906 83.5766 79.2693 84.3245 79.7595L84.3343 79.1365C84.3744 79.6205 84.3377 80.1322 84.3361 80.6193C84.3354 80.8467 84.3733 81.1703 84.3145 81.3844L82.0577 80.0293L82.0479 78.3197Z" fill="#EC4D38"/>
<path d="M78.9717 76.6633C79.7327 77.1196 80.5863 77.4863 81.3048 78.0028L81.3093 79.6144L78.9758 78.2581L78.9717 76.6633Z" fill="#EC4D38"/>
<path d="M66.8029 69.5924C67.5263 70.124 68.4011 70.4527 69.145 70.9589C69.199 71.486 69.1468 72.0736 69.1473 72.6073L66.7979 71.217L66.8029 69.5924Z" fill="#EC4D38"/>
<path d="M87.3046 78.5117C87.4104 78.8257 87.3416 79.3699 87.3414 79.7158L87.3157 83.1376L85.1301 81.8192L85.1157 80.1056L87.2973 81.4262C87.3406 81.1057 87.3092 80.7456 87.3086 80.421L87.3046 78.5117Z" fill="#EC4D38"/>
<path d="M63.728 67.7872L66.0775 69.1806L66.0577 70.7717L63.7315 69.4434L63.728 67.7872Z" fill="#EC4D38"/>
<path d="M72.8901 73.1051L75.2379 74.4967L75.2362 76.0941L72.8932 74.7289L72.8901 73.1051Z" fill="#EC4D38"/>
<path d="M65.1529 27.7812L65.2363 27.9359C64.5808 28.6991 63.5902 29.1923 62.7414 29.7146L60.3898 31.1697L55.5654 34.1811L54.8911 34.1894C55.3011 33.8218 55.8079 33.5471 56.2683 33.2493L59.491 31.2632L61.8478 29.7777L65.1529 27.7812Z" fill="#F48829"/>
<path d="M58.1299 34.164C57.8156 34.2044 57.4775 34.1769 57.1602 34.1738C57.2226 34.0629 57.423 33.9445 57.5271 33.8689C57.9962 33.5277 58.5003 33.2405 58.9947 32.9385L62.2165 30.9564L64.6756 29.3962L64.6808 30.1562L58.1299 34.164Z" fill="#F2F4F7"/>
<path d="M48.3734 40.5089L49.8431 40.5211L49.8315 44.5725L48.3682 44.5838L48.3734 40.5089Z" fill="#6C7599"/>
<path d="M48.3784 55.2375L49.8595 55.2373L49.8542 58.4475C49.8528 58.6703 49.9139 59.2463 49.8122 59.4146C49.3836 59.4925 48.8377 59.4375 48.3959 59.4409L48.3999 55.409L48.3784 55.2375Z" fill="#6C7599"/>
<path d="M48.3784 55.2375L49.8595 55.2373L49.8542 58.4475C49.8528 58.6703 49.9139 59.2463 49.8122 59.4146L49.8288 55.4292L48.3999 55.409L48.3784 55.2375Z" fill="#1B3143"/>
<path d="M85.1158 80.1055C85.0757 79.8277 85.1055 79.5014 85.1041 79.2186L85.1025 77.2063L86.3705 77.9472C86.6846 78.1275 87.0168 78.2907 87.3046 78.5117L87.3086 80.4209C87.3093 80.7455 87.3406 81.1056 87.2974 81.4262L85.1158 80.1055Z" fill="#F2A335"/>
<path d="M69.8582 71.3901L69.8503 69.4042C69.8513 69.1172 69.8137 68.7618 69.8725 68.483L72.1331 69.8294L72.1351 72.6947L69.8582 71.3901Z" fill="#F2A335"/>
<path d="M63.7281 67.7872L63.7178 64.9753L66.0676 66.3676L66.0776 69.1806L63.7281 67.7872Z" fill="#F2A335"/>
<path d="M66.8033 69.5924L66.8022 66.7666L69.1505 68.1329L69.1454 70.9589C68.4015 70.4526 67.5267 70.124 66.8033 69.5924Z" fill="#F2A335"/>
<path d="M75.9645 74.878L75.9536 71.9995L78.2615 73.363L78.2489 76.2626L76.8371 75.4353C76.5696 75.2827 76.1612 75.1117 75.9645 74.878Z" fill="#F2A335"/>
<path d="M72.8899 73.105L72.8862 70.2306L75.2722 71.6213L75.2651 71.6961L75.2377 74.4966L72.8899 73.105Z" fill="#F2A335"/>
<path d="M82.0479 78.3197L82.0342 75.46L84.3312 76.7806L84.3343 79.1365L84.3245 79.7595C83.5766 79.2694 82.7386 78.8907 82.0479 78.3197Z" fill="#F2A335"/>
<path d="M78.9717 76.6633L78.973 73.6945L81.3048 75.0359V78.0027C80.5863 77.4862 79.7327 77.1195 78.9717 76.6633Z" fill="#F2A335"/>
<path d="M56.0767 64.0054L62.993 67.9174L62.9859 69.0386L56.115 65.0307L56.0787 65.0127L56.0767 64.0054Z" fill="#2A465B"/>
<path d="M52.4393 64.02L52.4317 62.9708C52.527 62.9188 52.7731 62.9482 52.8884 62.9482H54.3716L54.3675 64.8686L55.4014 65.367L56.0873 65.8018L54.0651 66.4119C53.959 66.3374 53.8526 66.2654 53.7563 66.1781L52.4634 65.3658C52.3813 64.9699 52.441 64.4318 52.4393 64.02Z" fill="#2A465B"/>
<path d="M52.4393 64.02C52.8989 64.1871 53.3769 64.5369 53.7985 64.7904L53.8039 65.795C53.8043 65.9229 53.8307 66.068 53.7563 66.1781L52.4634 65.3658C52.3813 64.9699 52.441 64.4318 52.4393 64.02Z" fill="#6C7599"/>
<path d="M60.3953 61.3591L60.7591 62.2285L53.1546 62.2162L52.1471 62.2058C52.0792 62.2049 51.9209 62.2233 51.8605 62.2017C51.7237 62.1526 51.5232 61.9914 51.4218 61.8839C51.2828 61.7368 51.1992 61.5466 51.1133 61.3659L60.3953 61.3591Z" fill="#1B3143"/>
<path d="M51.0723 51.9283L51.105 59.7719L59.8746 59.7713C59.9042 60.0025 60.0047 60.23 60.082 60.4498L60.3954 61.3591L51.1133 61.3659L51.0723 51.9283Z" fill="#2A465B"/>
<path d="M65.3445 56.5543C65.3071 56.3198 65.3284 56.0548 65.3275 55.8167L65.3261 54.4533L65.3241 49.7045L65.3614 31.868L66.1495 32.329L66.1472 55.9096L66.151 55.9534C66.0797 56.1714 65.9216 56.3758 65.7223 56.4878L65.4865 56.622L65.3445 56.5543Z" fill="#48748B"/>
<path d="M106.797 72.1807L106.827 75.1263L93.6387 83.0862L95.973 79.1401L96.0017 79.1578C96.1955 79.1508 98.1095 77.9014 98.4489 77.6987L101.876 75.5861L105.322 73.464L106.178 72.9314C106.362 72.8273 106.594 72.7199 106.751 72.5765C106.801 72.5299 106.793 72.2615 106.797 72.1807Z" fill="#1B3143"/>
<path d="M95.9731 79.14C96.1727 78.6926 96.4623 78.2712 96.7072 77.8466C96.8075 77.6731 96.9006 77.3999 97.0424 77.2622C97.1999 77.1092 97.4592 76.9845 97.6449 76.8647L99.2273 75.8574L103.883 72.8864L104.82 72.2911C105.023 72.1635 105.265 72.0345 105.433 71.8623C105.548 71.7446 105.626 71.6065 105.641 71.441C105.691 70.8607 105.644 70.2395 105.64 69.6555L105.629 66.2379L105.634 54.7929L106.828 53.6666L106.797 72.1807C106.793 72.2615 106.802 72.5299 106.751 72.5765C106.594 72.7199 106.362 72.8273 106.178 72.9314L105.322 73.464L101.876 75.5861L98.449 77.6986C98.1096 77.9014 96.1956 79.1508 96.0018 79.1578L95.9731 79.14Z" fill="#2A465B"/>
<path d="M60.6073 35.9318C60.8951 35.9426 61.1763 35.943 61.4548 36.022C61.6846 36.0872 61.9867 36.2516 62.2098 36.2677C62.2728 36.3613 62.304 36.4412 62.3322 36.551C62.4676 37.0782 62.3908 37.7519 62.3902 38.3008L62.3857 41.3576L62.3718 54.3702L62.3559 58.2617C62.353 58.7897 62.413 59.3959 62.3372 59.9124C62.3132 60.076 62.1831 60.2761 62.1095 60.4243L61.3567 61.831L60.8531 60.4633C60.7637 60.1971 60.6577 59.9152 60.6232 59.6362C60.5909 59.3751 60.6127 59.0893 60.6123 58.8246L60.6103 57.3549L60.6105 52.2804L60.6073 35.9318Z" fill="#2A465B"/>
<path d="M54.5541 33.5939C54.9699 33.2448 55.5236 32.9757 55.9902 32.6893L58.9359 30.8766L64.2927 27.5747L65.6383 26.7349C65.878 26.5824 66.1192 26.4023 66.3722 26.2746C66.5891 26.1652 66.7677 26.1368 67.0106 26.1672C67.2888 26.2021 67.5603 26.3907 67.7986 26.5304L68.8248 27.13L72.7682 29.4275L77.4047 32.1292L85.1408 36.6224L99.5804 45.0079L106.405 48.9723L108.776 50.3412C109.296 50.642 109.868 50.931 110.334 51.3108L109.799 51.5146L109.759 51.5376C108.232 50.9505 106.82 50.0606 105.409 49.24L100.097 46.1536L84.4038 37.0182L79.0996 33.9661L70.4247 28.9154L68.1704 27.5966C67.7069 27.3285 67.255 27.0523 66.7642 26.8354C66.2074 27.0582 65.6585 27.4574 65.1529 27.7812L61.8478 29.7776L59.491 31.2632L56.2682 33.2492C55.8079 33.547 55.3011 33.8217 54.8911 34.1893L54.7377 34.1805C54.3807 34.22 53.9938 34.1921 53.6333 34.1936L54.5541 33.5939Z" fill="url(#paint0_linear_117_4076)"/>
<path d="M104.827 54.9474C104.9 55.3606 104.849 55.8415 104.856 56.2636L104.893 59.5613L104.896 71.2896C104.448 71.8119 103.659 72.1886 103.077 72.5613L100.136 74.4279L96.598 76.643L89.9302 72.8481L91.1303 70.8072L97.2865 74.3656C97.6261 73.6825 98.0089 72.8218 98.1533 72.074C98.6841 72.3253 99.1099 72.7245 99.6834 72.8991C100.473 72.6744 101.236 72.0593 101.934 71.6257C102.402 71.3347 103.086 71.0158 103.44 70.6007C103.539 70.485 103.611 70.3375 103.641 70.1881C103.713 69.8261 103.668 69.3742 103.67 69.0035C103.673 68.2101 103.706 67.3989 103.645 66.6081C103.433 66.2414 103.097 66.0088 102.763 65.7615C102.883 65.2726 102.934 64.7721 102.999 64.2738L103.278 61.9883L103.606 59.3952C103.658 59.288 103.773 59.1841 103.84 59.0804C104.043 58.7656 104.101 58.42 104.147 58.0562L104.174 58.0315C104.359 57.8442 104.424 57.4263 104.48 57.1717C104.641 56.4397 104.801 55.6969 104.827 54.9474Z" fill="#18B89F"/>
<path d="M64.6808 30.1562L64.7047 58.7745L63.189 60.0718L63.1786 44.3164L63.1863 39.8431L63.1878 37.9174C63.187 37.4176 63.2169 36.9171 63.0732 36.4327L63.0558 36.3721C62.8259 35.5874 62.2409 34.9051 61.5293 34.5102L61.3539 34.4234C60.5409 34.0368 59.6181 34.1313 58.7368 34.1484C58.5349 34.1522 58.3304 34.1898 58.1299 34.1641L64.6808 30.1562Z" fill="#1B3143"/>
<path d="M65.3821 28.9352L106.51 52.9314L105.772 53.5989L105.079 54.2469L65.3682 30.923L65.3821 28.9352Z" fill="#61D1B5"/>
<path d="M65.1533 27.7812C65.6589 27.4574 66.2078 27.0583 66.7646 26.8354C67.2554 27.0523 67.7073 27.3285 68.1708 27.5967L70.4251 28.9154L79.1 33.9661L84.4042 37.0183L100.097 46.1537L105.409 49.2401C106.82 50.0607 108.232 50.9506 109.76 51.5376L109.7 51.5675C109.328 51.7495 108.943 51.8864 108.582 52.0939C108.211 52.3074 107.872 52.5938 107.499 52.7958C107.472 52.7387 107.443 52.6875 107.403 52.6386C107.14 52.3211 106.638 52.0888 106.284 51.8763L104.15 50.6142L96.8494 46.3638L81.7549 37.523L72.7696 32.3186L68.2113 29.6561L66.1733 28.4495C65.9289 28.3037 65.506 27.9639 65.2367 27.9359L65.1533 27.7812Z" fill="#EC4D38"/>
<path d="M110.334 51.3108C110.5 51.5543 110.547 51.655 110.555 51.9564C110.528 54.3726 110.556 74.7765 110.529 74.8274C110.493 74.8959 110.366 74.9993 110.308 75.0556C110.092 75.2646 109.803 75.4163 109.545 75.5676L108.202 76.3404L104.766 78.3601L95.223 83.9732L92.7219 85.5052C92.4924 85.6349 92.2799 85.7412 92.0089 85.7359C91.8609 85.7329 91.6971 85.6815 91.5642 85.618C91.1252 85.4082 90.6962 85.0882 90.2796 84.8327L88.0171 83.5292L88.0201 82.685L90.1115 83.9285C90.5226 84.1742 90.9929 84.5298 91.4446 84.6799C91.6938 84.7626 91.9425 84.7605 92.1948 84.6971C92.8508 84.5323 93.529 83.9972 94.1079 83.6528L97.4242 81.6658L103.146 78.2576L106.227 76.4166L107.262 75.797C107.356 75.7349 107.449 75.6595 107.513 75.5651C107.577 75.4696 107.558 75.1693 107.558 75.0518L107.547 53.0178C107.516 52.974 107.51 52.8524 107.499 52.7958C107.872 52.5938 108.211 52.3074 108.582 52.0939C108.943 51.8863 109.328 51.7494 109.7 51.5674L109.76 51.5375L109.799 51.5146L110.334 51.3108Z" fill="url(#paint1_linear_117_4076)"/>
<path d="M110.334 51.3108C110.5 51.5543 110.547 51.655 110.555 51.9564C110.33 51.7826 110.037 51.6788 109.799 51.5146L110.334 51.3108Z" fill="#EC4D38"/>
<path d="M108.603 55.6089C108.605 55.3763 108.547 54.6989 108.703 54.5599C108.848 54.4297 109.076 54.3616 109.269 54.3923C109.401 54.4133 109.518 54.5003 109.587 54.6124C109.675 54.753 109.646 54.9552 109.647 55.1142C109.648 55.5367 109.693 56.0327 109.599 56.4429C109.483 56.6087 109.385 56.6769 109.203 56.7647L108.639 56.6253L108.603 55.6089Z" fill="#050607"/>
<path d="M107.547 53.0178C108.191 53.812 108.325 54.6581 108.604 55.6089L108.639 56.6253L109.203 56.7647C109.302 56.9272 109.331 57.1943 109.279 57.3835L109.251 57.4488C109.4 57.4904 109.481 57.5263 109.596 57.6309C109.717 57.8876 109.651 58.3786 109.647 58.6725C109.645 58.8162 109.659 58.9863 109.613 59.124C109.571 59.2517 109.461 59.3467 109.354 59.4209C109.352 59.6186 109.373 59.931 109.292 60.1087C109.413 60.1917 109.55 60.2702 109.64 60.3876L109.637 73.2941C109.636 73.4999 109.668 73.7784 109.488 73.9212C109.393 73.9962 109.265 74.0325 109.152 74.0703C108.755 74.5085 108.084 74.802 107.558 75.0518L107.547 53.0178Z" fill="#F2A335"/>
<path d="M109.251 57.4489C109.4 57.4905 109.481 57.5264 109.596 57.6309C109.717 57.8876 109.651 58.3787 109.647 58.6725C109.645 58.8162 109.658 58.9864 109.613 59.124C109.571 59.2517 109.461 59.3467 109.354 59.4209C109.191 59.4271 108.998 59.4383 108.844 59.3767C108.756 59.3419 108.688 59.287 108.661 59.1948C108.63 59.0878 108.645 58.9453 108.644 58.834L108.645 58.0537C108.646 57.9507 108.628 57.7317 108.687 57.6523C108.812 57.485 109.061 57.4714 109.251 57.4489Z" fill="#050607"/>
<path d="M109.292 60.1088C109.413 60.1918 109.55 60.2702 109.64 60.3877L109.637 73.2942C109.636 73.4999 109.669 73.7785 109.488 73.9213C109.393 73.9963 109.266 74.0325 109.153 74.0704C109.043 74.0458 108.893 74.0216 108.803 73.9509C108.672 73.8473 108.654 73.7001 108.646 73.5429L108.641 71.2309L108.644 66.8714L108.65 62.8556C108.651 62.0987 108.624 61.3249 108.672 60.5701C108.681 60.4217 108.696 60.3568 108.799 60.249C108.936 60.1054 109.105 60.1108 109.292 60.1088Z" fill="#050607"/>
<path d="M62.6582 61.3022L65.052 59.4878L96.2018 77.2682L94.8018 79.7445L62.6582 61.3022Z" fill="#628A9E"/>
<path d="M94.8019 79.7444L93.3232 82.1892C93.0346 82.6907 92.7676 83.278 92.4207 83.736C92.3507 83.8283 92.237 83.9337 92.1216 83.9629C91.9918 83.9957 91.7668 84.0072 91.6384 83.9598C91.2467 83.815 90.8303 83.4619 90.4697 83.2408L88.0344 81.7681L88.0367 78.0736L63.0264 63.8194L62.9989 67.2262L56.1635 63.3079C56.0546 63.2131 56.0922 63.1 56.0923 62.9657C56.2664 62.8588 60.245 62.9203 60.8304 62.9187C60.9721 62.9183 61.4453 62.9683 61.5529 62.9165C61.6089 62.8895 61.7173 62.6926 61.7528 62.6354C61.9488 62.3191 62.3846 61.4459 62.6583 61.3021L94.8019 79.7444Z" fill="#2A465B"/>
<path d="M99.2863 51.6686L101.016 52.6773L89.2802 72.4672C88.668 72.1754 88.0922 71.802 87.5026 71.4673L84.3429 69.6864L73.2517 63.3273L67.3882 59.9565L66.0463 59.1892C65.8256 59.0676 65.5543 58.9595 65.3578 58.8046C65.3584 58.074 65.4266 57.2767 65.3447 56.5543L65.4868 56.622L80.2562 65.0899C80.5352 64.7464 80.8689 64.3807 81.2249 64.1141L83.3173 65.3356C83.7426 65.5891 84.1457 65.8611 84.6134 66.0319L93.7854 60.7459C93.8305 60.6409 93.8706 60.5551 93.9443 60.4657L93.9899 60.4744L99.2863 51.6686Z" fill="#2A465B"/>
<path d="M84.6133 66.0319L93.7854 60.7458C93.7112 61.0652 93.4949 61.3814 93.3271 61.6624L92.2971 63.3347L88.8289 69.0904L84.1904 66.3354L84.6133 66.0319Z" fill="#48748B"/>
<path d="M91.1304 70.8072L101.729 53.1215C102.426 53.4695 103.087 53.9078 103.761 54.2984C104.076 54.481 104.593 54.681 104.827 54.9474C104.801 55.6969 104.641 56.4397 104.48 57.1717C104.424 57.4263 104.359 57.8442 104.174 58.0315L104.147 58.0562C104.102 58.42 104.043 58.7656 103.84 59.0804C103.773 59.184 103.658 59.288 103.606 59.3952L103.278 61.9883L102.999 64.2738C102.934 64.7721 102.883 65.2726 102.763 65.7615C103.097 66.0088 103.433 66.2414 103.645 66.6081C103.706 67.3989 103.673 68.2101 103.67 69.0034C103.669 69.3742 103.713 69.8261 103.641 70.1881C103.612 70.3375 103.539 70.4849 103.44 70.6007C103.086 71.0158 102.402 71.3347 101.934 71.6257C101.236 72.0593 100.473 72.6743 99.6834 72.8991C99.1099 72.7245 98.6841 72.3253 98.1534 72.074C98.0089 72.8218 97.6262 73.6824 97.2865 74.3656L91.1304 70.8072Z" fill="#61D1B5"/>
<path d="M99.5683 60.4038C99.9499 60.4205 100.28 60.4815 100.617 60.6724C100.997 60.8868 101.301 61.2705 101.412 61.692C101.546 62.2013 101.458 62.7245 101.177 63.1676C100.881 63.6334 100.432 63.8624 99.9065 63.9757C99.4496 63.9811 99.127 63.9592 98.738 63.6845C98.334 63.3993 98.0217 62.9574 97.9464 62.4637C97.8744 61.9921 97.9528 61.4952 98.246 61.1088C98.5813 60.667 99.0307 60.4689 99.5683 60.4038Z" fill="#050607"/>
<path d="M98.6673 62.5219L98.6468 62.4519C98.571 62.1689 98.6104 61.8202 98.7643 61.5698C98.9062 61.3387 99.1734 61.1413 99.4396 61.0862C99.7994 61.0117 100.06 61.099 100.355 61.2989L98.6673 62.5219Z" fill="#DAEDEC"/>
<path d="M100.355 61.299C100.601 61.5221 100.786 61.7662 100.8 62.109C100.806 62.2446 100.803 62.3727 100.762 62.5027L100.748 62.5483C100.656 62.8204 100.464 63.0273 100.208 63.153C99.953 63.2783 99.5667 63.2998 99.3007 63.1915C99.0005 63.0694 98.7954 62.8119 98.667 62.522L100.355 61.299Z" fill="#E4646D"/>
<path d="M103.606 59.3952C103.341 59.633 103.051 59.8258 102.705 59.9243C102.295 60.0412 101.815 60.0034 101.444 59.7878C100.972 59.5132 100.643 59.0696 100.518 58.5383C100.403 58.0477 100.493 57.5329 100.767 57.1076C101.032 56.6948 101.511 56.3826 101.99 56.2822C102.453 56.1851 102.937 56.3032 103.324 56.5697C103.855 56.9349 104.044 57.4453 104.147 58.0562C104.101 58.42 104.043 58.7657 103.84 59.0804C103.773 59.1841 103.658 59.288 103.606 59.3952Z" fill="#050607"/>
<path d="M101.251 58.5333C101.202 58.3848 101.172 58.2259 101.173 58.0692C101.177 57.7226 101.279 57.479 101.536 57.2393C101.776 57.0156 102.027 56.9352 102.351 56.952C102.719 56.971 102.957 57.1369 103.2 57.4048C103.105 57.4616 103.029 57.4939 102.923 57.5259C102.526 57.6456 102.214 57.947 101.886 58.1869C101.689 58.3309 101.476 58.4395 101.251 58.5333Z" fill="#DAEDEC"/>
<path d="M103.2 57.4048C103.411 57.7014 103.457 58.0288 103.392 58.3831C103.343 58.6486 103.187 58.8711 102.963 59.0193C102.676 59.2091 102.353 59.2931 102.012 59.2171C101.691 59.1453 101.477 58.9178 101.315 58.6437L101.251 58.5333C101.476 58.4395 101.69 58.3309 101.886 58.1869C102.215 57.947 102.526 57.6456 102.923 57.5259C103.029 57.4939 103.106 57.4616 103.2 57.4048Z" fill="url(#paint2_linear_117_4076)"/>
<path d="M98.1532 72.0741C97.7647 71.8331 96.1806 71.0277 96.0643 70.6477L96.0535 70.5745C95.927 69.7479 96.0055 68.8069 96.0053 67.9676C96.0052 67.6045 95.9157 66.8274 96.123 66.5382C96.3341 66.2436 96.6812 66.0336 96.9672 65.8175C97.4485 65.4538 98.0883 64.8449 98.6979 64.7529C99.1043 64.6915 101.202 64.6659 101.487 64.8093C101.922 65.028 102.369 65.4654 102.763 65.7615C103.097 66.0088 103.433 66.2415 103.645 66.6081C103.705 67.3989 103.673 68.2101 103.67 69.0035C103.668 69.3742 103.713 69.8261 103.641 70.1882C103.611 70.3375 103.539 70.485 103.44 70.6007C103.086 71.0158 102.402 71.3347 101.933 71.6257C101.235 72.0593 100.473 72.6744 99.6833 72.8991C99.1098 72.7245 98.684 72.3253 98.1532 72.0741Z" fill="#050607"/>
<path d="M96.7315 70.2895C96.6722 69.8575 96.7195 69.3557 96.7201 68.9165C96.7212 68.2425 96.681 67.5376 96.7378 66.8672L97.8715 66.0206C98.1539 65.811 98.4339 65.5777 98.7453 65.4128L100.747 65.4246C100.863 65.4253 101.153 65.3898 101.253 65.4276C101.313 65.4504 101.413 65.5504 101.466 65.5916L102.014 66.0543C101.674 66.2861 101.322 66.5623 100.952 66.74C100.402 66.4538 99.9066 66.2837 99.2812 66.4684C98.7392 66.6285 98.2122 67.0608 97.9484 67.5637C97.6643 68.1053 97.6848 68.7901 97.8405 69.3671C97.6196 69.6248 97.3315 69.8377 97.0661 70.0491C96.965 70.1296 96.8498 70.2394 96.7315 70.2895Z" fill="#DAEDEC"/>
<path d="M102.014 66.0542L102.597 66.5433C102.717 66.6385 102.868 66.7327 102.96 66.8537L102.929 70.1074C102.603 70.3551 99.8151 72.1671 99.6535 72.1268C99.5127 72.0917 99.2958 71.9164 99.1655 71.839L97.4922 70.8466C97.3195 70.7479 96.8886 70.5622 96.7745 70.4034C96.7509 70.3704 96.7458 70.3274 96.7314 70.2894C96.8497 70.2393 96.9649 70.1295 97.066 70.049C97.3314 69.8376 97.6195 69.6247 97.8404 69.367L97.8476 69.4289C97.9447 69.7564 98.2946 70.1236 98.5763 70.3082C99.0564 70.6226 99.698 70.7644 100.262 70.6294C100.809 70.4985 101.337 70.0562 101.606 69.5701C101.852 69.1255 101.945 68.3852 101.784 67.8961L101.763 67.8374C101.605 67.3533 101.323 67.0685 100.952 66.7399C101.322 66.5622 101.674 66.286 102.014 66.0542Z" fill="#628A9E"/>
<path d="M97.8406 69.367C97.6849 68.7901 97.6645 68.1052 97.9485 67.5637C98.2123 67.0607 98.7393 66.6285 99.2814 66.4684C99.9067 66.2837 100.402 66.4537 100.952 66.7399C101.323 67.0685 101.605 67.3533 101.763 67.8375L101.784 67.8962C101.945 68.3853 101.852 69.1256 101.606 69.5701C101.337 70.0563 100.809 70.4986 100.262 70.6294C99.6982 70.7645 99.0566 70.6227 98.5765 70.3082C98.2948 70.1237 97.945 69.7565 97.8479 69.429L97.8406 69.367Z" fill="#050607"/>
<path d="M98.3369 68.7387C98.3322 68.5564 98.3371 68.3783 98.3787 68.1998C98.4757 67.7846 98.8347 67.405 99.1997 67.2002C99.5467 67.0054 99.9429 66.98 100.323 67.0824L98.3369 68.7387Z" fill="#2A465B"/>
<path d="M100.323 67.0825C100.739 67.3177 101.052 67.6355 101.179 68.1113C101.285 68.5087 101.199 69.0037 100.98 69.3474C100.777 69.667 100.48 69.8765 100.109 69.9567C99.6892 70.0473 99.2087 69.9575 98.8558 69.716C98.6035 69.5433 98.3964 69.228 98.344 68.9246C98.3335 68.8631 98.3359 68.8008 98.3369 68.7388L100.323 67.0825Z" fill="#1B3143"/>
<path d="M66.8459 32.7501L82.6883 41.9515C82.5476 42.1235 82.3255 42.2696 82.1521 42.4106L81.0523 43.3011L75.7216 47.5034L66.8223 54.4959L66.8459 32.7501Z" fill="#18B89F"/>
<path d="M68.8633 36.4161L78.1257 41.8471C78.0159 41.9872 77.8377 42.0961 77.6967 42.2054L76.8917 42.8304L74.0816 45.0237L68.8675 49.0397L68.8633 36.4161Z" fill="#F2F4F7"/>
<path d="M51.113 40.5578L51.066 37.3398C51.0635 36.9293 51.008 36.4028 51.0931 36.0067C51.1435 35.7721 51.2942 35.5357 51.459 35.3652C51.6511 35.1661 51.9327 35.0121 52.2095 34.9714C52.5147 34.9266 52.853 34.9548 53.1626 34.9563L54.7831 34.9627L59.8891 34.9093L59.8886 35.9082L59.8742 59.7713L51.1047 59.7719L51.0719 51.9283L51.113 40.5578Z" fill="#628A9E"/>
<path d="M51.113 40.5578L51.066 37.3398C51.0635 36.9293 51.008 36.4028 51.0931 36.0067C51.1435 35.7721 51.2942 35.5357 51.459 35.3652C51.6511 35.1661 51.9327 35.0121 52.2095 34.9714C52.5147 34.9266 52.853 34.9548 53.1626 34.9563L54.7831 34.9627L59.8891 34.9093L59.8886 35.9082L52.5122 35.9101C52.3284 35.9064 52.1581 36.0396 52.0339 36.1659C51.9112 36.2906 51.8492 36.4469 51.8117 36.6156C51.6708 37.2502 51.6662 37.9788 51.6129 38.6284L51.3355 41.3457C51.2891 41.7571 51.2705 42.2205 51.1642 42.6189L51.152 41.3141C51.1534 41.0784 51.1782 40.7855 51.113 40.5578Z" fill="#F2F4F7"/>
<path d="M56.2836 42.4118C56.7458 42.407 57.6416 42.2989 57.9879 42.613C58.0198 42.6829 58.0354 42.7288 58.0372 42.8071L58.0384 44.3092C58.0384 44.5923 58.0654 44.91 58.0314 45.1898C58.0228 45.2604 57.9842 45.2997 57.9343 45.3475C57.8822 45.3975 57.8065 45.4301 57.7359 45.4416C57.4457 45.489 57.0839 45.4523 56.7862 45.4528L54.6301 45.4514C54.3323 45.4537 53.278 45.5423 53.0799 45.3731C52.9859 45.2926 52.9575 45.2093 52.9475 45.0891C52.91 44.6401 52.9373 44.1634 52.9351 43.7118C52.9335 43.4007 52.8926 43.0282 52.9473 42.7225C52.9615 42.6429 53.0018 42.5932 53.0518 42.5324C53.1378 42.4829 53.2098 42.4452 53.3091 42.4313C53.6138 42.3884 53.9614 42.4172 54.2719 42.4161L56.2836 42.4118Z" fill="#050607"/>
<path d="M53.9389 43.0803L56.2646 43.0765C56.5908 43.0762 56.9827 43.0345 57.3018 43.0882L57.3218 43.1206C57.3883 43.2689 57.3828 44.6557 57.3318 44.8395L53.7177 44.8273L53.6989 44.7913C53.6603 44.6084 53.6667 43.2026 53.7357 43.0889L53.9389 43.0803Z" fill="#7E4B40"/>
<path d="M53.932 43.1172C54.0031 43.1945 54.0715 43.2663 54.1244 43.3579L53.9832 43.4903C53.9928 43.6987 54.0407 43.8587 54.0951 44.0568C53.9855 44.301 53.877 44.5335 53.7312 44.7585C53.7299 44.4553 53.6528 43.3347 53.7672 43.1281L53.932 43.1172Z" fill="#F48829"/>
<path d="M53.9388 43.0803L56.2645 43.0765C56.5907 43.0762 56.9826 43.0345 57.3017 43.0882C57.1965 43.3637 56.8877 43.5962 56.6787 43.7967C56.3546 43.798 54.4173 43.7409 54.2678 43.867L54.0953 44.0567C54.0408 43.8586 53.9929 43.6986 53.9833 43.4902L54.1246 43.3578C54.0716 43.2662 54.0032 43.1944 53.9321 43.1171L53.9388 43.0803Z" fill="#AB5D3C"/>
<path d="M53.3826 38.1394C53.9105 38.1268 57.5456 38.0845 57.7694 38.1869C57.8755 38.2353 57.9903 38.3332 58.021 38.4508C58.0784 38.6708 58.0621 40.8566 57.9794 41.0025C57.9054 41.1328 57.806 41.1785 57.6689 41.219L54.4548 41.2193L53.6058 41.2169C53.49 41.2149 53.3256 41.226 53.2181 41.1866C53.1106 41.1472 53.0043 41.0512 52.9728 40.9376C52.9244 40.763 52.917 38.5567 53.0071 38.4013C53.0969 38.2465 53.2182 38.1911 53.3826 38.1394Z" fill="#050607"/>
<path d="M57.1916 38.8463L57.267 38.8264L57.3359 38.8887L57.3428 40.6216L53.6792 40.6314L53.6915 38.9102L53.759 38.8498L54.058 38.8395L57.1916 38.8463Z" fill="#BC2742"/>
<path d="M53.7589 38.8497L54.0579 38.8394L54.1755 39.6557C54.0965 39.9112 53.9327 40.1707 53.8095 40.4099L53.7747 39.5243C53.7593 39.3098 53.6935 39.0562 53.7589 38.8497Z" fill="#F4CE58"/>
<path d="M54.0581 38.8394L57.1917 38.8462C57.0574 39.1361 56.7165 39.3745 56.4448 39.5285C56.1539 39.5324 54.3635 39.4722 54.2196 39.5795L54.1758 39.6557L54.0581 38.8394Z" fill="#F2A335"/>
<path d="M53.205 46.6794C53.5031 46.6175 53.8932 46.6616 54.2003 46.661L56.4594 46.6576L57.38 46.6574C57.505 46.6573 57.6818 46.6367 57.7999 46.6712C57.8929 46.6984 57.9871 46.7917 58.016 46.8837C58.0802 47.088 58.0712 49.3779 57.995 49.518C57.9315 49.6345 57.8443 49.6565 57.7302 49.6987L57.6472 49.7076L54.8713 49.7085L53.7979 49.7113C53.612 49.7115 53.3971 49.7325 53.2141 49.7009C53.0938 49.6801 53.0618 49.6333 52.9792 49.5538C52.881 49.3071 52.8665 47.2331 52.9474 46.9606C52.9895 46.8188 53.0847 46.7525 53.205 46.6794Z" fill="#050607"/>
<path d="M53.7381 47.3505C53.9088 47.4516 53.9952 47.6251 54.0691 47.8016C53.9547 47.8732 53.8644 47.9441 53.7236 47.9418L53.7381 47.3505Z" fill="#F2A335"/>
<path d="M53.7383 47.3505C53.9326 47.2462 54.4324 47.3055 54.6714 47.3054L57.301 47.3184C57.2506 47.5655 56.8723 47.8707 56.6897 48.0671L54.8804 48.0815C54.6622 48.0833 54.3147 48.038 54.1349 48.1535C54.085 48.035 54.0785 47.9277 54.0692 47.8016C53.9953 47.6251 53.909 47.4516 53.7383 47.3505Z" fill="#AB5D3C"/>
<path d="M57.301 47.3184C57.4157 47.4804 57.3532 48.7965 57.3532 49.0856L53.7002 49.0888C53.6988 48.7428 53.6476 48.3126 53.7216 47.9778L53.7237 47.9418C53.8645 47.944 53.9548 47.8732 54.0692 47.8016C54.0785 47.9276 54.085 48.035 54.1349 48.1534C54.3146 48.0379 54.6622 48.0833 54.8803 48.0814L56.6896 48.067C56.8723 47.8707 57.2506 47.5655 57.301 47.3184Z" fill="#7E4B40"/>
<path d="M53.7238 47.9418C53.8645 47.9441 53.9548 47.8732 54.0692 47.8016C54.0785 47.9277 54.085 48.035 54.1349 48.1534C54.0249 48.4354 53.9173 48.6551 53.7284 48.8907L53.7217 47.9778L53.7238 47.9418Z" fill="#F48829"/>
<path d="M53.1706 55.2152L57.5896 55.2056C57.7703 55.2149 57.8381 55.2346 57.9533 55.3763C58.11 55.5692 58.0371 56.8484 58.0359 57.2081C58.0351 57.4316 58.0726 57.7372 58.0217 57.9529C57.9864 58.1028 57.8574 58.1708 57.7305 58.2304C57.5586 58.2774 57.3485 58.2521 57.17 58.2518L56.0391 58.2494L54.1236 58.254C53.8287 58.2541 53.5127 58.2767 53.2211 58.251C53.0891 58.2394 53.0218 58.1681 52.9393 58.0743C52.8489 57.7783 52.8236 55.7123 52.9246 55.4367C52.9695 55.3145 53.0614 55.2685 53.1706 55.2152Z" fill="#050607"/>
<path d="M53.6867 57.4483C53.6612 57.1224 53.6768 56.7841 53.6752 56.4567C53.6744 56.2804 53.6467 56.0504 53.6946 55.8839L55.9334 55.8712C56.3663 55.8645 56.9016 55.7917 57.3192 55.8739C57.31 55.9219 57.3051 56.0166 57.2838 56.0569C57.1807 56.253 56.7768 56.5209 56.5911 56.6587C56.2642 56.6534 54.2551 56.5641 54.1172 56.643C53.9946 56.8649 53.8654 57.3023 53.6867 57.4483Z" fill="#F48829"/>
<path d="M57.3191 55.8739C57.368 56.0631 57.3455 56.2907 57.346 56.4865L57.3462 57.667L54.666 57.6676C54.3985 57.6661 53.9353 57.7239 53.6922 57.631L53.6865 57.4483C53.8652 57.3023 53.9945 56.8649 54.117 56.6431C54.255 56.5642 56.2641 56.6535 56.591 56.6587C56.7767 56.5209 57.1806 56.253 57.2837 56.0569C57.3049 56.0166 57.3098 55.922 57.3191 55.8739Z" fill="#BC2742"/>
<path d="M53.2553 50.8986L56.2593 50.8895C56.7065 50.8903 57.3119 50.8208 57.7388 50.9371C57.85 50.9674 57.9441 51.0506 57.9919 51.1553C58.0774 51.3427 58.0692 53.5581 57.9899 53.7657C57.8835 53.8922 57.8074 53.931 57.6484 53.973L53.2695 53.9631C53.155 53.95 53.0446 53.9091 52.9804 53.806C52.8838 53.651 52.8985 51.326 52.9697 51.1084C53.0615 50.9922 53.1145 50.9472 53.2553 50.8986Z" fill="#050607"/>
<path d="M53.7287 51.6182L54.1471 51.625C54.1949 51.8068 54.12 51.8853 54.0991 52.0545C54.0812 52.1992 54.095 52.3608 54.0982 52.5071C53.9961 52.7421 53.893 52.9832 53.7445 53.1934C53.6937 53.0993 53.7142 53.1481 53.6828 53.0469C53.7144 52.6293 53.598 52.0023 53.7287 51.6182Z" fill="#F2A335"/>
<path d="M53.7285 51.6182C54.0525 51.5057 54.5848 51.5854 54.9384 51.587C55.7069 51.5905 56.5464 51.5165 57.3052 51.6196C57.2634 51.8477 56.765 52.2311 56.5853 52.4062L55.1584 52.4166C54.8511 52.4154 54.3639 52.3445 54.098 52.5071C54.0948 52.3609 54.0811 52.1992 54.0989 52.0545C54.1199 51.8854 54.1948 51.8068 54.147 51.625L53.7285 51.6182Z" fill="#AB5D3C"/>
<path d="M57.3052 51.6196C57.4269 51.8116 57.3534 53.0941 57.3529 53.4056L53.7242 53.3804C53.652 53.2856 53.6816 53.1643 53.6826 53.0469C53.7141 53.1482 53.6936 53.0993 53.7444 53.1934C53.8929 52.9832 53.9959 52.7421 54.098 52.5071C54.3639 52.3445 54.8511 52.4154 55.1584 52.4166L56.5853 52.4062C56.765 52.2311 57.2634 51.8478 57.3052 51.6196Z" fill="#7E4B40"/>
<path d="M66.1513 55.9535C66.5574 55.504 67.1452 55.1245 67.624 54.7509L71.0947 52.0813L78.2323 46.4854L83.4177 42.3617L94.2436 48.7161L99.2863 51.6686L93.9899 60.4745L93.9443 60.4658C93.8707 60.5552 93.8306 60.641 93.7855 60.7459L84.6134 66.032C84.1458 65.8611 83.7427 65.5891 83.3173 65.3357L81.2249 64.1141C80.869 64.3807 80.5352 64.7465 80.2563 65.0899L65.4868 56.6221L65.7226 56.4878C65.9219 56.3758 66.08 56.1714 66.1513 55.9535Z" fill="#050607"/>
<path d="M83.4327 62.4852L84.2793 63.0361L84.2812 65.0341L82.0371 63.6944L83.4327 62.4852Z" fill="#E4646D"/>
<path d="M82.0372 63.6944C81.8111 63.6039 81.5861 63.4471 81.3745 63.324L80.1619 62.6147L77.0459 60.8149L78.677 59.6666L83.4328 62.4852L82.0372 63.6944Z" fill="#EAB0B7"/>
<path d="M79.0146 52.7611L83.7931 55.6197C83.2858 56.0111 82.6269 56.3186 82.0662 56.6402L79.0078 58.4698L79.0146 52.7611Z" fill="#BC2742"/>
<path d="M90.5638 59.6441C90.6044 59.6328 90.6434 59.6118 90.6854 59.6102C90.7662 59.607 91.0078 59.7717 91.0927 59.8182L92.566 60.6133C92.366 60.7757 92.084 60.8916 91.8553 61.019L90.3921 61.8476L86.2746 64.2488L84.9535 65.0184C84.9047 64.9397 84.9362 64.6516 84.9369 64.5485L84.9481 62.9837C85.5664 62.486 86.3749 62.1018 87.062 61.6991L90.5638 59.6441Z" fill="#E4646D"/>
<path d="M90.1759 52.7189L90.2601 52.6998C90.3121 52.832 90.2861 53.0332 90.2861 53.1785L90.2847 54.3136L90.278 58.5286L87.3859 56.7709L85.4053 55.593L90.1759 52.7189Z" fill="#7E4B40"/>
<path d="M84.9726 56.2094L89.9175 59.1302C89.3621 59.5471 88.6647 59.8815 88.0613 60.2325L84.9722 62.0854L84.9726 56.2094Z" fill="#F2A335"/>
<path d="M84.1876 46.0353L84.2496 46.0333C84.3342 46.1366 84.2882 47.8786 84.2888 48.1607L78.6559 51.6082L77.6186 50.902L76.8672 50.4261L84.1876 46.0353Z" fill="#F2F4F7"/>
<path d="M76.4249 51.0763L78.2417 52.2768L78.266 58.9633C78.2334 59.1003 77.6601 59.4377 77.5157 59.5385L76.4224 60.2709L76.4249 51.0763Z" fill="#F2F4F7"/>
<path d="M84.9712 49.0277L89.9539 51.9948L88.1332 53.0755L85.0073 54.9718C84.9287 54.8498 84.9719 49.5959 84.9712 49.0277Z" fill="#EC4D38"/>
<path d="M84.2023 56.1815C84.2551 56.1885 84.2272 56.1789 84.2809 56.2218L84.2914 62.1322L81.2063 60.2633L79.2466 59.1192L84.2023 56.1815Z" fill="#F2A335"/>
<path d="M84.9782 46.0002L92.7087 50.508L91.9523 50.9351L90.6876 51.5885L86.637 49.1512C86.1025 48.8391 85.5792 48.4645 85.018 48.2059L84.9751 48.1866L84.9782 46.0002Z" fill="#F2F4F7"/>
<path d="M84.2153 49.0952L84.2774 49.1172L84.2866 53.2576L84.2867 54.4461C84.2868 54.635 84.315 54.871 84.2701 55.0543L81.138 53.2174L79.2544 52.0762L84.2153 49.0952Z" fill="#F2A335"/>
<path d="M93.1071 51.1487L93.1452 51.1749C93.1989 51.4812 93.1642 51.8319 93.1626 52.1453L93.1528 54.0787L93.1618 60.1064L91.8265 59.3966L91.0652 58.9609L91.0649 52.2853C91.6767 51.8583 92.4399 51.4864 93.1071 51.1487Z" fill="#E4646D"/>
<path d="M94.2437 48.7161L99.2863 51.6686L93.9899 60.4744L93.9444 60.4657L93.9018 50.4537C93.7749 50.268 93.669 50.1658 93.4863 50.0387C93.729 49.6066 93.9477 49.1107 94.2437 48.7161Z" fill="#48748B"/>
<path d="M66.1513 55.9535C66.5574 55.504 67.1452 55.1245 67.624 54.7509L71.0947 52.0813L78.2323 46.4854L83.4177 42.3617L94.2437 48.7161C93.9477 49.1108 93.729 49.6066 93.4863 50.0387L88.0368 46.9166L85.6734 45.5076C85.406 45.3512 85.1419 45.1661 84.8675 45.0255C84.765 44.973 84.6403 44.9309 84.525 44.9557C84.3125 45.0013 84.0348 45.2362 83.8438 45.3584L82.4718 46.2079L77.5576 49.1771L76.431 49.8641C76.2315 49.9834 75.9839 50.0977 75.8167 50.2559C75.7816 50.2892 75.7398 50.335 75.72 50.3793C75.6144 50.6178 75.6734 51.1064 75.6726 51.3757L75.6689 53.7608L75.6663 58.3126L75.6696 60.6104C75.6725 60.695 75.6931 60.7643 75.7394 60.8366C75.7987 60.9292 75.9185 61.0123 76.0097 61.0711C76.3404 61.284 76.7008 61.4611 77.0424 61.6572L78.6764 62.6091L81.2249 64.1141C80.869 64.3807 80.5352 64.7465 80.2563 65.0899L65.4868 56.6221L65.7226 56.4878C65.9219 56.3758 66.08 56.1714 66.1513 55.9535Z" fill="#628A9E"/>
<defs>
<linearGradient id="paint0_linear_117_4076" x1="77.8964" y1="49.2411" x2="86.0718" y2="36.135" gradientUnits="userSpaceOnUse">
<stop stop-color="#F2C872"/>
<stop offset="1" stop-color="#F6BDCD"/>
</linearGradient>
<linearGradient id="paint1_linear_117_4076" x1="95.4736" y1="56.3706" x2="103.932" y2="81.7087" gradientUnits="userSpaceOnUse">
<stop stop-color="#BD341D"/>
<stop offset="1" stop-color="#DF4B20"/>
</linearGradient>
<linearGradient id="paint2_linear_117_4076" x1="102.199" y1="57.9001" x2="102.74" y2="59.0333" gradientUnits="userSpaceOnUse">
<stop stop-color="#9A666D"/>
<stop offset="1" stop-color="#B07C83"/>
</linearGradient>
</defs>
</svg>
