<svg width="159" height="109" viewBox="0 0 159 109" fill="none" xmlns="http://www.w3.org/2000/svg">
<path d="M149.999 26.7935V13.2265L138.25 6.44336L126.5 13.2265V26.7935L138.25 33.5766L149.999 26.7935Z" fill="#C2C2C2" stroke="#393931" stroke-linejoin="round"/>
<mask id="path-3-inside-1_117_5671" fill="white">
<path fill-rule="evenodd" clip-rule="evenodd" d="M118.25 12.01C118.25 5.38259 112.877 0.0100098 106.25 0.0100098H12.25C5.62258 0.0100098 0.25 5.38258 0.25 12.01V96.34C0.25 102.967 5.62258 108.34 12.25 108.34H146.25C152.877 108.34 158.25 102.967 158.25 96.34V52.01C158.25 45.3826 152.877 40.01 146.25 40.01H130.25C123.623 40.01 118.25 34.6374 118.25 28.01V12.01Z"/>
</mask>
<path fill-rule="evenodd" clip-rule="evenodd" d="M118.25 12.01C118.25 5.38259 112.877 0.0100098 106.25 0.0100098H12.25C5.62258 0.0100098 0.25 5.38258 0.25 12.01V96.34C0.25 102.967 5.62258 108.34 12.25 108.34H146.25C152.877 108.34 158.25 102.967 158.25 96.34V52.01C158.25 45.3826 152.877 40.01 146.25 40.01H130.25C123.623 40.01 118.25 34.6374 118.25 28.01V12.01Z" fill="white"/>
<path d="M12.25 1.01001H106.25V-0.98999H12.25V1.01001ZM1.25 96.34V12.01H-0.75V96.34H1.25ZM146.25 107.34H12.25V109.34H146.25V107.34ZM157.25 52.01V96.34H159.25V52.01H157.25ZM146.25 39.01H130.25V41.01H146.25V39.01ZM119.25 28.01V12.01H117.25V28.01H119.25ZM130.25 39.01C124.175 39.01 119.25 34.0851 119.25 28.01H117.25C117.25 35.1897 123.07 41.01 130.25 41.01V39.01ZM159.25 52.01C159.25 44.8303 153.43 39.01 146.25 39.01V41.01C152.325 41.01 157.25 45.9349 157.25 52.01H159.25ZM146.25 109.34C153.43 109.34 159.25 103.52 159.25 96.34H157.25C157.25 102.415 152.325 107.34 146.25 107.34V109.34ZM-0.75 96.34C-0.75 103.52 5.0703 109.34 12.25 109.34V107.34C6.17487 107.34 1.25 102.415 1.25 96.34H-0.75ZM106.25 1.01001C112.325 1.01001 117.25 5.93488 117.25 12.01H119.25C119.25 4.83031 113.43 -0.98999 106.25 -0.98999V1.01001ZM12.25 -0.98999C5.0703 -0.98999 -0.75 4.8303 -0.75 12.01H1.25C1.25 5.93487 6.17487 1.01001 12.25 1.01001V-0.98999Z" fill="#C2C2C2" mask="url(#path-3-inside-1_117_5671)"/>
<path d="M51 73.1714L52.8588 70.1492L53.8236 68.5656L56.3654 64.5777L57.907 62.1545C58.0405 61.9382 58.2617 61.6694 58.346 61.4329C58.367 61.3741 58.3498 61.2976 58.344 61.2372C58.2876 60.6501 58.3333 60.011 58.3312 59.4189L58.3161 55.5784L58.3272 49.4181L58.3221 40.0896L58.306 34.4888L58.3177 33.5634C58.3192 33.4026 58.293 33.207 58.3641 33.0602C58.5281 32.9331 58.6836 32.9397 58.8821 32.9374L68.3608 32.9398L86.2534 32.9522L96.3456 32.9429L99.3963 32.9477C99.9155 32.949 100.467 32.9145 100.983 32.9619C101.1 32.9727 101.157 33.048 101.225 33.1342C101.297 33.3937 101.267 33.7013 101.268 33.971L101.268 35.4418L101.271 40.4047L101.263 56.2838L101.233 60.209L101.232 61.1607C101.232 61.2858 101.214 61.4482 101.253 61.5656C101.319 61.7633 101.475 61.9619 101.584 62.1404L102.287 63.2797L104.503 66.7766L105.454 68.3376L107.672 71.8073C107.971 72.2663 108.244 72.7481 108.564 73.192C108.325 73.1355 107.971 73.1888 107.717 73.1894L107.619 73.0134L102.94 65.4676L102.287 64.4554L101.824 63.7141C101.775 63.6467 101.743 63.5763 101.698 63.5078L101.348 62.9841C101.254 62.8533 101.189 62.701 101.094 62.5715C101.065 62.5321 101.044 62.5042 101.021 62.4595L100.998 62.4128L100.681 61.8733L100.602 61.7465L100.475 61.5243C100.422 61.4011 100.365 61.3829 100.36 61.2385C100.278 61.1443 100.328 60.5043 100.326 60.3546L100.268 58.3041L100.289 47.0626L100.26 37.0133L100.287 34.1127C100.288 34.0724 100.295 34.0723 100.272 34.0408C100.218 33.9678 100.093 33.9189 100.005 33.909L99.9673 33.9055C99.4408 33.8524 98.8912 33.8782 98.3617 33.8759L95.5715 33.8732L87.518 33.8788L59.2345 33.8827L59.2559 37.1214L59.2698 43.3574L59.2781 55.8744L59.2877 60.3731L59.2817 61.0357C59.2812 61.082 59.2935 61.1895 59.2793 61.2314C59.2425 61.3399 59.1392 61.4793 59.0813 61.5823C58.7081 62.2463 58.2523 62.8629 57.8458 63.5069L53.8318 69.8468L52.2425 72.3396C52.0703 72.6318 51.8875 72.9086 51.7368 73.214C51.5128 73.2125 51.2086 73.2462 51 73.1714Z" fill="#1C1F33"/>
<path d="M51.0001 73.1714C51.2087 73.2461 51.5129 73.2124 51.7369 73.214C51.8876 72.9086 52.0704 72.6318 52.2426 72.3396L53.8319 69.8468L57.8459 63.5069C58.2524 62.8628 58.7082 62.2463 59.0814 61.5823C59.1393 61.4792 59.2426 61.3399 59.2794 61.2314C59.2936 61.1895 59.2813 61.0819 59.2818 61.0357L59.2878 60.3731L59.2782 55.8744L59.2699 43.3574L59.256 37.1214L59.2345 33.8827L87.5181 33.8788L95.5716 33.8732L98.3618 33.8759C98.8913 33.8782 99.4409 33.8523 99.9674 33.9055L100.006 33.909C100.093 33.9189 100.218 33.9677 100.272 34.0407C100.295 34.0723 100.288 34.0723 100.287 34.1127L100.26 37.0133L100.289 47.0626L100.268 58.3041L100.326 60.3546C100.328 60.5043 100.278 61.1443 100.36 61.2385C100.365 61.3829 100.422 61.4011 100.475 61.5243L100.602 61.7465L100.681 61.8732L100.999 62.4128L101.021 62.4594C101.044 62.5042 101.065 62.5321 101.094 62.5715C101.19 62.701 101.254 62.8533 101.348 62.9841L101.698 63.5078C101.744 63.5763 101.775 63.6467 101.824 63.7141L102.287 64.4553L102.94 65.4676L107.62 73.0134L107.717 73.1894C107.971 73.1888 108.325 73.1355 108.564 73.1919C108.68 73.3105 108.763 73.38 108.763 73.5532C108.762 73.7274 108.644 73.8937 108.567 74.0449C108.445 74.2863 108.336 74.5686 108.139 74.7591L108.059 74.8317C107.472 75.5222 106.746 75.9734 105.829 76.0497C104.85 76.1309 103.838 76.0809 102.855 76.0816L97.3862 76.0818L79.8842 76.0776L62.1088 76.0726L56.5488 76.0777C55.5953 76.0804 54.6001 76.1418 53.651 76.0713C52.9904 76.0223 52.45 75.8084 51.915 75.4196C51.7042 75.3703 51.5319 75.2335 51.4034 75.0605C51.1184 74.677 50.8445 74.2239 50.7452 73.7549C50.7278 73.673 50.6958 73.5484 50.7204 73.4648C50.7534 73.3522 50.8956 73.2208 51.0001 73.1714Z" fill="#0F0F28"/>
<path d="M56.4262 73.5688L108.489 73.6086L108.099 74.5327L103.097 74.5458L51.3533 74.5315L50.9512 73.5808L56.4262 73.5688Z" fill="#125B6E"/>
<path d="M102.033 73.9497C102.241 73.9111 103.295 73.8748 103.434 73.9597C103.469 74.0299 103.504 74.1386 103.488 74.2195C103.471 74.3097 103.421 74.3168 103.347 74.3569L103.323 74.3643C103.045 74.4285 102.642 74.3843 102.353 74.3832C102.229 74.3827 102.093 74.4029 101.982 74.3381C101.93 74.2673 101.898 74.2185 101.904 74.1243C101.911 74.0293 101.962 73.999 102.033 73.9497Z" fill="#010002"/>
<path d="M51.9149 75.4197C51.7672 75.2121 51.5857 75.0509 51.4507 74.8267L108.059 74.8317C107.472 75.5222 106.746 75.9735 105.828 76.0497C104.85 76.131 103.838 76.081 102.855 76.0817L97.386 76.0819L79.884 76.0777L62.1086 76.0726L56.5486 76.0778C55.5952 76.0805 54.6 76.1418 53.6509 76.0714C52.9902 76.0224 52.4498 75.8085 51.9149 75.4197Z" fill="#1C1F33"/>
<path d="M59.5244 61.1747L59.5245 34.1555L94.6839 34.1607L99.4693 34.1706L97.3995 35.8891L61.4388 35.8879L61.4319 40.878L61.4286 40.9205C61.3828 41.5594 61.4062 42.215 61.405 42.856L61.4021 46.1702L61.4043 56.4067L61.4059 58.5393C61.4059 58.6613 61.4429 58.9969 61.3992 59.1036C61.3579 59.2046 61.1318 59.3861 61.0457 59.4811L60.0792 60.5385C59.893 60.7473 59.7187 60.9746 59.5244 61.1747Z" fill="#80828C"/>
<path d="M94.6836 34.1607L99.4256 34.1443L99.5172 34.1579L99.9916 34.1981L100.004 61.3023L59.5484 61.294C59.5095 61.2335 59.5095 61.2563 59.5241 61.1748C59.7184 60.9746 59.8927 60.7474 60.0789 60.5385L61.0454 59.4811C61.1315 59.3862 61.3576 59.2047 61.3989 59.1037C61.4426 58.9969 61.4056 58.6614 61.4056 58.5394L61.404 56.4067L61.4018 46.1703L61.4047 42.8561C61.4059 42.2151 61.3825 41.5595 61.4283 40.9205L61.4317 40.8781L61.4373 59.0821L90.5665 59.1087L95.5921 59.1078L97.1673 59.1083C97.3596 59.108 97.6568 59.1469 97.8308 59.0665C97.9313 59.02 98.0183 58.9236 98.0541 58.819C98.0832 58.7341 98.0707 58.5925 98.0726 58.5008L98.0798 57.7221L98.0821 54.555L98.0777 42.2023L98.0756 38.4826L98.0788 36.7118C98.079 36.4897 98.1264 36.1221 98.029 35.9273C97.8899 35.853 97.5643 35.89 97.3993 35.8892L99.469 34.1707L94.6836 34.1607Z" fill="#525356"/>
<path d="M59.3488 61.6322C59.7882 61.6808 60.264 61.646 60.7075 61.6473L63.5228 61.6492L72.5434 61.6423L90.9302 61.6461L100.185 61.6255L107.365 73.1281L100.11 73.0825L52.0688 73.1042L59.3488 61.6322Z" fill="url(#paint0_linear_117_5671)"/>
<path d="M73.0318 68.459L73.0885 68.4395C73.179 68.4232 73.3097 68.4406 73.4039 68.4407L74.1139 68.4411L77.0193 68.4424L83.1361 68.44L86.3299 68.4426C86.3973 68.4451 86.4051 68.4365 86.4626 68.4808C86.5112 68.5182 86.5433 68.5587 86.5671 68.616C86.7849 69.1394 86.9297 69.7304 87.1074 70.2701L87.4977 71.4447C87.5595 71.6314 87.6614 71.8581 87.6773 72.0531C87.6827 72.1192 87.6859 72.1317 87.6383 72.1807C87.6133 72.2064 87.5833 72.2348 87.5488 72.2469C87.4529 72.2806 87.2924 72.2599 87.187 72.26L86.3038 72.2572L76.4445 72.2582L73.4305 72.2614C72.9221 72.2627 72.3815 72.3008 71.8764 72.2598C71.738 72.2485 71.7322 72.242 71.6336 72.1506C71.6268 72.1141 71.6188 72.0838 71.6234 72.0454C71.6367 71.9343 71.7193 71.7875 71.7626 71.6828L72.0558 70.9302L72.903 68.642C72.9359 68.5643 72.9719 68.5177 73.0318 68.459Z" fill="#0F0F28"/>
<path d="M73.214 68.7332L86.2575 68.7294L87.2945 71.9377L86.1057 71.937L72.0225 71.9464L73.214 68.7332Z" fill="#8EC7D5"/>
<path d="M60.9181 62.5375L98.6399 62.5439C98.9174 62.8066 99.1311 63.2583 99.3349 63.5824L100.976 66.245L101.594 67.2276C101.683 67.37 101.816 67.5413 101.877 67.6973C101.916 67.7983 101.881 67.8298 101.839 67.9195C101.813 67.9384 101.79 67.9631 101.761 67.9763C101.657 68.0229 99.0157 67.996 98.6503 67.9983L68.922 67.9757L60.6639 67.9754L58.6406 67.9816C58.3777 67.9829 58.055 68.0245 57.8021 67.976C57.7069 67.9578 57.6987 67.9225 57.6444 67.8477C57.6327 67.7567 57.6246 67.7228 57.6637 67.637C57.7452 67.4582 57.8743 67.2883 57.9784 67.1202L58.6234 66.0888L60.9181 62.5375Z" fill="#0F0F28"/>
<path d="M78.176 62.9882L81.4915 63.0003L81.6004 64.2854C81.6131 64.4163 81.6708 64.6643 81.6147 64.7822L81.4387 64.7924L77.9033 64.792L78.176 62.9882Z" fill="#1E343A"/>
<path d="M81.8447 63.0131L85.2651 63.0129C85.3378 63.1167 85.3686 63.3088 85.4089 63.4318L85.8385 64.7907L82.0082 64.7929L81.8447 63.0131Z" fill="#1E343A"/>
<path d="M88.0316 63.0004L89.04 62.9985C89.1 63.0156 89.0874 63.008 89.1095 63.0507L90.0364 64.7881L87.6054 64.7901L86.2411 64.7946L85.6562 63.0078L88.0316 63.0004Z" fill="#1E343A"/>
<path d="M89.5059 63.0108L93.0432 63.0057C93.1987 63.1338 93.3287 63.3605 93.4505 63.525L94.3531 64.7862L90.4731 64.7933L89.5059 63.0108Z" fill="#1E343A"/>
<path d="M76.2987 63.0007L77.7927 62.9931L77.5382 64.79L75.0938 64.7863L73.603 64.7872L74.2347 63.004L76.2987 63.0007Z" fill="#1E343A"/>
<path d="M70.2251 62.9931C70.6794 62.9961 73.7142 62.9617 73.8342 63.0283L73.4547 64.0651C73.3824 64.2794 73.3248 64.6103 73.1959 64.792L72.9674 64.7956L69.2983 64.7841L70.2251 62.9931Z" fill="#1E343A"/>
<path d="M66.0261 62.9922L69.8316 62.9959L68.8524 64.7773L68.7529 64.7904L64.8867 64.7915L66.0261 62.9922Z" fill="#1E343A"/>
<path d="M61.2088 62.9907L65.6135 62.9933L64.4996 64.7441C64.4785 64.7594 64.4605 64.7807 64.4361 64.79C64.3923 64.8068 64.2552 64.7904 64.2048 64.7905L63.5708 64.7915L60.0581 64.7943L61.2088 62.9907Z" fill="#1E343A"/>
<path d="M93.4897 63.0173L98.3173 63.0163L99.449 64.7922L94.8552 64.7856L93.4897 63.0173Z" fill="#1E343A"/>
<path d="M77.8533 65.1733L81.6666 65.1676C81.6915 65.4879 81.9052 67.2418 81.8289 67.3994L81.6066 67.4081L77.5659 67.4073L77.8533 65.1733Z" fill="#1E343A"/>
<path d="M64.6341 65.166L68.6837 65.1707L67.8655 66.7145C67.7479 66.936 67.6404 67.1745 67.4964 67.3799L67.3801 67.3944L63.2544 67.3958L64.6341 65.166Z" fill="#1E343A"/>
<path d="M82.0562 65.1696L85.9282 65.1701L86.6323 67.3997L82.226 67.4164L82.0562 65.1696Z" fill="#1E343A"/>
<path d="M90.6504 65.1676L94.6403 65.1684L96.2456 67.3927L91.8915 67.3968L90.6504 65.1676Z" fill="#1E343A"/>
<path d="M69.0791 65.1729L73.0898 65.181L72.5 66.8405C72.4379 67.0097 72.3876 67.2402 72.2831 67.3856L71.9902 67.3932L67.9395 67.3955L69.0791 65.1729Z" fill="#1E343A"/>
<path d="M87.8447 65.1581L90.2301 65.1484L91.4637 67.3963L89.9299 67.3951L87.0404 67.401L86.3306 65.1703L87.8447 65.1581Z" fill="#1E343A"/>
<path d="M73.4856 65.1853L77.4995 65.1777L77.2021 67.3973L76.7746 67.3969L72.7021 67.3944L73.4856 65.1853Z" fill="#1E343A"/>
<path d="M59.8462 65.1439L64.2704 65.1567L62.8492 67.3292L62.8174 67.3635C62.7996 67.3798 62.7776 67.3898 62.7539 67.3942C62.6458 67.4141 62.4961 67.396 62.3827 67.396H61.5597L58.4019 67.4004L59.8462 65.1439Z" fill="#1E343A"/>
<path d="M95.0874 65.1515L99.655 65.1474L101.042 67.3987L96.7354 67.3975L95.0874 65.1515Z" fill="#1E343A"/>
<path d="M97.3992 35.8891C97.5643 35.8899 97.8899 35.853 98.029 35.9272C98.1264 36.122 98.079 36.4896 98.0788 36.7117L98.0756 38.4825L98.0777 42.2022L98.0821 54.5549L98.0798 57.7221L98.0726 58.5008C98.0706 58.5924 98.0831 58.734 98.0541 58.819C98.0183 58.9236 97.9313 59.0199 97.8307 59.0664C97.6568 59.1468 97.3596 59.1079 97.1673 59.1082L95.5921 59.1077L90.5664 59.1086L61.4373 59.082L61.4316 40.878L61.4385 35.8879L97.3992 35.8891Z" fill="#0F0F28"/>
<path d="M97.7995 36.0542L97.8685 36.0562L97.9118 36.1177L97.8917 50.223L97.8932 56.0454L97.8895 58.5566C97.885 58.6729 97.8807 58.7667 97.8111 58.861C97.7581 58.8884 97.7201 58.9049 97.6594 58.9085C97.1733 58.9371 96.6647 58.8936 96.1755 58.8908L92.6356 58.8679L72.7311 58.8658L68.7405 58.9065L61.7702 58.9039C61.6921 58.8923 61.7282 58.9069 61.6628 58.8582L61.6538 36.1086L97.7995 36.0542Z" fill="#1C1F33"/>
<path d="M94.2564 36.4565L97.4469 36.4238L97.4364 38.0275C97.4336 38.2094 97.4715 38.4873 97.3995 38.6478L97.3789 38.6408L97.3481 38.5542C97.3256 38.3263 97.3432 38.0849 97.3435 37.8548L97.3458 36.5366L96.8529 36.5488L96.4235 36.5517C96.0976 36.5006 95.7171 36.5399 95.3838 36.5389L93.0801 36.5305C93.202 36.4758 93.3573 36.4917 93.4892 36.4886L94.2564 36.4565Z" fill="#010002"/>
<path d="M82.0103 36.4612L94.2566 36.4565L93.4894 36.4887C93.3575 36.4918 93.2022 36.4759 93.0802 36.5306L95.3839 36.539C95.7173 36.54 96.0977 36.5007 96.4236 36.5518L83.8584 36.5679C84.0695 36.5058 84.3643 36.5409 84.5859 36.5408L86.0342 36.5348V36.5146L85.9709 36.4989C85.7503 36.4398 85.4401 36.4791 85.2055 36.4795L82.8915 36.4827C82.662 36.4829 82.2172 36.5415 82.0103 36.4612Z" fill="#0F0F28"/>
<path d="M97.3387 58.3873C97.4205 58.2332 97.3739 55.4387 97.3785 55.0654C97.4294 55.1598 97.3977 55.4278 97.3995 55.5464L97.4123 57.4075C97.4112 57.7401 97.3717 58.1087 97.4203 58.4376L97.4282 58.3345C97.4681 58.1835 97.4624 58.0325 97.4679 57.8745L97.4994 57.9228C97.4998 58.0865 97.5309 58.3471 97.4815 58.4977L64.468 58.4882V58.4456L69.6731 58.4773C69.7707 58.4448 69.6702 58.4565 69.7714 58.448L69.8159 58.4456L69.8318 58.4138C68.8856 58.4694 67.923 58.4076 66.9753 58.4138L66.2344 58.4308C66.159 58.4306 66.0617 58.4451 65.9935 58.4091L65.9676 58.39L65.8645 58.423L65.801 58.3821C65.4826 58.3811 63.7893 58.327 63.6204 58.4029L63.5793 58.423L63.5159 58.3821C63.5013 58.3912 63.4741 58.4099 63.4558 58.4164C63.352 58.4536 62.5053 58.4564 62.4165 58.4096C62.3374 58.3678 62.2262 58.3851 62.1353 58.3594L62.1274 57.9377C62.1389 57.7737 62.1105 57.5844 62.1511 57.4266C62.1506 57.6394 62.0893 58.1548 62.1945 58.3238C62.3888 58.3856 62.6535 58.3522 62.8605 58.3525L64.2852 58.3534L69.5517 58.3573C70.3546 58.4336 71.1983 58.3904 72.0053 58.3905L76.42 58.3838L90.209 58.3877L95.6461 58.396L96.8487 58.3996C96.9952 58.4005 97.2043 58.436 97.3387 58.3873Z" fill="#0F0F28"/>
<path d="M62.1704 38.5533L62.145 38.451C62.1294 38.391 62.1171 38.3534 62.1242 38.2908C62.1459 38.099 62.1502 37.8536 62.1313 37.661C62.1127 37.4712 62.1389 37.2761 62.1273 37.0857C62.1189 36.9472 62.113 36.7737 62.1312 36.6375L62.1351 36.6097L62.0955 36.5619C61.9802 36.6815 62.0556 37.2569 62.0235 37.4625L62.0112 36.464C62.1386 36.3994 64.2679 36.4553 64.6058 36.4559L71.0156 36.4578L74.8776 36.4567L76.7229 36.4564L82.01 36.4613C82.2169 36.5415 82.6617 36.4829 82.8912 36.4827L85.2052 36.4795C85.4398 36.4791 85.75 36.4398 85.9706 36.4989L86.0339 36.5146V36.5348L84.5856 36.5409C84.364 36.5409 84.0692 36.5058 83.8582 36.5679L96.4233 36.5518L96.8528 36.5489L97.3456 36.5367L97.3434 37.855C97.343 38.085 97.3255 38.3264 97.3479 38.5543L97.3288 38.6101L97.3386 58.3873C97.2042 58.436 96.9951 58.4005 96.8486 58.3997L95.646 58.3961L90.2089 58.3878L76.4198 58.3838L72.0052 58.3906C71.1982 58.3904 70.3545 58.4336 69.5516 58.3573C69.6844 58.3529 69.7766 58.3678 69.8921 58.2916C70.7107 57.7522 71.484 57.0842 72.2508 56.4722L76.904 52.717L88.6801 43.2048L94.373 38.6186C94.0366 38.5765 93.673 38.6016 93.3326 38.6015L91.4371 38.6006L84.96 38.5883L70.4126 38.5888L62.1946 38.5771L62.1912 41.7272L62.1704 38.5533Z" fill="#0A7678"/>
<path d="M62.1704 38.5533L62.145 38.451C62.1294 38.391 62.1171 38.3534 62.1242 38.2908C62.1459 38.099 62.1502 37.8536 62.1313 37.661C62.1127 37.4712 62.1389 37.2761 62.1273 37.0857C62.1189 36.9472 62.113 36.7737 62.1312 36.6375L62.1351 36.6097L62.0955 36.5619C61.9802 36.6815 62.0556 37.2569 62.0235 37.4625L62.0112 36.464C62.1386 36.3994 64.2679 36.4553 64.6058 36.4559L71.0156 36.4578L70.9824 36.4667C70.6913 36.5248 70.2949 36.4772 69.9939 36.4766L67.6095 36.474C67.2523 36.475 66.8692 36.4473 66.5151 36.4886L66.2135 36.4989L66.1978 36.5339L73.0715 36.5332L77.1473 36.5355L78.2343 36.5333C78.3992 36.5329 78.5964 36.5524 78.7579 36.5275C78.8544 36.5351 78.9464 36.5366 79.0388 36.5668L62.1662 36.5656L62.1704 38.5533Z" fill="#0F0F28"/>
<path d="M76.7229 36.4564L82.01 36.4612C82.2169 36.5415 82.6617 36.4829 82.8912 36.4827L85.2052 36.4795C85.4398 36.4791 85.75 36.4398 85.9706 36.4989L86.0339 36.5146V36.5348L84.5856 36.5408C84.364 36.5409 84.0692 36.5058 83.8581 36.5679L79.0388 36.5668C78.9464 36.5366 78.8543 36.5351 78.7579 36.5275C78.5964 36.5523 78.3992 36.5328 78.2343 36.5333L77.1473 36.5354L73.0715 36.5332L66.1978 36.5339L66.2135 36.4989L66.5151 36.4885C66.8692 36.4473 67.2523 36.475 67.6095 36.474L69.9939 36.4766C70.2949 36.4772 70.6913 36.5248 70.9824 36.4667L71.0156 36.4578L74.8776 36.4567L76.7229 36.4564Z" fill="#010002"/>
<path d="M96.853 36.5489L97.3459 36.5367L97.3436 37.855C97.3433 38.085 97.3257 38.3264 97.3481 38.5543L97.329 38.6101L94.4092 38.5912L96.2751 37.075C96.4349 36.9415 96.7671 36.7297 96.853 36.5489Z" fill="url(#paint1_linear_117_5671)"/>
<path d="M62.1914 41.7271L62.1948 38.577L70.4128 38.5888L84.9602 38.5883L91.4373 38.6005L93.3328 38.6015C93.6732 38.6016 94.0368 38.5765 94.3733 38.6185L88.6803 43.2048L76.9042 52.7169L72.251 56.4722C71.4842 57.0841 70.7109 57.7522 69.8923 58.2916C69.7768 58.3677 69.6846 58.3529 69.5518 58.3573L64.2853 58.3534L62.8606 58.3525C62.6536 58.3523 62.3889 58.3856 62.1946 58.3238L62.1914 41.7271Z" fill="#46ABAD"/>
<defs>
<linearGradient id="paint0_linear_117_5671" x1="84.4423" y1="57.035" x2="77.484" y2="80.5154" gradientUnits="userSpaceOnUse">
<stop stop-color="#626267"/>
<stop offset="1" stop-color="#7C838D"/>
</linearGradient>
<linearGradient id="paint1_linear_117_5671" x1="94.5011" y1="38.2579" x2="97.4964" y2="37.4308" gradientUnits="userSpaceOnUse">
<stop stop-color="#092537"/>
<stop offset="1" stop-color="#0A3B40"/>
</linearGradient>
</defs>
</svg>
