<svg width="159" height="109" viewBox="0 0 159 109" fill="none" xmlns="http://www.w3.org/2000/svg">
<path d="M150.283 27.1321V13.5651L138.534 6.78198L126.784 13.5651V27.1321L138.534 33.9153L150.283 27.1321Z" fill="#66FECB"/>
<path d="M145.396 24.3106V16.3859L138.534 12.4243L131.671 16.3859V24.3106L138.534 28.2729L145.396 24.3106Z" fill="#66FECB"/>
<path d="M138.533 12.4243V6.78198L150.283 13.5651L145.396 16.386L138.533 12.4243Z" fill="#5EDEB3"/>
<path d="M145.396 24.3105V16.3859L150.283 13.5651V27.132L145.396 24.3105Z" fill="#01B478"/>
<path d="M138.533 28.2729V33.9152L150.283 27.1321L145.396 24.3105L138.533 28.2729Z" fill="#1DCE92"/>
<path d="M131.671 24.3105L126.784 27.1321L138.534 33.9152V28.2729L131.671 24.3105Z" fill="#01B478"/>
<path d="M138.534 12.4243L131.671 16.386L126.784 13.5651L138.534 6.78198V12.4243Z" fill="#2AFFB7"/>
<path d="M150.283 13.5651L145.097 16.2145L138.767 12.5557L138.536 6.77991L138.302 12.5557L131.968 16.2124L126.783 13.5631L131.669 16.3846V19.1992C131.762 18.3198 131.854 17.4399 131.946 16.5595L138.533 12.9775L145.121 16.5595C145.213 17.4399 145.305 18.3198 145.397 19.1992V16.3846L145.463 16.3466L150.283 13.5651Z" fill="white"/>
<path d="M138.533 6.78195L150.283 13.5651V27.1321L138.533 33.9152L126.784 27.1321V13.5651L138.533 6.78195ZM138.533 6C138.396 5.99989 138.261 6.03589 138.142 6.10439L126.391 12.8875C126.272 12.9563 126.174 13.055 126.105 13.174C126.036 13.2929 126 13.4278 126 13.5651V27.1321C126 27.2693 126.036 27.4041 126.105 27.5229C126.174 27.6417 126.272 27.7404 126.391 27.8089L138.145 34.5928C138.264 34.6612 138.399 34.6972 138.536 34.6972C138.673 34.6972 138.808 34.6612 138.927 34.5928L150.676 27.8089C150.795 27.7404 150.894 27.6417 150.962 27.5229C151.031 27.4041 151.067 27.2693 151.067 27.1321V13.5651C151.067 13.4278 151.031 13.2929 150.962 13.174C150.894 13.055 150.795 12.9563 150.676 12.8875L138.927 6.10439C138.808 6.03579 138.673 5.99979 138.536 6H138.533Z" fill="#003725"/>
<mask id="path-10-inside-1_117_3621" fill="white">
<path fill-rule="evenodd" clip-rule="evenodd" d="M118.25 12C118.25 5.37258 112.877 0 106.25 0H12.25C5.62258 0 0.25 5.37257 0.25 12V96.33C0.25 102.957 5.62258 108.33 12.25 108.33H146.25C152.877 108.33 158.25 102.957 158.25 96.33V52C158.25 45.3726 152.877 40 146.25 40H130.25C123.623 40 118.25 34.6274 118.25 28V12Z"/>
</mask>
<path fill-rule="evenodd" clip-rule="evenodd" d="M118.25 12C118.25 5.37258 112.877 0 106.25 0H12.25C5.62258 0 0.25 5.37257 0.25 12V96.33C0.25 102.957 5.62258 108.33 12.25 108.33H146.25C152.877 108.33 158.25 102.957 158.25 96.33V52C158.25 45.3726 152.877 40 146.25 40H130.25C123.623 40 118.25 34.6274 118.25 28V12Z" fill="white"/>
<path d="M12.25 1H106.25V-1H12.25V1ZM1.25 96.33V12H-0.75V96.33H1.25ZM146.25 107.33H12.25V109.33H146.25V107.33ZM157.25 52V96.33H159.25V52H157.25ZM146.25 39H130.25V41H146.25V39ZM119.25 28V12H117.25V28H119.25ZM130.25 39C124.175 39 119.25 34.0751 119.25 28H117.25C117.25 35.1797 123.07 41 130.25 41V39ZM159.25 52C159.25 44.8203 153.43 39 146.25 39V41C152.325 41 157.25 45.9249 157.25 52H159.25ZM146.25 109.33C153.43 109.33 159.25 103.51 159.25 96.33H157.25C157.25 102.405 152.325 107.33 146.25 107.33V109.33ZM-0.75 96.33C-0.75 103.51 5.0703 109.33 12.25 109.33V107.33C6.17487 107.33 1.25 102.405 1.25 96.33H-0.75ZM106.25 1C112.325 1 117.25 5.92487 117.25 12H119.25C119.25 4.8203 113.43 -1 106.25 -1V1ZM12.25 -1C5.0703 -1 -0.75 4.82029 -0.75 12H1.25C1.25 5.92486 6.17487 1 12.25 1V-1Z" fill="#C2C2C2" mask="url(#path-10-inside-1_117_3621)"/>
<path d="M79.4788 24.7294L89.0573 31.0185L89.0542 31.8692L90.5847 32.8631C90.7505 32.6877 90.9252 32.5657 91.1311 32.443L93.729 34.1292L93.7266 34.9251C93.9266 35.1009 94.2023 35.2377 94.4267 35.3845L95.8466 36.322L101.72 40.1709L101.714 41.2102L106.764 44.5648L106.766 64.4641L101.959 67.6504L101.961 68.5217C101.869 68.6397 101.683 68.7327 101.558 68.8145L100.68 69.3943L96.2906 72.2959L94.6068 73.401C94.3291 73.5857 94.0423 73.7593 93.7783 73.9636L93.7823 74.7113L90.9381 76.5797L90.5562 76.2461C90.3716 76.3076 90.1784 76.4696 90.015 76.5777L88.9877 77.2579L88.9887 77.9414C88.6335 78.1232 88.2934 78.3694 87.9589 78.5873L86.2639 79.6855L79.4796 84.0595L79.2645 83.9086L69.9789 77.9296L69.9794 77.136C69.8498 76.985 69.5275 76.851 69.3521 76.7385L68.3122 76.0396L67.5938 76.5243L65.2745 75.0479L65.2762 73.9144L57.0346 68.6557L57.0306 67.5734L52.2617 64.4655L52.2618 44.5629L57.2838 41.2584L57.2789 40.1321L65.2003 34.9383L65.1979 34.0801L68.3315 32.1102L68.3288 32.8951L69.9707 31.8193L69.9635 30.991L79.4788 24.7294Z" fill="black"/>
<path d="M68.7673 44.0106C68.8617 44.0065 68.8971 44.0316 68.9702 44.0837C69.0059 44.1669 69.0421 44.2374 68.9991 44.3279C68.9557 44.4194 68.9076 44.4284 68.8202 44.4667C68.7856 44.4647 68.7683 44.465 68.7325 44.4555C68.6427 44.4314 68.6065 44.3846 68.5562 44.3121C68.561 44.2678 68.5642 44.2101 68.5818 44.1692C68.623 44.0737 68.6786 44.0478 68.7673 44.0106Z" fill="#786705"/>
<path d="M93.8066 44.6443L94.5422 45.0547L94.5388 49.8732C94.4856 49.4026 94.5225 48.8856 94.5206 48.4093L94.5139 45.3974L93.9691 44.8704C93.9074 44.8164 93.8548 44.7786 93.8249 44.6992L93.8066 44.6443Z" fill="#36B68D"/>
<path d="M85.2344 39.9659L85.8898 39.5138L86.7276 40.0029C86.5355 40.1317 86.3068 40.3314 86.0998 40.4226L85.2344 39.9659Z" fill="#36B68D"/>
<path d="M89.0488 34.0108C89.0461 33.7461 88.9976 33.393 89.0541 33.139L90.3872 34.03L90.3877 34.8555L89.0488 34.0108Z" fill="#DB4853"/>
<path d="M77.2868 49.945L77.9213 49.9364L76.5655 51.1616L76.231 51.4218L76.2339 49.9608L77.2868 49.945Z" fill="#1A1A1A"/>
<path d="M87.4121 41.4611L88.1677 40.9915L89.4684 41.8369L88.9288 42.212C88.8585 42.2595 88.7762 42.3327 88.6999 42.3631C88.5764 42.2591 88.4081 42.1839 88.2696 42.0971C87.9713 41.9101 87.664 41.7074 87.4121 41.4611Z" fill="#26D0C5"/>
<path d="M91.0718 43.8545L91.8263 43.4044L93.2714 44.3166L92.5891 44.7746L91.0718 43.8545Z" fill="#26D0C5"/>
<path d="M58.3862 58.6078L59.4987 57.8531L59.499 59.1142C59.1568 59.3993 58.7494 59.6017 58.3876 59.8615L58.3862 58.6078Z" fill="#807B0A"/>
<path d="M58.3657 48.962L59.5007 49.6729L59.4989 51.1063C59.3742 51.018 58.3408 50.3713 58.3262 50.3366C58.3876 50.2251 58.3605 50.03 58.3611 49.9005L58.3657 48.962Z" fill="#807B0A"/>
<path d="M89.0972 42.588C89.3416 42.4359 89.6192 42.2095 89.8771 42.0972L91.4247 43.1023L90.6515 43.638C90.1224 43.3355 89.5463 42.9989 89.0972 42.588Z" fill="#26D0C5"/>
<path d="M100.735 60.1457L99.4416 59.3506L99.4375 57.9084L100.768 58.7919C100.707 58.9043 100.731 59.0785 100.731 59.2057L100.735 60.1457Z" fill="#807B0A"/>
<path d="M100.754 50.1972L99.4458 51.0839L99.4522 49.6977C99.5255 49.5957 99.6956 49.5119 99.801 49.4418L100.748 48.8127L100.754 50.1972Z" fill="#959D0C"/>
<path d="M89.0488 34.0107L90.3877 34.8555L90.3872 34.03C90.455 34.1867 90.4167 34.5306 90.4173 34.7077L90.4171 36.4952L89.0511 35.641L89.0488 34.0107Z" fill="#A73146"/>
<path d="M86.8193 74.4701L86.8252 72.4067L87.6449 71.862C87.717 71.8153 87.8353 71.7146 87.9161 71.7083C87.9142 72.4552 87.9953 77.1456 87.9137 77.2888L87.907 73.775L86.8193 74.4701Z" fill="#786705"/>
<path d="M76.2246 55.5151L78.5816 55.5148L77.5137 56.4104L76.2303 57.5505L76.2246 55.5151Z" fill="#1A1A1A"/>
<path d="M71.1155 77.2915C71.0682 77.1892 71.0901 77.0282 71.0897 76.9139L71.0873 76.0451L71.0926 71.6829L72.2082 72.4106L72.2172 74.7502L71.4988 74.2618C71.3777 74.1823 71.2516 74.0832 71.119 74.0248L71.1155 77.2915Z" fill="#786705"/>
<path d="M66.3662 70.7762L66.3915 68.5815L67.5589 69.3723L67.5706 73.7333L67.57 74.7537C67.5697 74.8904 67.5943 75.0721 67.5306 75.1943L67.5414 71.6059L66.3662 70.7762Z" fill="#786705"/>
<path d="M91.4321 71.4933L91.4388 70.1237C91.4402 69.8753 91.4227 69.6137 91.4598 69.3688C91.8646 69.0845 92.2832 68.7675 92.7236 68.5437L92.7276 71.5213C92.7244 71.8738 92.762 72.2843 92.7085 72.6302C92.6836 72.3948 92.6997 72.1473 92.7001 71.9105L92.7033 70.6512L91.4321 71.4933Z" fill="#786705"/>
<path d="M68.6738 72.3155L68.6797 70.1011L69.9884 70.9448L70.0112 75.8123L69.978 75.8388L69.9502 75.8282C70.0225 75.7121 69.987 75.4361 69.9863 75.2985L69.9823 73.7955C69.9821 73.6198 70.0145 73.3699 69.9788 73.2013C69.969 73.1548 69.961 73.1575 69.9275 73.1354L68.6738 72.3155Z" fill="#5C1B2B"/>
<path d="M88.9863 73.1289L88.9875 70.9404C89.1208 70.8546 90.3388 70.0394 90.353 70.0408L90.3439 73.9766L90.3435 74.7041C90.3441 74.8046 90.3622 74.9435 90.3283 75.0369C90.2908 74.737 90.3163 74.402 90.3167 74.0987L90.3214 72.2407L88.9863 73.1289Z" fill="#5C1B2B"/>
<path d="M68.6738 72.3154L69.9275 73.1353C69.961 73.1574 69.969 73.1547 69.9788 73.2012C70.0145 73.3698 69.9821 73.6197 69.9823 73.7955L69.9863 75.2984C69.987 75.436 70.0225 75.7121 69.9502 75.8282L68.6767 75.0118L68.6738 72.3154Z" fill="#A73146"/>
<path d="M71.1157 77.2915L71.1193 74.0248C71.2518 74.0832 71.3779 74.1823 71.4991 74.2619L72.2175 74.7502L72.2192 78.0329C71.8622 77.8044 71.4263 77.5747 71.1157 77.2915Z" fill="#F8B42F"/>
<path d="M88.9863 73.1289L90.3214 72.2407L90.3167 74.0987C90.3163 74.402 90.2908 74.7371 90.3283 75.037C90.222 75.1577 90.0494 75.2537 89.9147 75.346L88.9868 75.9737L88.9863 73.1289Z" fill="#A73146"/>
<path d="M86.8197 74.4701L87.9074 73.775L87.9141 77.2888L86.8169 77.9831L86.8197 74.4701Z" fill="#F8B42F"/>
<path d="M67.459 33.8529L67.4346 37.2537C67.3269 37.3594 67.1696 37.4382 67.0412 37.5209L66.3129 37.9947C66.2594 37.673 66.3027 37.2761 66.3024 36.9474L66.2999 34.5911L67.459 33.8529Z" fill="#F8B42F"/>
<path d="M69.9445 33.1019L69.9991 33.0608C70.0433 33.3356 70.0111 33.6464 70.0096 33.9258L70.0056 35.5843L68.4223 36.5966L68.4247 35.5433C68.425 35.4158 68.4022 35.2354 68.4274 35.1132L68.4288 34.1297L69.9445 33.1019Z" fill="#5C1B2B"/>
<path d="M69.9443 33.1019C70.0472 33.3114 69.9834 33.8715 69.9819 34.1216L68.9445 34.7927C68.8013 34.8899 68.5918 35.0849 68.4272 35.1132L68.4286 34.1297L69.9443 33.1019Z" fill="#DB4853"/>
<path d="M91.4462 33.9141C91.8631 34.1252 92.2669 34.4551 92.655 34.7186L92.6483 37.9599L91.4592 37.1714C91.4011 36.8872 91.4439 36.5065 91.4434 36.212L91.4462 33.9141Z" fill="#F8B42F"/>
<path d="M81.9168 65.5409L83.869 67.5278C83.7749 67.6918 82.9319 68.2181 82.7039 68.3688L80.7407 66.3758C80.8587 66.2514 81.021 66.1534 81.1616 66.0554L81.9168 65.5409Z" fill="#26D0C5"/>
<path d="M84.1517 63.9895L86.1375 66.0665L84.8978 66.9007L82.9321 64.8179C83.0621 64.6942 83.2303 64.5987 83.38 64.4992L84.1517 63.9895Z" fill="#26D0C5"/>
<path d="M86.2604 62.4822L86.3492 62.4733L88.3397 64.566C88.3077 64.6331 88.1218 64.732 88.0543 64.7778L87.2282 65.3445L87.133 65.3886L85.147 63.2997L86.2604 62.4822Z" fill="#26D0C5"/>
<path d="M66.3661 70.7762L67.5412 71.6059L67.5305 75.1943C67.4059 75.1603 67.2595 75.0488 67.1489 74.98L66.3594 74.4722L66.3661 70.7762Z" fill="#F8B42F"/>
<path d="M91.4322 71.4932L92.7033 70.6511L92.7002 71.9104C92.6997 72.1473 92.6836 72.3947 92.7086 72.6301L92.7111 74.0913L91.4312 74.9659L91.4322 71.4932Z" fill="#F8B42F"/>
<path d="M88.4829 60.9588L88.5748 60.9479L90.5897 63.0465L89.4182 63.8349L89.3383 63.8769C89.1093 63.73 88.8654 63.3951 88.674 63.1906L87.3164 61.7384L88.4829 60.9588Z" fill="#26D0C5"/>
<path d="M92.8652 57.8132L95.0409 60.0778L93.9249 60.8464L93.8297 60.8915L91.7295 58.6577L92.8652 57.8132Z" fill="#26D0C5"/>
<path d="M90.7407 59.3578L92.8672 61.5421L91.6397 62.3837L91.5795 62.3895L89.4937 60.2116L90.7407 59.3578Z" fill="#26D0C5"/>
<path d="M98.5653 64.6929L99.4533 64.1093L99.4265 60.5185L99.4514 60.5131L100.711 61.3268L100.708 61.3616L100.701 64.2694L100.169 64.6597C100.125 64.6934 100.021 64.7966 99.9723 64.8114C99.9105 64.8301 99.7623 64.8054 99.6886 64.8031L98.6027 64.7501L98.6016 65.4534C98.5121 65.3212 98.5645 64.8655 98.5653 64.6929Z" fill="#A73146"/>
<path d="M100.735 60.1457L100.731 59.2057C100.731 59.0785 100.707 58.9044 100.768 58.7919L104.491 61.2322C104.425 61.6564 104.516 62.1139 104.438 62.5237L100.735 60.1457Z" fill="#F8B42F"/>
<path d="M104.472 46.4141L104.479 47.3147C104.48 47.451 104.462 47.6248 104.503 47.7531L100.754 50.1971L100.748 48.8127L104.472 46.4141Z" fill="#F8B42F"/>
<path d="M59.5143 42.8226L59.5322 48.4878L58.3081 47.723L58.3265 43.5494C58.7046 43.304 59.1035 43.0054 59.5143 42.8226Z" fill="#5C1B2B"/>
<path d="M77.5342 36.5364L78.7358 35.7399C78.9423 35.6007 79.2124 35.3691 79.4471 35.2977L85.1255 39.0042L84.3673 39.5022L80.7552 37.0585L80.6409 37.0882C80.4754 36.9863 80.327 36.8263 80.1819 36.6967C79.9087 36.4525 79.637 36.2051 79.3417 35.9875L78.159 37.0046C78.0242 36.7465 77.7824 36.6556 77.5342 36.5364Z" fill="#36B68D"/>
<path d="M99.4582 42.665C99.9017 42.8672 100.308 43.2005 100.723 43.4577L100.734 47.6043C100.713 47.6589 99.5932 48.3526 99.4448 48.4502L99.4582 42.665Z" fill="#A73146"/>
<path d="M58.3101 51.3286L59.4947 52.1107L59.4939 55.3919L59.495 56.3337C59.4952 56.495 59.5093 56.6711 59.4858 56.8304L58.3037 57.6207L58.3101 51.3286Z" fill="#279478"/>
<path d="M100.703 57.8334L99.4575 57.065L99.457 52.0131L100.73 51.1466L100.703 57.8334Z" fill="#279478"/>
<path d="M82.9619 50.4781L84.6215 50.4707L84.6131 56.5942L82.9753 56.5953L82.9619 50.4781Z" fill="#DDE0D6"/>
<path d="M94.5384 49.8731L94.549 57.6305L93.7176 56.8319L93.7111 46.7936L93.7087 45.3118C93.7069 45.1072 93.6599 44.7667 93.7242 44.5818L93.8063 44.6442L93.8245 44.6992C93.8545 44.7786 93.907 44.8163 93.9688 44.8704L94.5136 45.3974L94.5203 48.4093C94.5221 48.8856 94.4852 49.4026 94.5384 49.8731Z" fill="#61E1B7"/>
<path d="M98.5652 64.693C98.5643 64.8655 98.5119 65.3212 98.6014 65.4534L99.6406 66.0979L95.8639 68.6166L94.4846 69.5295C94.2636 69.6729 94.0355 69.8451 93.8006 69.9604L93.7827 67.8786C93.8723 67.7555 94.1008 67.6436 94.2297 67.5581L95.3913 66.7925L98.5652 64.693Z" fill="#5C1B2B"/>
<path d="M92.1285 56.5471L92.1768 56.5736L92.3184 57.3549C92.2875 57.4452 89.5386 59.3099 89.2062 59.5416L85.1228 62.4187L80.2088 65.8846L79.9573 65.6859L79.5195 65.3423L92.1285 56.5471Z" fill="#61E1B7"/>
<path d="M73.3378 78.7808C73.296 78.6363 73.3123 78.4717 73.3119 78.3218L73.3102 77.4646L73.3427 73.2134L79.2889 77.0733L79.2854 79.1935C79.0946 79.0963 78.9192 78.9597 78.7395 78.8429L77.6354 78.1194L73.3418 75.3646L73.3378 78.7808Z" fill="#5C1B2B"/>
<path d="M79.6562 79.2551L79.6659 77.1263L85.7204 73.1537L85.7224 75.2541L81.2799 78.1757L80.2185 78.8927C80.0365 79.0154 79.8538 79.1593 79.6562 79.2551Z" fill="#5C1B2B"/>
<path d="M92.5891 44.7746L90.6492 46.1011L87.4625 48.2731L86.4401 48.9598C86.3477 49.0193 86.215 49.1303 86.1172 49.1654C85.95 49.2252 85.5831 49.182 85.3934 49.1835L83.2725 49.1991L91.0718 43.8545L92.5891 44.7746Z" fill="#07D8E9"/>
<path d="M58.2876 61.1689L59.4738 60.3041L59.4562 62.8244C59.4511 63.2145 59.3997 63.6622 59.4501 64.047L63.7484 66.8493L64.7874 67.5261C64.9553 67.6359 65.1802 67.755 65.3089 67.9052L65.2953 70.0927L59.4166 66.2851L59.4145 65.1954L58.2695 64.4468L58.2876 61.1689Z" fill="#5C1B2B"/>
<path d="M90.6513 43.638L84.5642 47.7865L83.0317 48.8325C82.8911 48.9271 82.7078 49.0902 82.5552 49.1536C82.465 49.191 79.8816 49.1479 79.6152 49.1469L89.097 42.588C89.5461 42.999 90.1222 43.3356 90.6513 43.638Z" fill="#07D8E9"/>
<path d="M88.7 42.3631L86.2448 44.0422L83.0575 46.2347L79.8613 48.4503L79.1551 48.9429C79.0788 48.9957 78.9278 49.1194 78.8411 49.1419C78.6979 49.1792 78.4227 49.1429 78.2674 49.1434L76.561 49.161C77.5167 48.2318 78.6966 47.5707 79.776 46.799L84.8864 43.217L87.4122 41.4611C87.664 41.7074 87.9713 41.9101 88.2697 42.0971C88.4082 42.1839 88.5764 42.2591 88.7 42.3631Z" fill="#07D8E9"/>
<path d="M104.472 46.4141L105.696 45.6162L105.673 63.3755C105.538 63.3318 105.391 63.1863 105.272 63.1022L104.438 62.5237C104.516 62.1139 104.425 61.6564 104.491 61.2322C104.55 61.0272 104.512 60.7116 104.513 60.4951L104.515 58.6392L104.526 51.82L104.528 49.1367C104.528 48.6897 104.571 48.1919 104.503 47.7531C104.462 47.6249 104.48 47.451 104.479 47.3148L104.472 46.4141Z" fill="#B6881A"/>
<path d="M73.2425 65.5278C73.6768 65.4941 74.1188 65.5101 74.5543 65.5098L76.8497 65.5066C76.991 65.5053 77.2876 65.4462 77.4136 65.4828C77.5163 65.5127 77.7073 65.6959 77.8029 65.767L80.1279 67.63L81.6172 69.0123L80.0077 70.0825C79.8558 70.1792 79.6406 70.3556 79.4721 70.4055L72.8877 66.1601L72.9596 65.7517C73.0488 65.66 73.1323 65.5929 73.2425 65.5278Z" fill="#DDE0D6"/>
<path d="M73.3379 78.7807L73.3419 75.3645L77.6356 78.1193L78.7397 78.8428C78.9193 78.9596 79.0947 79.0962 79.2855 79.1934L79.2989 82.6395L75.1574 79.9785L73.9946 79.2326C73.7742 79.0904 73.5341 78.9552 73.3379 78.7807Z" fill="#A73146"/>
<path d="M79.656 79.2551C79.8536 79.1594 80.0363 79.0155 80.2183 78.8928L81.2796 78.1758L85.7222 75.2542L85.7251 78.7428L79.6519 82.6589L79.656 79.2551Z" fill="#DB4853"/>
<path d="M91.7136 47.6921C91.7613 47.6942 91.7361 47.6873 91.7852 47.7239L91.7878 48.7423C91.788 48.8015 91.8081 48.9791 91.7885 49.0274C91.7685 49.0768 91.5802 49.2229 91.5313 49.269L90.5978 50.1586L86.5426 54.0791C86.7485 54.2801 88.5624 55.8163 88.6911 55.8262C88.8728 55.8401 89.4654 55.2512 89.6758 55.1937C89.8074 55.1576 90.0935 55.1991 90.2377 55.1995L91.7273 55.1908L89.9722 56.7811L88.7725 57.896C88.6004 57.7875 88.4412 57.6396 88.2827 57.5117L87.2686 56.6801C86.6061 56.1367 85.9126 55.6258 85.2792 55.0484L85.2769 52.5428L91.7136 47.6921Z" fill="#DDE0D6"/>
<path d="M87.3438 40.551C87.4768 40.5336 87.5543 40.6134 87.6649 40.6822C87.4971 40.8536 87.2037 41.0114 87.0018 41.1499L85.4003 42.2678L79.9512 46.0328L76.8658 48.1844C76.6851 48.3218 76.5387 48.4886 76.3667 48.6344C75.2361 49.5928 74.1966 50.6845 73.1451 51.7292L68.32 56.7082C67.6099 57.4656 66.8695 58.1858 66.211 58.9908L66.1116 59.1117L66.0802 59.102L66.0767 55.432C66.8686 54.9624 67.6079 54.3447 68.3665 53.8176L75.9454 48.372L80.7461 45.0808L83.7329 42.9999L86.4027 41.1787C86.7257 40.9576 87.0445 40.8152 87.3438 40.551Z" fill="#1A1A1A"/>
<path d="M100.73 51.1466L103.636 49.2489L103.64 59.6883L100.703 57.8333L100.73 51.1466Z" fill="#36B68D"/>
<path d="M102.172 51.1721C102.347 51.165 102.486 51.1606 102.652 51.2249C102.834 51.2958 102.988 51.4452 103.057 51.63C103.122 51.8019 103.132 52.0221 103.053 52.1911C102.946 52.4196 102.738 52.5436 102.513 52.6325C102.38 52.6571 102.261 52.6616 102.129 52.6224C101.938 52.5657 101.757 52.4177 101.669 52.2379C101.581 52.0585 101.566 51.854 101.636 51.6663C101.73 51.4166 101.939 51.2765 102.172 51.1721Z" fill="black"/>
<path d="M102.174 56.2179C102.301 56.2104 102.419 56.2076 102.542 56.2449C102.754 56.3093 102.965 56.4887 103.062 56.688C103.141 56.8511 103.159 57.0128 103.09 57.1821C102.986 57.4395 102.799 57.5709 102.55 57.6709C102.387 57.6997 102.244 57.7111 102.085 57.6543C101.89 57.5847 101.721 57.4309 101.645 57.237C101.56 57.0163 101.586 56.8042 101.691 56.5954C101.8 56.3801 101.951 56.2899 102.174 56.2179Z" fill="black"/>
<path d="M58.3037 57.6207L56.9353 58.5374C56.3978 58.9079 55.8523 59.3417 55.2742 59.6439L55.2725 49.3574L58.3101 51.3286L58.3037 57.6207Z" fill="#61E1B7"/>
<path d="M56.5535 51.1199L56.6644 51.0897C56.9468 51.1802 57.2705 51.4235 57.5151 51.5922L57.5417 52.5548L56.7914 53.0326L56.7402 53.054C56.738 53.0546 56.6549 53.0689 56.6485 53.0681C56.5941 53.0605 56.4683 52.9676 56.4146 52.9352C56.2175 52.8164 56.0238 52.6995 55.8174 52.5974L55.8195 51.5239L56.5535 51.1199Z" fill="black"/>
<path d="M56.6362 55.8584C56.947 55.9958 57.2395 56.2097 57.5246 56.3948L57.5269 57.4289L56.7276 57.8741L56.6324 57.9011C56.3456 57.7707 56.0826 57.5963 55.8227 57.4197C55.7846 57.086 55.8183 56.7067 55.8209 56.3686L56.6362 55.8584Z" fill="black"/>
<path d="M92.9914 45.1531L93.0446 45.1704L93.0139 56.0393L92.973 56.0463C92.9 55.9179 92.8348 55.8383 92.6935 55.7851C92.5286 55.723 92.2989 55.6779 92.1351 55.7544L91.9558 55.8284C92.1868 55.5327 92.5875 55.3492 92.8461 55.0632C92.8558 54.9488 92.8638 54.8321 92.8315 54.7203C92.7943 54.5915 92.7078 54.5051 92.5922 54.4457L90.5292 54.4478C90.2155 54.4494 89.7485 54.3885 89.4532 54.4841C89.1774 54.5735 88.9987 54.8509 88.741 54.9636L87.6893 54.0585C87.8069 53.8857 87.9903 53.7293 88.136 53.5783L89.501 52.2427L92.1233 49.7524L92.1571 49.7201C92.2815 49.5987 92.576 49.3041 92.5717 49.1261L92.573 47.5407C92.5736 47.3367 92.6083 47.0466 92.5576 46.8498C92.5252 46.7239 92.4197 46.6379 92.3104 46.5813C92.1457 46.5708 91.9925 46.5581 91.8463 46.6482C91.5717 46.8176 91.3167 47.0675 91.0522 47.2601L88.9308 48.7902L86.4032 50.6366L85.2091 51.4877L85.1973 49.8938C85.4734 49.894 85.8674 49.9379 86.1281 49.8518C86.292 49.7977 86.4756 49.6239 86.6179 49.5224L87.5616 48.8733L92.9914 45.1531Z" fill="#1A1A1A"/>
<path d="M66.122 44.1324L66.9096 43.6127C67.0769 43.7637 67.299 43.9298 67.4344 44.1068L67.2622 44.2462L68.5564 45.44L68.5483 45.4845C68.4535 46.0379 68.5109 46.6919 68.5093 47.2572L68.5235 50.4242L68.0542 50.7549L64.6499 53.0943L64.6662 45.0862L66.122 44.1324Z" fill="#36B68D"/>
<path d="M66.6821 44.6031C66.7231 44.5819 66.7011 44.5896 66.7598 44.5819C66.8275 44.573 66.8253 44.5569 66.8672 44.5025C66.9625 44.3786 67.1214 44.3107 67.2619 44.2462L68.5561 45.44L68.548 45.4845C68.4532 46.0378 68.5106 46.6919 68.509 47.2572L68.5232 50.4242L68.0539 50.7548C67.9954 50.2331 68.0393 49.6624 68.0391 49.1359L68.0141 45.8673L66.6821 44.6031Z" fill="#61E1B7"/>
<path d="M58.3875 59.8615L53.3135 63.3246L53.3212 45.7485L58.3655 48.962L58.361 49.9005C58.3603 50.03 58.3874 50.2251 58.326 50.3366L54.4254 47.7606L54.4208 61.2598L56.8868 59.5961C57.3726 59.2715 57.8644 58.8683 58.3861 58.6077L58.3875 59.8615Z" fill="#F8B42F"/>
<path d="M99.4581 42.665L99.4541 42.3622C98.7656 41.8561 98.0184 41.3995 97.2973 40.9401L94.902 39.3835L94.0899 38.8568C93.9727 38.7798 93.8049 38.6878 93.7193 38.5762L93.7148 36.9294C93.7143 36.6969 93.6814 36.4051 93.726 36.1804L100.659 40.7177L100.668 41.8074L105.132 44.7463L105.134 44.7742L100.734 47.6043L100.723 43.4576C100.308 43.2005 99.9016 42.8672 99.4581 42.665Z" fill="#DB4853"/>
<path d="M58.3083 47.723L53.7432 44.8077L58.2843 41.832L58.2937 40.7166L65.2811 36.1302L65.2704 38.68L59.5059 42.3949L59.5145 42.8226C59.1037 43.0055 58.7048 43.304 58.3267 43.5494L58.3083 47.723Z" fill="#DB4853"/>
<path d="M78.3611 50.47L82.268 50.4864L82.2661 51.9817C81.8728 51.9834 79.2098 51.9452 79.0797 52.0201C78.8951 52.1266 78.7223 52.3008 78.5621 52.4422C78.2687 52.7013 77.9827 52.9624 77.6615 53.1872L82.2843 53.1911L82.2641 55.0237C82.2633 55.0582 82.2688 55.1849 82.2551 55.2067C82.1903 55.3092 82.0005 55.4403 81.907 55.5257L80.389 56.8731L78.3406 58.7479L76.1409 60.7183L76.139 58.5426L80.367 54.748L76.0015 54.7473L75.9995 52.4914L78.3611 50.47Z" fill="#DDE0D6"/>
<path d="M65.2957 70.0927L65.2863 72.6616L58.1476 68.0441L58.1443 67.0821C58.1285 67.023 54.2106 64.4911 53.8076 64.2264L58.288 61.1689L58.27 64.4468L59.4149 65.1954L59.417 66.2851L65.2957 70.0927Z" fill="#A73146"/>
<path d="M85.2341 39.9659L86.0995 40.4226L65.2778 54.8516L65.29 60.3639L65.3276 60.3801C65.6738 60.5348 65.9973 60.7828 66.3154 60.9889L67.7689 61.9197L70.8474 63.9139C71.3973 64.2741 71.971 64.6206 72.4968 65.0147C72.7414 65.168 73.0355 65.3255 73.2425 65.5278C73.1324 65.5929 73.0489 65.66 72.9597 65.7516L72.8878 66.1601L71.982 65.5918C71.8695 65.5682 71.7031 65.4303 71.5982 65.364L70.4128 64.5976L64.481 60.8074L64.4512 54.5409C64.6629 54.334 64.9346 54.1691 65.1775 53.9997L66.4049 53.1339L71.2785 49.6353L81.4218 42.5636L83.9489 40.8342C84.371 40.5449 84.7908 40.2211 85.2341 39.9659Z" fill="#61E1B7"/>
<path d="M100.71 61.3268L105.155 64.2459L101.893 66.4001L101.237 66.8343C101.12 66.9103 100.97 66.9875 100.875 67.0885L100.875 67.9774L93.8086 72.6551L93.8003 69.9604C94.0353 69.8451 94.2633 69.6728 94.4843 69.5295L95.8637 68.6166L99.6403 66.0979L98.6011 65.4534L98.6022 64.7501L99.6882 64.8031C99.7619 64.8054 99.9101 64.8301 99.9719 64.8114C100.02 64.7967 100.125 64.6935 100.169 64.6597L100.701 64.2694L100.707 61.3616L100.71 61.3268Z" fill="#DB4853"/>
<path d="M75.3547 50.9612C75.3908 50.9684 75.3699 50.9611 75.4129 50.9929L75.434 60.5748L73.777 60.5907L73.7827 54.6423L70.7068 57.6737L73.075 57.6725L73.0729 58.8115L73.0672 59.1679L69.2484 59.1641L68.2485 60.1849C67.8712 60.2336 67.4554 60.2011 67.074 60.2021C66.8319 60.2027 66.3044 60.2647 66.1079 60.1335C66.1127 60.1054 66.1111 60.0752 66.1223 60.0489C66.1464 59.9926 66.2669 59.894 66.3123 59.8461L67.107 59.0292L73.7165 52.5161L75.3547 50.9612Z" fill="#DDE0D6"/>
<path d="M66.9092 43.6127L69.2371 42.0747C69.338 42.0904 69.4182 42.1734 69.4962 42.235L69.8598 42.555L79.9663 42.5774L68.8985 50.1655L68.8858 46.3137L68.8818 45.7356C68.8807 45.696 68.8637 45.5916 68.8752 45.5634C68.8959 45.5129 69.0447 45.3907 69.0911 45.344L70.3129 44.1892L69.4028 43.3786C69.2531 43.2477 69.021 43.0873 68.9253 42.917C68.7579 42.9457 68.5951 43.1228 68.4649 43.2302C68.1199 43.5149 67.7576 43.7982 67.4339 44.1068C67.2985 43.9298 67.0765 43.7637 66.9092 43.6127Z" fill="#61E1B7"/>
<path d="M60.7464 42.9565C60.7609 42.9831 60.7679 43.0156 60.7901 43.0363C60.8566 43.0985 61.0103 43.1569 61.0938 43.2036L61.8213 43.6255L62.9276 44.3002C63.0841 44.3973 63.2396 44.5273 63.4083 44.6C63.3514 45.0323 63.388 45.5211 63.3859 45.9591L63.3747 48.6505L63.3516 58.0117L63.3462 60.2995C63.3454 60.5685 63.3914 60.9565 63.3291 61.2151C63.0908 61.3413 62.8758 61.5123 62.6559 61.6677L61.1987 62.6967C61.0516 62.7931 60.8172 62.9722 60.6499 63.0122L60.6681 43.0266L60.7464 42.9565Z" fill="#A2A799"/>
<path d="M98.1005 42.7794L98.3574 42.9683L98.3487 62.9462C98.0047 62.8014 97.6459 62.5383 97.3256 62.3411L95.3931 61.122C95.5682 60.7357 95.8442 60.3846 96.053 60.0136C95.9614 59.9336 95.6928 59.684 95.6592 59.5806C95.6253 59.4764 95.6602 59.219 95.6604 59.1027L95.6614 57.2997L95.6543 48.5675L95.6566 45.731L95.6572 44.9054C95.6572 44.7822 95.6742 44.6502 95.6269 44.5344C95.659 44.5127 95.6865 44.4914 95.7126 44.4627C95.9101 44.246 96.2159 44.0958 96.4611 43.9363L97.4307 43.2896C97.6596 43.1414 97.9357 43.0026 98.1005 42.7794Z" fill="#A2A799"/>
<path d="M78.1589 37.0047L79.3416 35.9875C79.6369 36.2052 79.9087 36.4526 80.1819 36.6968C80.3269 36.8264 80.4754 36.9864 80.6409 37.0883L80.7552 37.0586L84.3673 39.5022L80.368 42.2095L73.0724 42.1959L70.7915 42.2029C70.6181 42.2026 70.3163 42.2426 70.1543 42.1999C70.0165 42.1635 69.765 41.9024 69.6484 41.8046L77.5341 36.5365C77.7823 36.6557 78.0241 36.7466 78.1589 37.0047Z" fill="#61E1B7"/>
<path d="M78.1588 37.0047L79.3415 35.9875C79.6368 36.2052 79.9086 36.4526 80.1818 36.6968C80.3268 36.8264 80.4753 36.9864 80.6408 37.0883C80.7002 37.1445 80.7906 37.2026 80.8099 37.282L79.3571 38.6603L77.8408 37.306C77.8973 37.1982 78.0648 37.0873 78.1588 37.0047Z" fill="black"/>
<path d="M79.2771 37.0281L79.3889 37.0099C79.4429 37.0334 79.4905 37.0506 79.5309 37.095C79.5926 37.1628 79.6088 37.2227 79.5983 37.3138C79.5882 37.401 79.5481 37.4351 79.4841 37.4877C79.3911 37.4942 79.3313 37.4902 79.2414 37.466C79.1669 37.3833 79.1439 37.3491 79.1519 37.2344C79.1589 37.134 79.2116 37.0939 79.2771 37.0281Z" fill="#786705"/>
<path d="M79.455 26.0203C79.6636 26.0979 79.8803 26.2721 80.0678 26.3952L81.2878 27.1937L87.9793 31.6076L87.9803 34.8714C87.8519 34.8819 84.2164 32.4421 83.8591 32.2081L79.6394 29.4573L79.4841 29.3346C79.2299 29.4593 78.985 29.6614 78.7481 29.8185L77.2157 30.8214L71.0654 34.8597L71.0625 31.5858L79.455 26.0203Z" fill="#F8B42F"/>
<path d="M60.6499 63.0122C60.8172 62.9722 61.0516 62.7932 61.1987 62.6968L62.6559 61.6678C62.8758 61.5123 63.0908 61.3414 63.3291 61.2152C63.3418 61.3056 63.3266 61.3639 63.4026 61.4211L78.9046 71.4637L78.9068 75.4062L60.6502 63.4328L60.6499 63.0122Z" fill="#3E5E65"/>
<path d="M95.3929 61.1219L97.3255 62.3411C97.6457 62.5383 98.0045 62.8013 98.3485 62.9462L98.3344 63.421L80.1396 75.3762L80.1353 71.4661L95.1183 61.4589C95.2499 61.3786 95.2974 61.3023 95.3683 61.1689L95.3929 61.1219Z" fill="#3E5E65"/>
<path d="M85.2681 56.1947C85.4862 56.3024 85.6972 56.5265 85.8896 56.6796L87.8601 58.2692L78.1391 65.0771C78.0183 64.9778 77.7483 64.7129 77.6042 64.6851C77.3396 64.6342 76.9573 64.6832 76.6824 64.6835L74.1809 64.6943L73.6818 64.7048C73.6314 64.706 73.514 64.7224 73.4694 64.7104C73.4056 64.6931 73.285 64.5934 73.2247 64.555L72.4302 64.0406L70.1511 62.5576L68.4798 61.4748C68.1756 61.2807 67.8707 61.0555 67.5457 60.8999L67.52 60.8878L68.2856 60.9017C68.3803 60.9011 68.5157 60.9115 68.6072 60.8906C68.7393 60.8605 69.4461 60.0722 69.5816 59.9348C69.922 59.8982 70.3006 59.9582 70.6477 59.9618L73.0186 59.9606L73.0018 61.3786L75.7209 61.3889L76.2635 61.3914C76.3261 61.3917 76.4417 61.4082 76.4999 61.3925C76.6817 61.3436 77.9655 60.1064 78.1792 59.9157L80.7539 57.6586L82.2911 56.2624L82.3223 57.3619L85.2712 57.3568L85.2681 56.1947Z" fill="#1A1A1A"/>
<path d="M60.7466 42.9566C61.2727 42.4944 61.9589 42.132 62.5471 41.7492L66.0697 39.436L73.9781 34.2653L79.4854 30.656L98.1004 42.7793C97.9357 43.0025 97.6595 43.1413 97.4306 43.2896L96.461 43.9363C96.2158 44.0957 95.9101 44.2459 95.7125 44.4626C95.6864 44.4914 95.6589 44.5126 95.6268 44.5343L95.5724 44.5044L79.4412 33.9905L74.6117 37.1962L68.125 41.4863L64.9789 43.5661L63.9593 44.2451C63.7829 44.3623 63.5979 44.5064 63.4085 44.6C63.2398 44.5273 63.0843 44.3973 62.9278 44.3002L61.8215 43.6255L61.094 43.2036C61.0105 43.1569 60.8568 43.0985 60.7903 43.0363C60.7681 43.0157 60.7611 42.9832 60.7466 42.9566Z" fill="#DDE0D6"/>
</svg>
