<svg width="159" height="110" viewBox="0 0 159 110" fill="none" xmlns="http://www.w3.org/2000/svg">
<mask id="path-1-inside-1_117_5668" fill="white">
<path fill-rule="evenodd" clip-rule="evenodd" d="M118.5 12.6802C118.5 6.05276 113.127 0.680176 106.5 0.680176H12.5C5.87258 0.680176 0.5 6.05275 0.5 12.6802V97.0102C0.5 103.638 5.87258 109.01 12.5 109.01H146.5C153.127 109.01 158.5 103.638 158.5 97.0102V52.6802C158.5 46.0528 153.127 40.6802 146.5 40.6802H130.5C123.873 40.6802 118.5 35.3076 118.5 28.6802V12.6802Z"/>
</mask>
<path fill-rule="evenodd" clip-rule="evenodd" d="M118.5 12.6802C118.5 6.05276 113.127 0.680176 106.5 0.680176H12.5C5.87258 0.680176 0.5 6.05275 0.5 12.6802V97.0102C0.5 103.638 5.87258 109.01 12.5 109.01H146.5C153.127 109.01 158.5 103.638 158.5 97.0102V52.6802C158.5 46.0528 153.127 40.6802 146.5 40.6802H130.5C123.873 40.6802 118.5 35.3076 118.5 28.6802V12.6802Z" fill="white"/>
<path d="M12.5 1.68018H106.5V-0.319824H12.5V1.68018ZM1.5 97.0102V12.6802H-0.5V97.0102H1.5ZM146.5 108.01H12.5V110.01H146.5V108.01ZM157.5 52.6802V97.0102H159.5V52.6802H157.5ZM146.5 39.6802H130.5V41.6802H146.5V39.6802ZM119.5 28.6802V12.6802H117.5V28.6802H119.5ZM130.5 39.6802C124.425 39.6802 119.5 34.7553 119.5 28.6802H117.5C117.5 35.8599 123.32 41.6802 130.5 41.6802V39.6802ZM159.5 52.6802C159.5 45.5005 153.68 39.6802 146.5 39.6802V41.6802C152.575 41.6802 157.5 46.605 157.5 52.6802H159.5ZM146.5 110.01C153.68 110.01 159.5 104.19 159.5 97.0102H157.5C157.5 103.085 152.575 108.01 146.5 108.01V110.01ZM-0.5 97.0102C-0.5 104.19 5.3203 110.01 12.5 110.01V108.01C6.42487 108.01 1.5 103.085 1.5 97.0102H-0.5ZM106.5 1.68018C112.575 1.68018 117.5 6.60504 117.5 12.6802H119.5C119.5 5.50047 113.68 -0.319824 106.5 -0.319824V1.68018ZM12.5 -0.319824C5.3203 -0.319824 -0.5 5.50046 -0.5 12.6802H1.5C1.5 6.60504 6.42487 1.68018 12.5 1.68018V-0.319824Z" fill="#C2C2C2" mask="url(#path-1-inside-1_117_5668)"/>
<path d="M108.609 56.1986C108.622 56.5051 108.425 56.7924 108.321 57.0756L107.51 59.2025C107.421 59.414 107.169 59.725 107.172 59.9422L107.145 59.8981C107.065 59.6585 107.28 59.2396 107.361 59.0146C107.698 58.0825 108.083 57.0427 108.609 56.1986Z" fill="#484D51" stroke="black" stroke-linejoin="round"/>
<path d="M69.9324 68.3384L70.0592 68.3325C70.0747 68.3542 70.0952 68.3731 70.1057 68.3976C70.1161 68.4216 70.1053 68.5412 70.1053 68.5688L70.1033 69.2283L70.0821 72.9967L69.9999 73.0489C69.9437 73.0462 69.9052 73.0361 69.8517 73.0203C69.8146 72.4245 69.8836 71.7955 69.8915 71.1965L69.8957 69.2047C69.896 68.9394 69.8494 68.5894 69.9324 68.3384Z" fill="#1D1F20" stroke="black" stroke-linejoin="round"/>
<path d="M56.1172 49.1461L56.0362 49.0721L56.0278 48.0951L58.1571 48.093L58.1349 48.1563C58.0496 48.4208 58.1099 48.8623 58.1123 49.146L56.1172 49.1461Z" fill="#0DFCF0" stroke="black" stroke-linejoin="round"/>
<path d="M57.2062 50.7822L58.1399 50.7875C58.1398 51.0677 58.0726 51.574 58.1777 51.823L56.0298 51.825L56.021 50.7855L57.2062 50.7822Z" fill="#0DFCF0" stroke="black" stroke-linejoin="round"/>
<path d="M58.1518 53.4041L58.1463 53.4528L58.145 54.4662L56.0493 54.4594C55.987 54.2138 55.9756 53.653 56.0357 53.4088L58.1518 53.4041Z" fill="#0DFCF0" stroke="black" stroke-linejoin="round"/>
<path d="M56.0044 55.997L58.1435 55.9946L58.1455 57.0623L56.0068 57.0591L56.0044 55.997Z" fill="#0DFCF0" stroke="black" stroke-linejoin="round"/>
<path d="M58.1332 59.6693C57.9187 59.7084 57.6689 59.6837 57.4506 59.684L56.0102 59.6852L56.0063 58.6146L58.1653 58.6094C58.1043 58.9482 58.1336 59.3248 58.1332 59.6693Z" fill="#0DFCF0" stroke="black" stroke-linejoin="round"/>
<path d="M65.222 73.6156L66.6633 73.6078L60.6729 76.1737C60.2827 76.3163 59.9236 76.5094 59.5205 76.6211C59.6908 76.4929 59.8909 76.4049 60.078 76.3037L61.2951 75.6642L62.5751 74.9128L63.9342 74.2092C64.3481 73.9965 64.7798 73.7607 65.222 73.6156Z" fill="#1D1F20" stroke="black" stroke-linejoin="round"/>
<path d="M55.5386 51.6383C55.4842 51.024 55.5397 50.3752 55.5387 49.756L55.5295 48.335C55.5305 48.1338 55.5056 47.9007 55.5688 47.71L55.5589 49.4062H58.183C58.1894 49.7355 58.1253 50.2032 58.2003 50.5131L55.567 50.4806C55.5626 50.854 55.5958 51.2713 55.5386 51.6383Z" fill="#2E3032" stroke="black" stroke-linejoin="round"/>
<path d="M59.7334 67.7549L61.5911 69.7318L59.8631 71.3395L59.7334 67.7549Z" fill="url(#paint0_linear_117_5668)" stroke="black" stroke-linejoin="round"/>
<path d="M49.0962 72.7057L51.3212 72.6924L51.3089 75.0289L49.1305 75.0269C49.1647 74.5548 49.1359 74.0615 49.1346 73.5875C49.1339 73.3228 49.1815 72.9555 49.0962 72.7057Z" fill="#1D1F20" stroke="black" stroke-linejoin="round"/>
<path d="M102.983 39.9694C103.107 39.9167 103.255 39.9392 103.389 39.9396L104.32 39.9424L107.466 39.9416L107.431 39.9477C107.039 40.009 106.603 39.9775 106.205 39.9798C106.128 39.9803 105.929 39.9564 105.873 39.9816C105.833 39.9996 105.744 40.109 105.709 40.144L105.243 40.5986L103.935 41.8132C103.539 42.1693 103.101 42.5354 102.775 42.9553L102.741 42.9974L102.721 43.023C102.497 42.8492 102.263 42.6062 102.081 42.3904C102.013 42.296 101.91 42.2255 101.821 42.1521L102.983 39.9694Z" fill="#818C96" stroke="black" stroke-linejoin="round"/>
<path d="M102.983 39.9694C103.107 39.9167 103.255 39.9392 103.389 39.9396L104.32 39.9424L107.466 39.9416L107.431 39.9477C107.04 40.009 106.603 39.9775 106.205 39.9798C106.128 39.9803 105.929 39.9564 105.873 39.9816C105.833 39.9996 105.745 40.109 105.709 40.144L105.243 40.5986L103.935 41.8132C103.54 42.1693 103.101 42.5354 102.775 42.9553L102.741 42.9974L102.721 43.023C102.498 42.8492 102.263 42.6062 102.081 42.3904L105.554 39.9814L102.983 39.9694Z" fill="#64676B" stroke="black" stroke-linejoin="round"/>
<path d="M65.4237 37.6466L65.4213 39.4881L59.4989 45.2583L59.4419 45.2846L59.4033 45.2439C59.4186 45.0967 59.4403 44.9801 59.5214 44.854C60.0102 44.0927 60.6904 43.3992 61.2742 42.708C62.6843 41.0388 64.1431 39.4211 65.4237 37.6466Z" fill="#1D1F20" stroke="black" stroke-linejoin="round"/>
<path d="M55.7651 31.9794C55.8983 31.9711 56.0728 32.0583 56.198 32.1047L57.2277 32.4926L58.5892 32.9704L64.8898 35.219L68.3369 36.3776L66.2808 36.381C66.0179 36.3802 65.6792 36.4207 65.4288 36.3679C65.1369 36.3064 64.8159 36.1245 64.5406 36.0014L62.519 35.0804C60.2712 34.0608 57.9439 33.1377 55.7651 31.9794Z" fill="#64676B" stroke="black" stroke-linejoin="round"/>
<path d="M103.751 68.2594L105.075 68.2518C105.29 68.4964 105.46 68.854 105.636 69.1331L107.294 71.8575C107.476 72.1649 107.77 72.5227 107.881 72.857L107.78 72.8931L106.397 72.8938L104.721 70.1532L103.891 68.8227C103.811 68.6934 103.626 68.4346 103.625 68.2855L103.751 68.2594Z" fill="#1D1F20" stroke="black" stroke-linejoin="round"/>
<path d="M59.2944 35.9336L60.4166 36.6569C60.5004 36.708 60.6729 36.8421 60.7639 36.8627C60.8258 36.8768 61.0008 36.8274 61.0701 36.8169L62.3217 36.6183C62.9651 36.5239 63.639 36.4853 64.275 36.3614L64.3079 36.3542L65.4648 36.9034L65.1221 37.2598C64.802 37.4015 64.5134 37.6412 64.2254 37.8394C63.6608 38.228 63.1025 38.62 62.5025 38.9532L60.6242 37.3267L59.7991 36.644C59.6678 36.5336 59.4904 36.4095 59.3881 36.2751C59.3234 36.1901 59.3108 36.0374 59.2944 35.9336Z" fill="#64676B" stroke="black" stroke-linejoin="round"/>
<path d="M56.0453 42.1163C56.0451 41.8799 55.9901 40.927 56.0639 40.7682C56.1053 40.6792 56.247 40.5476 56.3138 40.4668L57.0229 39.6033L59.2642 36.7969L60.8945 38.1534L56.1037 42.1812L56.0453 42.1163Z" fill="#DFA715" stroke="black" stroke-linejoin="round"/>
<path d="M70.6953 71.599L70.7027 71.007L86.9911 71.0094L87.3042 71.544L79.8182 71.6184L79.2549 71.6183C79.1685 71.5905 78.9819 71.6092 78.888 71.6084L77.8165 71.6244L72.9633 71.605L71.4278 71.6249C71.2032 71.6279 70.9079 71.6687 70.6953 71.599Z" fill="#2E3032" stroke="black" stroke-linejoin="round"/>
<path d="M89.7642 53.8479L93.0101 55.3094C93.5127 55.5326 94.0798 55.715 94.5591 55.9754C94.8156 56.1149 95.0261 56.3343 95.263 56.5034C95.5892 56.7363 95.9678 56.9031 96.3329 57.0641L95.7059 57.1764L93.0774 57.5755C92.7294 57.6274 92.3247 57.7425 91.9757 57.7396L89.7642 53.8479Z" fill="#AEC1D3" stroke="black" stroke-linejoin="round"/>
<path d="M95.1635 45.5825C95.3424 45.459 99.1098 45.5429 99.6485 45.5407L98.739 46.4529C98.739 46.458 98.6621 46.5318 98.6499 46.5439L96.4916 48.66C96.0091 49.1361 95.445 49.6153 95.0836 50.1914L95.0485 50.2478C95.0079 49.8639 95.0724 49.4239 95.0781 49.0347L95.1184 46.7933C95.1249 46.4042 95.0927 45.962 95.1635 45.5825Z" fill="url(#paint1_linear_117_5668)" stroke="black" stroke-linejoin="round"/>
<path d="M91.4481 49.5035L94.1502 55.3124L92.8779 54.779L89.6006 53.2982L91.4481 49.5035Z" fill="#AEC1D3" stroke="black" stroke-linejoin="round"/>
<path d="M101.259 51.6315C101.656 51.8099 102.022 52.0937 102.396 52.3188L105.252 54.0374L103.58 56.8187C103.188 57.4359 102.794 57.9993 102.32 58.5571C102.235 58.0135 102.243 57.433 102.202 56.8826C102.071 55.1061 101.899 53.3067 101.259 51.6315Z" fill="#AEC1D3" stroke="black" stroke-linejoin="round"/>
<path d="M60.8947 38.1534L62.1123 39.2208L56.0517 44.4835L56.0454 42.1164L56.1038 42.1813L60.8947 38.1534Z" fill="url(#paint2_linear_117_5668)" stroke="black" stroke-linejoin="round"/>
<path d="M92.2028 48.4449L93.8041 46.6269C94.0901 46.3127 94.3801 45.9586 94.7009 45.6807L94.6475 48.454C94.6666 48.6412 94.6417 48.8566 94.6376 49.0461L94.6124 50.3335C94.6103 50.4921 94.6573 50.8269 94.6154 50.961C94.5579 51.1451 94.3729 51.387 94.2802 51.5663C93.9755 52.1563 93.8219 52.7724 93.7736 53.4321L91.6899 49.0063L92.2028 48.4449Z" fill="url(#paint3_linear_117_5668)" stroke="black" stroke-linejoin="round"/>
<path d="M100.07 45.7432L103.332 48.5514L98.5194 49.2744C97.548 49.4219 96.6982 49.6128 95.7744 49.9514L100.07 45.7432Z" fill="#90A7D3" stroke="black" stroke-linejoin="round"/>
<path d="M101.474 54.2394C101.597 54.7036 101.625 55.2225 101.671 55.7012L101.89 59.1033L101.096 59.9152C101.052 59.9592 100.91 60.1328 100.86 60.1503C100.713 60.2018 100.372 60.173 100.208 60.1822L97.7235 60.3182L97.1943 60.3498L98.9805 58.0845C99.6609 57.2511 100.438 56.3655 100.967 55.4258C101.18 55.049 101.331 54.6465 101.474 54.2394Z" fill="#AEC1D3" stroke="black" stroke-linejoin="round"/>
<path d="M103.638 48.9065C103.958 49.4874 104.182 50.1682 104.43 50.7852C104.803 51.7129 105.254 52.6731 105.485 53.6497L102.372 51.8215L100.252 50.5555C99.6985 50.2431 99.1547 49.9313 98.5586 49.7052L103.638 48.9065Z" fill="#AEC1D3" stroke="black" stroke-linejoin="round"/>
<path d="M99.2481 56.9293L99.3523 56.8964L99.3896 56.9293L96.6533 60.3875L94.7562 60.509L93.6709 59.422L92.3369 58.1086L96.8254 57.4106C97.6685 57.2653 98.4311 57.2136 99.2481 56.9293Z" fill="#90A7D3" stroke="black" stroke-linejoin="round"/>
<path d="M65.5586 68.1015C65.8135 68.0206 66.2822 68.0813 66.5586 68.0814L69.2562 68.0843L69.2254 73.0936L68.7647 73.1236C68.7573 72.6814 68.8829 70.8125 68.6799 70.5509C68.5874 70.4315 68.4549 70.3523 68.3027 70.3464C68.1514 70.3405 68.0173 70.3894 67.9079 70.4942C67.66 70.7316 67.724 71.2062 67.7223 71.5244L67.717 73.1276L67.1893 73.1308L67.1977 71.5911C67.1985 71.3206 67.2208 71.0185 67.1729 70.753C67.1574 70.6668 67.1098 70.5737 67.0496 70.5096C66.9613 70.4157 66.8356 70.3457 66.7038 70.3473C66.56 70.349 66.4841 70.3711 66.3845 70.4705C66.2986 70.5562 66.2306 70.6949 66.2073 70.814C66.1566 71.0731 66.1804 71.3901 66.1797 71.6545L66.1837 73.1305L65.6372 73.135C65.6379 72.3989 65.7302 68.4966 65.575 68.1358L65.5586 68.1015Z" fill="#2E3032" stroke="black" stroke-linejoin="round"/>
<path d="M91.8618 58.2957L94.4402 60.8439L93.3386 63.167L92.3081 62.4979L88.9727 60.2924L91.8618 58.2957Z" fill="#9E1217" stroke="black" stroke-linejoin="round"/>
<path d="M103.454 57.9351L106.449 59.7666L103.196 62.1367L101.769 63.031L101.086 60.5981C101.958 59.7664 102.737 58.9055 103.454 57.9351Z" fill="#9E1217" stroke="black" stroke-linejoin="round"/>
<path d="M53.2779 31.585C52.8651 31.3348 52.4849 31.008 52.1323 30.6802L53.5076 31.3156L64.3078 36.3541L64.2749 36.3613C63.6389 36.4852 62.9649 36.5238 62.3216 36.6183L61.07 36.8169C61.0007 36.8273 60.8256 36.8768 60.7637 36.8627C60.6728 36.842 60.5002 36.7079 60.4165 36.6569L59.2943 35.9336C59.1604 35.8726 58.9999 35.7217 58.8759 35.6321L57.867 34.9097L55.0701 32.8953C54.4723 32.4679 53.8408 32.0573 53.2779 31.585Z" fill="url(#paint4_linear_117_5668)" stroke="black" stroke-linejoin="round"/>
<path d="M87.8701 47.7615L91.1329 49.0929L89.3906 52.75L89.1375 53.2501L87.0601 53.6516L87.4284 51.0602C87.5637 49.9801 87.6015 48.8101 87.8701 47.7615Z" fill="#9E1217" stroke="black" stroke-linejoin="round"/>
<path d="M106.818 47.9678C106.9 47.9535 106.857 47.9537 106.947 47.972L108.547 53.5356C108.28 53.5506 106.164 53.6055 106.043 53.5576C106.009 53.5443 105.984 53.5157 105.954 53.4947L104.166 48.8115L106.818 47.9678Z" fill="#EA2128" stroke="black" stroke-linejoin="round"/>
<path d="M106.574 54.0099L108.531 53.9745L106.633 59.4029L105.961 58.975L103.702 57.5264L105.824 54.0234L106.574 54.0099Z" fill="#9E1217" stroke="black" stroke-linejoin="round"/>
<path d="M105.647 68.2842L112.147 68.2967C112.059 68.4914 111.816 68.7117 111.674 68.8823L110.078 70.764L108.361 72.8344L105.647 68.2842Z" fill="#484D51" stroke="black" stroke-linejoin="round"/>
<path d="M96.5277 39.9421L102.552 39.9479L101.407 42.1354L99.7367 42.1269L93.7744 42.1729L96.5277 39.9421Z" fill="#7B7C83" stroke="black" stroke-linejoin="round"/>
<path d="M93.6758 42.6217L101.239 42.6154L100.359 44.2239L99.9434 45.0315L94.7811 45.0196L93.6758 42.6217Z" fill="#EA2128" stroke="black" stroke-linejoin="round"/>
<path d="M88.9484 53.7587C89.0284 53.7437 89.0857 53.7382 89.1664 53.7507C89.4624 54.1732 89.702 54.6667 89.9545 55.1184L91.5422 57.9575L89.2301 59.596L88.6372 60.0054L87.0337 54.1205L88.9484 53.7587Z" fill="#9E1217" stroke="black" stroke-linejoin="round"/>
<path d="M101.636 42.6953L106.705 47.6012L104.966 48.1012L103.907 48.4475L101.289 46.1339L100.569 45.5232C100.471 45.4405 100.337 45.3562 100.274 45.244L101.636 42.6953Z" fill="#EA2128" stroke="black" stroke-linejoin="round"/>
<path d="M55.5376 52.0449L57.7751 52.0489L58.1371 52.0665C58.285 52.2736 58.1539 52.8815 58.1998 53.1604L55.5668 53.1596L55.5638 54.6612L56.2634 54.655L56.3266 54.6583C56.7006 54.6763 57.0728 54.6474 57.4462 54.6335C57.6919 54.6242 57.9447 54.6354 58.1878 54.601L58.2189 55.6841L56.3854 55.6981C56.1783 55.698 55.7954 55.6469 55.609 55.7218C55.4853 55.997 55.5634 56.9289 55.5642 57.277L58.1394 57.2646C58.2681 57.5434 58.1759 58.0514 58.2072 58.3693L55.569 58.3741L55.5702 59.985L58.3624 59.9824C58.4763 60.2009 58.4313 60.6629 58.4546 60.9219C58.551 61.9864 58.6853 63.0343 58.7137 64.1041L58.5353 63.9253L56.1405 61.423L55.6637 60.9011C55.6505 60.8863 55.5713 60.8089 55.5662 60.7907C55.5266 60.648 55.5603 60.378 55.5575 60.2224L55.5525 58.3121L55.5278 56.6992L55.5376 52.0449Z" fill="#2E3032" stroke="black" stroke-linejoin="round"/>
<path d="M59.8627 71.3395C59.7028 71.4867 59.5313 71.6761 59.3479 71.7894L56.4752 68.7867C56.3664 68.6689 56.095 68.439 56.0331 68.3003C56.0223 68.2763 56.0332 68.1497 56.0332 68.1218L56.0334 67.5359L56.0425 63.954L59.733 67.7549L59.8627 71.3395Z" fill="#DFA715" stroke="black" stroke-linejoin="round"/>
<path d="M93.301 42.7231L94.5076 45.2219C93.963 45.6868 93.4994 46.2841 93.03 46.8223L91.3158 48.7406L89.9655 48.1287L88.123 47.39L93.301 42.7231Z" fill="#EA2128" stroke="black" stroke-linejoin="round"/>
<path d="M61.3384 54.9622L60.5303 54.8331L78.5472 44.6196L77.905 46.1777L61.3384 54.9622Z" fill="#DADBDB" stroke="black" stroke-linejoin="round"/>
<path d="M107.695 48.5903L111.666 45.7708L112.207 45.3841C112.265 45.3418 112.399 45.2679 112.44 45.2145C112.463 45.1851 112.48 45.0468 112.49 45.0034L112.477 46.3065C112.474 46.4864 112.501 46.7333 112.456 46.9046C112.384 47.175 112.223 47.4583 112.103 47.7115L111.411 49.1716L108.57 55.3745C108.552 55.2551 108.634 55.105 108.679 54.9923L109.077 53.979C109.112 53.8946 109.117 53.839 109.104 53.748C109.012 53.1228 108.761 52.4666 108.589 51.8563L107.695 48.5903Z" fill="#484D51" stroke="black" stroke-linejoin="round"/>
<path d="M62.5023 38.9531C63.1024 38.6199 63.6607 38.2279 64.2252 37.8394C64.5132 37.6411 64.8018 37.4014 65.1219 37.2598C64.7227 37.948 64.1384 38.5926 63.6367 39.2111L60.197 43.299L59.3097 44.3361C59.2299 44.4298 59.0739 44.5718 59.0225 44.6764C58.5959 45.0391 58.2372 45.4343 58.1894 46.0155L58.1792 47.6721L56.3403 47.6717C56.1309 47.6722 55.7874 47.6331 55.5978 47.7064L55.5688 47.71L55.5752 45.5087L62.7476 39.2406L62.5023 38.9531Z" fill="#2E3032" stroke="black" stroke-linejoin="round"/>
<path d="M100.221 60.6366L100.661 60.5992L101.443 63.1984C99.3581 63.6122 97.2409 63.7554 95.1181 63.6153L93.7686 63.3879C93.8152 63.1364 94.0444 62.8049 94.1604 62.5681L94.9145 60.9834L100.221 60.6366Z" fill="#9E1217" stroke="black" stroke-linejoin="round"/>
<path d="M61.8367 70.1625L62.6542 71.0414C62.7978 71.185 63.2331 71.5325 63.2691 71.7151C62.6025 72.2799 61.8844 72.7818 61.1767 73.293L58.5748 75.1886L53.4977 78.7834C53.0039 79.0983 52.5184 79.433 52.0029 79.7113L51.9844 79.0517C52.2681 78.6972 52.731 78.3923 53.0792 78.0916L55.1414 76.273L58.7541 73.0596L61.8367 70.1625Z" fill="#64676B" stroke="black" stroke-linejoin="round"/>
<path d="M111.543 39.8794C111.637 39.8781 111.792 39.8563 111.88 39.8749C111.95 39.8895 112.153 40.1178 112.211 40.1742L112.166 40.2145L112.061 40.322C111.741 40.6779 111.275 40.9234 110.92 41.243L110.753 41.1141C110.351 40.9141 109.961 40.8098 109.518 40.957C109.222 41.0557 108.986 41.2492 108.774 41.4733C108.522 41.5942 108.305 41.8404 108.1 42.0312L104.403 44.6475L102.721 43.0229L102.741 42.9973L102.775 42.9552C103.101 42.5353 103.539 42.1692 103.935 41.8131L105.243 40.5985L105.709 40.1439C105.744 40.1089 105.833 39.9996 105.873 39.9816C105.929 39.9564 106.128 39.9802 106.205 39.9797C106.603 39.9774 107.039 40.0089 107.431 39.9476L107.466 39.9415C107.866 39.8834 108.373 39.9381 108.785 39.9366L111.543 39.8794Z" fill="#818C96" stroke="black" stroke-linejoin="round"/>
<path d="M111.543 39.8794C111.637 39.8781 111.792 39.8563 111.88 39.8749C111.95 39.8895 112.153 40.1178 112.211 40.1742L112.166 40.2145L112.061 40.322C111.741 40.6779 111.275 40.9234 110.919 41.243L110.753 41.1141C110.782 41.0679 110.773 41.0866 110.792 41.0392C110.976 40.5644 111.4 40.2354 111.805 39.9404L111.832 39.9211L111.543 39.8794Z" fill="#7B7C83" stroke="black" stroke-linejoin="round"/>
<path d="M107.455 60.2125C107.913 59.6881 108.581 59.2617 109.124 58.8213L112.5 56.0643L112.49 64.0845L107.455 60.2125Z" fill="#484D51" stroke="black" stroke-linejoin="round"/>
<path d="M97.3071 66.3839L98.1374 64.5868C98.188 64.4779 98.2764 64.2003 98.353 64.1216C98.3609 64.1134 98.5486 64.1031 98.5738 64.1009C99.4779 64.0216 100.487 63.975 101.356 63.7114C102.485 63.369 103.515 62.5205 104.464 61.8468L106.777 60.196C107.164 60.5658 107.609 60.8779 108.036 61.1991L109.891 62.6065L97.3071 66.3839Z" fill="#484D51" stroke="black" stroke-linejoin="round"/>
<path d="M58.7251 64.1836L65.1247 71.1059L65.138 72.4509C65.1397 72.6416 65.1692 72.8809 65.1254 73.0648L55.3145 78.2457V78.1917C56.2215 77.5956 57.0802 76.9096 57.9506 76.261L59.7893 74.8755C60.741 74.1665 61.6983 73.459 62.547 72.6258C62.8079 72.3696 63.1034 72.1018 63.297 71.7919L63.2694 71.7151C63.2334 71.5325 62.798 71.185 62.6545 71.0414L61.8369 70.1625L62.2662 69.7912L58.7939 66.0843C58.8337 65.4586 58.7828 64.8077 58.7251 64.1836Z" fill="#2E3032" stroke="black" stroke-linejoin="round"/>
<path d="M108.609 56.1986C108.666 55.9601 108.863 55.655 108.97 55.4281L109.945 53.365L112.497 47.7991L112.5 56.0643L109.124 58.8212C108.581 59.2617 107.913 59.688 107.455 60.2124L107.172 59.9422C107.169 59.725 107.421 59.414 107.511 59.2024L108.321 57.0755C108.425 56.7924 108.622 56.5051 108.609 56.1986Z" fill="#64676B" stroke="black" stroke-linejoin="round"/>
<path d="M81.2337 47.1867L79.3584 44.0388L82.4298 39.934L91.4244 39.9467L94.6623 39.9362L95.4752 39.9341C95.6222 39.9336 95.7806 39.9105 95.9142 39.9801L86.5872 39.9653L81.2337 47.1867Z" fill="#484D51" stroke="black" stroke-linejoin="round"/>
<path d="M94.9703 64.1389L95.0228 64.146C95.3945 64.1916 95.7757 64.1769 96.1501 64.1767L97.8843 64.1412L96.1256 67.8388C95.751 67.887 95.3315 67.8492 94.9529 67.8477L92.5507 67.8441L84.1304 67.8503C84.2546 67.6606 84.3721 67.4602 84.5203 67.2883L84.5526 67.2914C84.6656 67.2933 84.7921 67.2475 84.903 67.2212L85.8035 66.9976L89.7193 65.9517C91.2454 65.5345 92.7697 65.1148 94.2506 64.5549C94.4881 64.4651 94.8855 64.3678 95.0674 64.1932L94.9703 64.1389Z" fill="#2E3032" stroke="black" stroke-linejoin="round"/>
<path d="M84.52 67.2883L88.7997 60.7604C90.0028 61.4813 91.1164 62.3645 92.2986 63.1215C92.6817 63.3669 93.0744 63.6468 93.4961 63.8186C93.976 64.0141 94.4567 64.0914 94.9701 64.139L95.0672 64.1932C94.8853 64.3678 94.4879 64.4651 94.2504 64.555C92.7694 65.1148 91.2451 65.5346 89.7191 65.9517L85.8033 66.9976L84.9028 67.2212C84.7919 67.2475 84.6654 67.2934 84.5524 67.2915L84.52 67.2883Z" fill="#484D51" stroke="black" stroke-linejoin="round"/>
<path d="M66.7114 39.9189L81.8731 39.9337L80.1928 42.1591L78.9118 43.8615L66.7114 39.9189Z" fill="#64676B" stroke="black" stroke-linejoin="round"/>
<path d="M50.4643 36.2416L51.382 36.2601L51.3684 72.2187L49.8482 72.2286C49.7116 72.2282 49.4864 72.2566 49.3706 72.1868L50.4895 72.1911L50.4643 36.2416Z" fill="#484D51" stroke="black" stroke-linejoin="round"/>
<path d="M97.0797 50.0477C97.9811 49.9358 98.8478 50.2581 99.6081 50.7179C100.309 51.142 100.831 51.8311 101.018 52.6313C101.225 53.5137 101.066 54.3659 100.591 55.129C100.059 55.9825 99.3266 56.475 98.3549 56.6988C97.404 56.8668 96.6237 56.7172 95.8183 56.1856C95.1449 55.741 94.5259 54.945 94.374 54.1388L94.3618 54.0711L94.3472 54.0012C94.1762 53.1381 94.3736 52.2705 94.8563 51.5461C95.4121 50.7119 96.1034 50.2399 97.0797 50.0477Z" fill="#EA2128" stroke="black" stroke-linejoin="round"/>
<path d="M98.1017 50.6009C98.4389 50.5705 98.7521 50.5878 99.0668 50.7248C99.6267 50.9682 100.114 51.41 100.338 51.9858C100.495 52.3876 100.495 52.8059 100.314 53.1992C100.142 53.5753 99.8047 53.7527 99.4351 53.8883C99.0196 53.9622 98.5928 53.9064 98.2086 53.7366C97.7527 53.5351 97.346 53.0904 97.1669 52.6282C97.014 52.2334 96.9905 51.7723 97.1719 51.3824C97.3679 50.9608 97.68 50.7514 98.1017 50.6009Z" fill="#F2A2A7" stroke="black" stroke-linejoin="round"/>
<path d="M112.211 40.1742L112.5 40.4614L112.498 43.5208L112.49 45.0034C112.479 45.0468 112.463 45.1851 112.44 45.2145C112.398 45.2679 112.265 45.3418 112.207 45.3841L111.666 45.7708L107.695 48.5903L107.572 48.1612L107.443 47.7309C107.422 47.6553 107.411 47.5972 107.361 47.5335C107.154 47.2681 106.83 47.0173 106.588 46.7791L104.403 44.6475L108.1 42.0312C108.305 41.8404 108.522 41.5942 108.774 41.4733C108.986 41.2492 109.222 41.0557 109.518 40.957C109.961 40.8098 110.351 40.9141 110.753 41.1141L110.92 41.243C111.275 40.9234 111.741 40.6779 112.061 40.322L112.166 40.2145L112.211 40.1742Z" fill="url(#paint5_linear_117_5668)" stroke="black" stroke-linejoin="round"/>
<path d="M108.1 42.0313C108.305 41.8405 108.522 41.5943 108.774 41.4734C108.536 41.9621 108.419 42.3527 108.603 42.8866C108.727 43.2444 109.087 43.5911 109.432 43.7327C109.73 43.8552 110.079 43.8402 110.368 43.7025C110.764 43.5143 111.123 43.1576 111.264 42.7371C111.31 42.5991 111.33 42.4477 111.353 42.3042L111.382 42.3057L111.432 42.3008C111.495 42.4282 111.497 42.4981 111.47 42.6362C111.331 43.3638 110.717 43.9306 110.138 44.3346C109.767 44.5937 109.31 44.7132 108.862 44.6206C108.472 44.5397 108.124 44.2811 107.914 43.945C107.731 43.6509 107.695 43.1758 107.78 42.8433L107.793 42.7963C107.866 42.5214 107.977 42.2866 108.1 42.0313Z" fill="#484D51" stroke="black" stroke-linejoin="round"/>
<path d="M107.572 48.1613C108.997 46.852 110.279 45.3913 111.761 44.1509C112.009 43.9441 112.229 43.7008 112.498 43.5209L112.49 45.0035C112.479 45.0469 112.463 45.1852 112.44 45.2146C112.398 45.268 112.265 45.3419 112.207 45.3842L111.666 45.7709L107.695 48.5904L107.572 48.1613Z" fill="#64676B" stroke="black" stroke-linejoin="round"/>
<path d="M108.774 41.4733C108.986 41.2492 109.222 41.0556 109.518 40.957C109.961 40.8098 110.351 40.9141 110.753 41.1141L110.92 41.243C111.17 41.5437 111.371 41.899 111.353 42.3042C111.33 42.4476 111.31 42.599 111.264 42.737C111.123 43.1575 110.764 43.5142 110.368 43.7025C110.079 43.8401 109.73 43.8552 109.432 43.7326C109.087 43.5911 108.727 43.2443 108.603 42.8865C108.419 42.3526 108.536 41.9621 108.774 41.4733Z" fill="#030302" stroke="black" stroke-linejoin="round"/>
<path d="M110.794 42.0229C110.847 42.3012 110.88 42.5264 110.716 42.777C110.516 43.0836 110.235 43.2182 109.894 43.3058C109.546 43.2034 109.297 43.1023 109.118 42.7553C109.073 42.6685 109.048 42.574 109.023 42.4799C109.278 42.5281 110.604 42.5399 110.747 42.4444C110.743 42.3236 110.739 42.2068 110.773 42.0898L110.794 42.0229Z" fill="#EA2128" stroke="black" stroke-linejoin="round"/>
<path d="M109.023 42.48C109.017 42.3269 109.002 42.1601 109.048 42.0122C109.129 41.7544 109.321 41.5421 109.561 41.4216C109.732 41.3356 110.007 41.3215 110.187 41.3841C110.503 41.494 110.659 41.7372 110.794 42.023L110.773 42.0898C110.739 42.2068 110.743 42.3236 110.747 42.4444C110.604 42.5399 109.278 42.5281 109.023 42.48Z" fill="#FC5757" stroke="black" stroke-linejoin="round"/>
<path d="M59.6074 56.0809L66.4594 64.393L68.5585 66.9459C68.7851 67.2256 69.1454 67.5665 69.2895 67.8882L69.171 67.9325C68.7435 67.9384 65.3532 67.9789 65.271 67.8984C64.7972 67.435 64.3806 66.8866 63.9427 66.3877L61.0984 63.1366L59.9345 61.8039C59.8609 61.7176 59.6596 61.5338 59.6216 61.4353C59.6008 61.3815 59.6198 61.2055 59.6194 61.1421L59.6175 60.2756L59.6074 56.0809Z" fill="#64676B" stroke="black" stroke-linejoin="round"/>
<path d="M49.3704 72.1868C49.3141 72.0304 49.3454 71.813 49.3459 71.644L49.3467 70.4255L49.3422 65.8362L49.3354 36.2288L50.4641 36.2415L50.4893 72.1911L49.3704 72.1868Z" fill="#60ADB8" stroke="black" stroke-linejoin="round"/>
<path d="M81.7993 48.1275L83.6591 47.0016L90.0481 43.4355L95.0657 40.565C95.124 40.5327 95.1755 40.5342 95.2396 40.5385L92.9882 42.373L91.4522 43.7874L88.48 46.3965C88.1713 46.6755 87.6242 47.0725 87.4464 47.4368C87.2944 47.7477 87.2861 48.2103 87.2411 48.5506L87.0049 50.2701L86.7024 52.3794C86.6263 52.8867 86.5295 53.4073 86.4961 53.9191C86.4807 54.1549 86.5615 54.3975 86.6246 54.6225L86.9058 55.5869C87.1471 56.3971 87.41 57.2114 87.5711 58.0417L81.7993 48.1275Z" fill="#64676B" stroke="black" stroke-linejoin="round"/>
<path d="M59.6811 54.9401L59.7137 54.9933C60.3245 55.3093 61.2009 55.3786 61.8757 55.4965L64.0119 55.885L72.8205 57.534C72.6576 57.718 72.3266 57.8794 72.1175 58.0193L70.2963 59.236L65.5144 62.45C64.9309 61.8782 64.4518 61.1726 63.93 60.5444L62.1974 58.4893L59.5586 55.3048L59.5916 52.5144L59.6072 54.2224C59.6076 54.4122 59.5795 54.652 59.6107 54.837C59.6184 54.8826 59.6499 54.9103 59.6811 54.9401Z" fill="#1D1F20" stroke="black" stroke-linejoin="round"/>
<path d="M81.2339 47.1867L86.5874 39.9653L95.9143 39.9801C95.7714 40.1419 95.4372 40.4443 95.2398 40.5385C95.1757 40.5343 95.1242 40.5328 95.0659 40.565L90.0483 43.4355L83.6593 47.0016L81.7995 48.1276L81.2339 47.1867Z" fill="#7B7C83" stroke="black" stroke-linejoin="round"/>
<path d="M87.4732 61.3113L87.5467 61.3176C87.5684 61.3623 87.5771 61.3741 87.5872 61.4297C87.5971 61.484 87.6032 61.6134 87.5906 61.6666C87.5607 61.7925 87.42 61.965 87.3467 62.0756L86.8237 62.8913C85.7644 64.5464 84.7464 66.2636 83.576 67.8423L69.8274 67.881L66.6707 63.919L66.3384 63.4848C66.843 63.7219 67.3905 63.8863 67.9169 64.0693L70.5893 64.9765L77.4269 67.2865L87.4732 61.3113Z" fill="#2E3032" stroke="black" stroke-linejoin="round"/>
<path d="M73.2919 57.7742L76.8398 65.5297L77.2259 66.384C77.2589 66.4624 77.2976 66.6248 77.3458 66.6812C77.3707 66.7103 77.4094 66.7238 77.4412 66.7452C77.4082 66.7561 77.3769 66.7755 77.3422 66.778C77.2038 66.788 76.8525 66.6319 76.7126 66.586L73.8489 65.5813L67.6786 63.5321L65.7715 62.8628C65.8667 62.7567 66.038 62.6724 66.1592 62.5938L66.9148 62.0889L71.2757 59.1579L72.6498 58.2434C72.8441 58.1104 73.087 57.9763 73.2547 57.8118L73.2919 57.7742Z" fill="#818C96" stroke="black" stroke-linejoin="round"/>
<path d="M65.8613 37.3081L65.8946 37.0623C66.0563 36.9569 67.2141 37.007 67.4948 37.0034L73.6072 36.9629L97.3392 36.9578L109.249 36.9458L110.84 38.6223L110.811 38.6432C110.521 38.7955 106.776 38.5797 106.148 38.56L100.95 38.4139L98.4044 38.389L90.5336 38.2296L87.0311 38.0966L78.0899 37.8245L73.5389 37.6157L68.5396 37.4759L66.921 37.364C66.5634 37.3437 66.2153 37.387 65.8613 37.3081Z" fill="#DADBDB" stroke="black" stroke-linejoin="round"/>
<path d="M73.292 57.7741C73.333 57.7558 73.4135 57.7055 73.4544 57.7013C73.5302 57.6934 73.7191 57.7669 73.7982 57.7875L75.3322 58.237L80.2383 59.6003L86.425 61.3241L77.4413 66.7452C77.4095 66.7238 77.3707 66.7102 77.3459 66.6812C77.2977 66.6248 77.2589 66.4624 77.226 66.384L76.8399 65.5297L73.292 57.7741Z" fill="#AEC1D3" stroke="black" stroke-linejoin="round"/>
<path d="M109.891 62.6064L112.464 64.5654L112.46 67.859L96.5991 67.8725L97.3071 66.3839L109.891 62.6064Z" fill="#2E3032" stroke="black" stroke-linejoin="round"/>
<path d="M109.694 64.7326C109.963 64.7149 110.206 64.7642 110.445 64.8909C110.842 65.101 111.131 65.454 111.254 65.8861C111.345 66.2052 111.298 66.5347 111.133 66.8223C110.927 67.1826 110.628 67.3163 110.247 67.4178C109.941 67.4179 109.704 67.3986 109.42 67.2669C109.033 67.0874 108.748 66.7378 108.619 66.3334C108.514 66.0018 108.54 65.6735 108.716 65.371C108.935 64.9949 109.291 64.8359 109.694 64.7326Z" fill="#030302" stroke="black" stroke-linejoin="round"/>
<path d="M110.635 65.5911C110.753 65.7869 110.752 65.9874 110.699 66.2066C110.639 66.4569 110.506 66.6458 110.287 66.7833C110.088 66.9084 109.826 66.918 109.604 66.8639C109.389 66.8117 109.258 66.6564 109.124 66.4922C109.234 66.4684 109.343 66.4438 109.447 66.3998C109.767 66.2641 110.104 65.9981 110.226 65.665L110.238 65.6297C110.366 65.5579 110.492 65.586 110.635 65.5911Z" fill="#580E0F" stroke="black" stroke-linejoin="round"/>
<path d="M109.124 66.4921C109.001 66.2474 108.947 66.0921 108.981 65.8117C109.006 65.6032 109.123 65.4204 109.289 65.2941C109.504 65.1307 109.766 65.0783 110.03 65.1252C110.295 65.1723 110.482 65.3897 110.636 65.5911C110.492 65.5859 110.366 65.5578 110.238 65.6297L110.226 65.665C110.104 65.998 109.767 66.2641 109.447 66.3997C109.343 66.4437 109.234 66.4683 109.124 66.4921Z" fill="#EA2128" stroke="black" stroke-linejoin="round"/>
<path d="M65.8613 37.3081C66.2153 37.387 66.5634 37.3437 66.921 37.364L68.5396 37.4759L73.5389 37.6156L78.0899 37.8245L87.0311 38.0966L90.5336 38.2296L98.4044 38.389L100.95 38.4139L106.148 38.5599C106.776 38.5797 110.521 38.7955 110.811 38.6432L110.84 38.6222L110.843 38.6222L111.557 39.3673L65.8749 39.4634L65.8613 37.3081Z" fill="#BCBBBA" stroke="black" stroke-linejoin="round"/>
<path d="M47.9527 32.9804C48.1762 32.898 48.4959 32.9391 48.7337 32.9387C49.2132 32.9376 49.7319 32.8968 50.202 32.9742L50.5099 32.9894L50.5225 35.2337L49.681 35.2379C49.5898 35.2384 49.3986 35.219 49.3179 35.2596C49.2496 35.294 49.1596 35.3864 49.1033 35.4396C49.0366 35.5026 48.9778 35.5825 48.9486 35.6702C48.8722 35.8997 48.9032 36.217 48.9015 36.4581L48.8936 38.0022L48.8927 44.5997L48.8994 72.168C48.9019 72.382 48.9027 72.539 49.0715 72.6884L49.0962 72.7057C49.1814 72.9555 49.1339 73.3228 49.1346 73.5875C49.1359 74.0615 49.1647 74.5548 49.1305 75.0269L47.7544 75.0216C47.6705 74.9716 47.6209 74.9516 47.5768 74.8597C47.4432 74.5812 47.5245 72.0403 47.5248 71.5631L47.5219 64.6019L47.5164 41.2066L47.5532 35.1811L47.554 33.9634C47.5541 33.7648 47.5268 33.531 47.5909 33.3433L47.6068 33.2922C47.6735 33.1248 47.7954 33.0515 47.9527 32.9804Z" fill="#2E3032" stroke="black" stroke-linejoin="round"/>
<path d="M47.9525 32.9803L50.0929 32.9838L47.583 35.1845L47.5907 33.3432L47.6066 33.2921C47.6733 33.1247 47.7951 33.0514 47.9525 32.9803Z" fill="#818C96" stroke="black" stroke-linejoin="round"/>
<path d="M77.905 46.1777L73.4311 57.2271L61.3384 54.9622L77.905 46.1777Z" fill="#AEC1D3" stroke="black" stroke-linejoin="round"/>
<path d="M53.8932 76.7639L51.9795 78.4075L52.0366 31.1643L59.0314 36.3156C58.8001 36.7172 58.438 37.0998 58.1496 37.4667L58.0838 37.4217L53.9121 34.0113L53.8932 76.7639Z" fill="#64676B" stroke="black" stroke-linejoin="round"/>
<path d="M53.8931 76.7638L53.9119 34.0112L58.0837 37.4216L58.1495 37.4666L55.5724 40.6171L55.5751 45.5087L55.5688 47.71C55.5057 47.9007 55.5305 48.1338 55.5295 48.335L55.5387 49.756C55.5398 50.3752 55.4842 51.0241 55.5386 51.6383L55.5375 52.0449L55.5277 56.6991L55.5524 58.312L55.5574 60.2224C55.5601 60.378 55.5264 60.6479 55.5661 60.7906C55.5711 60.8088 55.6504 60.8862 55.6636 60.9011L56.1404 61.423L58.5352 63.9253L58.7135 64.104L58.7249 64.1836C58.7826 64.8076 58.8335 65.4586 58.7937 66.0842L56.7107 63.9821C56.4901 63.7642 56.2024 63.3993 55.9262 63.2659C55.8017 63.2752 55.7529 63.2952 55.6488 63.3642C55.6071 63.4164 55.586 63.4561 55.5788 63.5237C55.55 63.7955 55.568 64.0859 55.5676 64.3593L55.5665 65.8581C55.5663 66.6993 55.5071 67.5792 55.5687 68.4134C55.5917 68.7241 58.5795 71.596 59.0117 72.1366L53.8931 76.7638Z" fill="#484D51" stroke="black" stroke-linejoin="round"/>
<path d="M81.4213 48.3291L82.9889 50.9653L85.7546 55.6873L87.1304 58.0998C87.347 58.4798 87.5912 58.8549 87.7891 59.2444C87.995 59.6494 88.0727 60.1214 88.2757 60.5389L88.2559 60.5744L87.5096 60.9417C87.4429 60.9737 87.2919 61.0672 87.2238 61.0749C87.1148 61.0873 86.7318 60.9252 86.6004 60.8873L83.7825 60.0727L73.9321 57.3243L79.1319 44.4998L80.5093 46.7754L81.4213 48.3291Z" fill="#484D51" stroke="black" stroke-linejoin="round"/>
<path d="M80.5093 46.7755L81.4212 48.3292L76.3008 53.8122C76.9346 52.4029 77.7966 51.0685 78.6165 49.7599L80.5093 46.7755Z" fill="#818C96" stroke="black" stroke-linejoin="round"/>
<path d="M70.6841 68.3149L103.136 68.2987L105.831 72.8178L105.727 72.8756L88.5838 72.9467L87.2751 70.64L70.6856 70.6455L70.6841 68.3149Z" fill="#484D51" stroke="black" stroke-linejoin="round"/>
<path d="M59.5913 52.5144L59.603 45.9955C59.7917 45.7143 60.0792 45.4655 60.3168 45.2228L61.6365 43.88L64.1628 41.3071C64.5806 40.8879 65.0464 40.3143 65.553 40.0169C65.6274 39.9732 65.6372 39.9946 65.7169 40.0131L75.7644 43.3438L77.4884 43.908C77.7529 43.996 78.1288 44.0638 78.3573 44.2074L59.722 54.9141L59.6808 54.94C59.6496 54.9103 59.6181 54.8825 59.6104 54.8369C59.5792 54.652 59.6073 54.4121 59.6069 54.2223L59.5913 52.5144Z" fill="#484D51" stroke="black" stroke-linejoin="round"/>
<path d="M75.7643 43.3439L77.4883 43.9081C77.4588 43.9566 77.4277 43.9961 77.3853 44.0341C77.1358 44.2571 76.818 44.4316 76.5352 44.6101L74.4106 45.8483L69.6798 48.4838L65.4527 50.6322L64.3869 51.1709C64.2644 51.2335 64.068 51.3697 63.9351 51.363L75.7643 43.3439Z" fill="#818C96" stroke="black" stroke-linejoin="round"/>
<path d="M59.5913 52.5144L59.603 45.9955C59.7917 45.7143 60.0792 45.4655 60.3168 45.2228L61.6365 43.88L64.1628 41.3071C64.5806 40.8879 65.0464 40.3143 65.553 40.0169C65.6274 39.9732 65.6372 39.9946 65.7169 40.0131C65.5364 40.378 65.3969 40.7692 65.242 41.1461L64.2755 43.5562L62.1439 48.8106L60.295 53.36C60.1018 53.8522 59.8081 54.3922 59.722 54.9141L59.6808 54.94C59.6496 54.9103 59.6181 54.8825 59.6104 54.8369C59.5792 54.652 59.6073 54.4121 59.6069 54.2223L59.5913 52.5144Z" fill="#2E3032" stroke="black" stroke-linejoin="round"/>
<path d="M108.609 56.1986C108.622 56.5051 108.425 56.7924 108.321 57.0756L107.51 59.2025C107.421 59.414 107.169 59.725 107.172 59.9422L107.145 59.8981C107.065 59.6585 107.28 59.2396 107.361 59.0146C107.698 58.0825 108.083 57.0427 108.609 56.1986Z" fill="#484D51"/>
<path d="M69.9324 68.3384L70.0592 68.3325C70.0747 68.3542 70.0952 68.3731 70.1057 68.3976C70.1161 68.4216 70.1053 68.5412 70.1053 68.5688L70.1033 69.2283L70.0821 72.9967L69.9999 73.0489C69.9437 73.0462 69.9052 73.0361 69.8517 73.0203C69.8146 72.4245 69.8836 71.7955 69.8915 71.1965L69.8957 69.2047C69.896 68.9394 69.8494 68.5894 69.9324 68.3384Z" fill="#1D1F20"/>
<path d="M56.1172 49.1461L56.0362 49.0721L56.0278 48.0951L58.1571 48.093L58.1349 48.1563C58.0496 48.4208 58.1099 48.8623 58.1123 49.146L56.1172 49.1461Z" fill="#0DFCF0"/>
<path d="M57.2062 50.7822L58.1399 50.7875C58.1398 51.0677 58.0726 51.574 58.1777 51.823L56.0298 51.825L56.021 50.7855L57.2062 50.7822Z" fill="#0DFCF0"/>
<path d="M58.1518 53.4041L58.1463 53.4528L58.145 54.4662L56.0493 54.4594C55.987 54.2138 55.9756 53.653 56.0357 53.4088L58.1518 53.4041Z" fill="#0DFCF0"/>
<path d="M56.0044 55.997L58.1435 55.9946L58.1455 57.0623L56.0068 57.0591L56.0044 55.997Z" fill="#0DFCF0"/>
<path d="M58.1332 59.6693C57.9187 59.7084 57.6689 59.6837 57.4506 59.684L56.0102 59.6852L56.0063 58.6146L58.1653 58.6094C58.1043 58.9482 58.1336 59.3248 58.1332 59.6693Z" fill="#0DFCF0"/>
<path d="M65.222 73.6156L66.6633 73.6078L60.6729 76.1737C60.2827 76.3163 59.9236 76.5094 59.5205 76.6211C59.6908 76.4929 59.8909 76.4049 60.078 76.3037L61.2951 75.6642L62.5751 74.9128L63.9342 74.2092C64.3481 73.9965 64.7798 73.7607 65.222 73.6156Z" fill="#1D1F20"/>
<path d="M55.5386 51.6383C55.4842 51.024 55.5397 50.3752 55.5387 49.756L55.5295 48.335C55.5305 48.1338 55.5056 47.9007 55.5688 47.71L55.5589 49.4062H58.183C58.1894 49.7355 58.1253 50.2032 58.2003 50.5131L55.567 50.4806C55.5626 50.854 55.5958 51.2713 55.5386 51.6383Z" fill="#2E3032"/>
<path d="M59.7334 67.7549L61.5911 69.7318L59.8631 71.3395L59.7334 67.7549Z" fill="url(#paint6_linear_117_5668)"/>
<path d="M49.0962 72.7057L51.3212 72.6924L51.3089 75.0289L49.1305 75.0269C49.1647 74.5548 49.1359 74.0615 49.1346 73.5875C49.1339 73.3228 49.1815 72.9555 49.0962 72.7057Z" fill="#1D1F20"/>
<path d="M102.983 39.9694C103.107 39.9167 103.255 39.9392 103.389 39.9396L104.32 39.9424L107.466 39.9416L107.431 39.9477C107.039 40.009 106.603 39.9775 106.205 39.9798C106.128 39.9803 105.929 39.9564 105.873 39.9816C105.833 39.9996 105.744 40.109 105.709 40.144L105.243 40.5986L103.935 41.8132C103.539 42.1693 103.101 42.5354 102.775 42.9553L102.741 42.9974L102.721 43.023C102.497 42.8492 102.263 42.6062 102.081 42.3904C102.013 42.296 101.91 42.2255 101.821 42.1521L102.983 39.9694Z" fill="#818C96"/>
<path d="M102.983 39.9694C103.107 39.9167 103.255 39.9392 103.389 39.9396L104.32 39.9424L107.466 39.9416L107.431 39.9477C107.04 40.009 106.603 39.9775 106.205 39.9798C106.128 39.9803 105.929 39.9564 105.873 39.9816C105.833 39.9996 105.745 40.109 105.709 40.144L105.243 40.5986L103.935 41.8132C103.54 42.1693 103.101 42.5354 102.775 42.9553L102.741 42.9974L102.721 43.023C102.498 42.8492 102.263 42.6062 102.081 42.3904L105.554 39.9814L102.983 39.9694Z" fill="#64676B"/>
<path d="M65.4237 37.6466L65.4213 39.4881L59.4989 45.2583L59.4419 45.2846L59.4033 45.2439C59.4186 45.0967 59.4403 44.9801 59.5214 44.854C60.0102 44.0927 60.6904 43.3992 61.2742 42.708C62.6843 41.0388 64.1431 39.4211 65.4237 37.6466Z" fill="#1D1F20"/>
<path d="M55.7651 31.9794C55.8983 31.9711 56.0728 32.0583 56.198 32.1047L57.2277 32.4926L58.5892 32.9704L64.8898 35.219L68.3369 36.3776L66.2808 36.381C66.0179 36.3802 65.6792 36.4207 65.4288 36.3679C65.1369 36.3064 64.8159 36.1245 64.5406 36.0014L62.519 35.0804C60.2712 34.0608 57.9439 33.1377 55.7651 31.9794Z" fill="#64676B"/>
<path d="M103.751 68.2594L105.075 68.2518C105.29 68.4964 105.46 68.854 105.636 69.1331L107.294 71.8575C107.476 72.1649 107.77 72.5227 107.881 72.857L107.78 72.8931L106.397 72.8938L104.721 70.1532L103.891 68.8227C103.811 68.6934 103.626 68.4346 103.625 68.2855L103.751 68.2594Z" fill="#1D1F20"/>
<path d="M59.2944 35.9336L60.4166 36.6569C60.5004 36.708 60.6729 36.8421 60.7639 36.8627C60.8258 36.8768 61.0008 36.8274 61.0701 36.8169L62.3217 36.6183C62.9651 36.5239 63.639 36.4853 64.275 36.3614L64.3079 36.3542L65.4648 36.9034L65.1221 37.2598C64.802 37.4015 64.5134 37.6412 64.2254 37.8394C63.6608 38.228 63.1025 38.62 62.5025 38.9532L60.6242 37.3267L59.7991 36.644C59.6678 36.5336 59.4904 36.4095 59.3881 36.2751C59.3234 36.1901 59.3108 36.0374 59.2944 35.9336Z" fill="#64676B"/>
<path d="M56.0453 42.1163C56.0451 41.8799 55.9901 40.927 56.0639 40.7682C56.1053 40.6792 56.247 40.5476 56.3138 40.4668L57.0229 39.6033L59.2642 36.7969L60.8945 38.1534L56.1037 42.1812L56.0453 42.1163Z" fill="#DFA715"/>
<path d="M70.6953 71.599L70.7027 71.007L86.9911 71.0094L87.3042 71.544L79.8182 71.6184L79.2549 71.6183C79.1685 71.5905 78.9819 71.6092 78.888 71.6084L77.8165 71.6244L72.9633 71.605L71.4278 71.6249C71.2032 71.6279 70.9079 71.6687 70.6953 71.599Z" fill="#2E3032"/>
<path d="M89.7642 53.8479L93.0101 55.3094C93.5127 55.5326 94.0798 55.715 94.5591 55.9754C94.8156 56.1149 95.0261 56.3343 95.263 56.5034C95.5892 56.7363 95.9678 56.9031 96.3329 57.0641L95.7059 57.1764L93.0774 57.5755C92.7294 57.6274 92.3247 57.7425 91.9757 57.7396L89.7642 53.8479Z" fill="#AEC1D3"/>
<path d="M95.1635 45.5825C95.3424 45.459 99.1098 45.5429 99.6485 45.5407L98.739 46.4529C98.739 46.458 98.6621 46.5318 98.6499 46.5439L96.4916 48.66C96.0091 49.1361 95.445 49.6153 95.0836 50.1914L95.0485 50.2478C95.0079 49.8639 95.0724 49.4239 95.0781 49.0347L95.1184 46.7933C95.1249 46.4042 95.0927 45.962 95.1635 45.5825Z" fill="url(#paint7_linear_117_5668)"/>
<path d="M91.4481 49.5035L94.1502 55.3124L92.8779 54.779L89.6006 53.2982L91.4481 49.5035Z" fill="#AEC1D3"/>
<path d="M101.259 51.6315C101.656 51.8099 102.022 52.0937 102.396 52.3188L105.252 54.0374L103.58 56.8187C103.188 57.4359 102.794 57.9993 102.32 58.5571C102.235 58.0135 102.243 57.433 102.202 56.8826C102.071 55.1061 101.899 53.3067 101.259 51.6315Z" fill="#AEC1D3"/>
<path d="M60.8947 38.1534L62.1123 39.2208L56.0517 44.4835L56.0454 42.1164L56.1038 42.1813L60.8947 38.1534Z" fill="url(#paint8_linear_117_5668)"/>
<path d="M92.2028 48.4449L93.8041 46.6269C94.0901 46.3127 94.3801 45.9586 94.7009 45.6807L94.6475 48.454C94.6666 48.6412 94.6417 48.8566 94.6376 49.0461L94.6124 50.3335C94.6103 50.4921 94.6573 50.8269 94.6154 50.961C94.5579 51.1451 94.3729 51.387 94.2802 51.5663C93.9755 52.1563 93.8219 52.7724 93.7736 53.4321L91.6899 49.0063L92.2028 48.4449Z" fill="url(#paint9_linear_117_5668)"/>
<path d="M100.07 45.7432L103.332 48.5514L98.5194 49.2744C97.548 49.4219 96.6982 49.6128 95.7744 49.9514L100.07 45.7432Z" fill="#90A7D3"/>
<path d="M101.474 54.2394C101.597 54.7036 101.625 55.2225 101.671 55.7012L101.89 59.1033L101.096 59.9152C101.052 59.9592 100.91 60.1328 100.86 60.1503C100.713 60.2018 100.372 60.173 100.208 60.1822L97.7235 60.3182L97.1943 60.3498L98.9805 58.0845C99.6609 57.2511 100.438 56.3655 100.967 55.4258C101.18 55.049 101.331 54.6465 101.474 54.2394Z" fill="#AEC1D3"/>
<path d="M103.638 48.9065C103.958 49.4874 104.182 50.1682 104.43 50.7852C104.803 51.7129 105.254 52.6731 105.485 53.6497L102.372 51.8215L100.252 50.5555C99.6985 50.2431 99.1547 49.9313 98.5586 49.7052L103.638 48.9065Z" fill="#AEC1D3"/>
<path d="M99.2481 56.9293L99.3523 56.8964L99.3896 56.9293L96.6533 60.3875L94.7562 60.509L93.6709 59.422L92.3369 58.1086L96.8254 57.4106C97.6685 57.2653 98.4311 57.2136 99.2481 56.9293Z" fill="#90A7D3"/>
<path d="M65.5586 68.1015C65.8135 68.0206 66.2822 68.0813 66.5586 68.0814L69.2562 68.0843L69.2254 73.0936L68.7647 73.1236C68.7573 72.6814 68.8829 70.8125 68.6799 70.5509C68.5874 70.4315 68.4549 70.3523 68.3027 70.3464C68.1514 70.3405 68.0173 70.3894 67.9079 70.4942C67.66 70.7316 67.724 71.2062 67.7223 71.5244L67.717 73.1276L67.1893 73.1308L67.1977 71.5911C67.1985 71.3206 67.2208 71.0185 67.1729 70.753C67.1574 70.6668 67.1098 70.5737 67.0496 70.5096C66.9613 70.4157 66.8356 70.3457 66.7038 70.3473C66.56 70.349 66.4841 70.3711 66.3845 70.4705C66.2986 70.5562 66.2306 70.6949 66.2073 70.814C66.1566 71.0731 66.1804 71.3901 66.1797 71.6545L66.1837 73.1305L65.6372 73.135C65.6379 72.3989 65.7302 68.4966 65.575 68.1358L65.5586 68.1015Z" fill="#2E3032"/>
<path d="M91.8618 58.2957L94.4402 60.8439L93.3386 63.167L92.3081 62.4979L88.9727 60.2924L91.8618 58.2957Z" fill="#9E1217"/>
<path d="M103.454 57.9351L106.449 59.7666L103.196 62.1367L101.769 63.031L101.086 60.5981C101.958 59.7664 102.737 58.9055 103.454 57.9351Z" fill="#9E1217"/>
<path d="M53.2779 31.585C52.8651 31.3348 52.4849 31.008 52.1323 30.6802L53.5076 31.3156L64.3078 36.3541L64.2749 36.3613C63.6389 36.4852 62.9649 36.5238 62.3216 36.6183L61.07 36.8169C61.0007 36.8273 60.8256 36.8768 60.7637 36.8627C60.6728 36.842 60.5002 36.7079 60.4165 36.6569L59.2943 35.9336C59.1604 35.8726 58.9999 35.7217 58.8759 35.6321L57.867 34.9097L55.0701 32.8953C54.4723 32.4679 53.8408 32.0573 53.2779 31.585Z" fill="url(#paint10_linear_117_5668)"/>
<path d="M87.8701 47.7615L91.1329 49.0929L89.3906 52.75L89.1375 53.2501L87.0601 53.6516L87.4284 51.0602C87.5637 49.9801 87.6015 48.8101 87.8701 47.7615Z" fill="#9E1217"/>
<path d="M106.818 47.9678C106.9 47.9535 106.857 47.9537 106.947 47.972L108.547 53.5356C108.28 53.5506 106.164 53.6055 106.043 53.5576C106.009 53.5443 105.984 53.5157 105.954 53.4947L104.166 48.8115L106.818 47.9678Z" fill="#EA2128"/>
<path d="M106.574 54.0099L108.531 53.9745L106.633 59.4029L105.961 58.975L103.702 57.5264L105.824 54.0234L106.574 54.0099Z" fill="#9E1217"/>
<path d="M105.647 68.2842L112.147 68.2967C112.059 68.4914 111.816 68.7117 111.674 68.8823L110.078 70.764L108.361 72.8344L105.647 68.2842Z" fill="#484D51"/>
<path d="M96.5277 39.9421L102.552 39.9479L101.407 42.1354L99.7367 42.1269L93.7744 42.1729L96.5277 39.9421Z" fill="#7B7C83"/>
<path d="M93.6758 42.6217L101.239 42.6154L100.359 44.2239L99.9434 45.0315L94.7811 45.0196L93.6758 42.6217Z" fill="#EA2128"/>
<path d="M88.9484 53.7587C89.0284 53.7437 89.0857 53.7382 89.1664 53.7507C89.4624 54.1732 89.702 54.6667 89.9545 55.1184L91.5422 57.9575L89.2301 59.596L88.6372 60.0054L87.0337 54.1205L88.9484 53.7587Z" fill="#9E1217"/>
<path d="M101.636 42.6953L106.705 47.6012L104.966 48.1012L103.907 48.4475L101.289 46.1339L100.569 45.5232C100.471 45.4405 100.337 45.3562 100.274 45.244L101.636 42.6953Z" fill="#EA2128"/>
<path d="M55.5376 52.0449L57.7751 52.0489L58.1371 52.0665C58.285 52.2736 58.1539 52.8815 58.1998 53.1604L55.5668 53.1596L55.5638 54.6612L56.2634 54.655L56.3266 54.6583C56.7006 54.6763 57.0728 54.6474 57.4462 54.6335C57.6919 54.6242 57.9447 54.6354 58.1878 54.601L58.2189 55.6841L56.3854 55.6981C56.1783 55.698 55.7954 55.6469 55.609 55.7218C55.4853 55.997 55.5634 56.9289 55.5642 57.277L58.1394 57.2646C58.2681 57.5434 58.1759 58.0514 58.2072 58.3693L55.569 58.3741L55.5702 59.985L58.3624 59.9824C58.4763 60.2009 58.4313 60.6629 58.4546 60.9219C58.551 61.9864 58.6853 63.0343 58.7137 64.1041L58.5353 63.9253L56.1405 61.423L55.6637 60.9011C55.6505 60.8863 55.5713 60.8089 55.5662 60.7907C55.5266 60.648 55.5603 60.378 55.5575 60.2224L55.5525 58.3121L55.5278 56.6992L55.5376 52.0449Z" fill="#2E3032"/>
<path d="M59.8627 71.3395C59.7028 71.4867 59.5313 71.6761 59.3479 71.7894L56.4752 68.7867C56.3664 68.6689 56.095 68.439 56.0331 68.3003C56.0223 68.2763 56.0332 68.1497 56.0332 68.1218L56.0334 67.5359L56.0425 63.954L59.733 67.7549L59.8627 71.3395Z" fill="#DFA715"/>
<path d="M93.301 42.7231L94.5076 45.2219C93.963 45.6868 93.4994 46.2841 93.03 46.8223L91.3158 48.7406L89.9655 48.1287L88.123 47.39L93.301 42.7231Z" fill="#EA2128"/>
<path d="M61.3384 54.9622L60.5303 54.8331L78.5472 44.6196L77.905 46.1777L61.3384 54.9622Z" fill="#DADBDB"/>
<path d="M107.695 48.5903L111.666 45.7708L112.207 45.3841C112.265 45.3418 112.399 45.2679 112.44 45.2145C112.463 45.1851 112.48 45.0468 112.49 45.0034L112.477 46.3065C112.474 46.4864 112.501 46.7333 112.456 46.9046C112.384 47.175 112.223 47.4583 112.103 47.7115L111.411 49.1716L108.57 55.3745C108.552 55.2551 108.634 55.105 108.679 54.9923L109.077 53.979C109.112 53.8946 109.117 53.839 109.104 53.748C109.012 53.1228 108.761 52.4666 108.589 51.8563L107.695 48.5903Z" fill="#484D51"/>
<path d="M62.5023 38.9531C63.1024 38.6199 63.6607 38.2279 64.2252 37.8394C64.5132 37.6411 64.8018 37.4014 65.1219 37.2598C64.7227 37.948 64.1384 38.5926 63.6367 39.2111L60.197 43.299L59.3097 44.3361C59.2299 44.4298 59.0739 44.5718 59.0225 44.6764C58.5959 45.0391 58.2372 45.4343 58.1894 46.0155L58.1792 47.6721L56.3403 47.6717C56.1309 47.6722 55.7874 47.6331 55.5978 47.7064L55.5688 47.71L55.5752 45.5087L62.7476 39.2406L62.5023 38.9531Z" fill="#2E3032"/>
<path d="M100.221 60.6366L100.661 60.5992L101.443 63.1984C99.3581 63.6122 97.2409 63.7554 95.1181 63.6153L93.7686 63.3879C93.8152 63.1364 94.0444 62.8049 94.1604 62.5681L94.9145 60.9834L100.221 60.6366Z" fill="#9E1217"/>
<path d="M61.8367 70.1625L62.6542 71.0414C62.7978 71.185 63.2331 71.5325 63.2691 71.7151C62.6025 72.2799 61.8844 72.7818 61.1767 73.293L58.5748 75.1886L53.4977 78.7834C53.0039 79.0983 52.5184 79.433 52.0029 79.7113L51.9844 79.0517C52.2681 78.6972 52.731 78.3923 53.0792 78.0916L55.1414 76.273L58.7541 73.0596L61.8367 70.1625Z" fill="#64676B"/>
<path d="M111.543 39.8794C111.637 39.8781 111.792 39.8563 111.88 39.8749C111.95 39.8895 112.153 40.1178 112.211 40.1742L112.166 40.2145L112.061 40.322C111.741 40.6779 111.275 40.9234 110.92 41.243L110.753 41.1141C110.351 40.9141 109.961 40.8098 109.518 40.957C109.222 41.0557 108.986 41.2492 108.774 41.4733C108.522 41.5942 108.305 41.8404 108.1 42.0312L104.403 44.6475L102.721 43.0229L102.741 42.9973L102.775 42.9552C103.101 42.5353 103.539 42.1692 103.935 41.8131L105.243 40.5985L105.709 40.1439C105.744 40.1089 105.833 39.9996 105.873 39.9816C105.929 39.9564 106.128 39.9802 106.205 39.9797C106.603 39.9774 107.039 40.0089 107.431 39.9476L107.466 39.9415C107.866 39.8834 108.373 39.9381 108.785 39.9366L111.543 39.8794Z" fill="#818C96"/>
<path d="M111.543 39.8794C111.637 39.8781 111.792 39.8563 111.88 39.8749C111.95 39.8895 112.153 40.1178 112.211 40.1742L112.166 40.2145L112.061 40.322C111.741 40.6779 111.275 40.9234 110.919 41.243L110.753 41.1141C110.782 41.0679 110.773 41.0866 110.792 41.0392C110.976 40.5644 111.4 40.2354 111.805 39.9404L111.832 39.9211L111.543 39.8794Z" fill="#7B7C83"/>
<path d="M107.455 60.2125C107.913 59.6881 108.581 59.2617 109.124 58.8213L112.5 56.0643L112.49 64.0845L107.455 60.2125Z" fill="#484D51"/>
<path d="M97.3071 66.3839L98.1374 64.5868C98.188 64.4779 98.2764 64.2003 98.353 64.1216C98.3609 64.1134 98.5486 64.1031 98.5738 64.1009C99.4779 64.0216 100.487 63.975 101.356 63.7114C102.485 63.369 103.515 62.5205 104.464 61.8468L106.777 60.196C107.164 60.5658 107.609 60.8779 108.036 61.1991L109.891 62.6065L97.3071 66.3839Z" fill="#484D51"/>
<path d="M58.7251 64.1836L65.1247 71.1059L65.138 72.4509C65.1397 72.6416 65.1692 72.8809 65.1254 73.0648L55.3145 78.2457V78.1917C56.2215 77.5956 57.0802 76.9096 57.9506 76.261L59.7893 74.8755C60.741 74.1665 61.6983 73.459 62.547 72.6258C62.8079 72.3696 63.1034 72.1018 63.297 71.7919L63.2694 71.7151C63.2334 71.5325 62.798 71.185 62.6545 71.0414L61.8369 70.1625L62.2662 69.7912L58.7939 66.0843C58.8337 65.4586 58.7828 64.8077 58.7251 64.1836Z" fill="#2E3032"/>
<path d="M108.609 56.1986C108.666 55.9601 108.863 55.655 108.97 55.4281L109.945 53.365L112.497 47.7991L112.5 56.0643L109.124 58.8212C108.581 59.2617 107.913 59.688 107.455 60.2124L107.172 59.9422C107.169 59.725 107.421 59.414 107.511 59.2024L108.321 57.0755C108.425 56.7924 108.622 56.5051 108.609 56.1986Z" fill="#64676B"/>
<path d="M81.2337 47.1867L79.3584 44.0388L82.4298 39.934L91.4244 39.9467L94.6623 39.9362L95.4752 39.9341C95.6222 39.9336 95.7806 39.9105 95.9142 39.9801L86.5872 39.9653L81.2337 47.1867Z" fill="#484D51"/>
<path d="M94.9703 64.1389L95.0228 64.146C95.3945 64.1916 95.7757 64.1769 96.1501 64.1767L97.8843 64.1412L96.1256 67.8388C95.751 67.887 95.3315 67.8492 94.9529 67.8477L92.5507 67.8441L84.1304 67.8503C84.2546 67.6606 84.3721 67.4602 84.5203 67.2883L84.5526 67.2914C84.6656 67.2933 84.7921 67.2475 84.903 67.2212L85.8035 66.9976L89.7193 65.9517C91.2454 65.5345 92.7697 65.1148 94.2506 64.5549C94.4881 64.4651 94.8855 64.3678 95.0674 64.1932L94.9703 64.1389Z" fill="#2E3032"/>
<path d="M84.52 67.2883L88.7997 60.7604C90.0028 61.4813 91.1164 62.3645 92.2986 63.1215C92.6817 63.3669 93.0744 63.6468 93.4961 63.8186C93.976 64.0141 94.4567 64.0914 94.9701 64.139L95.0672 64.1932C94.8853 64.3678 94.4879 64.4651 94.2504 64.555C92.7694 65.1148 91.2451 65.5346 89.7191 65.9517L85.8033 66.9976L84.9028 67.2212C84.7919 67.2475 84.6654 67.2934 84.5524 67.2915L84.52 67.2883Z" fill="#484D51"/>
<path d="M66.7114 39.9189L81.8731 39.9337L80.1928 42.1591L78.9118 43.8615L66.7114 39.9189Z" fill="#64676B"/>
<path d="M50.4643 36.2416L51.382 36.2601L51.3684 72.2187L49.8482 72.2286C49.7116 72.2282 49.4864 72.2566 49.3706 72.1868L50.4895 72.1911L50.4643 36.2416Z" fill="#484D51"/>
<path d="M97.0797 50.0477C97.9811 49.9358 98.8478 50.2581 99.6081 50.7179C100.309 51.142 100.831 51.8311 101.018 52.6313C101.225 53.5137 101.066 54.3659 100.591 55.129C100.059 55.9825 99.3266 56.475 98.3549 56.6988C97.404 56.8668 96.6237 56.7172 95.8183 56.1856C95.1449 55.741 94.5259 54.945 94.374 54.1388L94.3618 54.0711L94.3472 54.0012C94.1762 53.1381 94.3736 52.2705 94.8563 51.5461C95.4121 50.7119 96.1034 50.2399 97.0797 50.0477Z" fill="#EA2128"/>
<path d="M98.1017 50.6009C98.4389 50.5705 98.7521 50.5878 99.0668 50.7248C99.6267 50.9682 100.114 51.41 100.338 51.9858C100.495 52.3876 100.495 52.8059 100.314 53.1992C100.142 53.5753 99.8047 53.7527 99.4351 53.8883C99.0196 53.9622 98.5928 53.9064 98.2086 53.7366C97.7527 53.5351 97.346 53.0904 97.1669 52.6282C97.014 52.2334 96.9905 51.7723 97.1719 51.3824C97.3679 50.9608 97.68 50.7514 98.1017 50.6009Z" fill="#F2A2A7"/>
<path d="M112.211 40.1742L112.5 40.4614L112.498 43.5208L112.49 45.0034C112.479 45.0468 112.463 45.1851 112.44 45.2145C112.398 45.2679 112.265 45.3418 112.207 45.3841L111.666 45.7708L107.695 48.5903L107.572 48.1612L107.443 47.7309C107.422 47.6553 107.411 47.5972 107.361 47.5335C107.154 47.2681 106.83 47.0173 106.588 46.7791L104.403 44.6475L108.1 42.0312C108.305 41.8404 108.522 41.5942 108.774 41.4733C108.986 41.2492 109.222 41.0557 109.518 40.957C109.961 40.8098 110.351 40.9141 110.753 41.1141L110.92 41.243C111.275 40.9234 111.741 40.6779 112.061 40.322L112.166 40.2145L112.211 40.1742Z" fill="url(#paint11_linear_117_5668)"/>
<path d="M108.1 42.0313C108.305 41.8405 108.522 41.5943 108.774 41.4734C108.536 41.9621 108.419 42.3527 108.603 42.8866C108.727 43.2444 109.087 43.5911 109.432 43.7327C109.73 43.8552 110.079 43.8402 110.368 43.7025C110.764 43.5143 111.123 43.1576 111.264 42.7371C111.31 42.5991 111.33 42.4477 111.353 42.3042L111.382 42.3057L111.432 42.3008C111.495 42.4282 111.497 42.4981 111.47 42.6362C111.331 43.3638 110.717 43.9306 110.138 44.3346C109.767 44.5937 109.31 44.7132 108.862 44.6206C108.472 44.5397 108.124 44.2811 107.914 43.945C107.731 43.6509 107.695 43.1758 107.78 42.8433L107.793 42.7963C107.866 42.5214 107.977 42.2866 108.1 42.0313Z" fill="#484D51"/>
<path d="M107.572 48.1613C108.997 46.852 110.279 45.3913 111.761 44.1509C112.009 43.9441 112.229 43.7008 112.498 43.5209L112.49 45.0035C112.479 45.0469 112.463 45.1852 112.44 45.2146C112.398 45.268 112.265 45.3419 112.207 45.3842L111.666 45.7709L107.695 48.5904L107.572 48.1613Z" fill="#64676B"/>
<path d="M108.774 41.4733C108.986 41.2492 109.222 41.0556 109.518 40.957C109.961 40.8098 110.351 40.9141 110.753 41.1141L110.92 41.243C111.17 41.5437 111.371 41.899 111.353 42.3042C111.33 42.4476 111.31 42.599 111.264 42.737C111.123 43.1575 110.764 43.5142 110.368 43.7025C110.079 43.8401 109.73 43.8552 109.432 43.7326C109.087 43.5911 108.727 43.2443 108.603 42.8865C108.419 42.3526 108.536 41.9621 108.774 41.4733Z" fill="#030302"/>
<path d="M110.794 42.0229C110.847 42.3012 110.88 42.5264 110.716 42.777C110.516 43.0836 110.235 43.2182 109.894 43.3058C109.546 43.2034 109.297 43.1023 109.118 42.7553C109.073 42.6685 109.048 42.574 109.023 42.4799C109.278 42.5281 110.604 42.5399 110.747 42.4444C110.743 42.3236 110.739 42.2068 110.773 42.0898L110.794 42.0229Z" fill="#EA2128"/>
<path d="M109.023 42.48C109.017 42.3269 109.002 42.1601 109.048 42.0122C109.129 41.7544 109.321 41.5421 109.561 41.4216C109.732 41.3356 110.007 41.3215 110.187 41.3841C110.503 41.494 110.659 41.7372 110.794 42.023L110.773 42.0898C110.739 42.2068 110.743 42.3236 110.747 42.4444C110.604 42.5399 109.278 42.5281 109.023 42.48Z" fill="#FC5757"/>
<path d="M59.6074 56.0809L66.4594 64.393L68.5585 66.9459C68.7851 67.2256 69.1454 67.5665 69.2895 67.8882L69.171 67.9325C68.7435 67.9384 65.3532 67.9789 65.271 67.8984C64.7972 67.435 64.3806 66.8866 63.9427 66.3877L61.0984 63.1366L59.9345 61.8039C59.8609 61.7176 59.6596 61.5338 59.6216 61.4353C59.6008 61.3815 59.6198 61.2055 59.6194 61.1421L59.6175 60.2756L59.6074 56.0809Z" fill="#64676B"/>
<path d="M49.3704 72.1868C49.3141 72.0304 49.3454 71.813 49.3459 71.644L49.3467 70.4255L49.3422 65.8362L49.3354 36.2288L50.4641 36.2415L50.4893 72.1911L49.3704 72.1868Z" fill="#60ADB8"/>
<path d="M81.7993 48.1275L83.6591 47.0016L90.0481 43.4355L95.0657 40.565C95.124 40.5327 95.1755 40.5342 95.2396 40.5385L92.9882 42.373L91.4522 43.7874L88.48 46.3965C88.1713 46.6755 87.6242 47.0725 87.4464 47.4368C87.2944 47.7477 87.2861 48.2103 87.2411 48.5506L87.0049 50.2701L86.7024 52.3794C86.6263 52.8867 86.5295 53.4073 86.4961 53.9191C86.4807 54.1549 86.5615 54.3975 86.6246 54.6225L86.9058 55.5869C87.1471 56.3971 87.41 57.2114 87.5711 58.0417L81.7993 48.1275Z" fill="#64676B"/>
<path d="M59.6811 54.9401L59.7137 54.9933C60.3245 55.3093 61.2009 55.3786 61.8757 55.4965L64.0119 55.885L72.8205 57.534C72.6576 57.718 72.3266 57.8794 72.1175 58.0193L70.2963 59.236L65.5144 62.45C64.9309 61.8782 64.4518 61.1726 63.93 60.5444L62.1974 58.4893L59.5586 55.3048L59.5916 52.5144L59.6072 54.2224C59.6076 54.4122 59.5795 54.652 59.6107 54.837C59.6184 54.8826 59.6499 54.9103 59.6811 54.9401Z" fill="#1D1F20"/>
<path d="M81.2339 47.1867L86.5874 39.9653L95.9143 39.9801C95.7714 40.1419 95.4372 40.4443 95.2398 40.5385C95.1757 40.5343 95.1242 40.5328 95.0659 40.565L90.0483 43.4355L83.6593 47.0016L81.7995 48.1276L81.2339 47.1867Z" fill="#7B7C83"/>
<path d="M87.4732 61.3113L87.5467 61.3176C87.5684 61.3623 87.5771 61.3741 87.5872 61.4297C87.5971 61.484 87.6032 61.6134 87.5906 61.6666C87.5607 61.7925 87.42 61.965 87.3467 62.0756L86.8237 62.8913C85.7644 64.5464 84.7464 66.2636 83.576 67.8423L69.8274 67.881L66.6707 63.919L66.3384 63.4848C66.843 63.7219 67.3905 63.8863 67.9169 64.0693L70.5893 64.9765L77.4269 67.2865L87.4732 61.3113Z" fill="#2E3032"/>
<path d="M73.2919 57.7742L76.8398 65.5297L77.2259 66.384C77.2589 66.4624 77.2976 66.6248 77.3458 66.6812C77.3707 66.7103 77.4094 66.7238 77.4412 66.7452C77.4082 66.7561 77.3769 66.7755 77.3422 66.778C77.2038 66.788 76.8525 66.6319 76.7126 66.586L73.8489 65.5813L67.6786 63.5321L65.7715 62.8628C65.8667 62.7567 66.038 62.6724 66.1592 62.5938L66.9148 62.0889L71.2757 59.1579L72.6498 58.2434C72.8441 58.1104 73.087 57.9763 73.2547 57.8118L73.2919 57.7742Z" fill="#818C96"/>
<path d="M65.8613 37.3081L65.8946 37.0623C66.0563 36.9569 67.2141 37.007 67.4948 37.0034L73.6072 36.9629L97.3392 36.9578L109.249 36.9458L110.84 38.6223L110.811 38.6432C110.521 38.7955 106.776 38.5797 106.148 38.56L100.95 38.4139L98.4044 38.389L90.5336 38.2296L87.0311 38.0966L78.0899 37.8245L73.5389 37.6157L68.5396 37.4759L66.921 37.364C66.5634 37.3437 66.2153 37.387 65.8613 37.3081Z" fill="#DADBDB"/>
<path d="M73.292 57.7741C73.333 57.7558 73.4135 57.7055 73.4544 57.7013C73.5302 57.6934 73.7191 57.7669 73.7982 57.7875L75.3322 58.237L80.2383 59.6003L86.425 61.3241L77.4413 66.7452C77.4095 66.7238 77.3707 66.7102 77.3459 66.6812C77.2977 66.6248 77.2589 66.4624 77.226 66.384L76.8399 65.5297L73.292 57.7741Z" fill="#AEC1D3"/>
<path d="M109.891 62.6064L112.464 64.5654L112.46 67.859L96.5991 67.8725L97.3071 66.3839L109.891 62.6064Z" fill="#2E3032"/>
<path d="M109.694 64.7326C109.963 64.7149 110.206 64.7642 110.445 64.8909C110.842 65.101 111.131 65.454 111.254 65.8861C111.345 66.2052 111.298 66.5347 111.133 66.8223C110.927 67.1826 110.628 67.3163 110.247 67.4178C109.941 67.4179 109.704 67.3986 109.42 67.2669C109.033 67.0874 108.748 66.7378 108.619 66.3334C108.514 66.0018 108.54 65.6735 108.716 65.371C108.935 64.9949 109.291 64.8359 109.694 64.7326Z" fill="#030302"/>
<path d="M110.635 65.5911C110.753 65.7869 110.752 65.9874 110.699 66.2066C110.639 66.4569 110.506 66.6458 110.287 66.7833C110.088 66.9084 109.826 66.918 109.604 66.8639C109.389 66.8117 109.258 66.6564 109.124 66.4922C109.234 66.4684 109.343 66.4438 109.447 66.3998C109.767 66.2641 110.104 65.9981 110.226 65.665L110.238 65.6297C110.366 65.5579 110.492 65.586 110.635 65.5911Z" fill="#580E0F"/>
<path d="M109.124 66.4921C109.001 66.2474 108.947 66.0921 108.981 65.8117C109.006 65.6032 109.123 65.4204 109.289 65.2941C109.504 65.1307 109.766 65.0783 110.03 65.1252C110.295 65.1723 110.482 65.3897 110.636 65.5911C110.492 65.5859 110.366 65.5578 110.238 65.6297L110.226 65.665C110.104 65.998 109.767 66.2641 109.447 66.3997C109.343 66.4437 109.234 66.4683 109.124 66.4921Z" fill="#EA2128"/>
<path d="M65.8613 37.3081C66.2153 37.387 66.5634 37.3437 66.921 37.364L68.5396 37.4759L73.5389 37.6156L78.0899 37.8245L87.0311 38.0966L90.5336 38.2296L98.4044 38.389L100.95 38.4139L106.148 38.5599C106.776 38.5797 110.521 38.7955 110.811 38.6432L110.84 38.6222L110.843 38.6222L111.557 39.3673L65.8749 39.4634L65.8613 37.3081Z" fill="#BCBBBA"/>
<path d="M47.9527 32.9804C48.1762 32.898 48.4959 32.9391 48.7337 32.9387C49.2132 32.9376 49.7319 32.8968 50.202 32.9742L50.5099 32.9894L50.5225 35.2337L49.681 35.2379C49.5898 35.2384 49.3986 35.219 49.3179 35.2596C49.2496 35.294 49.1596 35.3864 49.1033 35.4396C49.0366 35.5026 48.9778 35.5825 48.9486 35.6702C48.8722 35.8997 48.9032 36.217 48.9015 36.4581L48.8936 38.0022L48.8927 44.5997L48.8994 72.168C48.9019 72.382 48.9027 72.539 49.0715 72.6884L49.0962 72.7057C49.1814 72.9555 49.1339 73.3228 49.1346 73.5875C49.1359 74.0615 49.1647 74.5548 49.1305 75.0269L47.7544 75.0216C47.6705 74.9716 47.6209 74.9516 47.5768 74.8597C47.4432 74.5812 47.5245 72.0403 47.5248 71.5631L47.5219 64.6019L47.5164 41.2066L47.5532 35.1811L47.554 33.9634C47.5541 33.7648 47.5268 33.531 47.5909 33.3433L47.6068 33.2922C47.6735 33.1248 47.7954 33.0515 47.9527 32.9804Z" fill="#2E3032"/>
<path d="M47.9525 32.9803L50.0929 32.9838L47.583 35.1845L47.5907 33.3432L47.6066 33.2921C47.6733 33.1247 47.7951 33.0514 47.9525 32.9803Z" fill="#818C96"/>
<path d="M77.905 46.1777L73.4311 57.2271L61.3384 54.9622L77.905 46.1777Z" fill="#AEC1D3"/>
<path d="M53.8932 76.7639L51.9795 78.4075L52.0366 31.1643L59.0314 36.3156C58.8001 36.7172 58.438 37.0998 58.1496 37.4667L58.0838 37.4217L53.9121 34.0113L53.8932 76.7639Z" fill="#64676B"/>
<path d="M53.8931 76.7638L53.9119 34.0112L58.0837 37.4216L58.1495 37.4666L55.5724 40.6171L55.5751 45.5087L55.5688 47.71C55.5057 47.9007 55.5305 48.1338 55.5295 48.335L55.5387 49.756C55.5398 50.3752 55.4842 51.0241 55.5386 51.6383L55.5375 52.0449L55.5277 56.6991L55.5524 58.312L55.5574 60.2224C55.5601 60.378 55.5264 60.6479 55.5661 60.7906C55.5711 60.8088 55.6504 60.8862 55.6636 60.9011L56.1404 61.423L58.5352 63.9253L58.7135 64.104L58.7249 64.1836C58.7826 64.8076 58.8335 65.4586 58.7937 66.0842L56.7107 63.9821C56.4901 63.7642 56.2024 63.3993 55.9262 63.2659C55.8017 63.2752 55.7529 63.2952 55.6488 63.3642C55.6071 63.4164 55.586 63.4561 55.5788 63.5237C55.55 63.7955 55.568 64.0859 55.5676 64.3593L55.5665 65.8581C55.5663 66.6993 55.5071 67.5792 55.5687 68.4134C55.5917 68.7241 58.5795 71.596 59.0117 72.1366L53.8931 76.7638Z" fill="#484D51"/>
<path d="M81.4213 48.3291L82.9889 50.9653L85.7546 55.6873L87.1304 58.0998C87.347 58.4798 87.5912 58.8549 87.7891 59.2444C87.995 59.6494 88.0727 60.1214 88.2757 60.5389L88.2559 60.5744L87.5096 60.9417C87.4429 60.9737 87.2919 61.0672 87.2238 61.0749C87.1148 61.0873 86.7318 60.9252 86.6004 60.8873L83.7825 60.0727L73.9321 57.3243L79.1319 44.4998L80.5093 46.7754L81.4213 48.3291Z" fill="#484D51"/>
<path d="M80.5093 46.7755L81.4212 48.3292L76.3008 53.8122C76.9346 52.4029 77.7966 51.0685 78.6165 49.7599L80.5093 46.7755Z" fill="#818C96"/>
<path d="M70.6841 68.3149L103.136 68.2987L105.831 72.8178L105.727 72.8756L88.5838 72.9467L87.2751 70.64L70.6856 70.6455L70.6841 68.3149Z" fill="#484D51"/>
<path d="M59.5913 52.5144L59.603 45.9955C59.7917 45.7143 60.0792 45.4655 60.3168 45.2228L61.6365 43.88L64.1628 41.3071C64.5806 40.8879 65.0464 40.3143 65.553 40.0169C65.6274 39.9732 65.6372 39.9946 65.7169 40.0131L75.7644 43.3438L77.4884 43.908C77.7529 43.996 78.1288 44.0638 78.3573 44.2074L59.722 54.9141L59.6808 54.94C59.6496 54.9103 59.6181 54.8825 59.6104 54.8369C59.5792 54.652 59.6073 54.4121 59.6069 54.2223L59.5913 52.5144Z" fill="#484D51"/>
<path d="M75.7643 43.3439L77.4883 43.9081C77.4588 43.9566 77.4277 43.9961 77.3853 44.0341C77.1358 44.2571 76.818 44.4316 76.5352 44.6101L74.4106 45.8483L69.6798 48.4838L65.4527 50.6322L64.3869 51.1709C64.2644 51.2335 64.068 51.3697 63.9351 51.363L75.7643 43.3439Z" fill="#818C96"/>
<path d="M59.5913 52.5144L59.603 45.9955C59.7917 45.7143 60.0792 45.4655 60.3168 45.2228L61.6365 43.88L64.1628 41.3071C64.5806 40.8879 65.0464 40.3143 65.553 40.0169C65.6274 39.9732 65.6372 39.9946 65.7169 40.0131C65.5364 40.378 65.3969 40.7692 65.242 41.1461L64.2755 43.5562L62.1439 48.8106L60.295 53.36C60.1018 53.8522 59.8081 54.3922 59.722 54.9141L59.6808 54.94C59.6496 54.9103 59.6181 54.8825 59.6104 54.8369C59.5792 54.652 59.6073 54.4121 59.6069 54.2223L59.5913 52.5144Z" fill="#2E3032"/>
<path d="M150.334 26.9873V13.4204L138.585 6.63721L126.835 13.4204V26.9873L138.585 33.7705L150.334 26.9873Z" fill="#66FECB"/>
<path d="M145.447 24.1658V16.2412L138.584 12.2795L131.722 16.2412V24.1658L138.584 28.1281L145.447 24.1658Z" fill="#66FECB"/>
<path d="M141.167 21.6948V18.7129L138.585 17.2216L136.002 18.7129V21.6948L138.585 23.1861L141.167 21.6948Z" fill="url(#paint12_linear_117_5668)"/>
<path d="M138.584 12.2796V6.63721L150.334 13.4204L145.447 16.2412L138.584 12.2796Z" fill="#5EDEB3"/>
<path d="M145.447 24.1659V16.2413L150.334 13.4204V26.9874L145.447 24.1659Z" fill="#01B478"/>
<path d="M138.584 28.1281V33.7704L150.334 26.9873L145.447 24.1658L138.584 28.1281Z" fill="#1DCE92"/>
<path d="M131.722 24.1658L126.835 26.9873L138.585 33.7704V28.1281L131.722 24.1658Z" fill="#01B478"/>
<path d="M126.835 13.4204L131.722 16.2413V24.1659L126.835 26.9874V13.4204Z" fill="#5EDEB3"/>
<path d="M138.585 12.2796L131.722 16.2412L126.835 13.4204L138.585 6.63721V12.2796Z" fill="#2AFFB7"/>
<path d="M150.334 13.4204L145.148 16.0697L138.816 12.4109L138.584 6.63513L138.353 12.4109L132.018 16.0677L126.833 13.4183L131.72 16.2398V19.0544C131.812 18.175 131.904 17.2951 131.996 16.4147L138.584 12.8327L145.171 16.4147C145.263 17.2951 145.356 18.175 145.448 19.0544V16.2398L145.517 16.2018L150.334 13.4204Z" fill="white"/>
<path d="M138.585 5.13205L139.237 5.50816L150.985 12.292L151.637 12.6681V27.7402L150.985 28.1164L139.237 34.9002L138.585 35.2763L137.933 34.9002L126.184 28.1164L125.532 27.7402V12.6681L126.184 12.292L137.933 5.50816L138.585 5.13205ZM138.585 4.3501C138.447 4.35023 138.313 4.38647 138.194 4.45519L137.542 4.8313L125.793 11.6144L125.141 11.9906C125.022 12.0592 124.924 12.158 124.855 12.2769C124.786 12.3959 124.75 12.5308 124.75 12.6681V27.7402C124.75 27.8776 124.786 28.0125 124.855 28.1314C124.924 28.2504 125.022 28.3491 125.141 28.4178L125.793 28.7939L137.54 35.5764L138.192 35.9525C138.311 36.0213 138.446 36.0576 138.583 36.0576C138.72 36.0576 138.855 36.0213 138.974 35.9525L139.625 35.5764L151.376 28.7967L152.028 28.4206C152.147 28.3519 152.245 28.2531 152.314 28.1342C152.383 28.0153 152.419 27.8803 152.419 27.743V12.6709C152.419 12.5335 152.383 12.3986 152.314 12.2797C152.245 12.1608 152.147 12.062 152.028 11.9933L151.376 11.6172L139.627 4.83407L138.976 4.45795C138.857 4.38924 138.722 4.35299 138.585 4.35286V4.3501Z" fill="#441F00"/>
<path d="M150.985 12.292L139.236 5.5082L138.584 5.13208L137.933 5.5082L126.184 12.292L125.532 12.6681V27.7403L126.184 28.1164L137.933 34.9002L138.584 35.2763L139.236 34.9002L150.985 28.1164L151.637 27.7403V12.6681L150.985 12.292ZM138.584 30.8501L136.925 32.8136L128.49 27.9442L129.361 25.5244L126.832 25.0702V15.3348L129.361 14.8813L128.489 12.4614L136.924 7.59271L138.584 9.55692L140.243 7.59271L148.678 12.4614L147.806 14.8813L150.336 15.3348V25.0729L147.806 25.5272L148.678 27.947L140.243 32.8164L138.584 30.8501Z" fill="url(#paint13_linear_117_5668)"/>
<path d="M150.334 15.3347L147.804 14.8812L148.676 12.4614L140.241 7.59265L138.582 9.55686L136.922 7.59265L128.488 12.4614L129.359 14.8812L126.83 15.3347V25.0729L129.359 25.5271L128.488 27.9469L136.923 32.8163L138.582 30.8528L140.242 32.8163L148.677 27.9469L147.805 25.5271L150.335 25.0729L150.334 15.3347ZM140.36 8.2626L148.034 12.695L147.31 14.7001C147.291 14.7563 147.282 14.8155 147.283 14.875L141.424 18.2572L138.842 16.7666V10.0014C138.894 9.97273 138.941 9.93505 138.98 9.89011L140.36 8.2626ZM138.584 23.1847L136.002 21.6934V18.7115L138.584 17.2201L141.167 18.7115V21.6934L138.584 23.1847ZM136.81 8.2626L138.186 9.89287C138.225 9.93802 138.272 9.97593 138.325 10.0049V16.7687L135.742 18.2614L129.884 14.8791C129.885 14.8196 129.875 14.7605 129.856 14.7042L129.133 12.6992L136.81 8.2626ZM127.356 15.771L129.457 15.3942C129.515 15.3827 129.571 15.3612 129.622 15.3306L135.481 18.7128V21.6948L129.622 25.077C129.571 25.0466 129.515 25.0254 129.457 25.0141L127.356 24.6366V15.771ZM136.81 32.1436L129.135 27.7112L129.859 25.7062C129.878 25.6499 129.887 25.5907 129.887 25.5312L135.745 22.149L138.327 23.6396V30.4048C138.275 30.4337 138.228 30.4714 138.189 30.5161L136.81 32.1436ZM148.037 27.7112L140.363 32.1436L138.986 30.5133C138.947 30.4686 138.9 30.4309 138.848 30.402V23.6369L141.43 22.1462L147.289 25.5285C147.288 25.588 147.297 25.6472 147.317 25.7034L148.037 27.7112ZM149.813 24.6366L147.712 25.0141C147.654 25.0254 147.598 25.0466 147.547 25.077L141.688 21.6948V18.7128L147.547 15.3306C147.598 15.3612 147.654 15.3827 147.712 15.3942L149.813 15.771V24.6366Z" fill="#441F00"/>
<path d="M150.334 26.6473V13.0803L138.585 6.29712L126.835 13.0803V26.6473L138.585 33.4304L150.334 26.6473Z" fill="#66FECB"/>
<path d="M145.447 23.8257V15.9011L138.584 11.9395L131.722 15.9011V23.8257L138.584 27.788L145.447 23.8257Z" fill="#66FECB"/>
<path d="M141.167 21.3547V18.3728L138.585 16.8815L136.002 18.3728V21.3547L138.585 22.846L141.167 21.3547Z" fill="url(#paint14_linear_117_5668)"/>
<path d="M138.584 11.9395V6.29712L150.334 13.0803L145.447 15.9011L138.584 11.9395Z" fill="#5EDEB3"/>
<path d="M145.447 23.8258V15.9012L150.334 13.0803V26.6473L145.447 23.8258Z" fill="#01B478"/>
<path d="M138.584 27.788V33.4304L150.334 26.6472L145.447 23.8257L138.584 27.788Z" fill="#1DCE92"/>
<path d="M131.722 23.8257L126.835 26.6472L138.585 33.4304V27.788L131.722 23.8257Z" fill="#01B478"/>
<path d="M126.835 13.0803L131.722 15.9012V23.8258L126.835 26.6473V13.0803Z" fill="#5EDEB3"/>
<path d="M138.585 11.9395L131.722 15.9011L126.835 13.0803L138.585 6.29712V11.9395Z" fill="#2AFFB7"/>
<path d="M150.334 13.0803L145.148 15.7296L138.816 12.0709L138.584 6.29504L138.353 12.0709L132.018 15.7276L126.833 13.0782L131.72 15.8997V18.7143C131.812 17.8349 131.904 16.955 131.996 16.0746L138.584 12.4926L145.171 16.0746C145.263 16.955 145.356 17.8349 145.448 18.7143V15.8997L145.517 15.8617L150.334 13.0803Z" fill="white"/>
<path d="M138.585 4.79196L139.237 5.16807L150.985 11.9519L151.637 12.328V27.4002L150.985 27.7763L139.237 34.5601L138.585 34.9362L137.933 34.5601L126.184 27.7763L125.532 27.4002V12.328L126.184 11.9519L137.933 5.16807L138.585 4.79196ZM138.585 4.01001C138.447 4.01014 138.313 4.04638 138.194 4.1151L137.542 4.49121L125.793 11.2744L125.141 11.6505C125.022 11.7191 124.924 11.8179 124.855 11.9368C124.786 12.0558 124.75 12.1907 124.75 12.328V27.4002C124.75 27.5375 124.786 27.6724 124.855 27.7913C124.924 27.9103 125.022 28.009 125.141 28.0777L125.793 28.4538L137.54 35.2363L138.192 35.6124C138.311 35.6812 138.446 35.7175 138.583 35.7175C138.72 35.7175 138.855 35.6812 138.974 35.6124L139.625 35.2363L151.376 28.4566L152.028 28.0805C152.147 28.0118 152.245 27.913 152.314 27.7941C152.383 27.6752 152.419 27.5403 152.419 27.4029V12.3308C152.419 12.1934 152.383 12.0585 152.314 11.9396C152.245 11.8207 152.147 11.7219 152.028 11.6532L151.376 11.2771L139.627 4.49398L138.976 4.11786C138.857 4.04915 138.722 4.01291 138.585 4.01277V4.01001Z" fill="#434343"/>
<path d="M150.985 11.9519L139.236 5.16811L138.584 4.79199L137.933 5.16811L126.184 11.9519L125.532 12.3281V27.4002L126.184 27.7763L137.933 34.5601L138.584 34.9362L139.236 34.5601L150.985 27.7763L151.637 27.4002V12.3281L150.985 11.9519ZM138.584 30.51L136.925 32.4735L128.49 27.6041L129.361 25.1843L126.832 24.7301V14.9947L129.361 14.5412L128.489 12.1213L136.924 7.25263L138.584 9.21684L140.243 7.25263L148.678 12.1213L147.806 14.5412L150.336 14.9947V24.7328L147.806 25.1871L148.678 27.6069L140.243 32.4763L138.584 30.51Z" fill="url(#paint15_linear_117_5668)"/>
<path d="M150.334 14.9947L147.804 14.5411L148.676 12.1213L140.241 7.25256L138.582 9.21677L136.922 7.25256L128.488 12.1213L129.359 14.5411L126.83 14.9947V24.7328L129.359 25.187L128.488 27.6068L136.923 32.4762L138.582 30.5127L140.242 32.4762L148.677 27.6068L147.805 25.187L150.335 24.7328L150.334 14.9947ZM140.36 7.92251L148.034 12.355L147.31 14.36C147.291 14.4162 147.282 14.4754 147.283 14.5349L141.424 17.9171L138.842 16.4265V9.66134C138.894 9.63264 138.941 9.59496 138.98 9.55002L140.36 7.92251ZM138.584 22.8446L136.002 21.3533V18.3714L138.584 16.8801L141.167 18.3714V21.3533L138.584 22.8446ZM136.81 7.92251L138.186 9.55278C138.225 9.59793 138.272 9.63584 138.325 9.66479V16.4286L135.742 17.9213L129.884 14.539C129.885 14.4795 129.875 14.4204 129.856 14.3641L129.133 12.3591L136.81 7.92251ZM127.356 15.4309L129.457 15.0541C129.515 15.0426 129.571 15.0211 129.622 14.9905L135.481 18.3727V21.3547L129.622 24.7369C129.571 24.7066 129.515 24.6853 129.457 24.674L127.356 24.2965V15.4309ZM136.81 31.8035L129.135 27.3711L129.859 25.3661C129.878 25.3098 129.887 25.2506 129.887 25.1912L135.745 21.8089L138.327 23.2995V30.0647C138.275 30.0936 138.228 30.1313 138.189 30.176L136.81 31.8035ZM148.037 27.3711L140.363 31.8035L138.986 30.1733C138.947 30.1285 138.9 30.0909 138.848 30.0619V23.2968L141.43 21.8062L147.289 25.1884C147.288 25.2479 147.297 25.3071 147.317 25.3633L148.037 27.3711ZM149.813 24.2965L147.712 24.674C147.654 24.6853 147.598 24.7066 147.547 24.7369L141.688 21.3547V18.3727L147.547 14.9905C147.598 15.0211 147.654 15.0426 147.712 15.0541L149.813 15.4309V24.2965Z" fill="#434343"/>
<defs>
<linearGradient id="paint0_linear_117_5668" x1="61.4526" y1="69.4967" x2="59.7606" y2="69.5032" gradientUnits="userSpaceOnUse">
<stop stop-color="#CC890B"/>
<stop offset="1" stop-color="#AF6E0F"/>
</linearGradient>
<linearGradient id="paint1_linear_117_5668" x1="96.8362" y1="50.3851" x2="97.3663" y2="45.3118" gradientUnits="userSpaceOnUse">
<stop stop-color="#5BB6CE"/>
<stop offset="1" stop-color="#F3EFF0"/>
</linearGradient>
<linearGradient id="paint2_linear_117_5668" x1="59.2559" y1="42.0345" x2="58.0068" y2="40.2806" gradientUnits="userSpaceOnUse">
<stop stop-color="#D38D0A"/>
<stop offset="1" stop-color="#C27313"/>
</linearGradient>
<linearGradient id="paint3_linear_117_5668" x1="92.0249" y1="52.3322" x2="95.5894" y2="46.2456" gradientUnits="userSpaceOnUse">
<stop stop-color="#6B98CD"/>
<stop offset="1" stop-color="#C1E9E3"/>
</linearGradient>
<linearGradient id="paint4_linear_117_5668" x1="58.5577" y1="37.0314" x2="57.929" y2="30.2127" gradientUnits="userSpaceOnUse">
<stop stop-color="#A19EA1"/>
<stop offset="1" stop-color="#C2C3C1"/>
</linearGradient>
<linearGradient id="paint5_linear_117_5668" x1="104.743" y1="45.4701" x2="113.138" y2="43.2668" gradientUnits="userSpaceOnUse">
<stop stop-color="#606166"/>
<stop offset="1" stop-color="#848586"/>
</linearGradient>
<linearGradient id="paint6_linear_117_5668" x1="61.4526" y1="69.4967" x2="59.7606" y2="69.5032" gradientUnits="userSpaceOnUse">
<stop stop-color="#CC890B"/>
<stop offset="1" stop-color="#AF6E0F"/>
</linearGradient>
<linearGradient id="paint7_linear_117_5668" x1="96.8362" y1="50.3851" x2="97.3663" y2="45.3118" gradientUnits="userSpaceOnUse">
<stop stop-color="#5BB6CE"/>
<stop offset="1" stop-color="#F3EFF0"/>
</linearGradient>
<linearGradient id="paint8_linear_117_5668" x1="59.2559" y1="42.0345" x2="58.0068" y2="40.2806" gradientUnits="userSpaceOnUse">
<stop stop-color="#D38D0A"/>
<stop offset="1" stop-color="#C27313"/>
</linearGradient>
<linearGradient id="paint9_linear_117_5668" x1="92.0249" y1="52.3322" x2="95.5894" y2="46.2456" gradientUnits="userSpaceOnUse">
<stop stop-color="#6B98CD"/>
<stop offset="1" stop-color="#C1E9E3"/>
</linearGradient>
<linearGradient id="paint10_linear_117_5668" x1="58.5577" y1="37.0314" x2="57.929" y2="30.2127" gradientUnits="userSpaceOnUse">
<stop stop-color="#A19EA1"/>
<stop offset="1" stop-color="#C2C3C1"/>
</linearGradient>
<linearGradient id="paint11_linear_117_5668" x1="104.743" y1="45.4701" x2="113.138" y2="43.2668" gradientUnits="userSpaceOnUse">
<stop stop-color="#606166"/>
<stop offset="1" stop-color="#848586"/>
</linearGradient>
<linearGradient id="paint12_linear_117_5668" x1="138.585" y1="23.1854" x2="138.585" y2="17.2216" gradientUnits="userSpaceOnUse">
<stop stop-color="#9C3600"/>
<stop offset="0.04" stop-color="#A44401"/>
<stop offset="0.25" stop-color="#CD8909"/>
<stop offset="0.4" stop-color="#E7B40D"/>
<stop offset="0.48" stop-color="#F1C40F"/>
<stop offset="0.53" stop-color="#F2C615"/>
<stop offset="0.6" stop-color="#F3CC25"/>
<stop offset="0.67" stop-color="#F7D53F"/>
<stop offset="0.75" stop-color="#FBE363"/>
<stop offset="0.81" stop-color="#FFF088"/>
<stop offset="1" stop-color="#FFF8D6"/>
</linearGradient>
<linearGradient id="paint13_linear_117_5668" x1="138.584" y1="35.2756" x2="138.584" y2="5.13208" gradientUnits="userSpaceOnUse">
<stop stop-color="#9C3600"/>
<stop offset="0.04" stop-color="#A44401"/>
<stop offset="0.25" stop-color="#CD8909"/>
<stop offset="0.4" stop-color="#E7B40D"/>
<stop offset="0.48" stop-color="#F1C40F"/>
<stop offset="0.53" stop-color="#F2C615"/>
<stop offset="0.6" stop-color="#F3CC25"/>
<stop offset="0.67" stop-color="#F7D53F"/>
<stop offset="0.75" stop-color="#FBE363"/>
<stop offset="0.81" stop-color="#FFF088"/>
<stop offset="1" stop-color="#FFF8D6"/>
</linearGradient>
<linearGradient id="paint14_linear_117_5668" x1="138.585" y1="22.8453" x2="138.585" y2="16.8815" gradientUnits="userSpaceOnUse">
<stop stop-color="#686868"/>
<stop offset="0.04" stop-color="#5D5D5D"/>
<stop offset="0.25" stop-color="#8B8B8B"/>
<stop offset="0.4" stop-color="#8D8D8D"/>
<stop offset="0.48" stop-color="#A0A0A0"/>
<stop offset="0.53" stop-color="#C0C0C0"/>
<stop offset="0.6" stop-color="#ABABAB"/>
<stop offset="0.67" stop-color="#BDBDBD"/>
<stop offset="0.75" stop-color="#C2C2C2"/>
<stop offset="0.81" stop-color="#D8D8D8"/>
<stop offset="1" stop-color="white"/>
</linearGradient>
<linearGradient id="paint15_linear_117_5668" x1="138.584" y1="34.9328" x2="138.584" y2="4.79199" gradientUnits="userSpaceOnUse">
<stop stop-color="#686868"/>
<stop offset="0.04" stop-color="#5D5D5D"/>
<stop offset="0.25" stop-color="#8B8B8B"/>
<stop offset="0.4" stop-color="#8D8D8D"/>
<stop offset="0.48" stop-color="#A0A0A0"/>
<stop offset="0.53" stop-color="#C0C0C0"/>
<stop offset="0.6" stop-color="#ABABAB"/>
<stop offset="0.67" stop-color="#BDBDBD"/>
<stop offset="0.75" stop-color="#C2C2C2"/>
<stop offset="0.81" stop-color="#D8D8D8"/>
<stop offset="1" stop-color="white"/>
</linearGradient>
</defs>
</svg>
