<?xml version="1.0" encoding="utf-8"?>
<!-- Generator: Adobe Illustrator 27.1.1, SVG Export Plug-In . SVG Version: 6.00 Build 0)  -->
<svg version="1.1" id="Слой_1" xmlns="http://www.w3.org/2000/svg" xmlns:xlink="http://www.w3.org/1999/xlink" x="0px" y="0px"
	 viewBox="0 0 159 109" style="enable-background:new 0 0 159 109;" xml:space="preserve">
<style type="text/css">
	.st0{fill:#C2C2C2;stroke:#393931;stroke-linejoin:round;}
	.st1{fill-rule:evenodd;clip-rule:evenodd;fill:#FFFFFF;}
	.st2{fill-rule:evenodd;clip-rule:evenodd;fill:#FFFFFF;filter:url(#Adobe_OpacityMaskFilter);}
	.st3{mask:url(#path-3-inside-1_117_5671_00000008118865256221115730000011189390450938445503_);fill:#C2C2C2;}
	.st4{fill:#1C1F33;}
	.st5{fill:#0F0F28;}
	.st6{fill:#125B6E;}
	.st7{fill:#010002;}
	.st8{fill:#80828C;}
	.st9{fill:#525356;}
	.st10{fill:url(#SVGID_1_);}
	.st11{fill:#8EC7D5;}
	.st12{fill:#1E343A;}
	.st13{fill:#0A7678;}
	.st14{fill:url(#SVGID_00000112610767960067516300000014073474468205255813_);}
	.st15{fill:#46ABAD;}
</style>
<path class="st0" d="M150,26.8V13.2l-11.7-6.8l-11.8,6.8v13.6l11.8,6.8L150,26.8z"/>
<path class="st1" d="M118.2,12c0-6.6-5.4-12-12-12h-94c-6.6,0-12,5.4-12,12v84.3c0,6.6,5.4,12,12,12h134c6.6,0,12-5.4,12-12V52
	c0-6.6-5.4-12-12-12h-16c-6.6,0-12-5.4-12-12V12z"/>
<defs>
	<filter id="Adobe_OpacityMaskFilter" filterUnits="userSpaceOnUse" x="-0.8" y="-1" width="160" height="110.3">
		<feColorMatrix  type="matrix" values="1 0 0 0 0  0 1 0 0 0  0 0 1 0 0  0 0 0 1 0"/>
	</filter>
</defs>
<mask maskUnits="userSpaceOnUse" x="-0.8" y="-1" width="160" height="110.3" id="path-3-inside-1_117_5671_00000008118865256221115730000011189390450938445503_">
	<path class="st2" d="M118.2,12c0-6.6-5.4-12-12-12h-94c-6.6,0-12,5.4-12,12v84.3c0,6.6,5.4,12,12,12h134c6.6,0,12-5.4,12-12V52
		c0-6.6-5.4-12-12-12h-16c-6.6,0-12-5.4-12-12V12z"/>
</mask>
<path class="st3" d="M12.2,1h94v-2h-94V1z M1.2,96.3V12h-2v84.3H1.2z M146.2,107.3h-134v2h134V107.3z M157.2,52v44.3h2V52H157.2z
	 M146.2,39h-16v2h16V39z M119.2,28V12h-2v16H119.2z M130.2,39c-6.1,0-11-4.9-11-11h-2c0,7.2,5.8,13,13,13V39z M159.2,52
	c0-7.2-5.8-13-13-13v2c6.1,0,11,4.9,11,11H159.2z M146.2,109.3c7.2,0,13-5.8,13-13h-2c0,6.1-4.9,11-11,11V109.3z M-0.8,96.3
	c0,7.2,5.8,13,13,13v-2c-6.1,0-11-4.9-11-11H-0.8z M106.2,1c6.1,0,11,4.9,11,11h2c0-7.2-5.8-13-13-13V1z M12.2-1
	c-7.2,0-13,5.8-13,13h2c0-6.1,4.9-11,11-11V-1z"/>
<path class="st4" d="M51,73.2l1.9-3l1-1.6l2.5-4l1.5-2.4c0.1-0.2,0.4-0.5,0.4-0.7c0-0.1,0-0.1,0-0.2c-0.1-0.6,0-1.2,0-1.8l0-3.8
	l0-6.2l0-9.3l0-5.6l0-0.9c0-0.2,0-0.4,0-0.5c0.2-0.1,0.3-0.1,0.5-0.1l9.5,0l17.9,0l10.1,0l3.1,0c0.5,0,1.1,0,1.6,0
	c0.1,0,0.2,0.1,0.2,0.2c0.1,0.3,0,0.6,0,0.8v1.5l0,5l0,15.9l0,3.9l0,1c0,0.1,0,0.3,0,0.4c0.1,0.2,0.2,0.4,0.3,0.6l0.7,1.1l2.2,3.5
	l1,1.6l2.2,3.5c0.3,0.5,0.6,0.9,0.9,1.4c-0.2-0.1-0.6,0-0.8,0l-0.1-0.2l-4.7-7.5l-0.7-1l-0.5-0.7c0-0.1-0.1-0.1-0.1-0.2l-0.3-0.5
	c-0.1-0.1-0.2-0.3-0.3-0.4c0,0-0.1-0.1-0.1-0.1l0,0l-0.3-0.5l-0.1-0.1l-0.1-0.2c-0.1-0.1-0.1-0.1-0.1-0.3c-0.1-0.1,0-0.7,0-0.9
	l-0.1-2.1l0-11.2l0-10l0-2.9c0,0,0,0,0-0.1c-0.1-0.1-0.2-0.1-0.3-0.1l0,0c-0.5-0.1-1.1,0-1.6,0l-2.8,0l-8.1,0l-28.3,0l0,3.2l0,6.2
	l0,12.5l0,4.5l0,0.7c0,0,0,0.2,0,0.2c0,0.1-0.1,0.2-0.2,0.4c-0.4,0.7-0.8,1.3-1.2,1.9l-4,6.3l-1.6,2.5c-0.2,0.3-0.4,0.6-0.5,0.9
	C51.5,73.2,51.2,73.2,51,73.2z"/>
<path class="st5" d="M51,73.2c0.2,0.1,0.5,0,0.7,0c0.2-0.3,0.3-0.6,0.5-0.9l1.6-2.5l4-6.3c0.4-0.6,0.9-1.3,1.2-1.9
	c0.1-0.1,0.2-0.2,0.2-0.4c0,0,0-0.1,0-0.2l0-0.7l0-4.5l0-12.5l0-6.2l0-3.2l28.3,0l8.1,0l2.8,0c0.5,0,1.1,0,1.6,0l0,0
	c0.1,0,0.2,0.1,0.3,0.1c0,0,0,0,0,0.1l0,2.9l0,10l0,11.2l0.1,2.1c0,0.1,0,0.8,0,0.9c0,0.1,0.1,0.2,0.1,0.3l0.1,0.2l0.1,0.1l0.3,0.5
	l0,0c0,0,0,0.1,0.1,0.1c0.1,0.1,0.2,0.3,0.3,0.4l0.3,0.5c0,0.1,0.1,0.1,0.1,0.2l0.5,0.7l0.7,1l4.7,7.5l0.1,0.2c0.3,0,0.6-0.1,0.8,0
	c0.1,0.1,0.2,0.2,0.2,0.4c0,0.2-0.1,0.3-0.2,0.5c-0.1,0.2-0.2,0.5-0.4,0.7l-0.1,0.1c-0.6,0.7-1.3,1.1-2.2,1.2c-1,0.1-2,0-3,0l-5.5,0
	l-17.5,0l-17.8,0l-5.6,0c-1,0-1.9,0.1-2.9,0c-0.7,0-1.2-0.3-1.7-0.7c-0.2,0-0.4-0.2-0.5-0.4c-0.3-0.4-0.6-0.8-0.7-1.3
	c0-0.1,0-0.2,0-0.3C50.8,73.4,50.9,73.2,51,73.2z"/>
<path class="st6" d="M56.4,73.6l52.1,0l-0.4,0.9l-5,0l-51.7,0l-0.4-1L56.4,73.6z"/>
<path class="st7" d="M102,73.9c0.2,0,1.3-0.1,1.4,0c0,0.1,0.1,0.2,0.1,0.3c0,0.1-0.1,0.1-0.1,0.1l0,0c-0.3,0.1-0.7,0-1,0
	c-0.1,0-0.3,0-0.4,0c-0.1-0.1-0.1-0.1-0.1-0.2C101.9,74,102,74,102,73.9z"/>
<path class="st4" d="M51.9,75.4c-0.1-0.2-0.3-0.4-0.5-0.6l56.6,0c-0.6,0.7-1.3,1.1-2.2,1.2c-1,0.1-2,0-3,0l-5.5,0l-17.5,0l-17.8,0
	l-5.6,0c-1,0-1.9,0.1-2.9,0C53,76,52.4,75.8,51.9,75.4z"/>
<path class="st8" d="M59.5,61.2l0-27l35.2,0l4.8,0l-2.1,1.7l-36,0l0,5l0,0c0,0.6,0,1.3,0,1.9l0,3.3l0,10.2l0,2.1c0,0.1,0,0.5,0,0.6
	c0,0.1-0.3,0.3-0.4,0.4l-1,1.1C59.9,60.7,59.7,61,59.5,61.2z"/>
<path class="st9" d="M94.7,34.2l4.7,0l0.1,0l0.5,0l0,27.1l-40.5,0c0-0.1,0,0,0-0.1c0.2-0.2,0.4-0.4,0.6-0.6l1-1.1
	c0.1-0.1,0.3-0.3,0.4-0.4c0-0.1,0-0.4,0-0.6l0-2.1l0-10.2l0-3.3c0-0.6,0-1.3,0-1.9l0,0l0,18.2l29.1,0l5,0l1.6,0c0.2,0,0.5,0,0.7,0
	c0.1,0,0.2-0.1,0.2-0.2c0-0.1,0-0.2,0-0.3l0-0.8l0-3.2l0-12.4l0-3.7l0-1.8c0-0.2,0-0.6,0-0.8c-0.1-0.1-0.5,0-0.6,0l2.1-1.7
	L94.7,34.2z"/>
<linearGradient id="SVGID_1_" gradientUnits="userSpaceOnUse" x1="84.4792" y1="52.2301" x2="77.5209" y2="28.7497" gradientTransform="matrix(1 0 0 -1 0 109.276)">
	<stop  offset="0" style="stop-color:#626267"/>
	<stop  offset="1" style="stop-color:#7C838D"/>
</linearGradient>
<path class="st10" d="M59.3,61.6c0.4,0,0.9,0,1.4,0l2.8,0l9,0l18.4,0l9.3,0l7.2,11.5l-7.3,0l-48,0L59.3,61.6z"/>
<path class="st5" d="M73,68.5L73,68.5c0.1,0,0.3,0,0.4,0l0.7,0l2.9,0l6.1,0l3.2,0c0.1,0,0.1,0,0.1,0c0,0,0.1,0.1,0.1,0.1
	c0.2,0.5,0.4,1.1,0.5,1.7l0.4,1.2c0.1,0.2,0.2,0.4,0.2,0.6c0,0.1,0,0.1,0,0.1c0,0-0.1,0.1-0.1,0.1c-0.1,0-0.3,0-0.4,0l-0.9,0l-9.9,0
	l-3,0c-0.5,0-1,0-1.6,0c-0.1,0-0.1,0-0.2-0.1c0,0,0-0.1,0-0.1c0-0.1,0.1-0.3,0.1-0.4l0.3-0.8l0.8-2.3C72.9,68.6,73,68.5,73,68.5z"/>
<path class="st11" d="M73.2,68.7l13,0l1,3.2l-1.2,0l-14.1,0L73.2,68.7z"/>
<path class="st5" d="M60.9,62.5l37.7,0c0.3,0.3,0.5,0.7,0.7,1l1.6,2.7l0.6,1c0.1,0.1,0.2,0.3,0.3,0.5c0,0.1,0,0.1,0,0.2
	c0,0,0,0-0.1,0.1c-0.1,0-2.7,0-3.1,0l-29.7,0l-8.3,0l-2,0c-0.3,0-0.6,0-0.8,0c-0.1,0-0.1-0.1-0.2-0.1c0-0.1,0-0.1,0-0.2
	c0.1-0.2,0.2-0.3,0.3-0.5l0.6-1L60.9,62.5z"/>
<path class="st12" d="M78.2,63l3.3,0l0.1,1.3c0,0.1,0.1,0.4,0,0.5l-0.2,0l-3.5,0L78.2,63z"/>
<path class="st12" d="M81.8,63l3.4,0c0.1,0.1,0.1,0.3,0.1,0.4l0.4,1.4l-3.8,0L81.8,63z"/>
<path class="st12" d="M88,63l1,0c0.1,0,0,0,0.1,0.1l0.9,1.7l-2.4,0l-1.4,0L85.7,63L88,63z"/>
<path class="st12" d="M89.5,63l3.5,0c0.2,0.1,0.3,0.4,0.4,0.5l0.9,1.3l-3.9,0L89.5,63z"/>
<path class="st12" d="M76.3,63l1.5,0l-0.3,1.8l-2.4,0l-1.5,0l0.6-1.8L76.3,63z"/>
<path class="st12" d="M70.2,63c0.5,0,3.5,0,3.6,0l-0.4,1c-0.1,0.2-0.1,0.5-0.3,0.7l-0.2,0l-3.7,0L70.2,63z"/>
<path class="st12" d="M66,63l3.8,0l-1,1.8l-0.1,0l-3.9,0L66,63z"/>
<path class="st12" d="M61.2,63l4.4,0l-1.1,1.8c0,0,0,0-0.1,0c0,0-0.2,0-0.2,0l-0.6,0l-3.5,0L61.2,63z"/>
<path class="st12" d="M93.5,63l4.8,0l1.1,1.8l-4.6,0L93.5,63z"/>
<path class="st12" d="M77.9,65.2l3.8,0c0,0.3,0.2,2.1,0.2,2.2l-0.2,0l-4,0L77.9,65.2z"/>
<path class="st12" d="M64.6,65.2l4,0l-0.8,1.5c-0.1,0.2-0.2,0.5-0.4,0.7l-0.1,0l-4.1,0L64.6,65.2z"/>
<path class="st12" d="M82.1,65.2l3.9,0l0.7,2.2l-4.4,0L82.1,65.2z"/>
<path class="st12" d="M90.7,65.2l4,0l1.6,2.2l-4.4,0L90.7,65.2z"/>
<path class="st12" d="M69.1,65.2l4,0l-0.6,1.7c-0.1,0.2-0.1,0.4-0.2,0.5l-0.3,0l-4.1,0L69.1,65.2z"/>
<path class="st12" d="M87.8,65.2l2.4,0l1.2,2.2l-1.5,0l-2.9,0l-0.7-2.2L87.8,65.2z"/>
<path class="st12" d="M73.5,65.2l4,0l-0.3,2.2l-0.4,0l-4.1,0L73.5,65.2z"/>
<path class="st12" d="M59.8,65.1l4.4,0l-1.4,2.2l0,0c0,0,0,0-0.1,0c-0.1,0-0.3,0-0.4,0h-0.8l-3.2,0L59.8,65.1z"/>
<path class="st12" d="M95.1,65.2l4.6,0l1.4,2.3l-4.3,0L95.1,65.2z"/>
<path class="st5" d="M97.4,35.9c0.2,0,0.5,0,0.6,0c0.1,0.2,0.1,0.6,0,0.8l0,1.8l0,3.7l0,12.4l0,3.2l0,0.8c0,0.1,0,0.2,0,0.3
	c0,0.1-0.1,0.2-0.2,0.2c-0.2,0.1-0.5,0-0.7,0l-1.6,0l-5,0l-29.1,0l0-18.2l0-5L97.4,35.9z"/>
<path class="st4" d="M97.8,36.1L97.8,36.1l0.1,0.1l0,14.1l0,5.8l0,2.5c0,0.1,0,0.2-0.1,0.3c-0.1,0-0.1,0-0.2,0c-0.5,0-1,0-1.5,0
	l-3.5,0l-19.9,0l-4,0l-7,0c-0.1,0,0,0-0.1,0l0-22.7L97.8,36.1z"/>
<path class="st7" d="M94.3,36.5l3.2,0l0,1.6c0,0.2,0,0.5,0,0.6l0,0l0-0.1c0-0.2,0-0.5,0-0.7l0-1.3l-0.5,0l-0.4,0c-0.3-0.1-0.7,0-1,0
	l-2.3,0c0.1-0.1,0.3,0,0.4,0L94.3,36.5z"/>
<path class="st5" d="M82,36.5l12.2,0l-0.8,0c-0.1,0-0.3,0-0.4,0l2.3,0c0.3,0,0.7,0,1,0l-12.6,0c0.2-0.1,0.5,0,0.7,0l1.4,0v0l-0.1,0
	c-0.2-0.1-0.5,0-0.8,0l-2.3,0C82.7,36.5,82.2,36.5,82,36.5z"/>
<path class="st5" d="M97.3,58.4c0.1-0.2,0-2.9,0-3.3c0.1,0.1,0,0.4,0,0.5l0,1.9C97.4,57.7,97.4,58.1,97.3,58.4L97.3,58.4
	c0.1-0.2,0.1-0.4,0.1-0.5l0,0c0,0.2,0,0.4,0,0.6l-33,0v0l5.2,0c0.1,0,0,0,0.1,0l0,0l0,0c-0.9,0.1-1.9,0-2.9,0l-0.7,0
	c-0.1,0-0.2,0-0.2,0l0,0l-0.1,0l-0.1,0c-0.3,0-2-0.1-2.2,0l0,0l-0.1,0c0,0,0,0-0.1,0c-0.1,0-1,0-1,0c-0.1,0-0.2,0-0.3-0.1l0-0.4
	c0-0.2,0-0.4,0-0.5c0,0.2-0.1,0.7,0,0.9c0.2,0.1,0.5,0,0.7,0l1.4,0l5.3,0c0.8,0.1,1.6,0,2.5,0l4.4,0l13.8,0l5.4,0l1.2,0
	C97,58.4,97.2,58.4,97.3,58.4z"/>
<path class="st13" d="M62.2,38.6l0-0.1c0-0.1,0-0.1,0-0.2c0-0.2,0-0.4,0-0.6c0-0.2,0-0.4,0-0.6c0-0.1,0-0.3,0-0.4l0,0l0,0
	c-0.1,0.1,0,0.7-0.1,0.9l0-1c0.1-0.1,2.3,0,2.6,0l6.4,0l3.9,0l1.8,0l5.3,0c0.2,0.1,0.7,0,0.9,0l2.3,0c0.2,0,0.5,0,0.8,0l0.1,0v0
	l-1.4,0c-0.2,0-0.5,0-0.7,0l12.6,0l0.4,0l0.5,0l0,1.3c0,0.2,0,0.5,0,0.7l0,0.1l0,19.8c-0.1,0-0.3,0-0.5,0l-1.2,0l-5.4,0l-13.8,0
	l-4.4,0c-0.8,0-1.7,0-2.5,0c0.1,0,0.2,0,0.3-0.1c0.8-0.5,1.6-1.2,2.4-1.8l4.7-3.8l11.8-9.5l5.7-4.6c-0.3,0-0.7,0-1,0l-1.9,0l-6.5,0
	l-14.5,0L62.2,38.6l0,3.2L62.2,38.6z"/>
<path class="st5" d="M62.2,38.6l0-0.1c0-0.1,0-0.1,0-0.2c0-0.2,0-0.4,0-0.6c0-0.2,0-0.4,0-0.6c0-0.1,0-0.3,0-0.4l0,0l0,0
	c-0.1,0.1,0,0.7-0.1,0.9l0-1c0.1-0.1,2.3,0,2.6,0l6.4,0l0,0c-0.3,0.1-0.7,0-1,0l-2.4,0c-0.4,0-0.7,0-1.1,0l-0.3,0l0,0l6.9,0l4.1,0
	l1.1,0c0.2,0,0.4,0,0.5,0c0.1,0,0.2,0,0.3,0l-16.9,0L62.2,38.6z"/>
<path class="st7" d="M76.7,36.5l5.3,0c0.2,0.1,0.7,0,0.9,0l2.3,0c0.2,0,0.5,0,0.8,0l0.1,0v0l-1.4,0c-0.2,0-0.5,0-0.7,0l-4.8,0
	c-0.1,0-0.2,0-0.3,0c-0.2,0-0.4,0-0.5,0l-1.1,0l-4.1,0l-6.9,0l0,0l0.3,0c0.4,0,0.7,0,1.1,0l2.4,0c0.3,0,0.7,0,1,0l0,0l3.9,0
	L76.7,36.5z"/>
<linearGradient id="SVGID_00000093140117478504521200000013008848687881139334_" gradientUnits="userSpaceOnUse" x1="94.5105" y1="70.9839" x2="97.5058" y2="71.8111" gradientTransform="matrix(1 0 0 -1 0 109.276)">
	<stop  offset="0" style="stop-color:#092537"/>
	<stop  offset="1" style="stop-color:#0A3B40"/>
</linearGradient>
<path style="fill:url(#SVGID_00000093140117478504521200000013008848687881139334_);" d="M96.9,36.5l0.5,0l0,1.3c0,0.2,0,0.5,0,0.7
	l0,0.1l-2.9,0l1.9-1.5C96.4,36.9,96.8,36.7,96.9,36.5z"/>
<path class="st15" d="M62.2,41.7l0-3.2l8.2,0l14.5,0l6.5,0l1.9,0c0.3,0,0.7,0,1,0l-5.7,4.6l-11.8,9.5l-4.7,3.8
	c-0.8,0.6-1.5,1.3-2.4,1.8c-0.1,0.1-0.2,0.1-0.3,0.1l-5.3,0l-1.4,0c-0.2,0-0.5,0-0.7,0L62.2,41.7z"/>
</svg>
