<svg width="159" height="109" viewBox="0 0 159 109" fill="none" xmlns="http://www.w3.org/2000/svg">
<path d="M150.499 26.7935V13.2265L138.75 6.44336L127 13.2265V26.7935L138.75 33.5766L150.499 26.7935Z" fill="#66FECB"/>
<path d="M145.613 23.9719V16.0473L138.75 12.0857L131.887 16.0473V23.9719L138.75 27.9342L145.613 23.9719Z" fill="#66FECB"/>
<path d="M138.75 12.0857V6.44336L150.499 13.2265L145.612 16.0473L138.75 12.0857Z" fill="#5EDEB3"/>
<path d="M145.612 23.9719V16.0473L150.499 13.2264V26.7934L145.612 23.9719Z" fill="#01B478"/>
<path d="M138.75 27.9342V33.5766L150.499 26.7934L145.612 23.9719L138.75 27.9342Z" fill="#1DCE92"/>
<path d="M131.887 23.9719L127 26.7934L138.75 33.5766V27.9342L131.887 23.9719Z" fill="#01B478"/>
<path d="M138.75 12.0857L131.887 16.0473L127 13.2265L138.75 6.44336V12.0857Z" fill="#2AFFB7"/>
<path d="M150.499 13.2265L145.314 15.8759L138.983 12.2171L138.752 6.44128L138.518 12.2171L132.184 15.8738L126.999 13.2244L131.886 16.046V18.8606C131.978 17.9811 132.07 17.1012 132.162 16.2209L138.75 12.6388L145.337 16.2209C145.429 17.1012 145.522 17.9811 145.614 18.8606V16.046L145.679 16.0079L150.499 13.2265Z" fill="white"/>
<path d="M138.75 6.44333L150.499 13.2265V26.7935L138.75 33.5766L127 26.7935V13.2265L138.75 6.44333ZM138.75 5.66138C138.612 5.66127 138.477 5.69727 138.358 5.76577L126.608 12.5489C126.489 12.6177 126.39 12.7164 126.321 12.8353C126.253 12.9543 126.216 13.0891 126.216 13.2265V26.7935C126.216 26.9307 126.253 27.0655 126.321 27.1843C126.39 27.3031 126.489 27.4018 126.608 27.4703L138.361 34.2542C138.48 34.3226 138.615 34.3586 138.752 34.3586C138.889 34.3586 139.024 34.3226 139.143 34.2542L150.892 27.4703C151.011 27.4018 151.11 27.3031 151.179 27.1843C151.247 27.0655 151.284 26.9307 151.284 26.7935V13.2265C151.284 13.0891 151.247 12.9543 151.179 12.8353C151.11 12.7164 151.011 12.6177 150.892 12.5489L139.143 5.76577C139.024 5.69717 138.89 5.66117 138.752 5.66138H138.75Z" fill="#003725"/>
<mask id="path-10-inside-1_129_10919" fill="white">
<path fill-rule="evenodd" clip-rule="evenodd" d="M118.75 12.01C118.75 5.38259 113.377 0.0100098 106.75 0.0100098H12.75C6.12258 0.0100098 0.75 5.38258 0.75 12.01V96.34C0.75 102.967 6.12258 108.34 12.75 108.34H146.75C153.377 108.34 158.75 102.967 158.75 96.34V52.01C158.75 45.3826 153.377 40.01 146.75 40.01H130.75C124.123 40.01 118.75 34.6374 118.75 28.01V12.01Z"/>
</mask>
<path fill-rule="evenodd" clip-rule="evenodd" d="M118.75 12.01C118.75 5.38259 113.377 0.0100098 106.75 0.0100098H12.75C6.12258 0.0100098 0.75 5.38258 0.75 12.01V96.34C0.75 102.967 6.12258 108.34 12.75 108.34H146.75C153.377 108.34 158.75 102.967 158.75 96.34V52.01C158.75 45.3826 153.377 40.01 146.75 40.01H130.75C124.123 40.01 118.75 34.6374 118.75 28.01V12.01Z" fill="white"/>
<path d="M12.75 1.01001H106.75V-0.98999H12.75V1.01001ZM1.75 96.34V12.01H-0.25V96.34H1.75ZM146.75 107.34H12.75V109.34H146.75V107.34ZM157.75 52.01V96.34H159.75V52.01H157.75ZM146.75 39.01H130.75V41.01H146.75V39.01ZM119.75 28.01V12.01H117.75V28.01H119.75ZM130.75 39.01C124.675 39.01 119.75 34.0851 119.75 28.01H117.75C117.75 35.1897 123.57 41.01 130.75 41.01V39.01ZM159.75 52.01C159.75 44.8303 153.93 39.01 146.75 39.01V41.01C152.825 41.01 157.75 45.9349 157.75 52.01H159.75ZM146.75 109.34C153.93 109.34 159.75 103.52 159.75 96.34H157.75C157.75 102.415 152.825 107.34 146.75 107.34V109.34ZM-0.25 96.34C-0.25 103.52 5.5703 109.34 12.75 109.34V107.34C6.67487 107.34 1.75 102.415 1.75 96.34H-0.25ZM106.75 1.01001C112.825 1.01001 117.75 5.93488 117.75 12.01H119.75C119.75 4.83031 113.93 -0.98999 106.75 -0.98999V1.01001ZM12.75 -0.98999C5.5703 -0.98999 -0.25 4.8303 -0.25 12.01H1.75C1.75 5.93487 6.67487 1.01001 12.75 1.01001V-0.98999Z" fill="#C2C2C2" mask="url(#path-10-inside-1_129_10919)"/>
<path d="M51.5 73.1714L53.3588 70.1492L54.3236 68.5656L56.8654 64.5777L58.407 62.1545C58.5405 61.9382 58.7617 61.6694 58.846 61.4329C58.867 61.3741 58.8498 61.2976 58.844 61.2372C58.7876 60.6501 58.8333 60.011 58.8312 59.4189L58.8161 55.5784L58.8272 49.4181L58.8221 40.0896L58.806 34.4888L58.8177 33.5634C58.8192 33.4026 58.793 33.207 58.8641 33.0602C59.0281 32.9331 59.1836 32.9397 59.3821 32.9374L68.8608 32.9398L86.7534 32.9522L96.8456 32.9429L99.8963 32.9477C100.416 32.949 100.967 32.9145 101.483 32.9619C101.6 32.9727 101.657 33.048 101.725 33.1342C101.797 33.3937 101.767 33.7013 101.768 33.971L101.768 35.4418L101.771 40.4047L101.763 56.2838L101.733 60.209L101.732 61.1607C101.732 61.2858 101.714 61.4482 101.753 61.5656C101.819 61.7633 101.975 61.9619 102.084 62.1404L102.787 63.2797L105.003 66.7766L105.954 68.3376L108.172 71.8073C108.471 72.2663 108.744 72.7481 109.064 73.192C108.825 73.1355 108.471 73.1888 108.217 73.1894L108.119 73.0134L103.44 65.4676L102.787 64.4554L102.324 63.7141C102.275 63.6467 102.243 63.5763 102.198 63.5078L101.848 62.9841C101.754 62.8533 101.689 62.701 101.594 62.5715C101.565 62.5321 101.544 62.5042 101.521 62.4595L101.498 62.4128L101.181 61.8733L101.102 61.7465L100.975 61.5243C100.922 61.4011 100.865 61.3829 100.86 61.2385C100.778 61.1443 100.828 60.5043 100.826 60.3546L100.768 58.3041L100.789 47.0626L100.76 37.0133L100.787 34.1127C100.788 34.0724 100.795 34.0723 100.772 34.0408C100.718 33.9678 100.593 33.9189 100.505 33.909L100.467 33.9055C99.9408 33.8524 99.3912 33.8782 98.8617 33.8759L96.0715 33.8732L88.018 33.8788L59.7345 33.8827L59.7559 37.1214L59.7698 43.3574L59.7781 55.8744L59.7877 60.3731L59.7817 61.0357C59.7812 61.082 59.7935 61.1895 59.7793 61.2314C59.7425 61.3399 59.6392 61.4793 59.5813 61.5823C59.2081 62.2463 58.7523 62.8629 58.3458 63.5069L54.3318 69.8468L52.7425 72.3396C52.5703 72.6318 52.3875 72.9086 52.2368 73.214C52.0128 73.2125 51.7086 73.2462 51.5 73.1714Z" fill="#1C1F33"/>
<path d="M51.5001 73.1714C51.7087 73.2461 52.0129 73.2124 52.2369 73.214C52.3876 72.9086 52.5704 72.6318 52.7426 72.3396L54.3319 69.8468L58.3459 63.5069C58.7524 62.8628 59.2082 62.2463 59.5814 61.5823C59.6393 61.4792 59.7426 61.3399 59.7794 61.2314C59.7936 61.1895 59.7813 61.0819 59.7818 61.0357L59.7878 60.3731L59.7782 55.8744L59.7699 43.3574L59.756 37.1214L59.7345 33.8827L88.0181 33.8788L96.0716 33.8732L98.8618 33.8759C99.3913 33.8782 99.9409 33.8523 100.467 33.9055L100.506 33.909C100.593 33.9189 100.718 33.9677 100.772 34.0407C100.795 34.0723 100.788 34.0723 100.787 34.1127L100.76 37.0133L100.789 47.0626L100.768 58.3041L100.826 60.3546C100.828 60.5043 100.778 61.1443 100.86 61.2385C100.865 61.3829 100.922 61.4011 100.975 61.5243L101.102 61.7465L101.181 61.8732L101.499 62.4128L101.521 62.4594C101.544 62.5042 101.565 62.5321 101.594 62.5715C101.69 62.701 101.754 62.8533 101.848 62.9841L102.198 63.5078C102.244 63.5763 102.275 63.6467 102.324 63.7141L102.787 64.4553L103.44 65.4676L108.12 73.0134L108.217 73.1894C108.471 73.1888 108.825 73.1355 109.064 73.1919C109.18 73.3105 109.263 73.38 109.263 73.5532C109.262 73.7274 109.144 73.8937 109.067 74.0449C108.945 74.2863 108.836 74.5686 108.639 74.7591L108.559 74.8317C107.972 75.5222 107.246 75.9734 106.329 76.0497C105.35 76.1309 104.338 76.0809 103.355 76.0816L97.8862 76.0818L80.3842 76.0776L62.6088 76.0726L57.0488 76.0777C56.0953 76.0804 55.1001 76.1418 54.151 76.0713C53.4904 76.0223 52.95 75.8084 52.415 75.4196C52.2042 75.3703 52.0319 75.2335 51.9034 75.0605C51.6184 74.677 51.3445 74.2239 51.2452 73.7549C51.2278 73.673 51.1958 73.5484 51.2204 73.4648C51.2534 73.3522 51.3956 73.2208 51.5001 73.1714Z" fill="#0F0F28"/>
<path d="M56.9262 73.5688L108.989 73.6086L108.599 74.5327L103.597 74.5458L51.8533 74.5315L51.4512 73.5808L56.9262 73.5688Z" fill="#125B6E"/>
<path d="M102.533 73.9497C102.741 73.9111 103.795 73.8748 103.934 73.9597C103.969 74.0299 104.004 74.1386 103.988 74.2195C103.971 74.3097 103.921 74.3168 103.847 74.3569L103.823 74.3643C103.545 74.4285 103.142 74.3843 102.853 74.3832C102.729 74.3827 102.593 74.4029 102.482 74.3381C102.43 74.2673 102.398 74.2185 102.404 74.1243C102.411 74.0293 102.462 73.999 102.533 73.9497Z" fill="#010002"/>
<path d="M52.4149 75.4197C52.2672 75.2121 52.0857 75.0509 51.9507 74.8267L108.559 74.8317C107.972 75.5222 107.246 75.9735 106.328 76.0497C105.35 76.131 104.338 76.081 103.355 76.0817L97.886 76.0819L80.384 76.0777L62.6086 76.0726L57.0486 76.0778C56.0952 76.0805 55.1 76.1418 54.1509 76.0714C53.4902 76.0224 52.9498 75.8085 52.4149 75.4197Z" fill="#1C1F33"/>
<path d="M60.0244 61.1747L60.0245 34.1555L95.1839 34.1607L99.9693 34.1706L97.8995 35.8891L61.9388 35.8879L61.9319 40.878L61.9286 40.9205C61.8828 41.5594 61.9062 42.215 61.905 42.856L61.9021 46.1702L61.9043 56.4067L61.9059 58.5393C61.9059 58.6613 61.9429 58.9969 61.8992 59.1036C61.8579 59.2046 61.6318 59.3861 61.5457 59.4811L60.5792 60.5385C60.393 60.7473 60.2187 60.9746 60.0244 61.1747Z" fill="#80828C"/>
<path d="M95.1836 34.1607L99.9256 34.1443L100.017 34.1579L100.492 34.1981L100.504 61.3023L60.0484 61.294C60.0095 61.2335 60.0095 61.2563 60.0241 61.1748C60.2184 60.9746 60.3927 60.7474 60.5789 60.5385L61.5454 59.4811C61.6315 59.3862 61.8576 59.2047 61.8989 59.1037C61.9426 58.9969 61.9056 58.6614 61.9056 58.5394L61.904 56.4067L61.9018 46.1703L61.9047 42.8561C61.9059 42.2151 61.8825 41.5595 61.9283 40.9205L61.9317 40.8781L61.9373 59.0821L91.0665 59.1087L96.0921 59.1078L97.6673 59.1083C97.8596 59.108 98.1568 59.1469 98.3308 59.0665C98.4313 59.02 98.5183 58.9236 98.5541 58.819C98.5832 58.7341 98.5707 58.5925 98.5726 58.5008L98.5798 57.7221L98.5821 54.555L98.5777 42.2023L98.5756 38.4826L98.5788 36.7118C98.579 36.4897 98.6264 36.1221 98.529 35.9273C98.3899 35.853 98.0643 35.89 97.8993 35.8892L99.969 34.1707L95.1836 34.1607Z" fill="#525356"/>
<path d="M59.8488 61.6322C60.2882 61.6808 60.764 61.646 61.2075 61.6473L64.0228 61.6492L73.0434 61.6423L91.4302 61.6461L100.685 61.6255L107.865 73.1281L100.61 73.0825L52.5688 73.1042L59.8488 61.6322Z" fill="url(#paint0_linear_129_10919)"/>
<path d="M73.5318 68.459L73.5885 68.4395C73.679 68.4232 73.8097 68.4406 73.9039 68.4407L74.6139 68.4411L77.5193 68.4424L83.6361 68.44L86.8299 68.4426C86.8973 68.4451 86.9051 68.4365 86.9626 68.4808C87.0112 68.5182 87.0433 68.5587 87.0671 68.616C87.2849 69.1394 87.4297 69.7304 87.6074 70.2701L87.9977 71.4447C88.0595 71.6314 88.1614 71.8581 88.1773 72.0531C88.1827 72.1192 88.1859 72.1317 88.1383 72.1807C88.1133 72.2064 88.0833 72.2348 88.0488 72.2469C87.9529 72.2806 87.7924 72.2599 87.687 72.26L86.8038 72.2572L76.9445 72.2582L73.9305 72.2614C73.4221 72.2627 72.8815 72.3008 72.3764 72.2598C72.238 72.2485 72.2322 72.242 72.1336 72.1506C72.1268 72.1141 72.1188 72.0838 72.1234 72.0454C72.1367 71.9343 72.2193 71.7875 72.2626 71.6828L72.5558 70.9302L73.403 68.642C73.4359 68.5643 73.4719 68.5177 73.5318 68.459Z" fill="#0F0F28"/>
<path d="M73.714 68.7332L86.7575 68.7294L87.7945 71.9377L86.6057 71.937L72.5225 71.9464L73.714 68.7332Z" fill="#8EC7D5"/>
<path d="M61.4181 62.5375L99.1399 62.5439C99.4174 62.8066 99.6311 63.2583 99.8349 63.5824L101.476 66.245L102.094 67.2276C102.183 67.37 102.316 67.5413 102.377 67.6973C102.416 67.7983 102.381 67.8298 102.339 67.9195C102.313 67.9384 102.29 67.9631 102.261 67.9763C102.157 68.0229 99.5157 67.996 99.1503 67.9983L69.422 67.9757L61.1639 67.9754L59.1406 67.9816C58.8777 67.9829 58.555 68.0245 58.3021 67.976C58.2069 67.9578 58.1987 67.9225 58.1444 67.8477C58.1327 67.7567 58.1246 67.7228 58.1637 67.637C58.2452 67.4582 58.3743 67.2883 58.4784 67.1202L59.1234 66.0888L61.4181 62.5375Z" fill="#0F0F28"/>
<path d="M78.676 62.9882L81.9915 63.0003L82.1004 64.2854C82.1131 64.4163 82.1708 64.6643 82.1147 64.7822L81.9387 64.7924L78.4033 64.792L78.676 62.9882Z" fill="#1E343A"/>
<path d="M82.3447 63.0131L85.7651 63.0129C85.8378 63.1167 85.8686 63.3088 85.9089 63.4318L86.3385 64.7907L82.5082 64.7929L82.3447 63.0131Z" fill="#1E343A"/>
<path d="M88.5316 63.0004L89.54 62.9985C89.6 63.0156 89.5874 63.008 89.6095 63.0507L90.5364 64.7881L88.1054 64.7901L86.7411 64.7946L86.1562 63.0078L88.5316 63.0004Z" fill="#1E343A"/>
<path d="M90.0059 63.0108L93.5432 63.0057C93.6987 63.1338 93.8287 63.3605 93.9505 63.525L94.8531 64.7862L90.9731 64.7933L90.0059 63.0108Z" fill="#1E343A"/>
<path d="M76.7987 63.0007L78.2927 62.9931L78.0382 64.79L75.5938 64.7863L74.103 64.7872L74.7347 63.004L76.7987 63.0007Z" fill="#1E343A"/>
<path d="M70.7251 62.9931C71.1794 62.9961 74.2142 62.9617 74.3342 63.0283L73.9547 64.0651C73.8824 64.2794 73.8248 64.6103 73.6959 64.792L73.4674 64.7956L69.7983 64.7841L70.7251 62.9931Z" fill="#1E343A"/>
<path d="M66.5261 62.9922L70.3316 62.9959L69.3524 64.7773L69.2529 64.7904L65.3867 64.7915L66.5261 62.9922Z" fill="#1E343A"/>
<path d="M61.7088 62.9907L66.1135 62.9933L64.9996 64.7441C64.9785 64.7594 64.9605 64.7807 64.9361 64.79C64.8923 64.8068 64.7552 64.7904 64.7048 64.7905L64.0708 64.7915L60.5581 64.7943L61.7088 62.9907Z" fill="#1E343A"/>
<path d="M93.9897 63.0173L98.8173 63.0163L99.949 64.7922L95.3552 64.7856L93.9897 63.0173Z" fill="#1E343A"/>
<path d="M78.3533 65.1733L82.1666 65.1676C82.1915 65.4879 82.4052 67.2418 82.3289 67.3994L82.1066 67.4081L78.0659 67.4073L78.3533 65.1733Z" fill="#1E343A"/>
<path d="M65.1341 65.166L69.1837 65.1707L68.3655 66.7145C68.2479 66.936 68.1404 67.1745 67.9964 67.3799L67.8801 67.3944L63.7544 67.3958L65.1341 65.166Z" fill="#1E343A"/>
<path d="M82.5562 65.1696L86.4282 65.1701L87.1323 67.3997L82.726 67.4164L82.5562 65.1696Z" fill="#1E343A"/>
<path d="M91.1504 65.1676L95.1403 65.1684L96.7456 67.3927L92.3915 67.3968L91.1504 65.1676Z" fill="#1E343A"/>
<path d="M69.5791 65.1729L73.5898 65.181L73 66.8405C72.9379 67.0097 72.8876 67.2402 72.7831 67.3856L72.4902 67.3932L68.4395 67.3955L69.5791 65.1729Z" fill="#1E343A"/>
<path d="M88.3447 65.1581L90.7301 65.1484L91.9637 67.3963L90.4299 67.3951L87.5404 67.401L86.8306 65.1703L88.3447 65.1581Z" fill="#1E343A"/>
<path d="M73.9856 65.1853L77.9995 65.1777L77.7021 67.3973L77.2746 67.3969L73.2021 67.3944L73.9856 65.1853Z" fill="#1E343A"/>
<path d="M60.3462 65.1439L64.7704 65.1567L63.3492 67.3292L63.3174 67.3635C63.2996 67.3798 63.2776 67.3898 63.2539 67.3942C63.1458 67.4141 62.9961 67.396 62.8827 67.396H62.0597L58.9019 67.4004L60.3462 65.1439Z" fill="#1E343A"/>
<path d="M95.5874 65.1515L100.155 65.1474L101.542 67.3987L97.2354 67.3975L95.5874 65.1515Z" fill="#1E343A"/>
<path d="M97.8992 35.8891C98.0643 35.8899 98.3899 35.853 98.529 35.9272C98.6264 36.122 98.579 36.4896 98.5788 36.7117L98.5756 38.4825L98.5777 42.2022L98.5821 54.5549L98.5798 57.7221L98.5726 58.5008C98.5706 58.5924 98.5831 58.734 98.5541 58.819C98.5183 58.9236 98.4313 59.0199 98.3307 59.0664C98.1568 59.1468 97.8596 59.1079 97.6673 59.1082L96.0921 59.1077L91.0664 59.1086L61.9373 59.082L61.9316 40.878L61.9385 35.8879L97.8992 35.8891Z" fill="#0F0F28"/>
<path d="M98.2995 36.0542L98.3685 36.0562L98.4118 36.1177L98.3917 50.223L98.3932 56.0454L98.3895 58.5566C98.385 58.6729 98.3807 58.7667 98.3111 58.861C98.2581 58.8884 98.2201 58.9049 98.1594 58.9085C97.6733 58.9371 97.1647 58.8936 96.6755 58.8908L93.1356 58.8679L73.2311 58.8658L69.2405 58.9065L62.2702 58.9039C62.1921 58.8923 62.2282 58.9069 62.1628 58.8582L62.1538 36.1086L98.2995 36.0542Z" fill="#1C1F33"/>
<path d="M94.7564 36.4565L97.9469 36.4238L97.9364 38.0275C97.9336 38.2094 97.9715 38.4873 97.8995 38.6478L97.8789 38.6408L97.8481 38.5542C97.8256 38.3263 97.8432 38.0849 97.8435 37.8548L97.8458 36.5366L97.3529 36.5488L96.9235 36.5517C96.5976 36.5006 96.2171 36.5399 95.8838 36.5389L93.5801 36.5305C93.702 36.4758 93.8573 36.4917 93.9892 36.4886L94.7564 36.4565Z" fill="#010002"/>
<path d="M82.5103 36.4612L94.7566 36.4565L93.9894 36.4887C93.8575 36.4918 93.7022 36.4759 93.5802 36.5306L95.8839 36.539C96.2173 36.54 96.5977 36.5007 96.9236 36.5518L84.3584 36.5679C84.5695 36.5058 84.8643 36.5409 85.0859 36.5408L86.5342 36.5348V36.5146L86.4709 36.4989C86.2503 36.4398 85.9401 36.4791 85.7055 36.4795L83.3915 36.4827C83.162 36.4829 82.7172 36.5415 82.5103 36.4612Z" fill="#0F0F28"/>
<path d="M97.8387 58.3873C97.9205 58.2332 97.8739 55.4387 97.8785 55.0654C97.9294 55.1598 97.8977 55.4278 97.8995 55.5464L97.9123 57.4075C97.9112 57.7401 97.8717 58.1087 97.9203 58.4376L97.9282 58.3345C97.9681 58.1835 97.9624 58.0325 97.9679 57.8745L97.9994 57.9228C97.9998 58.0865 98.0309 58.3471 97.9815 58.4977L64.968 58.4882V58.4456L70.1731 58.4773C70.2707 58.4448 70.1702 58.4565 70.2714 58.448L70.3159 58.4456L70.3318 58.4138C69.3856 58.4694 68.423 58.4076 67.4753 58.4138L66.7344 58.4308C66.659 58.4306 66.5617 58.4451 66.4935 58.4091L66.4676 58.39L66.3645 58.423L66.301 58.3821C65.9826 58.3811 64.2893 58.327 64.1204 58.4029L64.0793 58.423L64.0159 58.3821C64.0013 58.3912 63.9741 58.4099 63.9558 58.4164C63.852 58.4536 63.0053 58.4564 62.9165 58.4096C62.8374 58.3678 62.7262 58.3851 62.6353 58.3594L62.6274 57.9377C62.6389 57.7737 62.6105 57.5844 62.6511 57.4266C62.6506 57.6394 62.5893 58.1548 62.6945 58.3238C62.8888 58.3856 63.1535 58.3522 63.3605 58.3525L64.7852 58.3534L70.0517 58.3573C70.8546 58.4336 71.6983 58.3904 72.5053 58.3905L76.92 58.3838L90.709 58.3877L96.1461 58.396L97.3487 58.3996C97.4952 58.4005 97.7043 58.436 97.8387 58.3873Z" fill="#0F0F28"/>
<path d="M62.6704 38.5533L62.645 38.451C62.6294 38.391 62.6171 38.3534 62.6242 38.2908C62.6459 38.099 62.6502 37.8536 62.6313 37.661C62.6127 37.4712 62.6389 37.2761 62.6273 37.0857C62.6189 36.9472 62.613 36.7737 62.6312 36.6375L62.6351 36.6097L62.5955 36.5619C62.4802 36.6815 62.5556 37.2569 62.5235 37.4625L62.5112 36.464C62.6386 36.3994 64.7679 36.4553 65.1058 36.4559L71.5156 36.4578L75.3776 36.4567L77.2229 36.4564L82.51 36.4613C82.7169 36.5415 83.1617 36.4829 83.3912 36.4827L85.7052 36.4795C85.9398 36.4791 86.25 36.4398 86.4706 36.4989L86.5339 36.5146V36.5348L85.0856 36.5409C84.864 36.5409 84.5692 36.5058 84.3582 36.5679L96.9233 36.5518L97.3528 36.5489L97.8456 36.5367L97.8434 37.855C97.843 38.085 97.8255 38.3264 97.8479 38.5543L97.8288 38.6101L97.8386 58.3873C97.7042 58.436 97.4951 58.4005 97.3486 58.3997L96.146 58.3961L90.7089 58.3878L76.9198 58.3838L72.5052 58.3906C71.6982 58.3904 70.8545 58.4336 70.0516 58.3573C70.1844 58.3529 70.2766 58.3678 70.3921 58.2916C71.2107 57.7522 71.984 57.0842 72.7508 56.4722L77.404 52.717L89.1801 43.2048L94.873 38.6186C94.5366 38.5765 94.173 38.6016 93.8326 38.6015L91.9371 38.6006L85.46 38.5883L70.9126 38.5888L62.6946 38.5771L62.6912 41.7272L62.6704 38.5533Z" fill="#0A7678"/>
<path d="M62.6704 38.5533L62.645 38.451C62.6294 38.391 62.6171 38.3534 62.6242 38.2908C62.6459 38.099 62.6502 37.8536 62.6313 37.661C62.6127 37.4712 62.6389 37.2761 62.6273 37.0857C62.6189 36.9472 62.613 36.7737 62.6312 36.6375L62.6351 36.6097L62.5955 36.5619C62.4802 36.6815 62.5556 37.2569 62.5235 37.4625L62.5112 36.464C62.6386 36.3994 64.7679 36.4553 65.1058 36.4559L71.5156 36.4578L71.4824 36.4667C71.1913 36.5248 70.7949 36.4772 70.4939 36.4766L68.1095 36.474C67.7523 36.475 67.3692 36.4473 67.0151 36.4886L66.7135 36.4989L66.6978 36.5339L73.5715 36.5332L77.6473 36.5355L78.7343 36.5333C78.8992 36.5329 79.0964 36.5524 79.2579 36.5275C79.3544 36.5351 79.4464 36.5366 79.5388 36.5668L62.6662 36.5656L62.6704 38.5533Z" fill="#0F0F28"/>
<path d="M77.2229 36.4564L82.51 36.4612C82.7169 36.5415 83.1617 36.4829 83.3912 36.4827L85.7052 36.4795C85.9398 36.4791 86.25 36.4398 86.4706 36.4989L86.5339 36.5146V36.5348L85.0856 36.5408C84.864 36.5409 84.5692 36.5058 84.3581 36.5679L79.5388 36.5668C79.4464 36.5366 79.3543 36.5351 79.2579 36.5275C79.0964 36.5523 78.8992 36.5328 78.7343 36.5333L77.6473 36.5354L73.5715 36.5332L66.6978 36.5339L66.7135 36.4989L67.0151 36.4885C67.3692 36.4473 67.7523 36.475 68.1095 36.474L70.4939 36.4766C70.7949 36.4772 71.1913 36.5248 71.4824 36.4667L71.5156 36.4578L75.3776 36.4567L77.2229 36.4564Z" fill="#010002"/>
<path d="M97.353 36.5489L97.8459 36.5367L97.8436 37.855C97.8433 38.085 97.8257 38.3264 97.8481 38.5543L97.829 38.6101L94.9092 38.5912L96.7751 37.075C96.9349 36.9415 97.2671 36.7297 97.353 36.5489Z" fill="url(#paint1_linear_129_10919)"/>
<path d="M62.6914 41.7271L62.6948 38.577L70.9128 38.5888L85.4602 38.5883L91.9373 38.6005L93.8328 38.6015C94.1732 38.6016 94.5368 38.5765 94.8733 38.6185L89.1803 43.2048L77.4042 52.7169L72.751 56.4722C71.9842 57.0841 71.2109 57.7522 70.3923 58.2916C70.2768 58.3677 70.1846 58.3529 70.0518 58.3573L64.7853 58.3534L63.3606 58.3525C63.1536 58.3523 62.8889 58.3856 62.6946 58.3238L62.6914 41.7271Z" fill="#46ABAD"/>
<defs>
<linearGradient id="paint0_linear_129_10919" x1="84.9423" y1="57.035" x2="77.984" y2="80.5154" gradientUnits="userSpaceOnUse">
<stop stop-color="#626267"/>
<stop offset="1" stop-color="#7C838D"/>
</linearGradient>
<linearGradient id="paint1_linear_129_10919" x1="95.0011" y1="38.2579" x2="97.9964" y2="37.4308" gradientUnits="userSpaceOnUse">
<stop stop-color="#092537"/>
<stop offset="1" stop-color="#0A3B40"/>
</linearGradient>
</defs>
</svg>
