<svg width="159" height="109" viewBox="0 0 159 109" fill="none" xmlns="http://www.w3.org/2000/svg">
<path d="M149.584 26.9871V13.4201L137.835 6.63696L126.085 13.4201V26.9871L137.835 33.7702L149.584 26.9871Z" fill="#66FECB"/>
<path d="M144.697 24.1656V16.241L137.834 12.2794L130.972 16.241V24.1656L137.834 28.1279L144.697 24.1656Z" fill="#66FECB"/>
<path d="M140.417 21.6946V18.7127L137.835 17.2214L135.252 18.7127V21.6946L137.835 23.1859L140.417 21.6946Z" fill="url(#paint0_linear_117_5670)"/>
<path d="M137.834 12.2793V6.63696L149.584 13.4201L144.697 16.241L137.834 12.2793Z" fill="#5EDEB3"/>
<path d="M144.697 24.1656V16.241L149.584 13.4202V26.9872L144.697 24.1656Z" fill="#01B478"/>
<path d="M137.834 28.128V33.7703L149.584 26.9872L144.697 24.1656L137.834 28.128Z" fill="#1DCE92"/>
<path d="M130.972 24.1656L126.085 26.9872L137.835 33.7703V28.128L130.972 24.1656Z" fill="#01B478"/>
<path d="M126.085 13.4202L130.972 16.241V24.1656L126.085 26.9872V13.4202Z" fill="#5EDEB3"/>
<path d="M137.835 12.2793L130.972 16.241L126.085 13.4201L137.835 6.63696V12.2793Z" fill="#2AFFB7"/>
<path d="M149.584 13.4202L144.398 16.0696L138.066 12.4108L137.834 6.63495L137.603 12.4108L131.268 16.0675L126.083 13.4181L130.97 16.2396V19.0542C131.062 18.1748 131.154 17.2949 131.246 16.4146L137.834 12.8325L144.421 16.4146C144.513 17.2949 144.606 18.1748 144.698 19.0542V16.2396L144.767 16.2016L149.584 13.4202Z" fill="white"/>
<path d="M137.835 5.13186L138.487 5.50798L150.235 12.2918L150.887 12.6679V27.7401L150.235 28.1162L138.487 34.9L137.835 35.2761L137.183 34.9L125.434 28.1162L124.782 27.7401V12.6679L125.434 12.2918L137.183 5.50798L137.835 5.13186ZM137.835 4.34991C137.697 4.35004 137.563 4.38629 137.444 4.45501L136.792 4.83111L125.043 11.6143L124.391 11.9904C124.272 12.059 124.174 12.1578 124.105 12.2767C124.036 12.3957 124 12.5306 124 12.6679V27.7401C124 27.8774 124.036 28.0123 124.105 28.1312C124.174 28.2502 124.272 28.3489 124.391 28.4176L125.043 28.7937L136.79 35.5762L137.442 35.9523C137.561 36.0211 137.696 36.0574 137.833 36.0574C137.97 36.0574 138.105 36.0211 138.224 35.9523L138.875 35.5762L150.626 28.7965L151.278 28.4204C151.397 28.3517 151.495 28.2529 151.564 28.134C151.633 28.0151 151.669 27.8802 151.669 27.7428V12.6707C151.669 12.5334 151.633 12.3984 151.564 12.2795C151.495 12.1606 151.397 12.0618 151.278 11.9931L150.626 11.617L138.877 4.83388L138.226 4.45777C138.107 4.38905 137.972 4.35281 137.835 4.35267V4.34991Z" fill="#441F00"/>
<path d="M150.235 12.2918L138.486 5.50795L137.834 5.13184L137.183 5.50795L125.434 12.2918L124.782 12.6679V27.74L125.434 28.1161L137.183 34.9L137.834 35.2761L138.486 34.9L150.235 28.1161L150.887 27.74V12.6679L150.235 12.2918ZM137.834 30.8499L136.175 32.8134L127.74 27.944L128.611 25.5242L126.082 25.0699V15.3346L128.611 14.881L127.739 12.4612L136.174 7.59247L137.834 9.55668L139.493 7.59247L147.928 12.4612L147.056 14.881L149.586 15.3346V25.0727L147.056 25.5269L147.928 27.9467L139.493 32.8162L137.834 30.8499Z" fill="url(#paint1_linear_117_5670)"/>
<path d="M149.584 15.3346L147.054 14.881L147.926 12.4612L139.491 7.59247L137.832 9.55668L136.172 7.59247L127.738 12.4612L128.609 14.881L126.08 15.3346V25.0727L128.609 25.5269L127.738 27.9467L136.173 32.8162L137.832 30.8526L139.492 32.8162L147.927 27.9467L147.055 25.5269L149.585 25.0727L149.584 15.3346ZM139.61 8.26241L147.284 12.6949L146.56 14.6999C146.541 14.7561 146.532 14.8153 146.533 14.8748L140.674 18.257L138.092 16.7664V10.0012C138.144 9.97255 138.191 9.93487 138.23 9.88993L139.61 8.26241ZM137.834 23.1845L135.252 21.6932V18.7113L137.834 17.22L140.417 18.7113V21.6932L137.834 23.1845ZM136.06 8.26241L137.436 9.89269C137.475 9.93783 137.522 9.97575 137.575 10.0047V16.7685L134.992 18.2612L129.134 14.8789C129.135 14.8194 129.125 14.7603 129.106 14.704L128.383 12.699L136.06 8.26241ZM126.606 15.7708L128.707 15.394C128.765 15.3825 128.821 15.361 128.872 15.3304L134.731 18.7127V21.6946L128.872 25.0768C128.821 25.0465 128.765 25.0252 128.707 25.0139L126.606 24.6364V15.7708ZM136.06 32.1434L128.385 27.711L129.109 25.706C129.128 25.6497 129.137 25.5906 129.137 25.5311L134.995 22.1488L137.577 23.6394V30.4046C137.525 30.4335 137.478 30.4712 137.439 30.5159L136.06 32.1434ZM147.287 27.711L139.613 32.1434L138.236 30.5132C138.197 30.4684 138.15 30.4308 138.098 30.4018V23.6367L140.68 22.1461L146.539 25.5283C146.538 25.5878 146.547 25.647 146.567 25.7032L147.287 27.711ZM149.063 24.6364L146.962 25.0139C146.904 25.0252 146.848 25.0465 146.797 25.0768L140.938 21.6946V18.7127L146.797 15.3304C146.848 15.361 146.904 15.3825 146.962 15.394L149.063 15.7708V24.6364Z" fill="#441F00"/>
<path d="M149.334 26.6472V13.0802L137.585 6.29706L125.835 13.0802V26.6472L137.585 33.4303L149.334 26.6472Z" fill="#66FECB"/>
<path d="M144.447 23.8257V15.9011L137.584 11.9395L130.722 15.9011V23.8257L137.584 27.788L144.447 23.8257Z" fill="#66FECB"/>
<path d="M140.167 21.3547V18.3728L137.585 16.8815L135.002 18.3728V21.3547L137.585 22.846L140.167 21.3547Z" fill="url(#paint2_linear_117_5670)"/>
<path d="M137.584 11.9394V6.29706L149.334 13.0802L144.447 15.901L137.584 11.9394Z" fill="#5EDEB3"/>
<path d="M144.447 23.8257V15.9011L149.334 13.0803V26.6472L144.447 23.8257Z" fill="#01B478"/>
<path d="M137.584 27.788V33.4304L149.334 26.6473L144.447 23.8257L137.584 27.788Z" fill="#1DCE92"/>
<path d="M130.722 23.8257L125.835 26.6473L137.585 33.4304V27.788L130.722 23.8257Z" fill="#01B478"/>
<path d="M125.835 13.0803L130.722 15.9011V23.8257L125.835 26.6472V13.0803Z" fill="#5EDEB3"/>
<path d="M137.585 11.9394L130.722 15.901L125.835 13.0802L137.585 6.29706V11.9394Z" fill="#2AFFB7"/>
<path d="M149.334 13.0803L144.148 15.7296L137.816 12.0709L137.584 6.29504L137.353 12.0709L131.018 15.7276L125.833 13.0782L130.72 15.8997V18.7143C130.812 17.8349 130.904 16.955 130.996 16.0746L137.584 12.4926L144.171 16.0746C144.263 16.955 144.356 17.8349 144.448 18.7143V15.8997L144.517 15.8617L149.334 13.0803Z" fill="white"/>
<path d="M137.585 4.79196L138.237 5.16807L149.985 11.9519L150.637 12.328V27.4002L149.985 27.7763L138.237 34.5601L137.585 34.9362L136.933 34.5601L125.184 27.7763L124.532 27.4002V12.328L125.184 11.9519L136.933 5.16807L137.585 4.79196ZM137.585 4.01001C137.447 4.01014 137.313 4.04638 137.194 4.1151L136.542 4.49121L124.793 11.2744L124.141 11.6505C124.022 11.7191 123.924 11.8179 123.855 11.9368C123.786 12.0558 123.75 12.1907 123.75 12.328V27.4002C123.75 27.5375 123.786 27.6724 123.855 27.7913C123.924 27.9103 124.022 28.009 124.141 28.0777L124.793 28.4538L136.54 35.2363L137.192 35.6124C137.311 35.6812 137.446 35.7175 137.583 35.7175C137.72 35.7175 137.855 35.6812 137.974 35.6124L138.625 35.2363L150.376 28.4566L151.028 28.0805C151.147 28.0118 151.245 27.913 151.314 27.7941C151.383 27.6752 151.419 27.5403 151.419 27.4029V12.3308C151.419 12.1934 151.383 12.0585 151.314 11.9396C151.245 11.8207 151.147 11.7219 151.028 11.6532L150.376 11.2771L138.627 4.49398L137.976 4.11786C137.857 4.04915 137.722 4.01291 137.585 4.01277V4.01001Z" fill="#434343"/>
<path d="M149.985 11.9519L138.236 5.16805L137.584 4.79193L136.933 5.16805L125.184 11.9519L124.532 12.328V27.4001L125.184 27.7762L136.933 34.5601L137.584 34.9362L138.236 34.5601L149.985 27.7762L150.637 27.4001V12.328L149.985 11.9519ZM137.584 30.51L135.925 32.4735L127.49 27.6041L128.361 25.1842L125.832 24.73V14.9947L128.361 14.5411L127.489 12.1213L135.924 7.25257L137.584 9.21678L139.243 7.25257L147.678 12.1213L146.806 14.5411L149.336 14.9947V24.7328L146.806 25.187L147.678 27.6068L139.243 32.4762L137.584 30.51Z" fill="url(#paint3_linear_117_5670)"/>
<path d="M149.334 14.9947L146.804 14.5411L147.676 12.1213L139.241 7.25256L137.582 9.21677L135.922 7.25256L127.488 12.1213L128.359 14.5411L125.83 14.9947V24.7328L128.359 25.187L127.488 27.6068L135.923 32.4762L137.582 30.5127L139.242 32.4762L147.677 27.6068L146.805 25.187L149.335 24.7328L149.334 14.9947ZM139.36 7.92251L147.034 12.355L146.31 14.36C146.291 14.4162 146.282 14.4754 146.283 14.5349L140.424 17.9171L137.842 16.4265V9.66134C137.894 9.63264 137.941 9.59496 137.98 9.55002L139.36 7.92251ZM137.584 22.8446L135.002 21.3533V18.3714L137.584 16.8801L140.167 18.3714V21.3533L137.584 22.8446ZM135.81 7.92251L137.186 9.55278C137.225 9.59793 137.272 9.63584 137.325 9.66479V16.4286L134.742 17.9213L128.884 14.539C128.885 14.4795 128.875 14.4204 128.856 14.3641L128.133 12.3591L135.81 7.92251ZM126.356 15.4309L128.457 15.0541C128.515 15.0426 128.571 15.0211 128.622 14.9905L134.481 18.3727V21.3547L128.622 24.7369C128.571 24.7066 128.515 24.6853 128.457 24.674L126.356 24.2965V15.4309ZM135.81 31.8035L128.135 27.3711L128.859 25.3661C128.878 25.3098 128.887 25.2506 128.887 25.1912L134.745 21.8089L137.327 23.2995V30.0647C137.275 30.0936 137.228 30.1313 137.189 30.176L135.81 31.8035ZM147.037 27.3711L139.363 31.8035L137.986 30.1733C137.947 30.1285 137.9 30.0909 137.848 30.0619V23.2968L140.43 21.8062L146.289 25.1884C146.288 25.2479 146.297 25.3071 146.317 25.3633L147.037 27.3711ZM148.813 24.2965L146.712 24.674C146.654 24.6853 146.598 24.7066 146.547 24.7369L140.688 21.3547V18.3727L146.547 14.9905C146.598 15.0211 146.654 15.0426 146.712 15.0541L148.813 15.4309V24.2965Z" fill="#434343"/>
<mask id="path-27-inside-1_117_5670" fill="white">
<path fill-rule="evenodd" clip-rule="evenodd" d="M118.25 12.34C118.25 5.71255 112.877 0.339966 106.25 0.339966H12.25C5.62258 0.339966 0.25 5.71254 0.25 12.34V96.67C0.25 103.297 5.62258 108.67 12.25 108.67H146.25C152.877 108.67 158.25 103.297 158.25 96.67V52.34C158.25 45.7125 152.877 40.34 146.25 40.34H130.25C123.623 40.34 118.25 34.9674 118.25 28.34V12.34Z"/>
</mask>
<path fill-rule="evenodd" clip-rule="evenodd" d="M118.25 12.34C118.25 5.71255 112.877 0.339966 106.25 0.339966H12.25C5.62258 0.339966 0.25 5.71254 0.25 12.34V96.67C0.25 103.297 5.62258 108.67 12.25 108.67H146.25C152.877 108.67 158.25 103.297 158.25 96.67V52.34C158.25 45.7125 152.877 40.34 146.25 40.34H130.25C123.623 40.34 118.25 34.9674 118.25 28.34V12.34Z" fill="white"/>
<path d="M12.25 1.33997H106.25V-0.660034H12.25V1.33997ZM1.25 96.67V12.34H-0.75V96.67H1.25ZM146.25 107.67H12.25V109.67H146.25V107.67ZM157.25 52.34V96.67H159.25V52.34H157.25ZM146.25 39.34H130.25V41.34H146.25V39.34ZM119.25 28.34V12.34H117.25V28.34H119.25ZM130.25 39.34C124.175 39.34 119.25 34.4151 119.25 28.34H117.25C117.25 35.5197 123.07 41.34 130.25 41.34V39.34ZM159.25 52.34C159.25 45.1603 153.43 39.34 146.25 39.34V41.34C152.325 41.34 157.25 46.2648 157.25 52.34H159.25ZM146.25 109.67C153.43 109.67 159.25 103.85 159.25 96.67H157.25C157.25 102.745 152.325 107.67 146.25 107.67V109.67ZM-0.75 96.67C-0.75 103.85 5.0703 109.67 12.25 109.67V107.67C6.17487 107.67 1.25 102.745 1.25 96.67H-0.75ZM106.25 1.33997C112.325 1.33997 117.25 6.26483 117.25 12.34H119.25C119.25 5.16026 113.43 -0.660034 106.25 -0.660034V1.33997ZM12.25 -0.660034C5.0703 -0.660034 -0.75 5.16025 -0.75 12.34H1.25C1.25 6.26483 6.17487 1.33997 12.25 1.33997V-0.660034Z" fill="#C2C2C2" mask="url(#path-27-inside-1_117_5670)"/>
<path d="M51.5002 73.8449L107 72.3503L105.836 75.4231C105.759 75.6248 105.583 76.1946 105.495 76.279C105.349 76.419 105.07 76.2919 104.907 76.2952L102.588 76.279L94.0295 76.2543L54.5 76.3449L51.5002 73.8449C51.6964 74.1975 51.3235 73.3867 51.5002 73.8449Z" fill="#413E76"/>
<path d="M51.5002 73.8449L107 72.3503L105.836 75.4231C105.759 75.6248 105.583 76.1946 105.495 76.279C105.349 76.419 105.07 76.2919 104.907 76.2952L102.588 76.279L94.0295 76.2543L54.5 76.3449L51.5002 73.8449ZM51.5002 73.8449C51.3235 73.3867 51.6964 74.1975 51.5002 73.8449Z" stroke="black" stroke-linejoin="round"/>
<path d="M61.1448 38.4193L61.1378 35.5039L61.9068 36.9787C61.935 37.0275 61.9471 37.0618 61.9488 37.1189L61.9457 39.1805L61.9402 43.2295L61.9432 54.8638L61.9442 57.7684C61.9446 58.2436 61.8955 58.7868 61.9734 59.2526L61.1774 59.2738L61.2078 59.4181L61.1001 59.5257C60.9993 59.0026 61.0582 58.3841 61.0575 57.851L61.0555 54.6546L61.0508 43.2384C61.1243 42.6462 61.0661 41.9762 61.0664 41.3769L61.069 37.5534L61.0703 36.731C61.0706 36.5678 61.0512 36.3898 61.1036 36.2344L61.1032 37.7475C61.1037 37.9349 61.0695 38.1907 61.1257 38.3649L61.1448 38.4193Z" fill="#98A5C5" stroke="black" stroke-linejoin="round"/>
<path d="M61.0508 43.2384C61.1243 42.6462 61.0661 41.9763 61.0664 41.377L61.069 37.5535L61.0703 36.7311C61.0706 36.5679 61.0512 36.3898 61.1036 36.2344L61.1032 37.7475C61.1037 37.9349 61.0695 38.1908 61.1257 38.3649L61.1448 38.4194L61.1774 59.2739L61.2078 59.4181L61.1001 59.5257C60.9993 59.0027 61.0582 58.3841 61.0575 57.8511L61.0555 54.6546L61.0508 43.2384Z" fill="#030015" stroke="black" stroke-linejoin="round"/>
<path d="M98.6008 35.6575L98.6251 58.9299L97.5394 58.9357C97.4722 58.9281 97.4787 58.9403 97.4286 58.8866L97.4217 42.4539L97.4291 38.5552L97.43 37.6045C97.43 37.4869 97.4071 37.3148 97.4303 37.2022C97.4507 37.1029 97.6844 36.876 97.7535 36.7881L98.6008 35.6575Z" fill="#413E76" stroke="black" stroke-linejoin="round"/>
<path d="M79.9025 35.0251L98.6429 35.0335C98.4891 35.3109 98.2698 35.5528 98.0787 35.8051L97.2341 36.9693L82.6623 36.9692L78.2774 36.9604L77.0358 36.9572C76.807 36.9567 76.5648 36.9723 76.3379 36.9452C76.7346 36.9053 77.1619 36.9353 77.5625 36.9359L79.9314 36.9414L79.9356 36.3389C80.1911 36.3399 80.6779 36.4014 80.8838 36.2648C80.9256 36.186 80.9483 36.1299 80.9528 36.0396C80.961 35.8767 80.9469 35.7742 80.8334 35.6542C80.5873 35.553 80.1738 35.6089 79.9042 35.6099L79.9025 35.0251Z" fill="#246282" stroke="black" stroke-linejoin="round"/>
<path d="M61.3341 34.9848L79.8965 35.0069L79.9026 35.0251L79.9043 35.6099C80.1739 35.6088 80.5875 35.553 80.8335 35.6542C80.9471 35.7742 80.9612 35.8767 80.953 36.0396C80.9484 36.1299 80.9257 36.186 80.8839 36.2647C80.6781 36.4013 80.1913 36.3399 79.9358 36.3389L79.9316 36.9414L77.5627 36.9359C77.1621 36.9352 76.7348 36.9053 76.338 36.9452L62.2782 36.9553L61.2808 35.0353L61.3341 34.9848Z" fill="#98A5C5" stroke="black" stroke-linejoin="round"/>
<path d="M79.9045 35.6099C80.1741 35.6089 80.5876 35.553 80.8337 35.6542C80.9472 35.7742 80.9613 35.8767 80.9531 36.0396C80.9486 36.1299 80.9259 36.186 80.8841 36.2648C80.6782 36.4014 80.1914 36.3399 79.9359 36.3389C79.7063 36.3395 78.9929 36.4052 78.8293 36.2846C78.7589 36.2327 78.7403 36.172 78.7335 36.0882C78.72 35.9232 78.7238 35.7853 78.8344 35.6542C79.0673 35.5441 79.6345 35.6082 79.9045 35.6099Z" fill="#030015" stroke="black" stroke-linejoin="round"/>
<path d="M78.9631 35.8764L79.0233 35.8541C79.1724 35.8185 80.6072 35.8245 80.7121 35.8852C80.7339 35.9798 80.7337 36.0345 80.7178 36.1303C80.4757 36.168 80.1959 36.1479 79.9489 36.1523C79.646 36.1578 79.2839 36.2005 78.9892 36.1398C78.9351 36.0535 78.9584 35.9765 78.9631 35.8764Z" fill="#342664" stroke="black" stroke-linejoin="round"/>
<path d="M85.13 33.8388L95.0347 33.8381L97.7806 33.8391C98.1728 33.8393 98.6269 33.7905 99.01 33.8532C99.1761 33.8803 99.3401 34.0015 99.4544 34.119C99.5689 34.2366 99.6603 34.3947 99.7144 34.5493L99.7184 52.1105L99.7387 57.5785L99.7497 59.077C99.7529 59.303 99.7789 59.5342 99.7723 59.7594C99.7692 59.8633 99.7481 59.9408 99.6853 60.0248L98.9738 60.018C98.8253 60.0187 98.6674 60.0056 98.523 60.0433C98.4902 60.1417 98.4995 60.2479 98.4997 60.3504C98.3542 60.0381 98.5673 59.5699 98.4453 59.2514L98.3878 59.2067L98.8194 59.0748L98.827 34.8179L96.3642 34.825L85.8871 34.819L81.8256 34.8158L80.6671 34.8171C80.4336 34.8177 80.1929 34.804 79.9621 34.8416L79.9048 34.8427L79.9057 33.8539L85.0946 33.8428L85.13 33.8388Z" fill="#130B30" stroke="black" stroke-linejoin="round"/>
<path d="M76.7508 58.9606L62.249 58.967L62.2542 37.2488L79.9099 37.2544L79.9086 38.3417L78.3448 38.3404L68.1327 38.3396L65.0138 38.3259C64.4635 38.3215 63.8705 38.2697 63.3247 38.3292L63.2811 57.5129L75.5202 57.5092L75.5615 57.5128C76.4849 57.5874 77.4468 57.5386 78.3748 57.5376C78.6368 57.5373 79.0512 57.4839 79.29 57.5522L79.2893 58.9388L77.6873 58.9423C77.3826 58.9434 77.0526 58.9233 76.7508 58.9606Z" fill="#413E76" stroke="black" stroke-linejoin="round"/>
<path d="M79.9097 37.2544L93.8392 37.2525L96.4085 37.2541C96.563 37.2542 97.0487 37.2058 97.169 37.2713L97.1691 58.9551L82.688 58.9425L79.5347 58.944L77.635 58.9714C77.3454 58.9714 77.0373 58.9922 76.7506 58.9606C77.0525 58.9233 77.3824 58.9434 77.6872 58.9423L79.2891 58.9388L79.2898 57.5522C79.051 57.4839 78.6367 57.5374 78.3746 57.5376C77.4466 57.5386 76.4847 57.5874 75.5613 57.5128L75.52 57.5092C75.7642 57.48 76.0253 57.4986 76.2718 57.4998L77.5461 57.5066L81.4493 57.5046L96.0634 57.5069L96.0659 38.3763L78.3835 38.3446L78.3446 38.3404L79.9084 38.3417L79.9097 37.2544Z" fill="#170F3E" stroke="black" stroke-linejoin="round"/>
<path d="M60.4776 34.0269C60.624 33.9222 60.7943 33.8562 60.9733 33.8357C61.3215 33.7956 61.7128 33.8279 62.0661 33.8273L64.3353 33.8249L72.6586 33.8298L85.1305 33.8388L85.095 33.8428L79.9061 33.8539L79.9052 34.8427L79.9625 34.8416L80.2774 34.8642C80.1552 34.8724 80.0306 34.8752 79.9107 34.9004C79.7626 34.9314 79.5809 34.911 79.4285 34.9106L78.4061 34.9085C78.1329 34.9082 77.8849 34.8955 77.6182 34.9683L79.0024 34.9724C79.2443 34.9727 79.5029 34.9911 79.7423 34.9676L80.3532 34.9666V34.988C80.2045 34.9906 80.0424 34.9797 79.8967 35.0069L61.3343 34.9848C61.3323 34.9628 61.2574 34.9677 61.2404 34.956C61.2143 34.9379 61.2051 34.9032 61.1875 34.8768L61.0667 34.8868C60.9981 35.0505 61.0333 35.3155 61.0339 35.4942L61.0283 36.5669L61.0353 40.8731L61.0373 42.4244C61.0377 42.6878 61.0172 42.9781 61.0511 43.2384L61.0558 54.6546L61.0579 57.8511C61.0585 58.3841 60.9996 59.0027 61.1005 59.5257C61.1311 59.7496 61.1982 60.0578 61.16 60.2815C61.1519 60.3293 61.0753 60.4323 61.0496 60.4771L60.7043 61.0397C60.1101 61.9838 59.4261 62.9276 58.9143 63.916C58.6652 64.2721 58.4529 64.6604 58.22 65.028L55.645 69.1384L53.8727 71.9469L53.2777 72.873C53.208 72.9804 53.0519 73.1732 53.0212 73.2915C53.005 73.3543 53.0606 73.5729 53.0742 73.6457L53.118 73.8276C53.1837 73.8593 53.2352 73.88 53.284 73.936L53.324 73.9942C53.2563 74.0062 53.216 74.0062 53.1513 73.9887C52.9672 73.9392 52.7242 73.9635 52.5323 73.9615L51.6142 73.9398C51.5343 74.0116 51.5556 74.026 51.545 74.1313L51.3052 73.901L60.2054 59.8982C60.1148 59.7757 60.0073 59.6377 59.9756 59.4854C59.9428 59.3268 59.9584 59.1488 59.9593 58.987L59.9654 58.1407L59.9726 55.374L59.9513 51.1109C59.9834 50.8791 59.9635 50.6176 59.9649 50.382L59.9669 48.8676L59.9513 44.687C59.9861 44.4454 59.962 44.1673 59.9628 43.9214L59.9666 42.3531L59.972 37.3608C59.9723 36.5384 59.924 35.6886 59.9785 34.8708C60.0017 34.5213 60.2212 34.2439 60.4776 34.0269Z" fill="#342664" stroke="black" stroke-linejoin="round"/>
<path d="M79.9052 34.8427L79.9625 34.8416L80.2774 34.8642C80.1552 34.8723 80.0306 34.8752 79.9107 34.9003C79.7626 34.9314 79.5809 34.9109 79.4285 34.9105L78.4061 34.9085C78.133 34.9082 77.8849 34.8955 77.6182 34.9683L79.0024 34.9724C79.2443 34.9726 79.503 34.991 79.7423 34.9676L80.3532 34.9665V34.988C80.2046 34.9906 80.0425 34.9797 79.8967 35.0069L61.3343 34.9848C61.3324 34.9628 61.2574 34.9677 61.2404 34.9559C61.2143 34.9379 61.2051 34.9032 61.1875 34.8768L65.6702 34.867L75.3185 34.877L78.5039 34.8766L79.3773 34.8731C79.5529 34.8719 79.7331 34.8817 79.9052 34.8427Z" fill="#030015" stroke="black" stroke-linejoin="round"/>
<path d="M60.4776 34.0269C60.4569 34.1572 60.3154 34.2483 60.2336 34.3529C60.1386 34.4745 60.0922 34.5994 60.0701 34.7497L60.0628 34.7942C59.9941 35.2454 60.0336 35.7574 60.0302 36.2148L60.0508 39.8754L60.0506 51.0247L60.036 57.5197C60.0469 58.1207 59.9994 58.7522 60.0551 59.3487C60.0643 59.4469 60.079 59.5321 60.1402 59.612L60.3431 59.84C60.3119 59.973 60.2575 60.0835 60.1894 60.2004L58.8627 62.2925L55.3445 67.8442L53.4046 70.9033C52.7935 71.8823 52.1934 72.896 51.5019 73.8197L53.118 73.8276C53.1837 73.8593 53.2352 73.88 53.284 73.936L53.324 73.9942C53.2563 74.0062 53.216 74.0062 53.1513 73.9887C52.9672 73.9392 52.7242 73.9635 52.5323 73.9615L51.6142 73.9398C51.5343 74.0116 51.5556 74.026 51.545 74.1313L51.3052 73.901L60.2054 59.8982C60.1148 59.7757 60.0073 59.6377 59.9756 59.4854C59.9428 59.3268 59.9584 59.1488 59.9593 58.987L59.9654 58.1407L59.9726 55.374L59.9513 51.1109C59.9834 50.8791 59.9635 50.6176 59.9649 50.382L59.9669 48.8676L59.9513 44.687C59.9861 44.4454 59.962 44.1673 59.9628 43.9214L59.9666 42.3531L59.972 37.3608C59.9723 36.5384 59.924 35.6886 59.9785 34.8708C60.0017 34.5213 60.2212 34.2439 60.4776 34.0269Z" fill="#030015" stroke="black" stroke-linejoin="round"/>
<path d="M75.5204 57.5092L63.2812 57.5129L63.3249 38.3292C63.8707 38.2698 64.4637 38.3215 65.014 38.3259L68.1329 38.3396L78.3449 38.3404L78.3838 38.3446L96.0663 38.3763L96.0637 57.5069L81.4496 57.5046L77.5464 57.5066L76.2722 57.4999C76.0256 57.4986 75.7646 57.48 75.5204 57.5092Z" fill="url(#paint4_linear_117_5670)" stroke="black" stroke-linejoin="round"/>
<path d="M89.6075 51.8636L85.792 48.0799L92.2192 48.0684L89.6075 51.8636Z" fill="#33A6AA" stroke="black" stroke-linejoin="round"/>
<path d="M63.6224 57.1622C63.6038 57.1227 63.5971 57.0943 63.5962 57.0504L63.5947 56.3534C63.5947 56.3176 63.5814 56.1781 63.5949 56.1498C63.6237 56.0896 63.7526 55.9851 63.8018 55.9337L64.4516 55.243L69.7152 49.6682L70.8859 51.4623C70.12 51.9496 69.4023 52.5489 68.6927 53.1138L66.8363 54.5756L64.2741 56.6641C64.1095 56.7956 63.8107 57.1133 63.6224 57.1622Z" fill="#3DC2D7" stroke="black" stroke-linejoin="round"/>
<path d="M64.9365 38.6336L69.6708 38.6348L69.6585 49.2223L67.6995 47.1777L66.9968 46.4554C66.9034 46.3576 66.7711 46.2469 66.6974 46.1353L69.3771 38.6976L69.3923 38.6653L64.9771 38.6645L64.9365 38.6336Z" fill="#33A6AA" stroke="black" stroke-linejoin="round"/>
<path d="M95.3259 39.2512C95.4756 39.0956 95.6391 38.9707 95.812 38.8422L95.8107 47.7886L89.2861 47.7854C89.5363 47.7169 89.8984 47.7595 90.1603 47.7592L92.2118 47.7595C92.4104 47.0395 92.6959 46.3443 92.956 45.6449L93.8376 43.2486L95.0824 40.1604C95.1765 39.8985 95.3559 39.525 95.3259 39.2512Z" fill="#065655" stroke="black" stroke-linejoin="round"/>
<path d="M71.0936 51.3637L69.9126 49.5355L69.9353 49.4955C70.1141 49.2656 70.3795 49.0505 70.5874 48.8434L72.4659 47.019L77.3939 42.1736L79.257 40.3347L80.5529 38.9973C80.6374 38.9091 80.8005 38.6854 80.9019 38.6315C80.9156 38.6242 80.9329 38.6279 80.9484 38.6261L81.1149 38.6064C80.4682 39.6968 79.5244 40.6081 78.7586 41.6129L74.1377 47.4972L72.7998 49.2395L71.0936 51.3637Z" fill="#E6EDE9" stroke="black" stroke-linejoin="round"/>
<path d="M63.5913 55.3305L63.5919 43.3156L66.5957 46.4627C66.2978 47.1467 66.0991 47.8699 65.8615 48.5762L64.3007 53.365L63.9672 54.4554C63.8747 54.7595 63.7986 55.0815 63.5913 55.3305Z" fill="#33A6AA" stroke="black" stroke-linejoin="round"/>
<path d="M85.9793 57.2538L85.5747 57.2559L85.5679 48.2534L89.3927 52.0373C89.2507 52.3075 89.0678 52.5571 88.905 52.8152L87.6275 54.7455L86.4238 56.4859C86.2769 56.7068 86.0381 56.994 85.9793 57.2538Z" fill="#0E7872" stroke="black" stroke-linejoin="round"/>
<path d="M66.5953 46.4627L69.5447 49.5067L63.5731 55.8502C63.5781 55.6932 63.5574 55.4801 63.5909 55.3305C63.7982 55.0815 63.8743 54.7595 63.9668 54.4554L64.3003 53.365L65.8611 48.5762C66.0988 47.8699 66.2974 47.1467 66.5953 46.4627Z" fill="#0E7872" stroke="black" stroke-linejoin="round"/>
<path d="M84.0067 49.3298C84.0207 49.3281 84.1116 49.2414 84.1247 49.2302L84.7545 48.6822C84.7423 48.7945 84.7137 48.8741 84.6578 48.9723C84.3067 49.59 83.8675 50.1646 83.4734 50.7554L80.8253 54.7767C80.3009 55.5791 79.7337 56.3756 79.2927 57.2276L75.2105 57.2192L75.9834 56.5059L75.9827 56.432L75.7272 56.6887C75.585 56.7843 75.4835 56.9533 75.3463 57.0379C75.2712 57.0841 75.2282 57.1178 75.1639 57.1807C75.1014 57.1611 75.0471 57.14 74.9893 57.1093L75.7377 56.407L75.7595 56.3891L75.6975 56.3722L80.54 52.0251C80.4934 52.1667 80.3576 52.2527 80.2466 52.3455C80.2806 52.3884 80.288 52.4351 80.2988 52.4881L80.3054 52.5231L80.9481 51.9439L81.0195 51.8728C81.0895 51.8195 81.1333 51.7914 81.1906 51.7221L81.2102 51.698C81.2614 51.6811 81.2492 51.6912 81.284 51.6613L81.408 51.556L81.4956 51.4916C81.7992 51.1745 82.182 50.9207 82.4994 50.6104L82.5668 50.5474C82.6549 50.4952 82.5948 50.5547 82.6518 50.4916C83.023 50.0799 83.4996 49.7467 83.8995 49.3599C83.9377 49.3229 83.9551 49.3333 84.0067 49.3298Z" fill="#0E7872" stroke="black" stroke-linejoin="round"/>
<path d="M80.54 52.0251C80.4934 52.1667 80.3576 52.2527 80.2466 52.3455C80.2806 52.3884 80.288 52.435 80.2988 52.4881L80.3054 52.5231L80.9481 51.9439L81.0195 51.8728C81.0895 51.8195 81.1333 51.7914 81.1906 51.7221L81.2102 51.698C81.2614 51.6811 81.2492 51.6912 81.284 51.6613L81.408 51.556L81.4956 51.4916C81.7992 51.1745 82.182 50.9207 82.4994 50.6103L82.5668 50.5474C82.6549 50.4952 82.5948 50.5547 82.6518 50.4916C83.023 50.0799 83.4996 49.7467 83.8995 49.3599C83.9377 49.3229 83.9551 49.3333 84.0067 49.3298L75.9834 56.5059L75.9827 56.432L75.7272 56.6887C75.585 56.7843 75.4835 56.9533 75.3463 57.0379C75.2712 57.0841 75.2282 57.1178 75.1639 57.1807C75.1014 57.1611 75.0471 57.14 74.9893 57.1093L75.7377 56.407L75.7595 56.3891L75.6975 56.3722L80.54 52.0251Z" fill="#030015" stroke="black" stroke-linejoin="round"/>
<path d="M89.3924 52.0373L92.9611 55.5601L94.1253 56.7106C94.3036 56.8899 94.5124 57.0696 94.6672 57.2688L85.979 57.2538C86.0378 56.9941 86.2766 56.7068 86.4235 56.4859L87.6272 54.7455L88.9048 52.8153C89.0676 52.5572 89.2504 52.3075 89.3924 52.0373Z" fill="#065655" stroke="black" stroke-linejoin="round"/>
<path d="M95.3256 39.2512C95.3555 39.5251 95.1762 39.8985 95.082 40.1605L93.8372 43.2487L92.9557 45.6449C92.6956 46.3443 92.41 47.0395 92.2115 47.7596L90.1599 47.7592C89.898 47.7596 89.5359 47.7169 89.2858 47.7855L85.7783 47.7974L95.3256 39.2512Z" fill="#246282" stroke="black" stroke-linejoin="round"/>
<path d="M84.7543 48.6822C84.9114 48.5002 85.1026 48.3442 85.2819 48.1844L85.2772 57.2549L81.2863 57.2532L80.0393 57.2507C79.7916 57.2493 79.5379 57.2606 79.2925 57.2276C79.7335 56.3755 80.3007 55.5791 80.8251 54.7767L83.4732 50.7554C83.8673 50.1646 84.3066 49.5899 84.6576 48.9723C84.7135 48.8741 84.7421 48.7945 84.7543 48.6822Z" fill="#065655" stroke="black" stroke-linejoin="round"/>
<path d="M66.6972 46.1353L63.5928 42.9264L63.5949 38.6248L64.9364 38.6336L64.9769 38.6645L69.3922 38.6654L69.3769 38.6976L66.6972 46.1353Z" fill="#3DC2D7" stroke="black" stroke-linejoin="round"/>
<path d="M70.8861 51.4623L74.6405 57.191L66.4359 57.1827L64.5228 57.186C64.2575 57.1865 63.8689 57.2359 63.6226 57.1622C63.8109 57.1133 64.1097 56.7956 64.2743 56.6641L66.8364 54.5756L68.6929 53.1138C69.4025 52.5489 70.1202 51.9496 70.8861 51.4623Z" fill="#278D95" stroke="black" stroke-linejoin="round"/>
<path d="M92.2196 48.0683L95.8166 48.0675L95.8108 57.2846L95.0917 57.2895L89.6079 51.8635L92.2196 48.0683Z" fill="#278D95" stroke="black" stroke-linejoin="round"/>
<path d="M69.8726 38.6399L80.5674 38.6471L75.2424 43.9061L69.8457 49.189L69.8726 38.6399Z" fill="#0E7872" stroke="black" stroke-linejoin="round"/>
<path d="M81.115 38.6064L81.8417 38.6167L74.9922 56.9966L74.9416 57.0602C74.8142 56.9556 74.7169 56.7588 74.6261 56.6213L74.0504 55.7571L71.0938 51.3637L72.7999 49.2395L74.1378 47.4972L78.7587 41.6129C79.5245 40.6081 80.4683 39.6968 81.115 38.6064Z" fill="#97D5B1" stroke="black" stroke-linejoin="round"/>
<path d="M81.8418 38.6167L95.5978 38.6269L82.9143 49.9332C82.708 50.1173 80.5544 51.9788 80.54 52.0251L75.6975 56.3722C75.4718 56.5764 75.2405 56.8243 74.9922 56.9967L81.8418 38.6167Z" fill="#098F75" stroke="black" stroke-linejoin="round"/>
<path d="M98.5001 60.1741C98.5 60.0715 98.4906 59.9653 98.5234 59.8669C98.6678 59.8292 98.8257 59.8423 98.9742 59.8416L99.6857 59.8484C99.804 60.2198 100.133 60.6753 100.354 60.9989L103.612 66.3073L106.939 71.7465L108.199 73.7462L104.963 76.4131L104.905 76.4072L95.634 76.3795L87.3566 76.3939L75.1876 76.3827L62.1117 76.3823L54.5449 76.3773C54.6505 76.3255 54.747 76.2908 54.8652 76.2858L56.4125 76.2926L60.2812 76.303L72.8846 76.2876L104.817 76.2782L104.794 75.1356L54.8349 75.1619L53.8469 74.3734C53.7125 74.2632 53.5253 74.14 53.5078 73.9652C53.6958 74.0649 53.8727 74.2147 54.042 74.3442L54.9006 75.0158L93.7288 75.0076L101.929 75.0145L104.15 75.0191C104.306 75.0182 104.573 75.0541 104.713 75.0145C104.798 74.9907 104.966 74.8296 105.04 74.7726L106.156 73.9042L106.34 73.7359C106.515 73.6631 106.775 73.6803 106.963 73.6783L108.028 73.6719C107.733 73.2819 107.495 72.8709 107.235 72.4592L106.058 70.5645L104.926 68.7686L103.34 66.0866L99.6392 59.9818C99.4884 59.9463 99.2987 59.9667 99.1434 59.966C98.9795 59.9653 98.7816 59.9424 98.6228 59.9835C98.5231 60.2272 98.903 60.7647 99.0265 60.979L100.616 63.5786L105.092 70.9229L105.977 72.3947C106.081 72.5733 106.206 72.7443 106.264 72.9447L106.218 72.9765L105.796 72.2819L104.621 70.3363L101.359 65.0049L99.0984 61.3025L98.7294 60.678C98.6955 60.6163 98.6446 60.4703 98.5991 60.4241C98.5752 60.3998 98.5392 60.3913 98.5093 60.3749L98.5001 60.1741Z" fill="#030015" stroke="black" stroke-linejoin="round"/>
<path d="M106.815 74.0221L107.862 74.012L105.523 75.9687L104.921 76.4472L104.891 75.5716C104.888 75.4906 104.85 75.3216 104.901 75.2615C104.961 75.1893 105.099 75.121 105.182 75.0631L105.766 74.629C105.986 74.4584 106.197 74.2135 106.436 74.0793C106.534 74.0248 106.705 74.0293 106.815 74.0221Z" fill="#130B30" stroke="black" stroke-linejoin="round"/>
<path d="M106.218 73.1528L106.263 73.121C106.205 72.9206 106.081 72.7496 105.977 72.571L105.092 71.0992L100.616 63.7549L99.0263 61.1553C98.9028 60.9411 98.5229 60.4035 98.6226 60.1598C98.7814 60.1187 98.9793 60.1416 99.1432 60.1423C99.2985 60.143 99.4882 60.1226 99.639 60.1581L103.34 66.2629L104.926 68.9449L106.058 70.7408L107.235 72.6355C107.495 73.0472 107.733 73.4582 108.028 73.8482L106.963 73.8546C106.774 73.8566 106.514 73.8394 106.34 73.9122L106.156 74.0805L53.461 74.079L53.3238 73.9941L53.2838 73.936C53.235 73.8799 53.1835 73.8592 53.1178 73.8276L53.074 73.6456C53.0604 73.5729 53.0047 73.3542 53.021 73.2914C53.0517 73.1731 53.2078 72.9803 53.2775 72.8729L53.8725 71.9469L55.6448 69.1384L58.2198 65.0279C58.4527 64.6603 58.665 64.272 58.9141 63.9159L59.0123 63.9806L55.2643 69.987L53.9527 72.0809C53.6901 72.4954 53.4405 72.9235 53.139 73.3113L79.6068 73.3161L79.6011 72.4264L78.2583 72.4252L78.2022 72.3988C78.4166 72.3677 78.6795 72.3953 78.8983 72.3955L80.5331 72.4019L85.1741 72.3975C85.9409 72.3946 86.7396 72.4366 87.5031 72.384C87.5978 72.3775 87.6372 72.3821 87.7001 72.3119C87.6786 72.0594 87.5304 71.7684 87.4383 71.5313L89.8501 71.7625L95.0746 72.1924L100.76 72.6595L104.221 72.9688C104.872 73.0354 105.567 73.1634 106.218 73.1528Z" fill="#170F3E" stroke="black" stroke-linejoin="round"/>
<path d="M87.4382 71.5313L89.8501 71.7626L95.0745 72.1924L100.759 72.6595L104.221 72.9689C104.872 73.0354 105.567 73.1634 106.218 73.1528L106.291 73.264C106.129 73.3145 105.893 73.2862 105.722 73.2867L104.395 73.2889L97.1203 73.2849L87.0276 73.2888L79.6068 73.3161L79.6011 72.4265L78.2583 72.4253L78.2021 72.3988C78.4166 72.3677 78.6794 72.3954 78.8983 72.3955L80.5331 72.402L85.174 72.3975C85.9409 72.3946 86.7396 72.4366 87.5031 72.3841C87.5978 72.3775 87.6372 72.3821 87.7001 72.3119C87.6786 72.0594 87.5303 71.7685 87.4382 71.5313Z" fill="#413E76" stroke="black" stroke-linejoin="round"/>
<path d="M98.5094 60.5512C98.5393 60.5676 98.5752 60.5762 98.5991 60.6005C98.6447 60.6467 98.6955 60.7927 98.7295 60.8544L99.0984 61.4789L101.359 65.1813L104.621 70.5126L105.796 72.4583L106.218 73.1528C105.567 73.1634 104.872 73.0354 104.222 72.9689L100.76 72.6596L95.0748 72.1924L89.8504 71.7626L87.4385 71.5313C87.4135 71.5207 87.1527 70.8091 87.1201 70.7236C86.8599 70.042 86.6448 69.3065 86.3216 68.6539L80.9446 68.6523L83.7492 68.6309L83.7485 68.5985L79.5652 68.3254L79.5655 67.7231L78.7876 67.7189C79.5124 67.64 80.2865 67.6907 81.0178 67.6902L85.2673 67.6893L95.9748 67.6905L101.007 67.674C100.81 67.3432 100.574 67.0332 100.357 66.7148L98.8981 64.5948L97.44 62.5096C97.1821 62.1419 96.9527 61.7477 96.6561 61.4092C96.5551 61.1506 96.5057 60.8558 96.446 60.5847L98.5094 60.5512Z" fill="#342664" stroke="black" stroke-linejoin="round"/>
<path d="M98.3882 59.2067L98.4457 59.2514C98.5676 59.5699 98.3546 60.0381 98.5 60.3504L98.5093 60.5512L96.4458 60.5847C96.5056 60.8558 96.555 61.1506 96.656 61.4092C96.9526 61.7477 97.182 62.1419 97.4399 62.5096L98.8979 64.5948L100.357 66.7148C100.574 67.0333 100.809 67.3432 101.007 67.674L95.9747 67.6905L85.2672 67.6894L81.0177 67.6902C80.2864 67.6908 79.5123 67.64 78.7875 67.7189L79.5654 67.7231L79.5651 68.3255L83.7484 68.5985L83.7491 68.631L80.9445 68.6524L86.3215 68.6539C86.6447 69.3065 86.8598 70.042 87.12 70.7237C87.1526 70.8092 87.4134 71.5207 87.4384 71.5313C87.5305 71.7685 87.6787 72.0595 87.7002 72.3119C87.6373 72.3821 87.598 72.3775 87.5033 72.3841C86.7398 72.4366 85.941 72.3946 85.1742 72.3975L80.5332 72.402L78.8984 72.3956C78.6796 72.3954 78.4167 72.3677 78.2023 72.3989L78.2584 72.4253L79.6013 72.4265L79.607 73.3162L53.1392 73.3113C53.4406 72.9235 53.6902 72.4954 53.9529 72.081L55.2645 69.9871L59.0124 63.9807L58.9142 63.916C59.426 62.9276 60.11 61.9838 60.7042 61.0397L61.0495 60.4771C61.0752 60.4323 61.1518 60.3292 61.1599 60.2815C61.1981 60.0578 61.131 59.7496 61.1004 59.5257L61.208 59.4181L61.1776 59.2739L61.9736 59.2526L79.2985 59.2461L98.3882 59.2067Z" fill="url(#paint5_linear_117_5670)" stroke="black" stroke-linejoin="round"/>
<path d="M61.2079 59.4181L61.2682 59.7051L61.2881 60.304L79.2728 60.3643L79.2263 60.5373L78.06 60.5435C77.8659 60.5447 77.6517 60.527 77.461 60.5584L61.1473 60.5661L59.0123 63.9807L58.9141 63.916C59.4259 62.9276 60.1099 61.9838 60.7041 61.0397L61.0494 60.4771C61.0751 60.4323 61.1517 60.3292 61.1598 60.2815C61.198 60.0577 61.1309 59.7496 61.1003 59.5257L61.2079 59.4181Z" fill="url(#paint6_linear_117_5670)" stroke="black" stroke-linejoin="round"/>
<path d="M61.9737 59.2526L79.2986 59.2462L79.305 59.6638L79.3012 59.6976C79.3059 59.8796 79.3513 60.1991 79.2731 60.3644L61.2884 60.3041L61.2684 59.7052L61.2081 59.4181L61.1777 59.2739L61.9737 59.2526Z" fill="#342664" stroke="black" stroke-linejoin="round"/>
<path d="M61.9737 59.2526L79.2986 59.2462L79.305 59.6638L79.3012 59.6976L61.2684 59.7052L61.2081 59.4181L61.1777 59.2739L61.9737 59.2526Z" fill="#413E76" stroke="black" stroke-linejoin="round"/>
<path d="M98.388 59.2067L98.4455 59.2514C98.5675 59.5699 98.3544 60.0381 98.4999 60.3504L98.5091 60.5512L96.4457 60.5847L77.4609 60.5584C77.6517 60.527 77.8659 60.5447 78.06 60.5435L79.2263 60.5373L79.2728 60.3644C79.351 60.1991 79.3057 59.8796 79.301 59.6976L79.3047 59.6638L79.2984 59.2461L98.388 59.2067Z" fill="#170F3E" stroke="black" stroke-linejoin="round"/>
<path d="M98.388 59.2067L98.4455 59.2514L98.4431 59.6523L79.3047 59.6638L79.2983 59.2461L98.388 59.2067Z" fill="#342664" stroke="black" stroke-linejoin="round"/>
<path d="M78.202 72.3988L71.6865 72.4073L73.2743 68.6484L80.9442 68.6523L86.3212 68.6539C86.6444 69.3064 86.8595 70.0419 87.1197 70.7236C87.1523 70.8091 87.4131 71.5206 87.4381 71.5313C87.5302 71.7684 87.6784 72.0594 87.6999 72.3119C87.637 72.3821 87.5977 72.3775 87.503 72.384C86.7395 72.4366 85.9408 72.3946 85.1739 72.3975L80.5329 72.4019L78.8982 72.3955C78.6793 72.3953 78.4164 72.3677 78.202 72.3988Z" fill="#030015" stroke="black" stroke-linejoin="round"/>
<path d="M76.0557 72.193L72.0407 72.2053C72.0343 72.0633 72.2073 71.7527 72.2645 71.6084L73.4002 68.8407L77.3756 68.8644L86.1601 68.8604L87.4311 72.188L76.0557 72.193Z" fill="url(#paint7_linear_117_5670)" stroke="black" stroke-linejoin="round"/>
<path d="M58.3013 67.7205C58.3333 67.4872 61.9955 61.9865 62.4368 61.4016L96.656 61.4092C96.9525 61.7477 97.1819 62.1419 97.4398 62.5096L98.8979 64.5948L100.357 66.7148C100.574 67.0333 100.809 67.3432 101.007 67.674L95.9747 67.6905L85.2671 67.6893L81.0177 67.6902C80.2864 67.6907 79.5123 67.64 78.7874 67.7189L73.158 67.7208L71.6345 67.73L68.7553 67.7353L61.0808 67.7507L59.1626 67.7519C58.9219 67.7517 58.5229 67.8039 58.3013 67.7205Z" fill="#030015" stroke="black" stroke-linejoin="round"/>
<path d="M100.254 66.9536L100.607 67.4203L97.8012 67.4351L97.5518 66.9847L100.254 66.9536Z" fill="#065655" stroke="black" stroke-linejoin="round"/>
<path d="M79.6844 66.1392L79.6828 67.4251L76.5571 67.4289C76.569 67.2831 76.5653 67.1142 76.5956 66.9727L79.666 66.986L79.6608 66.156L79.6844 66.1392Z" fill="#065655" stroke="black" stroke-linejoin="round"/>
<path d="M62.1107 66.9614L61.8282 67.4377L58.8892 67.4393L59.2197 66.9391L62.1107 66.9614Z" fill="#065655" stroke="black" stroke-linejoin="round"/>
<path d="M94.738 62.3895L94.373 61.7913L96.6833 61.7876C96.7941 61.8093 97.0295 62.2405 97.1046 62.3551C96.9518 62.4361 96.5963 62.3914 96.4182 62.391L94.738 62.3895Z" fill="#3DC2D7" stroke="black" stroke-linejoin="round"/>
<path d="M83.0938 66.9864L83.1253 67.4285L79.992 67.4364C79.9792 67.122 79.9076 65.6629 80.007 65.4798L80.0033 66.1679L80.0056 66.9802L82.1312 66.9874C82.4294 66.9867 82.803 66.9409 83.0938 66.9864Z" fill="#065655" stroke="black" stroke-linejoin="round"/>
<path d="M97.1685 66.9556L97.4656 67.4295L94.3174 67.4403L94.0942 66.9761L97.1685 66.9556Z" fill="#065655" stroke="black" stroke-linejoin="round"/>
<path d="M86.6625 66.936L86.7854 67.4167L83.4868 67.4339L83.4395 66.9791C83.5976 66.9437 83.8477 66.9744 84.0156 66.9739L85.8144 66.9702C86.0521 66.9698 86.4446 67.0201 86.6625 66.936Z" fill="#065655" stroke="black" stroke-linejoin="round"/>
<path d="M79.9617 62.3968L79.9536 61.7917L82.4062 61.795L82.4959 62.3976L79.9617 62.3968Z" fill="#3DC2D7" stroke="black" stroke-linejoin="round"/>
<path d="M62.5273 66.9639L65.6209 66.9686C65.5476 67.1309 65.4777 67.2945 65.3755 67.4412L62.2481 67.4405L62.2402 67.4206L62.5273 66.9639Z" fill="#065655" stroke="black" stroke-linejoin="round"/>
<path d="M71.2573 62.3949L71.5041 61.7885L73.9603 61.7876L73.7965 62.3963L71.2573 62.3949Z" fill="#3DC2D7" stroke="black" stroke-linejoin="round"/>
<path d="M93.7103 66.9585L93.9547 67.4386L90.7358 67.4388L90.5508 66.9678L93.7103 66.9585Z" fill="#065655" stroke="black" stroke-linejoin="round"/>
<path d="M86.9976 66.9744L90.2039 66.9604L90.3856 67.4344L87.0982 67.4349L86.9976 66.9744Z" fill="#065655" stroke="black" stroke-linejoin="round"/>
<path d="M69.5693 66.9058C69.7286 66.9977 72.321 66.961 72.6921 66.9647L72.5679 67.4381L69.3789 67.4347L69.5693 66.9058Z" fill="#065655" stroke="black" stroke-linejoin="round"/>
<path d="M68.2358 62.3921L68.5864 61.7931L71.1227 61.7906L70.8869 62.3869L68.2358 62.3921Z" fill="#3DC2D7" stroke="black" stroke-linejoin="round"/>
<path d="M69.1701 66.9636L68.9971 67.4317L65.7544 67.4322L66.0123 66.9255C66.3947 66.9694 66.801 66.9447 67.1869 66.9462L69.1701 66.9636Z" fill="#065655" stroke="black" stroke-linejoin="round"/>
<path d="M91.8145 62.3971L91.4897 61.7886H94.0268C94.1071 61.809 94.3239 62.2589 94.3783 62.3561C94.2274 62.4376 93.8729 62.3953 93.6919 62.3956L91.8145 62.3971Z" fill="#3DC2D7" stroke="black" stroke-linejoin="round"/>
<path d="M76.2933 66.9665L76.251 67.4382L72.9082 67.4387L73.0303 66.9064L73.0703 66.9612L76.2933 66.9665Z" fill="#065655" stroke="black" stroke-linejoin="round"/>
<path d="M62.2378 62.3965L62.6083 61.7964L65.2374 61.7908L64.8601 62.3994L62.2378 62.3965Z" fill="#3DC2D7" stroke="black" stroke-linejoin="round"/>
<path d="M88.7883 62.4027L88.5317 61.7944L91.1406 61.7919L91.4546 62.3914L88.7883 62.4027Z" fill="#3DC2D7" stroke="black" stroke-linejoin="round"/>
<path d="M85.8052 62.4178L85.6455 61.7911L88.194 61.7878L88.4437 62.3911L85.8052 62.4178Z" fill="#3DC2D7" stroke="black" stroke-linejoin="round"/>
<path d="M82.8122 62.4025L82.7275 61.7975L85.3494 61.7927L85.5079 62.3964L82.8122 62.4025Z" fill="#3DC2D7" stroke="black" stroke-linejoin="round"/>
<path d="M74.0894 62.4045L74.2409 61.786L76.794 61.7873L76.7349 62.4024L74.0894 62.4045Z" fill="#3DC2D7" stroke="black" stroke-linejoin="round"/>
<path d="M65.2539 62.397C65.3588 62.2085 65.466 61.9486 65.6066 61.7896L68.1851 61.7878L67.8592 62.4105L65.2539 62.397Z" fill="#3DC2D7" stroke="black" stroke-linejoin="round"/>
<path d="M97.1049 62.3551L97.6718 63.1559L95.2038 63.1598L94.7383 62.3896L96.4185 62.391C96.5966 62.3915 96.9521 62.4361 97.1049 62.3551Z" fill="#278D95" stroke="black" stroke-linejoin="round"/>
<path d="M58.3013 67.7205C58.3768 67.7146 58.4206 67.7215 58.4854 67.6784L63.9127 67.6781C63.7569 67.6363 63.5548 67.6616 63.3932 67.6617L62.2092 67.6622C62.0764 67.6623 61.8785 67.6904 61.7574 67.6335L61.7091 67.6478C61.601 67.6774 61.4661 67.6641 61.3537 67.6645L60.6481 67.6644C60.4918 67.6639 60.2819 67.6884 60.1342 67.6444C60.0244 67.6118 59.8942 67.675 59.7595 67.6389C59.6484 67.609 59.4964 67.6607 59.3662 67.6384C59.3189 67.6304 59.2711 67.6399 59.2245 67.6457C59.0904 67.6624 58.9019 67.637 58.7572 67.6399C58.7058 67.6409 58.656 67.6218 58.6073 67.6078L58.6125 67.5672L58.6491 67.5613C58.706 67.55 58.6852 67.5558 58.7393 67.5197L58.8759 67.5433C59.0608 67.5817 59.302 67.5584 59.4939 67.5605L60.7862 67.5771L67.2009 67.5934L68.5748 67.5834C68.7058 67.5812 68.8805 67.5435 69.0042 67.5721L68.9679 67.6235L68.8161 67.6465C68.9149 67.7126 69.1521 67.6782 69.2764 67.6781L69.3082 67.6467C69.2797 67.6177 69.2382 67.622 69.1989 67.6159L69.213 67.5832L69.3155 67.5603C69.4438 67.5349 69.6203 67.573 69.7527 67.5787L71.3332 67.6766C71.9357 67.7235 72.5634 67.633 73.158 67.7208L71.6345 67.73L68.7553 67.7353L61.0808 67.7506L59.1626 67.7518C58.9219 67.7517 58.5229 67.8039 58.3013 67.7205Z" fill="#130B30" stroke="black" stroke-linejoin="round"/>
<path d="M95.8818 64.2584L95.4375 63.4981L97.8687 63.4934L98.4031 64.2591L95.8818 64.2584Z" fill="#3DC2D7" stroke="black" stroke-linejoin="round"/>
<path d="M61.0371 64.2375L61.5154 63.5063L64.1798 63.5105L63.6994 64.237L61.0371 64.2375Z" fill="#3DC2D7" stroke="black" stroke-linejoin="round"/>
<path d="M97.104 66.2188L96.626 65.4715L99.2255 65.4703L99.7291 66.2093L97.104 66.2188Z" fill="#3DC2D7" stroke="black" stroke-linejoin="round"/>
<path d="M63.04 66.1437L63.442 65.4707L66.3392 65.4672L66.0051 66.1518L63.04 66.1437Z" fill="#3DC2D7" stroke="black" stroke-linejoin="round"/>
<path d="M59.7617 66.1369L60.2161 65.4552L63.0167 65.4631L62.5749 66.1665L60.5964 66.167C60.3759 66.1665 59.9577 66.2182 59.7617 66.1369Z" fill="#3DC2D7" stroke="black" stroke-linejoin="round"/>
<path d="M70.585 64.2116L70.8683 63.5042L73.5298 63.5046L73.3299 64.2499L71.4892 64.2449C71.2548 64.2466 70.7887 64.3072 70.585 64.2116Z" fill="#3DC2D7" stroke="black" stroke-linejoin="round"/>
<path d="M64.1426 64.2389L64.5942 63.5063L67.32 63.5096C67.199 63.7385 67.0821 64.031 66.9307 64.2366L64.1426 64.2389Z" fill="#3DC2D7" stroke="black" stroke-linejoin="round"/>
<path d="M97.1035 66.2187L99.7287 66.2093L100.254 66.9536L97.5517 66.9847L97.1035 66.2187Z" fill="#278D95" stroke="black" stroke-linejoin="round"/>
<path d="M94.3783 62.3561L94.8547 63.1599L92.1871 63.1627L91.8145 62.3971L93.6919 62.3956C93.8728 62.3952 94.2273 62.4376 94.3783 62.3561Z" fill="#278D95" stroke="black" stroke-linejoin="round"/>
<path d="M79.9614 62.3968L82.4956 62.3976L82.6034 63.1878L79.9658 63.1855L79.9614 62.3968Z" fill="#278D95" stroke="black" stroke-linejoin="round"/>
<path d="M80.0066 65.4798L82.8914 65.4728L82.9997 66.1707L80.0029 66.1678L80.0066 65.4798Z" fill="#3DC2D7" stroke="black" stroke-linejoin="round"/>
<path d="M73.7965 62.3964L73.6142 63.1748C73.4017 63.2308 73.0694 63.1882 72.845 63.188L70.958 63.1845L71.2574 62.3949L73.7965 62.3964Z" fill="#278D95" stroke="black" stroke-linejoin="round"/>
<path d="M76.6865 66.0496L76.7406 65.4712L79.6846 65.473L79.6843 66.1392L79.6607 66.156C79.2708 66.2099 78.8204 66.1681 78.4245 66.1683C77.8622 66.1686 77.2632 66.2106 76.7051 66.1546L76.6865 66.0496Z" fill="#3DC2D7" stroke="black" stroke-linejoin="round"/>
<path d="M67.313 64.2283L67.6857 63.5048L70.4673 63.507L70.1818 64.2394L67.313 64.2283Z" fill="#3DC2D7" stroke="black" stroke-linejoin="round"/>
<path d="M79.9762 64.2608L79.9722 63.504L82.6537 63.5081L82.7441 64.2634L79.9762 64.2608Z" fill="#3DC2D7" stroke="black" stroke-linejoin="round"/>
<path d="M69.8579 66.1413L70.1057 65.4708L73.0458 65.4693L72.8661 66.1685L70.8847 66.1672C70.5613 66.1667 70.1724 66.2064 69.8579 66.1413Z" fill="#3DC2D7" stroke="black" stroke-linejoin="round"/>
<path d="M65.2538 62.397L67.8592 62.4106L67.4907 63.1902L64.7988 63.1887L65.2538 62.397Z" fill="#278D95" stroke="black" stroke-linejoin="round"/>
<path d="M76.8779 64.237L76.9568 63.502L79.6833 63.5023L79.6818 64.2549L77.9923 64.2587C77.6405 64.2587 77.2213 64.3016 76.8779 64.237Z" fill="#3DC2D7" stroke="black" stroke-linejoin="round"/>
<path d="M66.4028 66.1488L66.7275 65.4622L68.7677 65.4576C69.0708 65.457 69.4285 65.4184 69.7256 65.4672L69.4663 66.1569L66.4028 66.1488Z" fill="#3DC2D7" stroke="black" stroke-linejoin="round"/>
<path d="M62.2377 62.3965L64.8601 62.3995L64.4183 63.1889L61.7568 63.1889L62.2377 62.3965Z" fill="#278D95" stroke="black" stroke-linejoin="round"/>
<path d="M73.6992 64.2124L73.8587 63.5168C74.0723 63.4551 74.4338 63.502 74.6621 63.5021L76.6457 63.5047L76.5709 64.2484C76.2036 64.2446 73.8533 64.31 73.6992 64.2124Z" fill="#3DC2D7" stroke="black" stroke-linejoin="round"/>
<path d="M74.0894 62.4045L76.735 62.4024L76.6673 63.1894L73.9258 63.1816L74.0894 62.4045Z" fill="#278D95" stroke="black" stroke-linejoin="round"/>
<path d="M91.4549 62.3914L91.878 63.1689L89.1066 63.1743L88.7886 62.4027L91.4549 62.3914Z" fill="#278D95" stroke="black" stroke-linejoin="round"/>
<path d="M88.4437 62.3911L88.7959 63.1851L86.0065 63.1855L85.8052 62.4178L88.4437 62.3911Z" fill="#278D95" stroke="black" stroke-linejoin="round"/>
<path d="M92.7541 64.267L92.3628 63.4809L95.0468 63.4861L95.5195 64.2566L92.7541 64.267Z" fill="#3DC2D7" stroke="black" stroke-linejoin="round"/>
<path d="M93.7268 66.2073L93.3408 65.4701L96.2513 65.4679L96.6898 66.1756C96.4363 66.2547 96.0379 66.2054 95.7677 66.2057L93.7268 66.2073Z" fill="#3DC2D7" stroke="black" stroke-linejoin="round"/>
<path d="M73.2202 66.1434L73.4012 65.4695L76.4519 65.4709L76.377 66.1672L74.2533 66.1687C73.9433 66.1686 73.5167 66.2218 73.2202 66.1434Z" fill="#3DC2D7" stroke="black" stroke-linejoin="round"/>
<path d="M89.5331 64.2655L89.2305 63.5001L92.0383 63.4996L92.3735 64.2328C92.0698 64.2928 91.7142 64.2621 91.4033 64.2631L89.5331 64.2655Z" fill="#3DC2D7" stroke="black" stroke-linejoin="round"/>
<path d="M82.812 62.4025L85.5077 62.3964L85.7172 63.1868L82.9067 63.1889L82.812 62.4025Z" fill="#278D95" stroke="black" stroke-linejoin="round"/>
<path d="M86.3011 64.2666L86.0967 63.5033L88.8959 63.5035L89.1901 64.2603L86.3011 64.2666Z" fill="#3DC2D7" stroke="black" stroke-linejoin="round"/>
<path d="M83.0636 64.2648L82.9546 63.5039L85.7807 63.5031L85.9634 64.237C85.7031 64.3122 85.3145 64.2649 85.0394 64.2652L83.0636 64.2648Z" fill="#3DC2D7" stroke="black" stroke-linejoin="round"/>
<path d="M68.2358 62.3921L70.8869 62.3869L70.6059 63.1913L67.8232 63.1885L68.2358 62.3921Z" fill="#278D95" stroke="black" stroke-linejoin="round"/>
<path d="M86.8088 66.1996L86.6123 65.4721L89.6335 65.4665L89.9031 66.1669C89.6076 66.2306 89.2331 66.191 88.9275 66.191L86.8088 66.1996Z" fill="#3DC2D7" stroke="black" stroke-linejoin="round"/>
<path d="M90.2771 66.2057L90.0029 65.4685L92.9862 65.47L93.3479 66.2019L90.2771 66.2057Z" fill="#3DC2D7" stroke="black" stroke-linejoin="round"/>
<path d="M83.3329 66.1919C83.312 66.0429 83.2015 65.589 83.25 65.4714L86.2727 65.4694L86.4696 66.1957L83.3329 66.1919Z" fill="#3DC2D7" stroke="black" stroke-linejoin="round"/>
<path d="M59.7617 66.137C59.9577 66.2182 60.3758 66.1665 60.5963 66.167L62.5748 66.1665L62.1107 66.9615L59.2197 66.9392L59.7617 66.137Z" fill="#278D95" stroke="black" stroke-linejoin="round"/>
<path d="M98.4031 64.2591L99.0168 65.1521L96.4527 65.155C96.2338 64.9343 96.0451 64.5309 95.8818 64.2584L98.4031 64.2591Z" fill="#278D95" stroke="black" stroke-linejoin="round"/>
<path d="M96.6895 66.1756L97.1683 66.9556L94.094 66.9761L93.7266 66.2073L95.7675 66.2057C96.0377 66.2054 96.436 66.2547 96.6895 66.1756Z" fill="#278D95" stroke="black" stroke-linejoin="round"/>
<path d="M93.3481 66.2019L93.71 66.9585L90.5505 66.9678L90.2773 66.2056L93.3481 66.2019Z" fill="#278D95" stroke="black" stroke-linejoin="round"/>
<path d="M61.0371 64.2376L63.6994 64.2371L63.1832 65.1268L60.458 65.1207L61.0371 64.2376Z" fill="#278D95" stroke="black" stroke-linejoin="round"/>
<path d="M69.8578 66.1414C70.1724 66.2064 70.5612 66.1667 70.8846 66.1673L72.866 66.1685L72.6921 66.9647C72.321 66.9611 69.7286 66.9978 69.5693 66.9058L69.8578 66.1414Z" fill="#278D95" stroke="black" stroke-linejoin="round"/>
<path d="M89.9029 66.1669L90.2038 66.9604L86.9974 66.9744L86.8086 66.1997L88.9273 66.191C89.2328 66.191 89.6073 66.2306 89.9029 66.1669Z" fill="#278D95" stroke="black" stroke-linejoin="round"/>
<path d="M86.4693 66.1956L86.6624 66.936C86.4445 67.0201 86.052 66.9698 85.8143 66.9702L84.0155 66.9739C83.8476 66.9744 83.5975 66.9436 83.4393 66.9791L83.3325 66.1919L86.4693 66.1956Z" fill="#278D95" stroke="black" stroke-linejoin="round"/>
<path d="M80.0029 66.1678L82.9997 66.1707L83.0934 66.9863C82.8026 66.9409 82.4291 66.9866 82.1308 66.9874L80.0052 66.9802L80.0029 66.1678Z" fill="#278D95" stroke="black" stroke-linejoin="round"/>
<path d="M76.5952 66.9727L76.6862 66.0496L76.7048 66.1547C77.2629 66.2107 77.862 66.1686 78.4242 66.1683C78.8201 66.1681 79.2705 66.21 79.6604 66.156L79.6656 66.986L76.5952 66.9727Z" fill="#278D95" stroke="black" stroke-linejoin="round"/>
<path d="M63.0403 66.1437L66.0054 66.1518L65.6209 66.9686L62.5273 66.9639L63.0403 66.1437Z" fill="#278D95" stroke="black" stroke-linejoin="round"/>
<path d="M66.4029 66.1488L69.4663 66.1569L69.17 66.9636L67.1868 66.9462C66.8009 66.9447 66.3946 66.9694 66.0122 66.9254L66.4029 66.1488Z" fill="#278D95" stroke="black" stroke-linejoin="round"/>
<path d="M79.9761 64.2608L82.744 64.2634L82.8573 65.1559L79.9813 65.1558L79.9761 64.2608Z" fill="#278D95" stroke="black" stroke-linejoin="round"/>
<path d="M95.5198 64.2566L96.0795 65.1548L94.138 65.1557C93.8367 65.1557 93.4913 65.1885 93.1949 65.1455L92.7544 64.267L95.5198 64.2566Z" fill="#278D95" stroke="black" stroke-linejoin="round"/>
<path d="M64.1426 64.2389L66.9307 64.2366L66.5027 65.1365L63.6064 65.1315L64.1426 64.2389Z" fill="#278D95" stroke="black" stroke-linejoin="round"/>
<path d="M79.6817 64.255L79.6855 65.1533L76.7661 65.1487L76.8779 64.2371C77.2212 64.3017 77.6404 64.2588 77.9922 64.2587L79.6817 64.255Z" fill="#278D95" stroke="black" stroke-linejoin="round"/>
<path d="M73.2203 66.1434C73.5168 66.2218 73.9434 66.1686 74.2534 66.1687L76.3771 66.1672L76.2933 66.9665L73.0702 66.9612L73.0303 66.9064L73.2203 66.1434Z" fill="#278D95" stroke="black" stroke-linejoin="round"/>
<path d="M92.3732 64.2328L92.8347 65.1541L89.8673 65.1553L89.5327 64.2655L91.4029 64.2631C91.7138 64.2621 92.0694 64.2928 92.3732 64.2328Z" fill="#278D95" stroke="black" stroke-linejoin="round"/>
<path d="M70.5851 64.2116C70.7888 64.3072 71.255 64.2466 71.4894 64.2449L73.3301 64.2499L73.1289 65.1554L70.2095 65.1524L70.5851 64.2116Z" fill="#278D95" stroke="black" stroke-linejoin="round"/>
<path d="M89.1897 64.2603C89.2304 64.3686 89.5387 65.0762 89.5132 65.1529L86.5248 65.155L86.3008 64.2666L89.1897 64.2603Z" fill="#278D95" stroke="black" stroke-linejoin="round"/>
<path d="M85.9638 64.237L86.1949 65.153L83.1845 65.1549L83.064 64.2648L85.0397 64.2652C85.3148 64.2649 85.7034 64.3122 85.9638 64.237Z" fill="#278D95" stroke="black" stroke-linejoin="round"/>
<path d="M73.6993 64.2123C73.8535 64.31 76.2037 64.2446 76.571 64.2484L76.4758 65.1534L73.4692 65.1482L73.6993 64.2123Z" fill="#278D95" stroke="black" stroke-linejoin="round"/>
<path d="M70.182 64.2394L69.8692 65.1306C69.5899 65.1772 69.247 65.1418 68.9591 65.1421L66.8506 65.1334L67.3132 64.2283L70.182 64.2394Z" fill="#278D95" stroke="black" stroke-linejoin="round"/>
<path d="M77.0398 62.3388L77.0859 61.7898C77.4773 61.7885 79.4494 61.721 79.6587 61.8237C79.7191 62.262 79.6814 62.7486 79.6827 63.1934L76.9639 63.1881L77.0398 62.3388Z" fill="#278D95" stroke="black" stroke-linejoin="round"/>
<path d="M77.0396 62.3388L77.0856 61.7898C77.477 61.7885 79.4491 61.721 79.6584 61.8237L79.6514 62.3929C79.3495 62.3932 77.1331 62.4329 77.0593 62.3636L77.0396 62.3388Z" fill="#3DC2D7" stroke="black" stroke-linejoin="round"/>
<path d="M51.5002 73.8449L107 72.3503L105.836 75.4231C105.759 75.6248 105.583 76.1946 105.495 76.279C105.349 76.419 105.07 76.2919 104.907 76.2952L102.588 76.279L94.0295 76.2543L54.5 76.3449L51.5002 73.8449C51.6964 74.1975 51.3235 73.3867 51.5002 73.8449Z" fill="#413E76"/>
<path d="M61.1448 38.4193L61.1378 35.5039L61.9068 36.9787C61.935 37.0275 61.9471 37.0618 61.9488 37.1189L61.9457 39.1805L61.9402 43.2295L61.9432 54.8638L61.9442 57.7684C61.9446 58.2436 61.8955 58.7868 61.9734 59.2526L61.1774 59.2738L61.2078 59.4181L61.1001 59.5257C60.9993 59.0026 61.0582 58.3841 61.0575 57.851L61.0555 54.6546L61.0508 43.2384C61.1243 42.6462 61.0661 41.9762 61.0664 41.3769L61.069 37.5534L61.0703 36.731C61.0706 36.5678 61.0512 36.3898 61.1036 36.2344L61.1032 37.7475C61.1037 37.9349 61.0695 38.1907 61.1257 38.3649L61.1448 38.4193Z" fill="#98A5C5"/>
<path d="M61.0508 43.2384C61.1243 42.6462 61.0661 41.9763 61.0664 41.377L61.069 37.5535L61.0703 36.7311C61.0706 36.5679 61.0512 36.3898 61.1036 36.2344L61.1032 37.7475C61.1037 37.9349 61.0695 38.1908 61.1257 38.3649L61.1448 38.4194L61.1774 59.2739L61.2078 59.4181L61.1001 59.5257C60.9993 59.0027 61.0582 58.3841 61.0575 57.8511L61.0555 54.6546L61.0508 43.2384Z" fill="#030015"/>
<path d="M98.6008 35.6575L98.6251 58.9299L97.5394 58.9357C97.4722 58.9281 97.4787 58.9403 97.4286 58.8866L97.4217 42.4539L97.4291 38.5552L97.43 37.6045C97.43 37.4869 97.4071 37.3148 97.4303 37.2022C97.4507 37.1029 97.6844 36.876 97.7535 36.7881L98.6008 35.6575Z" fill="#413E76"/>
<path d="M79.9025 35.0251L98.6429 35.0335C98.4891 35.3109 98.2698 35.5528 98.0787 35.8051L97.2341 36.9693L82.6623 36.9692L78.2774 36.9604L77.0358 36.9572C76.807 36.9567 76.5648 36.9723 76.3379 36.9452C76.7346 36.9053 77.1619 36.9353 77.5625 36.9359L79.9314 36.9414L79.9356 36.3389C80.1911 36.3399 80.6779 36.4014 80.8838 36.2648C80.9256 36.186 80.9483 36.1299 80.9528 36.0396C80.961 35.8767 80.9469 35.7742 80.8334 35.6542C80.5873 35.553 80.1738 35.6089 79.9042 35.6099L79.9025 35.0251Z" fill="#246282"/>
<path d="M61.3341 34.9848L79.8965 35.0069L79.9026 35.0251L79.9043 35.6099C80.1739 35.6088 80.5875 35.553 80.8335 35.6542C80.9471 35.7742 80.9612 35.8767 80.953 36.0396C80.9484 36.1299 80.9257 36.186 80.8839 36.2647C80.6781 36.4013 80.1913 36.3399 79.9358 36.3389L79.9316 36.9414L77.5627 36.9359C77.1621 36.9352 76.7348 36.9053 76.338 36.9452L62.2782 36.9553L61.2808 35.0353L61.3341 34.9848Z" fill="#98A5C5"/>
<path d="M79.9045 35.6099C80.1741 35.6089 80.5876 35.553 80.8337 35.6542C80.9472 35.7742 80.9613 35.8767 80.9531 36.0396C80.9486 36.1299 80.9259 36.186 80.8841 36.2648C80.6782 36.4014 80.1914 36.3399 79.9359 36.3389C79.7063 36.3395 78.9929 36.4052 78.8293 36.2846C78.7589 36.2327 78.7403 36.172 78.7335 36.0882C78.72 35.9232 78.7238 35.7853 78.8344 35.6542C79.0673 35.5441 79.6345 35.6082 79.9045 35.6099Z" fill="#030015"/>
<path d="M78.9631 35.8764L79.0233 35.8541C79.1724 35.8185 80.6072 35.8245 80.7121 35.8852C80.7339 35.9798 80.7337 36.0345 80.7178 36.1303C80.4757 36.168 80.1959 36.1479 79.9489 36.1523C79.646 36.1578 79.2839 36.2005 78.9892 36.1398C78.9351 36.0535 78.9584 35.9765 78.9631 35.8764Z" fill="#342664"/>
<path d="M85.13 33.8388L95.0347 33.8381L97.7806 33.8391C98.1728 33.8393 98.6269 33.7905 99.01 33.8532C99.1761 33.8803 99.3401 34.0015 99.4544 34.119C99.5689 34.2366 99.6603 34.3947 99.7144 34.5493L99.7184 52.1105L99.7387 57.5785L99.7497 59.077C99.7529 59.303 99.7789 59.5342 99.7723 59.7594C99.7692 59.8633 99.7481 59.9408 99.6853 60.0248L98.9738 60.018C98.8253 60.0187 98.6674 60.0056 98.523 60.0433C98.4902 60.1417 98.4995 60.2479 98.4997 60.3504C98.3542 60.0381 98.5673 59.5699 98.4453 59.2514L98.3878 59.2067L98.8194 59.0748L98.827 34.8179L96.3642 34.825L85.8871 34.819L81.8256 34.8158L80.6671 34.8171C80.4336 34.8177 80.1929 34.804 79.9621 34.8416L79.9048 34.8427L79.9057 33.8539L85.0946 33.8428L85.13 33.8388Z" fill="#130B30"/>
<path d="M76.7508 58.9606L62.249 58.967L62.2542 37.2488L79.9099 37.2544L79.9086 38.3417L78.3448 38.3404L68.1327 38.3396L65.0138 38.3259C64.4635 38.3215 63.8705 38.2697 63.3247 38.3292L63.2811 57.5129L75.5202 57.5092L75.5615 57.5128C76.4849 57.5874 77.4468 57.5386 78.3748 57.5376C78.6368 57.5373 79.0512 57.4839 79.29 57.5522L79.2893 58.9388L77.6873 58.9423C77.3826 58.9434 77.0526 58.9233 76.7508 58.9606Z" fill="#413E76"/>
<path d="M79.9097 37.2544L93.8392 37.2525L96.4085 37.2541C96.563 37.2542 97.0487 37.2058 97.169 37.2713L97.1691 58.9551L82.688 58.9425L79.5347 58.944L77.635 58.9714C77.3454 58.9714 77.0373 58.9922 76.7506 58.9606C77.0525 58.9233 77.3824 58.9434 77.6872 58.9423L79.2891 58.9388L79.2898 57.5522C79.051 57.4839 78.6367 57.5374 78.3746 57.5376C77.4466 57.5386 76.4847 57.5874 75.5613 57.5128L75.52 57.5092C75.7642 57.48 76.0253 57.4986 76.2718 57.4998L77.5461 57.5066L81.4493 57.5046L96.0634 57.5069L96.0659 38.3763L78.3835 38.3446L78.3446 38.3404L79.9084 38.3417L79.9097 37.2544Z" fill="#170F3E"/>
<path d="M60.4776 34.0269C60.624 33.9222 60.7943 33.8562 60.9733 33.8357C61.3215 33.7956 61.7128 33.8279 62.0661 33.8273L64.3353 33.8249L72.6586 33.8298L85.1305 33.8388L85.095 33.8428L79.9061 33.8539L79.9052 34.8427L79.9625 34.8416L80.2774 34.8642C80.1552 34.8724 80.0306 34.8752 79.9107 34.9004C79.7626 34.9314 79.5809 34.911 79.4285 34.9106L78.4061 34.9085C78.1329 34.9082 77.8849 34.8955 77.6182 34.9683L79.0024 34.9724C79.2443 34.9727 79.5029 34.9911 79.7423 34.9676L80.3532 34.9666V34.988C80.2045 34.9906 80.0424 34.9797 79.8967 35.0069L61.3343 34.9848C61.3323 34.9628 61.2574 34.9677 61.2404 34.956C61.2143 34.9379 61.2051 34.9032 61.1875 34.8768L61.0667 34.8868C60.9981 35.0505 61.0333 35.3155 61.0339 35.4942L61.0283 36.5669L61.0353 40.8731L61.0373 42.4244C61.0377 42.6878 61.0172 42.9781 61.0511 43.2384L61.0558 54.6546L61.0579 57.8511C61.0585 58.3841 60.9996 59.0027 61.1005 59.5257C61.1311 59.7496 61.1982 60.0578 61.16 60.2815C61.1519 60.3293 61.0753 60.4323 61.0496 60.4771L60.7043 61.0397C60.1101 61.9838 59.4261 62.9276 58.9143 63.916C58.6652 64.2721 58.4529 64.6604 58.22 65.028L55.645 69.1384L53.8727 71.9469L53.2777 72.873C53.208 72.9804 53.0519 73.1732 53.0212 73.2915C53.005 73.3543 53.0606 73.5729 53.0742 73.6457L53.118 73.8276C53.1837 73.8593 53.2352 73.88 53.284 73.936L53.324 73.9942C53.2563 74.0062 53.216 74.0062 53.1513 73.9887C52.9672 73.9392 52.7242 73.9635 52.5323 73.9615L51.6142 73.9398C51.5343 74.0116 51.5556 74.026 51.545 74.1313L51.3052 73.901L60.2054 59.8982C60.1148 59.7757 60.0073 59.6377 59.9756 59.4854C59.9428 59.3268 59.9584 59.1488 59.9593 58.987L59.9654 58.1407L59.9726 55.374L59.9513 51.1109C59.9834 50.8791 59.9635 50.6176 59.9649 50.382L59.9669 48.8676L59.9513 44.687C59.9861 44.4454 59.962 44.1673 59.9628 43.9214L59.9666 42.3531L59.972 37.3608C59.9723 36.5384 59.924 35.6886 59.9785 34.8708C60.0017 34.5213 60.2212 34.2439 60.4776 34.0269Z" fill="#342664"/>
<path d="M79.9052 34.8427L79.9625 34.8416L80.2774 34.8642C80.1552 34.8723 80.0306 34.8752 79.9107 34.9003C79.7626 34.9314 79.5809 34.9109 79.4285 34.9105L78.4061 34.9085C78.133 34.9082 77.8849 34.8955 77.6182 34.9683L79.0024 34.9724C79.2443 34.9726 79.503 34.991 79.7423 34.9676L80.3532 34.9665V34.988C80.2046 34.9906 80.0425 34.9797 79.8967 35.0069L61.3343 34.9848C61.3324 34.9628 61.2574 34.9677 61.2404 34.9559C61.2143 34.9379 61.2051 34.9032 61.1875 34.8768L65.6702 34.867L75.3185 34.877L78.5039 34.8766L79.3773 34.8731C79.5529 34.8719 79.7331 34.8817 79.9052 34.8427Z" fill="#030015"/>
<path d="M60.4776 34.0269C60.4569 34.1572 60.3154 34.2483 60.2336 34.3529C60.1386 34.4745 60.0922 34.5994 60.0701 34.7497L60.0628 34.7942C59.9941 35.2454 60.0336 35.7574 60.0302 36.2148L60.0508 39.8754L60.0506 51.0247L60.036 57.5197C60.0469 58.1207 59.9994 58.7522 60.0551 59.3487C60.0643 59.4469 60.079 59.5321 60.1402 59.612L60.3431 59.84C60.3119 59.973 60.2575 60.0835 60.1894 60.2004L58.8627 62.2925L55.3445 67.8442L53.4046 70.9033C52.7935 71.8823 52.1934 72.896 51.5019 73.8197L53.118 73.8276C53.1837 73.8593 53.2352 73.88 53.284 73.936L53.324 73.9942C53.2563 74.0062 53.216 74.0062 53.1513 73.9887C52.9672 73.9392 52.7242 73.9635 52.5323 73.9615L51.6142 73.9398C51.5343 74.0116 51.5556 74.026 51.545 74.1313L51.3052 73.901L60.2054 59.8982C60.1148 59.7757 60.0073 59.6377 59.9756 59.4854C59.9428 59.3268 59.9584 59.1488 59.9593 58.987L59.9654 58.1407L59.9726 55.374L59.9513 51.1109C59.9834 50.8791 59.9635 50.6176 59.9649 50.382L59.9669 48.8676L59.9513 44.687C59.9861 44.4454 59.962 44.1673 59.9628 43.9214L59.9666 42.3531L59.972 37.3608C59.9723 36.5384 59.924 35.6886 59.9785 34.8708C60.0017 34.5213 60.2212 34.2439 60.4776 34.0269Z" fill="#030015"/>
<path d="M75.5204 57.5092L63.2812 57.5129L63.3249 38.3292C63.8707 38.2698 64.4637 38.3215 65.014 38.3259L68.1329 38.3396L78.3449 38.3404L78.3838 38.3446L96.0663 38.3763L96.0637 57.5069L81.4496 57.5046L77.5464 57.5066L76.2722 57.4999C76.0256 57.4986 75.7646 57.48 75.5204 57.5092Z" fill="url(#paint8_linear_117_5670)"/>
<path d="M89.6075 51.8636L85.792 48.0799L92.2192 48.0684L89.6075 51.8636Z" fill="#33A6AA"/>
<path d="M63.6224 57.1622C63.6038 57.1227 63.5971 57.0943 63.5962 57.0504L63.5947 56.3534C63.5947 56.3176 63.5814 56.1781 63.5949 56.1498C63.6237 56.0896 63.7526 55.9851 63.8018 55.9337L64.4516 55.243L69.7152 49.6682L70.8859 51.4623C70.12 51.9496 69.4023 52.5489 68.6927 53.1138L66.8363 54.5756L64.2741 56.6641C64.1095 56.7956 63.8107 57.1133 63.6224 57.1622Z" fill="#3DC2D7"/>
<path d="M64.9365 38.6336L69.6708 38.6348L69.6585 49.2223L67.6995 47.1777L66.9968 46.4554C66.9034 46.3576 66.7711 46.2469 66.6974 46.1353L69.3771 38.6976L69.3923 38.6653L64.9771 38.6645L64.9365 38.6336Z" fill="#33A6AA"/>
<path d="M95.3259 39.2512C95.4756 39.0956 95.6391 38.9707 95.812 38.8422L95.8107 47.7886L89.2861 47.7854C89.5363 47.7169 89.8984 47.7595 90.1603 47.7592L92.2118 47.7595C92.4104 47.0395 92.6959 46.3443 92.956 45.6449L93.8376 43.2486L95.0824 40.1604C95.1765 39.8985 95.3559 39.525 95.3259 39.2512Z" fill="#065655"/>
<path d="M71.0936 51.3637L69.9126 49.5355L69.9353 49.4955C70.1141 49.2656 70.3795 49.0505 70.5874 48.8434L72.4659 47.019L77.3939 42.1736L79.257 40.3347L80.5529 38.9973C80.6374 38.9091 80.8005 38.6854 80.9019 38.6315C80.9156 38.6242 80.9329 38.6279 80.9484 38.6261L81.1149 38.6064C80.4682 39.6968 79.5244 40.6081 78.7586 41.6129L74.1377 47.4972L72.7998 49.2395L71.0936 51.3637Z" fill="#E6EDE9"/>
<path d="M63.5913 55.3305L63.5919 43.3156L66.5957 46.4627C66.2978 47.1467 66.0991 47.8699 65.8615 48.5762L64.3007 53.365L63.9672 54.4554C63.8747 54.7595 63.7986 55.0815 63.5913 55.3305Z" fill="#33A6AA"/>
<path d="M85.9793 57.2538L85.5747 57.2559L85.5679 48.2534L89.3927 52.0373C89.2507 52.3075 89.0678 52.5571 88.905 52.8152L87.6275 54.7455L86.4238 56.4859C86.2769 56.7068 86.0381 56.994 85.9793 57.2538Z" fill="#0E7872"/>
<path d="M66.5953 46.4627L69.5447 49.5067L63.5731 55.8502C63.5781 55.6932 63.5574 55.4801 63.5909 55.3305C63.7982 55.0815 63.8743 54.7595 63.9668 54.4554L64.3003 53.365L65.8611 48.5762C66.0988 47.8699 66.2974 47.1467 66.5953 46.4627Z" fill="#0E7872"/>
<path d="M84.0067 49.3298C84.0207 49.3281 84.1116 49.2414 84.1247 49.2302L84.7545 48.6822C84.7423 48.7945 84.7137 48.8741 84.6578 48.9723C84.3067 49.59 83.8675 50.1646 83.4734 50.7554L80.8253 54.7767C80.3009 55.5791 79.7337 56.3756 79.2927 57.2276L75.2105 57.2192L75.9834 56.5059L75.9827 56.432L75.7272 56.6887C75.585 56.7843 75.4835 56.9533 75.3463 57.0379C75.2712 57.0841 75.2282 57.1178 75.1639 57.1807C75.1014 57.1611 75.0471 57.14 74.9893 57.1093L75.7377 56.407L75.7595 56.3891L75.6975 56.3722L80.54 52.0251C80.4934 52.1667 80.3576 52.2527 80.2466 52.3455C80.2806 52.3884 80.288 52.4351 80.2988 52.4881L80.3054 52.5231L80.9481 51.9439L81.0195 51.8728C81.0895 51.8195 81.1333 51.7914 81.1906 51.7221L81.2102 51.698C81.2614 51.6811 81.2492 51.6912 81.284 51.6613L81.408 51.556L81.4956 51.4916C81.7992 51.1745 82.182 50.9207 82.4994 50.6104L82.5668 50.5474C82.6549 50.4952 82.5948 50.5547 82.6518 50.4916C83.023 50.0799 83.4996 49.7467 83.8995 49.3599C83.9377 49.3229 83.9551 49.3333 84.0067 49.3298Z" fill="#0E7872"/>
<path d="M80.54 52.0251C80.4934 52.1667 80.3576 52.2527 80.2466 52.3455C80.2806 52.3884 80.288 52.435 80.2988 52.4881L80.3054 52.5231L80.9481 51.9439L81.0195 51.8728C81.0895 51.8195 81.1333 51.7914 81.1906 51.7221L81.2102 51.698C81.2614 51.6811 81.2492 51.6912 81.284 51.6613L81.408 51.556L81.4956 51.4916C81.7992 51.1745 82.182 50.9207 82.4994 50.6103L82.5668 50.5474C82.6549 50.4952 82.5948 50.5547 82.6518 50.4916C83.023 50.0799 83.4996 49.7467 83.8995 49.3599C83.9377 49.3229 83.9551 49.3333 84.0067 49.3298L75.9834 56.5059L75.9827 56.432L75.7272 56.6887C75.585 56.7843 75.4835 56.9533 75.3463 57.0379C75.2712 57.0841 75.2282 57.1178 75.1639 57.1807C75.1014 57.1611 75.0471 57.14 74.9893 57.1093L75.7377 56.407L75.7595 56.3891L75.6975 56.3722L80.54 52.0251Z" fill="#030015"/>
<path d="M89.3924 52.0373L92.9611 55.5601L94.1253 56.7106C94.3036 56.8899 94.5124 57.0696 94.6672 57.2688L85.979 57.2538C86.0378 56.9941 86.2766 56.7068 86.4235 56.4859L87.6272 54.7455L88.9048 52.8153C89.0676 52.5572 89.2504 52.3075 89.3924 52.0373Z" fill="#065655"/>
<path d="M95.3256 39.2512C95.3555 39.5251 95.1762 39.8985 95.082 40.1605L93.8372 43.2487L92.9557 45.6449C92.6956 46.3443 92.41 47.0395 92.2115 47.7596L90.1599 47.7592C89.898 47.7596 89.5359 47.7169 89.2858 47.7855L85.7783 47.7974L95.3256 39.2512Z" fill="#246282"/>
<path d="M84.7543 48.6822C84.9114 48.5002 85.1026 48.3442 85.2819 48.1844L85.2772 57.2549L81.2863 57.2532L80.0393 57.2507C79.7916 57.2493 79.5379 57.2606 79.2925 57.2276C79.7335 56.3755 80.3007 55.5791 80.8251 54.7767L83.4732 50.7554C83.8673 50.1646 84.3066 49.5899 84.6576 48.9723C84.7135 48.8741 84.7421 48.7945 84.7543 48.6822Z" fill="#065655"/>
<path d="M66.6972 46.1353L63.5928 42.9264L63.5949 38.6248L64.9364 38.6336L64.9769 38.6645L69.3922 38.6654L69.3769 38.6976L66.6972 46.1353Z" fill="#3DC2D7"/>
<path d="M70.8861 51.4623L74.6405 57.191L66.4359 57.1827L64.5228 57.186C64.2575 57.1865 63.8689 57.2359 63.6226 57.1622C63.8109 57.1133 64.1097 56.7956 64.2743 56.6641L66.8364 54.5756L68.6929 53.1138C69.4025 52.5489 70.1202 51.9496 70.8861 51.4623Z" fill="#278D95"/>
<path d="M92.2196 48.0683L95.8166 48.0675L95.8108 57.2846L95.0917 57.2895L89.6079 51.8635L92.2196 48.0683Z" fill="#278D95"/>
<path d="M69.8726 38.6399L80.5674 38.6471L75.2424 43.9061L69.8457 49.189L69.8726 38.6399Z" fill="#0E7872"/>
<path d="M81.115 38.6064L81.8417 38.6167L74.9922 56.9966L74.9416 57.0602C74.8142 56.9556 74.7169 56.7588 74.6261 56.6213L74.0504 55.7571L71.0938 51.3637L72.7999 49.2395L74.1378 47.4972L78.7587 41.6129C79.5245 40.6081 80.4683 39.6968 81.115 38.6064Z" fill="#97D5B1"/>
<path d="M81.8418 38.6167L95.5978 38.6269L82.9143 49.9332C82.708 50.1173 80.5544 51.9788 80.54 52.0251L75.6975 56.3722C75.4718 56.5764 75.2405 56.8243 74.9922 56.9967L81.8418 38.6167Z" fill="#098F75"/>
<path d="M98.5001 60.1741C98.5 60.0715 98.4906 59.9653 98.5234 59.8669C98.6678 59.8292 98.8257 59.8423 98.9742 59.8416L99.6857 59.8484C99.804 60.2198 100.133 60.6753 100.354 60.9989L103.612 66.3073L106.939 71.7465L108.199 73.7462L104.963 76.4131L104.905 76.4072L95.634 76.3795L87.3566 76.3939L75.1876 76.3827L62.1117 76.3823L54.5449 76.3773C54.6505 76.3255 54.747 76.2908 54.8652 76.2858L56.4125 76.2926L60.2812 76.303L72.8846 76.2876L104.817 76.2782L104.794 75.1356L54.8349 75.1619L53.8469 74.3734C53.7125 74.2632 53.5253 74.14 53.5078 73.9652C53.6958 74.0649 53.8727 74.2147 54.042 74.3442L54.9006 75.0158L93.7288 75.0076L101.929 75.0145L104.15 75.0191C104.306 75.0182 104.573 75.0541 104.713 75.0145C104.798 74.9907 104.966 74.8296 105.04 74.7726L106.156 73.9042L106.34 73.7359C106.515 73.6631 106.775 73.6803 106.963 73.6783L108.028 73.6719C107.733 73.2819 107.495 72.8709 107.235 72.4592L106.058 70.5645L104.926 68.7686L103.34 66.0866L99.6392 59.9818C99.4884 59.9463 99.2987 59.9667 99.1434 59.966C98.9795 59.9653 98.7816 59.9424 98.6228 59.9835C98.5231 60.2272 98.903 60.7647 99.0265 60.979L100.616 63.5786L105.092 70.9229L105.977 72.3947C106.081 72.5733 106.206 72.7443 106.264 72.9447L106.218 72.9765L105.796 72.2819L104.621 70.3363L101.359 65.0049L99.0984 61.3025L98.7294 60.678C98.6955 60.6163 98.6446 60.4703 98.5991 60.4241C98.5752 60.3998 98.5392 60.3913 98.5093 60.3749L98.5001 60.1741Z" fill="#030015"/>
<path d="M106.815 74.0221L107.862 74.012L105.523 75.9687L104.921 76.4472L104.891 75.5716C104.888 75.4906 104.85 75.3216 104.901 75.2615C104.961 75.1893 105.099 75.121 105.182 75.0631L105.766 74.629C105.986 74.4584 106.197 74.2135 106.436 74.0793C106.534 74.0248 106.705 74.0293 106.815 74.0221Z" fill="#130B30"/>
<path d="M106.218 73.1528L106.263 73.121C106.205 72.9206 106.081 72.7496 105.977 72.571L105.092 71.0992L100.616 63.7549L99.0263 61.1553C98.9028 60.9411 98.5229 60.4035 98.6226 60.1598C98.7814 60.1187 98.9793 60.1416 99.1432 60.1423C99.2985 60.143 99.4882 60.1226 99.639 60.1581L103.34 66.2629L104.926 68.9449L106.058 70.7408L107.235 72.6355C107.495 73.0472 107.733 73.4582 108.028 73.8482L106.963 73.8546C106.774 73.8566 106.514 73.8394 106.34 73.9122L106.156 74.0805L53.461 74.079L53.3238 73.9941L53.2838 73.936C53.235 73.8799 53.1835 73.8592 53.1178 73.8276L53.074 73.6456C53.0604 73.5729 53.0047 73.3542 53.021 73.2914C53.0517 73.1731 53.2078 72.9803 53.2775 72.8729L53.8725 71.9469L55.6448 69.1384L58.2198 65.0279C58.4527 64.6603 58.665 64.272 58.9141 63.9159L59.0123 63.9806L55.2643 69.987L53.9527 72.0809C53.6901 72.4954 53.4405 72.9235 53.139 73.3113L79.6068 73.3161L79.6011 72.4264L78.2583 72.4252L78.2022 72.3988C78.4166 72.3677 78.6795 72.3953 78.8983 72.3955L80.5331 72.4019L85.1741 72.3975C85.9409 72.3946 86.7396 72.4366 87.5031 72.384C87.5978 72.3775 87.6372 72.3821 87.7001 72.3119C87.6786 72.0594 87.5304 71.7684 87.4383 71.5313L89.8501 71.7625L95.0746 72.1924L100.76 72.6595L104.221 72.9688C104.872 73.0354 105.567 73.1634 106.218 73.1528Z" fill="#170F3E"/>
<path d="M87.4382 71.5313L89.8501 71.7626L95.0745 72.1924L100.759 72.6595L104.221 72.9689C104.872 73.0354 105.567 73.1634 106.218 73.1528L106.291 73.264C106.129 73.3145 105.893 73.2862 105.722 73.2867L104.395 73.2889L97.1203 73.2849L87.0276 73.2888L79.6068 73.3161L79.6011 72.4265L78.2583 72.4253L78.2021 72.3988C78.4166 72.3677 78.6794 72.3954 78.8983 72.3955L80.5331 72.402L85.174 72.3975C85.9409 72.3946 86.7396 72.4366 87.5031 72.3841C87.5978 72.3775 87.6372 72.3821 87.7001 72.3119C87.6786 72.0594 87.5303 71.7685 87.4382 71.5313Z" fill="#413E76"/>
<path d="M98.5094 60.5512C98.5393 60.5676 98.5752 60.5762 98.5991 60.6005C98.6447 60.6467 98.6955 60.7927 98.7295 60.8544L99.0984 61.4789L101.359 65.1813L104.621 70.5126L105.796 72.4583L106.218 73.1528C105.567 73.1634 104.872 73.0354 104.222 72.9689L100.76 72.6596L95.0748 72.1924L89.8504 71.7626L87.4385 71.5313C87.4135 71.5207 87.1527 70.8091 87.1201 70.7236C86.8599 70.042 86.6448 69.3065 86.3216 68.6539L80.9446 68.6523L83.7492 68.6309L83.7485 68.5985L79.5652 68.3254L79.5655 67.7231L78.7876 67.7189C79.5124 67.64 80.2865 67.6907 81.0178 67.6902L85.2673 67.6893L95.9748 67.6905L101.007 67.674C100.81 67.3432 100.574 67.0332 100.357 66.7148L98.8981 64.5948L97.44 62.5096C97.1821 62.1419 96.9527 61.7477 96.6561 61.4092C96.5551 61.1506 96.5057 60.8558 96.446 60.5847L98.5094 60.5512Z" fill="#342664"/>
<path d="M98.3882 59.2067L98.4457 59.2514C98.5676 59.5699 98.3546 60.0381 98.5 60.3504L98.5093 60.5512L96.4458 60.5847C96.5056 60.8558 96.555 61.1506 96.656 61.4092C96.9526 61.7477 97.182 62.1419 97.4399 62.5096L98.8979 64.5948L100.357 66.7148C100.574 67.0333 100.809 67.3432 101.007 67.674L95.9747 67.6905L85.2672 67.6894L81.0177 67.6902C80.2864 67.6908 79.5123 67.64 78.7875 67.7189L79.5654 67.7231L79.5651 68.3255L83.7484 68.5985L83.7491 68.631L80.9445 68.6524L86.3215 68.6539C86.6447 69.3065 86.8598 70.042 87.12 70.7237C87.1526 70.8092 87.4134 71.5207 87.4384 71.5313C87.5305 71.7685 87.6787 72.0595 87.7002 72.3119C87.6373 72.3821 87.598 72.3775 87.5033 72.3841C86.7398 72.4366 85.941 72.3946 85.1742 72.3975L80.5332 72.402L78.8984 72.3956C78.6796 72.3954 78.4167 72.3677 78.2023 72.3989L78.2584 72.4253L79.6013 72.4265L79.607 73.3162L53.1392 73.3113C53.4406 72.9235 53.6902 72.4954 53.9529 72.081L55.2645 69.9871L59.0124 63.9807L58.9142 63.916C59.426 62.9276 60.11 61.9838 60.7042 61.0397L61.0495 60.4771C61.0752 60.4323 61.1518 60.3292 61.1599 60.2815C61.1981 60.0578 61.131 59.7496 61.1004 59.5257L61.208 59.4181L61.1776 59.2739L61.9736 59.2526L79.2985 59.2461L98.3882 59.2067Z" fill="url(#paint9_linear_117_5670)"/>
<path d="M61.2079 59.4181L61.2682 59.7051L61.2881 60.304L79.2728 60.3643L79.2263 60.5373L78.06 60.5435C77.8659 60.5447 77.6517 60.527 77.461 60.5584L61.1473 60.5661L59.0123 63.9807L58.9141 63.916C59.4259 62.9276 60.1099 61.9838 60.7041 61.0397L61.0494 60.4771C61.0751 60.4323 61.1517 60.3292 61.1598 60.2815C61.198 60.0577 61.1309 59.7496 61.1003 59.5257L61.2079 59.4181Z" fill="url(#paint10_linear_117_5670)"/>
<path d="M61.9737 59.2526L79.2986 59.2462L79.305 59.6638L79.3012 59.6976C79.3059 59.8796 79.3513 60.1991 79.2731 60.3644L61.2884 60.3041L61.2684 59.7052L61.2081 59.4181L61.1777 59.2739L61.9737 59.2526Z" fill="#342664"/>
<path d="M61.9737 59.2526L79.2986 59.2462L79.305 59.6638L79.3012 59.6976L61.2684 59.7052L61.2081 59.4181L61.1777 59.2739L61.9737 59.2526Z" fill="#413E76"/>
<path d="M98.388 59.2067L98.4455 59.2514C98.5675 59.5699 98.3544 60.0381 98.4999 60.3504L98.5091 60.5512L96.4457 60.5847L77.4609 60.5584C77.6517 60.527 77.8659 60.5447 78.06 60.5435L79.2263 60.5373L79.2728 60.3644C79.351 60.1991 79.3057 59.8796 79.301 59.6976L79.3047 59.6638L79.2984 59.2461L98.388 59.2067Z" fill="#170F3E"/>
<path d="M98.388 59.2067L98.4455 59.2514L98.4431 59.6523L79.3047 59.6638L79.2983 59.2461L98.388 59.2067Z" fill="#342664"/>
<path d="M78.202 72.3988L71.6865 72.4073L73.2743 68.6484L80.9442 68.6523L86.3212 68.6539C86.6444 69.3064 86.8595 70.0419 87.1197 70.7236C87.1523 70.8091 87.4131 71.5206 87.4381 71.5313C87.5302 71.7684 87.6784 72.0594 87.6999 72.3119C87.637 72.3821 87.5977 72.3775 87.503 72.384C86.7395 72.4366 85.9408 72.3946 85.1739 72.3975L80.5329 72.4019L78.8982 72.3955C78.6793 72.3953 78.4164 72.3677 78.202 72.3988Z" fill="#030015"/>
<path d="M76.0557 72.193L72.0407 72.2053C72.0343 72.0633 72.2073 71.7527 72.2645 71.6084L73.4002 68.8407L77.3756 68.8644L86.1601 68.8604L87.4311 72.188L76.0557 72.193Z" fill="url(#paint11_linear_117_5670)"/>
<path d="M58.3013 67.7205C58.3333 67.4872 61.9955 61.9865 62.4368 61.4016L96.656 61.4092C96.9525 61.7477 97.1819 62.1419 97.4398 62.5096L98.8979 64.5948L100.357 66.7148C100.574 67.0333 100.809 67.3432 101.007 67.674L95.9747 67.6905L85.2671 67.6893L81.0177 67.6902C80.2864 67.6907 79.5123 67.64 78.7874 67.7189L73.158 67.7208L71.6345 67.73L68.7553 67.7353L61.0808 67.7507L59.1626 67.7519C58.9219 67.7517 58.5229 67.8039 58.3013 67.7205Z" fill="#030015"/>
<path d="M100.254 66.9536L100.607 67.4203L97.8012 67.4351L97.5518 66.9847L100.254 66.9536Z" fill="#065655"/>
<path d="M79.6844 66.1392L79.6828 67.4251L76.5571 67.4289C76.569 67.2831 76.5653 67.1142 76.5956 66.9727L79.666 66.986L79.6608 66.156L79.6844 66.1392Z" fill="#065655"/>
<path d="M62.1107 66.9614L61.8282 67.4377L58.8892 67.4393L59.2197 66.9391L62.1107 66.9614Z" fill="#065655"/>
<path d="M94.738 62.3895L94.373 61.7913L96.6833 61.7876C96.7941 61.8093 97.0295 62.2405 97.1046 62.3551C96.9518 62.4361 96.5963 62.3914 96.4182 62.391L94.738 62.3895Z" fill="#3DC2D7"/>
<path d="M83.0938 66.9864L83.1253 67.4285L79.992 67.4364C79.9792 67.122 79.9076 65.6629 80.007 65.4798L80.0033 66.1679L80.0056 66.9802L82.1312 66.9874C82.4294 66.9867 82.803 66.9409 83.0938 66.9864Z" fill="#065655"/>
<path d="M97.1685 66.9556L97.4656 67.4295L94.3174 67.4403L94.0942 66.9761L97.1685 66.9556Z" fill="#065655"/>
<path d="M86.6625 66.936L86.7854 67.4167L83.4868 67.4339L83.4395 66.9791C83.5976 66.9437 83.8477 66.9744 84.0156 66.9739L85.8144 66.9702C86.0521 66.9698 86.4446 67.0201 86.6625 66.936Z" fill="#065655"/>
<path d="M79.9617 62.3968L79.9536 61.7917L82.4062 61.795L82.4959 62.3976L79.9617 62.3968Z" fill="#3DC2D7"/>
<path d="M62.5273 66.9639L65.6209 66.9686C65.5476 67.1309 65.4777 67.2945 65.3755 67.4412L62.2481 67.4405L62.2402 67.4206L62.5273 66.9639Z" fill="#065655"/>
<path d="M71.2573 62.3949L71.5041 61.7885L73.9603 61.7876L73.7965 62.3963L71.2573 62.3949Z" fill="#3DC2D7"/>
<path d="M93.7103 66.9585L93.9547 67.4386L90.7358 67.4388L90.5508 66.9678L93.7103 66.9585Z" fill="#065655"/>
<path d="M86.9976 66.9744L90.2039 66.9604L90.3856 67.4344L87.0982 67.4349L86.9976 66.9744Z" fill="#065655"/>
<path d="M69.5693 66.9058C69.7286 66.9977 72.321 66.961 72.6921 66.9647L72.5679 67.4381L69.3789 67.4347L69.5693 66.9058Z" fill="#065655"/>
<path d="M68.2358 62.3921L68.5864 61.7931L71.1227 61.7906L70.8869 62.3869L68.2358 62.3921Z" fill="#3DC2D7"/>
<path d="M69.1701 66.9636L68.9971 67.4317L65.7544 67.4322L66.0123 66.9255C66.3947 66.9694 66.801 66.9447 67.1869 66.9462L69.1701 66.9636Z" fill="#065655"/>
<path d="M91.8145 62.3971L91.4897 61.7886H94.0268C94.1071 61.809 94.3239 62.2589 94.3783 62.3561C94.2274 62.4376 93.8729 62.3953 93.6919 62.3956L91.8145 62.3971Z" fill="#3DC2D7"/>
<path d="M76.2933 66.9665L76.251 67.4382L72.9082 67.4387L73.0303 66.9064L73.0703 66.9612L76.2933 66.9665Z" fill="#065655"/>
<path d="M62.2378 62.3965L62.6083 61.7964L65.2374 61.7908L64.8601 62.3994L62.2378 62.3965Z" fill="#3DC2D7"/>
<path d="M88.7883 62.4027L88.5317 61.7944L91.1406 61.7919L91.4546 62.3914L88.7883 62.4027Z" fill="#3DC2D7"/>
<path d="M85.8052 62.4178L85.6455 61.7911L88.194 61.7878L88.4437 62.3911L85.8052 62.4178Z" fill="#3DC2D7"/>
<path d="M82.8122 62.4025L82.7275 61.7975L85.3494 61.7927L85.5079 62.3964L82.8122 62.4025Z" fill="#3DC2D7"/>
<path d="M74.0894 62.4045L74.2409 61.786L76.794 61.7873L76.7349 62.4024L74.0894 62.4045Z" fill="#3DC2D7"/>
<path d="M65.2539 62.397C65.3588 62.2085 65.466 61.9486 65.6066 61.7896L68.1851 61.7878L67.8592 62.4105L65.2539 62.397Z" fill="#3DC2D7"/>
<path d="M97.1049 62.3551L97.6718 63.1559L95.2038 63.1598L94.7383 62.3896L96.4185 62.391C96.5966 62.3915 96.9521 62.4361 97.1049 62.3551Z" fill="#278D95"/>
<path d="M58.3013 67.7205C58.3768 67.7146 58.4206 67.7215 58.4854 67.6784L63.9127 67.6781C63.7569 67.6363 63.5548 67.6616 63.3932 67.6617L62.2092 67.6622C62.0764 67.6623 61.8785 67.6904 61.7574 67.6335L61.7091 67.6478C61.601 67.6774 61.4661 67.6641 61.3537 67.6645L60.6481 67.6644C60.4918 67.6639 60.2819 67.6884 60.1342 67.6444C60.0244 67.6118 59.8942 67.675 59.7595 67.6389C59.6484 67.609 59.4964 67.6607 59.3662 67.6384C59.3189 67.6304 59.2711 67.6399 59.2245 67.6457C59.0904 67.6624 58.9019 67.637 58.7572 67.6399C58.7058 67.6409 58.656 67.6218 58.6073 67.6078L58.6125 67.5672L58.6491 67.5613C58.706 67.55 58.6852 67.5558 58.7393 67.5197L58.8759 67.5433C59.0608 67.5817 59.302 67.5584 59.4939 67.5605L60.7862 67.5771L67.2009 67.5934L68.5748 67.5834C68.7058 67.5812 68.8805 67.5435 69.0042 67.5721L68.9679 67.6235L68.8161 67.6465C68.9149 67.7126 69.1521 67.6782 69.2764 67.6781L69.3082 67.6467C69.2797 67.6177 69.2382 67.622 69.1989 67.6159L69.213 67.5832L69.3155 67.5603C69.4438 67.5349 69.6203 67.573 69.7527 67.5787L71.3332 67.6766C71.9357 67.7235 72.5634 67.633 73.158 67.7208L71.6345 67.73L68.7553 67.7353L61.0808 67.7506L59.1626 67.7518C58.9219 67.7517 58.5229 67.8039 58.3013 67.7205Z" fill="#130B30"/>
<path d="M95.8818 64.2584L95.4375 63.4981L97.8687 63.4934L98.4031 64.2591L95.8818 64.2584Z" fill="#3DC2D7"/>
<path d="M61.0371 64.2375L61.5154 63.5063L64.1798 63.5105L63.6994 64.237L61.0371 64.2375Z" fill="#3DC2D7"/>
<path d="M97.104 66.2188L96.626 65.4715L99.2255 65.4703L99.7291 66.2093L97.104 66.2188Z" fill="#3DC2D7"/>
<path d="M63.04 66.1437L63.442 65.4707L66.3392 65.4672L66.0051 66.1518L63.04 66.1437Z" fill="#3DC2D7"/>
<path d="M59.7617 66.1369L60.2161 65.4552L63.0167 65.4631L62.5749 66.1665L60.5964 66.167C60.3759 66.1665 59.9577 66.2182 59.7617 66.1369Z" fill="#3DC2D7"/>
<path d="M70.585 64.2116L70.8683 63.5042L73.5298 63.5046L73.3299 64.2499L71.4892 64.2449C71.2548 64.2466 70.7887 64.3072 70.585 64.2116Z" fill="#3DC2D7"/>
<path d="M64.1426 64.2389L64.5942 63.5063L67.32 63.5096C67.199 63.7385 67.0821 64.031 66.9307 64.2366L64.1426 64.2389Z" fill="#3DC2D7"/>
<path d="M97.1035 66.2187L99.7287 66.2093L100.254 66.9536L97.5517 66.9847L97.1035 66.2187Z" fill="#278D95"/>
<path d="M94.3783 62.3561L94.8547 63.1599L92.1871 63.1627L91.8145 62.3971L93.6919 62.3956C93.8728 62.3952 94.2273 62.4376 94.3783 62.3561Z" fill="#278D95"/>
<path d="M79.9614 62.3968L82.4956 62.3976L82.6034 63.1878L79.9658 63.1855L79.9614 62.3968Z" fill="#278D95"/>
<path d="M80.0066 65.4798L82.8914 65.4728L82.9997 66.1707L80.0029 66.1678L80.0066 65.4798Z" fill="#3DC2D7"/>
<path d="M73.7965 62.3964L73.6142 63.1748C73.4017 63.2308 73.0694 63.1882 72.845 63.188L70.958 63.1845L71.2574 62.3949L73.7965 62.3964Z" fill="#278D95"/>
<path d="M76.6865 66.0496L76.7406 65.4712L79.6846 65.473L79.6843 66.1392L79.6607 66.156C79.2708 66.2099 78.8204 66.1681 78.4245 66.1683C77.8622 66.1686 77.2632 66.2106 76.7051 66.1546L76.6865 66.0496Z" fill="#3DC2D7"/>
<path d="M67.313 64.2283L67.6857 63.5048L70.4673 63.507L70.1818 64.2394L67.313 64.2283Z" fill="#3DC2D7"/>
<path d="M79.9762 64.2608L79.9722 63.504L82.6537 63.5081L82.7441 64.2634L79.9762 64.2608Z" fill="#3DC2D7"/>
<path d="M69.8579 66.1413L70.1057 65.4708L73.0458 65.4693L72.8661 66.1685L70.8847 66.1672C70.5613 66.1667 70.1724 66.2064 69.8579 66.1413Z" fill="#3DC2D7"/>
<path d="M65.2538 62.397L67.8592 62.4106L67.4907 63.1902L64.7988 63.1887L65.2538 62.397Z" fill="#278D95"/>
<path d="M76.8779 64.237L76.9568 63.502L79.6833 63.5023L79.6818 64.2549L77.9923 64.2587C77.6405 64.2587 77.2213 64.3016 76.8779 64.237Z" fill="#3DC2D7"/>
<path d="M66.4028 66.1488L66.7275 65.4622L68.7677 65.4576C69.0708 65.457 69.4285 65.4184 69.7256 65.4672L69.4663 66.1569L66.4028 66.1488Z" fill="#3DC2D7"/>
<path d="M62.2377 62.3965L64.8601 62.3995L64.4183 63.1889L61.7568 63.1889L62.2377 62.3965Z" fill="#278D95"/>
<path d="M73.6992 64.2124L73.8587 63.5168C74.0723 63.4551 74.4338 63.502 74.6621 63.5021L76.6457 63.5047L76.5709 64.2484C76.2036 64.2446 73.8533 64.31 73.6992 64.2124Z" fill="#3DC2D7"/>
<path d="M74.0894 62.4045L76.735 62.4024L76.6673 63.1894L73.9258 63.1816L74.0894 62.4045Z" fill="#278D95"/>
<path d="M91.4549 62.3914L91.878 63.1689L89.1066 63.1743L88.7886 62.4027L91.4549 62.3914Z" fill="#278D95"/>
<path d="M88.4437 62.3911L88.7959 63.1851L86.0065 63.1855L85.8052 62.4178L88.4437 62.3911Z" fill="#278D95"/>
<path d="M92.7541 64.267L92.3628 63.4809L95.0468 63.4861L95.5195 64.2566L92.7541 64.267Z" fill="#3DC2D7"/>
<path d="M93.7268 66.2073L93.3408 65.4701L96.2513 65.4679L96.6898 66.1756C96.4363 66.2547 96.0379 66.2054 95.7677 66.2057L93.7268 66.2073Z" fill="#3DC2D7"/>
<path d="M73.2202 66.1434L73.4012 65.4695L76.4519 65.4709L76.377 66.1672L74.2533 66.1687C73.9433 66.1686 73.5167 66.2218 73.2202 66.1434Z" fill="#3DC2D7"/>
<path d="M89.5331 64.2655L89.2305 63.5001L92.0383 63.4996L92.3735 64.2328C92.0698 64.2928 91.7142 64.2621 91.4033 64.2631L89.5331 64.2655Z" fill="#3DC2D7"/>
<path d="M82.812 62.4025L85.5077 62.3964L85.7172 63.1868L82.9067 63.1889L82.812 62.4025Z" fill="#278D95"/>
<path d="M86.3011 64.2666L86.0967 63.5033L88.8959 63.5035L89.1901 64.2603L86.3011 64.2666Z" fill="#3DC2D7"/>
<path d="M83.0636 64.2648L82.9546 63.5039L85.7807 63.5031L85.9634 64.237C85.7031 64.3122 85.3145 64.2649 85.0394 64.2652L83.0636 64.2648Z" fill="#3DC2D7"/>
<path d="M68.2358 62.3921L70.8869 62.3869L70.6059 63.1913L67.8232 63.1885L68.2358 62.3921Z" fill="#278D95"/>
<path d="M86.8088 66.1996L86.6123 65.4721L89.6335 65.4665L89.9031 66.1669C89.6076 66.2306 89.2331 66.191 88.9275 66.191L86.8088 66.1996Z" fill="#3DC2D7"/>
<path d="M90.2771 66.2057L90.0029 65.4685L92.9862 65.47L93.3479 66.2019L90.2771 66.2057Z" fill="#3DC2D7"/>
<path d="M83.3329 66.1919C83.312 66.0429 83.2015 65.589 83.25 65.4714L86.2727 65.4694L86.4696 66.1957L83.3329 66.1919Z" fill="#3DC2D7"/>
<path d="M59.7617 66.137C59.9577 66.2182 60.3758 66.1665 60.5963 66.167L62.5748 66.1665L62.1107 66.9615L59.2197 66.9392L59.7617 66.137Z" fill="#278D95"/>
<path d="M98.4031 64.2591L99.0168 65.1521L96.4527 65.155C96.2338 64.9343 96.0451 64.5309 95.8818 64.2584L98.4031 64.2591Z" fill="#278D95"/>
<path d="M96.6895 66.1756L97.1683 66.9556L94.094 66.9761L93.7266 66.2073L95.7675 66.2057C96.0377 66.2054 96.436 66.2547 96.6895 66.1756Z" fill="#278D95"/>
<path d="M93.3481 66.2019L93.71 66.9585L90.5505 66.9678L90.2773 66.2056L93.3481 66.2019Z" fill="#278D95"/>
<path d="M61.0371 64.2376L63.6994 64.2371L63.1832 65.1268L60.458 65.1207L61.0371 64.2376Z" fill="#278D95"/>
<path d="M69.8578 66.1414C70.1724 66.2064 70.5612 66.1667 70.8846 66.1673L72.866 66.1685L72.6921 66.9647C72.321 66.9611 69.7286 66.9978 69.5693 66.9058L69.8578 66.1414Z" fill="#278D95"/>
<path d="M89.9029 66.1669L90.2038 66.9604L86.9974 66.9744L86.8086 66.1997L88.9273 66.191C89.2328 66.191 89.6073 66.2306 89.9029 66.1669Z" fill="#278D95"/>
<path d="M86.4693 66.1956L86.6624 66.936C86.4445 67.0201 86.052 66.9698 85.8143 66.9702L84.0155 66.9739C83.8476 66.9744 83.5975 66.9436 83.4393 66.9791L83.3325 66.1919L86.4693 66.1956Z" fill="#278D95"/>
<path d="M80.0029 66.1678L82.9997 66.1707L83.0934 66.9863C82.8026 66.9409 82.4291 66.9866 82.1308 66.9874L80.0052 66.9802L80.0029 66.1678Z" fill="#278D95"/>
<path d="M76.5952 66.9727L76.6862 66.0496L76.7048 66.1547C77.2629 66.2107 77.862 66.1686 78.4242 66.1683C78.8201 66.1681 79.2705 66.21 79.6604 66.156L79.6656 66.986L76.5952 66.9727Z" fill="#278D95"/>
<path d="M63.0403 66.1437L66.0054 66.1518L65.6209 66.9686L62.5273 66.9639L63.0403 66.1437Z" fill="#278D95"/>
<path d="M66.4029 66.1488L69.4663 66.1569L69.17 66.9636L67.1868 66.9462C66.8009 66.9447 66.3946 66.9694 66.0122 66.9254L66.4029 66.1488Z" fill="#278D95"/>
<path d="M79.9761 64.2608L82.744 64.2634L82.8573 65.1559L79.9813 65.1558L79.9761 64.2608Z" fill="#278D95"/>
<path d="M95.5198 64.2566L96.0795 65.1548L94.138 65.1557C93.8367 65.1557 93.4913 65.1885 93.1949 65.1455L92.7544 64.267L95.5198 64.2566Z" fill="#278D95"/>
<path d="M64.1426 64.2389L66.9307 64.2366L66.5027 65.1365L63.6064 65.1315L64.1426 64.2389Z" fill="#278D95"/>
<path d="M79.6817 64.255L79.6855 65.1533L76.7661 65.1487L76.8779 64.2371C77.2212 64.3017 77.6404 64.2588 77.9922 64.2587L79.6817 64.255Z" fill="#278D95"/>
<path d="M73.2203 66.1434C73.5168 66.2218 73.9434 66.1686 74.2534 66.1687L76.3771 66.1672L76.2933 66.9665L73.0702 66.9612L73.0303 66.9064L73.2203 66.1434Z" fill="#278D95"/>
<path d="M92.3732 64.2328L92.8347 65.1541L89.8673 65.1553L89.5327 64.2655L91.4029 64.2631C91.7138 64.2621 92.0694 64.2928 92.3732 64.2328Z" fill="#278D95"/>
<path d="M70.5851 64.2116C70.7888 64.3072 71.255 64.2466 71.4894 64.2449L73.3301 64.2499L73.1289 65.1554L70.2095 65.1524L70.5851 64.2116Z" fill="#278D95"/>
<path d="M89.1897 64.2603C89.2304 64.3686 89.5387 65.0762 89.5132 65.1529L86.5248 65.155L86.3008 64.2666L89.1897 64.2603Z" fill="#278D95"/>
<path d="M85.9638 64.237L86.1949 65.153L83.1845 65.1549L83.064 64.2648L85.0397 64.2652C85.3148 64.2649 85.7034 64.3122 85.9638 64.237Z" fill="#278D95"/>
<path d="M73.6993 64.2123C73.8535 64.31 76.2037 64.2446 76.571 64.2484L76.4758 65.1534L73.4692 65.1482L73.6993 64.2123Z" fill="#278D95"/>
<path d="M70.182 64.2394L69.8692 65.1306C69.5899 65.1772 69.247 65.1418 68.9591 65.1421L66.8506 65.1334L67.3132 64.2283L70.182 64.2394Z" fill="#278D95"/>
<path d="M77.0398 62.3388L77.0859 61.7898C77.4773 61.7885 79.4494 61.721 79.6587 61.8237C79.7191 62.262 79.6814 62.7486 79.6827 63.1934L76.9639 63.1881L77.0398 62.3388Z" fill="#278D95"/>
<path d="M77.0396 62.3388L77.0856 61.7898C77.477 61.7885 79.4491 61.721 79.6584 61.8237L79.6514 62.3929C79.3495 62.3932 77.1331 62.4329 77.0593 62.3636L77.0396 62.3388Z" fill="#3DC2D7"/>
<defs>
<linearGradient id="paint0_linear_117_5670" x1="137.835" y1="23.1852" x2="137.835" y2="17.2214" gradientUnits="userSpaceOnUse">
<stop stop-color="#9C3600"/>
<stop offset="0.04" stop-color="#A44401"/>
<stop offset="0.25" stop-color="#CD8909"/>
<stop offset="0.4" stop-color="#E7B40D"/>
<stop offset="0.48" stop-color="#F1C40F"/>
<stop offset="0.53" stop-color="#F2C615"/>
<stop offset="0.6" stop-color="#F3CC25"/>
<stop offset="0.67" stop-color="#F7D53F"/>
<stop offset="0.75" stop-color="#FBE363"/>
<stop offset="0.81" stop-color="#FFF088"/>
<stop offset="1" stop-color="#FFF8D6"/>
</linearGradient>
<linearGradient id="paint1_linear_117_5670" x1="137.834" y1="35.2754" x2="137.834" y2="5.13184" gradientUnits="userSpaceOnUse">
<stop stop-color="#9C3600"/>
<stop offset="0.04" stop-color="#A44401"/>
<stop offset="0.25" stop-color="#CD8909"/>
<stop offset="0.4" stop-color="#E7B40D"/>
<stop offset="0.48" stop-color="#F1C40F"/>
<stop offset="0.53" stop-color="#F2C615"/>
<stop offset="0.6" stop-color="#F3CC25"/>
<stop offset="0.67" stop-color="#F7D53F"/>
<stop offset="0.75" stop-color="#FBE363"/>
<stop offset="0.81" stop-color="#FFF088"/>
<stop offset="1" stop-color="#FFF8D6"/>
</linearGradient>
<linearGradient id="paint2_linear_117_5670" x1="137.585" y1="22.8453" x2="137.585" y2="16.8815" gradientUnits="userSpaceOnUse">
<stop stop-color="#686868"/>
<stop offset="0.04" stop-color="#5D5D5D"/>
<stop offset="0.25" stop-color="#8B8B8B"/>
<stop offset="0.4" stop-color="#8D8D8D"/>
<stop offset="0.48" stop-color="#A0A0A0"/>
<stop offset="0.53" stop-color="#C0C0C0"/>
<stop offset="0.6" stop-color="#ABABAB"/>
<stop offset="0.67" stop-color="#BDBDBD"/>
<stop offset="0.75" stop-color="#C2C2C2"/>
<stop offset="0.81" stop-color="#D8D8D8"/>
<stop offset="1" stop-color="white"/>
</linearGradient>
<linearGradient id="paint3_linear_117_5670" x1="137.584" y1="34.9327" x2="137.584" y2="4.79193" gradientUnits="userSpaceOnUse">
<stop stop-color="#686868"/>
<stop offset="0.04" stop-color="#5D5D5D"/>
<stop offset="0.25" stop-color="#8B8B8B"/>
<stop offset="0.4" stop-color="#8D8D8D"/>
<stop offset="0.48" stop-color="#A0A0A0"/>
<stop offset="0.53" stop-color="#C0C0C0"/>
<stop offset="0.6" stop-color="#ABABAB"/>
<stop offset="0.67" stop-color="#BDBDBD"/>
<stop offset="0.75" stop-color="#C2C2C2"/>
<stop offset="0.81" stop-color="#D8D8D8"/>
<stop offset="1" stop-color="white"/>
</linearGradient>
<linearGradient id="paint4_linear_117_5670" x1="97.0673" y1="54.5535" x2="62.2572" y2="41.3138" gradientUnits="userSpaceOnUse">
<stop stop-color="#000001"/>
<stop offset="1" stop-color="#03021A"/>
</linearGradient>
<linearGradient id="paint5_linear_117_5670" x1="79.6858" y1="54.4342" x2="70.3328" y2="79.5633" gradientUnits="userSpaceOnUse">
<stop stop-color="#5E4698"/>
<stop offset="1" stop-color="#8373AE"/>
</linearGradient>
<linearGradient id="paint6_linear_117_5670" x1="70.1315" y1="59.3008" x2="70.1524" y2="60.6313" gradientUnits="userSpaceOnUse">
<stop stop-color="#000101"/>
<stop offset="1" stop-color="#020016"/>
</linearGradient>
<linearGradient id="paint7_linear_117_5670" x1="87.4768" y1="71.3859" x2="72.2777" y2="69.8155" gradientUnits="userSpaceOnUse">
<stop stop-color="#1E6E99"/>
<stop offset="1" stop-color="#C5DFF2"/>
</linearGradient>
<linearGradient id="paint8_linear_117_5670" x1="97.0673" y1="54.5535" x2="62.2572" y2="41.3138" gradientUnits="userSpaceOnUse">
<stop stop-color="#000001"/>
<stop offset="1" stop-color="#03021A"/>
</linearGradient>
<linearGradient id="paint9_linear_117_5670" x1="79.6858" y1="54.4342" x2="70.3328" y2="79.5633" gradientUnits="userSpaceOnUse">
<stop stop-color="#5E4698"/>
<stop offset="1" stop-color="#8373AE"/>
</linearGradient>
<linearGradient id="paint10_linear_117_5670" x1="70.1315" y1="59.3008" x2="70.1524" y2="60.6313" gradientUnits="userSpaceOnUse">
<stop stop-color="#000101"/>
<stop offset="1" stop-color="#020016"/>
</linearGradient>
<linearGradient id="paint11_linear_117_5670" x1="87.4768" y1="71.3859" x2="72.2777" y2="69.8155" gradientUnits="userSpaceOnUse">
<stop stop-color="#1E6E99"/>
<stop offset="1" stop-color="#C5DFF2"/>
</linearGradient>
</defs>
</svg>
