<?xml version="1.0" encoding="utf-8"?>
<!-- Generator: Adobe Illustrator 27.1.1, SVG Export Plug-In . SVG Version: 6.00 Build 0)  -->
<svg version="1.1" id="Слой_1" xmlns="http://www.w3.org/2000/svg" xmlns:xlink="http://www.w3.org/1999/xlink" x="0px" y="0px"
	 viewBox="0 0 159 109" style="enable-background:new 0 0 159 109;" xml:space="preserve">
<style type="text/css">
	.st0{fill:#66FECB;}
	.st1{fill:#5EDEB3;}
	.st2{fill:#01B478;}
	.st3{fill:#1DCE92;}
	.st4{fill:#2AFFB7;}
	.st5{fill:#FFFFFF;}
	.st6{fill:#003725;}
	.st7{fill-rule:evenodd;clip-rule:evenodd;fill:#FFFFFF;}
	.st8{fill-rule:evenodd;clip-rule:evenodd;fill:#FFFFFF;filter:url(#Adobe_OpacityMaskFilter);}
	.st9{mask:url(#path-10-inside-1_129_10919_00000089563257974219374980000018190821517949133202_);fill:#C2C2C2;}
	.st10{fill:#1C1F33;}
	.st11{fill:#0F0F28;}
	.st12{fill:#125B6E;}
	.st13{fill:#010002;}
	.st14{fill:#80828C;}
	.st15{fill:#525356;}
	.st16{fill:url(#SVGID_1_);}
	.st17{fill:#8EC7D5;}
	.st18{fill:#1E343A;}
	.st19{fill:#0A7678;}
	.st20{fill:url(#SVGID_00000102539802711590042270000017630183544060003983_);}
	.st21{fill:#46ABAD;}
</style>
<path class="st0" d="M150.5,26.8V13.2l-11.7-6.8L127,13.2v13.6l11.8,6.8L150.5,26.8z"/>
<path class="st0" d="M145.6,24V16l-6.9-4l-6.9,4V24l6.9,4L145.6,24z"/>
<path class="st1" d="M138.8,12.1V6.4l11.7,6.8l-4.9,2.8L138.8,12.1z"/>
<path class="st2" d="M145.6,24V16l4.9-2.8v13.6L145.6,24z"/>
<path class="st3" d="M138.8,27.9v5.6l11.7-6.8l-4.9-2.8L138.8,27.9z"/>
<path class="st2" d="M131.9,24l-4.9,2.8l11.8,6.8v-5.6L131.9,24z"/>
<path class="st4" d="M138.8,12.1l-6.9,4l-4.9-2.8l11.8-6.8V12.1z"/>
<path class="st5" d="M150.5,13.2l-5.2,2.6l-6.3-3.7l-0.2-5.8l-0.2,5.8l-6.3,3.7l-5.2-2.6l4.9,2.8v2.8c0.1-0.9,0.2-1.8,0.3-2.6
	l6.6-3.6l6.6,3.6c0.1,0.9,0.2,1.8,0.3,2.6V16l0.1,0L150.5,13.2z"/>
<path class="st6" d="M138.8,6.4l11.7,6.8v13.6l-11.7,6.8L127,26.8V13.2L138.8,6.4z M138.8,5.7c-0.1,0-0.3,0-0.4,0.1l-11.8,6.8
	c-0.1,0.1-0.2,0.2-0.3,0.3c-0.1,0.1-0.1,0.3-0.1,0.4v13.6c0,0.1,0,0.3,0.1,0.4c0.1,0.1,0.2,0.2,0.3,0.3l11.8,6.8
	c0.1,0.1,0.3,0.1,0.4,0.1c0.1,0,0.3,0,0.4-0.1l11.7-6.8c0.1-0.1,0.2-0.2,0.3-0.3c0.1-0.1,0.1-0.3,0.1-0.4V13.2c0-0.1,0-0.3-0.1-0.4
	c-0.1-0.1-0.2-0.2-0.3-0.3l-11.7-6.8C139,5.7,138.9,5.7,138.8,5.7L138.8,5.7z"/>
<path class="st7" d="M118.8,12c0-6.6-5.4-12-12-12h-94c-6.6,0-12,5.4-12,12v84.3c0,6.6,5.4,12,12,12h134c6.6,0,12-5.4,12-12V52
	c0-6.6-5.4-12-12-12h-16c-6.6,0-12-5.4-12-12V12z"/>
<defs>
	<filter id="Adobe_OpacityMaskFilter" filterUnits="userSpaceOnUse" x="-0.2" y="-1" width="160" height="110.3">
		<feColorMatrix  type="matrix" values="1 0 0 0 0  0 1 0 0 0  0 0 1 0 0  0 0 0 1 0"/>
	</filter>
</defs>
<mask maskUnits="userSpaceOnUse" x="-0.2" y="-1" width="160" height="110.3" id="path-10-inside-1_129_10919_00000089563257974219374980000018190821517949133202_">
	<path class="st8" d="M118.8,12c0-6.6-5.4-12-12-12h-94c-6.6,0-12,5.4-12,12v84.3c0,6.6,5.4,12,12,12h134c6.6,0,12-5.4,12-12V52
		c0-6.6-5.4-12-12-12h-16c-6.6,0-12-5.4-12-12V12z"/>
</mask>
<path class="st9" d="M12.8,1h94v-2h-94V1z M1.8,96.3V12h-2v84.3H1.8z M146.8,107.3h-134v2h134V107.3z M157.8,52v44.3h2V52H157.8z
	 M146.8,39h-16v2h16V39z M119.8,28V12h-2v16H119.8z M130.8,39c-6.1,0-11-4.9-11-11h-2c0,7.2,5.8,13,13,13V39z M159.8,52
	c0-7.2-5.8-13-13-13v2c6.1,0,11,4.9,11,11H159.8z M146.8,109.3c7.2,0,13-5.8,13-13h-2c0,6.1-4.9,11-11,11V109.3z M-0.2,96.3
	c0,7.2,5.8,13,13,13v-2c-6.1,0-11-4.9-11-11H-0.2z M106.8,1c6.1,0,11,4.9,11,11h2c0-7.2-5.8-13-13-13V1z M12.8-1
	c-7.2,0-13,5.8-13,13h2c0-6.1,4.9-11,11-11V-1z"/>
<path class="st10" d="M51.5,73.2l1.9-3l1-1.6l2.5-4l1.5-2.4c0.1-0.2,0.4-0.5,0.4-0.7c0-0.1,0-0.1,0-0.2c-0.1-0.6,0-1.2,0-1.8l0-3.8
	l0-6.2l0-9.3l0-5.6l0-0.9c0-0.2,0-0.4,0-0.5c0.2-0.1,0.3-0.1,0.5-0.1l9.5,0l17.9,0l10.1,0l3.1,0c0.5,0,1.1,0,1.6,0
	c0.1,0,0.2,0.1,0.2,0.2c0.1,0.3,0,0.6,0,0.8v1.5l0,5l0,15.9l0,3.9l0,1c0,0.1,0,0.3,0,0.4c0.1,0.2,0.2,0.4,0.3,0.6l0.7,1.1l2.2,3.5
	l1,1.6l2.2,3.5c0.3,0.5,0.6,0.9,0.9,1.4c-0.2-0.1-0.6,0-0.8,0l-0.1-0.2l-4.7-7.5l-0.7-1l-0.5-0.7c0-0.1-0.1-0.1-0.1-0.2l-0.3-0.5
	c-0.1-0.1-0.2-0.3-0.3-0.4c0,0-0.1-0.1-0.1-0.1l0,0l-0.3-0.5l-0.1-0.1l-0.1-0.2c-0.1-0.1-0.1-0.1-0.1-0.3c-0.1-0.1,0-0.7,0-0.9
	l-0.1-2.1l0-11.2l0-10l0-2.9c0,0,0,0,0-0.1c-0.1-0.1-0.2-0.1-0.3-0.1l0,0c-0.5-0.1-1.1,0-1.6,0l-2.8,0l-8.1,0l-28.3,0l0,3.2l0,6.2
	l0,12.5l0,4.5l0,0.7c0,0,0,0.2,0,0.2c0,0.1-0.1,0.2-0.2,0.4c-0.4,0.7-0.8,1.3-1.2,1.9l-4,6.3l-1.6,2.5c-0.2,0.3-0.4,0.6-0.5,0.9
	C52,73.2,51.7,73.2,51.5,73.2z"/>
<path class="st11" d="M51.5,73.2c0.2,0.1,0.5,0,0.7,0c0.2-0.3,0.3-0.6,0.5-0.9l1.6-2.5l4-6.3c0.4-0.6,0.9-1.3,1.2-1.9
	c0.1-0.1,0.2-0.2,0.2-0.4c0,0,0-0.1,0-0.2l0-0.7l0-4.5l0-12.5l0-6.2l0-3.2l28.3,0l8.1,0l2.8,0c0.5,0,1.1,0,1.6,0l0,0
	c0.1,0,0.2,0.1,0.3,0.1c0,0,0,0,0,0.1l0,2.9l0,10l0,11.2l0.1,2.1c0,0.1,0,0.8,0,0.9c0,0.1,0.1,0.2,0.1,0.3l0.1,0.2l0.1,0.1l0.3,0.5
	l0,0c0,0,0,0.1,0.1,0.1c0.1,0.1,0.2,0.3,0.3,0.4l0.3,0.5c0,0.1,0.1,0.1,0.1,0.2l0.5,0.7l0.7,1l4.7,7.5l0.1,0.2c0.3,0,0.6-0.1,0.8,0
	c0.1,0.1,0.2,0.2,0.2,0.4c0,0.2-0.1,0.3-0.2,0.5c-0.1,0.2-0.2,0.5-0.4,0.7l-0.1,0.1c-0.6,0.7-1.3,1.1-2.2,1.2c-1,0.1-2,0-3,0l-5.5,0
	l-17.5,0l-17.8,0l-5.6,0c-1,0-1.9,0.1-2.9,0c-0.7,0-1.2-0.3-1.7-0.7c-0.2,0-0.4-0.2-0.5-0.4c-0.3-0.4-0.6-0.8-0.7-1.3
	c0-0.1,0-0.2,0-0.3C51.3,73.4,51.4,73.2,51.5,73.2z"/>
<path class="st12" d="M56.9,73.6l52.1,0l-0.4,0.9l-5,0l-51.7,0l-0.4-1L56.9,73.6z"/>
<path class="st13" d="M102.5,73.9c0.2,0,1.3-0.1,1.4,0c0,0.1,0.1,0.2,0.1,0.3c0,0.1-0.1,0.1-0.1,0.1l0,0c-0.3,0.1-0.7,0-1,0
	c-0.1,0-0.3,0-0.4,0c-0.1-0.1-0.1-0.1-0.1-0.2C102.4,74,102.5,74,102.5,73.9z"/>
<path class="st10" d="M52.4,75.4c-0.1-0.2-0.3-0.4-0.5-0.6l56.6,0c-0.6,0.7-1.3,1.1-2.2,1.2c-1,0.1-2,0-3,0l-5.5,0l-17.5,0l-17.8,0
	l-5.6,0c-1,0-1.9,0.1-2.9,0C53.5,76,52.9,75.8,52.4,75.4z"/>
<path class="st14" d="M60,61.2l0-27l35.2,0l4.8,0l-2.1,1.7l-36,0l0,5l0,0c0,0.6,0,1.3,0,1.9l0,3.3l0,10.2l0,2.1c0,0.1,0,0.5,0,0.6
	c0,0.1-0.3,0.3-0.4,0.4l-1,1.1C60.4,60.7,60.2,61,60,61.2z"/>
<path class="st15" d="M95.2,34.2l4.7,0l0.1,0l0.5,0l0,27.1l-40.5,0c0-0.1,0,0,0-0.1c0.2-0.2,0.4-0.4,0.6-0.6l1-1.1
	c0.1-0.1,0.3-0.3,0.4-0.4c0-0.1,0-0.4,0-0.6l0-2.1l0-10.2l0-3.3c0-0.6,0-1.3,0-1.9l0,0l0,18.2l29.1,0l5,0l1.6,0c0.2,0,0.5,0,0.7,0
	c0.1,0,0.2-0.1,0.2-0.2c0-0.1,0-0.2,0-0.3l0-0.8l0-3.2l0-12.4l0-3.7l0-1.8c0-0.2,0-0.6,0-0.8c-0.1-0.1-0.5,0-0.6,0l2.1-1.7
	L95.2,34.2z"/>
<linearGradient id="SVGID_1_" gradientUnits="userSpaceOnUse" x1="84.9792" y1="52.2301" x2="78.0209" y2="28.7497" gradientTransform="matrix(1 0 0 -1 0 109.276)">
	<stop  offset="0" style="stop-color:#626267"/>
	<stop  offset="1" style="stop-color:#7C838D"/>
</linearGradient>
<path class="st16" d="M59.8,61.6c0.4,0,0.9,0,1.4,0l2.8,0l9,0l18.4,0l9.3,0l7.2,11.5l-7.3,0l-48,0L59.8,61.6z"/>
<path class="st11" d="M73.5,68.5L73.5,68.5c0.1,0,0.3,0,0.4,0l0.7,0l2.9,0l6.1,0l3.2,0c0.1,0,0.1,0,0.1,0c0,0,0.1,0.1,0.1,0.1
	c0.2,0.5,0.4,1.1,0.5,1.7l0.4,1.2c0.1,0.2,0.2,0.4,0.2,0.6c0,0.1,0,0.1,0,0.1c0,0-0.1,0.1-0.1,0.1c-0.1,0-0.3,0-0.4,0l-0.9,0l-9.9,0
	l-3,0c-0.5,0-1,0-1.6,0c-0.1,0-0.1,0-0.2-0.1c0,0,0-0.1,0-0.1c0-0.1,0.1-0.3,0.1-0.4l0.3-0.8l0.8-2.3C73.4,68.6,73.5,68.5,73.5,68.5
	z"/>
<path class="st17" d="M73.7,68.7l13,0l1,3.2l-1.2,0l-14.1,0L73.7,68.7z"/>
<path class="st11" d="M61.4,62.5l37.7,0c0.3,0.3,0.5,0.7,0.7,1l1.6,2.7l0.6,1c0.1,0.1,0.2,0.3,0.3,0.5c0,0.1,0,0.1,0,0.2
	c0,0,0,0-0.1,0.1c-0.1,0-2.7,0-3.1,0l-29.7,0l-8.3,0l-2,0c-0.3,0-0.6,0-0.8,0c-0.1,0-0.1-0.1-0.2-0.1c0-0.1,0-0.1,0-0.2
	c0.1-0.2,0.2-0.3,0.3-0.5l0.6-1L61.4,62.5z"/>
<path class="st18" d="M78.7,63l3.3,0l0.1,1.3c0,0.1,0.1,0.4,0,0.5l-0.2,0l-3.5,0L78.7,63z"/>
<path class="st18" d="M82.3,63l3.4,0c0.1,0.1,0.1,0.3,0.1,0.4l0.4,1.4l-3.8,0L82.3,63z"/>
<path class="st18" d="M88.5,63l1,0c0.1,0,0,0,0.1,0.1l0.9,1.7l-2.4,0l-1.4,0L86.2,63L88.5,63z"/>
<path class="st18" d="M90,63l3.5,0c0.2,0.1,0.3,0.4,0.4,0.5l0.9,1.3l-3.9,0L90,63z"/>
<path class="st18" d="M76.8,63l1.5,0L78,64.8l-2.4,0l-1.5,0l0.6-1.8L76.8,63z"/>
<path class="st18" d="M70.7,63c0.5,0,3.5,0,3.6,0l-0.4,1c-0.1,0.2-0.1,0.5-0.3,0.7l-0.2,0l-3.7,0L70.7,63z"/>
<path class="st18" d="M66.5,63l3.8,0l-1,1.8l-0.1,0l-3.9,0L66.5,63z"/>
<path class="st18" d="M61.7,63l4.4,0L65,64.7c0,0,0,0-0.1,0c0,0-0.2,0-0.2,0l-0.6,0l-3.5,0L61.7,63z"/>
<path class="st18" d="M94,63l4.8,0l1.1,1.8l-4.6,0L94,63z"/>
<path class="st18" d="M78.4,65.2l3.8,0c0,0.3,0.2,2.1,0.2,2.2l-0.2,0l-4,0L78.4,65.2z"/>
<path class="st18" d="M65.1,65.2l4,0l-0.8,1.5c-0.1,0.2-0.2,0.5-0.4,0.7l-0.1,0l-4.1,0L65.1,65.2z"/>
<path class="st18" d="M82.6,65.2l3.9,0l0.7,2.2l-4.4,0L82.6,65.2z"/>
<path class="st18" d="M91.2,65.2l4,0l1.6,2.2l-4.4,0L91.2,65.2z"/>
<path class="st18" d="M69.6,65.2l4,0L73,66.8c-0.1,0.2-0.1,0.4-0.2,0.5l-0.3,0l-4.1,0L69.6,65.2z"/>
<path class="st18" d="M88.3,65.2l2.4,0l1.2,2.2l-1.5,0l-2.9,0l-0.7-2.2L88.3,65.2z"/>
<path class="st18" d="M74,65.2l4,0l-0.3,2.2l-0.4,0l-4.1,0L74,65.2z"/>
<path class="st18" d="M60.3,65.1l4.4,0l-1.4,2.2l0,0c0,0,0,0-0.1,0c-0.1,0-0.3,0-0.4,0h-0.8l-3.2,0L60.3,65.1z"/>
<path class="st18" d="M95.6,65.2l4.6,0l1.4,2.3l-4.3,0L95.6,65.2z"/>
<path class="st11" d="M97.9,35.9c0.2,0,0.5,0,0.6,0c0.1,0.2,0.1,0.6,0,0.8l0,1.8l0,3.7l0,12.4l0,3.2l0,0.8c0,0.1,0,0.2,0,0.3
	c0,0.1-0.1,0.2-0.2,0.2c-0.2,0.1-0.5,0-0.7,0l-1.6,0l-5,0l-29.1,0l0-18.2l0-5L97.9,35.9z"/>
<path class="st10" d="M98.3,36.1L98.3,36.1l0.1,0.1l0,14.1l0,5.8l0,2.5c0,0.1,0,0.2-0.1,0.3c-0.1,0-0.1,0-0.2,0c-0.5,0-1,0-1.5,0
	l-3.5,0l-19.9,0l-4,0l-7,0c-0.1,0,0,0-0.1,0l0-22.7L98.3,36.1z"/>
<path class="st13" d="M94.8,36.5l3.2,0l0,1.6c0,0.2,0,0.5,0,0.6l0,0l0-0.1c0-0.2,0-0.5,0-0.7l0-1.3l-0.5,0l-0.4,0
	c-0.3-0.1-0.7,0-1,0l-2.3,0c0.1-0.1,0.3,0,0.4,0L94.8,36.5z"/>
<path class="st11" d="M82.5,36.5l12.2,0l-0.8,0c-0.1,0-0.3,0-0.4,0l2.3,0c0.3,0,0.7,0,1,0l-12.6,0c0.2-0.1,0.5,0,0.7,0l1.4,0v0
	l-0.1,0c-0.2-0.1-0.5,0-0.8,0l-2.3,0C83.2,36.5,82.7,36.5,82.5,36.5z"/>
<path class="st11" d="M97.8,58.4c0.1-0.2,0-2.9,0-3.3c0.1,0.1,0,0.4,0,0.5l0,1.9C97.9,57.7,97.9,58.1,97.8,58.4L97.8,58.4
	C98,58.2,98,58,98,57.9l0,0c0,0.2,0,0.4,0,0.6l-33,0v0l5.2,0c0.1,0,0,0,0.1,0l0,0l0,0c-0.9,0.1-1.9,0-2.9,0l-0.7,0
	c-0.1,0-0.2,0-0.2,0l0,0l-0.1,0l-0.1,0c-0.3,0-2-0.1-2.2,0l0,0l-0.1,0c0,0,0,0-0.1,0c-0.1,0-1,0-1,0c-0.1,0-0.2,0-0.3-0.1l0-0.4
	c0-0.2,0-0.4,0-0.5c0,0.2-0.1,0.7,0,0.9c0.2,0.1,0.5,0,0.7,0l1.4,0l5.3,0c0.8,0.1,1.6,0,2.5,0l4.4,0l13.8,0l5.4,0l1.2,0
	C97.5,58.4,97.7,58.4,97.8,58.4z"/>
<path class="st19" d="M62.7,38.6l0-0.1c0-0.1,0-0.1,0-0.2c0-0.2,0-0.4,0-0.6c0-0.2,0-0.4,0-0.6c0-0.1,0-0.3,0-0.4l0,0l0,0
	c-0.1,0.1,0,0.7-0.1,0.9l0-1c0.1-0.1,2.3,0,2.6,0l6.4,0l3.9,0l1.8,0l5.3,0c0.2,0.1,0.7,0,0.9,0l2.3,0c0.2,0,0.5,0,0.8,0l0.1,0v0
	l-1.4,0c-0.2,0-0.5,0-0.7,0l12.6,0l0.4,0l0.5,0l0,1.3c0,0.2,0,0.5,0,0.7l0,0.1l0,19.8c-0.1,0-0.3,0-0.5,0l-1.2,0l-5.4,0l-13.8,0
	l-4.4,0c-0.8,0-1.7,0-2.5,0c0.1,0,0.2,0,0.3-0.1c0.8-0.5,1.6-1.2,2.4-1.8l4.7-3.8l11.8-9.5l5.7-4.6c-0.3,0-0.7,0-1,0l-1.9,0l-6.5,0
	l-14.5,0L62.7,38.6l0,3.2L62.7,38.6z"/>
<path class="st11" d="M62.7,38.6l0-0.1c0-0.1,0-0.1,0-0.2c0-0.2,0-0.4,0-0.6c0-0.2,0-0.4,0-0.6c0-0.1,0-0.3,0-0.4l0,0l0,0
	c-0.1,0.1,0,0.7-0.1,0.9l0-1c0.1-0.1,2.3,0,2.6,0l6.4,0l0,0c-0.3,0.1-0.7,0-1,0l-2.4,0c-0.4,0-0.7,0-1.1,0l-0.3,0l0,0l6.9,0l4.1,0
	l1.1,0c0.2,0,0.4,0,0.5,0c0.1,0,0.2,0,0.3,0l-16.9,0L62.7,38.6z"/>
<path class="st13" d="M77.2,36.5l5.3,0c0.2,0.1,0.7,0,0.9,0l2.3,0c0.2,0,0.5,0,0.8,0l0.1,0v0l-1.4,0c-0.2,0-0.5,0-0.7,0l-4.8,0
	c-0.1,0-0.2,0-0.3,0c-0.2,0-0.4,0-0.5,0l-1.1,0l-4.1,0l-6.9,0l0,0l0.3,0c0.4,0,0.7,0,1.1,0l2.4,0c0.3,0,0.7,0,1,0l0,0l3.9,0
	L77.2,36.5z"/>
<linearGradient id="SVGID_00000116933225384387160910000002530325884382312341_" gradientUnits="userSpaceOnUse" x1="95.0105" y1="70.9839" x2="98.0058" y2="71.8111" gradientTransform="matrix(1 0 0 -1 0 109.276)">
	<stop  offset="0" style="stop-color:#092537"/>
	<stop  offset="1" style="stop-color:#0A3B40"/>
</linearGradient>
<path style="fill:url(#SVGID_00000116933225384387160910000002530325884382312341_);" d="M97.4,36.5l0.5,0l0,1.3c0,0.2,0,0.5,0,0.7
	l0,0.1l-2.9,0l1.9-1.5C96.9,36.9,97.3,36.7,97.4,36.5z"/>
<path class="st21" d="M62.7,41.7l0-3.2l8.2,0l14.5,0l6.5,0l1.9,0c0.3,0,0.7,0,1,0l-5.7,4.6l-11.8,9.5l-4.7,3.8
	c-0.8,0.6-1.5,1.3-2.4,1.8c-0.1,0.1-0.2,0.1-0.3,0.1l-5.3,0l-1.4,0c-0.2,0-0.5,0-0.7,0L62.7,41.7z"/>
</svg>
