<svg width="109" height="109" viewBox="0 0 109 109" fill="none" xmlns="http://www.w3.org/2000/svg">
<rect x="0.5" y="1.16003" width="107.33" height="107.33" rx="15.5" fill="#E3E3E3"/>
<rect x="0.5" y="1.16003" width="107.33" height="107.33" rx="15.5" stroke="#393931"/>
<g opacity="0.3" clip-path="url(#clip0_449_448)">
<path d="M78.873 37.4871H29.4563C28.8748 37.4871 28.4033 37.9584 28.4033 38.54V65.4947C28.4033 66.0761 28.8747 66.5477 29.4563 66.5477H78.8732C79.4546 66.5477 79.9261 66.0763 79.9261 65.4947V38.54C79.926 37.9584 79.4546 37.4871 78.873 37.4871ZM77.8202 64.4416H30.5091V48.5777H77.8201L77.8202 64.4416ZM77.8202 46.4719H30.5091V39.5928H77.8201L77.8202 46.4719Z" fill="#393931"/>
<path d="M47.4268 41.9795H33.9494C33.368 41.9795 32.8965 42.4509 32.8965 43.0324C32.8965 43.6139 33.3679 44.0854 33.9494 44.0854H47.4268C48.0082 44.0854 48.4797 43.614 48.4797 43.0324C48.4797 42.451 48.0082 41.9795 47.4268 41.9795Z" fill="#393931"/>
<path d="M54.1653 41.9795H51.9192C51.3377 41.9795 50.8662 42.4509 50.8662 43.0324C50.8662 43.6139 51.3376 44.0854 51.9192 44.0854H54.1653C54.7468 44.0854 55.2183 43.614 55.2183 43.0324C55.2183 42.451 54.7468 41.9795 54.1653 41.9795Z" fill="#393931"/>
<path d="M60.9036 41.9795H58.6574C58.076 41.9795 57.6045 42.4509 57.6045 43.0324C57.6045 43.6139 58.0759 44.0854 58.6574 44.0854H60.9036C61.4851 44.0854 61.9566 43.614 61.9566 43.0324C61.9566 42.451 61.4851 41.9795 60.9036 41.9795Z" fill="#393931"/>
<path d="M67.6429 41.9795H65.3967C64.8153 41.9795 64.3438 42.4509 64.3438 43.0324C64.3438 43.6139 64.8151 44.0854 65.3967 44.0854H67.6429C68.2243 44.0854 68.6958 43.614 68.6958 43.0324C68.6958 42.451 68.2243 41.9795 67.6429 41.9795Z" fill="#393931"/>
<path d="M74.3812 41.9795H72.135C71.5535 41.9795 71.082 42.4509 71.082 43.0324C71.082 43.6139 71.5534 44.0854 72.135 44.0854H74.3812C74.9626 44.0854 75.4341 43.614 75.4341 43.0324C75.434 42.451 74.9626 41.9795 74.3812 41.9795Z" fill="#393931"/>
<path d="M51.9193 50.9645H33.9494C33.368 50.9645 32.8965 51.4359 32.8965 52.0174V61.0023C32.8965 61.5837 33.3679 62.0552 33.9494 62.0552H51.9191C52.5006 62.0552 52.9721 61.5839 52.9721 61.0023V52.0174C52.9721 51.4359 52.5007 50.9645 51.9193 50.9645ZM50.8663 59.9493H35.0024V57.5627H50.8663V59.9493ZM50.8663 55.4568H35.0024V53.0702H50.8663V55.4568Z" fill="#393931"/>
<path d="M74.3815 50.9645H67.6428C67.0613 50.9645 66.5898 51.4359 66.5898 52.0174V61.0023C66.5898 61.5837 67.0612 62.0552 67.6428 62.0552H74.3815C74.9629 62.0552 75.4344 61.5839 75.4344 61.0023V52.0174C75.4343 51.4359 74.9629 50.9645 74.3815 50.9645ZM73.3285 59.9493H68.6957V57.5627H73.3285V59.9493ZM73.3285 55.4568H68.6957V53.0702H73.3285V55.4568Z" fill="#393931"/>
<path d="M85.6122 68.9342H84.4189V37.4169C84.4189 34.9785 82.435 32.9946 79.9966 32.9946H28.3336C25.8952 32.9946 23.9113 34.9784 23.9113 37.4169V68.9342H22.718C22.1365 68.9342 21.665 69.4055 21.665 69.9871V72.2333C21.665 74.6717 23.6489 76.6556 26.0873 76.6556H82.2429C84.6813 76.6556 86.6652 74.6717 86.6652 72.2333V69.9871C86.6652 69.4055 86.1938 68.9342 85.6122 68.9342ZM26.0172 37.4169C26.0172 36.1396 27.0564 35.1005 28.3336 35.1005H79.9967C81.274 35.1005 82.3131 36.1396 82.3131 37.4169V68.9342H26.0172V37.4169ZM84.5594 72.2333C84.5594 73.5106 83.5203 74.5497 82.243 74.5497H26.0875C24.8102 74.5497 23.7711 73.5106 23.7711 72.2333V71.0399H47.5003C47.4987 71.0633 47.4967 71.0864 47.4967 71.1101C47.4967 71.6916 47.9681 72.1631 48.5497 72.1631H59.7808C60.3623 72.1631 60.8338 71.6917 60.8338 71.1101C60.8338 71.0864 60.8317 71.0633 60.8302 71.0399H84.5594V72.2333Z" fill="#393931"/>
<path d="M63.15 50.9645H56.4113C55.8299 50.9645 55.3584 51.4359 55.3584 52.0174V61.0023C55.3584 61.5837 55.8298 62.0552 56.4113 62.0552H63.15C63.7315 62.0552 64.203 61.5839 64.203 61.0023V52.0174C64.203 51.4359 63.7316 50.9645 63.15 50.9645ZM62.0971 59.9493H57.4643V57.5627H62.0971V59.9493ZM62.0971 55.4568H57.4643V53.0702H62.0971V55.4568Z" fill="#393931"/>
</g>
<defs>
<clipPath id="clip0_449_448">
<rect width="65" height="65" fill="white" transform="translate(21.665 22.3251)"/>
</clipPath>
</defs>
</svg>
