<?xml version="1.0" encoding="utf-8"?>
<!-- Generator: Adobe Illustrator 27.1.1, SVG Export Plug-In . SVG Version: 6.00 Build 0)  -->
<svg version="1.1" id="Слой_1" xmlns="http://www.w3.org/2000/svg" xmlns:xlink="http://www.w3.org/1999/xlink" x="0px" y="0px"
	 viewBox="0 0 109 109" style="enable-background:new 0 0 109 109;" xml:space="preserve">
<style type="text/css">
	.st0{fill:#E3E3E3;}
	.st1{fill:none;stroke:#393931;}
	.st2{opacity:0.3;clip-path:url(#SVGID_00000116222347311944000090000012403114648638900866_);}
	.st3{fill:#393931;}
</style>
<path class="st0" d="M16,1.2h76.3c8.6,0,15.5,6.9,15.5,15.5V93c0,8.6-6.9,15.5-15.5,15.5H16c-8.6,0-15.5-6.9-15.5-15.5V16.7
	C0.5,8.1,7.4,1.2,16,1.2z"/>
<path class="st1" d="M16,1.2h76.3c8.6,0,15.5,6.9,15.5,15.5V93c0,8.6-6.9,15.5-15.5,15.5H16c-8.6,0-15.5-6.9-15.5-15.5V16.7
	C0.5,8.1,7.4,1.2,16,1.2z"/>
<g>
	<defs>
		<rect id="SVGID_1_" x="21.7" y="22.3" width="65" height="65"/>
	</defs>
	<clipPath id="SVGID_00000030485780557546483570000000958579150418226094_">
		<use xlink:href="#SVGID_1_"  style="overflow:visible;"/>
	</clipPath>
	<g style="opacity:0.3;clip-path:url(#SVGID_00000030485780557546483570000000958579150418226094_);">
		<path class="st3" d="M78.9,37.5H29.5c-0.6,0-1.1,0.5-1.1,1.1v27c0,0.6,0.5,1.1,1.1,1.1h49.4c0.6,0,1.1-0.5,1.1-1.1v-27
			C79.9,38,79.5,37.5,78.9,37.5z M77.8,64.4H30.5V48.6h47.3L77.8,64.4z M77.8,46.5H30.5v-6.9h47.3L77.8,46.5z"/>
		<path class="st3" d="M47.4,42H33.9c-0.6,0-1.1,0.5-1.1,1.1c0,0.6,0.5,1.1,1.1,1.1h13.5c0.6,0,1.1-0.5,1.1-1.1
			C48.5,42.5,48,42,47.4,42z"/>
		<path class="st3" d="M54.2,42h-2.2c-0.6,0-1.1,0.5-1.1,1.1c0,0.6,0.5,1.1,1.1,1.1h2.2c0.6,0,1.1-0.5,1.1-1.1
			C55.2,42.5,54.7,42,54.2,42z"/>
		<path class="st3" d="M60.9,42h-2.2c-0.6,0-1.1,0.5-1.1,1.1c0,0.6,0.5,1.1,1.1,1.1h2.2c0.6,0,1.1-0.5,1.1-1.1
			C62,42.5,61.5,42,60.9,42z"/>
		<path class="st3" d="M67.6,42h-2.2c-0.6,0-1.1,0.5-1.1,1.1c0,0.6,0.5,1.1,1.1,1.1h2.2c0.6,0,1.1-0.5,1.1-1.1
			C68.7,42.5,68.2,42,67.6,42z"/>
		<path class="st3" d="M74.4,42h-2.2c-0.6,0-1.1,0.5-1.1,1.1c0,0.6,0.5,1.1,1.1,1.1h2.2c0.6,0,1.1-0.5,1.1-1.1
			C75.4,42.5,75,42,74.4,42z"/>
		<path class="st3" d="M51.9,51h-18c-0.6,0-1.1,0.5-1.1,1.1v9c0,0.6,0.5,1.1,1.1,1.1h18c0.6,0,1.1-0.5,1.1-1.1v-9
			C53,51.4,52.5,51,51.9,51z M50.9,59.9H35v-2.4h15.9V59.9z M50.9,55.5H35v-2.4h15.9V55.5z"/>
		<path class="st3" d="M74.4,51h-6.7c-0.6,0-1.1,0.5-1.1,1.1v9c0,0.6,0.5,1.1,1.1,1.1h6.7c0.6,0,1.1-0.5,1.1-1.1v-9
			C75.4,51.4,75,51,74.4,51z M73.3,59.9h-4.6v-2.4h4.6V59.9z M73.3,55.5h-4.6v-2.4h4.6V55.5z"/>
		<path class="st3" d="M85.6,68.9h-1.2V37.4c0-2.4-2-4.4-4.4-4.4H28.3c-2.4,0-4.4,2-4.4,4.4v31.5h-1.2c-0.6,0-1.1,0.5-1.1,1.1v2.2
			c0,2.4,2,4.4,4.4,4.4h56.2c2.4,0,4.4-2,4.4-4.4V70C86.7,69.4,86.2,68.9,85.6,68.9z M26,37.4c0-1.3,1-2.3,2.3-2.3H80
			c1.3,0,2.3,1,2.3,2.3v31.5H26V37.4z M84.6,72.2c0,1.3-1,2.3-2.3,2.3H26.1c-1.3,0-2.3-1-2.3-2.3V71h23.7c0,0,0,0,0,0.1
			c0,0.6,0.5,1.1,1.1,1.1h11.2c0.6,0,1.1-0.5,1.1-1.1c0,0,0,0,0-0.1h23.7V72.2z"/>
		<path class="st3" d="M63.2,51h-6.7c-0.6,0-1.1,0.5-1.1,1.1v9c0,0.6,0.5,1.1,1.1,1.1h6.7c0.6,0,1.1-0.5,1.1-1.1v-9
			C64.2,51.4,63.7,51,63.2,51z M62.1,59.9h-4.6v-2.4h4.6V59.9z M62.1,55.5h-4.6v-2.4h4.6V55.5z"/>
	</g>
</g>
</svg>
