<?xml version="1.0" encoding="utf-8"?>
<!-- Generator: Adobe Illustrator 27.1.1, SVG Export Plug-In . SVG Version: 6.00 Build 0)  -->
<svg version="1.1" id="Слой_1" xmlns="http://www.w3.org/2000/svg" xmlns:xlink="http://www.w3.org/1999/xlink" x="0px" y="0px"
	 viewBox="0 0 221 358.6" style="enable-background:new 0 0 221 358.6;" xml:space="preserve">
<style type="text/css">
	.st0{fill:#CF8A1A;}
	.st1{fill-rule:evenodd;clip-rule:evenodd;fill:#441F00;}
	.st2{fill:url(#SVGID_1_);}
	.st3{fill:#393931;}
	.st4{fill:#FEFEFE;}
	.st5{fill:#64BB54;}
	.st6{fill:#21737A;}
	.st7{fill:#061E42;}
	.st8{fill:#2C8982;}
	.st9{fill:#9CD357;}
	.st10{fill:#4EB384;}
	.st11{fill:#3EA048;}
	.st12{fill:url(#SVGID_00000073699639746009021890000015494121627955202703_);}
	.st13{fill:#6A3F05;}
	.st14{fill:url(#SVGID_00000097476120446055566290000004136701202990110870_);}
	.st15{fill:#FED934;}
	.st16{fill:url(#SVGID_00000030444914049594560540000003880475799787838633_);}
	.st17{fill:#32B7FF;}
	.st18{fill:#3490C1;}
	.st19{fill:#0270AC;}
	.st20{fill:#0098EA;}
	.st21{fill:#025887;}
	.st22{fill:#441F00;}
	.st23{fill-rule:evenodd;clip-rule:evenodd;fill:url(#SVGID_00000176026577625223528020000002029993046427483269_);}
	.st24{fill:url(#SVGID_00000037664161147755568650000002671098890278683305_);}
	.st25{fill:#FD9F09;}
	.st26{fill:#FC8B09;}
	.st27{fill:#CA7402;}
	.st28{fill:#FE920A;}
	.st29{fill:#A85C03;}
	.st30{fill:#B96704;}
	.st31{fill:url(#SVGID_00000176011699633837965440000001015889477059172779_);}
	.st32{fill:#E2C04F;}
	.st33{fill:#BF951E;}
	.st34{fill:#8A6E10;}
	.st35{fill:#B69932;}
	.st36{fill:#634902;}
	.st37{fill:#9B8122;}
	.st38{fill:#EB9503;}
	.st39{fill:#C64904;}
	.st40{fill:#D07202;}
	.st41{fill:#FBBF05;}
	.st42{fill:#30290B;}
	.st43{fill:#080706;}
	.st44{fill:#E78A02;}
	.st45{fill:#FBD522;}
	.st46{fill:url(#SVGID_00000173138634235787532880000013925058740666120893_);}
	.st47{fill:#DCDCD8;}
	.st48{fill:url(#SVGID_00000044876306047747110890000002730172353711672707_);}
	.st49{fill-rule:evenodd;clip-rule:evenodd;fill:url(#SVGID_00000088842313079230492180000009810831633616436358_);}
	.st50{fill:url(#SVGID_00000149347686736690097670000008602269499818396814_);}
	.st51{fill:#625A65;}
	.st52{fill:#291D29;}
	.st53{fill:#201D28;}
	.st54{fill:#756370;}
	.st55{fill:#352331;}
	.st56{fill:#413543;}
	.st57{fill-rule:evenodd;clip-rule:evenodd;fill:url(#SVGID_00000092431918869378131520000017028975875784304542_);}
	.st58{fill:url(#SVGID_00000132811107444561652180000017576013216134809488_);}
	.st59{fill:url(#SVGID_00000114784354297750373960000001514956653530770836_);}
	.st60{fill:url(#SVGID_00000112632942395578615360000010189253963689983907_);}
	.st61{fill:url(#SVGID_00000065032338414642807310000004181825733076761229_);}
	.st62{fill:url(#SVGID_00000103946674326122115190000004205782402628547200_);}
	.st63{fill:url(#SVGID_00000060013173149103887010000010758722504110227867_);}
	.st64{fill:url(#SVGID_00000058570378823499127920000003487764992803241384_);}
	.st65{fill:url(#SVGID_00000080184654097145170270000011950368843541971131_);}
	.st66{fill:url(#SVGID_00000040571729188397321440000016692180431564323712_);}
	.st67{fill:url(#SVGID_00000138573449682092545870000007749121404146156696_);}
	.st68{fill:url(#SVGID_00000070104048670233954750000001021221473178778758_);}
</style>
<g>
	<path class="st0" d="M13.6,75.7c1.2-4,3.1-7.9,5-11.6c9.3-18,24.2-33.5,42-43.2c10.1-5.4,21-9.4,32.3-11.4
		c15.2-2.7,31.7-1.7,46.5,2.8c9.8,2.9,19,7.1,27.6,12.7c14.3,9.4,26.1,22.5,34.2,37.5c3,5.6,5.8,11.8,7.5,17.9l0.1,0.2
		c0.4,0.8,0.5,1.8,0.8,2.6l1.4,5.6c5.2,21,2.7,44.8-6.2,64.5c-3.8,8.5-8.8,16.8-14.8,23.9c-3.1,3.8-6.7,7.3-10.4,10.6
		c-9.5,8.4-20.3,15.2-32.2,19.7c-25.5,9.6-54.9,8.9-79.8-2.4c-24.5-11.2-44-31.6-53.5-56.8c-7.4-19.7-8.8-41.7-3.6-62.2l2.1-7.2
		C12.9,77.8,13.2,76.7,13.6,75.7z"/>
	<path class="st1" d="M201.2,62.6c3,5.6,5.8,11.8,7.5,17.9l0.1,0.2c0.3,0.6,0.4,1.3,0.6,2c0.1,0.2,0.1,0.4,0.2,0.6l1.4,5.6
		c5.2,21,2.7,44.8-6.2,64.5c-3.8,8.5-8.8,16.8-14.8,23.9c-3.1,3.8-6.7,7.3-10.4,10.6c-9.5,8.4-20.3,15.2-32.2,19.7
		c-25.5,9.6-54.9,8.9-79.8-2.4c-24.5-11.2-44-31.6-53.5-56.8c-7.4-19.7-8.8-41.7-3.6-62.2l2.1-7.2c0.1-0.3,0.2-0.5,0.3-0.8
		c0.2-0.8,0.5-1.5,0.8-2.2c1.2-4,3.1-7.9,5-11.6c9.3-18,24.2-33.5,42-43.2c10.1-5.4,21-9.4,32.3-11.4c15.2-2.7,31.7-1.7,46.5,2.8
		c9.8,2.9,19,7.1,27.6,12.7C181.3,34.4,193.1,47.5,201.2,62.6z M11.7,75c-0.4,0.8-0.6,1.7-0.9,2.4c-0.1,0.2-0.1,0.5-0.2,0.7l0,0
		l-2.1,7.3l0,0c-5.3,20.8-3.8,43.3,3.7,63.3c9.6,25.8,29.6,46.6,54.5,58c25.4,11.6,55.3,12.2,81.3,2.5c12.1-4.6,23.2-11.5,32.8-20
		c3.7-3.3,7.4-6.9,10.6-10.8c6.1-7.3,11.2-15.8,15-24.4c9.1-20.1,11.7-44.3,6.3-65.8l-1.4-5.6l0,0c0-0.1-0.1-0.3-0.1-0.5
		c-0.2-0.7-0.4-1.7-0.8-2.5l0,0v-0.1c-1.7-6.2-4.6-12.5-7.6-18.1c-8.2-15.3-20.2-28.7-34.8-38.3c-8.7-5.7-18.2-10-28.1-12.9
		C124.8,5.7,108,4.7,92.4,7.4c-11.5,2-22.7,6.1-32.9,11.6c-18.2,9.8-33.4,25.7-42.9,44C14.9,66.9,13,70.9,11.7,75z"/>
	
		<linearGradient id="SVGID_1_" gradientUnits="userSpaceOnUse" x1="110.7863" y1="310.2781" x2="107.5453" y2="247.5465" gradientTransform="matrix(1 0 0 1 0 -239.2676)">
		<stop  offset="0" style="stop-color:#E4B335"/>
		<stop  offset="1" style="stop-color:#FAD83C"/>
	</linearGradient>
	<path class="st2" d="M13.6,75.7c1.2-4,3.1-7.9,5-11.6c9.3-18,24.2-33.5,42-43.2c10.1-5.4,21-9.4,32.3-11.4
		c15.2-2.7,31.7-1.7,46.5,2.8c9.8,2.9,19,7.1,27.6,12.7c14.3,9.4,26.1,22.5,34.2,37.5c3,5.6,5.8,11.8,7.5,17.9l-0.3-0.1
		c0-0.3-0.1-0.6-0.2-0.9c-0.1-0.3-0.2-0.5-0.3-0.8s-0.2-0.5-0.3-0.8s-0.2-0.6-0.3-1l-0.1-0.4l-0.1-0.2l-0.1-0.3l-0.1-0.2
		c0-0.2-0.1-0.4-0.2-0.6l-0.1-0.1l0.1-0.2l-0.1-0.2c0-0.2-0.1-0.4-0.2-0.6l-0.1-0.1v-0.3c-0.2-0.3-0.3-0.7-0.4-1l-0.1-0.1v-0.2
		c-0.1-0.2-0.2-0.3-0.2-0.5c-0.1-0.2,0-0.2-0.1-0.4c-0.1-0.2-0.2-0.2-0.2-0.5c0-0.2-0.1-0.3-0.2-0.5l-0.2-0.3c0-0.3-0.2-0.6-0.3-0.9
		c-0.1-0.1-0.1-0.2-0.2-0.3v-0.2l-0.6-1.3l-0.1-0.1c0-0.4-0.2-0.2-0.3-0.5c-0.1-0.2,0-0.3-0.2-0.6c-0.3-0.1-0.3-0.1-0.5,0.1
		l-0.1-0.1c-0.3-0.1-0.2,0-0.4-0.2l-0.2-0.2l-0.1,0.1c-0.2-0.2-0.2-0.3-0.3-0.5h-0.2c-0.4-0.3-0.8-0.6-1.2-0.8l-0.2,0.1
		c-0.2-0.2-0.3-0.2-0.5-0.3l-0.1,0.2l-0.3-0.3c-0.1,0.4,0.1,0.7,0.3,1l1.3,2.7c0.2,0.3,0.4,0.6,0.5,0.9c0.1,0.5,0.5,1,0.7,1.5
		l0.1,0.3l0.2,0.4c0.1,0.2,0.1,0.4,0.2,0.6c0.2,0.4,0.5,0.9,0.6,1.4c0,0.2,0,0.1,0.1,0.3l0.2,0.4l0.1,0.3c0.2,0.3,0.1,0.3,0.1,0.6
		c-9.4-23.7-27.5-43-50.6-53.8c-13.4-6.2-28.6-9.5-43.4-9.3c-11.6,0.2-23.1,2.6-34,6.6c-3.2,1.2-6.3,2.7-9.4,4.3
		C45.4,32.9,29.7,49.5,20.2,70c-0.2-0.7,2-4.6,2.5-5.5l-0.1-0.1l-0.3,0.3l-0.1-0.2c-0.5-0.2-0.6,0.3-1,0.5c-0.1,0.1-0.4,0.1-0.5,0.1
		c-0.2,0-0.3,0.1-0.5,0.2l-0.3,0.2l-0.2,0.1l-0.1,0.2c-0.4,0-0.5,0.2-0.8,0.4l-0.1,0.1l-0.2,0.1l-0.1,0.2l-0.3-0.1
		c-0.2,0-0.5,0-0.6,0.1c-0.2,0.3-0.2,0.4-0.2,0.7c-0.1,0.2-0.2,0.3-0.3,0.5c-0.1,0.2-0.2,0.4-0.3,0.6v0.2c-0.2,0.1-0.3,0.4-0.4,0.6
		v0.2c-0.2,0.3-0.4,0.6-0.5,0.9c-0.1,0.5-0.4,1.1-0.6,1.6L15,72.4v0.3c-0.1,0.1-0.2,0.3-0.2,0.4v0.3l-0.1,0.1c0,0.3-0.1,0.4-0.3,0.6
		c0,0.3-0.2,0.4-0.1,0.7l-0.2,0.1v0.3L14,75.3c0,0.3,0,0.3-0.2,0.5L13.6,75.7z"/>
	<path class="st3" d="M108.6,17.4c23.6-0.5,47.9,8.5,65.2,24.6c18.4,17.1,29.4,40.9,30.3,66.1c0.8,24.8-8.6,49.1-25.6,67.1
		c-13.8,14.7-32.3,24.3-52.1,27.7c-4.7,0.8-9.4,1.2-14.1,1.3c-7.3,0-14.5-0.5-21.7-1.9c-8.8-1.8-17.2-5-25.2-9.2
		c-6.2-3.3-12.3-7.4-17.5-12.1c-5-4.5-9.6-9.4-13.6-14.9c-10.7-14.7-16.8-32.6-17.6-50.7C15.5,90,25,65.4,42.1,46.8
		c2.2-2.3,4.5-4.5,6.9-6.5C61.5,29.4,76.6,22,92.9,19C98.1,18,103.3,17.6,108.6,17.4z"/>
	<path class="st1" d="M42.1,46.8C25,65.4,15.5,90,16.6,115.3c0.8,18.1,6.9,36.1,17.6,50.7c4,5.4,8.6,10.4,13.6,14.9
		c5.2,4.7,11.3,8.8,17.5,12.1c8,4.2,16.4,7.4,25.2,9.2c7.2,1.5,14.4,2,21.7,1.9c4.7-0.1,9.5-0.5,14.1-1.3
		c19.8-3.4,38.4-13,52.1-27.7c16.9-18.1,26.4-42.3,25.6-67.1c-0.8-25.1-11.9-49-30.3-66.1c-17.3-16.1-41.6-25.1-65.2-24.6
		c-5.3,0.2-10.5,0.6-15.7,1.6C76.6,22,61.5,29.4,49,40.2C46.6,42.3,44.2,44.4,42.1,46.8z M108.6,19.4c-5.2,0.2-10.3,0.6-15.4,1.6
		l-0.4-2l0.4,2c-15.9,3-30.7,10.2-43,20.8c-2.4,2.1-4.7,4.1-6.7,6.4l0,0c-16.8,18.2-26,42.3-24.9,67.1l-1.7,0.1l1.7-0.1
		c0.8,17.8,6.7,35.3,17.2,49.6l-1.6,1.2l1.6-1.2c3.9,5.3,8.4,10.1,13.3,14.6c5.1,4.6,11,8.6,17.1,11.8c7.8,4.1,16,7.2,24.7,9
		c7,1.4,14.1,1.9,21.3,1.9c4.7-0.1,9.3-0.5,13.8-1.3c19.4-3.3,37.6-12.8,51-27.1c16.6-17.7,25.9-41.4,25-65.7
		c-0.8-24.6-11.6-47.9-29.6-64.7C155.5,27.7,131.7,18.9,108.6,19.4z"/>
	<path class="st4" d="M108.3,25.9c8.3-0.1,16.5,0.8,24.5,2.9c12.6,3.4,24.8,10.1,34.5,18.9c13.9,12.5,23.1,29.3,26.6,47.6
		c0.7,3.6,1.2,7.3,1.4,11c1.1,22.8-6.9,45.3-22.3,62.1c-10,11-23.5,19.5-37.9,23.6c-7.4,2.1-14.7,3.1-22.3,3.4
		c-22.2,0.5-44.3-7.1-60.7-22.4c-8.9-8.2-16.1-18.4-20.6-29.7c-3.9-9.5-5.9-19.6-6.2-29.9c-0.8-22.4,7.8-44.5,23-60.9
		c3.9-4.2,8.2-7.8,12.9-11c11.4-8,24.2-13.1,38.1-15C102.3,26.2,105.3,26,108.3,25.9z"/>
	<path class="st3" d="M105.7,27.2h0.3c22-1.4,44.2,6.9,60.6,21.5c12.5,11.2,21.1,25.9,25.1,42.1c1.2,4.8,2.1,9.9,2.4,14.8
		c1,19.6-4.5,38.7-16,54.6c-1.9,2.6-4,5.1-6.1,7.4c-9.4,10.5-22.5,18.6-36,22.7c-6.9,2.1-13.9,3.3-21.1,3.6h-0.5
		c-3.3,0.2-6.7,0.1-10-0.1c-18-1.2-35.8-8.3-49.4-20.2c-16.6-14.5-26.7-34.9-28.1-56.9C25.5,94.8,32.5,72.5,47.1,56
		C60.3,41,78.3,31,98,27.9C100.4,27.6,103.1,27.4,105.7,27.2z"/>
	<path class="st5" d="M64,43.2c9.2-6.3,19.7-10.7,30.6-13c4.4-0.9,8.9-1.6,13.4-1.6c-0.6,0.3-1.3,0.4-1.9,0.4l-2.8,0.5l-6,1.5
		l-6,1.9c-7.4,2.4-14.5,5.4-21.6,8.7L66.6,43c-0.5,0.2-0.9,0.4-1.3,0.7c-0.6-0.4-0.6-0.4-1.3-0.3V43.2z"/>
	<path class="st6" d="M179.5,67.5c1.4,1.9,2.4,4.2,3.6,6.3c2.5,4.7,4.3,9.6,5.8,14.7c3.2,11,4,22,2.4,33.3l-0.3,1.8c0-0.3,0-0.7,0-1
		L179.5,67.5z"/>
	<path class="st6" d="M174.1,150.6l15.9-22.1c-0.2,2.2-1,4.6-1.6,6.7c-0.8,2.6-1.7,5-2.8,7.5c-5,11.9-12.8,22.4-22.7,30.6l-4.7,3.6
		c-0.9,0.7-1.9,1.5-2.9,2l-21-7.6l32-17.9l0.4-1.8c0.5-0.9,1-1.5,1.9-2c1.4-0.8,2.8-0.5,4.2,0l0.1,0.2L174.1,150.6z"/>
	<path class="st7" d="M166.8,151.7c0.5-0.9,1-1.5,1.9-2c1.4-0.8,2.8-0.5,4.2,0l0.1,0.2l1,0.8c0.4,0.6,0.7,1.1,0.9,1.7v0.1
		c0.3,1.1,0.1,2.5-0.5,3.4c-0.2,0.3-0.5,0.6-0.7,0.9c-0.8,0.7-1.5,1.1-2.5,1.2c-1.2,0.1-2.3-0.1-3.2-0.9c-1.2-1-1.5-2.2-1.7-3.7
		L166.8,151.7z"/>
	<path class="st4" d="M173.3,156.5l-0.8,0.5c-0.8,0.5-1.9,0.6-2.8,0.3c-1-0.3-1.8-1-2.2-1.9s-0.6-2.2-0.2-3.2c0.4-0.9,1.1-1.7,2-2.1
		c1.2-0.5,2.4-0.2,3.5,0.2c1,0.8,1.6,1.7,1.7,3.1C174.5,154.7,174.1,155.6,173.3,156.5z"/>
	<path class="st8" d="M108,28.6c2.1-0.2,4.3,0,6.4,0.1c8.5,0.5,17.3,1.8,25.2,5.2l-25.7,15.4c-0.3-0.8-0.9-1.5-1.7-1.8
		c-1.2-0.6-2.3-0.6-3.6-0.2c-0.9,0.3-1.7,0.9-2.1,1.8l-41.1-5.4c0.4-0.3,0.9-0.5,1.3-0.7l3.1-1.4c7.1-3.3,14.2-6.3,21.6-8.7l6-1.9
		l5.9-1.5l2.8-0.5C106.7,29,107.4,29,108,28.6z"/>
	<path class="st8" d="M30.5,129.7l23.8,3.4c0.2,0.8,0,1.7,0.1,2.5c-1.3,0.7-2.1,1.3-2.5,2.8c-0.2,0.9-0.1,2.1,0.3,2.9
		c0.5,0.9,1.4,1.6,2.3,1.8c0.6,0.1,1.1,0.1,1.7,0.1h0.2c0.5-0.1,0.9-0.3,1.4-0.5c3.2,2.3,6.7,4.2,10,6.2l8.4,5l4.8,2.7
		c1.1,0.6,2.2,1.2,3.2,1.9l0.7,0.3l-0.4,0.4L65.4,179c-16.8-10.6-29.7-27.9-34.4-47.2L30.5,129.7z"/>
	<path class="st9" d="M55,153.8c1.9,0.2,3.8,0.6,5.7,0.9l16.9,2.8c2.2,0.3,4.4,0.9,6.6,1l0.7,0.3l-0.4,0.4c-3.4-0.2-6.7-1-10.1-1.5
		l-14-2.2c-1.7-0.3-3.9-0.4-5.5-1v-0.4L55,153.8z"/>
	<path class="st9" d="M30.5,129.7l23.8,3.4v1.6L31,131.8L30.5,129.7z"/>
	<path class="st7" d="M54.9,154c-0.1,0.7-0.4,1.4-0.8,2c-0.8,1.1-2,1.9-3.3,2.1c-1.4,0.2-2.8-0.2-3.8-1.1c-0.9-0.8-1.5-1.8-1.6-3
		c-0.1-1.3,0.1-2.6,1-3.7c0.8-1,2.1-1.7,3.4-1.8c1.4-0.1,2.7,0.4,3.7,1.3c1.1,1,1.3,2.4,1.4,3.8L54.9,154z"/>
	<path class="st4" d="M49.9,149.3c0.7,0,1.5,0.1,2.1,0.4c0.9,0.5,1.6,1.3,1.9,2.3c0.3,1,0.2,2.4-0.4,3.4c-0.7,1.2-1.7,1.7-3,2
		c-0.9,0-1.7-0.1-2.5-0.6c-1-0.6-1.6-1.6-1.9-2.7c-0.3-1.1,0-2.3,0.6-3.2C47.6,149.9,48.7,149.5,49.9,149.3z"/>
	<path class="st10" d="M42.2,65c0.7,1,1.1,2.5,1.6,3.7l1.9,4.1l0.5,0.7c0.3,1,0.7,1.8,1.3,2.7c0.2,1.1,0.9,2.2,1.3,3.2l3.4,7.5
		c0.5,1,1.1,2.5,2,3.2l0.1,0.1v0.5v4.7v2.3l0.1,35.5l-23.8-3.4l-1.2-5.8l-0.4-2.6c-2.2-19,2-39.5,12.9-55.4L42.2,65z"/>
	<path class="st9" d="M42.2,65c0.7,1,1.1,2.5,1.6,3.7l1.9,4.1l0.5,0.7c0.3,1,0.7,1.8,1.3,2.7c0.2,1.1,0.9,2.2,1.3,3.2l3.4,7.5
		c0.5,1,1.1,2.5,2,3.2l0.1,0.1v0.5c-0.1,0-0.2,0-0.3,0c-0.6-0.1-1.9-3.1-2.3-3.8l-6.1-12.8c-1.5-2.5-2.8-5.4-3.8-8.2L42.2,65z"/>
	<path class="st9" d="M28.8,121.2c0.7-0.4,1.2-1.1,1.8-1.6c2.7-2.5,5.2-5.3,7.7-8l7.8-8.1c1.2-1.2,7.1-7.9,8-8.2v2.3l-24.9,26.2
		L28.8,121.2z"/>
	<path class="st8" d="M29.3,123.9l24.9-26.2l0.1,35.5l-23.8-3.4L29.3,123.9z"/>
	<path class="st6" d="M135.5,158.1c-0.3,1.2-0.5,2.5-0.7,3.7c-0.4,2.8-0.8,5.6-1.4,8.4l11.6-6.5l13.2-7.3l5.4-3.1
		c1-0.6,2-1.4,3.1-1.5l-0.4,1.8l-32,17.9l21,7.6c-0.5,0.3-0.9,0.7-1.5,0.9c-3.8,2.4-8,4.4-12.2,6.1c-2.3,0.9-4.6,1.8-7,2.5
		c-8.2,2.5-16.7,3.5-25.2,3.6c-3.6,0-7.4-0.1-11-0.7l-3-0.6c-8.5-1.5-16.7-4.2-24.3-8.4c-2-1.1-4-2.1-5.8-3.4L84.5,159l0.4-0.4
		c0.4,0.2,0.7,0.4,1,0.6l1.4,0.8l5.4,3l9.4,5.2c1.3,0.8,3,1.4,4.2,2.3c0,0.4,0.1,0.7,0.2,1.1c0.3,1,0.9,1.9,1.9,2.3
		c0.9,0.4,2,0.4,2.9,0.1c0.8-0.3,1.5-0.9,2-1.7c0.3-0.5,0.4-1.1,0.5-1.6l20-11.8L135.5,158.1z"/>
	<path class="st11" d="M135.5,158.1c-0.3,1.2-0.5,2.5-0.7,3.7c-0.4,2.8-0.8,5.6-1.4,8.4l11.6-6.5l13.2-7.3l5.4-3.1
		c1-0.6,2-1.4,3.1-1.5l-0.4,1.8l-32,17.9l21,7.6c-0.5,0.3-0.9,0.7-1.5,0.9l-21.1-7.6c-1.2,0.5-2.4,1.3-3.5,2l-6.9,3.9l-23.4,13
		c-0.2,0.1-0.1,0.1-0.4,0.1l-3-0.6l-3.4-11l-3.8-11.7c-0.9-2.7-2-5.4-2.6-8.2c0-0.2,0-0.4,0.1-0.6l1.4,0.8c0.2,1.4,0.8,2.8,1.2,4.1
		l2.7,8l4.2,12.7l1.3,4c0.2,0.5,0.3,1.1,0.6,1.5l34.4-19.3l2.2-12L135.5,158.1z"/>
	<path class="st6" d="M84.8,158.7c0.4,0.2,0.7,0.4,1,0.6c-0.1,0.2-0.1,0.3-0.1,0.6c0.6,2.8,1.7,5.5,2.6,8.2l3.8,11.7l3.4,11
		c-8.5-1.5-16.7-4.2-24.3-8.4c-2-1.1-4-2.1-5.8-3.4l19.1-20L84.8,158.7z"/>
	<path class="st6" d="M98.5,191.3c0.2,0,0.2,0,0.4-0.1l23.4-13l6.9-3.9c1.1-0.7,2.3-1.5,3.5-2l21.1,7.6c-3.8,2.4-8,4.4-12.2,6.1
		c-2.3,0.9-4.6,1.8-7,2.5c-8.2,2.5-16.7,3.5-25.2,3.6C105.9,192.1,102.1,192,98.5,191.3z"/>
	<path class="st3" d="M139.6,33.9l2.1,0.8l0.6,0.3c0.3,0.2,0.7,0.3,1,0.5c1.4,0.4,2.7,1.2,4,1.9c3.9,2,7.5,4.4,11,7
		c6.1,4.6,11.7,9.9,16.4,16c0.9,1.1,2,2.3,2.8,3.6l0.1,0.1l2.1,3.5l11.5,55.1c0.1,0.3,0,0.7,0,1l-0.3,1.8l-0.7,3.1l-15.9,22.1
		l-1-0.8l-0.1-0.2c-1.5-0.5-2.8-0.7-4.2,0c-0.9,0.5-1.4,1.2-1.9,2c-1.1,0.2-2.2,1-3.1,1.5l-5.4,3.1l-13.2,7.3l-11.6,6.5
		c0.6-2.7,0.9-5.6,1.4-8.4c0.2-1.2,0.3-2.5,0.7-3.7l-1.6,1l-20,11.8c-0.1,0.5-0.2,1.1-0.5,1.6c-0.5,0.8-1.2,1.4-2,1.7
		c-0.9,0.3-2.1,0.3-2.9-0.1c-1-0.5-1.6-1.3-1.9-2.3c-0.1-0.3-0.1-0.7-0.2-1.1c-1.2-0.9-2.9-1.5-4.2-2.3l-9.4-5.2l-5.4-3l-1.4-0.8
		c-0.3-0.3-0.7-0.4-1-0.6l-0.7-0.3c-1-0.7-2.1-1.3-3.2-1.9l-4.8-2.7l-8.4-5c-3.4-2-6.9-3.9-10-6.2c-0.5,0.2-0.9,0.4-1.4,0.5h-0.2
		c-0.6,0.1-1.1,0-1.7-0.1c-1-0.2-1.9-0.9-2.3-1.8c-0.4-0.8-0.6-2-0.3-2.9c0.4-1.5,1.3-2.1,2.5-2.8c-0.1-0.8,0.1-1.7-0.1-2.5
		l-0.1-35.5v-2.3v-4.7V90l-0.1-0.1c-0.8-0.7-1.4-2.3-2-3.2l-3.4-7.5c-0.4-1-1.1-2.1-1.3-3.2c-0.6-0.9-1-1.7-1.3-2.7l-0.5-0.7
		l-1.9-4.1c-0.5-1.2-0.8-2.7-1.6-3.7c6-8.6,13.1-15.8,21.8-21.7v0.2c0.7-0.1,0.7-0.1,1.3,0.3l41.1,5.4c0.4-0.9,1.2-1.5,2.1-1.8
		c1.2-0.5,2.4-0.4,3.6,0.2c0.7,0.4,1.4,1.1,1.7,1.8L139.6,33.9z"/>
	<path class="st7" d="M161.8,80.4l0.3,0.1c-0.4,1-0.6,2.3-0.1,3.3c0.3,0.5,0.6,0.9,1,1.3v0.2l-0.2-0.2c-0.3-0.2-0.3-0.1-0.7,0
		c-0.7-0.8-1-1.8-1-2.8v-0.4c0-0.4-0.6-0.6-0.9-0.8l0.2-0.1l0.1,0.1l0.3,0.2c0.4,0.3,0.4,0.4,0.5,0.8c0.2-0.2,0.2-0.3,0.2-0.6
		c-0.2-0.3-0.3-0.4-0.6-0.5c-0.2-0.1-0.2-0.2-0.2-0.3l0.7,0.3L161.8,80.4z"/>
	<path class="st4" d="M55,136.2c0.7,0,1.5,0,2.1,0.4c0.7,0.4,1.2,1,1.5,1.8c0.2,0.7,0.2,1.8-0.2,2.4c-0.5,0.9-1.3,1.4-2.3,1.7
		c-0.7,0-1.3,0.1-2-0.2c-0.8-0.3-1.4-1-1.7-1.8s-0.2-1.8,0.2-2.5C53.2,136.9,54,136.5,55,136.2z"/>
	<path class="st4" d="M162.1,80.5c0.5-0.7,1.3-1.2,2.1-1.4c1-0.2,1.9,0,2.7,0.6c0.8,0.5,1.3,1.5,1.4,2.4c0.1,0.8-0.2,1.7-0.7,2.3
		c-0.6,0.7-1.6,1.1-2.5,1.2c-0.7,0-1.4-0.2-2-0.5c-0.4-0.4-0.8-0.8-1-1.3C161.5,82.7,161.8,81.5,162.1,80.5z"/>
	<path class="st4" d="M109.5,47.8c0.6,0,1.2,0,1.8,0.2c0.9,0.4,1.6,0.9,2,1.9c0.4,0.9,0.2,2-0.2,2.8c-0.5,1-1.4,1.4-2.4,1.8
		c-0.7,0-1.2,0-1.8-0.2c-0.8-0.3-1.5-1-1.8-1.8s-0.4-1.9,0-2.7C107.5,48.7,108.4,48.2,109.5,47.8z"/>
	<path class="st4" d="M56,77.7l1.2,0.3c0.4,0.3,0.8,0.5,1.1,0.8L58,78.9c0,0.1,0.1,0.2,0.2,0.4l-0.1,0.2c0.3,0.5,0.6,1,0.8,1.5
		c0.3,1,0.2,1.9-0.4,2.8c-0.5,0.7-1.2,1.2-2.1,1.4c-0.9,0.2-1.9,0-2.6-0.5c-0.9-0.6-1.4-1.5-1.5-2.5c-0.1-0.8,0.1-1.7,0.6-2.3
		c0.7-1,1.7-1.3,2.9-1.4H56C56,78.2,56,77.9,56,77.7z"/>
	<path class="st7" d="M56,77.7l1.2,0.3c0.4,0.3,0.8,0.5,1.1,0.8L58,78.9c0,0.1,0.1,0.2,0.2,0.4l-0.1,0.2c-0.7-0.6-1.3-0.8-2.1-1
		C56,78.2,56,77.9,56,77.7z"/>
	<path class="st4" d="M164.2,124.4V86.3c0.5,0,1.1-0.1,1.5,0.2l-0.1,49.5l-1.4,0.1V124.4z"/>
	<path class="st4" d="M106,51.8L106,51.8c0.4,0.2,0.6,0.9,0.7,1.2c-0.8,0.6-1.8,1.1-2.6,1.6l-5.3,3.1L86.2,65L68.3,75.5l-8.8,5.1
		l-0.7-1.2c0.7-0.7,2.1-1.3,3-1.8l5.8-3.4L91,60.5L106,51.8z"/>
	<path class="st4" d="M160.7,80.5c-0.3-0.5-1.7-1.1-2.3-1.5l-10.8-6.4l-33.8-19.8c0.2-0.5,0.3-1,0.4-1.5l27.1,15.9l15.6,9.2l3.9,2.3
		c0.4,0.3,1.2,0.7,1.4,1.2l-0.4,0.6l-0.4,0.4L160.7,80.5z"/>
	<path class="st4" d="M54.9,87.3v-1.1c0.4-0.3,0.9-0.2,1.4-0.2c0.4,0.6,0.1,31.9,0.1,35.2l0.1,14.1l-0.2,0.2H55h-0.8
		c-0.1-0.8,0.1-1.7-0.1-2.5L54,97.5v-2.3v-4.7V90h0.3C55.1,89.9,54.6,87.9,54.9,87.3z"/>
	<path class="st7" d="M54.2,90.2h0.3c0.5-0.2,0.1-2.2,0.4-2.8v38.2v7.7c0,0.5-0.2,2,0.1,2.4h-0.8c-0.1-0.8,0.1-1.7-0.1-2.5L54,97.7
		v-2.3v-4.7L54.2,90.2z"/>
	<path class="st4" d="M58.5,141.8l0.7-0.8c2.2,1,4.4,2.6,6.5,3.9l14.7,8.8l20.9,11.6l3.5,2c0.8,0.4,1.6,0.8,2.2,1.4
		c0,0.4-0.1,0.6-0.2,0.9h0.4c-0.2,0.7-0.2,1.3-0.2,2.1l-0.2,0.2c0.2,0.3,0.3,0.4,0.4,0.8c-0.6-0.6-0.6-1.3-0.6-2.1l-0.1,1.1
		c-0.1-0.3-0.1-0.7-0.2-1.1c-1.2-0.9-2.9-1.5-4.2-2.3l-9.4-5.2l-5.4-3l-1.4-0.8c-0.3-0.3-0.7-0.4-1-0.6l-0.7-0.3
		c-1-0.7-2.2-1.3-3.2-1.9l-4.8-2.7l-8.4-5c-3.4-2-6.9-3.9-10-6.2c-0.5,0.2-0.9,0.4-1.4,0.5h-0.2c-0.2-0.1-0.1,0-0.3-0.2l0.7-0.1
		l0.2-0.1l0.3-0.1c0.2-0.1,0.3-0.2,0.5-0.2C58,142.3,58.2,142.2,58.5,141.8l0-0.2L58.5,141.8z"/>
	<path class="st7" d="M56.1,143.1c-0.2-0.1-0.1,0-0.3-0.2l0.7-0.1l0.2-0.1l0.3-0.1c0.2-0.1,0.3-0.2,0.5-0.2c0.4-0.1,0.6-0.2,0.8-0.6
		l0.1-0.2l0.1,0.2v0.4c1,0.9,2.2,1.5,3.4,2.2l5.7,3.4L93,162.3l8.3,4.7c1.7,1,3.5,2.1,5.3,2.9c0.1-0.1,0.2-0.2,0.3-0.3h0.4
		c-0.2,0.7-0.2,1.3-0.2,2.1l-0.2,0.2c0.2,0.3,0.3,0.4,0.4,0.8c-0.6-0.6-0.6-1.3-0.6-2.1l-0.1,1.1c-0.1-0.3-0.1-0.7-0.2-1.1
		c-1.2-0.9-2.9-1.5-4.2-2.3l-9.4-5.2l-5.4-3l-1.4-0.8c-0.3-0.3-0.7-0.4-1-0.6l-0.7-0.3c-1-0.7-2.2-1.3-3.2-1.9l-4.8-2.7l-8.4-5
		c-3.4-2-6.9-3.9-10-6.2c-0.5,0.2-0.9,0.4-1.4,0.5L56.1,143.1z"/>
	<path class="st4" d="M112.8,169c0.5-0.7,2.2-1.4,2.9-1.9l7.6-4.5l26.8-15.6c3.8-2.2,7.8-4.2,11.5-6.7c0.1-1.2,0.3-2.2,1.2-3.1
		c0.9-0.8,1.8-0.9,2.9-0.9c1.1,0.4,1.9,0.8,2.4,1.9c0.4,0.8,0.4,1.7,0.1,2.5c-0.3,0.8-1,1.5-1.7,1.8c-0.9,0.4-1.9,0.4-2.8,0
		c-0.3-0.1-0.5-0.3-0.8-0.3v0.2c0.5,0.3,0.8,0.5,1.3,0.6h0.2h0.2h0.2c0.8,0.1,1.5-0.2,2.2-0.4h0.1L167,143h-0.2l-0.2,0.1l-0.2,0.1
		c-0.2,0.1-0.2,0-0.3,0.2H166c-0.5,0.1,0.2,0-0.4,0.1c-0.3,0.1-0.7,0-0.9-0.2h-0.1c-0.5,0-0.7-0.1-1.1-0.3l-0.2-0.1
		c-0.2-0.1-0.3-0.2-0.4-0.3l-0.3-0.2l-0.1,0.1c-1,0.9-2.3,1.5-3.4,2.1l-7,4l-10.1,5.8l-6.1,3.5l-1.6,1l-20,11.8
		c-0.1,0.5-0.2,1.1-0.5,1.6c-0.5,0.8-1.2,1.4-2,1.7c-0.9,0.3-2.1,0.3-2.9-0.1c-1-0.5-1.6-1.3-1.9-2.3l0.1-1.1c0,0.7,0,1.5,0.6,2.1
		c-0.1-0.4-0.1-0.5-0.4-0.8l0.2-0.2c0-0.7,0-1.4,0.2-2.1c0.5-1,1-1.4,1.9-2c1-0.1,1.8-0.2,2.7,0.5
		C112.2,168.4,112.4,168.7,112.8,169L112.8,169z"/>
	
		<linearGradient id="SVGID_00000168826975220986329960000010446808962141972877_" gradientUnits="userSpaceOnUse" x1="138.1225" y1="398.5076" x2="135.3035" y2="393.5346" gradientTransform="matrix(1 0 0 1 0 -239.2676)">
		<stop  offset="0" style="stop-color:#000729"/>
		<stop  offset="1" style="stop-color:#103D6B"/>
	</linearGradient>
	<path style="fill:url(#SVGID_00000168826975220986329960000010446808962141972877_);" d="M112.8,169c0.2,0.4,0.4,0.8,0.6,1.2
		l28.3-16.6l12.5-7.2c2.7-1.6,5.5-3,7.9-5l0.7,0.9v0.2c0.5,0.3,0.8,0.5,1.3,0.6h0.2h0.2h0.2c0.8,0.1,1.5-0.2,2.2-0.4h0.1l0,0.3h-0.2
		l-0.2,0.1l-0.2,0.1c-0.2,0.1-0.2,0-0.3,0.2H166c-0.5,0.1,0.2,0-0.4,0.1c-0.3,0.1-0.7,0-0.9-0.2h-0.1c-0.5,0-0.7-0.1-1.1-0.3
		l-0.2-0.1c-0.2-0.1-0.3-0.2-0.4-0.3l-0.3-0.2l-0.1,0.1c-1,0.9-2.3,1.5-3.4,2.1l-7,4l-10.1,5.8l-6.1,3.5l-1.6,1l-20,11.8
		c-0.1,0.5-0.2,1.1-0.5,1.6c-0.5,0.8-1.2,1.4-2,1.7c-0.9,0.3-2.1,0.3-2.9-0.1c-1-0.5-1.6-1.3-1.9-2.3l0.1-1.1c0,0.7,0,1.5,0.6,2.1
		c-0.1-0.4-0.1-0.5-0.4-0.8l0.2-0.2c0-0.7,0-1.4,0.2-2.1c0.5-1,1-1.4,1.9-2c1-0.1,1.8-0.2,2.7,0.5
		C112.2,168.4,112.4,168.7,112.8,169L112.8,169z"/>
	<path class="st4" d="M109.2,167.6c1-0.1,1.8-0.2,2.7,0.5c0.3,0.3,0.6,0.6,0.9,0.9h0.1c0.3,0.8,0.4,1.4,0.4,2.3
		c-0.4,1-0.8,1.7-1.9,2.2c-0.9,0.4-1.8,0.4-2.7,0c-0.9-0.4-1-1.2-1.6-1.8c0-0.7,0-1.4,0.2-2.1C107.7,168.6,108.2,168.2,109.2,167.6z
		"/>
	<path class="st10" d="M57.2,133.4l11.7,1.8l0.2,0.3c0.4,0.3,0.7,0.6,1.1,0.8c0.3,0.2,0.5,0.4,0.8,0.5l6.8,4c0,0.2,0,0.4,0.1,0.6
		c0.4,1.4,1.4,2.8,2,4.1c1.6,3.2,3,6.6,4.7,9.7c-1.8-0.8-3.5-2-5.2-3l-11.3-6.7l-6.8-4.1c-0.4-0.3-1.5-0.8-1.8-1.2
		c-0.1-0.1-0.1-1.7-0.2-2.1c-0.2-0.8-0.7-1.6-1.5-2l-0.7-0.4V135L57.2,133.4z"/>
	<path class="st9" d="M57.2,133.4l11.7,1.8l0.2,0.3c0.4,0.3,0.7,0.6,1.1,0.8c0.3,0.2,0.5,0.4,0.8,0.5c-0.9,0.1-1.9-0.1-2.8-0.2
		l-4.5-0.7l-6.6-0.9L57.2,133.4z"/>
	<path class="st8" d="M70.4,75.2l1-0.6l1.4,8.6L72,83.8c-1.3,0.8-2.7,1.6-3.6,2.9l-0.1,0.2C67.9,87.5,68,89,68,89.7v7.6v1.2v6.1
		c0,0.6,0,1.3-0.1,1.9v0.2c0,0.5,0,0.9-0.1,1.4c-0.4-0.5-0.6-1-0.8-1.6l-1.4-3.2l-3.3-7.5L57.2,96c0-0.5-0.2-1.7,0-2.1l0.1-0.1
		c-0.3-0.5-0.1-1.8-0.1-2.5v-4.1c0-0.2-0.1-1,0-1.2c0.2-0.4,1.2-0.9,1.6-1.3c0.8-0.9,1.1-2,1-3.2v-0.2l8-4.5L69,76
		C69.4,75.7,69.9,75.4,70.4,75.2z"/>
	<path class="st9" d="M70.4,75.2l1-0.6l1.4,8.6L72,83.8L70.4,75.2z"/>
	<path class="st9" d="M69,76c-0.1,2.6-1.2,5.5-2,8l-2.3,7.4L63.8,94c-0.1,0.4-0.4,0.7-0.3,1.1l0.7,0.3l4,1.8v1.2v6.1
		c0,0.6,0,1.3-0.1,1.9v0.2c0,0.5,0,0.9-0.1,1.4c-0.4-0.5-0.6-1-0.8-1.6l-1.4-3.2l-3.3-7.5L57.2,96c0-0.5-0.2-1.7,0-2.1l0.1-0.1
		c-0.3-0.5-0.1-1.8-0.1-2.5l5.3,3.1l5.3-17.6L69,76z"/>
	<path class="st8" d="M63.6,96.3c1.5,0.5,3,1.6,4.4,2.4v6.1c0,0.6,0,1.3-0.1,1.9L63.6,96.3z"/>
	<path class="st8" d="M57.2,91.3v-4.1c0-0.2-0.1-1,0-1.2c0.2-0.4,1.2-0.9,1.6-1.3c0.8-0.9,1.1-2,1-3.2v-0.2l8-4.5l-5.3,17.6
		L57.2,91.3z"/>
	<path class="st8" d="M71.4,74.6l35.4-20.7l0.1-0.1c1.1,1.1,1.9,1.3,3.3,1.5c-0.8,0.3-4,6.1-4.5,7.2c-0.1,0.2-0.1,0.4-0.2,0.6
		l-32.8,20L71.4,74.6z"/>
	<path class="st8" d="M57.2,96l5.2-0.2l3.3,7.5l1.4,3.2c0.2,0.5,0.4,1.1,0.8,1.6c0.1-0.5,0.1-0.9,0.1-1.4c0.2,1.1,0.1,2.2,0.1,3.3
		v23.7c0,0.4,0.6,1.1,0.8,1.5l-11.7-1.8L57.2,96z"/>
	<path class="st6" d="M150.1,119.9l13.5,1.9v1.4v5.5c0,0.9-0.1,1.9,0.1,2.8v0.1v1.5v2.7l-0.2,0.1c-1.3,0.9-2.1,1.9-2.4,3.4L161,140
		l-24.8,14.2l-1.4,0.9c0-0.9,0.3-1.8,0.4-2.7l1-5.9l0.8-4c0.4-0.4,1-0.7,1.4-1l3-1.7c1.7-1.2,3.7-2.5,5.6-3.4
		c0.7-0.5,1.5-0.9,2.2-1.3l0.2-0.1c0.2-0.2,0.7-0.7,0.8-0.9c0.2-0.8,0-2.2,0-3v-9.7L150.1,119.9z"/>
	<path class="st11" d="M138.4,141.4c-0.1,1.3-0.4,2.6-0.6,3.9l-1.1,6c-0.2,0.9-0.4,1.8-0.5,2.8l-1.4,0.9c0-0.9,0.3-1.8,0.4-2.7
		l1-5.9l0.8-4C137.4,142,137.9,141.7,138.4,141.4z"/>
	<path class="st11" d="M146.9,136.3c0.9,0.1,2.3-0.6,3.2-0.9l7.9-2.3c1.9-0.5,3.7-1.2,5.6-1.6v1.5c-2.8,0.5-5.6,1.5-8.3,2.3
		l-8.8,2.7c-1.8,0.5-3.5,1.3-5.3,1.6C143.1,138.5,145,137.2,146.9,136.3z"/>
	<path class="st6" d="M150.1,119.9l13.5,1.9v1.4v5.5c0,0.9-0.1,1.9,0.1,2.8v0.1c-1.9,0.4-3.8,1.1-5.6,1.6l-7.9,2.3
		c-0.9,0.3-2.3,1-3.2,0.9c0.7-0.5,1.5-0.9,2.2-1.3l0.2-0.1c0.2-0.2,0.7-0.7,0.8-0.9c0.2-0.8,0-2.2,0-3v-9.7L150.1,119.9z"/>
	<path class="st5" d="M150.1,119.9l13.5,1.9v1.4l-13.5-1.9V119.9z"/>
	<path class="st10" d="M139.6,33.9l2.1,0.8l0.6,0.3l0.1,1.9L141,54.2l-0.6,8.2c-0.1,0.9,0.1,2.2-0.2,3l-1.5-1l-23.9-14
		c-0.5-0.3-0.6-0.6-0.8-1.1L139.6,33.9z"/>
	<path class="st9" d="M139.6,33.9l2.1,0.8l0.6,0.3l0.1,1.9L141,54.2l-0.6,8.2c-0.1,0.9,0.1,2.2-0.2,3l-1.5-1l2.8-29.5l-26.7,15.5
		c-0.5-0.3-0.6-0.6-0.8-1.1L139.6,33.9z"/>
	<path class="st6" d="M138.5,68.1c0.5,0.3,1.1,0.5,1.5,0.8L160.3,81c0.3,0.2,0.8,0.4,0.9,0.8v0.4c0,1,0.3,2,1,2.8l0.1,0.1
		c0.4,0.4,0.7,0.7,1.2,0.9c0.2,0.7,0.1,1.8,0.1,2.6v5.6l0.1,17.9l-0.1,9.7l-13.5-1.9l0.1-34.5l-7.1-4.3c-1.1-0.6-2.5-1.2-3.4-2
		l-0.1-0.1l-1.8-1L138.5,68.1z"/>
	<path class="st9" d="M138.5,68.1c0.5,0.3,1.1,0.5,1.5,0.8L139.5,79l-1.8-1L138.5,68.1z"/>
	<path class="st6" d="M166.5,122.2l21.2,2.7l1.2,1.5l0.4,0.2c-1.4,2.4-3.1,4.7-4.7,7l-8.1,11.3l-2.2,3.1c-0.4,0.6-1,1.1-1.3,1.8
		c-1.5-0.5-2.8-0.7-4.2,0c-0.9,0.5-1.4,1.2-1.9,2c-1.1,0.2-2.1,1-3.1,1.5l-5.4,3.1l-13.2,7.3l-11.6,6.5c0.6-2.7,0.9-5.6,1.4-8.4
		c0.2-1.2,0.3-2.5,0.7-3.7l6.2-3.5l10.1-5.8l7-4c1.1-0.7,2.4-1.3,3.4-2.1l0.1-0.1l0.3,0.2c0.2,0.1,0.2,0.2,0.4,0.3l0.2,0.1
		c0.4,0.2,0.7,0.4,1.1,0.3h0.1c0.3,0.2,0.6,0.2,0.9,0.2c0.7-0.1-0.1-0.1,0.4-0.1h0.1c0.2-0.1,0.1-0.1,0.3-0.2l0.2-0.1l0.2-0.1h0.2
		l0.1-0.2h-0.1c-0.7,0.3-1.5,0.6-2.2,0.4h-0.2h-0.2h-0.2c-0.5-0.1-0.9-0.3-1.3-0.6v-0.2c0.3,0.1,0.5,0.2,0.8,0.3
		c0.9,0.4,1.9,0.4,2.8,0c0.8-0.3,1.4-1,1.7-1.8s0.3-1.7-0.1-2.5c-0.5-1.1-1.3-1.6-2.4-1.9l-0.1-0.5h0.8l0.1-12.4L166.5,122.2z"/>
	<path class="st7" d="M165.6,135.9h0.8c1.1,0.5,1.9,1.2,2.4,2.3c0.4,1,0.4,2,0,3s-1.3,1.9-2.3,2.2c-1,0.4-2.5,0.3-3.4-0.2
		c-0.4-0.2-0.7-0.4-1-0.7l0.1-0.1l0.3,0.2c0.2,0.1,0.2,0.2,0.4,0.3l0.2,0.1c0.4,0.2,0.7,0.4,1.1,0.3h0.1c0.3,0.2,0.6,0.2,0.9,0.2
		c0.7-0.1-0.1-0.1,0.4-0.1h0.1c0.2-0.1,0.1-0.1,0.3-0.2l0.2-0.1l0.2-0.1h0.2l0.1-0.2h-0.1c-0.7,0.3-1.5,0.6-2.2,0.4h-0.2H164h-0.2
		c-0.5-0.1-0.9-0.3-1.3-0.6v-0.2c0.3,0.1,0.5,0.2,0.8,0.3c0.9,0.4,1.9,0.4,2.8,0c0.8-0.3,1.4-1,1.7-1.8s0.3-1.7-0.1-2.5
		c-0.5-1.1-1.3-1.6-2.4-1.9L165.6,135.9z"/>
	<path class="st11" d="M166.5,122.2l21.2,2.7l1.2,1.5l-22.4-2.8V122.2z"/>
	<path class="st8" d="M42.2,65c6-8.6,13.1-15.8,21.8-21.7v0.2c0.7-0.1,0.7-0.1,1.3,0.3l41.1,5.4l-0.4,1.4c-0.1,0.2-0.1,0.2-0.2,0.3
		c-0.4,0.4-1.3,0.7-1.8,1l-7.2,4.2L71.2,71l-0.8,0.6c-1.1,0.8-2.3,1.4-3.4,2l-5,3c-1.1,0.6-2.8,1.3-3.6,2.3
		c-0.3-0.3-0.8-0.6-1.1-0.8L56,77.7c0,0.2-0.1,0.5,0,0.7h-0.2c0-0.3,0-0.4-0.1-0.7c-1-0.1-2.1,0.4-2.8,1.1c-0.8,0.8-1.4,1.8-1.4,3
		c0,1.1,0.6,2.3,1.3,3.1c0.3,0.3,0.5,0.4,0.8,0.7l0.5,0.3v4.2c-0.8-0.7-1.4-2.3-2-3.2l-3.4-7.5c-0.4-1-1.1-2.1-1.3-3.2
		c-0.6-0.9-1-1.7-1.3-2.7l-0.5-0.7l-1.9-4.1C43.2,67.5,42.9,66,42.2,65z"/>
	<path class="st9" d="M64.1,43.5c0.7-0.1,0.7-0.1,1.3,0.3l41.1,5.4l-0.4,1.4L65.6,45l5.6,26l-0.8,0.6l-5.5-25.8l-1,4.6l-5,20.5
		c-0.6,2.3-1.3,4.7-1.5,7.1L56,77.7c-0.1-0.6,0.1-1.5,0.3-2.1l1.2-5.3l4.9-20L64.1,43.5z"/>
	<path class="st8" d="M63.8,50.4l1-4.6l5.5,25.8c-1.1,0.8-2.3,1.4-3.4,2l-5,3c-1.1,0.6-2.8,1.3-3.6,2.3c-0.3-0.3-0.8-0.6-1.1-0.8
		c0.3-2.4,0.9-4.8,1.5-7.1L63.8,50.4z"/>
	<path class="st10" d="M42.2,65c6-8.6,13.1-15.8,21.8-21.7v0.2l-1.7,6.9l-4.9,20l-1.2,5.3c-0.1,0.6-0.3,1.5-0.3,2.1
		c0,0.2-0.1,0.5,0,0.7h-0.2c0-0.3,0-0.4-0.1-0.7c-1-0.1-2.1,0.4-2.8,1.1c-0.8,0.8-1.4,1.8-1.4,3c0,1.1,0.6,2.3,1.3,3.1
		c0.3,0.3,0.5,0.4,0.8,0.7L54,86v4.2c-0.8-0.7-1.4-2.3-2-3.2l-3.4-7.5c-0.4-1-1.1-2.1-1.3-3.2c-0.6-0.9-1-1.7-1.3-2.7l-0.5-0.7
		l-1.9-4.1C43.2,67.5,42.9,66,42.2,65z"/>
	<path class="st7" d="M46.1,73.5c0-0.7-0.1-1.4,0.1-2.1v-0.2c0.3-1.2,1.1-2.2,2.2-2.8c1.2-0.6,2.4-0.8,3.7-0.4
		c1.2,0.4,2.4,1.3,3,2.5c0.5,1.1,0.7,2.5,0.2,3.7c-0.4,1.2-1.4,2.3-2.5,2.8c-1,0.5-2.5,0.6-3.6,0.2L49,77c-0.6-0.2-1.1-0.5-1.6-0.9
		C46.8,75.3,46.5,74.5,46.1,73.5z"/>
	<path class="st4" d="M50.4,68.5c0.9,0.1,1.6,0.1,2.4,0.6c1,0.6,1.7,1.5,1.9,2.6c0.2,1,0,2.1-0.5,2.9c-0.8,1.1-1.7,1.6-3,1.8
		c-0.8,0-1.7-0.1-2.4-0.5c-1-0.6-1.6-1.6-1.9-2.6c-0.2-1,0-2.2,0.6-3.1C48.1,69.2,49.2,68.7,50.4,68.5z"/>
	<path class="st6" d="M142.2,35c0.3,0.2,0.7,0.3,1,0.5c1.4,0.4,2.7,1.2,4,1.9c3.9,2,7.5,4.4,11,7c6.1,4.6,11.7,9.9,16.4,16
		c0.9,1.1,2,2.3,2.8,3.6l0.1,0.1l2.1,3.5l11.5,55.1c0.1,0.3,0,0.7,0,1l-0.3,1.8l-0.7,3.1l-15.9,22.1l-1-0.8l-0.1-0.2
		c0.3-0.6,0.9-1.2,1.3-1.8l2.2-3.1l8.1-11.3c1.6-2.3,3.3-4.5,4.7-7l-0.4-0.2l-1.2-1.5l-21.2-2.7V93l-0.1-2.4c0-1.1,0.1-2.4-0.1-3.6
		v-0.9l0.3-0.2c0.9-0.5,1.7-1.2,2.1-2.2c0.4-1,0.4-2.1-0.1-3.1c-0.5-1.1-1.4-1.9-2.6-2.3c-1.1-0.4-2.2-0.1-3.2,0.4l-0.2,0.1l-1.5-1
		l-1.9-1.3l-19.2-11.3c0.3-0.9,0.1-2.1,0.2-3l0.6-8.2l1.4-17.3L142.2,35z"/>
	<path class="st7" d="M170.6,67.8c0.8,0,1.5,0,2.2,0.2c1.1,0.4,2,1.3,2.5,2.4c0.4,1,0.3,2.4-0.2,3.3c-0.6,1.2-1.8,1.9-3,2.3
		c-0.9,0.1-1.8,0.1-2.7-0.3c-1-0.5-1.8-1.5-2.2-2.5c-0.3-1-0.1-2.5,0.4-3.4C168.3,68.7,169.4,68.2,170.6,67.8z"/>
	<path class="st4" d="M170.5,68.5c0.7-0.1,1.4-0.1,2.1,0.2c0.9,0.4,1.6,1.1,1.9,2c0.3,0.9,0.4,2-0.1,2.9c-0.5,1-1.4,1.5-2.3,1.8
		c-0.9,0.1-1.6,0.2-2.4-0.2c-0.9-0.4-1.5-1.2-1.8-2.1s-0.2-2.1,0.3-2.9C168.7,69.2,169.5,68.8,170.5,68.5z"/>
	<path class="st5" d="M166.4,90.6c2.3,3,4.2,6.6,6.2,9.8l10.5,15.1c2.1,2.9,4.1,6.3,6.6,8.9c0.2,0.3,0.4,0.6,0.6,0.9
		c-0.1,0.4-0.4,0.8-0.8,1c-0.1,0.1-0.2,0.1-0.3,0.2l-0.4-0.2l-1.2-1.5c-0.5-1.3-1.8-2.7-2.6-3.9l-8.8-12.4l-6.6-10.2
		c-1.1-1.7-2-3.8-3.3-5.3L166.4,90.6z"/>
	<path class="st5" d="M142.2,35c0.3,0.2,0.7,0.3,1,0.5l18.1,42.4l-0.1,0.2l-1.9-1.3c-0.4-1.4-1-2.7-1.6-3.9l-3.4-7.9L145,43.4
		l-1.6-4c-0.3-0.8-0.4-1.9-1-2.4L142.2,35z"/>
	<path class="st11" d="M189.8,124.5c0.1-1.2-0.5-3.1-0.8-4.3l-1.1-5.5l-8.7-41.5l-1.4-6.3c-0.2-0.9-0.6-1.9-0.5-2.8l2.1,3.5
		l11.5,55.1c0.1,0.3,0,0.7,0,1l-0.3,1.8l-0.7,3.1L174,150.7l-1-0.8l-0.1-0.2c0.3-0.6,0.9-1.2,1.3-1.8l2.2-3.1l8.1-11.3
		c1.6-2.3,3.3-4.5,4.7-7c0.1,0,0.2-0.1,0.3-0.2c0.4-0.2,0.7-0.6,0.8-1C190.2,125.1,190,124.8,189.8,124.5z"/>
	<path class="st6" d="M142.3,36.9c0.6,0.5,0.7,1.6,1,2.4l1.6,4l9.3,21.6l3.4,7.9c0.6,1.3,1.2,2.6,1.6,3.9L140,65.4
		c0.3-0.9,0.1-2.1,0.2-3l0.6-8.2L142.3,36.9z"/>
	<path class="st6" d="M166.5,93.1c1.3,1.6,2.2,3.6,3.3,5.3l6.6,10.2l8.8,12.4c0.8,1.2,2.1,2.6,2.6,3.9l-21.2-2.7L166.5,93.1z"/>
	<path class="st0" d="M110.3,55.3h0.2c1.4-0.3,2.2-0.8,3.1-1.8l24.9,14.6l-0.8,9.9l1.8,1l0.1,0.1c0.9,0.8,2.3,1.3,3.4,2l7.1,4.3
		l-0.1,34.5v1.4v9.7c0,0.9,0.2,2.2,0,3c-0.1,0.2-0.6,0.7-0.8,0.9L149,135c-0.7,0.4-1.6,0.8-2.2,1.3c-1.9,0.9-3.9,2.2-5.6,3.4l-3,1.7
		c-0.5,0.3-1,0.6-1.4,1l-0.8,4l-1,5.9c-0.1,0.9-0.4,1.8-0.4,2.7l-22.1,13l-0.1-0.1c-1.1-0.8-1.9-0.9-3.2-0.9
		c-0.7,0.2-1.1,0.4-1.7,0.8l-0.2,0.1l-20.1-11.1l-1.1-0.5l-0.2-0.2l-1.5-0.9c-1.7-3.1-3.2-6.5-4.7-9.7c-0.6-1.3-1.6-2.8-2-4.1
		c-0.1-0.2-0.1-0.4-0.1-0.6l-6.8-4c-0.3-0.1-0.5-0.3-0.8-0.5c-0.4-0.2-0.8-0.5-1.1-0.8l-0.2-0.3c-0.2-0.4-0.8-1-0.8-1.5V110
		c0-1.1,0-2.2-0.1-3.3v-0.2c0.2-0.6,0.1-1.3,0.1-1.9v-6.1v-1.2v-7.6c0-0.7-0.2-2.3,0.1-2.9l0.1-0.2c0.9-1.3,2.3-2.1,3.6-2.9l0.8-0.6
		l32.8-20c0-0.3,0-0.4,0.2-0.6C106.2,61.4,109.5,55.6,110.3,55.3z"/>
	<path class="st13" d="M69.2,133.4c0.5,0.7,1.1,1.1,1.8,1.5l10.4-6.2l18.4,11.1l5.8,3.6c0.8,0.5,1.8,1,2.5,1.7l-0.2,0.1l-26.3-16
		L71.5,135l-0.1,0.1c-0.5,0-0.9,0-1.2,0.4c-0.1,0.1-0.2,0.2-0.2,0.3c0.1,0.2,0.2,0.3,0.3,0.5c-0.4-0.2-0.8-0.5-1.1-0.8L69.2,133.4z"
		/>
	<path class="st13" d="M110.8,145.2v-0.5c0.5-0.8,2-1.5,2.9-2.1l9.4-5.8l14.4-9.1c1.5,0.6,3.1,1.7,4.5,2.5l6.4,3.4l-0.3,0.2
		l-0.2-0.1l-10.3-5.4L110.8,145.2L110.8,145.2z"/>
	
		<linearGradient id="SVGID_00000161590242337884682780000004041263941346606725_" gradientUnits="userSpaceOnUse" x1="153.9461" y1="362.9648" x2="67.0481" y2="328.8387" gradientTransform="matrix(1 0 0 1 0 -239.2676)">
		<stop  offset="0" style="stop-color:#443621"/>
		<stop  offset="1" style="stop-color:#1D3541"/>
	</linearGradient>
	<path style="fill:url(#SVGID_00000161590242337884682780000004041263941346606725_);" d="M105.6,63.1c1.2-0.7,2.6-1.6,4-2
		c2.4,0.9,4.8,2.5,7,3.9l7.9,4.8l10,6.2c1,0.7,2.1,1.3,3.1,2l1.8,1l0.1,0.1c0.9,0.8,2.3,1.3,3.4,2l7.1,4.3l-0.1,34.5v1.4v9.7
		c0,0.9,0.2,2.2,0,3c-0.1,0.2-0.6,0.7-0.8,0.9l-0.2,0.1c-0.3-1.1-0.1-2.5-0.2-3.7V85.7l-7.1-4.2l-20.3-12.2l-6.8-4.2
		c-1.7-1.1-3.4-2.2-5.2-3c-0.5,0.1-1,0.4-1.4,0.6l-8.1,4.9L83.2,78L73,84.4c-0.9,0.6-2,1.1-2.9,1.9c-0.3,0.3-0.9,0.9-1.1,1.3
		c-0.1,0.2,0,0.9,0,1.1l0.1,4.8v13.3c0,1.8,0.2,3.8,0,5.6v0.3v13.8c0,2.3-0.2,4.7,0.2,7l-0.1,2.1l-0.2-0.3c-0.2-0.4-0.8-1-0.8-1.5
		v-23.7c0-1.1,0-2.2-0.1-3.3v-0.2c0.2-0.6,0.1-1.3,0.1-1.9v-6.1v-1.2v-7.6c0-0.7-0.2-2.3,0.1-2.9l0.1-0.2c0.9-1.3,2.3-2.1,3.6-2.9
		l0.8-0.6L105.6,63.1z"/>
	<path class="st10" d="M110.3,55.3h0.2c1.4-0.3,2.2-0.8,3.1-1.8l24.9,14.6l-0.8,9.9c-1-0.7-2.1-1.3-3.1-2l-10-6.2l-7.9-4.8
		c-2.2-1.4-4.6-2.9-7-3.9c-1.4,0.3-2.8,1.3-4,2c0-0.3,0-0.4,0.2-0.6C106.2,61.4,109.5,55.6,110.3,55.3z"/>
	<path class="st15" d="M111.5,114.1l19.8,11.4l2.4,1.3l-8.6,5.4l-13.6,8.5V114.1z"/>
	<path class="st15" d="M111.5,80l1.3,0.8l19,11.8l1.9,1.1c-0.3,0.5-2,1.3-2.6,1.6c-1.7,1-3.6,2-5.2,3.1l-0.2,0.1l-7.9,4.6l-4.1,2.4
		c-0.8,0.4-1.5,0.9-2.2,1.4V80z"/>
	<path class="st15" d="M134.7,97.1l0.1,0.1c0.3,0.5,0.1,23.7,0.1,26.5l-14.1-8.2c-1-0.8-2.5-1.4-3.6-2.1l-5-3
		c0.4-0.4,0.9-0.5,1.3-0.8l3-1.7l11.9-7C130.5,99.7,132.8,98.6,134.7,97.1z"/>
	<path class="st15" d="M83.2,96.6c1,0.4,1.8,1.1,2.7,1.7l5.4,3.5l14,8.7c-1,0.9-2.3,1.6-3.5,2.3l-4.1,2.6l-0.9,0.6l-13.5,8.6
		L83.2,96.6z"/>
	<path class="st15" d="M107.9,112.9v28.2l-13.6-8.4l-6.2-3.7c-0.9-0.6-2-1.1-2.9-1.8l13.7-8.7L107.9,112.9z"/>
	<path class="st15" d="M107.8,79.9c0,0,0.3,25.8,0.1,28.3l-1.1-0.6L94,99.5c-2.5-1.4-4.9-3-7.3-4.6c-0.3-0.2-1.5-0.9-1.6-1.1
		L107.8,79.9z"/>
	<path class="st15" d="M147.8,89.3c0.2,0.4,0.2,37.8,0.2,41.7l-1.6-0.8l-4.5-2.5l-3.3-1.9L138.5,95c1.1-1,2.7-1.7,3.9-2.4
		C144.3,91.4,146,90.2,147.8,89.3z"/>
	<path class="st15" d="M70.7,89.2c0.3,0.1,0.6,0.3,0.9,0.5s0,0.1,0.4,0.2l2,1.2l1.2,0.7l0.9,0.6l2.1,1.3l1.6,1.1v31.8l-1.5,1l-2,1.2
		l-5.8,3.5c-0.2-3.8-0.1-7.6-0.1-11.4V99v-6.1c0-0.8,0.1-1.8-0.1-2.6v-0.1C70.3,89.8,70.5,89.6,70.7,89.2z"/>
	<path class="st15" d="M111.5,64.4l24.8,15.2l10.9,6.2c-0.2,0.2-0.6,0.4-0.9,0.6l-2.8,1.6l-6.8,4l-25.2-15.7V64.4z"/>
	<path class="st15" d="M107.8,64.2c0.3,0.7,0.1,2.4,0.1,3.2V76l-26,15.9c-0.2,0.1-0.2,0.2-0.5,0.2l-5.9-3.6l-3.8-2.3
		c1.6-1.4,3.9-2.6,5.7-3.7l5.6-3.3L107.8,64.2z"/>
	<path class="st6" d="M110.9,145.2l26.7-16.8l10.3,5.4l0.2,0.1l0.3-0.2c0.3,0,0.3,0,0.5-0.1l0.1-2.2c0.1,1.2-0.2,2.6,0.2,3.7
		c-0.7,0.4-1.6,0.8-2.2,1.3c-1.9,0.9-3.9,2.2-5.6,3.4l-3,1.7c-0.5,0.3-1,0.6-1.4,1l-0.8,4l-1,5.9c-0.1,0.9-0.4,1.8-0.4,2.7l-22.1,13
		l-0.1-0.1c-1.1-0.8-1.9-0.9-3.2-0.9c-0.7,0.2-1.1,0.4-1.7,0.8l-0.2,0.1l-20.1-11.1l-1.1-0.5l-0.2-0.2l-1.5-0.9
		c-1.7-3.1-3.2-6.5-4.7-9.7c-0.6-1.3-1.6-2.8-2-4.1c-0.1-0.2-0.1-0.4-0.1-0.6l-6.8-4c-0.3-0.1-0.5-0.3-0.8-0.5
		c-0.1-0.2-0.2-0.3-0.3-0.5c0.1-0.1,0.1-0.2,0.2-0.3c0.4-0.3,0.8-0.3,1.2-0.4l0.1-0.1l10.1-5.9l26.3,16l0.2-0.1v7.8
		c0,1.4-0.1,2.8,0.1,4.2l0.9,0.9l1.8-1.1L110.9,145.2L110.9,145.2z"/>
	<path class="st11" d="M89.2,154.3c1.6-0.2,3.1-0.6,4.6-1l3.7-0.9l2.5,1.5c-2.8,0.3-5.6,0.9-8.3,1.5c-1.3,0.3-2.5,0.6-3.8,0.7
		L89.2,154.3z"/>
	<path class="st6" d="M92.6,149.5l5,3l-3.7,0.9c-1.5,0.4-3.1,0.8-4.6,1L92.6,149.5z"/>
	<path class="st13" d="M149,131.3c0.1,1.2-0.2,2.6,0.2,3.7c-0.7,0.4-1.6,0.8-2.2,1.3c-1.9,0.9-3.9,2.2-5.6,3.4l-3,1.7
		c-0.5,0.3-1,0.6-1.4,1l-0.8,4l-5.5,1.7c-1,0.3-2.4,0.9-3.4,0.9c-0.3,0-0.4-0.1-0.6-0.2l-17.3,10.9l-9.3-5.8l-2.5-1.5l-5-3l-3.4,4.8
		L88,156l-0.5,0.7l-1.1-0.5l-0.2-0.2l-1.5-0.9c-1.7-3.1-3.2-6.5-4.7-9.7c-0.6-1.3-1.6-2.8-2-4.1c-0.1-0.2-0.1-0.4-0.1-0.6l-6.8-4
		c-0.3-0.1-0.5-0.3-0.8-0.5c-0.1-0.2-0.2-0.3-0.3-0.5c0.1-0.1,0.1-0.2,0.2-0.3c0.4-0.3,0.8-0.3,1.2-0.4c1,0.7,2.1,1.2,3.2,1.8
		l8.9,5.3l24.4,14.8V145l0.2-0.1v7.8c0,1.4-0.1,2.8,0.1,4.2l0.9,0.9l1.8-1.1v-11.6h0.1l0.1,11.4l37-22.8l0.3-0.2
		c0.3,0,0.3,0,0.5-0.1L149,131.3z"/>
	<path class="st10" d="M126.6,148.8l10.4-6.4l-0.8,4l-5.5,1.7c-1,0.3-2.4,0.9-3.4,0.9C127,149,126.8,148.9,126.6,148.8z"/>
	<path class="st6" d="M84.7,155.2c-1.7-3.1-3.2-6.5-4.7-9.7c-0.6-1.3-1.6-2.8-2-4.1c-0.1-0.2-0.1-0.4-0.1-0.6l1,0.6
		c1.1,0.5,2.1,1.2,3.2,1.8l9.6,5.8l0.9,0.6l-3.4,4.8l-1.2,1.8l-0.5,0.7l-1.1-0.5l-0.2-0.2L84.7,155.2z"/>
	<path class="st9" d="M91.6,148.9l0.9,0.6l-3.4,4.8l-1.2,1.8l-0.5,0.7l-1.1-0.5L91.6,148.9z"/>
	<path class="st9" d="M84.7,155.2c-1.7-3.1-3.2-6.5-4.7-9.7c-0.6-1.3-1.6-2.8-2-4.1c-0.1-0.2-0.1-0.4-0.1-0.6l1,0.6l5.2,10.4l1.5,3
		c0.2,0.4,0.5,0.9,0.6,1.4L84.7,155.2z"/>
	<path class="st0" d="M110.9,145.2l26.7-16.8l10.3,5.4l0.2,0.1l-37,22.8L110.9,145.2z"/>
	<path class="st0" d="M71.4,135.1l0.1-0.1l10.1-5.9l26.3,16V157l-24.4-14.8l-8.9-5.3C73.6,136.3,72.4,135.8,71.4,135.1z"/>
	
		<linearGradient id="SVGID_00000127028833662581319610000001951838589657417900_" gradientUnits="userSpaceOnUse" x1="111" y1="416.2676" x2="111" y2="282.5676" gradientTransform="matrix(1 0 0 1 0 -239.2676)">
		<stop  offset="0" style="stop-color:#9C3600"/>
		<stop  offset="4.000000e-02" style="stop-color:#A44401"/>
		<stop  offset="0.25" style="stop-color:#CD8909"/>
		<stop  offset="0.4" style="stop-color:#E7B40D"/>
		<stop  offset="0.48" style="stop-color:#F1C40F"/>
		<stop  offset="0.53" style="stop-color:#F2C615"/>
		<stop  offset="0.6" style="stop-color:#F3CC25"/>
		<stop  offset="0.67" style="stop-color:#F7D53F"/>
		<stop  offset="0.75" style="stop-color:#FBE363"/>
		<stop  offset="0.81" style="stop-color:#FFF088"/>
		<stop  offset="1" style="stop-color:#FFF8D6"/>
	</linearGradient>
	<path style="fill:url(#SVGID_00000127028833662581319610000001951838589657417900_);" d="M111,43.3l57.9,33.4v66.8L111,177
		l-57.9-33.4V76.7L111,43.3z"/>
	<path class="st17" d="M111,49.7V109L59.6,79.4L111,49.7z"/>
	<path class="st18" d="M111,109l-51.4,29.7V79.4L111,109z"/>
	<path class="st19" d="M111,109v59.3l-51.4-29.6L111,109z"/>
	<path class="st20" d="M111,49.7l51.4,29.7L111,109V49.7z"/>
	<path class="st21" d="M111,109l51.4,29.7L111,168.3V109z"/>
	<path class="st19" d="M111,109l51.4-29.7v59.3L111,109z"/>
	<path class="st22" d="M110.8,45.5l2.8,1.6l49.9,28.8l2.8,1.6v64.1l-2.8,1.6L113.6,172l-2.8,1.6L108,172l-49.9-28.8l-2.8-1.6V77.5
		l2.8-1.6L108,47.1L110.8,45.5z M110.8,42.2c-0.6,0-1.2,0.2-1.7,0.4l-2.8,1.6L56.5,73.1l-2.8,1.6c-0.5,0.3-0.9,0.7-1.2,1.2
		C52.2,76.4,52,77,52,77.5v64.1c0,0.6,0.2,1.2,0.4,1.7c0.3,0.5,0.7,0.9,1.2,1.2l2.8,1.6l49.9,28.8l2.8,1.6c0.5,0.3,1.1,0.4,1.7,0.4
		s1.2-0.2,1.7-0.4l2.8-1.6l50-28.8l2.8-1.6c0.5-0.3,0.9-0.7,1.2-1.2s0.4-1.1,0.4-1.7v-64c0-0.6-0.2-1.2-0.4-1.7
		c-0.3-0.5-0.7-0.9-1.2-1.2l-2.8-1.6l-49.9-28.8l-2.8-1.6C112,42.3,111.4,42.2,110.8,42.2L110.8,42.2z"/>
	<path class="st22" d="M111.2,52.7l2.5,1.4L158.4,80l2.5,1.4v57.4l-2.5,1.4L113.7,166l-2.5,1.4l-2.5-1.4L64,140.2l-2.5-1.4V81.4
		L64,80l44.7-25.8L111.2,52.7z M111.2,49.7c-0.5,0-1,0.1-1.5,0.4l-2.5,1.4L62.5,77.4L60,78.8c-0.5,0.3-0.8,0.6-1.1,1.1
		s-0.4,1-0.4,1.5v57.4c0,0.5,0.1,1,0.4,1.5c0.3,0.5,0.6,0.8,1.1,1.1l2.5,1.4l44.7,25.8l2.5,1.4c0.5,0.3,1,0.4,1.5,0.4s1-0.1,1.5-0.4
		l2.5-1.4l44.8-25.8l2.5-1.4c0.5-0.3,0.8-0.6,1.1-1.1s0.4-1,0.4-1.5V81.4c0-0.5-0.1-1-0.4-1.5c-0.3-0.5-0.6-0.8-1.1-1.1l-2.5-1.4
		l-44.7-25.8l-2.5-1.4C112.2,49.9,111.7,49.7,111.2,49.7L111.2,49.7z"/>
	
		<linearGradient id="SVGID_00000059290773252334647350000000588359108093744258_" gradientUnits="userSpaceOnUse" x1="110.8" y1="391.4676" x2="110.8" y2="326.7676" gradientTransform="matrix(1 0 0 1 0 -239.2676)">
		<stop  offset="0" style="stop-color:#9C3600"/>
		<stop  offset="4.000000e-02" style="stop-color:#A44401"/>
		<stop  offset="0.25" style="stop-color:#CD8909"/>
		<stop  offset="0.4" style="stop-color:#E7B40D"/>
		<stop  offset="0.48" style="stop-color:#F1C40F"/>
		<stop  offset="0.53" style="stop-color:#F2C615"/>
		<stop  offset="0.6" style="stop-color:#F3CC25"/>
		<stop  offset="0.67" style="stop-color:#F7D53F"/>
		<stop  offset="0.75" style="stop-color:#FBE363"/>
		<stop  offset="0.81" style="stop-color:#FFF088"/>
		<stop  offset="1" style="stop-color:#FFF8D6"/>
	</linearGradient>
	<path style="fill-rule:evenodd;clip-rule:evenodd;fill:url(#SVGID_00000059290773252334647350000000588359108093744258_);" d="
		M143.7,87.5l-32.9,64.7L77.9,87.5H143.7z M108.1,93.1v42.2L88.7,93.1H108.1z M113.5,93.1v42.2l19.4-42.2
		C132.9,93.1,113.5,93.1,113.5,93.1z"/>
	<path class="st1" d="M110.8,155.2c-1.1,0-2.2-0.6-2.7-1.6L75.2,88.8c-0.5-0.9-0.4-2,0.1-2.9s1.5-1.4,2.6-1.4h65.8
		c1,0,2,0.5,2.6,1.4c0.5,0.9,0.6,2,0.1,2.9l-32.9,64.7C113,154.5,111.9,155.2,110.8,155.2z M110.8,152.2l32.9-64.7H77.9L110.8,152.2
		z M105.1,121.6V96.1H93.4L105.1,121.6z M88.7,93.1h19.4v42.2L88.7,93.1z M113.5,135.3V93.1h19.4L113.5,135.3z M116.5,121.6
		l11.7-25.5h-11.7V121.6z"/>
	
		<linearGradient id="SVGID_00000137810876890756364040000012720753363135730049_" gradientUnits="userSpaceOnUse" x1="52.6" y1="458.4676" x2="52.6" y2="357.7676" gradientTransform="matrix(1 0 0 1 0 -239.2676)">
		<stop  offset="0" style="stop-color:#9C3600"/>
		<stop  offset="4.000000e-02" style="stop-color:#A44401"/>
		<stop  offset="0.25" style="stop-color:#CD8909"/>
		<stop  offset="0.4" style="stop-color:#E7B40D"/>
		<stop  offset="0.48" style="stop-color:#F1C40F"/>
		<stop  offset="0.53" style="stop-color:#F2C615"/>
		<stop  offset="0.6" style="stop-color:#F3CC25"/>
		<stop  offset="0.67" style="stop-color:#F7D53F"/>
		<stop  offset="0.75" style="stop-color:#FBE363"/>
		<stop  offset="0.81" style="stop-color:#FFF088"/>
		<stop  offset="1" style="stop-color:#FFF8D6"/>
	</linearGradient>
	<path style="fill:url(#SVGID_00000137810876890756364040000012720753363135730049_);" d="M52.6,118.5l43.6,25.2V194l-43.6,25.2
		L9,194v-50.3L52.6,118.5z"/>
	<path class="st25" d="M52.6,123.4V168l-38.7-22.3L52.6,123.4z"/>
	<path class="st26" d="M52.6,168l-38.7,22.3v-44.7L52.6,168z"/>
	<path class="st27" d="M52.6,168v44.7l-38.7-22.3L52.6,168z"/>
	<path class="st28" d="M52.6,123.4l38.7,22.3L52.6,168V123.4z"/>
	<path class="st29" d="M52.6,168l38.7,22.3l-38.7,22.3C52.6,212.6,52.6,168,52.6,168z"/>
	<path class="st30" d="M52.6,168l38.7-22.3v44.7L52.6,168z"/>
	<path class="st22" d="M52.5,120.2l2.1,1.2l37.6,21.7l2.1,1.2v48.2l-2.1,1.2l-37.6,21.7l-2.1,1.2l-2.1-1.2l-37.6-21.7l-2.1-1.2
		v-48.2l2.1-1.2l37.6-21.7L52.5,120.2z M52.5,117.7c-0.4,0-0.9,0.1-1.3,0.3l-2.1,1.2l-37.6,21.7l-2.1,1.2c-0.4,0.2-0.7,0.5-0.9,0.9
		s-0.3,0.8-0.3,1.3v48.2c0,0.4,0.1,0.9,0.3,1.3c0.2,0.4,0.5,0.7,0.9,0.9l2.1,1.2l37.6,21.7l2.1,1.2c0.4,0.2,0.8,0.3,1.3,0.3
		c0.4,0,0.9-0.1,1.3-0.3l2.1-1.2l37.6-21.7l2.1-1.2c0.4-0.2,0.7-0.5,0.9-0.9c0.2-0.4,0.3-0.8,0.3-1.3v-48.2c0-0.4-0.1-0.9-0.3-1.3
		s-0.5-0.7-0.9-0.9l-2.1-1.2l-37.6-21.7l-2.1-1.2C53.4,117.8,52.9,117.7,52.5,117.7L52.5,117.7z"/>
	<path class="st22" d="M52.7,125.6l1.9,1.1l33.7,19.5l1.9,1.1v43.2l-1.9,1.1L54.6,211l-1.9,1.1l-1.9-1.1l-33.7-19.5l-1.9-1.1v-43.2
		l1.9-1.1l33.7-19.5L52.7,125.6z M52.7,123.4c-0.4,0-0.8,0.1-1.1,0.3l-1.9,1.1L16,144.3l-1.9,1.1c-0.3,0.2-0.6,0.5-0.8,0.8
		s-0.3,0.7-0.3,1.1v43.2c0,0.4,0.1,0.8,0.3,1.1s0.5,0.6,0.8,0.8l1.9,1.1L49.7,213l1.9,1.1c0.3,0.2,0.7,0.3,1.1,0.3
		c0.4,0,0.8-0.1,1.1-0.3l1.9-1.1l33.7-19.4l1.9-1.1c0.3-0.2,0.6-0.5,0.8-0.8c0.2-0.3,0.3-0.7,0.3-1.1v-43.2c0-0.4-0.1-0.8-0.3-1.1
		c-0.2-0.3-0.5-0.6-0.8-0.8l-1.9-1.1l-33.7-19.5l-1.9-1.1C53.5,123.5,53.1,123.4,52.7,123.4L52.7,123.4z"/>
	
		<linearGradient id="SVGID_00000179642825373942566690000008237493929644585107_" gradientUnits="userSpaceOnUse" x1="170.3" y1="458.4676" x2="170.3" y2="357.7676" gradientTransform="matrix(1 0 0 1 0 -239.2676)">
		<stop  offset="0" style="stop-color:#9C3600"/>
		<stop  offset="4.000000e-02" style="stop-color:#A44401"/>
		<stop  offset="0.25" style="stop-color:#CD8909"/>
		<stop  offset="0.4" style="stop-color:#E7B40D"/>
		<stop  offset="0.48" style="stop-color:#F1C40F"/>
		<stop  offset="0.53" style="stop-color:#F2C615"/>
		<stop  offset="0.6" style="stop-color:#F3CC25"/>
		<stop  offset="0.67" style="stop-color:#F7D53F"/>
		<stop  offset="0.75" style="stop-color:#FBE363"/>
		<stop  offset="0.81" style="stop-color:#FFF088"/>
		<stop  offset="1" style="stop-color:#FFF8D6"/>
	</linearGradient>
	<path style="fill:url(#SVGID_00000179642825373942566690000008237493929644585107_);" d="M170.3,118.5l43.6,25.2V194l-43.6,25.2
		L126.7,194v-50.3L170.3,118.5z"/>
	<path class="st32" d="M170.3,123.4V168l-38.7-22.3L170.3,123.4z"/>
	<path class="st33" d="M170.3,168l-38.7,22.3v-44.7L170.3,168z"/>
	<path class="st34" d="M170.3,168v44.7l-38.7-22.3L170.3,168z"/>
	<path class="st35" d="M170.3,123.4l38.7,22.3L170.3,168V123.4z"/>
	<path class="st36" d="M170.3,168l38.7,22.3l-38.7,22.3V168z"/>
	<path class="st37" d="M170.3,168l38.7-22.3v44.7L170.3,168z"/>
	<path class="st38" d="M189.2,148.2c0.3,0.3,0.5,0.6,0.8,1l1.2,1.6l6,7.6c0.4,0.5,1,1.1,1.2,1.7v0.1l0.1,0.2l-6-3.4l-2.3-1.4
		c-0.4-0.2-0.8-0.5-1.2-0.6L189.2,148.2z"/>
	<path class="st39" d="M170.4,144.7l9.3,3.7l-2.6,2.5c-0.5,0.5-1,1.1-1.6,1.4c-0.5,0.3-1.3,0.4-1.9,0.4h-0.3l-9.2-0.7l-2.7-2.6
		L170.4,144.7z"/>
	<path class="st39" d="M150.7,154.8v1.9l-3.3,8.7l-0.7,3.9l-0.8,4c-0.1,0.3-0.3,1.1-0.3,1.4c0,0.1,0.1,0.1,0.1,0.2l1.1,2.2l2.8,5.8
		l1.9,4.1c0.3,0.6,0.6,1.2,0.9,1.7l0.1,0.4l-6.2,9.4c-0.7,0-3.9,0.2-4.4,0.6l0.1-0.1l0.1-4.8v-0.1l0.2-16.8l0.1-11.4v-3.4
		c0-0.7,0-1.4-0.1-2v-0.1L150.7,154.8z"/>
	<path class="st39" d="M189,154.9c0.4,0.2,0.8,0.4,1.2,0.6l2.3,1.4l6,3.4l0.4,0.3v0.1c-0.1,0.7-0.1,1.4-0.1,2.1v3.4v10.6v16.8v1.4v3
		v0.8l-0.1,0.5l-3.9-4.6c-0.2-0.8-0.3-1.6-0.4-2.5l-0.5-3.4l-2.2-15.1c0-0.2,0-0.3-0.1-0.4c-0.3-0.8-0.4-1.7-0.6-2.5l-1.1-5
		l-0.9-4.1c-0.1-0.5-0.3-1.2-0.3-1.7c-0.1-0.7,0-1.4,0.1-2L189,154.9z"/>
	<path class="st40" d="M146.5,198.5c0.4,0.2,0.8,0.4,1.2,0.7l1.9,1.1l5.3,3.1l15.4,9.8c-0.4-0.1-0.7-0.2-1-0.4l-2-1l-5-2.5
		l-12.4-6.2l-7.6-4C142.5,198.8,145.8,198.5,146.5,198.5z"/>
	<path class="st1" d="M146.5,196.5c0.2,0,0.5,0,0.7,0.1c0.5,0.2,1.1,0.6,1.4,0.7c0.1,0,0.1,0.1,0.1,0.1l1.9,1.1l5.2,3.1
		c0,0,0,0,0.1,0l15.4,9.8c0.8,0.5,1.1,1.5,0.8,2.4s-1.2,1.4-2.2,1.3c-0.6-0.1-1.2-0.4-1.5-0.5h-0.1c0,0,0,0-0.1,0l-2.1-1l-17.5-8.6
		l0,0l-7.6-4c-0.6-0.3-1-0.9-1.1-1.5c-0.1-0.7,0.2-1.3,0.7-1.7c0.4-0.3,0.8-0.5,1-0.5c0.2-0.1,0.5-0.1,0.7-0.2
		c0.5-0.1,1-0.2,1.5-0.2C145,196.6,146,196.5,146.5,196.5z M154.8,203.3l-5.3-3.1l-1.9-1.1c-0.1-0.1-0.2-0.1-0.3-0.2
		c-0.3-0.2-0.6-0.4-0.9-0.5c-0.2,0-0.6,0-1.1,0.1c-1.2,0.1-3,0.3-3.3,0.6l7.6,4l12.4,6.2l5,2.5l2,1c0.1,0,0.1,0.1,0.2,0.1
		c0.3,0.1,0.6,0.3,0.9,0.3L154.8,203.3z M143,200.9L143,200.9L143,200.9z"/>
	<path class="st41" d="M150.7,154.8l-0.7-15.2l10.9,10.1l3.2,2h12.2l3.5-3.4c0.7-0.5,1.3-1.2,1.9-1.8l3.9-3.6c0.6-0.5,1.1-1,1.7-1.5
		c0.5-0.5,0.9-1,1.6-1.2c0.2,0,0.2,0,0.3,0.2c0.1,0.6,0.1,1.4,0.1,2v3.9c0,0.6-0.1,1.3,0,1.9l-0.3,6.6l-0.1,3.1c0,0.7-0.1,1.4-0.1,2
		s0.2,1.2,0.3,1.7l0.9,4.1l1.1,5c0.2,0.8,0.3,1.7,0.6,2.5c-1.3-0.7-2.6-1.7-3.8-2.5l-5.9-3.9l-8.8,5.3l-6.9-2.2l-2.6-8.9
		c0.1-0.6-0.5-1.4-0.8-1.9c-0.9-1.4-1.8-2.7-2.9-4l-1.2-1.3c-0.1-0.1-0.4-0.4-0.5-0.6c-0.1-0.2,0-0.7,0-0.9c-0.7,0.1-1.5,0.7-2.1,1
		c-0.1,0.1-0.2,0.1-0.3,0.1c-0.4,0.2-0.7,0.5-1.1,0.7l-4.1,2.5L150.7,154.8z"/>
	<path class="st1" d="M150.7,156.7v-1.9l-0.7-15.2l10.9,10.1l3.2,2h12.2l3.5-3.4c0.5-0.4,1-0.9,1.4-1.3c0.2-0.2,0.3-0.3,0.5-0.5
		l3.9-3.6c0.6-0.5,1.1-1,1.7-1.5l0,0c0.1-0.1,0.1-0.1,0.2-0.2c0.2-0.2,0.4-0.4,0.6-0.5c0.2-0.2,0.5-0.4,0.8-0.5c0.2,0,0.2,0,0.3,0.2
		l0,0c0.1,0.3,0.1,0.7,0.1,1c0,0.2,0,0.4,0,0.5s0,0.2,0,0.3s0,0.1,0,0.2v3.9c0,0.2,0,0.5,0,0.7c0,0.4,0,0.8,0,1.2l-0.3,6.6l-0.1,3.1
		c0,0.2,0,0.3,0,0.5c0,0.5-0.1,1,0,1.5c0,0.4,0.1,0.8,0.2,1.2c0,0.2,0.1,0.3,0.1,0.5l0.9,4.1l1.1,5c0.1,0.2,0.1,0.5,0.1,0.7
		c0.1,0.6,0.2,1.2,0.4,1.8c-0.8-0.4-1.6-1-2.4-1.5c-0.1-0.1-0.2-0.2-0.3-0.2c-0.4-0.2-0.7-0.5-1.1-0.7l-5.9-3.9l-8.8,5.3l-6.9-2.2
		l-2.6-8.9c0-0.5-0.4-1.2-0.7-1.7c0-0.1-0.1-0.1-0.1-0.1c-0.9-1.4-1.8-2.7-2.9-4l-1.2-1.3c0,0,0-0.1-0.1-0.1c0,0,0,0-0.1-0.1
		c-0.1-0.2-0.3-0.3-0.3-0.5c0-0.1,0-0.4,0-0.6c0-0.1,0-0.2,0-0.3c-0.6,0.1-1.4,0.6-2,1h-0.1l0,0c-0.1,0.1-0.2,0.1-0.3,0.1l0,0
		c-0.2,0.1-0.5,0.3-0.7,0.4c-0.1,0.1-0.3,0.2-0.4,0.3L150.7,156.7z M155.9,155.9l-4.1,2.5c-0.6,0.4-1.4,0.4-2,0s-1-1-1-1.7v-1.9
		l-0.7-15.1c0-0.8,0.4-1.6,1.2-1.9c0.7-0.3,1.6-0.2,2.2,0.3l10.8,10l2.5,1.6h10.8l2.9-2.8c0.1-0.1,0.1-0.1,0.2-0.2
		c0.4-0.3,0.7-0.6,1.1-1c0.2-0.2,0.4-0.4,0.6-0.6l0,0l3.9-3.6l0.1-0.1c0.5-0.4,1-0.9,1.5-1.4l0.1-0.1c0.4-0.4,1.1-1.2,2.2-1.5
		c0.3-0.1,0.6-0.1,1-0.1l0,0c0,0,0.1,0,0.3,0c0.1,0,0.4,0.1,0.7,0.3s0.4,0.3,0.5,0.4c0.1,0.1,0.1,0.1,0.1,0.2l0,0
		c0.2,0.2,0.3,0.5,0.4,0.8c0.1,0.5,0.1,1.1,0.1,1.5c0,0.2,0,0.4,0,0.6l0,0c0,0.2,0,0.3,0,0.4l0,0v3.9l0,0c0,0.4,0,0.6,0,0.9
		c0,0.3,0,0.6,0,0.9c0,0.1,0,0.1,0,0.2L191,155l0,0l-0.1,3.1l0,0c0,0.3,0,0.5,0,0.7c0,0.4-0.1,0.7,0,1.1c0,0.2,0.1,0.4,0.1,0.7
		c0,0.2,0.1,0.4,0.2,0.7l0.9,4.1l1.1,5l0,0c0.1,0.3,0.1,0.6,0.2,0.9c0.1,0.5,0.2,1,0.3,1.4c0.3,0.8,0,1.6-0.6,2.2
		c-0.6,0.5-1.5,0.6-2.2,0.3c-1.1-0.6-2.2-1.3-3.1-2c-0.3-0.2-0.6-0.4-0.9-0.6l-4.8-3.2l-7.7,4.7c-0.5,0.3-1.1,0.4-1.7,0.2l-6.9-2.2
		c-0.6-0.2-1.1-0.7-1.3-1.3l-2.6-8.9c0-0.2-0.1-0.3-0.1-0.5c0,0,0-0.1-0.1-0.1c-0.1-0.1-0.1-0.2-0.2-0.3c0-0.1-0.1-0.1-0.1-0.2l0,0
		c0-0.1-0.1-0.1-0.1-0.2c-0.8-1.3-1.7-2.6-2.7-3.8l-1.2-1.3l0,0l0,0c-0.2,0.1-0.4,0.2-0.6,0.2c0,0-0.1,0.1-0.2,0.1
		c0,0-0.1,0-0.1,0.1C156.2,155.7,156,155.8,155.9,155.9z M161.6,161.2L161.6,161.2L161.6,161.2z"/>
	<path class="st42" d="M171.6,163.8l1.9,0.1h2.5l-0.5,4.5l-6.9-0.3c0.5-0.7,1.1-1.4,1.5-2.2l0.4-0.6L171.6,163.8z"/>
	<path class="st1" d="M170,162.6c0.4-0.5,1-0.8,1.7-0.8l1.9,0.1h2.5c0.6,0,1.1,0.2,1.5,0.7c0.4,0.4,0.6,1,0.5,1.5l-0.5,4.5
		c-0.1,1-1,1.8-2.1,1.8l-6.9-0.3c-0.7,0-1.4-0.5-1.7-1.1c-0.3-0.7-0.3-1.4,0.1-2c0.2-0.2,0.3-0.5,0.5-0.7c0.4-0.5,0.7-0.9,0.9-1.4
		c0-0.1,0.1-0.2,0.2-0.2L170,162.6z M170.1,165.9c0,0.1-0.1,0.2-0.2,0.3c-0.3,0.5-0.6,0.9-0.9,1.4c-0.1,0.2-0.3,0.4-0.4,0.5l6.9,0.3
		l0.5-4.5h-2.5l-1.9-0.1L170.1,165.9z"/>
	<path class="st43" d="M171.6,163.8l1.9,0.1h0.1c0.3,0.1,0.9,0,1.2,0c-0.4,0.5-0.8,1-1.2,1.5s-0.9,1.1-1.4,1.5
		c-0.5-0.4-1-0.8-1.4-1.3l-0.3-0.3L171.6,163.8z"/>
	<path class="st1" d="M170,162.6c0.4-0.5,1-0.8,1.7-0.8l1.9,0.1c0.2,0,0.4,0,0.5,0.1l0,0c0.1,0,0.2,0,0.3,0l0,0c0.1,0,0.2,0,0.4,0
		c0.7,0,1.4,0.4,1.8,1.1c0.3,0.7,0.3,1.4-0.1,2.1c-0.4,0.5-0.8,1.1-1.1,1.5c-0.1,0.1-0.1,0.1-0.2,0.2l-0.1,0.1
		c-0.4,0.5-1,1.2-1.7,1.7s-1.7,0.5-2.4-0.1c-0.6-0.5-1.1-1-1.6-1.6l-0.2-0.2c-0.7-0.7-0.8-1.8-0.2-2.6L170,162.6z M170.8,165.6
		c0.4,0.5,0.9,0.9,1.4,1.3c0.4-0.3,0.7-0.6,1.1-1l0,0c0.1-0.1,0.1-0.2,0.2-0.2c0,0,0,0,0-0.1l0.1-0.1c0.1-0.1,0.1-0.1,0.2-0.2
		c0.3-0.4,0.7-0.8,1-1.3c-0.1,0-0.2,0-0.3,0c-0.3,0-0.7,0-0.9-0.1h-0.1l-1.9-0.1l-1.1,1.5L170.8,165.6z"/>
	<path class="st4" d="M171.8,164.5c0.2,0,0.5,0,0.7,0.2c0.2,0.1,0.2,0.3,0.2,0.5s-0.2,0.4-0.4,0.5c-0.2,0-0.5,0-0.7-0.2
		c-0.1-0.1-0.2-0.3-0.2-0.5C171.5,164.7,171.6,164.6,171.8,164.5z"/>
	<path class="st1" d="M170.4,163c0.4-0.4,0.9-0.6,1.4-0.6c0,0,0,0,0.1,0l0,0h0.1c0.1,0,0.3,0,0.4,0c0.4,0.1,0.9,0.2,1.4,0.7
		 M174.7,165.3L174.7,165.3c0,0.6-0.3,1.1-0.6,1.4c-0.2,0.2-0.4,0.4-0.5,0.5l0,0c-0.4,0.3-0.8,0.5-1.3,0.5c-0.3,0-1.3,0-2.1-0.7l0,0
		c-0.4-0.4-0.6-0.8-0.7-1.1c-0.1-0.3-0.2-0.7-0.1-1l0,0c0-0.6,0.3-1,0.5-1.4c0.1-0.1,0.2-0.3,0.3-0.3l0.1-0.1l0,0l0,0 M171.7,166.4
		v-0.9c0.2,0.1,0.4,0.1,0.6,0.1l0,0c0.1-0.1,0.2-0.2,0.3-0.3l0.5,0.6l0,0c0.1-0.1,0.1-0.2,0.2-0.3c0-0.1,0.1-0.2,0.1-0.4l0,0v-0.1
		h-0.8l0,0h0.8c0-0.2,0-0.4-0.1-0.5c0-0.1-0.1-0.3-0.3-0.5l-0.5,0.6l0.5-0.6c0,0,0,0-0.1-0.1l-0.5,0.6l0,0l0.5-0.6
		c-0.2-0.2-0.4-0.3-0.6-0.3c-0.1,0-0.2,0-0.2,0v0.8c-0.1,0-0.3,0-0.4,0h-0.1l0,0c-0.1,0.1-0.2,0.2-0.2,0.3l-0.5-0.6l0,0
		c-0.1,0.1-0.1,0.2-0.2,0.3c-0.1,0.1-0.1,0.3-0.1,0.4l0,0v0.1l0.8,0.1l0,0l-0.8-0.1l0,0c0,0,0,0.2,0.1,0.5s0.2,0.5,0.4,0.6l0,0l0,0
		l0,0l0,0C171.3,166.3,171.6,166.4,171.7,166.4z M174.7,165.3c0-0.2,0-0.6-0.1-1L174.7,165.3z M174.6,164.3
		c-0.1-0.4-0.4-0.8-0.7-1.1L174.6,164.3z"/>
	<path class="st44" d="M158.4,152.3l-8.4-12.7c0.6,0.3,1.1,0.8,1.6,1.2l3.1,2.6l6.7,6.1l2.7,2.6l-3.8,0.1
		C159.7,152.2,158.8,152.1,158.4,152.3z"/>
	<path class="st1" d="M159,154.2c-0.9,0.3-1.8,0-2.3-0.8l-8.4-12.7c-0.5-0.8-0.4-1.8,0.2-2.4c0.6-0.7,1.6-0.9,2.4-0.4
		c0.7,0.4,1.4,0.9,1.8,1.2c0.1,0.1,0.1,0.1,0.2,0.2c0,0,0,0,0.1,0l3.1,2.6l0,0l6.7,6.1l0,0l2.7,2.6c0.6,0.6,0.8,1.4,0.5,2.2
		s-1,1.3-1.8,1.3l-3.8,0.1l0,0c-0.2,0-0.3,0-0.5,0l0,0c-0.2,0-0.3,0-0.4,0C159.2,154.2,159.1,154.2,159,154.2L159,154.2z
		 M160.2,152.1l3.8-0.1l-2.7-2.6l-6.7-6.1l-3.1-2.6c-0.1-0.1-0.2-0.1-0.2-0.2c-0.4-0.4-0.9-0.7-1.4-1l8.4,12.7
		c0.4-0.1,1-0.1,1.5-0.1C160,152.1,160.1,152.1,160.2,152.1z"/>
	<path class="st4" d="M150.7,154.8l-0.6-14.4l5.7,13.1c-0.4,0.2-0.7,0.5-1.1,0.7l-4.1,2.5L150.7,154.8z"/>
	<path class="st1" d="M150.7,156.7v-1.9l-0.6-14.4l5.7,13.1c-0.2,0.1-0.5,0.3-0.7,0.4c-0.1,0.1-0.3,0.2-0.4,0.3L150.7,156.7z
		 M155.9,155.9c0.2-0.1,0.4-0.3,0.5-0.3c0,0,0.1,0,0.1-0.1c0.2-0.1,0.2-0.1,0.2-0.2c1-0.4,1.5-1.6,1-2.6l-5.7-13.1
		c-0.4-0.9-1.3-1.4-2.3-1.1c-0.9,0.2-1.6,1.1-1.5,2l0.6,14.3v1.9c0,0.7,0.4,1.4,1,1.7c0.6,0.4,1.4,0.3,2,0L155.9,155.9z"/>
	<path class="st45" d="M173.3,152.7h0.3l-2,11.1l-1.1,1.5l-0.4,0.6l-0.1-0.1l-0.1-0.1c-1.1-1.1-2.4-2-3.7-3l-2.5-1.9
		c2.6-1.8,5-4,7.4-6.1l1.3-1.2c0.2-0.2,0.5-0.4,0.6-0.6C173.3,153,173.3,152.8,173.3,152.7z"/>
	<path class="st1" d="M171.4,152c0.3-0.8,1.1-1.3,2-1.2h0.3c0.6,0,1.1,0.3,1.5,0.8c0.4,0.4,0.5,1,0.4,1.6l-2,11.1
		c-0.1,0.3-0.2,0.6-0.4,0.8l-1.5,2.1c-0.4,0.5-1,0.8-1.7,0.8c-0.6,0-1.1-0.3-1.5-0.8l0,0c-0.9-0.9-1.8-1.6-2.9-2.4
		c-0.2-0.1-0.3-0.2-0.5-0.3l0,0l-2.5-1.9c-0.5-0.4-0.8-1-0.8-1.6s0.3-1.2,0.9-1.6c2-1.4,3.8-3,5.8-4.7c0.5-0.4,1-0.9,1.5-1.3l0,0
		l1.3-1.1C171.3,152.1,171.4,152,171.4,152L171.4,152z M172.6,153.6l-1.3,1.2l0,0c-0.5,0.4-0.9,0.8-1.4,1.2
		c-1.4,1.2-2.8,2.5-4.3,3.6c-0.6,0.4-1.1,0.8-1.7,1.2l2.5,1.9c0.2,0.1,0.3,0.2,0.5,0.3c0.6,0.5,1.3,0.9,1.9,1.4
		c0.5,0.4,0.9,0.8,1.3,1.2l0.1,0.1l0.1,0.1l1.5-2.1l2-11.1h-0.3c0,0,0,0,0,0.1s0,0.2,0,0.2c-0.1,0.2-0.3,0.3-0.5,0.5
		C172.7,153.5,172.6,153.6,172.6,153.6z"/>
	<path class="st45" d="M188.2,141l-1.6,20.2l-5-3.7l-4-3L188.2,141z"/>
	<path class="st1" d="M189,139.2c0.8,0.3,1.3,1.1,1.3,2l-1.6,20.2c-0.1,0.7-0.5,1.4-1.2,1.7s-1.4,0.2-2-0.2l-5-3.7l0,0l-4-3
		c-0.4-0.3-0.7-0.8-0.8-1.3s0.1-1.1,0.4-1.5l10.6-13.5C187.2,139.1,188.1,138.8,189,139.2z M181.6,157.5l5,3.7l1.6-20.2l-10.6,13.5
		L181.6,157.5z"/>
	<path class="st4" d="M155.9,153.5c0.1,0,0.2-0.1,0.3-0.1c0.6-0.4,1.4-0.9,2.1-1c0,0.2-0.1,0.7,0,0.9c0,0.2,0.3,0.5,0.5,0.6l1.2,1.3
		c1.1,1.3,2,2.6,2.9,4c0.3,0.5,0.9,1.3,0.8,1.9l2.6,8.9l6.9,2.2l8.8-5.3l5.9,3.9c1.2,0.8,2.5,1.8,3.8,2.5l-0.6-2.5l3.8,24l3.2,3.7
		l0.7,0.3c0,0.3,0.1,0.7-0.2,0.9c-0.3,0.3-0.7,0.5-1.1,0.7L171.3,213h-0.1h-0.4c-0.1,0.1-0.1,0.3-0.2,0.4l-0.3-0.2l-15.4-9.8
		l-5.3-3.1l-1.9-1.1c-0.4-0.2-1.2-0.7-1.2-0.7l6.2-9.4l-6.9-14.2l1.6-9.3l3.3-8.8l4.1-2.5C155.2,154,155.5,153.7,155.9,153.5z"/>
	<path class="st1" d="M156.2,153.4c-0.1,0.1-0.2,0.1-0.3,0.1l0,0c-0.2,0.1-0.5,0.3-0.7,0.4c-0.1,0.1-0.3,0.2-0.4,0.3l-4.1,2.5
		l-3.3,8.8l-1.6,9.3l6.9,14.2l-6.2,9.4c0,0,0.8,0.4,1.2,0.7l1.9,1.1l5.3,3.1l15.4,9.8l0.3,0.2c0.1-0.1,0.2-0.2,0.2-0.3l0,0l0,0h0.4
		h0.1l26.2-12.6l0,0c0.2-0.1,0.5-0.2,0.7-0.4c0.1-0.1,0.3-0.2,0.4-0.3c0.2-0.2,0.2-0.5,0.2-0.7c0-0.1,0-0.1,0-0.2l-0.7-0.3l-3.2-3.7
		l-3.5-21.6c0.1,0,0.1,0.1,0.2,0.1l-0.6-2.5l0.4,2.4c-0.8-0.4-1.5-0.9-2.2-1.4c0,0,0,0-0.1,0c-0.1-0.1-0.2-0.1-0.3-0.2
		c-0.4-0.2-0.7-0.5-1.1-0.7l-5.9-3.9l-8.8,5.3l-6.9-2.2l-2.6-8.9c0-0.5-0.4-1.2-0.7-1.7c0-0.1-0.1-0.1-0.1-0.1
		c-0.9-1.4-1.8-2.7-2.9-4l-1.2-1.3c0,0,0-0.1-0.1-0.1c0,0,0,0-0.1-0.1c-0.1-0.2-0.3-0.3-0.3-0.5c0-0.1,0-0.4,0-0.6
		c0-0.1,0-0.2,0-0.3c-0.6,0.1-1.4,0.6-2,1C156.3,153.4,156.3,153.4,156.2,153.4L156.2,153.4z M164.5,158.1c0,0,0,0.1,0.1,0.1
		c0.1,0.2,0.4,0.6,0.6,0.9c0.2,0.3,0.4,0.9,0.5,1.6l2.2,7.6l5.1,1.6l8-4.8c0.7-0.4,1.5-0.4,2.1,0.1l5.9,3.9c0.2,0.1,0.4,0.3,0.6,0.4
		c0.3-0.4,0.7-0.6,1.2-0.7c1.1-0.2,2.1,0.5,2.3,1.5l0.6,2.5c0.1,0.3,0.1,0.7,0,1l3.2,20.1l2.6,2.9l0.3,0.2c0.7,0.3,1.1,1,1.1,1.8
		c0,0,0,0,0,0.1v0.1c0,0.1,0,0.3,0,0.5c0,0.5-0.2,1.1-0.8,1.7c-0.6,0.6-1.3,0.9-1.7,1l-26.2,12.6c-0.1,0.1-0.3,0.1-0.5,0.2
		c-0.7,0.4-1.5,0.5-2.2,0l-0.3-0.2l-15.4-9.7l-5.2-3l-1.9-1.1c-0.2-0.1-0.4-0.2-0.7-0.4c-0.1-0.1-0.2-0.1-0.3-0.2h-0.1l0,0l0,0l0,0
		 M145.5,200.3c-0.5-0.3-0.9-0.7-1-1.3c-0.1-0.5,0-1.1,0.3-1.6l5.6-8.4l-6.4-13.2c-0.2-0.4-0.2-0.8-0.2-1.2l1.6-9.3
		c0-0.1,0.1-0.2,0.1-0.4l3.3-8.8c0.2-0.4,0.4-0.8,0.8-1l4.1-2.5l0,0c0.1,0,0.1-0.1,0.2-0.2c0.1,0,0.1-0.1,0.2-0.1
		c0.2-0.1,0.5-0.3,0.9-0.5c0.1,0,0.1-0.1,0.2-0.1c0.3-0.2,0.6-0.4,1-0.6c0.4-0.2,1-0.5,1.6-0.6s1.2,0,1.7,0.4s0.7,1,0.7,1.6
		c0,0.1,0,0.1,0,0.2l1.1,1.3l0,0c1.1,1.3,2.1,2.8,3,4.2"/>
	<path class="st43" d="M158.2,171.6c0.5,0.5,1.2,0.8,1.8,1.2l3,2c-0.2,0.3-0.6,0.7-0.8,1l-2.9,3.1c-0.3,0.3-0.8,0.7-1.1,1.1l3.7,1.3
		l1.8,0.7c0.1,0,0.4,0.2,0.5,0.2c0.2,0,0.9-0.5,1.1-0.6l5-2.7c0.7-0.4,1.5-0.9,2.2-1.1l-3.2,1.9l-4.3,2.5c-0.2,0.1-0.7,0.5-0.9,0.5
		c-0.1,0-0.6-0.2-0.7-0.2l-4-1.2c-0.4-0.1-1-0.4-1.4-0.3l-4,1.2c0.4-0.3,0.8-0.6,1.3-0.9c0.8-0.5,1.5-0.9,2.3-1.3
		c-0.2-0.2-0.5-0.4-0.7-0.7c-0.6-0.7-1.1-1.4-1.7-2.2l-2-3.1L158.2,171.6z"/>
	<path class="st1" d="M157.3,169.8c0.8-0.4,1.7-0.3,2.3,0.3c0.1,0.1,0.3,0.2,0.6,0.4c0.1,0,0.2,0.1,0.3,0.2c0.2,0.1,0.5,0.3,0.7,0.4
		l0,0l3,2c0.8,0.6,1.1,1.7,0.7,2.6c-0.2,0.4-0.5,0.8-0.7,1c-0.1,0.1-0.2,0.2-0.2,0.3l0,0c-0.1,0.1-0.1,0.1-0.2,0.2c0,0,0,0,0,0.1
		l-1.9,2l0.8,0.3l0,0l1.5,0.6l0.1-0.1c0,0,0.1-0.1,0.2-0.1l0,0l5-2.7l0,0c0.1-0.1,0.3-0.2,0.5-0.3l0,0c0.2-0.1,0.4-0.2,0.6-0.3
		c0.4-0.2,1-0.5,1.6-0.6c1-0.2,2,0.3,2.3,1.2c0.4,0.9,0,2-0.8,2.5l-3.2,1.9l0,0l0,0l-4.3,2.5l0,0l0,0c0,0,0,0-0.1,0.1l0,0
		c-0.1,0-0.2,0.1-0.2,0.2c-0.1,0.1-0.2,0.1-0.4,0.2c-0.1,0-0.2,0.1-0.3,0.1s-0.3,0.1-0.6,0.1c-0.2,0-0.4,0-0.5,0s-0.2,0-0.3-0.1
		c-0.1,0-0.3-0.1-0.4-0.1c-0.1,0-0.2-0.1-0.2-0.1l0,0c0,0,0,0-0.1,0l-4-1.2c-0.1,0-0.2-0.1-0.3-0.1s-0.1-0.1-0.2-0.1l0,0
		c-0.1,0-0.1,0-0.1-0.1l-3.7,1.1c-0.9,0.3-1.9-0.1-2.3-0.9c-0.5-0.8-0.3-1.8,0.4-2.5c0.5-0.4,1.1-0.8,1.4-1c0.1,0,0.1-0.1,0.2-0.1
		c0.1,0,0.1-0.1,0.2-0.1c-0.3-0.4-0.5-0.7-0.8-1.1l0,0c0,0,0-0.1-0.1-0.1l-2-3.1c-0.3-0.5-0.4-1-0.3-1.6c0.1-0.5,0.5-1,1-1.3
		L157.3,169.8z M156.4,178.5c0.1,0.1,0.2,0.2,0.2,0.3s0.1,0.1,0.1,0.2c0.1,0.1,0.2,0.2,0.2,0.3l0.1,0.1c0.1,0.1,0.2,0.2,0.3,0.3
		s0.2,0.2,0.3,0.3c-0.5,0.2-0.9,0.5-1.4,0.7c-0.2,0.1-0.3,0.2-0.5,0.3c-0.1,0.1-0.3,0.2-0.4,0.3c-0.1,0.1-0.2,0.1-0.2,0.1
		c-0.4,0.2-0.7,0.4-1,0.7l1.5-0.5l2.5-0.7c0.3-0.1,0.7,0.1,1,0.2h0.1c0.1,0,0.2,0.1,0.2,0.1l4,1.2c0,0,0.1,0,0.2,0.1
		c0.2,0.1,0.3,0.1,0.5,0.1l0,0c0,0,0,0,0.1,0s0.4-0.2,0.6-0.3c0.1-0.1,0.2-0.1,0.2-0.1l4.3-2.5l3.2-1.9c-0.6,0.1-1.1,0.5-1.7,0.8
		c-0.2,0.1-0.4,0.2-0.6,0.3l-5,2.7c0,0-0.1,0.1-0.2,0.1c-0.1,0-0.1,0.1-0.2,0.1l0,0c-0.3,0.2-0.6,0.3-0.7,0.4l0,0l0,0
		c-0.1,0-0.2-0.1-0.4-0.1c0,0-0.1,0-0.1-0.1l0,0l0,0l-1.8-0.7l-3.7-1.3c0.2-0.3,0.5-0.5,0.7-0.8c0.1-0.1,0.1-0.1,0.2-0.2
		c0.1-0.1,0.1-0.1,0.2-0.2l2.9-3.1c0.1-0.1,0.1-0.2,0.2-0.2c0.1-0.1,0.2-0.3,0.4-0.4c0.1-0.1,0.2-0.2,0.2-0.3l-3-2
		c-0.2-0.1-0.4-0.2-0.6-0.4c-0.4-0.3-0.9-0.5-1.2-0.8l-4.8,2.6l2,3.1C155.8,177.7,156.1,178.1,156.4,178.5z M163.1,184.4
		L163.1,184.4L163.1,184.4z"/>
	<path class="st41" d="M152.7,189.2c0.2,0.6,0.3,1.3,0.4,1.9l0.4,3c0.5,3.1,1.1,6.2,1.3,9.3l-5.3-3.1l-1.9-1.1
		c-0.4-0.2-0.8-0.5-1.2-0.7L152.7,189.2z"/>
	<path class="st1" d="M153,187.2c0.8,0.1,1.4,0.6,1.6,1.4c0.2,0.7,0.3,1.5,0.4,2c0,0.1,0,0.2,0,0.3l0,0l0.4,3
		c0.1,0.7,0.2,1.5,0.4,2.3c0.4,2.3,0.8,4.8,0.9,7.1c0.1,0.7-0.3,1.4-0.9,1.8c-0.6,0.4-1.4,0.4-2.1,0l-5.3-3.1l-1.9-1.1
		c-0.2-0.1-0.4-0.2-0.5-0.3c-0.2-0.1-0.3-0.2-0.4-0.2c-0.6-0.2-1-0.7-1.2-1.3s-0.1-1.2,0.2-1.7l6.2-9.3
		C151.5,187.4,152.2,187.1,153,187.2z M152.7,189.2c0.2,0.5,0.2,1.1,0.3,1.6c0,0.1,0,0.2,0,0.3l0.4,3c0.1,0.8,0.3,1.6,0.4,2.4
		c0.2,1.5,0.5,3,0.7,4.4c0.1,0.8,0.2,1.6,0.2,2.5l-5.3-3.1l-1.9-1.1c-0.1-0.1-0.2-0.1-0.3-0.2c-0.3-0.2-0.6-0.4-0.9-0.5L152.7,189.2
		z"/>
	
		<linearGradient id="SVGID_00000004525283382082720040000013811461936718771389_" gradientUnits="userSpaceOnUse" x1="148.0833" y1="400.0217" x2="163.3053" y2="401.5717" gradientTransform="matrix(1 0 0 1 0 -239.2676)">
		<stop  offset="0" style="stop-color:#FFBD03"/>
		<stop  offset="1" style="stop-color:#FEE104"/>
	</linearGradient>
	<path style="fill:url(#SVGID_00000004525283382082720040000013811461936718771389_);" d="M155.9,153.5c0.1,0,0.2-0.1,0.3-0.1
		c0.6-0.4,1.4-0.9,2.1-1c0,0.2-0.1,0.7,0,0.9c0,0.2,0.3,0.5,0.5,0.6l1.2,1.3c1.1,1.3,2,2.6,2.9,4c0.3,0.5,0.9,1.3,0.8,1.9
		c-0.4,0.7-3.9,7.3-4.2,7.5c-0.4,0.2-1,0.4-1.5,0.5l-4.5,1.6l-5.9-5.2l3.3-8.7l4.1-2.5C155.2,154,155.5,153.7,155.9,153.5z"/>
	<path class="st1" d="M156.2,153.4c-0.1,0.1-0.2,0.1-0.3,0.1l0,0c-0.2,0.1-0.5,0.3-0.7,0.4c-0.1,0.1-0.3,0.2-0.4,0.3l-4.1,2.5
		l-3.3,8.7l5.9,5.2l4.5-1.6c0.1,0,0.3-0.1,0.4-0.1c0.4-0.1,0.8-0.2,1-0.4c0.2-0.1,2.3-3.9,3.4-6.1c0.4-0.7,0.7-1.2,0.8-1.4
		c0-0.5-0.4-1.2-0.7-1.7c0-0.1-0.1-0.1-0.1-0.1c-0.9-1.4-1.8-2.7-2.9-4l-1.2-1.3c0,0,0-0.1-0.1-0.1c0,0,0,0-0.1-0.1
		c-0.1-0.2-0.3-0.3-0.3-0.5c0-0.1,0-0.4,0-0.6c0-0.1,0-0.2,0-0.3c-0.6,0.1-1.4,0.6-2,1C156.3,153.4,156.3,153.4,156.2,153.4
		L156.2,153.4z M160.3,152.6c0,0,0-0.1,0-0.2c0-0.6-0.2-1.2-0.7-1.6c-0.5-0.4-1.1-0.6-1.7-0.4c-0.6,0.1-1.2,0.4-1.6,0.6
		c-0.4,0.2-0.7,0.4-1,0.6c-0.1,0-0.2,0.1-0.2,0.1c-0.4,0.2-0.7,0.4-0.9,0.5c-0.1,0.1-0.2,0.1-0.2,0.1c-0.1,0.1-0.2,0.1-0.2,0.2l0,0
		l-4.1,2.5c-0.4,0.2-0.7,0.6-0.8,1l-3.3,8.7c-0.3,0.8-0.1,1.7,0.5,2.2l5.9,5.2c0.5,0.5,1.3,0.6,2,0.4l4.5-1.6l0,0
		c0.1,0,0.2-0.1,0.3-0.1s0.2-0.1,0.4-0.1c0.3-0.1,0.7-0.3,1.1-0.5"/>
	<path class="st43" d="M154.9,163.1c0.5,0.4,1.2,0.7,1.8,1h0.1l1.2,3.2l-2.1-0.2l-2-0.2c-0.3-0.9-0.8-1.9-1.2-2.8L154.9,163.1z"/>
	<path class="st1" d="M154,161.3c0.7-0.3,1.5-0.2,2.1,0.3c0.2,0.2,0.7,0.4,1.3,0.7h0.1c0.5,0.2,1,0.6,1.2,1.2l1.2,3.2
		c0.2,0.6,0.1,1.4-0.3,1.9c-0.4,0.5-1.1,0.8-1.8,0.8l-2.1-0.2l0,0l-2-0.2c-0.8-0.1-1.5-0.7-1.7-1.5c-0.1-0.3-0.2-0.6-0.4-1.1
		c0-0.1-0.1-0.2-0.1-0.2c-0.2-0.4-0.4-0.8-0.6-1.3c-0.4-1,0.1-2.1,1-2.5L154,161.3z M156.7,164c-0.6-0.2-1.3-0.6-1.8-1l-2.2,1
		c0.1,0.4,0.3,0.7,0.5,1.1c0.3,0.6,0.5,1.1,0.7,1.7l2,0.2l2.1,0.2L156.7,164L156.7,164z"/>
	<path class="st4" d="M154.6,163.9c0.3,0,0.4,0.1,0.6,0.3c0.1,0.2,0.1,0.4,0,0.6c-0.1,0.2-0.3,0.3-0.5,0.4c-0.3,0-0.5-0.1-0.7-0.3
		c-0.1-0.1-0.1-0.3,0-0.4C154.1,164.2,154.4,164.1,154.6,163.9z"/>
	<path class="st1" d="M153.6,162.2c0.4-0.2,0.8-0.3,1.2-0.2l0,0c0.2,0,0.5,0.1,0.9,0.2c0.4,0.2,0.7,0.4,0.9,0.6
		c0.2,0.2,0.4,0.5,0.5,0.7l0,0c0,0.1,0.1,0.4,0.2,0.7c0.1,0.4,0,0.9-0.2,1.3 M155.7,167c-0.4,0.2-0.8,0.3-1.2,0.2
		c-0.2,0-0.5-0.1-0.9-0.2c-0.4-0.2-0.7-0.4-1-0.7c-0.2-0.2-0.3-0.4-0.4-0.7c-0.1-0.2-0.3-0.9-0.1-1.7 M154.3,165.9l0.1-0.8
		c0.1,0,0.2,0.1,0.4,0.1c0,0,0,0,0.1,0c0.1-0.1,0.2-0.1,0.3-0.2l0.4,0.7l0,0c0.1-0.1,0.3-0.3,0.4-0.6l-0.7-0.3l0.7,0.3V165l0,0
		c0.1-0.2,0.1-0.4,0-0.6c0-0.1,0-0.2,0-0.2l-0.7,0.3c0-0.1,0-0.1-0.1-0.2c-0.1-0.1-0.2-0.1-0.2-0.2l0.6-0.5l-0.1-0.1
		c-0.1,0-0.1-0.1-0.2-0.1c-0.1,0-0.1,0-0.2-0.1l-0.1,0.8c-0.1,0-0.2-0.1-0.4-0.1c-0.1,0.1-0.2,0.1-0.3,0.2l-0.4-0.7
		c-0.1,0-0.2,0.1-0.2,0.2c-0.1,0.1-0.2,0.3-0.2,0.4l0,0c0,0.1,0,0.1-0.1,0.2l0.7,0.2l-0.7-0.2v0.1c0,0.1,0,0.3,0,0.4
		c0,0.1,0,0.1,0,0.1l0.7-0.3c0,0.1,0,0.2,0.1,0.2c0.1,0.1,0.2,0.2,0.3,0.2l-0.5,0.6c0,0,0.1,0.1,0.3,0.2
		C154.2,165.9,154.3,165.9,154.3,165.9z M153.8,165.7L153.8,165.7L153.8,165.7z M155,163.2L155,163.2L155,163.2z M156,164.2
		L156,164.2L156,164.2z M155.7,167L155.7,167L155.7,167z M155.8,167L155.8,167L155.8,167z M155.8,166.9c0,0,0.1,0,0.1-0.1
		L155.8,166.9z M155.9,166.9c0.1,0,0.2-0.1,0.4-0.2L155.9,166.9z M156.2,166.7c0.3-0.2,0.7-0.6,0.9-1.1L156.2,166.7z M153.6,162.2
		L153.6,162.2L153.6,162.2z M153.6,162.2c-0.2,0.1-1.1,0.6-1.5,1.7L153.6,162.2z"/>
	<path class="st47" d="M145.9,174.9c0.4,0.2,0.7,0.5,1,0.8l1.7,1.6l3.9,3.7l1.1,1.1c0.3,0.3,0.5,0.6,0.9,0.8l6.8,2.8l1.7,0.7
		c0.1,0.1,0.4,0.2,0.6,0.2c0.3,0,0.8-0.2,1.1-0.3l7-2l9.1-2.5l7.2-2.1l-23.4,15.6l-12.3-9l0.1,1.5c0,0.3,0.1,0.7,0.1,1
		c-0.4-0.5-0.6-1.2-0.9-1.7l-1.9-4.1l-2.8-5.8L145.9,174.9z"/>
	<path class="st1" d="M144.5,173.4c0.6-0.6,1.6-0.7,2.3-0.3c0.6,0.3,1.1,0.8,1.3,1l0.1,0.1l0,0l1.7,1.6l3.9,3.7l0,0l1.1,1.1
		c0.1,0.1,0.1,0.2,0.2,0.2l0,0c0.1,0.1,0.1,0.1,0.1,0.1l0,0l6.7,2.7l1.7,0.7h0.1c0.1,0,0.2-0.1,0.4-0.1l7-2l9.1-2.5l7.2-2.1
		c0.9-0.3,2,0.2,2.4,1.1c0.4,0.9,0.1,2-0.7,2.5l-23.4,15.6c-0.7,0.5-1.6,0.4-2.3,0L154,190c-0.3,0.4-0.7,0.6-1.2,0.7
		c-0.8,0.1-1.6-0.2-2-0.8s-0.7-1.2-0.9-1.7c-0.1-0.1-0.1-0.2-0.1-0.3l0,0l-4.7-9.9l-1.1-2.2C143.7,174.9,143.9,174,144.5,173.4z
		 M149.7,182.9l1.9,4.1c0,0.1,0.1,0.1,0.1,0.2c0,0.1,0.1,0.1,0.1,0.2c0.1,0.1,0.1,0.2,0.2,0.4l0,0c0.2,0.3,0.3,0.7,0.5,1
		c0.1-0.2,0-0.5,0-0.8c0-0.1,0-0.2,0-0.2l-0.1-1.5l12.3,9l23.4-15.6l-7.2,2.1l-9.1,2.5l-7,2c-0.1,0-0.2,0.1-0.3,0.1
		c-0.3,0.1-0.5,0.2-0.7,0.2c-0.1,0-0.3-0.1-0.4-0.1c-0.1,0-0.1,0-0.1-0.1l-1.7-0.7l-6.8-2.8c-0.3-0.1-0.5-0.4-0.8-0.6
		c-0.1-0.1-0.1-0.1-0.2-0.2l-1.1-1.1l-3.9-3.7l-1.7-1.6l-0.1-0.1c-0.3-0.3-0.6-0.5-0.9-0.7l1.1,2.2L149.7,182.9z"/>
	<path class="st41" d="M189,154.9C188.6,154.7,189.4,155,189,154.9l-0.2,5.1l2.7,12.5l0.2,0.8l0.1,0.4l3.2,21.1l2,2.4l1.9,0.7v0.8
		c0,0.3,0.1,0.7-0.2,0.9c-0.3,0.3-0.7,0.5-1.1,0.7L171.3,213h-0.1h-0.4c0.2-0.5,0.5-0.9,0.7-1.4l1.5-2.5l4.5-8.2l8.3-15.5l5.9-11.7
		c0-0.2,0-0.3-0.1-0.4c-0.3-0.8-0.4-1.7-0.6-2.5l-1.1-5l-0.9-4.1c-0.1-0.5-0.3-1.2-0.3-1.7c-0.1-0.7,0-1.4,0.1-2L189,154.9z"/>
	<path class="st1" d="M189.5,173v-0.1l0,0c-0.1-0.3-0.1-0.6-0.2-0.8l-1.5-7l-0.7-2.9l0,0c0-0.1,0-0.2-0.1-0.3
		c-0.1-0.4-0.3-1.1-0.3-1.7c-0.1-0.7,0-1.4,0-1.9c0-0.1,0-0.2,0-0.3l0.1-2.5c0-0.1,0-0.2-0.1-0.2c0-0.1,0-0.3,0-0.5s0.1-0.4,0.2-0.6
		c0.1-0.2,0.2-0.4,0.4-0.6c0.1-0.2,0.3-0.3,0.4-0.3c0.1-0.1,0.3-0.1,0.4-0.2c0.1,0,0.2-0.1,0.3-0.1c0.2,0,0.3,0,0.4,0
		c0.1,0,0.2,0,0.2,0c0.1,0,0.1,0,0.1,0c0.1,0,0.1,0,0.2,0h0.1h0.1h0.1c0.1,0,0.1,0,0.1,0.1c0,0,0.1,0,0.1,0.1c0,0,0.1,0,0.1,0.1
		c0,0,0.1,0,0.1,0.1c0,0,0,0,0.1,0.1l0.1,0.1l0.1,0.1c0,0,0.1,0.1,0.1,0.2c0.1,0.1,0.1,0.2,0.2,0.3c0,0.1,0.1,0.2,0.1,0.3
		s0.1,0.2,0.1,0.4s0,0.4,0,0.6c0,0.1-0.1,0.3-0.1,0.4l-0.2,4.1l1,4.4l0.3,1.2l1.1,5l0,0c0.1,0.3,0.1,0.6,0.2,0.9v0.1l0.1,0.6
		l0.2,0.7v0.1l0,0c0,0.1,0.1,0.4,0.1,0.6l3.1,20.4l1.3,1.6l1.4,0.5c0.8,0.3,1.3,1.1,1.3,1.9v0.8l0,0c0,0,0,0,0,0.1v0.1
		c0,0.1,0,0.3,0,0.5c0,0.5-0.2,1.1-0.8,1.7c-0.6,0.6-1.3,0.9-1.7,1l-26.2,12.6c-0.4,0.2-0.9,0.3-1.4,0.1h-0.1
		c-0.6-0.1-1.1-0.4-1.5-0.9c-0.3-0.5-0.4-1.2-0.2-1.7c0.1-0.4,0.4-0.8,0.5-1.1c0.1-0.1,0.2-0.3,0.2-0.4l0,0c0.1-0.1,0.1-0.2,0.2-0.3
		l0,0l1.4-2.5l4.5-8.1l8.3-15.5l5.6-11C189.6,173.3,189.6,173.2,189.5,173z M191.7,173.3l0.1,0.4l-5.9,11.7l-8.3,15.5l-4.5,8.2
		l-1.5,2.5c-0.1,0.1-0.1,0.2-0.2,0.3v0.1c-0.1,0.2-0.2,0.3-0.3,0.5s-0.2,0.3-0.2,0.5h0.4h0.1l26.2-12.6c0.4-0.2,0.8-0.4,1.1-0.7
		c0.2-0.2,0.2-0.5,0.2-0.7c0-0.1,0-0.1,0-0.2V198l-1.9-0.7l-2-2.4l-3.2-21.1C191.7,173.6,191.7,173.5,191.7,173.3L191.7,173.3z
		 M191.4,172.5l0.2,0.8C191.6,173,191.5,172.8,191.4,172.5z M191.4,172.5l-0.2-0.8c0-0.1,0-0.1,0-0.2c0-0.2-0.1-0.5-0.1-0.7l-1.1-5
		l-0.3-1.2l-1-4.7l0.1-2l0.1-3.1l1.9,0.1c0-0.2,0-0.3,0-0.5c0-0.1-0.1-0.3-0.1-0.4c0-0.1-0.1-0.2-0.1-0.2c-0.1-0.1-0.1-0.2-0.2-0.3
		c0-0.1-0.1-0.1-0.1-0.2l-0.1-0.1l-0.1-0.1c-0.1,0-0.1-0.1-0.1-0.1l0,0l-1,1.7l0.8-1.9l0,0h-0.1h-0.1h-0.1c0,0-0.1,0-0.2,0
		c-0.1,0-0.2,0-0.3,0s-0.2,0-0.3,0.1c-0.1,0-0.2,0.1-0.3,0.1c-0.1,0.1-0.3,0.2-0.4,0.3c-0.1,0.1-0.3,0.3-0.4,0.5
		c-0.1,0.2-0.2,0.4-0.2,0.6c0,0.1,0,0.1,0,0.2l1.9,0.1l-0.1,3.1c0,0.2,0,0.3,0,0.5c0,0.5-0.1,1,0,1.5c0,0.4,0.1,0.8,0.2,1.2
		c0,0.2,0.1,0.3,0.1,0.5l0.7,3l0.3,1.2l1.1,5l0.2,0.9C191.3,172,191.4,172.2,191.4,172.5z"/>
	<path class="st40" d="M194.9,194.7l3.9,4.6l0.1-0.5c0,0.3,0.1,0.7-0.2,0.9c-0.3,0.3-0.7,0.5-1.1,0.7L171.3,213h-0.1
		c0.1-0.2,0.3-0.3,0.5-0.4l1.2-0.8l2.7-2l7.5-5.8L194.9,194.7z"/>
	<path class="st1" d="M193.6,193.1c0.8-0.7,2.1-0.5,2.7,0.3l3,3.5c0.9,0.2,1.5,1,1.5,2c0,0,0,0,0,0.1v0.1c0,0.1,0,0.3,0,0.5
		c0,0.5-0.2,1.1-0.8,1.7c-0.6,0.6-1.3,0.9-1.7,1l-26.2,12.6c-0.5,0.3-1.2,0.3-1.7,0h-0.1c-0.5-0.2-0.9-0.7-1.1-1.2
		c-0.2-0.5-0.1-1.1,0.2-1.6c0.1-0.2,0.3-0.4,0.4-0.5c0.1-0.1,0.2-0.2,0.3-0.3s0.2-0.1,0.2-0.2h0.1l0,0l0,0l1.1-0.8l2.7-2l7.5-5.8
		L193.6,193.1z M172.7,214.3L172.7,214.3L172.7,214.3L172.7,214.3z M197.5,200.4c0.4-0.2,0.8-0.4,1.1-0.7c0.1-0.1,0.2-0.3,0.2-0.4
		v-0.1c0-0.1,0-0.1,0-0.2c0-0.1,0-0.1,0-0.2l-0.1,0.5l-3.9-4.6l-11.8,9.2l-7.5,5.8l-2.7,2l-1.2,0.8l-0.1,0.1c-0.1,0-0.1,0.1-0.2,0.1
		c-0.1,0-0.1,0.1-0.2,0.2c0,0,0,0,0,0.1h0.1L197.5,200.4z"/>
	<path class="st40" d="M146.5,198.5c0.4,0.2,0.8,0.4,1.2,0.7l1.9,1.1l5.3,3.1l15.4,9.8c-0.4-0.1-0.7-0.2-1-0.4l-2-1l-5-2.5
		l-12.4-6.2l-7.6-4C142.5,198.8,145.8,198.5,146.5,198.5z"/>
	<path class="st41" d="M150.7,154.8l-0.7-15.2l10.9,10.1l3.2,2h12.2l3.5-3.4c0.7-0.5,1.3-1.2,1.9-1.8l3.9-3.6c0.6-0.5,1.1-1,1.7-1.5
		c0.5-0.5,0.9-1,1.6-1.2c0.2,0,0.2,0,0.3,0.2c0.1,0.6,0.1,1.4,0.1,2v3.9c0,0.6-0.1,1.3,0,1.9l-0.3,6.6l-0.1,3.1c0,0.7-0.1,1.4-0.1,2
		s0.2,1.2,0.3,1.7l0.9,4.1l1.1,5c0.2,0.8,0.3,1.7,0.6,2.5c-1.3-0.7-2.6-1.7-3.8-2.5l-5.9-3.9l-8.8,5.3l-6.9-2.2l-2.6-8.9
		c0.1-0.6-0.5-1.4-0.8-1.9c-0.9-1.4-1.8-2.7-2.9-4l-1.2-1.3c-0.1-0.1-0.4-0.4-0.5-0.6c-0.1-0.2,0-0.7,0-0.9c-0.7,0.1-1.5,0.7-2.1,1
		c-0.1,0.1-0.2,0.1-0.3,0.1c-0.4,0.2-0.7,0.5-1.1,0.7l-4.1,2.5L150.7,154.8z"/>
	<path class="st42" d="M171.6,163.8l1.9,0.1h2.5l-0.5,4.5l-6.9-0.3c0.5-0.7,1.1-1.4,1.5-2.2l0.4-0.6L171.6,163.8z"/>
	<path class="st43" d="M171.6,163.8l1.9,0.1h0.1c0.3,0.1,0.9,0,1.2,0c-0.4,0.5-0.8,1-1.2,1.5s-0.9,1.1-1.4,1.5
		c-0.5-0.4-1-0.8-1.4-1.3l-0.3-0.3L171.6,163.8z"/>
	<path class="st4" d="M171.8,164.5c0.2,0,0.5,0,0.7,0.2c0.2,0.1,0.2,0.3,0.2,0.5s-0.2,0.4-0.4,0.5c-0.2,0-0.5,0-0.7-0.2
		c-0.1-0.1-0.2-0.3-0.2-0.5C171.5,164.7,171.6,164.6,171.8,164.5z"/>
	<path class="st44" d="M158.4,152.3l-8.4-12.7c0.6,0.3,1.1,0.8,1.6,1.2l3.1,2.6l6.7,6.1l2.7,2.6l-3.8,0.1
		C159.7,152.2,158.8,152.1,158.4,152.3z"/>
	<path class="st4" d="M150.7,154.8l-0.6-14.4l5.7,13.1c-0.4,0.2-0.7,0.5-1.1,0.7l-4.1,2.5L150.7,154.8z"/>
	<path class="st45" d="M173.3,152.7h0.3l-2,11.1l-1.1,1.5l-0.4,0.6l-0.1-0.1l-0.1-0.1c-1.1-1.1-2.4-2-3.7-3l-2.5-1.9
		c2.6-1.8,5-4,7.4-6.1l1.3-1.2c0.2-0.2,0.5-0.4,0.6-0.6C173.3,153,173.3,152.8,173.3,152.7z"/>
	<path class="st45" d="M188.2,141l-1.6,20.2l-5-3.7l-4-3L188.2,141z"/>
	<path class="st4" d="M155.9,153.5c0.1,0,0.2-0.1,0.3-0.1c0.6-0.4,1.4-0.9,2.1-1c0,0.2-0.1,0.7,0,0.9c0,0.2,0.3,0.5,0.5,0.6l1.2,1.3
		c1.1,1.3,2,2.6,2.9,4c0.3,0.5,0.9,1.3,0.8,1.9l2.6,8.9l6.9,2.2l8.8-5.3l5.9,3.9c1.2,0.8,2.5,1.8,3.8,2.5l-0.6-2.5l3.8,24l3.2,3.7
		l0.7,0.3c0,0.3,0.1,0.7-0.2,0.9c-0.3,0.3-0.7,0.5-1.1,0.7L171.3,213h-0.1h-0.4c-0.1,0.1-0.1,0.3-0.2,0.4l-0.3-0.2l-15.4-9.8
		l-5.3-3.1l-1.9-1.1c-0.4-0.2-1.2-0.7-1.2-0.7l6.2-9.4l-6.9-14.2l1.6-9.3l3.3-8.8l4.1-2.5C155.2,154,155.5,153.7,155.9,153.5z"/>
	<path class="st43" d="M158.2,171.6c0.5,0.5,1.2,0.8,1.8,1.2l3,2c-0.2,0.3-0.6,0.7-0.8,1l-2.9,3.1c-0.3,0.3-0.8,0.7-1.1,1.1l3.7,1.3
		l1.8,0.7c0.1,0,0.4,0.2,0.5,0.2c0.2,0,0.9-0.5,1.1-0.6l5-2.7c0.7-0.4,1.5-0.9,2.2-1.1l-3.2,1.9l-4.3,2.5c-0.2,0.1-0.7,0.5-0.9,0.5
		c-0.1,0-0.6-0.2-0.7-0.2l-4-1.2c-0.4-0.1-1-0.4-1.4-0.3l-4,1.2c0.4-0.3,0.8-0.6,1.3-0.9c0.8-0.5,1.5-0.9,2.3-1.3
		c-0.2-0.2-0.5-0.4-0.7-0.7c-0.6-0.7-1.1-1.4-1.7-2.2l-2-3.1L158.2,171.6z"/>
	<path class="st41" d="M152.7,189.2c0.2,0.6,0.3,1.3,0.4,1.9l0.4,3c0.5,3.1,1.1,6.2,1.3,9.3l-5.3-3.1l-1.9-1.1
		c-0.4-0.2-0.8-0.5-1.2-0.7L152.7,189.2z"/>
	
		<linearGradient id="SVGID_00000130629349034034107050000005412180054645327760_" gradientUnits="userSpaceOnUse" x1="148.0833" y1="400.0217" x2="163.3053" y2="401.5717" gradientTransform="matrix(1 0 0 1 0 -239.2676)">
		<stop  offset="0" style="stop-color:#FFBD03"/>
		<stop  offset="1" style="stop-color:#FEE104"/>
	</linearGradient>
	<path style="fill:url(#SVGID_00000130629349034034107050000005412180054645327760_);" d="M155.9,153.5c0.1,0,0.2-0.1,0.3-0.1
		c0.6-0.4,1.4-0.9,2.1-1c0,0.2-0.1,0.7,0,0.9c0,0.2,0.3,0.5,0.5,0.6l1.2,1.3c1.1,1.3,2,2.6,2.9,4c0.3,0.5,0.9,1.3,0.8,1.9
		c-0.4,0.7-3.9,7.3-4.2,7.5c-0.4,0.2-1,0.4-1.5,0.5l-4.5,1.6l-5.9-5.2l3.3-8.7l4.1-2.5C155.2,154,155.5,153.7,155.9,153.5z"/>
	<path class="st43" d="M154.9,163.1c0.5,0.4,1.2,0.7,1.8,1h0.1l1.2,3.2l-2.1-0.2l-2-0.2c-0.3-0.9-0.8-1.9-1.2-2.8L154.9,163.1z"/>
	<path class="st4" d="M154.6,163.9c0.3,0,0.4,0.1,0.6,0.3c0.1,0.2,0.1,0.4,0,0.6c-0.1,0.2-0.3,0.3-0.5,0.4c-0.3,0-0.5-0.1-0.7-0.3
		c-0.1-0.1-0.1-0.3,0-0.4C154.1,164.2,154.4,164.1,154.6,163.9z"/>
	<path class="st47" d="M145.9,174.9c0.4,0.2,0.7,0.5,1,0.8l1.7,1.6l3.9,3.7l1.1,1.1c0.3,0.3,0.5,0.6,0.9,0.8l6.8,2.8l1.7,0.7
		c0.1,0.1,0.4,0.2,0.6,0.2c0.3,0,0.8-0.2,1.1-0.3l7-2l9.1-2.5l7.2-2.1l-23.4,15.6l-12.3-9l0.1,1.5c0,0.3,0.1,0.7,0.1,1
		c-0.4-0.5-0.6-1.2-0.9-1.7l-1.9-4.1l-2.8-5.8L145.9,174.9z"/>
	<path class="st41" d="M189,154.9C188.6,154.7,189.4,155,189,154.9l-0.2,5.1l2.7,12.5l0.2,0.8l0.1,0.4l3.2,21.1l2,2.4l1.9,0.7v0.8
		c0,0.3,0.1,0.7-0.2,0.9c-0.3,0.3-0.7,0.5-1.1,0.7L171.3,213h-0.1h-0.4c0.2-0.5,0.5-0.9,0.7-1.4l1.5-2.5l4.5-8.2l8.3-15.5l5.9-11.7
		c0-0.2,0-0.3-0.1-0.4c-0.3-0.8-0.4-1.7-0.6-2.5l-1.1-5l-0.9-4.1c-0.1-0.5-0.3-1.2-0.3-1.7c-0.1-0.7,0-1.4,0.1-2L189,154.9z"/>
	<path class="st40" d="M194.9,194.7l3.9,4.6l0.1-0.5c0,0.3,0.1,0.7-0.2,0.9c-0.3,0.3-0.7,0.5-1.1,0.7L171.3,213h-0.1
		c0.1-0.2,0.3-0.3,0.5-0.4l1.2-0.8l2.7-2l7.5-5.8L194.9,194.7z"/>
	
		<linearGradient id="SVGID_00000044166789022035115270000001571835489442244999_" gradientUnits="userSpaceOnUse" x1="170.3" y1="457.6676" x2="170.3" y2="356.9676" gradientTransform="matrix(1 0 0 1 0 -239.2676)">
		<stop  offset="0" style="stop-color:#9C3600"/>
		<stop  offset="4.000000e-02" style="stop-color:#A44401"/>
		<stop  offset="0.25" style="stop-color:#CD8909"/>
		<stop  offset="0.4" style="stop-color:#E7B40D"/>
		<stop  offset="0.48" style="stop-color:#F1C40F"/>
		<stop  offset="0.53" style="stop-color:#F2C615"/>
		<stop  offset="0.6" style="stop-color:#F3CC25"/>
		<stop  offset="0.67" style="stop-color:#F7D53F"/>
		<stop  offset="0.75" style="stop-color:#FBE363"/>
		<stop  offset="0.81" style="stop-color:#FFF088"/>
		<stop  offset="1" style="stop-color:#FFF8D6"/>
	</linearGradient>
	<path style="fill-rule:evenodd;clip-rule:evenodd;fill:url(#SVGID_00000044166789022035115270000001571835489442244999_);" d="
		M213.9,142.9l-43.6-25.2l-43.6,25.2v50.3l43.6,25.2l43.6-25.2V142.9z M169.4,122.9c0.3-0.2,0.7-0.3,1.1-0.3l0,0
		c0.4,0,0.8,0.1,1.1,0.3l37.4,21.6c0.3,0.2,0.6,0.5,0.8,0.8s0.3,0.7,0.3,1.1v43.2c0,0.4-0.1,0.8-0.3,1.1s-0.5,0.6-0.8,0.8
		l-37.4,21.6c-0.3,0.2-0.7,0.3-1.1,0.3c-0.4,0-0.8-0.1-1.1-0.3L132,191.5c-0.3-0.2-0.6-0.5-0.8-0.8s-0.3-0.7-0.3-1.1v-43.2
		c0-0.4,0.1-0.8,0.3-1.1s0.5-0.6,0.8-0.8L169.4,122.9z"/>
	<path class="st22" d="M170.5,125.6l1.9,1.1l33.7,19.5l1.9,1.1v43.2l-1.9,1.1L172.3,211l-1.9,1.1l-1.9-1.1l-33.7-19.5l-1.9-1.1
		v-43.2l1.9-1.1l33.7-19.5L170.5,125.6z M170.5,123.4c-0.4,0-0.8,0.1-1.1,0.3l-1.9,1.1l-33.7,19.5l-1.9,1.1
		c-0.3,0.2-0.6,0.5-0.8,0.8s-0.3,0.7-0.3,1.1v43.2c0,0.4,0.1,0.8,0.3,1.1s0.5,0.6,0.8,0.8l1.9,1.1l33.7,19.5l1.9,1.1
		c0.3,0.2,0.7,0.3,1.1,0.3c0.4,0,0.8-0.1,1.1-0.3l1.9-1.1l33.7-19.4l1.9-1.1c0.3-0.2,0.6-0.5,0.8-0.8s0.3-0.7,0.3-1.1v-43.2
		c0-0.4-0.1-0.8-0.3-1.1s-0.5-0.6-0.8-0.8l-1.9-1.1l-33.7-19.5l-1.9-1.1C171.3,123.5,170.9,123.4,170.5,123.4L170.5,123.4z"/>
	<path class="st22" d="M170.2,120.2l2.1,1.2l37.6,21.7l2.1,1.2v48.2l-2.1,1.2l-37.6,21.7l-2.1,1.2l-2.1-1.2l-37.6-21.7l-2.1-1.2
		v-48.2l2.1-1.2l37.6-21.7L170.2,120.2z M170.2,117.7c-0.4,0-0.9,0.1-1.2,0.3l-2.1,1.2l-37.6,21.7l-2.1,1.2
		c-0.4,0.2-0.7,0.5-0.9,0.9c-0.2,0.4-0.3,0.8-0.3,1.3v48.2c0,0.4,0.1,0.9,0.3,1.3c0.2,0.4,0.5,0.7,0.9,0.9l2.1,1.2l37.6,21.7
		l2.1,1.2c0.4,0.2,0.8,0.3,1.3,0.3c0.4,0,0.9-0.1,1.3-0.3l2.1-1.2l37.6-21.7l2.1-1.2c0.4-0.2,0.7-0.5,0.9-0.9s0.3-0.8,0.3-1.3v-48.2
		c0-0.4-0.1-0.9-0.3-1.3c-0.2-0.4-0.5-0.7-0.9-0.9l-2.1-1.2l-37.6-21.7l-2.1-1.2C171.1,117.8,170.6,117.7,170.2,117.7L170.2,117.7z"
		/>
	
		<linearGradient id="SVGID_00000077318027288293884000000008102389004012978056_" gradientUnits="userSpaceOnUse" x1="111.1" y1="499.8676" x2="111.1" y2="399.1676" gradientTransform="matrix(1 0 0 1 0 -239.2676)">
		<stop  offset="0" style="stop-color:#9C3600"/>
		<stop  offset="4.000000e-02" style="stop-color:#A44401"/>
		<stop  offset="0.25" style="stop-color:#CD8909"/>
		<stop  offset="0.4" style="stop-color:#E7B40D"/>
		<stop  offset="0.48" style="stop-color:#F1C40F"/>
		<stop  offset="0.53" style="stop-color:#F2C615"/>
		<stop  offset="0.6" style="stop-color:#F3CC25"/>
		<stop  offset="0.67" style="stop-color:#F7D53F"/>
		<stop  offset="0.75" style="stop-color:#FBE363"/>
		<stop  offset="0.81" style="stop-color:#FFF088"/>
		<stop  offset="1" style="stop-color:#FFF8D6"/>
	</linearGradient>
	<path style="fill:url(#SVGID_00000077318027288293884000000008102389004012978056_);" d="M111.1,159.9l43.6,25.2v50.3l-43.6,25.2
		l-43.6-25.2v-50.3L111.1,159.9z"/>
	<path class="st51" d="M111,164.8v44.7l-38.7-22.3L111,164.8z"/>
	<path class="st52" d="M111,209.4l-38.7,22.3V187L111,209.4z"/>
	<path class="st53" d="M111,209.4v44.7l-38.7-22.3L111,209.4z"/>
	<path class="st54" d="M111,164.8l38.7,22.3L111,209.4V164.8z"/>
	<path class="st55" d="M111,209.4l38.7,22.3L111,254.1V209.4z"/>
	<path class="st56" d="M111,209.4l38.7-22.3v44.7L111,209.4z"/>
	<path class="st22" d="M110.9,161.6l2.1,1.2l37.6,21.7l2.1,1.2V234l-2.1,1.2L113,256.9l-2.1,1.2l-2.1-1.2l-37.6-21.7l-2.1-1.2v-48.2
		l2.1-1.2l37.6-21.7L110.9,161.6z M110.9,159.1c-0.4,0-0.9,0.1-1.2,0.3l-2.1,1.2L70,182.3l-2.1,1.2c-0.4,0.2-0.7,0.5-0.9,0.9
		c-0.2,0.4-0.3,0.8-0.3,1.3V234c0,0.4,0.1,0.9,0.3,1.3c0.2,0.4,0.5,0.7,0.9,0.9l2.1,1.2l37.6,21.7l2.1,1.2c0.4,0.2,0.8,0.3,1.3,0.3
		c0.4,0,0.9-0.1,1.3-0.3l2.1-1.2l37.6-21.7l2.1-1.2c0.4-0.2,0.7-0.5,0.9-0.9s0.3-0.8,0.3-1.3v-48.2c0-0.4-0.1-0.9-0.3-1.3
		c-0.2-0.4-0.5-0.7-0.9-0.9l-2.1-1.2l-37.6-21.7l-2.1-1.2C111.8,159.2,111.4,159.1,110.9,159.1L110.9,159.1z"/>
	<path class="st22" d="M111.2,167l1.9,1.1l33.7,19.5l1.9,1.1v43.2l-1.9,1.1l-33.7,19.5l-1.9,1.1l-1.9-1.1L75.6,233l-1.9-1.1v-43.2
		l1.9-1.1l33.7-19.5L111.2,167z M111.2,164.8c-0.4,0-0.8,0.1-1.1,0.3l-1.9,1.1l-33.7,19.5l-1.9,1.1c-0.3,0.2-0.6,0.5-0.8,0.8
		c-0.2,0.3-0.3,0.7-0.3,1.1v43.2c0,0.4,0.1,0.8,0.3,1.1c0.2,0.3,0.5,0.6,0.8,0.8l1.9,1.1l33.7,19.5l1.9,1.1c0.3,0.2,0.7,0.3,1.1,0.3
		s0.8-0.1,1.1-0.3l1.9-1.1l33.7-19.4l1.9-1.1c0.3-0.2,0.6-0.5,0.8-0.8s0.3-0.7,0.3-1.1v-43.2c0-0.4-0.1-0.8-0.3-1.1
		s-0.5-0.6-0.8-0.8l-1.9-1.1l-33.7-19.5l-1.9-1.1C112,164.9,111.6,164.8,111.2,164.8L111.2,164.8z"/>
	
		<linearGradient id="SVGID_00000147916749512366301970000000789035475358522296_" gradientUnits="userSpaceOnUse" x1="110.9" y1="481.1676" x2="110.9" y2="432.4676" gradientTransform="matrix(1 0 0 1 0 -239.2676)">
		<stop  offset="0" style="stop-color:#9C3600"/>
		<stop  offset="4.000000e-02" style="stop-color:#A44401"/>
		<stop  offset="0.25" style="stop-color:#CD8909"/>
		<stop  offset="0.4" style="stop-color:#E7B40D"/>
		<stop  offset="0.48" style="stop-color:#F1C40F"/>
		<stop  offset="0.53" style="stop-color:#F2C615"/>
		<stop  offset="0.6" style="stop-color:#F3CC25"/>
		<stop  offset="0.67" style="stop-color:#F7D53F"/>
		<stop  offset="0.75" style="stop-color:#FBE363"/>
		<stop  offset="0.81" style="stop-color:#FFF088"/>
		<stop  offset="1" style="stop-color:#FFF8D6"/>
	</linearGradient>
	<path style="fill-rule:evenodd;clip-rule:evenodd;fill:url(#SVGID_00000147916749512366301970000000789035475358522296_);" d="
		M135.7,193.2l-24.8,48.7l-24.8-48.7H135.7z M108.9,197.4v31.8l-14.6-31.8H108.9z M112.9,197.4v31.8l14.6-31.8H112.9z"/>
	<path class="st1" d="M110.9,243.9c-0.8,0-1.4-0.4-1.8-1.1l-24.8-48.7c-0.3-0.6-0.3-1.4,0.1-2s1-1,1.7-1h49.5c0.7,0,1.3,0.4,1.7,1
		s0.4,1.3,0.1,2l-24.8,48.7C112.3,243.5,111.7,243.9,110.9,243.9z M86.1,193.2h49.5l-24.8,48.7L86.1,193.2z M108.9,197.4v31.8
		l-14.6-31.8H108.9z M97.4,199.4l9.5,20.6v-20.6H97.4z M112.9,229.2l14.6-31.8h-14.6V229.2z M114.9,220.1l9.5-20.6h-9.5V220.1z"/>
	
		<linearGradient id="SVGID_00000146498150588957668020000004965105123529107364_" gradientUnits="userSpaceOnUse" x1="178.9" y1="561.351" x2="178.9" y2="509.851" gradientTransform="matrix(1 0 0 1 0 -239.2676)">
		<stop  offset="0" style="stop-color:#9C3600"/>
		<stop  offset="4.000000e-02" style="stop-color:#A44401"/>
		<stop  offset="0.25" style="stop-color:#CD8909"/>
		<stop  offset="0.4" style="stop-color:#E7B40D"/>
		<stop  offset="0.48" style="stop-color:#F1C40F"/>
		<stop  offset="0.53" style="stop-color:#F2C615"/>
		<stop  offset="0.6" style="stop-color:#F3CC25"/>
		<stop  offset="0.67" style="stop-color:#F7D53F"/>
		<stop  offset="0.75" style="stop-color:#FBE363"/>
		<stop  offset="0.81" style="stop-color:#FFF088"/>
		<stop  offset="1" style="stop-color:#FFF8D6"/>
	</linearGradient>
	<path style="fill:url(#SVGID_00000146498150588957668020000004965105123529107364_);" d="M151.3,271.6h20.6l21.8,36.5v-36.5h12.8
		v47.5h-20.8l-21.6-36.5v36.5h-12.8V271.6z"/>
	
		<linearGradient id="SVGID_00000124874187208304435810000016156973499058136196_" gradientUnits="userSpaceOnUse" x1="140.3" y1="561.351" x2="140.3" y2="509.851" gradientTransform="matrix(1 0 0 1 0 -239.2676)">
		<stop  offset="0" style="stop-color:#9C3600"/>
		<stop  offset="4.000000e-02" style="stop-color:#A44401"/>
		<stop  offset="0.25" style="stop-color:#CD8909"/>
		<stop  offset="0.4" style="stop-color:#E7B40D"/>
		<stop  offset="0.48" style="stop-color:#F1C40F"/>
		<stop  offset="0.53" style="stop-color:#F2C615"/>
		<stop  offset="0.6" style="stop-color:#F3CC25"/>
		<stop  offset="0.67" style="stop-color:#F7D53F"/>
		<stop  offset="0.75" style="stop-color:#FBE363"/>
		<stop  offset="0.81" style="stop-color:#FFF088"/>
		<stop  offset="1" style="stop-color:#FFF8D6"/>
	</linearGradient>
	<path style="fill:url(#SVGID_00000124874187208304435810000016156973499058136196_);" d="M146.6,319.2H134v-47.6h12.6V319.2z"/>
	
		<linearGradient id="SVGID_00000003104221144775713080000004867017697792930227_" gradientUnits="userSpaceOnUse" x1="102.3" y1="561.351" x2="102.3" y2="509.851" gradientTransform="matrix(1 0 0 1 0 -239.2676)">
		<stop  offset="0" style="stop-color:#9C3600"/>
		<stop  offset="4.000000e-02" style="stop-color:#A44401"/>
		<stop  offset="0.25" style="stop-color:#CD8909"/>
		<stop  offset="0.4" style="stop-color:#E7B40D"/>
		<stop  offset="0.48" style="stop-color:#F1C40F"/>
		<stop  offset="0.53" style="stop-color:#F2C615"/>
		<stop  offset="0.6" style="stop-color:#F3CC25"/>
		<stop  offset="0.67" style="stop-color:#F7D53F"/>
		<stop  offset="0.75" style="stop-color:#FBE363"/>
		<stop  offset="0.81" style="stop-color:#FFF088"/>
		<stop  offset="1" style="stop-color:#FFF8D6"/>
	</linearGradient>
	<path style="fill:url(#SVGID_00000003104221144775713080000004867017697792930227_);" d="M112.9,271.6c13.3,0,17.4,6.1,17.4,19.2
		v9.9c0,13.5-5.9,18.4-19.2,18.4H93.4c-13.3,0-19.1-4.9-19.1-18.4v-9.9c0-13.1,4.1-19.2,17.4-19.2H112.9z M117.2,301.3V290
		c0-5-1.6-8.1-6.3-8.1H93.7c-4.7,0-6.3,3.1-6.3,8.1v11.3c0,6.1,2,7.4,6.4,7.4h17.1C115.2,308.7,117.2,307.5,117.2,301.3z"/>
	
		<linearGradient id="SVGID_00000183970664773766656720000012658810381782019474_" gradientUnits="userSpaceOnUse" x1="43.8491" y1="561.351" x2="43.8491" y2="509.851" gradientTransform="matrix(1 0 0 1 0 -239.2676)">
		<stop  offset="0" style="stop-color:#9C3600"/>
		<stop  offset="4.000000e-02" style="stop-color:#A44401"/>
		<stop  offset="0.25" style="stop-color:#CD8909"/>
		<stop  offset="0.4" style="stop-color:#E7B40D"/>
		<stop  offset="0.48" style="stop-color:#F1C40F"/>
		<stop  offset="0.53" style="stop-color:#F2C615"/>
		<stop  offset="0.6" style="stop-color:#F3CC25"/>
		<stop  offset="0.67" style="stop-color:#F7D53F"/>
		<stop  offset="0.75" style="stop-color:#FBE363"/>
		<stop  offset="0.81" style="stop-color:#FFF088"/>
		<stop  offset="1" style="stop-color:#FFF8D6"/>
	</linearGradient>
	<path style="fill:url(#SVGID_00000183970664773766656720000012658810381782019474_);" d="M33.6,271.6h37.7v17.1H58.7V282H35.6
		c-4.7,0-6.3,3.1-6.3,8.1v11.3c0,6.1,2,7.4,6.4,7.4h23.1V302h12.6v17.1h-36c-13.3,0-19.1-5-19.1-18.5v-9.9
		C16.2,277.7,20.4,271.6,33.6,271.6z"/>
	<path class="st1" d="M150.3,271.6c0-0.6,0.4-1,1-1h20.6c0.4,0,0.7,0.2,0.9,0.5l19.9,33.4v-32.9c0-0.6,0.4-1,1-1h12.8
		c0.6,0,1,0.4,1,1v47.5c0,0.6-0.4,1-1,1h-20.8c-0.4,0-0.7-0.2-0.9-0.5l-19.7-33.4v32.9c0,0.6-0.4,1-1,1h-12.8c-0.6,0-1-0.4-1-1
		V271.6z M152.3,272.6v45.5h10.8v-35.5c0-0.5,0.3-0.8,0.7-1c0.4-0.1,0.9,0.1,1.1,0.5l21.3,36h19.2v-45.5h-10.8v35.5
		c0,0.5-0.3,0.8-0.7,1c-0.4,0.1-0.9-0.1-1.1-0.5l-21.5-36H152.3z"/>
	<path class="st1" d="M133,271.6c0-0.6,0.4-1,1-1h12.6c0.6,0,1,0.4,1,1v47.6c0,0.6-0.4,1-1,1H134c-0.6,0-1-0.4-1-1V271.6z
		 M135,272.6v45.6h10.6v-45.6H135z"/>
	<path class="st1" d="M78.8,276.9c-2.5,2.9-3.5,7.4-3.5,13.8v9.9c0,6.6,1.4,10.9,4.3,13.6c2.8,2.7,7.3,3.9,13.8,3.9h17.7
		c6.5,0,11-1.2,13.9-3.9c2.8-2.6,4.3-6.9,4.3-13.6v-9.9c0-6.5-1-11-3.5-13.8c-2.4-2.8-6.4-4.3-12.9-4.3H91.7
		C85.2,272.6,81.2,274.1,78.8,276.9z M77.3,275.6c3-3.5,7.7-5,14.4-5h21.1c6.8,0,11.5,1.6,14.4,5s4,8.5,4,15.1v9.9
		c0,6.9-1.5,11.8-4.9,15s-8.5,4.4-15.2,4.4H93.4c-6.7,0-11.8-1.2-15.2-4.4c-3.4-3.2-4.9-8.1-4.9-15v-9.9
		C73.3,284.1,74.3,279,77.3,275.6z M88,283.5c1.2-1.7,3.1-2.6,5.7-2.6h17.2c2.6,0,4.5,0.9,5.7,2.6c1.2,1.6,1.6,3.9,1.6,6.5v11.3
		c0,3.1-0.5,5.3-1.8,6.7c-1.4,1.4-3.3,1.7-5.6,1.7h-17c-2.2,0-4.2-0.3-5.6-1.7c-1.3-1.4-1.8-3.6-1.8-6.7V290
		C86.4,287.5,86.8,285.2,88,283.5z M89.6,284.7c-0.8,1.1-1.2,2.9-1.2,5.4v11.3c0,3,0.5,4.5,1.3,5.3c0.7,0.8,2,1.1,4.1,1.1h17.1
		c2.2,0,3.4-0.3,4.1-1.1c0.8-0.8,1.3-2.3,1.3-5.3V290c0-2.4-0.4-4.2-1.2-5.4c-0.8-1.1-2-1.7-4.1-1.7H93.7
		C91.6,283,90.3,283.6,89.6,284.7z"/>
	<path class="st1" d="M20.7,276.9c-2.5,2.9-3.5,7.4-3.5,13.8v9.9c0,6.6,1.4,10.9,4.3,13.6c2.8,2.7,7.3,3.9,13.8,3.9h35V303H59.7v5.7
		c0,0.6-0.4,1-1,1h-23c-2.2,0-4.2-0.3-5.6-1.7c-1.3-1.4-1.8-3.6-1.8-6.7V290c0-2.6,0.4-4.8,1.6-6.5s3.1-2.6,5.7-2.6h23.1
		c0.6,0,1,0.4,1,1v5.7h10.6v-15.1H33.6C27.1,272.6,23.1,274.1,20.7,276.9z M19.2,275.6c3-3.5,7.7-5,14.4-5h37.7c0.6,0,1,0.4,1,1
		v17.1c0,0.6-0.4,1-1,1H58.7c-0.6,0-1-0.4-1-1V283H35.6c-2.1,0-3.3,0.7-4.1,1.8c-0.8,1.2-1.2,2.9-1.2,5.3v11.3c0,3,0.5,4.5,1.3,5.3
		c0.7,0.8,2,1.1,4.1,1.1h22.1V302c0-0.6,0.4-1,1-1h12.6c0.6,0,1,0.4,1,1v17.1c0,0.6-0.4,1-1,1h-36c-6.7,0-11.8-1.2-15.2-4.4
		c-3.4-3.2-4.9-8.2-4.9-15.1v-9.9C15.2,284.1,16.3,279,19.2,275.6z"/>
	
		<linearGradient id="SVGID_00000030451109305886000250000004119904519686205331_" gradientUnits="userSpaceOnUse" x1="192.05" y1="595.35" x2="192.05" y2="559.351" gradientTransform="matrix(1 0 0 1 0 -239.2676)">
		<stop  offset="0" style="stop-color:#9C3600"/>
		<stop  offset="4.000000e-02" style="stop-color:#A44401"/>
		<stop  offset="0.25" style="stop-color:#CD8909"/>
		<stop  offset="0.4" style="stop-color:#E7B40D"/>
		<stop  offset="0.48" style="stop-color:#F1C40F"/>
		<stop  offset="0.53" style="stop-color:#F2C615"/>
		<stop  offset="0.6" style="stop-color:#F3CC25"/>
		<stop  offset="0.67" style="stop-color:#F7D53F"/>
		<stop  offset="0.75" style="stop-color:#FBE363"/>
		<stop  offset="0.81" style="stop-color:#FFF088"/>
		<stop  offset="1" style="stop-color:#FFF8D6"/>
	</linearGradient>
	<path style="fill:url(#SVGID_00000030451109305886000250000004119904519686205331_);" d="M208.7,329.7h-25.6v4.9h21.6v6.3h-21.6v5
		h25.6v6.2h-33.3v-28.7h33.3V329.7z"/>
	
		<linearGradient id="SVGID_00000147917333937720718560000007138520650244223406_" gradientUnits="userSpaceOnUse" x1="156.85" y1="595.35" x2="156.85" y2="559.351" gradientTransform="matrix(1 0 0 1 0 -239.2676)">
		<stop  offset="0" style="stop-color:#9C3600"/>
		<stop  offset="4.000000e-02" style="stop-color:#A44401"/>
		<stop  offset="0.25" style="stop-color:#CD8909"/>
		<stop  offset="0.4" style="stop-color:#E7B40D"/>
		<stop  offset="0.48" style="stop-color:#F1C40F"/>
		<stop  offset="0.53" style="stop-color:#F2C615"/>
		<stop  offset="0.6" style="stop-color:#F3CC25"/>
		<stop  offset="0.67" style="stop-color:#F7D53F"/>
		<stop  offset="0.75" style="stop-color:#FBE363"/>
		<stop  offset="0.81" style="stop-color:#FFF088"/>
		<stop  offset="1" style="stop-color:#FFF8D6"/>
	</linearGradient>
	<path style="fill:url(#SVGID_00000147917333937720718560000007138520650244223406_);" d="M173.1,339.2c-0.5,3-1.6,4.8-3.9,5.8
		l4.2,7.1h-8.7l-3.6-6.3h-13.3v6.2h-7.6v-28.7h23.5c5.7,0,8.6,1.7,9.5,6.3c0.2,1.1,0.3,3.4,0.3,4.8
		C173.4,335.8,173.4,337.9,173.1,339.2z M147.8,329.7v9.5H163c1.4,0,2.6-1.2,2.6-2.6v-4.3c0-1.4-1.1-2.6-2.6-2.6H147.8z"/>
	
		<linearGradient id="SVGID_00000049939948723410542260000001287312415303760567_" gradientUnits="userSpaceOnUse" x1="133.4" y1="595.35" x2="133.4" y2="559.351" gradientTransform="matrix(1 0 0 1 0 -239.2676)">
		<stop  offset="0" style="stop-color:#9C3600"/>
		<stop  offset="4.000000e-02" style="stop-color:#A44401"/>
		<stop  offset="0.25" style="stop-color:#CD8909"/>
		<stop  offset="0.4" style="stop-color:#E7B40D"/>
		<stop  offset="0.48" style="stop-color:#F1C40F"/>
		<stop  offset="0.53" style="stop-color:#F2C615"/>
		<stop  offset="0.6" style="stop-color:#F3CC25"/>
		<stop  offset="0.67" style="stop-color:#F7D53F"/>
		<stop  offset="0.75" style="stop-color:#FBE363"/>
		<stop  offset="0.81" style="stop-color:#FFF088"/>
		<stop  offset="1" style="stop-color:#FFF8D6"/>
	</linearGradient>
	<path style="fill:url(#SVGID_00000049939948723410542260000001287312415303760567_);" d="M137.2,352.1h-7.6v-28.7h7.6V352.1z"/>
	
		<linearGradient id="SVGID_00000029035214738742129270000005494135717923017883_" gradientUnits="userSpaceOnUse" x1="111.3" y1="595.35" x2="111.3" y2="559.351" gradientTransform="matrix(1 0 0 1 0 -239.2676)">
		<stop  offset="0" style="stop-color:#9C3600"/>
		<stop  offset="4.000000e-02" style="stop-color:#A44401"/>
		<stop  offset="0.25" style="stop-color:#CD8909"/>
		<stop  offset="0.4" style="stop-color:#E7B40D"/>
		<stop  offset="0.48" style="stop-color:#F1C40F"/>
		<stop  offset="0.53" style="stop-color:#F2C615"/>
		<stop  offset="0.6" style="stop-color:#F3CC25"/>
		<stop  offset="0.67" style="stop-color:#F7D53F"/>
		<stop  offset="0.75" style="stop-color:#FBE363"/>
		<stop  offset="0.81" style="stop-color:#FFF088"/>
		<stop  offset="1" style="stop-color:#FFF8D6"/>
	</linearGradient>
	<path style="fill:url(#SVGID_00000029035214738742129270000005494135717923017883_);" d="M127.6,329.7c0.2,1.1,0.3,3.4,0.3,4.8
		s-0.1,3.5-0.2,4.7c-0.7,4.7-3.2,6.7-9.5,6.7h-15.9v6.2h-7.6v-28.7h23.5C123.8,323.4,126.7,325.1,127.6,329.7z M120,336.6v-4.3
		c0-1.4-1.1-2.6-2.6-2.6h-15.2v9.5h15.2C118.9,339.2,120,338.1,120,336.6z"/>
	
		<linearGradient id="SVGID_00000083792020806910962750000003409646267983677351_" gradientUnits="userSpaceOnUse" x1="71.45" y1="595.35" x2="71.45" y2="559.351" gradientTransform="matrix(1 0 0 1 0 -239.2676)">
		<stop  offset="0" style="stop-color:#9C3600"/>
		<stop  offset="4.000000e-02" style="stop-color:#A44401"/>
		<stop  offset="0.25" style="stop-color:#CD8909"/>
		<stop  offset="0.4" style="stop-color:#E7B40D"/>
		<stop  offset="0.48" style="stop-color:#F1C40F"/>
		<stop  offset="0.53" style="stop-color:#F2C615"/>
		<stop  offset="0.6" style="stop-color:#F3CC25"/>
		<stop  offset="0.67" style="stop-color:#F7D53F"/>
		<stop  offset="0.75" style="stop-color:#FBE363"/>
		<stop  offset="0.81" style="stop-color:#FFF088"/>
		<stop  offset="1" style="stop-color:#FFF8D6"/>
	</linearGradient>
	<path style="fill:url(#SVGID_00000083792020806910962750000003409646267983677351_);" d="M79.5,323.4h12.3v28.7h-7.6v-22l-11.6,22
		h-2.3l-11.6-22v22h-7.6v-28.7h12.3l8,15.6L79.5,323.4z"/>
	
		<linearGradient id="SVGID_00000133503703147605059370000013145195232101767827_" gradientUnits="userSpaceOnUse" x1="32.75" y1="595.35" x2="32.75" y2="559.351" gradientTransform="matrix(1 0 0 1 0 -239.2676)">
		<stop  offset="0" style="stop-color:#9C3600"/>
		<stop  offset="4.000000e-02" style="stop-color:#A44401"/>
		<stop  offset="0.25" style="stop-color:#CD8909"/>
		<stop  offset="0.4" style="stop-color:#E7B40D"/>
		<stop  offset="0.48" style="stop-color:#F1C40F"/>
		<stop  offset="0.53" style="stop-color:#F2C615"/>
		<stop  offset="0.6" style="stop-color:#F3CC25"/>
		<stop  offset="0.67" style="stop-color:#F7D53F"/>
		<stop  offset="0.75" style="stop-color:#FBE363"/>
		<stop  offset="0.81" style="stop-color:#FFF088"/>
		<stop  offset="1" style="stop-color:#FFF8D6"/>
	</linearGradient>
	<path style="fill:url(#SVGID_00000133503703147605059370000013145195232101767827_);" d="M49.4,329.7H23.8v4.9h21.6v6.3H23.8v5
		h25.6v6.2H16.1v-28.7h33.3V329.7z"/>
	<path class="st1" d="M174.5,323.4c0-0.6,0.4-1,1-1h33.3c0.6,0,1,0.4,1,1v6.3c0,0.6-0.4,1-1,1h-24.6v2.9h20.6c0.6,0,1,0.4,1,1v6.3
		c0,0.6-0.4,1-1,1h-20.6v3h24.6c0.6,0,1,0.4,1,1v6.2c0,0.6-0.4,1-1,1h-33.3c-0.6,0-1-0.4-1-1V323.4z M176.5,324.4v26.7h31.3v-4.2
		h-24.6c-0.6,0-1-0.4-1-1v-5c0-0.6,0.4-1,1-1h20.6v-4.3h-20.6c-0.6,0-1-0.4-1-1v-4.9c0-0.6,0.4-1,1-1h24.6v-4.3L176.5,324.4
		L176.5,324.4z"/>
	<path class="st1" d="M139.1,323.4c0-0.6,0.4-1,1-1h23.5c2.9,0,5.3,0.4,7.1,1.6s2.9,3,3.4,5.5l0,0c0.2,1.2,0.3,3.5,0.3,4.9
		c0,1.3,0,3.5-0.3,4.9c-0.2,1.6-0.7,2.9-1.4,4c-0.6,0.8-1.3,1.5-2.1,2l3.6,6.2c0.2,0.3,0.2,0.7,0,1s-0.5,0.5-0.9,0.5h-8.7
		c-0.4,0-0.7-0.2-0.9-0.5l-3.4-5.8h-11.7v5.2c0,0.6-0.4,1-1,1H140c-0.6,0-1-0.4-1-1L139.1,323.4L139.1,323.4z M141.1,324.4v26.7h5.6
		v-5.2c0-0.6,0.4-1,1-1H161c0.4,0,0.7,0.2,0.9,0.5l3.4,5.8h6.3l-3.3-5.6c-0.1-0.2-0.2-0.5-0.1-0.8c0.1-0.3,0.3-0.5,0.6-0.6
		c1-0.4,1.7-1,2.2-1.8s0.9-1.9,1.1-3.2l0,0c0.2-1.1,0.2-3.2,0.2-4.5c0-1.4-0.1-3.6-0.3-4.6c-0.4-2.1-1.2-3.4-2.5-4.2
		c-1.3-0.8-3.2-1.3-6-1.3h-22.4V324.4z M146.8,329.7c0-0.6,0.4-1,1-1H163c2,0,3.6,1.6,3.6,3.6v4.3c0,1.9-1.6,3.6-3.6,3.6h-15.2
		c-0.6,0-1-0.4-1-1V329.7z M148.8,330.7v7.5H163c0.9,0,1.6-0.7,1.6-1.6v-4.3c0-0.9-0.7-1.6-1.6-1.6H148.8z"/>
	<path class="st1" d="M128.6,323.4c0-0.6,0.4-1,1-1h7.6c0.6,0,1,0.4,1,1v28.7c0,0.6-0.4,1-1,1h-7.6c-0.6,0-1-0.4-1-1V323.4z
		 M130.6,324.4v26.7h5.6v-26.7H130.6z"/>
	<path class="st1" d="M93.6,323.4c0-0.6,0.4-1,1-1h23.5c2.9,0,5.3,0.4,7.1,1.6c1.8,1.2,2.9,3,3.4,5.5l0,0l0,0
		c0.2,1.2,0.3,3.5,0.3,4.9s-0.1,3.6-0.3,4.8l0,0c-0.4,2.5-1.3,4.5-3.1,5.8c-1.7,1.3-4.2,1.8-7.4,1.8h-14.9v5.2c0,0.6-0.4,1-1,1h-7.6
		c-0.6,0-1-0.4-1-1C93.6,352,93.6,323.4,93.6,323.4z M95.6,324.4v26.7h5.6v-5.2c0-0.6,0.4-1,1-1h15.9c3.1,0,5-0.5,6.3-1.4
		c1.2-0.9,1.9-2.2,2.2-4.4c0.2-1.2,0.2-3.2,0.2-4.6s-0.1-3.6-0.3-4.6c-0.4-2.1-1.2-3.4-2.5-4.2c-1.3-0.8-3.2-1.3-6-1.3H95.6z
		 M101.3,329.7c0-0.6,0.4-1,1-1h15.2c2,0,3.6,1.6,3.6,3.6v4.3c0,2-1.6,3.6-3.6,3.6h-15.2c-0.6,0-1-0.4-1-1V329.7z M103.3,330.7v7.5
		h14.2c0.9,0,1.6-0.7,1.6-1.6v-4.3c0-0.9-0.7-1.6-1.6-1.6H103.3z"/>
	<path class="st1" d="M50.1,323.4c0-0.6,0.4-1,1-1h12.3c0.4,0,0.7,0.2,0.9,0.5l7.1,13.9l7.2-13.9c0.2-0.3,0.5-0.5,0.9-0.5h12.3
		c0.6,0,1,0.4,1,1v28.7c0,0.6-0.4,1-1,1h-7.6c-0.6,0-1-0.4-1-1v-18l-9.7,18.4c-0.2,0.3-0.5,0.5-0.9,0.5h-2.3c-0.4,0-0.7-0.2-0.9-0.5
		l-9.7-18.4v18c0,0.6-0.4,1-1,1h-7.6c-0.6,0-1-0.4-1-1C50.1,352.1,50.1,323.4,50.1,323.4z M52.1,324.4v26.7h5.6v-21
		c0-0.5,0.3-0.9,0.8-1c0.4-0.1,0.9,0.1,1.1,0.5l11.3,21.5h1l11.3-21.5c0.2-0.4,0.7-0.6,1.1-0.5s0.8,0.5,0.8,1v21h5.6v-26.7H80.1
		l-7.8,15c-0.2,0.3-0.5,0.5-0.9,0.5s-0.7-0.2-0.9-0.5l-7.8-15H52.1z"/>
	<path class="st1" d="M15.1,323.4c0-0.6,0.4-1,1-1h33.3c0.6,0,1,0.4,1,1v6.3c0,0.6-0.4,1-1,1H24.8v2.9h20.6c0.6,0,1,0.4,1,1v6.3
		c0,0.6-0.4,1-1,1H24.8v3h24.6c0.6,0,1,0.4,1,1v6.2c0,0.6-0.4,1-1,1H16.1c-0.6,0-1-0.4-1-1V323.4z M17.1,324.4v26.7h31.3v-4.2H23.8
		c-0.6,0-1-0.4-1-1v-5c0-0.6,0.4-1,1-1h20.6v-4.3H23.8c-0.6,0-1-0.4-1-1v-4.9c0-0.6,0.4-1,1-1h24.6v-4.3L17.1,324.4L17.1,324.4z"/>
	<g>
		
			<linearGradient id="SVGID_00000057848007815925040700000001018895765597262245_" gradientUnits="userSpaceOnUse" x1="56.7035" y1="431.2694" x2="46.1596" y2="385.3752" gradientTransform="matrix(1 0 0 1 0 -239.2676)">
			<stop  offset="0" style="stop-color:#9C3600"/>
			<stop  offset="4.000000e-02" style="stop-color:#A44401"/>
			<stop  offset="0.25" style="stop-color:#CD8909"/>
			<stop  offset="0.4" style="stop-color:#E7B40D"/>
			<stop  offset="0.48" style="stop-color:#F1C40F"/>
			<stop  offset="0.53" style="stop-color:#F2C615"/>
			<stop  offset="0.6" style="stop-color:#F3CC25"/>
			<stop  offset="0.67" style="stop-color:#F7D53F"/>
			<stop  offset="0.75" style="stop-color:#FBE363"/>
			<stop  offset="0.81" style="stop-color:#FFF088"/>
			<stop  offset="1" style="stop-color:#FFF8D6"/>
		</linearGradient>
		<path style="fill:url(#SVGID_00000057848007815925040700000001018895765597262245_);" d="M67.7,160.6c-0.4-5-4.7-6.7-10.1-7.3
			l0.1-6.9l-4.2-0.1l-0.1,6.7c-1.1,0-2.2,0-3.4,0l0.1-6.8l-4.2-0.1l-0.1,6.9c-0.9,0-1.8,0-2.7,0l0,0l-5.8-0.1l-0.1,4.5
			c0,0,3.1,0,3.1,0.1c1.7,0,2.2,1,2.4,1.9l-0.4,18.9c-0.1,0.5-0.4,1.4-1.6,1.4c0.1,0-3.1-0.1-3.1-0.1l-0.9,5l5.5,0.1
			c1,0,2,0.1,3,0.1l-0.1,7l4.2,0.1l0.1-6.9c1.2,0,2.3,0.1,3.4,0.1l-0.1,6.9l4.2,0.1l0.1-7c7.1-0.3,12.1-2,12.9-8.6
			c0.6-5.3-1.9-7.8-5.9-8.8C66.4,166.4,67.9,164.2,67.7,160.6L67.7,160.6z M61.5,175.4c-0.1,5.2-9.1,4.5-11.9,4.4l0.2-9.3
			C52.6,170.6,61.6,170,61.5,175.4z M59.8,162.3c-0.1,4.8-7.6,4.1-9.9,4L50,158C52.3,158,59.8,157.4,59.8,162.3z"/>
		<path class="st1" d="M36.6,184.6l0.9-5c0,0,0.5,0,1.1,0c0.9,0,1.9,0,2,0l0,0l0,0c1.1,0,1.5-0.7,1.6-1.2c0-0.1,0-0.1,0-0.1
			l0.4-18.9c-0.1-0.4-0.2-0.8-0.5-1.2c-0.4-0.4-0.9-0.7-1.9-0.7l0,0l0,0c-0.1,0-0.5,0-1.1,0c-0.3,0-0.6,0-0.9,0c-0.6,0-1.1,0-1.1,0
			l0.1-4.5l5.8,0.1l0,0c0.9,0,1.8,0,2.7,0l0.1-6.9l4.2,0.1l0,6.7c0.7,0,1.3,0,2,0c0.5,0,0.9,0,1.4,0l0.1-6.7l4.2,0.1l-0.1,6.9
			c5.4,0.6,9.7,2.3,10.1,7.3l0,0c0.2,2.5-0.5,4.3-1.7,5.6c-0.6,0.6-1.3,1.1-2,1.4c0.9,0.2,1.7,0.5,2.4,0.9c2.6,1.3,4,3.7,3.5,7.9
			c-0.9,6.6-5.9,8.3-13,8.6l-0.1,7l-4.2-0.1l0.1-6.9c-0.3,0-0.7,0-1.1,0c-0.1,0-0.2,0-0.3,0c-0.7,0-1.3,0-2-0.1l-0.1,6.9l-4.2-0.1
			l0.1-7L36.6,184.6z M42.1,186.7l-5.5-0.1c-0.6,0-1.1-0.3-1.5-0.7c-0.4-0.5-0.5-1.1-0.4-1.6l0.9-5c0.2-1,1-1.7,2-1.6h0.1
			c0.1,0,0.2,0,0.3,0c0.3,0,0.7,0,1.1,0c0.4,0,0.8,0,1,0c0,0,0,0,0.1,0l0.4-18.1l0,0l0,0c0,0-0.2-0.1-0.4-0.1c-0.1,0-0.2,0-0.3,0
			c0,0-0.1,0-0.2,0c-0.3,0-0.6,0-1,0s-0.8,0-1.1,0c-0.1,0-0.3,0-0.3,0h-0.1c-0.5,0-1.1-0.2-1.4-0.6c-0.4-0.4-0.6-0.9-0.6-1.4
			l0.1-4.5c0-1.1,0.9-2,2-2l5.8,0.1c0.1,0,0.2,0,0.3,0s0.3,0,0.4,0l0.1-4.9c0-1.1,0.9-2,2-2l4.2,0.1c0.5,0,1,0.2,1.4,0.6
			c0.1,0.1,0.1,0.2,0.2,0.3l0,0c0.4-0.5,1-0.9,1.7-0.9l4.2,0.1c0.5,0,1,0.2,1.4,0.6c0.4,0.4,0.6,0.9,0.6,1.4l-0.1,5.1
			c2.2,0.4,4.3,1,6,2c2.3,1.4,3.8,3.7,4.1,6.8v0.1c0.2,2.1-0.2,4-1.1,5.6c-0.2,0.4-0.5,0.7-0.7,1c0.9,0.6,1.7,1.2,2.4,2.1
			c1.4,1.9,1.9,4.4,1.6,7.4c-0.4,3.9-2.2,6.6-5,8.2c-2.2,1.3-4.9,1.8-7.8,2.1l-0.1,5.1c0,1.1-0.9,2-2,2l-4.2-0.1
			c-0.5,0-1-0.2-1.4-0.6c-0.1-0.1-0.2-0.2-0.3-0.3c-0.4,0.5-1,0.9-1.7,0.9l-4.2-0.1c-0.5,0-1-0.2-1.4-0.6s-0.6-0.9-0.6-1.4l0.1-5
			C42.8,186.7,42.4,186.7,42.1,186.7 M38.6,179.5c0-0.1,0-0.3,0.1-0.4C38.7,179.2,38.6,179.4,38.6,179.5z M59.5,175.4
			c0-0.7-0.2-1.1-0.6-1.5c-0.5-0.4-1.3-0.8-2.5-1c-1.5-0.3-3.2-0.4-4.6-0.4l-0.1,5.3c1.4,0,3.1,0,4.6-0.3c1.2-0.2,2-0.5,2.6-0.9
			C59.2,176.4,59.4,176,59.5,175.4z M49.7,179.9L49.7,179.9l0.1-9.3c0.3,0,0.6,0,1,0c3.5,0,10.8-0.1,10.7,4.8
			c-0.1,4.8-7.6,4.6-11.1,4.4C50.1,179.9,49.9,179.9,49.7,179.9z M57.2,163.4c0.3-0.2,0.5-0.5,0.5-1.1c0-0.7-0.2-1-0.5-1.2
			c-0.4-0.3-1-0.6-1.9-0.8c-1.1-0.2-2.3-0.3-3.4-0.3l-0.1,4.5c1.1,0,2.3,0,3.4-0.2C56.2,164,56.9,163.7,57.2,163.4z M49.9,166.4
			C49.8,166.4,49.8,166.4,49.9,166.4L50,158c0.2,0,0.5,0,0.9,0c3,0,9-0.1,8.9,4.4c-0.1,4.4-6.4,4.1-9.3,4
			C50.3,166.4,50.1,166.4,49.9,166.4z"/>
	</g>
</g>
</svg>
