<?xml version="1.0" encoding="utf-8"?>
<!-- Generator: Adobe Illustrator 27.1.1, SVG Export Plug-In . SVG Version: 6.00 Build 0)  -->
<svg version="1.1" id="Слой_1" xmlns="http://www.w3.org/2000/svg" xmlns:xlink="http://www.w3.org/1999/xlink" x="0px" y="0px"
	 viewBox="0 0 108 108" style="enable-background:new 0 0 108 108;" xml:space="preserve">
<style type="text/css">
	.st0{fill-rule:evenodd;clip-rule:evenodd;fill:#E3E3E3;}
	.st1{fill-rule:evenodd;clip-rule:evenodd;fill:#FFFFFF;filter:url(#Adobe_OpacityMaskFilter);}
	.st2{mask:url(#path-2-inside-1_129_11564_00000137128640450597883500000012398019325630210713_);fill:#393931;}
	.st3{fill:#66FECB;}
	.st4{fill:#5EDEB3;}
	.st5{fill:#01B478;}
	.st6{fill:#1DCE92;}
	.st7{fill:#2AFFB7;}
	.st8{fill:#FFFFFF;}
	.st9{fill:#003725;}
	.st10{fill:#786705;}
	.st11{fill:#36B68D;}
	.st12{fill:#DB4853;}
	.st13{fill:#1A1A1A;}
	.st14{fill:#26D0C5;}
	.st15{fill:#807B0A;}
	.st16{fill:#959D0C;}
	.st17{fill:#A73146;}
	.st18{fill:#5C1B2B;}
	.st19{fill:#F8EB2F;}
	.st20{fill:#279478;}
	.st21{fill:#07D8E9;}
	.st22{fill:#61E1B7;}
	.st23{fill:#B6881A;}
	.st24{fill:#DDE0D6;}
	.st25{fill:#DB6453;}
	.st26{fill:#A2A799;}
	.st27{fill:#3E5E65;}
</style>
<path class="st0" d="M76,12c0-6.6-5.4-12-12-12H12C5.4,0,0,5.4,0,12v84c0,6.6,5.4,12,12,12h84c6.6,0,12-5.4,12-12V44
	c0-6.6-5.4-12-12-12h-8c-6.6,0-12-5.4-12-12V12z"/>
<defs>
	<filter id="Adobe_OpacityMaskFilter" filterUnits="userSpaceOnUse" x="-1" y="-1" width="110" height="110">
		<feColorMatrix  type="matrix" values="1 0 0 0 0  0 1 0 0 0  0 0 1 0 0  0 0 0 1 0"/>
	</filter>
</defs>
<mask maskUnits="userSpaceOnUse" x="-1" y="-1" width="110" height="110" id="path-2-inside-1_129_11564_00000137128640450597883500000012398019325630210713_">
	<path class="st1" d="M76,12c0-6.6-5.4-12-12-12H12C5.4,0,0,5.4,0,12v84c0,6.6,5.4,12,12,12h84c6.6,0,12-5.4,12-12V44
		c0-6.6-5.4-12-12-12h-8c-6.6,0-12-5.4-12-12V12z"/>
</mask>
<path class="st2" d="M12,1h52v-2H12V1z M1,96V12h-2v84H1z M96,107H12v2h84V107z M107,44v52h2V44H107z M96,31h-8v2h8V31z M77,20v-8
	h-2v8H77z M88,31c-6.1,0-11-4.9-11-11h-2c0,7.2,5.8,13,13,13V31z M109,44c0-7.2-5.8-13-13-13v2c6.1,0,11,4.9,11,11H109z M96,109
	c7.2,0,13-5.8,13-13h-2c0,6.1-4.9,11-11,11V109z M-1,96c0,7.2,5.8,13,13,13v-2c-6.1,0-11-4.9-11-11H-1z M64,1c6.1,0,11,4.9,11,11h2
	c0-7.2-5.8-13-13-13V1z M12-1C4.8-1-1,4.8-1,12h2C1,5.9,5.9,1,12,1V-1z"/>
<g>
	<path class="st3" d="M103.3,20.8V9.1L93.1,3.2L82.9,9.1v11.8l10.2,5.9L103.3,20.8z"/>
	<path class="st3" d="M99,18.4v-6.9l-6-3.5l-6,3.5v6.9l6,3.5L99,18.4z"/>
	<path class="st4" d="M93,8.1V3.2l10.2,5.9L99,11.5L93,8.1z"/>
	<path class="st5" d="M99,18.4v-6.9l4.3-2.4v11.8L99,18.4z"/>
	<path class="st6" d="M93,21.9v4.9l10.2-5.9L99,18.4L93,21.9z"/>
	<path class="st5" d="M87.1,18.4l-4.3,2.4l10.2,5.9v-4.9L87.1,18.4z"/>
	<path class="st7" d="M93,8.1l-6,3.5l-4.3-2.4L93,3.2V8.1z"/>
	<path class="st8" d="M103.3,9.1l-4.5,2.3l-5.5-3.2l-0.2-5l-0.2,5l-5.5,3.2L83,9.1l4.3,2.4V14c0.1-0.8,0.2-1.6,0.3-2.3l5.7-3.1
		l5.7,3.1c0.1,0.8,0.2,1.6,0.3,2.3v-2.4h0.1L103.3,9.1z"/>
	<path class="st9" d="M93,3.2l10.2,5.9v11.8L93,26.8l-10.2-5.9V9.1L93,3.2z M93,2.5c-0.1,0-0.3,0-0.3,0.1L82.4,8.5
		c-0.1,0.1-0.2,0.2-0.3,0.3c-0.1,0.1-0.1,0.3-0.1,0.3v11.8c0,0.1,0,0.3,0.1,0.3c0.1,0.1,0.2,0.2,0.3,0.3l10.2,5.9
		c0.1,0.1,0.3,0.1,0.3,0.1c0.1,0,0.3,0,0.3-0.1l10.2-5.9c0.1-0.1,0.2-0.2,0.3-0.3c0.1-0.1,0.1-0.3,0.1-0.3V9.1c0-0.1,0-0.3-0.1-0.3
		c-0.1-0.1-0.2-0.2-0.3-0.3L93.4,2.6C93.3,2.5,93.2,2.5,93,2.5L93,2.5z"/>
</g>
<g>
	<path d="M54.1,24.5l10,6.6v0.9l1.6,1c0.2-0.2,0.3-0.3,0.5-0.4l2.7,1.8v0.8c0.2,0.2,0.5,0.3,0.7,0.5l1.5,0.9l6.2,4v1l5.3,3.6v20.8
		l-5,3.3v0.9c-0.1,0.1-0.3,0.2-0.4,0.3l-0.9,0.6l-4.6,3l-1.8,1.1c-0.3,0.2-0.6,0.4-0.8,0.6v0.7l-2.9,2l-0.4-0.3
		c-0.2,0.1-0.4,0.2-0.5,0.3l-1,0.7v0.7c-0.4,0.2-0.7,0.4-1,0.6l-1.8,1.1l-7.1,4.6L54,86.5l-9.7-6.3v-0.8c-0.1-0.2-0.5-0.3-0.6-0.4
		l-1-0.7l-0.7,0.5l-2.6-1.7V76l-8.7-5.4v-1.1l-5-3.2V45.3l5.2-3.4v-1.1l8.3-5.4v-0.9l3.2-2.1v0.8L44,32v-0.8L54.1,24.5z"/>
	<path class="st10" d="M42.9,44.7c0.1,0,0.1,0,0.2,0.1c0,0.1,0.1,0.2,0,0.2c0,0.1-0.1,0.1-0.2,0.1h-0.1c-0.1,0-0.1-0.1-0.2-0.1v-0.1
		C42.7,44.8,42.8,44.7,42.9,44.7z"/>
	<path class="st11" d="M69.1,45.3l0.7,0.4v5c-0.1-0.5,0-1,0-1.6v-3.1l-0.5-0.4C69.2,45.6,69.2,45.6,69.1,45.3L69.1,45.3z"/>
	<path class="st11" d="M60.1,40.5l0.7-0.5l0.8,0.5c-0.2,0.1-0.4,0.3-0.6,0.4L60.1,40.5z"/>
	<path class="st12" d="M64.1,34.3c0-0.3-0.1-0.6,0-0.9l1.4,0.9v0.8L64.1,34.3z"/>
	<path class="st13" d="M51.8,50.9h0.6L51,52.1l-0.3,0.3v-1.6H51.8z"/>
	<path class="st14" d="M62.4,42.1l0.8-0.5l1.4,0.8l-0.5,0.4c-0.1,0-0.2,0.1-0.2,0.2c-0.1-0.1-0.3-0.2-0.4-0.3
		C63,42.5,62.7,42.3,62.4,42.1z"/>
	<path class="st14" d="M66.2,44.6l0.8-0.5l1.5,0.9l-0.7,0.5L66.2,44.6z"/>
	<path class="st15" d="M32.1,60l1.1-0.8v1.4c-0.3,0.3-0.7,0.5-1.1,0.7V60z"/>
	<path class="st15" d="M32.1,49.9l1.1,0.7v1.5C33.1,52,32,51.4,32,51.3c0.1-0.1,0-0.3,0-0.4L32.1,49.9z"/>
	<path class="st14" d="M64.2,43.3c0.2-0.2,0.5-0.4,0.8-0.5l1.6,1l-0.8,0.5C65.2,44,64.6,43.7,64.2,43.3z"/>
	<path class="st15" d="M76.3,61.5l-1.4-0.8v-1.5l1.4,0.9c-0.1,0.1,0,0.3,0,0.4V61.5z"/>
	<path class="st16" d="M76.4,51.2L75,52.1v-1.5c0.1-0.1,0.2-0.2,0.3-0.3l0.9-0.6L76.4,51.2z"/>
	<path class="st17" d="M64.1,34.3l1.4,0.8v-0.8c0.1,0.2,0,0.5,0,0.7v1.9l-1.5-0.9L64.1,34.3z"/>
	<path class="st10" d="M61.8,76.6v-2.2l0.8-0.5c0.1,0,0.2-0.1,0.3-0.2c0,0.7,0.1,5.6,0,5.9v-3.7L61.8,76.6z"/>
	<path class="st13" d="M50.7,56.7h2.5L52,57.7l-1.4,1.1V56.7z"/>
	<path class="st10" d="M45.3,79.5c0-0.1,0-0.3,0-0.4v-0.9v-4.6l1.1,0.7v2.4l-0.7-0.5c-0.1-0.1-0.2-0.2-0.4-0.2V79.5z"/>
	<path class="st10" d="M40.4,72.7v-2.3l1.3,0.8v4.6v1c0,0.1,0,0.3,0,0.4v-3.8L40.4,72.7z"/>
	<path class="st10" d="M66.6,73.5V72c0-0.2,0-0.5,0-0.8c0.4-0.3,0.8-0.6,1.4-0.8v3.1c0,0.4,0,0.8,0,1.1c0-0.2,0-0.5,0-0.7v-1.4
		L66.6,73.5z"/>
	<path class="st18" d="M42.8,74.3V72l1.4,0.8V78l0,0l0,0c0.1-0.1,0-0.4,0-0.5v-1.6c0-0.2,0-0.4,0-0.6c0,0,0,0-0.1-0.1L42.8,74.3z"/>
	<path class="st18" d="M64.1,75.1v-2.3c0.1-0.1,1.5-0.9,1.5-0.9V76v0.7c0,0.1,0,0.2,0,0.3c0-0.3,0-0.6,0-0.9v-2L64.1,75.1z"/>
	<path class="st17" d="M42.8,74.3l1.4,0.8c0,0,0,0,0.1,0.1c0,0.2,0,0.4,0,0.6v1.6c0,0.1,0,0.4,0,0.5l-1.5-0.8V74.3z"/>
	<path class="st19" d="M45.3,79.5v-3.4c0.1,0.1,0.3,0.2,0.4,0.2l0.7,0.5v3.4C46.2,80,45.7,79.8,45.3,79.5z"/>
	<path class="st17" d="M64.1,75.1l1.4-0.9v2c0,0.3,0,0.6,0,0.9c-0.1,0.1-0.3,0.2-0.4,0.3l-0.9,0.7V75.1z"/>
	<path class="st19" d="M61.8,76.6l1.1-0.7v3.7l-1.1,0.7V76.6z"/>
	<path class="st19" d="M41.6,34.2v3.6c-0.1,0.1-0.3,0.2-0.4,0.3l-0.8,0.4c-0.1-0.3,0-0.7,0-1v-2.5L41.6,34.2z"/>
	<path class="st18" d="M44.1,33.3L44.1,33.3c0.1,0.2,0.1,0.5,0.1,0.8v1.8l-1.7,1v-1.1c0-0.1,0-0.3,0-0.4v-1L44.1,33.3z"/>
	<path class="st12" d="M44.1,33.3c0.1,0.2,0,0.8,0,1l-1,0.7c-0.1,0.1-0.4,0.3-0.5,0.3v-1L44.1,33.3z"/>
	<path class="st19" d="M66.6,34.2c0.4,0.2,0.8,0.5,1.3,0.8v3.3l-1.3-0.8c-0.1-0.3,0-0.7,0-1V34.2z"/>
	<path class="st14" d="M56.6,67.2l2.1,2.1c-0.1,0.2-0.9,0.7-1.3,0.8L55.4,68c0.1-0.1,0.3-0.2,0.4-0.3L56.6,67.2z"/>
	<path class="st14" d="M59,65.6l2.1,2.2l-1.3,0.8l-2.1-2.2c0.1-0.1,0.3-0.2,0.4-0.3L59,65.6z"/>
	<path class="st14" d="M61.2,64.1L61.2,64.1l2.2,2.2c0,0.1-0.2,0.2-0.3,0.2l-0.8,0.6h-0.1l-2.1-2.2L61.2,64.1z"/>
	<path class="st19" d="M40.4,72.7l1.3,0.8v3.8c-0.1,0-0.3-0.1-0.4-0.2l-0.8-0.5L40.4,72.7z"/>
	<path class="st19" d="M66.6,73.5l1.4-0.8V74c0,0.2,0,0.5,0,0.7v1.6l-1.4,0.8V73.5z"/>
	<path class="st14" d="M63.5,62.5L63.5,62.5l2.2,2.2l-1.3,0.8h-0.1c-0.2-0.1-0.5-0.5-0.7-0.7l-1.5-1.6L63.5,62.5z"/>
	<path class="st14" d="M68.1,59.1l2.3,2.4l-1.1,0.8h-0.1L67,60.1L68.1,59.1z"/>
	<path class="st14" d="M65.8,60.8l2.2,2.3l-1.3,0.8h-0.1l-2.2-2.3L65.8,60.8z"/>
	<path class="st17" d="M74.1,66.4l0.9-0.6V62l0,0l1.4,0.8l0,0v3l-0.5,0.4c0,0-0.1,0.1-0.2,0.2c-0.1,0-0.2,0-0.3,0L74.1,66.4v0.8
		C74,67,74.1,66.6,74.1,66.4z"/>
	<path class="st19" d="M76.3,61.5v-0.9c0-0.1,0-0.3,0-0.4l3.9,2.5c-0.1,0.4,0,0.9-0.1,1.4L76.3,61.5z"/>
	<path class="st19" d="M80.3,47.2v0.9c0,0.1,0,0.3,0,0.4l-3.9,2.5v-1.5L80.3,47.2z"/>
	<path class="st18" d="M33.2,43.5v6L32,48.6v-4.4C32.4,44,32.8,43.7,33.2,43.5z"/>
	<path class="st11" d="M52,36.9l1.3-0.8c0.2-0.1,0.5-0.4,0.7-0.4l6,3.9L59.1,40l-3.8-2.5h-0.1c-0.2-0.1-0.3-0.3-0.5-0.4
		c-0.3-0.2-0.5-0.5-0.8-0.7l-1.3,1C52.6,37.1,52.3,37.1,52,36.9z"/>
	<path class="st17" d="M75,43.4c0.4,0.2,0.8,0.5,1.4,0.8v4.3c0,0.1-1.1,0.7-1.4,0.8V43.4z"/>
	<path class="st20" d="M32,52.3l1.3,0.8v3.4v0.9c0,0.2,0,0.3,0,0.5L32,58.9V52.3z"/>
	<path class="st20" d="M76.3,59.1L75,58.3V53l1.4-0.9L76.3,59.1z"/>
	<path class="st21" d="M57.8,51.5h1.8v6.4h-1.7L57.8,51.5z"/>
	<path class="st22" d="M69.8,50.9V59L69,58.2V47.7v-1.6c0-0.2,0-0.5,0-0.7l0.1,0.1v0.1c0,0.1,0.1,0.1,0.1,0.2l0.5,0.5v3.1
		C69.8,49.8,69.8,50.4,69.8,50.9z"/>
	<path class="st18" d="M74.1,66.4c0,0.2-0.1,0.6,0,0.8l1,0.6l-4,2.6l-1.5,0.9c-0.2,0.1-0.4,0.3-0.7,0.4v-2.2
		c0.1-0.1,0.3-0.2,0.4-0.3l1.3-0.8L74.1,66.4z"/>
	<path class="st22" d="M67.3,57.8L67.3,57.8l0.2,0.8c0,0.1-2.9,2.1-3.2,2.3l-4.3,3l-5.1,3.7l-0.2-0.2l-0.4-0.3L67.3,57.8z"/>
	<path class="st18" d="M47.6,81.1c0-0.1,0-0.3,0-0.5v-0.9v-4.5l6.2,4.1v2.2c-0.2-0.1-0.4-0.2-0.5-0.4l-1.1-0.7l-4.5-2.9V81.1z"/>
	<path class="st18" d="M54.3,81.6v-2.2l6.4-4.2v2.2l-4.6,3L55,81.2C54.6,81.3,54.5,81.5,54.3,81.6z"/>
	<path class="st21" d="M67.8,45.6l-2,1.4l-3.3,2.3l-1,0.7c-0.1,0.1-0.2,0.2-0.3,0.2c-0.2,0.1-0.5,0-0.7,0h-2.2l8.2-5.5L67.8,45.6z"
		/>
	<path class="st18" d="M32,62.7l1.3-0.9v2.6c0,0.4-0.1,0.8,0,1.3l4.5,2.9l1,0.7c0.2,0.1,0.4,0.2,0.5,0.4V72l-6.2-4v-1.1L32,66.1
		L32,62.7z"/>
	<path class="st21" d="M65.8,44.3l-6.4,4.3l-1.6,1c-0.1,0.1-0.3,0.3-0.5,0.3c-0.1,0-2.8,0-3,0l9.9-6.9C64.6,43.7,65.2,44,65.8,44.3z
		"/>
	<path class="st21" d="M63.7,43l-2.6,1.7L57.8,47l-3.3,2.3l-0.7,0.5c-0.1,0.1-0.2,0.2-0.3,0.2c-0.1,0-0.4,0-0.6,0H51
		c1-0.9,2.2-1.7,3.3-2.5l5.3-3.8l2.6-1.9c0.3,0.2,0.6,0.4,0.9,0.6C63.4,42.8,63.6,42.9,63.7,43z"/>
	<path class="st23" d="M80.3,47.2l1.3-0.8V65c-0.1,0-0.3-0.2-0.4-0.3l-0.8-0.6c0.1-0.4,0-0.9,0.1-1.4c0.1-0.2,0-0.5,0-0.7v-2v-7.1
		V50c0-0.4,0-0.9,0-1.5c0-0.1,0-0.3,0-0.4L80.3,47.2z"/>
	<path class="st24" d="M47.5,67.2c0.4,0,0.9,0,1.4,0h2.4c0.1,0,0.4-0.1,0.6,0c0.1,0,0.3,0.2,0.4,0.3l2.4,2l1.6,1.5l-1.7,1
		c-0.2,0.1-0.4,0.3-0.5,0.3l-6.9-4.4l0.1-0.4C47.3,67.4,47.4,67.3,47.5,67.2z"/>
	<path class="st17" d="M47.6,81.1v-3.6l4.5,2.9l1.1,0.7c0.2,0.1,0.4,0.3,0.5,0.4v3.6l-4.2-2.8l-1.3-0.8
		C48.2,81.4,47.9,81.3,47.6,81.1z"/>
	<path class="st25" d="M54.3,81.6c0.2-0.1,0.4-0.2,0.6-0.4l1.1-0.7l4.6-3v3.7l-6.4,4.1V81.6z"/>
	<path class="st21" d="M66.9,48.6C67,48.6,66.9,48.6,66.9,48.6l0.1,1.1c0,0.1,0,0.2,0,0.3c0,0-0.2,0.2-0.3,0.2l-0.9,0.9l-4.3,4.1
		c0.2,0.2,2.1,1.8,2.2,1.8c0.2,0,0.8-0.6,1-0.6c0.1,0,0.4,0,0.6,0h1.6l-1.8,1.7l-1.3,1.1c-0.2-0.1-0.3-0.3-0.5-0.4l-1-0.8
		c-0.7-0.5-1.5-1.1-2.1-1.7v-2.6L66.9,48.6z"/>
	<path class="st13" d="M62.3,41.2c0.1,0,0.2,0.1,0.3,0.1c-0.2,0.2-0.5,0.3-0.7,0.5l-1.7,1.1l-5.5,3.9l-3.2,2.3
		c-0.2,0.1-0.3,0.3-0.5,0.5c-1.1,1-2.3,2.2-3.3,3.2l-5,5.2c-0.7,0.8-1.6,1.6-2.2,2.4l-0.1,0.1l0,0v-3.9c0.8-0.5,1.6-1.1,2.4-1.7
		l7.9-5.6l5-3.4l3.1-2.2l2.8-1.9C61.7,41.6,62,41.4,62.3,41.2z"/>
	<path class="st11" d="M76.3,52.1l3-2V61l-3-2V52.1z"/>
	<path d="M77.8,52.2c0.2,0,0.3,0,0.5,0.1s0.3,0.2,0.4,0.4c0.1,0.2,0.1,0.4,0,0.6c-0.1,0.2-0.3,0.4-0.5,0.4c-0.1,0-0.3,0-0.4,0
		c-0.2-0.1-0.4-0.2-0.5-0.4c-0.1-0.2-0.1-0.4,0-0.6C77.3,52.5,77.5,52.3,77.8,52.2z"/>
	<path d="M77.8,57.5c0.1,0,0.2,0,0.4,0c0.2,0.1,0.4,0.2,0.5,0.4c0.1,0.2,0.1,0.3,0,0.5c-0.1,0.3-0.3,0.4-0.5,0.5c-0.2,0-0.3,0-0.5,0
		c-0.2-0.1-0.4-0.2-0.4-0.4c-0.1-0.2-0.1-0.4,0-0.6C77.4,57.7,77.6,57.6,77.8,57.5z"/>
	<path class="st22" d="M32,58.9l-1.5,0.9c-0.5,0.4-1.1,0.8-1.8,1.1V50.3l3.1,2.1L32,58.9z"/>
	<path d="M30.2,52.1h0.1c0.3,0.1,0.6,0.3,0.9,0.5v1l-0.8,0.4h-0.1h-0.1C30.1,54.1,30,54,30,54c-0.2-0.1-0.4-0.2-0.6-0.3v-1.1
		L30.2,52.1z"/>
	<path d="M30.2,57.2c0.3,0.1,0.6,0.4,0.9,0.5v1l-0.8,0.4h-0.1c-0.3-0.1-0.5-0.3-0.8-0.5c0-0.3,0-0.7,0-1.1L30.2,57.2z"/>
	<path class="st13" d="M68.2,46L68.2,46v11.3l0,0c-0.1-0.1-0.1-0.2-0.3-0.3c-0.2-0.1-0.4-0.1-0.6,0l-0.1,0.1
		c0.2-0.3,0.6-0.5,0.9-0.8c0-0.1,0-0.2,0-0.3s-0.1-0.2-0.2-0.3h-2.2c-0.3,0-0.8-0.1-1.1,0c-0.3,0.1-0.5,0.4-0.7,0.5l-1.1-0.9
		c0.1-0.2,0.3-0.3,0.4-0.5l1.5-1.4l2.7-2.6l0,0c0.1-0.1,0.4-0.4,0.4-0.6v-1.7c0-0.2,0-0.5,0-0.7c0-0.1-0.1-0.2-0.2-0.3
		c-0.2,0-0.3,0-0.5,0.1c-0.3,0.2-0.5,0.4-0.8,0.6l-2.2,1.6l-2.6,1.9l-1.3,0.9v-1.7c0.3,0,0.7,0,0.9,0c0.2-0.1,0.3-0.2,0.5-0.3
		l0.9-0.6L68.2,46z"/>
	<path class="st11" d="M40.1,44.8l0.8-0.5c0.2,0.2,0.4,0.3,0.5,0.5l-0.2,0.1l1.4,1.3l0,0c-0.1,0.6,0,1.3,0,1.9v3.3l-0.5,0.3
		l-3.6,2.4v-8.4L40.1,44.8z"/>
	<path class="st22" d="M40.7,45.3L40.7,45.3c0.1,0,0.1,0,0.2-0.1s0.3-0.2,0.4-0.3l1.4,1.3l0,0c-0.1,0.6,0,1.3,0,1.9v3.3l-0.5,0.3
		c-0.1-0.5,0-1.1,0-1.7v-3.4L40.7,45.3z"/>
	<path class="st19" d="M32.1,61.3L26.7,65V46.6l5.2,3.3v0.9c0,0.1,0,0.3,0,0.4l-4.1-2.7v14.1l2.6-1.8c0.5-0.3,1-0.7,1.6-1V61.3z"/>
	<path class="st25" d="M75,43.4V43c-0.7-0.5-1.5-1-2.3-1.5l-2.5-1.7l-0.8-0.5c-0.1-0.1-0.3-0.2-0.4-0.3v-1.7c0-0.2,0-0.5,0-0.7
		l7.2,4.7v1.1l4.7,3l0,0l-4.6,2.9v-4.3C75.9,43.9,75.4,43.6,75,43.4z"/>
	<path class="st25" d="M32,48.6l-4.8-3l4.7-3.1v-1.1l7.3-4.8v2.6l-6.1,3.9v0.4c-0.4,0.2-0.8,0.5-1.3,0.7L32,48.6z"/>
	<path class="st21" d="M53,51.5h4.1v1.6c-0.4,0-3.2,0-3.3,0c-0.2,0.1-0.4,0.3-0.5,0.4c-0.3,0.3-0.6,0.5-0.9,0.7h4.8v1.9v0.2
		c-0.1,0.1-0.3,0.2-0.3,0.3L55.2,58l-2.1,2l-2.3,2.1v-2.3l4.4-4h-4.6v-2.4L53,51.5z"/>
	<path class="st17" d="M39.3,72v2.7l-7.5-4.9v-1c0-0.1-4.1-2.7-4.5-3l4.7-3.2v3.4l1.1,0.7v1.1L39.3,72z"/>
	<path class="st22" d="M60.1,40.5l0.9,0.5l-21.7,15v5.7l0,0c0.3,0.2,0.7,0.4,1,0.6l1.6,0.9l3.2,2.1c0.5,0.4,1.1,0.7,1.7,1.1
		c0.2,0.2,0.5,0.3,0.7,0.5c-0.1,0.1-0.2,0.1-0.3,0.2l-0.1,0.4l-0.8-0.5c-0.1,0-0.3-0.2-0.4-0.2l-1.3-0.8l-6.2-4v-6.6
		c0.2-0.2,0.5-0.4,0.7-0.5l1.3-0.9l5.1-3.7l10.6-7.4l2.6-1.8C59.2,41.1,59.7,40.7,60.1,40.5z"/>
	<path class="st25" d="M76.3,62.8l4.6,3l-3.4,2.3l-0.7,0.4c-0.1,0.1-0.3,0.2-0.4,0.3v0.9l-7.4,4.9v-2.8c0.2-0.1,0.5-0.3,0.7-0.4
		l1.5-0.9l4-2.6l-1-0.6v-0.7l1.1,0.1c0.1,0,0.2,0,0.3,0c0,0,0.2-0.1,0.2-0.2l0.5-0.4L76.3,62.8L76.3,62.8z"/>
	<path class="st21" d="M49.8,52L49.8,52l0.1,10h-1.8v-6.2L44.9,59h2.5v1.1v0.4h-4l-1,1c-0.4,0-0.8,0-1.3,0c-0.2,0-0.8,0.1-1-0.1
		v-0.1c0-0.1,0.1-0.2,0.2-0.2l0.8-0.8l6.9-6.8L49.8,52z"/>
	<path class="st21" d="M41,44.3l2.4-1.6c0.1,0,0.2,0.1,0.3,0.2l0.4,0.3h10.6L43,51.2v-4.1v-0.6c0,0,0-0.1,0-0.2
		c0-0.1,0.2-0.2,0.2-0.2l1.3-1.3L43.6,44c-0.1-0.1-0.4-0.3-0.5-0.5c-0.2,0-0.3,0.2-0.5,0.3c-0.3,0.3-0.7,0.6-1,0.9
		C41.4,44.6,41.2,44.5,41,44.3z"/>
	<path class="st26" d="M34.5,43.7C34.6,43.7,34.6,43.7,34.5,43.7c0.1,0.1,0.3,0.2,0.3,0.2l0.7,0.4l1.1,0.7c0.2,0.1,0.3,0.2,0.5,0.3
		c-0.1,0.4,0,0.9,0,1.5v2.8v9.8v2.4c0,0.3,0,0.7,0,0.9c-0.2,0.1-0.5,0.3-0.7,0.5l-1.6,1c-0.1,0.1-0.4,0.3-0.5,0.3L34.5,43.7
		L34.5,43.7z"/>
	<path class="st26" d="M73.6,43.5l0.3,0.2v20.9c-0.3-0.1-0.7-0.4-1-0.6l-2-1.3c0.2-0.4,0.5-0.7,0.7-1.1c-0.1-0.1-0.4-0.3-0.4-0.4
		c0-0.1,0-0.4,0-0.5v-1.9v-9.1v-2.9v-0.8c0-0.1,0-0.3,0-0.4c0,0,0.1,0,0.1-0.1c0.2-0.2,0.5-0.4,0.7-0.5l1-0.6
		C73.1,43.8,73.4,43.7,73.6,43.5z"/>
	<path class="st22" d="M52.8,37.4l1.3-1c0.3,0.2,0.6,0.5,0.8,0.7c0.1,0.1,0.3,0.3,0.5,0.4h0.1l3.8,2.5l-4.2,2.8h-7.6H45
		c-0.2,0-0.5,0-0.6,0s-0.4-0.3-0.5-0.4l8.3-5.5C52.3,37.1,52.6,37.1,52.8,37.4z"/>
	<path d="M52.8,37.4l1.3-1c0.3,0.2,0.6,0.5,0.8,0.7c0.1,0.1,0.3,0.3,0.5,0.4c0.1,0.1,0.1,0.1,0.2,0.2L54,39.2l-1.6-1.5
		C52.5,37.6,52.7,37.5,52.8,37.4z"/>
	<path class="st10" d="M53.9,37.4H54c0.1,0,0.1,0,0.1,0.1c0.1,0.1,0.1,0.1,0.1,0.2c0,0.1-0.1,0.1-0.1,0.2c-0.1,0-0.2,0-0.2,0
		c-0.1-0.1-0.1-0.1-0.1-0.2C53.8,37.5,53.8,37.5,53.9,37.4z"/>
	<path class="st19" d="M54.1,25.9c0.2,0.1,0.4,0.3,0.6,0.4l1.3,0.8l7,4.6v3.4c-0.1,0-4-2.5-4.3-2.8l-4.4-2.9l-0.2-0.1
		c-0.3,0.1-0.5,0.3-0.7,0.5l-1.6,1l-6.5,4.2v-3.4L54.1,25.9z"/>
	<path class="st27" d="M34.4,64.6c0.2,0,0.4-0.2,0.5-0.3l1.6-1c0.2-0.2,0.4-0.3,0.7-0.5c0,0.1,0,0.1,0.1,0.2l16.2,10.5v4.1
		L34.4,64.9L34.4,64.6z"/>
	<path class="st27" d="M70.7,62.6l2,1.3c0.3,0.2,0.7,0.5,1,0.6V65l-19,12.5v-4.1L70.4,63C70.5,62.9,70.6,62.8,70.7,62.6L70.7,62.6z"
		/>
	<path class="st13" d="M60.2,57.5c0.2,0.1,0.4,0.3,0.6,0.5l2.1,1.7l-10.1,7.1c-0.1-0.1-0.4-0.4-0.5-0.4c-0.3-0.1-0.6,0-0.9,0h-2.6
		h-0.5c-0.1,0-0.2,0-0.2,0c-0.1,0-0.2-0.1-0.2-0.2l-1-0.5l-2.4-1.6l-1.8-1.1c-0.3-0.2-0.6-0.4-0.9-0.6l0,0h0.8c0.1,0,0.2,0,0.3,0
		c0.1,0,0.8-0.8,1-1c0.3,0,0.7,0,1.1,0h2.5v1.5h2.8h0.5c0.1,0,0.2,0,0.2,0c0.2,0,1.6-1.4,1.8-1.6l2.7-2.4l1.6-1.5v1.1h3L60.2,57.5z"
		/>
	<path class="st24" d="M34.5,43.7c0.5-0.5,1.3-0.8,1.9-1.3L40,40l8.3-5.4l5.7-3.8l19.4,12.6c-0.2,0.2-0.4,0.4-0.7,0.5l-1,0.6
		c-0.2,0.2-0.6,0.3-0.7,0.5c0,0-0.1,0-0.1,0.1h-0.1L54,34.3l-5,3.3l-6.8,4.5L39,44.3l-1,0.7c-0.2,0.1-0.4,0.3-0.6,0.4
		c-0.2-0.1-0.3-0.2-0.5-0.3l-1.1-0.7L34.9,44C34.8,43.9,34.7,43.8,34.5,43.7C34.6,43.7,34.6,43.7,34.5,43.7z"/>
</g>
</svg>
