<?xml version="1.0" encoding="UTF-8"?>
<svg id="_Слой_1" data-name="Слой 1" xmlns="http://www.w3.org/2000/svg" xmlns:xlink="http://www.w3.org/1999/xlink" viewBox="0 0 14.17 14.17">
  <defs>
    <style>
      .cls-1 {
        fill: #263244;
      }

      .cls-2 {
        fill: url(#_Безымянный_градиент_7);
      }

      .cls-3 {
        fill: #126ce7;
      }

      .cls-4 {
        fill: #fdfdfb;
      }

      .cls-5 {
        fill: url(#_Безымянный_градиент_9);
      }

      .cls-6 {
        fill: #3df8a8;
      }

      .cls-7 {
        fill: url(#_Безымянный_градиент_22);
      }

      .cls-8 {
        fill: #fff;
      }

      .cls-8, .cls-9 {
        fill-rule: evenodd;
      }

      .cls-9 {
        fill: #e3e3e3;
      }

      .cls-10 {
        fill: url(#_Безымянный_градиент_18);
      }

      .cls-11 {
        fill: #8f9799;
      }

      .cls-12 {
        fill: #33f57a;
      }

      .cls-13 {
        fill: url(#_Безымянный_градиент);
      }

      .cls-14 {
        fill: #13797f;
      }

      .cls-15 {
        fill: #8f0201;
      }

      .cls-16 {
        fill: url(#_Безымянный_градиент_17);
      }

      .cls-17 {
        fill: url(#_Безымянный_градиент_19);
      }

      .cls-18 {
        fill: url(#_Безымянный_градиент_6);
      }

      .cls-19 {
        fill: url(#_Безымянный_градиент_13);
      }

      .cls-20 {
        fill: #f23b2b;
      }

      .cls-21 {
        fill: #0ac1ba;
      }

      .cls-22 {
        fill: url(#_Безымянный_градиент_8);
      }

      .cls-23 {
        fill: #717172;
      }

      .cls-24 {
        fill: #3a7b69;
      }

      .cls-25 {
        fill: #f9d605;
      }

      .cls-26 {
        fill: url(#_Безымянный_градиент_20);
      }

      .cls-27 {
        fill: #c2c2c2;
        stroke: #393931;
        stroke-linejoin: round;
        stroke-width: .13px;
      }

      .cls-28 {
        fill: #fe6223;
      }

      .cls-29 {
        fill: #393931;
      }

      .cls-30 {
        fill: url(#_Безымянный_градиент_2);
      }

      .cls-31 {
        fill: #cdcccf;
      }

      .cls-32 {
        fill: url(#_Безымянный_градиент_10);
      }

      .cls-33 {
        fill: url(#_Безымянный_градиент_23);
      }

      .cls-34 {
        fill: #f1ae02;
      }

      .cls-35 {
        fill: #535b62;
      }

      .cls-36 {
        fill: #bf8202;
      }

      .cls-37 {
        fill: url(#_Безымянный_градиент_15);
      }

      .cls-38 {
        fill: #01f3f7;
      }

      .cls-39 {
        fill: #252728;
      }

      .cls-40 {
        fill: #915c12;
      }

      .cls-41 {
        fill: #f1f14a;
      }

      .cls-42 {
        fill: #f8f575;
      }

      .cls-43 {
        fill: #fe9a2c;
      }

      .cls-44 {
        fill: #179d94;
      }

      .cls-45 {
        fill: #248e90;
      }

      .cls-46 {
        fill: #fce209;
      }

      .cls-47 {
        fill: url(#_Безымянный_градиент_14);
      }

      .cls-48 {
        fill: url(#_Безымянный_градиент_4);
      }

      .cls-49 {
        fill: #01f3f2;
      }

      .cls-50 {
        fill: #1a3a4b;
      }

      .cls-51 {
        fill: #160201;
      }

      .cls-52 {
        fill: url(#_Безымянный_градиент_12);
      }

      .cls-53 {
        fill: url(#_Безымянный_градиент_21);
      }

      .cls-54 {
        mask: url(#mask);
      }

      .cls-55 {
        fill: url(#_Безымянный_градиент_5);
      }

      .cls-56 {
        fill: url(#_Безымянный_градиент_3);
      }

      .cls-57 {
        fill: #383126;
      }

      .cls-58 {
        fill: url(#_Безымянный_градиент_11);
      }

      .cls-59 {
        fill: #b4a707;
      }

      .cls-60 {
        fill: url(#_Безымянный_градиент_16);
      }

      .cls-61 {
        fill: #9cb09c;
      }

      .cls-62 {
        fill: #174f5e;
      }

      .cls-63 {
        fill: #130c0b;
      }
    </style>
    <mask id="mask" x="0" y="0" width="14.17" height="14.17" maskUnits="userSpaceOnUse">
      <g id="path-2-inside-1_129_11564" data-name="path-2-inside-1 129 11564">
        <path class="cls-8" d="m9.92,1.68c0-.85-.69-1.55-1.55-1.55H1.68C.82.13.13.82.13,1.68v10.82c0,.85.69,1.55,1.55,1.55h10.82c.85,0,1.55-.69,1.55-1.55v-6.7c0-.85-.69-1.55-1.55-1.55h-1.03c-.85,0-1.55-.69-1.55-1.55v-1.03Z"/>
      </g>
    </mask>
    <linearGradient id="_Безымянный_градиент" data-name="Безымянный градиент" x1="8.66" y1="9.75" x2="10.78" y2="9.91" gradientTransform="translate(0 15.45) scale(1 -1)" gradientUnits="userSpaceOnUse">
      <stop offset="0" stop-color="#d8ae04"/>
      <stop offset="1" stop-color="#fbdd18"/>
    </linearGradient>
    <linearGradient id="_Безымянный_градиент_2" data-name="Безымянный градиент 2" x1="4.95" y1="6.48" x2="4.25" y2="5.71" gradientTransform="translate(0 15.45) scale(1 -1)" gradientUnits="userSpaceOnUse">
      <stop offset="0" stop-color="#ffea00"/>
      <stop offset="1" stop-color="#f1c711"/>
    </linearGradient>
    <linearGradient id="_Безымянный_градиент_3" data-name="Безымянный градиент 3" x1="9.41" y1="5.8" x2="9.66" y2="5.58" gradientTransform="translate(0 15.45) scale(1 -1)" gradientUnits="userSpaceOnUse">
      <stop offset="0" stop-color="#edb402"/>
      <stop offset="1" stop-color="#f4e805"/>
    </linearGradient>
    <linearGradient id="_Безымянный_градиент_4" data-name="Безымянный градиент 4" x1="8.29" y1="4.64" x2="8.29" y2="4.69" gradientTransform="translate(0 15.45) scale(1 -1)" gradientUnits="userSpaceOnUse">
      <stop offset="0" stop-color="#4b3315"/>
      <stop offset="1" stop-color="#843e18"/>
    </linearGradient>
    <linearGradient id="_Безымянный_градиент_5" data-name="Безымянный градиент 5" x1="6.77" y1="4.71" x2="7.54" y2="12.07" gradientTransform="translate(0 15.45) scale(1 -1)" gradientUnits="userSpaceOnUse">
      <stop offset="0" stop-color="#2b2c34"/>
      <stop offset="1" stop-color="#7a797b"/>
    </linearGradient>
    <linearGradient id="_Безымянный_градиент_6" data-name="Безымянный градиент 6" x1="4.9" y1="9.15" x2="5.04" y2="9.14" gradientTransform="translate(0 15.45) scale(1 -1)" gradientUnits="userSpaceOnUse">
      <stop offset="0" stop-color="#23637a"/>
      <stop offset="1" stop-color="#00c6be"/>
    </linearGradient>
    <linearGradient id="_Безымянный_градиент_7" data-name="Безымянный градиент 7" x1="4.8" y1="8.92" x2="4.93" y2="8.98" gradientTransform="translate(0 15.45) scale(1 -1)" gradientUnits="userSpaceOnUse">
      <stop offset="0" stop-color="#247e8d"/>
      <stop offset="1" stop-color="#009fa5"/>
    </linearGradient>
    <linearGradient id="_Безымянный_градиент_8" data-name="Безымянный градиент 8" x1="6.76" y1="10.21" x2="6.93" y2="10.23" gradientTransform="translate(0 15.45) scale(1 -1)" gradientUnits="userSpaceOnUse">
      <stop offset="0" stop-color="#0ea3a6"/>
      <stop offset="1" stop-color="#01e9d3"/>
    </linearGradient>
    <linearGradient id="_Безымянный_градиент_9" data-name="Безымянный градиент 9" x1="9.37" y1="7.32" x2="9.2" y2="7.33" gradientTransform="translate(0 15.45) scale(1 -1)" gradientUnits="userSpaceOnUse">
      <stop offset="0" stop-color="#1e7a81"/>
      <stop offset="1" stop-color="#0cb9b4"/>
    </linearGradient>
    <linearGradient id="_Безымянный_градиент_10" data-name="Безымянный градиент 10" x1="5.25" y1="9.31" x2="5.42" y2="9.31" gradientTransform="translate(0 15.45) scale(1 -1)" gradientUnits="userSpaceOnUse">
      <stop offset="0" stop-color="#237280"/>
      <stop offset="1" stop-color="#088e86"/>
    </linearGradient>
    <linearGradient id="_Безымянный_градиент_11" data-name="Безымянный градиент 11" x1="9.06" y1="7.27" x2="8.8" y2="7.32" gradientTransform="translate(0 15.45) scale(1 -1)" gradientUnits="userSpaceOnUse">
      <stop offset="0" stop-color="#148990"/>
      <stop offset="1" stop-color="#2bada0"/>
    </linearGradient>
    <linearGradient id="_Безымянный_градиент_12" data-name="Безымянный градиент 12" x1="5.46" y1="7.3" x2="5.24" y2="7.32" gradientTransform="translate(0 15.45) scale(1 -1)" gradientUnits="userSpaceOnUse">
      <stop offset="0" stop-color="#029386"/>
      <stop offset="1" stop-color="#2f7588"/>
    </linearGradient>
    <linearGradient id="_Безымянный_градиент_13" data-name="Безымянный градиент 13" x1="6.71" y1="11.28" x2="7.28" y2="11.02" gradientTransform="translate(0 15.45) scale(1 -1)" gradientUnits="userSpaceOnUse">
      <stop offset="0" stop-color="#0b8a93"/>
      <stop offset="1" stop-color="#00adab"/>
    </linearGradient>
    <linearGradient id="_Безымянный_градиент_14" data-name="Безымянный градиент 14" x1="9.1" y1="8.95" x2="9.64" y2="8.66" gradientTransform="translate(0 15.45) scale(1 -1)" gradientUnits="userSpaceOnUse">
      <stop offset="0" stop-color="#0e9585"/>
      <stop offset="1" stop-color="#1f8d92"/>
    </linearGradient>
    <linearGradient id="_Безымянный_градиент_15" data-name="Безымянный градиент 15" x1="5.09" y1="7.38" x2="5.38" y2="7.37" gradientTransform="translate(0 15.45) scale(1 -1)" gradientUnits="userSpaceOnUse">
      <stop offset="0" stop-color="#23727d"/>
      <stop offset="1" stop-color="#09908b"/>
    </linearGradient>
    <linearGradient id="_Безымянный_градиент_16" data-name="Безымянный градиент 16" x1="7.5" y1="5.76" x2="7.77" y2="5.76" gradientTransform="translate(0 15.45) scale(1 -1)" gradientUnits="userSpaceOnUse">
      <stop offset="0" stop-color="#128490"/>
      <stop offset="1" stop-color="#00b49c"/>
    </linearGradient>
    <linearGradient id="_Безымянный_градиент_17" data-name="Безымянный градиент 17" x1="6.88" y1="5.76" x2="6.53" y2="5.74" gradientTransform="translate(0 15.45) scale(1 -1)" gradientUnits="userSpaceOnUse">
      <stop offset="0" stop-color="#03848c"/>
      <stop offset="1" stop-color="#129f96"/>
    </linearGradient>
    <linearGradient id="_Безымянный_градиент_18" data-name="Безымянный градиент 18" x1="4.8" y1="8.63" x2="5.06" y2="8.87" gradientTransform="translate(0 15.45) scale(1 -1)" gradientUnits="userSpaceOnUse">
      <stop offset="0" stop-color="#1f717c"/>
      <stop offset="1" stop-color="#0c9297"/>
    </linearGradient>
    <linearGradient id="_Безымянный_градиент_19" data-name="Безымянный градиент 19" x1="7.29" y1="7.02" x2="7.53" y2="6.71" gradientTransform="translate(0 15.45) scale(1 -1)" gradientUnits="userSpaceOnUse">
      <stop offset="0" stop-color="#ff7511"/>
      <stop offset="1" stop-color="#ff4a21"/>
    </linearGradient>
    <linearGradient id="_Безымянный_градиент_20" data-name="Безымянный градиент 20" x1="7.05" y1="10.47" x2="7.89" y2="11.14" gradientTransform="translate(0 15.45) scale(1 -1)" gradientUnits="userSpaceOnUse">
      <stop offset="0" stop-color="#314d64"/>
      <stop offset="1" stop-color="#48697c"/>
    </linearGradient>
    <linearGradient id="_Безымянный_градиент_21" data-name="Безымянный градиент 21" x1="7.45" y1="6.62" x2="7.45" y2="6.98" gradientTransform="translate(0 15.45) scale(1 -1)" gradientUnits="userSpaceOnUse">
      <stop offset="0" stop-color="#4c4935"/>
      <stop offset="1" stop-color="#2f2949"/>
    </linearGradient>
    <linearGradient id="_Безымянный_градиент_22" data-name="Безымянный градиент 22" x1="5.01" y1="7.9" x2="6.73" y2="8.8" gradientTransform="translate(0 15.45) scale(1 -1)" gradientUnits="userSpaceOnUse">
      <stop offset="0" stop-color="#3b6d6a"/>
      <stop offset="1" stop-color="#6cae80"/>
    </linearGradient>
    <linearGradient id="_Безымянный_градиент_23" data-name="Безымянный градиент 23" x1="7.07" y1="10.05" x2="7.15" y2="10.56" gradientTransform="translate(0 15.45) scale(1 -1)" gradientUnits="userSpaceOnUse">
      <stop offset="0" stop-color="#1e2022"/>
      <stop offset="1" stop-color="#3a454b"/>
    </linearGradient>
  </defs>
  <path class="cls-27" d="m13.46,2.84v-1.55l-1.35-.78-1.35.78v1.55l1.35.78,1.35-.78Z"/>
  <path class="cls-9" d="m9.92,1.68c0-.85-.69-1.55-1.55-1.55H1.68C.82.13.13.82.13,1.68v10.82c0,.85.69,1.55,1.55,1.55h10.82c.85,0,1.55-.69,1.55-1.55v-6.7c0-.85-.69-1.55-1.55-1.55h-1.03c-.85,0-1.55-.69-1.55-1.55v-1.03Z"/>
  <g class="cls-54">
    <path class="cls-29" d="m1.68.26h6.7v-.26H1.68v.26ZM.26,12.5V1.68h-.26v10.82h.26Zm12.24,1.42H1.68v.26h10.82v-.26Zm1.42-8.12v6.7h.26v-6.7h-.26Zm-1.42-1.68h-1.03v.26h1.03v-.26Zm-2.45-1.42v-1.03h-.26v1.03h.26Zm1.42,1.42c-.78,0-1.42-.63-1.42-1.42h-.26c0,.93.75,1.68,1.68,1.68v-.26Zm2.71,1.68c0-.93-.75-1.68-1.68-1.68v.26c.78,0,1.42.63,1.42,1.42h.26Zm-1.68,8.38c.93,0,1.68-.75,1.68-1.68h-.26c0,.78-.63,1.42-1.42,1.42v.26ZM0,12.5c0,.93.75,1.68,1.68,1.68v-.26c-.78,0-1.42-.63-1.42-1.42h-.26ZM8.38.26c.78,0,1.42.63,1.42,1.42h.26c0-.93-.75-1.68-1.68-1.68v.26ZM1.68,0C.75,0,0,.75,0,1.68h.26C.26.89.89.26,1.68.26v-.26Z"/>
  </g>
  <path class="cls-4" d="m6.66,3.17h.8s.14,0,.14,0c0,0,.03,0,.04,0,0,0,.03.03.03.03l.12.12s.02.02.03.03c0,0,.04,0,.05,0h.17s.88,0,.88,0l.12.12.22.22.29.29.99.99.17.17s.03.03.04.04c0,0,0,.03,0,.04v.15s0,.82,0,.82v.14s0,.04,0,.05c0,0,.03.03.03.03l.17.16s.05.05.06.06c0,.01,0,.04,0,.05v.16s0,.54,0,.54c0,.1,0,.2,0,.3h0s-.02.03-.03.04l-.07.07s-.1.1-.15.14h0s0,1.22,0,1.22l-1.52,1.5-.27.26s-.04.05-.06.05c0,0-.04,0-.05,0h-.17s-.86,0-.86,0l-.2.2h-.77s-.12,0-.12,0c0,0-.03,0-.04,0,0,0-.03-.03-.03-.03l-.14-.14s-.02-.03-.03-.03c0,0-.03,0-.04,0h-.11s-.76,0-.76,0h-.13s-.03,0-.04,0c0,0-.01-.01-.01-.02l-.04-.04-.5-.5-.69-.68-.59-.58v-1.21s-.27-.27-.27-.27v-1.05s.22-.21.22-.21l.04-.05s.01,0,.01-.01c0,0,0-.03,0-.04v-.17s0-.95,0-.95c0,0,0-.03,0-.04,0-.01.03-.03.04-.04.19-.19,1.78-1.79,1.8-1.79,0,0,.03,0,.04,0h.13s.75,0,.75,0c.02,0,.15,0,.16,0,0,0,.03-.03.04-.04l.13-.13Z"/>
  <path d="m6.68,3.21h.95s.18.17.18.17h1.09c.06.07.13.14.2.2l.37.37,1.17,1.17.05.05s.01.01.01.01c0,0,0,.03,0,.04v.18s0,.98,0,.98c.03.02.06.05.09.08l.14.14s.03.02.03.03c0,0,0,.04,0,.05v.19s0,.8,0,.8l-.26.26v1s0,.17,0,.17c0,0,0,.04,0,.04,0,0-.03.03-.03.03l-.13.13-1.29,1.27-.28.27-.06.06s-.02.02-.02.02c0,0-.96,0-1.07,0-.07.06-.13.13-.2.19,0,0,0,0-.02,0h-.22s-.46,0-.46,0h-.17s-.03,0-.04,0c0,0-.03-.03-.03-.03-.02-.02-.16-.16-.17-.16-.01,0-.04,0-.06,0h-.17s-.85,0-.85,0c-.02-.01-.03-.03-.05-.05l-.1-.1-.43-.43-.9-.88-.33-.32s-.01-.01-.02-.02c0-.02,0-.22,0-.25v-.95s-.18-.18-.18-.18c-.03-.02-.05-.06-.08-.08h0s0-1.02,0-1.02l.28-.27v-1.2s.15-.15.15-.15l.27-.27.91-.9.38-.38.08-.08s.02-.02.03-.02c.01,0,.04,0,.05,0h.15s.74,0,.74,0h.12s.03,0,.03,0c0,0,.03-.02.03-.03.05-.04.09-.09.14-.13Z"/>
  <path class="cls-39" d="m6.19,3.73h.03s0,0,0,0c0,0-.02.02-.02.03,0,0-.02,0-.03,0,0,0,.01-.01.02-.02Z"/>
  <path class="cls-62" d="m10.55,6.94h0s.04.02.05.03h-.05s0-.02,0-.03Z"/>
  <path class="cls-63" d="m6.24,3.68h0s.02-.02.02-.02h0s-.04.05-.05.06h0s-.03,0-.03,0c.02-.02.03-.03.05-.05Z"/>
  <path class="cls-57" d="m6.14,3.77s.02-.02.02-.02c.01,0,.02,0,.03,0l-.08.09s.02-.05.02-.07Z"/>
  <path class="cls-4" d="m10.55,7h0s.04-.02.06-.02c.03.02.07.05.1.08,0,.02,0,.03,0,.05h-.01s0-.02.02-.03c-.02-.01-.05-.03-.07-.05,0,0-.02-.02-.03-.02-.02,0-.03,0-.05,0h0Z"/>
  <path class="cls-39" d="m8.31,3.95s-.04-.02-.05-.04h0s-.01-.03-.02-.04h0s0,0,0-.01c0-.02,0-.03,0-.05.01.01,0,.04.01.06,0,0,0,0,.01,0,.01.01.04.04.05.04.02,0,.04,0,.06-.01.02-.01.03-.03.06-.04,0,.03-.01.05-.04.06-.02.01-.05.02-.07.01h0s0,0,0,0Z"/>
  <path class="cls-11" d="m5.86,3.82s0-.02,0-.02c.01-.02.04-.04.07-.05.03,0,.05,0,.08.02l-.04.02s-.09.02-.11.06c0,0,0-.02,0-.03Z"/>
  <path class="cls-35" d="m8.3,3.77s0,0,0-.01c.02,0,.04,0,.06,0,.03,0,.06.02.08.05.01.02.01.07,0,.09,0,.02-.02.05-.05.06-.02,0-.06.01-.08,0h0s0,0,0,0h0s.06,0,.07,0c.03-.02.03-.04.04-.06,0-.03,0-.06-.02-.08-.01,0-.04,0-.05,0-.03,0-.04.02-.06.03,0-.02,0-.03,0-.05Z"/>
  <path class="cls-23" d="m8.3,3.77s.05-.01.06,0c0,0,0,0,0,0h0s-.01.01-.01.01c-.03,0-.04.02-.06.03,0-.02,0-.03,0-.05Z"/>
  <path class="cls-39" d="m6.01,3.76s.03.03.03.05c0,.02,0,.04-.01.06-.01.02-.04.05-.06.06-.01,0-.04,0-.05,0-.02-.01-.04-.02-.05-.04-.01-.02-.02-.04-.01-.07,0,0,0,.02,0,.03,0,.01,0,.03.02.04.01,0,.05,0,.06,0h0s0,0,0,0c.01,0,.01,0,.02,0h0s0,0,.01,0c.01,0,.03-.01.04-.02,0-.02,0-.03,0-.04-.01-.01-.03-.02-.05-.02l.04-.02Z"/>
  <path class="cls-23" d="m5.92,3.93s-.04-.02-.05-.04c-.01-.02-.02-.04-.01-.07,0,0,0,.02,0,.03,0,.01,0,.03.02.04.03.02.05.03.09.02h.02s0,0-.02.01c-.01,0-.03,0-.04,0Z"/>
  <path class="cls-41" d="m6.26,3.65h0s-.03.03-.03.03c-.02.01-.03.03-.05.05,0,0-.01.01-.02.02,0,0-.02.01-.02.02l-.04.03s-.02-.05-.03-.07c-.02-.03-.06-.04-.1-.04-.01,0-.02,0-.03,0,0,0,0,0,0-.01h.19s0,.08,0,.08l.12-.11Z"/>
  <path class="cls-63" d="m5.86,3.85s.07-.05.11-.06c.02,0,.04,0,.05.02.01.01,0,.02,0,.04-.01.01-.03.01-.04.02,0,0,0,0-.01,0h0s-.01,0-.02,0h0s0,0,0,0c-.01,0-.05,0-.06,0,0-.01-.01-.02-.02-.04Z"/>
  <path class="cls-63" d="m8.36,3.78s.04,0,.05,0c.02.02.02.05.02.08-.02,0-.04.03-.06.04-.03-.01-.06-.04-.07-.06,0-.01,0-.02,0-.03.02-.02.04-.03.06-.03Z"/>
  <path class="cls-25" d="m3.5,7.41h0c-.03-.05-.09-.07-.08-.13h0s.15.15.16.16c0,0,.01.02.02.02,0,.01.02.03.04.04.02.02.05.05.08.07l.02.02h0s.01.04.01.06l-.14-.14s-.07-.08-.1-.1Z"/>
  <path class="cls-46" d="m3.65,7.62l-.15-.15s-.07-.06-.09-.09v-.05s.06.06.06.06c0,0,.02.02.03.03.01.02.04.05.06.07l.14.14s.04.03.04.04c0,0,0,.04,0,.05l-.09-.08Z"/>
  <path class="cls-34" d="m3.57,7.43h0s-.12-.13-.12-.13c-.01-.01-.04-.03-.04-.04,0,0,0-.03,0-.04h0s.24.23.24.23l.07.07s.02.01.02.02c0,0,0,.03,0,.04,0,0,0,0-.01,0l-.02-.02s-.05-.05-.08-.07c-.01-.01-.03-.02-.04-.04,0,0-.01-.02-.02-.02Z"/>
  <path class="cls-31" d="m3.9,6.17h0s0,.01,0,.01c0,.03,0,.05,0,.08v.13s0,.46,0,.46v.84s0,.23,0,.23c0,.05,0,.1,0,.15h0s0-1.43,0-1.43v-.33s0-.11,0-.15Z"/>
  <path class="cls-35" d="m10.55,7h0s.04,0,.05,0c.01,0,.02.02.03.02.02.02.05.03.07.05,0,.01-.01.03-.02.04-.01,0-.02.02-.04.03-.04.04-.06.05-.11.05v-.19Z"/>
  <path class="cls-41" d="m8.36,3.7s-.04,0-.06,0c-.06.01-.1.05-.13.1l-.03-.03s0-.06,0-.09h.23s.23,0,.23,0c0,.01-.02.02-.03.03,0,0-.01,0-.02.01l-.07.05s-.06-.06-.12-.08Z"/>
  <path class="cls-35" d="m3.56,7.05s0,0,0-.01c.03-.03.08-.06.13-.06.01.01.01.02.02.03v.13s0,.04,0,.05c-.02,0-.04,0-.05-.01-.02-.02-.1-.07-.1-.1,0,0,0-.02,0-.03Z"/>
  <path class="cls-4" d="m3.56,7.05s0,0,0-.01c.03-.03.08-.06.13-.06.01.01.01.02.02.03-.02,0-.03-.02-.05-.01-.02,0-.03.02-.04.03-.02.02-.05.03-.06.05,0-.01,0-.02,0-.03Z"/>
  <path class="cls-25" d="m3.44,7.03s0,0,.01-.01c0-.02.03-.03.04-.05.01-.02.03-.03.04-.05h0s.03-.04.04-.05l.1-.1s.03-.04.05-.04v.08c-.11.11-.21.22-.33.32,0-.01,0-.04,0-.05,0-.02.03-.02.03-.04Z"/>
  <path class="cls-25" d="m6.32,10.72s.06.05.07.08h-.05s.03.02.04.04c0,0,0,0,0,.01h-.33s0,0,0,0l.08-.06s0-.04,0-.05c.07,0,.14,0,.21,0Z"/>
  <path class="cls-36" d="m6.32,10.72s.06.05.07.08h-.05s-.07,0-.1,0c-.02,0-.04-.01-.06-.01-.02,0-.04,0-.06,0,0-.02,0-.04,0-.05.07,0,.14,0,.21,0Z"/>
  <path class="cls-25" d="m3.45,7.49h0s-.04-.04-.04-.05c0-.01,0-.04,0-.05l.33.32v.05s-.27-.26-.28-.27l.21.21.05.05s.02.01.02.02c0,0,0,.03,0,.04h0s-.01,0-.02,0c0,0,.02.02.03.03,0,0,0,.04,0,.05-.01,0-.02-.02-.04-.03,0,0-.02-.01-.02-.02-.02-.02-.04-.05-.06-.06-.02,0-.03-.03-.05-.04l-.09-.09s-.02-.03-.03-.03c0,0,0,0,0,0-.01-.01-.02-.02-.03-.03h0s0-.04,0-.05h0s0-.05,0-.07l.04.04Z"/>
  <path class="cls-59" d="m5.66,4.23s.04-.05.06-.05c0,0,.03,0,.03,0h.01s-.05.06-.07.08l-1.94,1.93v-.06s1.91-1.88,1.91-1.88Z"/>
  <path class="cls-46" d="m3.69,5.27s0,.03,0,.04c0,.01,0,.02,0,.03.01,0,.02.01.03.01v.76s0,.06,0,.06c0,.03,0,.28,0,.29,0,0,0,0,0,0h0s0,.04,0,.06l-.03.03h0s.02-.01.02-.01h0s0,.05,0,.05l-.03.03s.02-.02.03-.01c0,.02,0,.04,0,.06h0s0,.05,0,.06c-.02,0-.04.03-.05.04l-.1.1s-.03.03-.04.04h0s-.03.04-.04.06c-.01.02-.03.03-.04.05,0,0-.01,0-.01.01l-.03.03h0s0-.05,0-.06c0,0,.02-.02.02-.03l.06-.07h0s-.08.08-.08.08c0-.01,0-.05,0-.06,0-.02.04-.04.05-.06l.16-.17h0s-.21.22-.21.22c0-.01,0-.05,0-.06,0,0,0-.01.01-.01.01-.01.03-.03.04-.05-.02,0-.04.03-.06.05,0-.01,0-.05,0-.06,0,0,.03-.03.03-.04h0s-.03.03-.03.03v-.07s.29-.28.29-.28v-1.15Z"/>
  <path class="cls-59" d="m7.79,10.85s.04-.04.06-.06l.12-.12.62-.62.82-.81.37-.36.51-.51.26-.26v.06s-1.14,1.11-1.14,1.11l-.86.86-.32.32-.12.11s-.04.03-.04.05c0,.01-.02.02-.02.03l-.06.07-.09.09s-.02.03-.03.03c-.02,0-.05,0-.07,0h0Z"/>
  <path class="cls-59" d="m3.74,8.12s.07.06.1.09l.25.24.24.24,1.49,1.48.5.5.19.19h-.1s-.04,0-.04,0c0,0,0,0,0-.01,0-.02-.02-.03-.04-.04h.05s-.05-.05-.07-.07l-.27-.27-.34-.33-1.3-1.29-.55-.54-.07-.07s-.02-.02-.04-.03v-.06Z"/>
  <path class="cls-46" d="m8.6,3.68h.14s.03,0,.04,0c.02,0,.04.04.05.05l.53.53s-.02,0-.04,0c-.02,0-.05,0-.07,0,0,0-.02,0-.03-.01-.03,0-.06,0-.09,0-.1,0-.21-.01-.31,0,0,0-.01,0-.02,0,0,0-.02-.02-.03-.02l-.1-.1s-.04-.04-.06-.06c-.02,0-.04,0-.05,0h-.09s-.02,0-.03,0c-.01,0-.03-.04-.04-.05.02-.01.05-.03.06-.05.02-.02.01-.04.04-.06,0,0,0-.03,0-.04,0-.02,0-.03,0-.05l-.02-.04.07-.05s.01,0,.02-.01c.01,0,.03-.02.03-.03Z"/>
  <path class="cls-25" d="m8.78,3.96s.06,0,.09,0c.01,0,.05,0,.06,0,.02.01.03,0,.05.01,0,0-.08,0-.1,0h0s.04,0,.04,0c.01,0,.04,0,.06,0,.02,0,.05,0,.06,0h0s-.06,0-.06,0h0s0,.02,0,.02c0,0,0,0-.01,0-.01,0-.03,0-.04,0-.01,0-.03,0-.05,0,0,0-.02,0-.04,0-.01,0-.03,0-.04-.01,0,0,0,0,0-.02,0,0,0-.02,0-.03Z"/>
  <path class="cls-13" d="m10.56,6.64s0-.04,0-.05h0s0-.04,0-.05h0s0-.08,0-.11v-.22s0-.04,0-.05c0-.01-.02-.03-.03-.03l-.11-.11-.21-.21-1.09-1.08-.59-.59s.04,0,.05,0c0,0,.03.03.04.04l.2.2,1.12,1.1.39.39c.08.08.16.15.24.22v-.76s0,0,0,0h0s.03-.03.05-.04v1.15s0,0,0,0l.27.26v.41c-.08-.06-.16-.13-.23-.2-.03-.03-.06-.06-.09-.09,0-.01,0-.03,0-.04h0s0,0,0,0c0-.01,0-.03,0-.04h0s0-.02,0-.02c0-.02,0-.03,0-.05Z"/>
  <path class="cls-25" d="m10.56,6.64s.02.03.04.04c.02,0,.02.03.04.04.01,0,.02.02.04.03.01,0,.03.03.04.04.02.01.03.04.05.05.01,0,.05.04.05.06v.02s-.02-.02-.03-.02c-.02,0-.03-.03-.04-.04-.02,0-.02-.03-.04-.04-.01,0-.02-.02-.04-.03-.01,0-.02-.02-.03-.03-.01,0-.02-.02-.03-.02-.01,0-.03-.03-.04-.04h0s0-.04,0-.06Z"/>
  <path class="cls-42" d="m10.55,5.31h0s-.09-.08-.13-.12l-.29-.29-.76-.76-.48-.47-.05-.05s-.01-.01-.02-.02c0,0-.11,0-.13,0h-.67s-.01,0-.02,0c-.01,0-.03-.03-.04-.04l-.11-.11h.8s.15,0,.15,0c.01,0,.04,0,.05,0,0,0,0,0,.01,0l.47.47,1.12,1.12.12.12s.03.02.03.03c0,.01,0,.05,0,.07-.02.01-.03.02-.05.03h0Z"/>
  <path class="cls-42" d="m3.69,5.27v-.05s0-.01,0-.02l.34-.34,1.28-1.28.09-.09s.03-.03.04-.04c.01,0,.04,0,.05,0h.17s.78,0,.78,0l-.19.19h0s0-.02,0-.02c0,0-.01-.02-.02-.02-.02,0-.05,0-.07,0h-.14s-.55,0-.55,0l-1.22,1.22-.35.36-.1.1s-.05.05-.08.07c-.02,0-.02,0-.03-.01,0-.01,0-.02,0-.03,0-.01,0-.03,0-.04Z"/>
  <path class="cls-30" d="m5.47,10.85s-.04-.03-.05-.05l-.09-.09-.38-.38-1.21-1.19s-.04-.04-.04-.05c0-.01,0-.04,0-.06v-.18s0-.95,0-.95l-.24-.24s-.04-.04-.05-.05c0,0,0-.03,0-.04h0s.02.01.03.02c0,0,0,0,0,0,0,0,.02.02.03.03l.09.09s.03.03.05.04c.02.01.05.05.06.06,0,0,.01.02.02.02.01.01.02.02.04.03v.24s0,.06,0,.06v.6s0,.13,0,.13c0,.01,0,.03,0,.05l.91.88.26.26.4.4c.05.05.1.1.15.15,0,0,.02.02.03.03,0,0,.03,0,.04,0h.16s.07,0,.09,0c0,0,0,0,.01,0h0s.02.04.04.05c.03.02.06.04.1.04.05,0,.09-.01.12-.05h0s.02,0,.03,0c0,.02.01.04,0,.05l-.08.06h0s-.06,0-.09,0h-.16s-.21,0-.21,0c-.03,0-.07,0-.1,0Z"/>
  <path class="cls-40" d="m5.85,10.74s.06.04.1.04c.05,0,.09-.01.12-.05h0s.02,0,.03,0c0,.02.01.04,0,.05l-.08.06h0s-.06,0-.09,0h-.16s-.21,0-.21,0c-.03,0-.07,0-.1,0h.45s-.06-.06-.07-.1h0Z"/>
  <path class="cls-40" d="m3.74,8.95l.91.88.26.26.4.4c.05.05.1.1.15.15,0,0,.02.02.03.03,0,0,.03,0,.04,0h.16s.07,0,.09,0c0,0,0,0,.01,0,0,.02,0,.03-.01.05h-.29s-1.73-1.69-1.73-1.69c0,0-.02-.02-.03-.03,0-.01,0-.04,0-.06Z"/>
  <path class="cls-25" d="m8.8,4.24s.01,0,.02,0c.11,0,.21,0,.31,0,.03,0,.06,0,.09,0,0,0,.02,0,.03.01.02,0,.05,0,.07,0,.01,0,.03,0,.04,0h.02s.64.65.64.65l.07.07c.1.09.19.19.28.28.04.04.07.08.11.11v.03s0,.09,0,.09v.27s0,.12,0,.12v.02s0,0,0,0l-.6-.59-.04-.04-.13-.13-.22-.22s-.03-.03-.05-.04c-.02-.02-.05-.05-.07-.07l-.16-.16-.09-.1s-.06-.06-.09-.08l-.23-.22Z"/>
  <path class="cls-43" d="m9.36,4.26h.02c-.07.02-.15.01-.22.01h0s0,0,0,0c.03,0,.07,0,.1,0,.02,0,.05,0,.07,0,.01,0,.03,0,.04,0Z"/>
  <path class="cls-46" d="m9.65,4.69s.02,0,.03,0h.05s.02.03.03.04c0,0,.01,0,.02,0,0,0,.01,0,.02,0h0s0,0-.02,0h-.03s-.04-.01-.06-.02h-.02s-.02,0-.04,0c0,0-.02,0-.03,0,0,0-.02,0-.03,0,0,0-.02,0-.04,0h0s-.02,0-.04-.01h0s.02,0,.02,0c.02,0,.04,0,.06,0h.01s.02,0,.03,0h0s.04,0,.05,0h0s0,0-.01-.01h0Z"/>
  <path class="cls-43" d="m9.36,4.77s.11,0,.16,0h.11s.17.03.17.03c.02,0,.05,0,.07,0,.01,0,.04,0,.04.01-.03,0-.06,0-.08,0h-.1s-.06-.03-.09-.03h0s.04.01.07.02c-.03,0-.05,0-.08,0h-.09s-.15-.03-.15-.03c0,0-.01,0-.02,0Z"/>
  <path class="cls-46" d="m9.42,4.59l.08.02s.07.01.1.01h0s0,.01,0,.01c0,0-.01,0-.02,0,0,0-.02,0-.03,0h0s.04.02.04.02h0s-.01,0-.02,0h-.06s-.01-.01-.02-.01h-.02s-.08-.01-.12-.02c-.03,0-.07,0-.1-.01,0,0,.06,0,.07,0,.02,0,.05,0,.06,0,0,0,.01,0,.02,0h0s.02,0,.03,0h0s-.02-.01-.03-.02h-.02s.02,0,.02,0Z"/>
  <path class="cls-43" d="m9.54,4.91s.05,0,.07,0c.02,0,.04,0,.05,0,.07.01.15,0,.22.02.05,0,.15,0,.18.04-.04,0-.08-.01-.12-.02-.1-.01-.21-.02-.31-.04-.03,0-.06,0-.08,0Z"/>
  <path class="cls-43" d="m8.87,4.29s.07,0,.1,0h.16s.26,0,.28.03c-.04,0-.08,0-.12,0-.02,0-.04,0-.06,0-.04,0-.07,0-.11,0-.07,0-.13,0-.2-.01-.02,0-.04,0-.06-.01Z"/>
  <path class="cls-34" d="m8.82,4.24c.11,0,.21,0,.31,0,.03,0,.06,0,.09,0,0,0,.02,0,.03.01-.03,0-.07,0-.1,0h0s0,0,0,0c-.03,0-.07,0-.1,0-.06,0-.12,0-.17-.01,0,0,0,0-.02,0-.02,0-.03,0-.04-.01Z"/>
  <path class="cls-43" d="m9.2,4.5s.04,0,.07,0c.03,0,.07,0,.1,0,.02,0,.04,0,.06,0l.12.02s.05,0,.07.02c-.01,0-.03,0-.05,0-.02,0-.04,0-.06,0-.04,0-.4-.03-.41-.04.03-.01.07,0,.1,0h0Z"/>
  <path class="cls-46" d="m10.47,5.86s0-.03,0-.04h-.01s0-.01,0-.01c-.01,0-.02-.02-.03-.03-.01,0-.02-.02-.03-.03,0,0-.01,0-.02-.01,0,0-.06-.05-.06-.06h0s0,0,0,0c-.01,0-.02-.02-.03-.02-.01,0,0,0,0,0,0,0-.02-.02-.02-.03h0s.02.02.02.02c.01,0,0,0,0,0,0,0,0,.01.02.01h0s.03,0,.04.01h0s0,0,0,0h0s0-.01,0-.01c.02,0,.03.02.05.04,0,0,.01,0,.01.01,0,0,0,0,0,.01h0s.01.02.02.03v.12Z"/>
  <path class="cls-46" d="m9.71,5.13s.03,0,.04,0c.01,0,.03,0,.04,0,.01,0,.02,0,.03,0,.01,0,.02,0,.03,0,.01,0,.02,0,.03,0,.01,0,.02,0,.03,0,.01,0,.01,0,.02,0h.01s0,.02,0,.03c-.01.02,0,.05,0,.07v.02s-.04,0-.06.01l-.04-.04-.13-.13Z"/>
  <path d="m9.95,5.16l.02-.03s.05-.05.08-.05c.05,0,.1,0,.14.04.04.03.05.07.06.12v.04s-.06.09-.1.11c-.04.01-.08.01-.12,0-.04-.02-.07-.06-.09-.1v-.02s-.01-.05,0-.07c0,0,0-.02,0-.03Z"/>
  <path class="cls-25" d="m5.74,3.68s.04,0,.06,0h.14s0,0,0,0c.01,0,.02,0,.03,0-.05,0-.08,0-.12.04h.01s-.04.05-.05.07c0,.01,0,.03,0,.04,0,.02,0,.05,0,.07l.02.04s.04.03.06.04c0,0-.02,0-.02,0h0s.01,0,.02.01c0,.02,0,.02,0,.03,0,0,0,.02-.01.03-.06,0-.13,0-.18,0l-1.84,1.83v-.12s0-.02,0-.03c0,0,.01,0,.01-.02h-.01s0,0,0,0v-.07s0-.03,0-.05h0s0-.01,0-.01c0-.02,0-.04,0-.06h0s0-.04,0-.06c0-.01,0-.04,0-.05,0,0,.01-.01.01-.02h0s0,0,0,0h0s0-.06,0-.06l.24-.24,1.37-1.37.06-.06s.02-.02.02-.02c.01,0,.06,0,.08,0h.09s.03,0,.05,0Z"/>
  <path class="cls-46" d="m5.81,3.91l.02.04h-.07s-.09,0-.11,0c.01-.01.03-.04.05-.05,0,0,.1,0,.12,0Z"/>
  <path d="m4.3,5.11s.02.02.03.03l.03-.02s-.03.02-.03.03c0,0,.02.03.02.03,0,0,0,0,.01,0h0s0,.01,0,.01c0,.01,0,.02,0,.03h0s.07-.06.11-.1l.2-.2.71-.71c.06-.06.12-.13.19-.19h0s-1.22,1.21-1.22,1.21v.05c-.02.05-.06.09-.1.12h0s-.04,0-.06,0h-.01s0,0,0,0c-.01,0-.02,0-.04,0-.03,0-.06-.03-.08-.06h0s0-.04-.01-.05l-.03.03s.02-.03.03-.04c0-.02,0-.03,0-.04-.01,0-.02,0-.03.02,0-.01.02-.02.03-.03,0,0,0-.02,0-.03,0-.02.02-.04.04-.05.03-.03.06-.04.09-.05.02,0,.05,0,.07,0,.02,0,.03.02.05.02Z"/>
  <path d="m3.74,8.18s.03.02.04.03l.07.07.55.54,1.3,1.29.34.33.27.27c-.07.01-.14,0-.21,0-.01,0-.02,0-.03,0h0s-.07.05-.12.05c-.04,0-.07-.01-.1-.04-.02-.02-.03-.03-.04-.05h0s0,0-.01,0c-.02-.02-.06,0-.09,0h-.16s-.03,0-.04,0c-.01,0-.03-.02-.03-.03-.05-.05-.1-.1-.15-.15l-.4-.4-.26-.26-.91-.88s0-.03,0-.05v-.13s0-.6,0-.6Z"/>
  <path class="cls-39" d="m4.17,8.93s.03,0,.05,0c.01,0,.03.02.03.03,0,.01,0,.02,0,.03,0,.03-.03.04-.05.05,0,0-.02,0-.03,0-.02,0-.03-.02-.04-.04,0-.01,0-.03,0-.04,0-.02.03-.03.05-.04Z"/>
  <path class="cls-34" d="m3.87,8.57h0s-.02-.03-.02-.04c0,0,0-.03,0-.04.01,0,.02.02.03.03l.06.06.14.14s.05.05.08.08c0,0-.02,0-.03,0-.02-.02-.04-.04-.06-.05l-.12-.12s-.03-.03-.05-.04h0s-.02-.02-.03-.03Z"/>
  <path class="cls-25" d="m3.85,8.6s0,0,0,0c0-.01,0-.04,0-.05l.02.02s.02.02.03.03h0s0,0,0,0l.22.22-.03.02s-.04-.03-.05-.04l-.13-.12s-.03-.03-.05-.04c0,0-.01-.01-.02-.02Z"/>
  <path class="cls-46" d="m3.85,8.66s0-.04,0-.06c0,0,.01.01.02.02h0s.21.21.21.21c0,.01,0,.01-.02.02-.02,0-.03-.02-.04-.03l-.09-.09s-.03-.03-.05-.04l.18.18-.02.02s-.11-.11-.14-.13c-.01,0-.04-.04-.05-.05-.01-.01,0-.04,0-.06Z"/>
  <path class="cls-39" d="m5.91,10.5s0,0,.02,0h0s0,.01,0,.01c-.01,0-.02,0-.02.02h0s-.01.02-.02.03h0s0,0,0,0c0,.01,0,.05,0,.06h0s0,.02.01.03h0s0-.04,0-.07c0-.02.02-.03.03-.04.03,0,.05,0,.07.02.02.02.02.04.03.06,0,.01,0,.02,0,.04,0,0,.01,0,.02-.01h0s0,0,0,0c0,.01-.02.02-.03.03,0,0-.01,0-.02.01h0s-.01,0-.02,0c0,0-.02,0-.03,0h-.01s-.03-.01-.04-.02h0s-.03-.03-.03-.05h0s0-.05,0-.07h0s0-.02,0-.03h0s0,0,0,0c0-.01.03-.03.04-.04Z"/>
  <path class="cls-25" d="m3.84,8.88s0-.03,0-.04h0s0-.01,0-.01c0-.02,0-.03,0-.05h0s0-.04,0-.06c0,0,.03.04.05.05.04.04.1.09.14.14,0,0,0,.02,0,.03h0s-.09-.09-.09-.09h0s.07.07.09.1v.02s0,0,0,0h0s0,0,0,0c.01.02,0,.04,0,.06l-.1-.1s-.02-.03-.04-.03l.13.13s0,.02.01.03c0,.02.02.03.03.05h-.01s-.2-.17-.2-.17v-.06Z"/>
  <path class="cls-36" d="m4.36,9.08h0s0-.05,0-.07l1.47,1.45-.04.02-.1-.09s-.03-.03-.04-.03c0,0-.01,0-.02-.01h-.01s-.09-.1-.13-.14l-.28-.28-.85-.84Z"/>
  <path class="cls-46" d="m4.05,9.12s.06.06.1.07c.03.04.08.07.11.1l.14.13.16.14.83.82.13.13s.04.03.05.05h.03s0,.01,0,.01c.01.01.02.02.04.02h0s0,0,0,0h0s0,0,0,0h0s.06.01.08.01h0s0,0,0,0l-.04-.05h0s.03.03.05.04c0,0,0,0,0,.02h-.02s-.14,0-.14,0c0,0-.03,0-.04,0-.02,0-.31-.31-.34-.34l-.55-.54-.61-.59h.01Z"/>
  <path class="cls-34" d="m4.36,9.08l.85.84.28.28s.09.1.13.13h.01s.01.02.02.02l.08.08s.04.03.05.06c0,0,0,.01-.01.02-.03,0-.06-.06-.09-.08h0s.08.09.08.09c0,0,0,.02,0,.03h0s-.04-.04-.04-.04h0s.06.04.03.08h0s-.04-.03-.05-.04c-.02-.03-.06-.05-.07-.07,0-.02-.03-.03-.04-.04-.01-.02-.03-.03-.04-.05,0,0,0,0,0-.01h0s-.02-.04-.03-.05l-1.14-1.15s-.02-.02-.03-.02l.03-.04v-.02Z"/>
  <path class="cls-36" d="m4.32,9.14l.03-.04.54.54s.02.03.04.04l.09.09s.03.02.03.04c0,.02.03.03.04.04.05.06.12.12.18.18l.24.25s.04.03.04.06c-.03-.02-.06-.06-.08-.08l-.08-.08-.34-.33-.14-.14s-.03-.04-.05-.05l-.14-.14-.09-.08-.2-.21s-.04-.05-.06-.05c0,0-.02,0-.03.01,0,0-.02-.02-.03-.02Z"/>
  <path class="cls-25" d="m4.32,9.14s.02.01.03.02l1.14,1.15s.03.03.03.04h0s0,0,0,.02c.01.02.03.03.04.05,0,.02.03.03.04.04.01.03.06.05.07.07h0s.04.05.04.05h0s0,0,0,0c-.03,0-.06,0-.08,0h0s0-.02,0-.02h0s0,0,0,0h0s-.02,0-.04-.02h0s-.03-.01-.03-.01c0-.02-.03-.04-.05-.05l-.13-.13-.83-.81-.16-.14-.14-.13s-.08-.06-.11-.1c.03,0,.05,0,.08,0,.03,0,.06-.02.08-.05Z"/>
  <path class="cls-40" d="m4.32,9.14s.02.01.03.02l1.14,1.15s.03.03.03.04c-.03-.02-.06-.06-.09-.09l-.22-.21s-.08-.09-.13-.13c0,0-.02-.02-.03-.03-.03-.02-.05-.05-.08-.08l-.16-.16-.47-.48-.04.02,1.34,1.34h0s-.08-.07-.11-.1l-.23-.23-.76-.75-.18-.18s-.05-.05-.07-.07c-.01,0-.02,0-.03.02.02.03.06.06.09.09l.17.18h0s.01.02.02.03c.02.03.07.05.07.09h0s0,0,0,0c.03.02.05.06.08.08l.21.21.59.59s.05.04.07.07h-.03s-.03-.05-.05-.06l-.13-.13-.83-.81-.16-.14-.14-.13s-.08-.06-.11-.1c.03,0,.05,0,.08,0,.03,0,.06-.02.08-.05Z"/>
  <path class="cls-46" d="m4.26,9.23s.07.06.1.09l.15.15s.03.03.04.03c0,0,.01.01.02.02.02.03.07.05.07.09l-.4-.37h0s.02-.02.02-.02Z"/>
  <path d="m10.55,8.12v-.23s0-.04,0-.04c0-.01,0-.03,0-.04v-.08s0-.01,0-.01h0s0-.06,0-.06c0-.02,0-.04,0-.06h0s0-.05,0-.06c.05-.05.1-.1.15-.15.06-.05.11-.11.17-.16v.32s0,.06,0,.06c0,0,0,.02,0,.02,0,0-.02.03-.03.04l-.24.23v1.22s-.86.85-.86.85l-.23.22-.57.57-.08.08s-.02.02-.03.02c0,0-.02,0-.03,0h-.11s-.62,0-.62,0c-.03,0-.27,0-.29,0h0s.05,0,.07,0c0,0,.02-.02.03-.03l.09-.09.06-.07s.02-.02.02-.03c0-.02.03-.04.04-.05l.12-.11.32-.32.86-.86,1.13-1.11v-.06Z"/>
  <path class="cls-46" d="m10.28,8.98h0s.04-.04.06-.06l.12-.12v.06s-.19.17-.19.2h-.01s0-.06.02-.08Z"/>
  <path class="cls-39" d="m8.36,10.55s0,.01,0,.02c0,.01,0,.02,0,.03h-.02s-.07,0-.08-.01c0,0,0-.01,0-.02,0,0,0,0-.01,0-.02,0-.03.02-.05.03v.06s.03.03.05.04h0s.01,0,.02,0h0s.01,0,.02,0c0,0,.01,0,.02,0h0s.02,0,.02-.01h0s.02-.02.03-.03h0s0,0,0,0c0,0,0,.01,0,.02h0s0,.01-.01.02h0s0,.01-.01.01h0s-.01,0-.02.01h0s-.03,0-.05,0h0s-.03,0-.04-.02h0s-.02-.02-.02-.03h0s0-.01,0-.02v-.02s-.01-.02-.01-.03c0-.03,0-.05.03-.07,0,0,0,0,.01,0h0s.05-.02.07-.02c.02,0,.04.01.05.02Z"/>
  <path class="cls-35" d="m8.31,10.53s.04.01.05.02c-.01,0-.02.01-.03.02-.02,0-.03,0-.05,0,0-.02.01-.03.03-.04Z"/>
  <path class="cls-39" d="m10.08,8.92h.02s.03.01.04.02c.01.02.01.04,0,.06,0,.02-.03.03-.05.04-.02,0-.03,0-.04,0-.02,0-.03-.02-.04-.04,0-.01,0-.03,0-.05.01-.02.03-.03.06-.03Z"/>
  <path class="cls-25" d="m8.96,10.32c.06-.07.13-.14.2-.21l.55-.55.28-.28.07-.07s.02-.02.02-.02c.01,0,.05,0,.06,0l-.62.61-.24.22s-.06.05-.08.08h0s-.04.04-.06.06c-.01.01-.02.03-.04.04l-.04.04h0s-.02.02-.03.03c-.01.01-.03.02-.04.03,0,0-.01.02-.02.02,0,0,0,0-.01,0Z"/>
  <path class="cls-46" d="m10.43,8.65s-.04.03-.05.04c-.05.05-.11.11-.17.16-.03-.02-.05-.03-.07-.04l.33-.32s0,.04,0,.05c0,.02-.04.04-.06.06l-.17.16s-.05.04-.06.06c.03-.02.07-.06.1-.09l.19-.18v.05s-.01.02-.02.03h.02s0,0,0,0v.06s0,.06,0,.06l-.03.03s.02-.02.03-.02c0,.01,0,.05,0,.06,0,0-.02.02-.03.03l-.1.1s-.04.04-.05.05h0s0-.04,0-.04c.02-.02.04-.04.06-.06l.1-.11h0s-.16.16-.16.16c0,0-.02-.03-.02-.04.02-.02.04-.04.06-.06l.12-.12s-.04.04-.06.05l-.12.12s-.02-.02-.03-.03l.21-.21Z"/>
  <path class="cls-56" d="m10.28,9.06l.19-.19v.07s-.12.12-.12.12l-.46.46-.55.55-.25.24-.24.25s-.04.05-.05.05c-.01,0-.04,0-.05,0h-.16s.27-.24.27-.24h0s.06-.08.08-.08c.02,0,.03-.02.04-.04l.06-.06s.03-.03.04-.04c.01-.02.04-.04.06-.06l.1-.1s.03-.04.05-.05c.02,0,.03-.03.05-.04l.08-.08s.03-.03.04-.04c.02-.03.06-.06.08-.09.02-.02.04-.04.06-.05h0s.02-.02.03-.03l.06-.06s.35-.36.36-.36c0,0,.04,0,.05,0l-.82.81-.25.25s-.09.1-.14.13h0s.08-.06.08-.06h0s0,0,.01,0c0,0,.01-.01.02-.02.01-.01.03-.02.04-.03.01,0,.02-.02.03-.03h0s.04-.04.04-.04c.02,0,.03-.02.04-.04.02-.02.04-.04.06-.06.05-.04.1-.09.15-.14l.53-.51.26-.26s.06-.05.08-.08c.02-.02.02-.04.03-.06h.01Z"/>
  <path class="cls-25" d="m10.55,8.12v-.23s0-.04,0-.04c0-.01,0-.03,0-.04v-.08s0-.01,0-.01h0s0-.06,0-.06c0-.02,0-.04,0-.06h0s0-.05,0-.06c.05-.05.1-.1.15-.15.06-.05.11-.11.17-.16v.32s0,.06,0,.06c0,0,0,.02,0,.02,0,0-.02.03-.03.04l-.24.23v1.22s-.86.85-.86.85l-.23.22-.57.57-.08.08s-.02.02-.03.02c0,0-.02,0-.03,0h-.11s-.62,0-.62,0c-.03,0-.27,0-.29,0h0s.05,0,.07,0c0,0,.02-.02.03-.03l.09-.09c.06,0,.11,0,.17,0,.01.01.02.03.04.04l.06.02s.09.01.12,0h.02s.05-.07.07-.1c0-.02.02-.04.03-.06h0s0-.02,0-.03c0-.02.03-.04.05-.05l.14-.13.61-.61h0s-.8.79-.8.79c0-.04,0-.06.04-.09,0,0,.02-.01.02-.02l-.04.04h0s0-.04.01-.06h-.01s0,0-.01-.02l.64-.62s.03-.03.04-.04c.06-.06.11-.11.17-.16l.57-.57s.01.03.01.04l-.47.48h0s.48-.48.48-.48l.02.03-.48.48h0s.48-.48.48-.48l.03.03-.29.29h0s.07-.06.1-.09l.2-.19s.03.01.04.02l-.46.46s-.04.04-.06.05c-.02.02-.07.06-.08.09,0,.01-.03.03-.04.04l-.08.08s-.03.03-.05.04c-.01,0-.04.03-.05.05l-.1.1s-.04.04-.06.06c0,.01-.03.03-.04.04l-.06.06s-.03.03-.04.04c-.01,0-.07.07-.08.08l-.25.24s-.03.02-.04.03c-.02.02-.03.04-.04.06.03,0,.3,0,.31,0,.01,0,.04-.04.05-.05.06-.05.11-.11.17-.16h0s1.52-1.51,1.52-1.51v-.78s0-.06,0-.06Z"/>
  <path class="cls-48" d="m8.18,10.76l.06.02s.09.01.12,0h.02s-.03.02-.05.03c-.03.01-.08,0-.11,0-.02,0-.04-.02-.05-.04Z"/>
  <path class="cls-34" d="m9.12,9.81s.03-.03.04-.04c.06-.06.11-.11.17-.16,0,.02-.03.04-.04.05l-.07.07s.01,0,.02-.01h0s0,.02-.01.03h0s-.11.1-.11.1c-.02.02-.04.05-.06.06,0-.03.05-.05.07-.07,0-.01,0-.01,0-.02Z"/>
  <path class="cls-40" d="m7.98,10.73c.06,0,.11,0,.17,0,0,.02,0,.02-.02.03-.06.03-.12.06-.17.09.04,0,.08,0,.12,0-.03,0-.27,0-.29,0h0s.05,0,.07,0c0,0,.02-.02.03-.03l.09-.09Z"/>
  <path class="cls-40" d="m9.03,10.48h0s1.52-1.51,1.52-1.51c0,.02,0,.04,0,.06l-.48.47-.5.49-.18.19-.28.27-.17.17s-.05.05-.08.07h0s-.03.04-.05.05c0,0-.06,0-.07,0h-.3s.04-.02.05-.05h0s.3,0,.31,0c.01,0,.04-.04.05-.05.06-.05.11-.11.17-.16Z"/>
  <path class="cls-55" d="m3.9,6.17s.06-.07.09-.1l.18-.18.63-.63,1.18-1.18.48-.48c.08-.08.16-.18.25-.25h.86s.93.92.93.92l1.03,1.02.68.68.14.14s.04.03.04.05c0,0,0,.03,0,.04v.13s0,1.26,0,1.26v.33s0,.1,0,.14l-2.71,2.68h-.35s-.09,0-.09,0c-.02,0-.04,0-.05,0,0,0-.02,0-.02,0-.01,0-.03,0-.04,0,0,0-.02,0-.02,0-.03,0-.07,0-.1,0h-.3s-.06,0-.07,0c0,0-.01-.01-.02-.02l-.05-.04-.31-.3-.63-.63-1.14-1.13-.35-.35-.11-.11s-.04-.04-.06-.06c-.02,0-.04,0-.06-.01,0-.05,0-.1,0-.15v-.23s0-.84,0-.84v-.46s0-.13,0-.13c0-.03,0-.05,0-.08h0s0-.01,0-.01Z"/>
  <path d="m3.95,7.16s0-.01,0-.02c0-.02,0-.03,0-.05,0-.03.04-.06.07-.08.03-.02.07-.02.1,0,.04.01.06.04.08.07.01.02.01.05.01.07-.01.04-.04.07-.07.09-.03.02-.08.02-.12,0-.04-.02-.06-.05-.08-.09Z"/>
  <path class="cls-45" d="m4.02,7.11h0s.02-.04.04-.04c.02,0,.04,0,.05.02.01.02.02.03.02.05,0,.02,0,.03-.02.04-.02.01-.03.01-.05.01-.02,0-.03-.01-.04-.02h0s0-.02,0-.02c0-.02,0-.03,0-.05Z"/>
  <path class="cls-24" d="m4.01,7.16h0s0-.03,0-.05c0,0,.01.02.02.02.02,0,.05,0,.07-.01h0s0,.01,0,.03c-.02.02-.05.01-.08.01,0,0-.02,0-.03,0Z"/>
  <path class="cls-4" d="m4.02,7.11h0s.02-.04.04-.04c.02,0,.04,0,.05.02v.02s0,.01,0,.01c-.02.02-.05.02-.07.01-.01,0-.02-.01-.02-.02Z"/>
  <path d="m7.16,10.45h0s0,0,.01,0c0,0,.01,0,.02,0h0s.01,0,.02.01h0s.02.02.03.03h0s.01.02.02.04h0s0,.02,0,.02h0s0,.04,0,.06h0s0,.04-.01.05h0s-.02.03-.03.04c0,0,0,0,0,0-.01,0-.02,0-.03.01-.01,0-.03,0-.04,0-.02,0-.05,0-.07-.01h0s-.04-.03-.05-.05h0s0-.02,0-.03h0s0,0,0,0c0-.01,0-.05,0-.07h0s0-.02,0-.03h0s.02-.04.04-.05h0s.02-.01.03-.02h0s.02,0,.04,0Z"/>
  <path class="cls-39" d="m7.14,10.5s.05,0,.08.03c.02.02.02.04.02.07,0,.02,0,.03-.02.04-.03.02-.05.02-.09.02h0s-.04-.02-.04-.04c0-.02,0-.04,0-.06.01-.03.03-.04.06-.05Z"/>
  <path class="cls-35" d="m7.13,10.66s0-.01,0-.02h.09s-.05.02-.09.02Z"/>
  <path class="cls-35" d="m7.14,10.5s.05,0,.08.03c0,0-.01,0-.02,0-.02,0-.05,0-.06,0v-.03Z"/>
  <path d="m10.3,7.24h0s-.01,0-.01,0c-.03,0-.05,0-.08-.01-.03-.01-.07-.05-.08-.08h0s-.02-.05-.01-.08c0-.03.02-.06.04-.08.03-.02.06-.03.09-.03.06,0,.11.06.14.1.01.03.01.06,0,.08-.02.04-.05.07-.09.1Z"/>
  <path class="cls-31" d="m10.22,7.03s.04,0,.06,0c.02,0,.04.02.04.04,0,.02.01.05,0,.07,0,.03-.03.03-.05.05-.02,0-.04,0-.07,0-.02-.01-.03-.03-.04-.05,0-.02,0-.04,0-.06h0s.02-.03.04-.04Z"/>
  <path class="cls-23" d="m10.22,7.05h.02s.04,0,.05.02c.02.02.02.04.02.06-.01.02-.02.02-.04.03h-.06s-.02-.01-.03-.03c0-.01,0-.03,0-.05,0-.02.03-.03.04-.04Z"/>
  <path class="cls-31" d="m5.8,4.71s.02-.02.03-.03l.1-.1.55-.55c.07-.07.13-.14.2-.2.01-.01.03,0,.04,0h0s-.02.01-.02.01c-.02,0-.04.03-.06.05l-.09.09-.43.43-1.22,1.2-.47.47-.2.2s0,.03,0,.05v.08s0,.32,0,.32v1.32s0,0,0,0c0-.03,0-.06,0-.08v-.15s0-.64,0-.64c-.01.03-.02.05-.05.07-.03.02-.08.03-.12.02-.03,0-.06-.02-.08-.05,0-.01-.02-.03-.01-.05.02.04.04.07.08.09.04.01.08.01.12,0,.04-.02.06-.05.07-.09,0-.02,0-.04,0-.06v-.14s0-.53,0-.53v-.11s0-.03,0-.03c0-.03.6-.6.68-.67l.55-.54.23-.23s.09-.09.13-.13Z"/>
  <path class="cls-31" d="m7.13,3.52s.03,0,.04,0h0s.02,0,.03.01c.02,0,.05.03.06.05.02.03.03.07.02.1h0c-.01.06-.04.09-.08.12h0s.09,0,.09,0c.01,0,.04,0,.05,0h-.14s-.22,0-.22,0h0s.1-.01.1-.01c-.03-.02-.06-.04-.08-.08-.01-.03-.02-.06-.01-.09,0-.01,0-.03.01-.04h0s0-.01,0-.02c.02-.04.06-.06.1-.06Z"/>
  <path d="m7.12,3.54s.05,0,.07,0c.03,0,.07.04.08.07.02.03.02.07,0,.11-.02.04-.04.07-.08.08-.02,0-.05,0-.07,0-.04-.01-.07-.04-.08-.07-.02-.03-.02-.08,0-.11.02-.04.05-.06.09-.07Z"/>
  <path class="cls-39" d="m7.09,3.62s.01-.02.02-.03c.02-.01.05-.01.07,0,.02,0,.03.02.04.03.01.02,0,.08,0,.1,0,.02-.02.04-.04.04-.01,0-.04,0-.05,0-.01,0-.03-.03-.03-.04,0-.03,0-.07,0-.1Z"/>
  <path class="cls-23" d="m7.09,3.62s.01-.02.02-.03c.02-.01.05-.01.07,0h0s.02.04.03.06c0,0,0,.01-.02.01-.03.01-.07.01-.1.01,0,0,0-.03,0-.04Z"/>
  <path class="cls-4" d="m10.07,6.28h0c0,.08,0,.16,0,.23v.42s0,.76,0,.76v.35s0,.01,0,.02c-.05.06-.12.12-.18.18l-.35.35-1.02,1.01-.56.56-.16.16s-.05.06-.08.08h-1.11s-.9-.89-.9-.89l-.72-.72-.53-.53-.21-.21s0-.01-.01-.02h0s.03.04.04.05l.12.12.51.51,1.14,1.13.35.35c.07.07.13.14.2.2h.92s.15,0,.15,0c0,0,.04,0,.04,0,0,0,.01-.02.02-.02l.06-.06.28-.28,1.89-1.87.09-.09s.02-.02.02-.02c0-.02,0-.06,0-.08v-.3s0-1.39,0-1.39Z"/>
  <path class="cls-4" d="m3.9,6.17s.06-.07.09-.1l.18-.18.63-.63,1.18-1.18.48-.48c.08-.08.16-.18.25-.25h.86s.93.92.93.92l1.03,1.02.68.68.14.14s.04.03.04.05c0,0,0,.03,0,.04v.13s0,1.26,0,1.26v.33s0,.1,0,.14h0s0-.87,0-.87c-.02.03-.05.07-.09.07h0s.08-.05.09-.1c.01-.03,0-.06,0-.08,0,0,0,0,0-.02,0-.03,0-.07,0-.1v-.19s0-.58,0-.58l-1.56-1.53-1.27-1.27c-.08,0-.82,0-.83,0-.02.01-.04.04-.06.06l-.2.2-.71.71-.37.37h0s-.15.16-.15.16l-.21.21-.76.76-.21.2s-.09.09-.14.13h0s0-.01,0-.01Z"/>
  <path d="m6.7,3.83h.71s.14,0,.14,0c.01,0,.04,0,.05,0,0,0,.03.03.04.04l.85.86,1.58,1.56v1.39s0,.3,0,.3c0,.02,0,.06,0,.08,0,0-.02.02-.02.02l-.09.09-1.89,1.87-.28.28-.06.06s-.01.02-.02.02c0,0-.03,0-.04,0h-.15s-.92,0-.92,0c-.07-.06-.14-.13-.2-.2l-.35-.35-1.14-1.13-.51-.51-.12-.12s-.03-.03-.04-.05v-1.32s0-.32,0-.32v-.08s0-.03,0-.05l.2-.2.47-.47,1.22-1.2.43-.43.09-.09s.04-.04.06-.05Z"/>
  <path class="cls-44" d="m5.41,8.68s0,.06,0,.08h0s-.01-.02-.01-.02c0-.02.02-.04.02-.06Z"/>
  <path class="cls-21" d="m9.11,8.65h0s.02.04.03.05h-.01s0,.01,0,.01c0-.01-.02-.03-.02-.05h.01Z"/>
  <path class="cls-44" d="m8.78,8.96s.01,0,.02,0c.02,0,.04.03.05.05h0s0,.01-.01.01l-.06-.06Z"/>
  <path class="cls-38" d="m9.8,7.39h.06s0,.05,0,.05l-.06-.05Z"/>
  <path class="cls-62" d="m6.39,4.61s0-.02.02-.04l.04.04s-.03.01-.04.02l-.02-.02Z"/>
  <path class="cls-49" d="m9.86,6.44s0,0,0,0c0,.02,0,.06,0,.08l-.02-.02-.03-.02s.03-.03.05-.04Z"/>
  <path class="cls-15" d="m5.71,7.57s.05,0,.07,0c.04,0,.08,0,.12,0h0s-.04.01-.06.01c-.04,0-.08,0-.12,0h0Z"/>
  <path class="cls-14" d="m8.71,8.96s0,0,.01,0c.03,0,.07.05.09.07h0s-.01.02-.01.02l-.08-.09Z"/>
  <path class="cls-21" d="m9.21,7.73l-.07-.09s.07.05.1.08c0,0-.01.01-.02.02h0s0,0-.01,0Z"/>
  <path class="cls-49" d="m5.19,7.4h.09s-.03.04-.03.04c-.02,0-.04,0-.06-.01,0,0,0-.02,0-.03Z"/>
  <path class="cls-21" d="m9.74,7.34h.08s.03,0,.04,0c0,.01,0,.02,0,.03h0s-.05,0-.06,0c-.01,0-.03-.03-.04-.04Z"/>
  <path class="cls-62" d="m6.08,4.73l.06.05s0,.03,0,.04h0s-.07-.07-.07-.07l.03-.02Z"/>
  <path class="cls-15" d="m5.71,7.15s.05,0,.08,0h.12s0,0,0,0h0s-.07.01-.11,0h0s-.1,0-.11,0h0s.02,0,.02,0Z"/>
  <path class="cls-49" d="m5.35,7.38s.03-.04.06-.05h.01s0,.02,0,.03c-.02.02-.05.06-.07.06h0s0-.03,0-.04h0Z"/>
  <path class="cls-14" d="m9.54,6.07s0,0,0,0c0,0,.01.02.01.02,0,.01,0,.03,0,.05v.1s0,0,0,0c0,0-.02-.02-.02-.02,0,0,0-.03,0-.03v-.12Z"/>
  <path class="cls-62" d="m9.35,5.87s.01,0,.02,0c.01.01,0,.03,0,.05v.12s-.02-.02-.02-.02c0,0,0-.02,0-.03,0-.04,0-.08,0-.13Z"/>
  <path class="cls-44" d="m5.29,7.34s0-.01,0-.02c0-.01.02-.02.03-.04,0,0,.02-.03.03-.03,0,0,.01,0,.02,0,0,.01,0,.02,0,.03l-.05.06s-.03,0-.04,0Z"/>
  <path class="cls-44" d="m9.62,7.33s.06,0,.08,0c0,0,.01,0,.01.01h0s-.02.02-.02.03h0s-.02,0-.02,0c-.02,0-.05,0-.06,0v-.02s0,0,0-.01Z"/>
  <path class="cls-50" d="m7.65,5.7s0,0,.02,0c0,.06,0,.12,0,.17h-.02s0,0,0,0v-.17Z"/>
  <path class="cls-21" d="m8.88,8.72s.11.1.12.12h0s0,.02,0,.02c-.01,0-.03-.03-.04-.04l-.07-.07v-.03Z"/>
  <path class="cls-62" d="m5.82,5.17l-.09-.09.03-.03s.07.07.09.11c-.01,0-.02,0-.03,0Z"/>
  <path class="cls-14" d="m8.97,5.49s.03.02.03.03c0,.01,0,.03,0,.04v.13s-.02-.03-.03-.04c0,0,0-.03,0-.04v-.12Z"/>
  <path class="cls-44" d="m5.36,8.74l.05.04-.06.06s-.03.03-.04.04c0,0-.01-.01-.02-.02.01-.02.06-.06.06-.08h0s0-.03.01-.04Z"/>
  <path class="cls-62" d="m9.16,5.68s.03.02.03.03c0,0,0,.03,0,.04v.11s-.02,0-.03-.01v-.17Z"/>
  <path class="cls-50" d="m6.36,4.59l-.07-.06.03-.03.07.07h.02s-.02.03-.02.05l-.03-.03Z"/>
  <path class="cls-62" d="m6.28,4.74s-.07-.06-.11-.1c0,0,.02-.02.03-.02l.11.09s-.02.02-.03.03Z"/>
  <path class="cls-62" d="m5.09,5.92v-.16s0-.03,0-.04c0,0,.02-.03.03-.04v.21s-.03.02-.03.02Z"/>
  <path class="cls-14" d="m8.37,9.19l.14.14-.02.02-.15-.16s.02,0,.03,0Z"/>
  <path class="cls-45" d="m9.8,6.49s.04.04.06.05v.08s0,0,0,0h0s-.09-.1-.09-.1l.04-.04Z"/>
  <path class="cls-50" d="m5.26,5.76s0-.04,0-.06v-.1s0-.03,0-.04c0,0,.03-.03.03-.04v.21s-.04.03-.04.03Z"/>
  <path class="cls-50" d="m6.54,9.18h0s0-.06,0-.09v-.13s.01,0,.03,0c0,0,0,0,0,0,0,.01,0,.31,0,.35,0,0,0,0,0,.01,0-.03,0-.07,0-.11,0-.01,0-.03,0-.04h-.03Z"/>
  <path class="cls-62" d="m4.73,6.3v-.02s0-.16,0-.16c0-.01,0-.04,0-.05,0,0,.03-.03.03-.03v.23s-.03.02-.03.02Z"/>
  <path class="cls-50" d="m4.92,6.11v-.16s0-.04,0-.05c0,0,0-.01,0-.01l.03-.03v.23s0,.08,0,.12v-.12s0,0,0,0l-.02.02Z"/>
  <path class="cls-62" d="m5.99,5.24v-.33s0,0,0,0c-.02-.01-.03-.02-.04-.04l.02-.02s.04.03.05.04c0,0,0,.01,0,.01,0,.01,0,.04,0,.06v.46s0,0,0,0c0-.05,0-.1,0-.14v-.32s-.03.02-.03.02v.24s0,0,0,0Z"/>
  <path class="cls-45" d="m6.2,4.8h0s-.1-.09-.1-.09l.04-.04s.07.06.1.09c-.02.01-.04.02-.05.04Z"/>
  <path class="cls-50" d="m6.48,9.18v-.22s.02,0,.03,0c.01.02,0,.19,0,.22h-.03Z"/>
  <path class="cls-24" d="m8.18,5.79h.16s-.05.04-.05.04c-.01,0-.03.04-.04.04,0,0-.05,0-.06,0v-.08Z"/>
  <path class="cls-62" d="m7.49,9.19v-.22s0,0,0,0h.03s0,.04,0,.06c0,.05,0,.11,0,.17h-.04Z"/>
  <path class="cls-14" d="m5.93,9.17h.04s-.12.13-.12.13c-.02.02-.03.04-.05.05l-.03-.03s.05-.06.08-.08c.02-.03.05-.06.08-.07Z"/>
  <path class="cls-62" d="m5.64,5.34s0-.06,0-.09c0-.01-.03-.03-.03-.05,0,0,0,0,0-.01h.01s.03.02.04.03c0,.06,0,.13,0,.2h0s-.02,0-.03,0c0-.03,0-.06,0-.09Z"/>
  <path class="cls-14" d="m5.64,5.34s.02-.01.03-.02c0,.03,0,.07,0,.1h0s-.02,0-.03,0c0-.03,0-.06,0-.09Z"/>
  <path class="cls-39" d="m7.14,5.57s.02,0,.03,0v.29s0,0,0,0c0,0-.01,0-.02,0,0-.03,0-.06,0-.09,0-.07,0-.14,0-.22Z"/>
  <path class="cls-14" d="m4.44,6.64v-.2s.09.1.09.1l-.09.1Z"/>
  <path class="cls-50" d="m6.68,9.35s0-.1,0-.15c0,0,0-.01,0-.02v-.16s0-.04,0-.06h.03s0,0,0,0c0,0,0,.04,0,.04,0,.06,0,.12,0,.17h-.04s0,.13,0,.16Z"/>
  <path class="cls-20" d="m7.62,5.84v.03s-.29,0-.29,0c-.05,0-.1,0-.15,0,0,0,0-.01,0-.02h.33s.09,0,.11,0Z"/>
  <path class="cls-50" d="m7.33,9.19v-.15s0-.05,0-.07c.01,0,.02,0,.03,0,0,.01,0,.43,0,.46,0-.05,0-.12,0-.17,0-.02,0-.05,0-.06h-.03Z"/>
  <path class="cls-61" d="m8.63,6.3h.11s0,.09,0,.09h-.11s0-.09,0-.09Z"/>
  <path class="cls-62" d="m6.63,5.57s.02,0,.02,0h0s0,.21,0,.21c0,.03,0,.07,0,.1-.01,0-.02,0-.03,0v-.3Z"/>
  <path class="cls-38" d="m8.88,8.79l.08.09-.08.08s0,.01-.02.01l-.03-.03s.03-.04.04-.05c0,0,.01-.02.01-.03,0-.02,0-.04,0-.07Z"/>
  <path class="cls-45" d="m9.72,7.34l.08.08h0s.06.06.06.06v.06s-.17-.15-.17-.15h0s.01-.04.02-.04Z"/>
  <path class="cls-21" d="m9.72,7.34l.08.08s0,0-.01,0c-.02,0-.03-.02-.04-.03,0,0-.02-.01-.02-.02,0,0-.01,0-.02,0,0,0,.01-.02.02-.03Z"/>
  <path class="cls-50" d="m6.82,9.67c0-.05,0-.11,0-.16v-.32s0-.01,0-.02v-.16s0-.04,0-.06h.03s0,.19,0,.22h-.03s0,.08,0,.11v.25s0,.09,0,.13Z"/>
  <path class="cls-1" d="m8.34,9.19s-.04-.04-.05-.05l-.19-.19h.05s.22.23.22.23c-.01,0-.02,0-.03,0Z"/>
  <path class="cls-1" d="m5.93,9.17l.2-.21h.05s-.21.21-.21.21h-.04Z"/>
  <path class="cls-14" d="m6.6,9.19c0-.05,0-.11,0-.16,0-.02,0-.04,0-.06h.04s0,.22,0,.22h-.05Z"/>
  <path class="cls-14" d="m5.85,5.16s0,.22,0,.27h0s-.03,0-.03,0c0,0,0-.24,0-.25,0,0,0,0,0,0,.01,0,.02,0,.03,0Z"/>
  <path class="cls-20" d="m6.21,5.81v.03s.07,0,.09,0h.3s0,0,0,0v-.03s0,.04,0,.06h-.4s0-.06,0-.06Z"/>
  <path class="cls-45" d="m6.05,4.95v-.06s-.04-.04-.06-.06h0s.04-.04.05-.06l.07.06s.02.02.03.03c-.03,0-.06.07-.09.09Z"/>
  <path class="cls-20" d="m8.15,5.81v.06s-.36,0-.36,0c-.02,0-.08,0-.1,0v-.02s.09,0,.13,0h.21s.08,0,.08,0c.01,0,.03,0,.04,0v-.03Z"/>
  <path class="cls-45" d="m6.75,9.18v-.23s.05,0,.05,0c0,.07,0,.15,0,.23h-.05Z"/>
  <path class="cls-44" d="m7.56,9.81h0s0-.23,0-.23v-.38s0-.02,0-.03c0-.03,0-.2,0-.22h.03s0,0,0,0v.22s-.04,0-.04,0c0,0,0,0,0,0,0,.01,0,.03,0,.04v.11s0,.3,0,.3c0,.05,0,.1,0,.15Z"/>
  <path class="cls-20" d="m6.68,5.81v.03s0,0,0,0h.43s0,.02,0,.02c-.01,0-.03,0-.04,0h-.1s-.3,0-.3,0c0-.02,0-.04,0-.06Z"/>
  <path class="cls-50" d="m7.63,9.78s0,0,0-.01c0-.01,0-.03,0-.04v-.1s0-.45,0-.45v-.15s0-.04,0-.06c0,0,0,0,0,0,.01,0,.02,0,.04,0v.23s-.02,0-.02,0h0s0,.02,0,.02h0s0-.01,0-.02h-.01s0,.04,0,.06v.15s0,.38,0,.38Z"/>
  <path class="cls-50" d="m6.99,9.97s0-1,0-1.01c.01,0,.03,0,.04,0v.22s-.03,0-.03,0c0,.01,0,.02,0,.04v.11s0,.43,0,.43c0,.07,0,.15,0,.21Z"/>
  <path class="cls-38" d="m5.48,9.03c-.04-.05-.1-.1-.15-.15l.08-.07.07.21h0Z"/>
  <path class="cls-50" d="m7.16,10.21s0,0,0-.01c0-.02,0-.06,0-.08v-.19s0-.76,0-.76v-.16s0-.03,0-.05c0,0,0,0,0,0h.03s0,.19,0,.22h-.03s0,.26,0,.3v.48s0,.25,0,.25Z"/>
  <path class="cls-45" d="m6.32,4.69s-.02-.02-.04-.03l-.07-.06.06-.06.12.1s-.03.03-.05.03h-.02Z"/>
  <path class="cls-1" d="m7.12,8.7v-.23s.06,0,.06,0v.24s0,0,0,0c-.02,0-.03,0-.05,0Z"/>
  <path class="cls-45" d="m9.35,6.06h0s.02.01.02.02c0,.09,0,.18,0,.27,0,.02,0,.07,0,.09,0,0-.01.01-.01.02h-.01s0,0,0,0v-.41Z"/>
  <path class="cls-45" d="m5.99,5.24h0s0-.25,0-.25l.03-.02v.32s0,.1,0,.14h-.03s0,0,0,0v-.18Z"/>
  <path class="cls-14" d="m5.7,5.3s0-.06,0-.08c0-.02-.03-.04-.05-.06l.06-.06s.06.05.08.08c0,0,0,.03,0,.04-.03,0-.07.06-.09.08Z"/>
  <path class="cls-43" d="m6.21,5.81s.37,0,.39,0h0s0,.03,0,.03h0s-.3,0-.3,0c-.02,0-.07,0-.09,0v-.03Z"/>
  <path class="cls-49" d="m9.01,8.65s.02.02.03.04c0,0,.01.01.02.01l.03-.03.03.06-.08.09-.09-.09.08-.07Z"/>
  <path class="cls-18" d="m4.92,6.11l.02-.02h0s0,.13,0,.13v.13s0,.03,0,.04c0,0,0,0,0,.01.02.03.04.05.06.07,0,0,.02.02.02.02,0,0-.01.02-.02.03h0s-.04-.05-.06-.07c0,0-.02-.02-.03-.03,0,0,0,0,0-.01v-.3Z"/>
  <path class="cls-38" d="m8.42,9.19s.09,0,.13,0c.03,0,.07,0,.11,0l-.12.12-.12-.12Z"/>
  <path class="cls-14" d="m8.86,5.38s.08.08.09.09c0,0,0,.03,0,.04v.13s-.08-.07-.08-.07v-.2Z"/>
  <path class="cls-43" d="m6.68,5.81s.07,0,.1,0h.16s.11,0,.11,0c.02,0,.04,0,.06,0,0,.01,0,.02,0,.03h-.43s0,0,0,0v-.03Z"/>
  <path class="cls-45" d="m6.89,9.19v-.23s.07,0,.07,0v.23s-.07,0-.07,0Z"/>
  <path class="cls-45" d="m8.63,6.68h.11s0,.14,0,.14h-.11s0-.14,0-.14Z"/>
  <path class="cls-45" d="m7.4,9.19h0s0-.23,0-.23h.07s0,.16,0,.16c0,.02,0,.05,0,.07-.02,0-.05,0-.07,0Z"/>
  <path class="cls-45" d="m9.22,5.73l.08.08s.02.02.02.03c0,0,0,.03,0,.04v.12s-.1-.09-.1-.09v-.17Z"/>
  <path class="cls-49" d="m5.7,5.3s.06-.07.09-.08v.22s-.09,0-.09,0c0-.04,0-.09,0-.14Z"/>
  <path class="cls-28" d="m7.69,5.83s0-.02,0-.03c.06,0,.43,0,.45,0v.03s-.03,0-.04,0h-.08s-.21,0-.21,0c-.04,0-.09,0-.13,0Z"/>
  <path class="cls-14" d="m4.98,6.04c0-.07,0-.14,0-.21l.08-.08v.14s0,.05,0,.06c0,.02,0,.05,0,.08v-.07s-.08.08-.08.08Z"/>
  <path class="cls-14" d="m5.14,5.87v-.16s0-.04,0-.05c0,0,.02-.02.02-.02l.06-.06v.21s-.02.02-.03.03c-.02.02-.03.03-.05.05Z"/>
  <path class="cls-28" d="m7.18,5.84v-.03s0,0,0,0h.32s.09,0,.11,0v.03s-.08,0-.11,0h-.33Z"/>
  <path class="cls-2" d="m4.76,6.28v.07s0,.02,0,.02c0,.01.03.03.04.04l.14.15s.05.05.08.08c0,.01,0,.03,0,.04-.03-.02-.06-.06-.09-.09l-.21-.21v-.09s.03-.02.03-.02Z"/>
  <path class="cls-38" d="m7.54,9.91l.19.19-.03.03-.02.02-.11-.11s-.03-.02-.03-.03c0,0,0-.02,0-.02v-.07Z"/>
  <path class="cls-45" d="m7.05,9.19v-.23s.08,0,.08,0v.23s-.08,0-.08,0Z"/>
  <path class="cls-22" d="m6.71,5.05h0s0-.03,0-.03c.01,0,.02.02.03.02h.01s.03.02.03.02c0,.04,0,.25.02.27.05.05.13.08.19.11-.03,0-.07,0-.1,0-.02-.01-.04-.02-.07-.03-.02,0-.06-.02-.08-.04v-.19s0-.06,0-.08c0,0,0,0-.01-.01-.01-.01-.03-.02-.05-.03h0Z"/>
  <path class="cls-45" d="m9.03,5.55l.05.05s.05.04.05.06c0,.01,0,.03,0,.05v.13s-.11-.1-.11-.1v-.17Z"/>
  <path class="cls-38" d="m5.62,9.18c.06,0,.12,0,.18,0,.03,0,.07,0,.09,0l-.13.14-.14-.14Z"/>
  <path class="cls-14" d="m9.4,5.91l.09.09s.02.02.03.03c0,0,0,.03,0,.04v.13s-.11-.11-.12-.13c0-.01,0-.03,0-.05v-.1Z"/>
  <path class="cls-14" d="m5.56,5.43s-.01,0-.02,0c-.01,0-.02-.02-.03-.03l-.05-.05.13-.13s.02.02.03.03v.11s0,.04,0,.06c-.02,0-.04,0-.05,0Z"/>
  <path class="cls-49" d="m5.56,5.43h0s.03-.04.05-.05v.05s-.03,0-.05,0Z"/>
  <path class="cls-45" d="m6.45,9.19h0s0,0,0,.01c0,0,0,.03,0,.03,0,.02-.04.04-.05.05l-.33.34h0s-.02-.02-.02-.02l.4-.41Z"/>
  <path class="cls-31" d="m8.35,7.47h.25s0,.08,0,.08h-.25s0-.08,0-.08Z"/>
  <path class="cls-11" d="m8.35,6.3h.26s0,.08,0,.08h-.26s0-.08,0-.08Z"/>
  <path class="cls-14" d="m5.32,5.71v-.22s.09-.08.09-.08c0,0,.02-.02.03-.02,0,.01,0,.02,0,.03h-.03s0,.06,0,.08v.12s-.09.09-.09.09Z"/>
  <path class="cls-14" d="m4.79,6.24v-.11s0-.06,0-.09h0s.1-.11.1-.11v.22s-.02.01-.03.02c-.02.02-.04.05-.07.07Z"/>
  <path class="cls-14" d="m7.22,10.21s0-.06,0-.09v-.21s0-.95,0-.95h.08s0,.23,0,.23h-.08s0,1.02,0,1.02Z"/>
  <path class="cls-38" d="m9.41,6.1l.11.11s0,.05,0,.07c0,.03-.03.06-.05.09l-.06.06v-.33Z"/>
  <path class="cls-38" d="m5.03,6.49l.36.36s-.02.04-.03.05l-.36-.38s.01-.02.02-.03Z"/>
  <path class="cls-45" d="m6.16,4.79l.03.03s0,.07,0,.1v.18s0,.21,0,.21c0,.04,0,.08,0,.11h0s-.02,0-.03,0v-.63Z"/>
  <path class="cls-38" d="m6.8,9.9h0s0,0,0,.01v.07s0,.02,0,.02c0,.01-.03.03-.04.05l-.12.13-.03-.03-.03-.03s.18-.2.21-.23Z"/>
  <path class="cls-14" d="m6.54,9.18h.03s0,.03,0,.04c0,.03,0,.07,0,.11,0,.01-.03.03-.04.04l-.09.09-.27.27s-.02-.02-.02-.03c.02-.02.05-.05.07-.07l.23-.24.06-.06s.02-.02.03-.03c0,0,0-.03,0-.04,0-.03,0-.06,0-.09Z"/>
  <path class="cls-45" d="m9.61,7.37c-.08,0-.72,0-.73,0,0-.01,0-.02,0-.03h.74s0,0,0,0v.02Z"/>
  <path class="cls-14" d="m5.87,5.13l-.09-.1.15-.15s.04.04.04.05c0,0,0,.02,0,.02v.08s-.06.07-.1.09Z"/>
  <path class="cls-38" d="m4.79,6.24s.04-.05.07-.07c0,0,.02-.02.03-.02v.22s0,.05,0,.07c0,0,.01.01.02.02l.06.06s-.01.01-.02.02l-.12-.13s-.03-.02-.03-.03c0,0,0-.11,0-.12Z"/>
  <path class="cls-45" d="m6.28,4.74s.02-.02.03-.03l.06.05v.67s-.02,0-.03,0c0-.01,0-.03,0-.04v-.1s0-.41,0-.41v-.07s0-.02,0-.02c0-.01-.04-.04-.05-.05Z"/>
  <path class="cls-38" d="m5.96,5.04v.4s-.08,0-.08,0v-.21s0-.05,0-.07c0,0-.01-.01-.02-.02.04-.03.07-.06.1-.09Z"/>
  <path class="cls-45" d="m9.54,6.25s.02,0,.02.01c0,.03,0,.07-.01.1-.02.03-.04.05-.06.08l-.16.15-.21.19s-.05.06-.08.08c0,0-.01,0-.02,0-.01,0-.03,0-.03,0l.24-.23.17-.16s.07-.06.09-.09c.03-.04.05-.08.05-.13Z"/>
  <path class="cls-44" d="m8.97,5.69l.04.03v.64s-.07.08-.11.12l-.02.02h0s0-.04,0-.04c.02-.03.06-.06.09-.09h0s0-.68,0-.68Z"/>
  <path class="cls-45" d="m8.64,6.4h.11s0,.26,0,.26h-.11s0-.26,0-.26Z"/>
  <path class="cls-44" d="m8.18,5.69h.43s0,.07,0,.07h-.43s0-.07,0-.07Z"/>
  <path class="cls-5" d="m9.24,7.72l.1.09v.7s-.03.03-.03.03v-.71s-.1-.1-.1-.1c0,0,0,0,.01,0h0s.01-.01.02-.02Z"/>
  <path class="cls-14" d="m9.6,6.11l.24.23-.04.04-.03.04c-.05-.04-.1-.1-.16-.13h0s0-.04,0-.05v-.12Z"/>
  <path class="cls-32" d="m5.26,5.76l.04-.03v.53s0,.09,0,.09c0,0,0,.02,0,.03,0,0,.02.02.03.03l.08.08.02.02v.05s-.13-.13-.13-.13c0,0-.04-.03-.04-.04,0-.01,0-.1,0-.12v-.32s0-.17,0-.17c0,0,0-.01,0-.02Z"/>
  <path class="cls-14" d="m8.89,7.2h.8s.16,0,.18,0v.02s0,0,0,0h-.76s-.16,0-.16,0c-.01,0-.04,0-.05,0,0,0,0,0,0,0,0-.01,0-.02,0-.03Z"/>
  <path class="cls-45" d="m7.63,9.78v-.53s0-.05,0-.06h.01s0,.01,0,.02h0s0,0,0,0h0s.02-.02.02-.02v.44s0,.09,0,.09c0,0,0,.03,0,.04,0,.01.03.03.04.04l.16.15-.02.03-.14-.14s-.05-.04-.07-.07Z"/>
  <path class="cls-20" d="m6.21,5.69h.4s0,.08,0,.08h-.4s0-.08,0-.08Z"/>
  <path class="cls-14" d="m5.09,5.92l.03-.02v.41s0,.1,0,.1c0,.02,0,.04,0,.06,0,0,0,.01,0,.01.02.03.05.06.08.09.06.07.13.13.19.2,0,0,.02.02.03.03,0,0,0,.02,0,.03l-.27-.28-.04-.04s-.01-.01-.01-.01c0,0,0-.54,0-.58h0Z"/>
  <path class="cls-45" d="m6.45,4.61s.04.03.06.05v.76s-.02,0-.03,0c0,0,0,0,0,0,0,0,0-.02,0-.03v-.09s0-.49,0-.49v-.09s0-.02,0-.03c0,0,0-.01-.01-.01-.02-.02-.03-.03-.05-.05.01,0,.02-.02.04-.02Z"/>
  <path class="cls-3" d="m5.68,5.7h.49s0,.07,0,.07h-.49s0-.07,0-.07Z"/>
  <path class="cls-45" d="m8.35,6.68h.26s0,.14,0,.14h-.26s0-.14,0-.14Z"/>
  <path class="cls-45" d="m5.33,7.34s.02,0,.03,0v.02s-.01,0,0,.01h0s-.04,0-.06,0h-.15s-.26,0-.26,0c-.05,0-.11,0-.16,0l-.14.14s-.1.1-.14.15h0s0-.05,0-.06c0,0,.02-.01.02-.02l.05-.04.21-.22h.58s.03,0,.04,0Z"/>
  <path class="cls-14" d="m5.39,7.05s0,0,0,0c0,0,.02,0,.02,0,0,.01,0,.02,0,.03h-.94s-.03,0-.04,0v-.03s0,0,0,0c.01,0,.8,0,.89,0,.02,0,.04,0,.05,0Z"/>
  <path class="cls-58" d="m8.88,7.66s0,0,0,0l.12.11v.55s0,.12,0,.12c0,.01,0,.03,0,.04,0,0-.02.02-.02.03l-.09.09-.02.02h0s0-.05,0-.05c.01-.02.03-.03.04-.05.01-.01.05-.04.06-.06,0-.01,0-.04,0-.05v-.12s0-.51,0-.51l-.1-.09v-.04Z"/>
  <path class="cls-45" d="m6.68,9.35s0-.14,0-.16h.04s0,.54,0,.54l-.27.27-.03-.03.19-.2.05-.05s.02-.01.02-.02c0,0,0-.04,0-.05v-.3Z"/>
  <path class="cls-45" d="m9.17,5.87l.03.03c0,.06,0,.14,0,.2v.4s-.03.04-.05.05l-.09.08-.17.16h-.01s0,0,0,0v-.04s.06-.06.1-.09l.19-.17s0-.04,0-.06v-.12s0-.44,0-.44Z"/>
  <path class="cls-41" d="m6.21,5.57h.4s0,.09,0,.09h-.4s0-.09,0-.09Z"/>
  <path class="cls-14" d="m8.89,7.05s0,0,0,0c.08,0,.16,0,.24,0h.5s.17,0,.17,0c.02,0,.04,0,.06,0,0,0,0,0,0,0,0,.01,0,.02,0,.03h-.78s-.12,0-.12,0c-.02,0-.05,0-.07,0,0-.01,0-.02,0-.03Z"/>
  <path class="cls-24" d="m8.63,6.84h.11s0,.33,0,.33h-.11s0-.33,0-.33Z"/>
  <path class="cls-52" d="m5.42,7.64s0,.04,0,.05c0,0-.02.02-.03.03l-.09.09v.54s0,.11,0,.11c0,0,0,.03,0,.04,0,0,.01.01.02.02l.07.07s.02.02.03.04c0,.01,0,.03,0,.04h0s-.11-.12-.11-.12c-.01-.01-.02-.02-.02-.04v-.55s0-.1,0-.1c0,0,0-.03,0-.04,0,0,.02-.02.03-.03l.12-.14Z"/>
  <path class="cls-20" d="m7.18,5.69h.44s0,.09,0,.09h-.44s0-.09,0-.09Z"/>
  <path class="cls-20" d="m6.68,5.69h.44s0,.09,0,.09h-.44s0-.09,0-.09Z"/>
  <path class="cls-14" d="m7.16,10.21v-.25s0-.48,0-.48c0-.04,0-.28,0-.3h.03c0,.1,0,1.01,0,1.02,0,0,0,0,0,0,0,0-.02,0-.03,0Z"/>
  <path class="cls-45" d="m5.37,7.25s0-.01,0-.02c-.01,0-.03,0-.04,0h-.12s-.52,0-.52,0c-.04.03-.07.06-.1.09l-.15.16v-.05s.18-.18.18-.18c.01-.01.04-.05.05-.05,0,0,.03,0,.04,0h.14s.4,0,.4,0c.05,0,.1,0,.15,0,0,0,0,0,0,0,0,0,0,.03,0,.03,0,.01-.03.04-.04.05,0-.01,0-.02,0-.03Z"/>
  <path class="cls-38" d="m7.56,9.81c0-.05,0-.1,0-.15v-.3s0-.11,0-.11c0-.01,0-.03,0-.04,0,0,0,0,0,0h.04s0,.51,0,.51v.07s0,.02,0,.03c0,0,.02.03.03.03l.12.11s.05.04.07.07l-.02.03-.24-.23Z"/>
  <path class="cls-20" d="m7.69,5.69h.46s0,.08,0,.08h-.46s0-.08,0-.08Z"/>
  <path class="cls-20" d="m8.63,7.2h.11s0,.35,0,.35h-.11s0-.06,0-.08v-.27Z"/>
  <path class="cls-38" d="m4.98,6.04l.08-.08v.07s0,.46,0,.46c-.01-.01-.08-.08-.09-.09,0-.02,0-.06,0-.08v-.27s0,0,0-.01Z"/>
  <path class="cls-45" d="m7.33,9.19h.03s0,.04,0,.06c0,.06,0,.12,0,.17v.79s-.04,0-.04,0v-1.02Z"/>
  <path class="cls-41" d="m7.18,5.57h.45s0,.09,0,.09h-.45s0-.09,0-.09Z"/>
  <path class="cls-38" d="m6.48,9.18h.03s0,.12,0,.12l-.38.39s-.04-.04-.04-.05c0,0,0,0,0,0l.32-.33.05-.05s.01-.01.01-.02c0,0,0-.04,0-.05Z"/>
  <path class="cls-41" d="m6.68,5.57h.44s0,.09,0,.09h-.44s0-.09,0-.09Z"/>
  <path class="cls-45" d="m8.94,7.47h.54s.08,0,.08,0c0,0,.02,0,.02,0,.02,0,.04.04.06.05l.23.22v.05s-.2-.19-.2-.19l-.07-.07s-.02-.02-.03-.03c-.01,0-.43,0-.48,0h-.07s-.02,0-.02,0c0,0-.04-.03-.05-.04Z"/>
  <path class="cls-14" d="m6.99,9.97c0-.07,0-.14,0-.21v-.43s0-.11,0-.11c0-.01,0-.03,0-.04h.03s0,1.02,0,1.02c-.01,0-.02,0-.03,0,0,0,0,0,0,0,0,0,0-.21,0-.23Z"/>
  <path class="cls-14" d="m4.58,6.46l-.11-.12.24-.23c0,.08,0,.16,0,.23l-.12.12Z"/>
  <path class="cls-19" d="m6.81,4.28h.38c.07,0,.15,0,.22,0-.04.01-.08.02-.13.02-.09.01-.19.02-.28.04-.06.01-.12.04-.17.07,0,0-.03-.02-.04-.03l-.15-.1s.03,0,.06,0c.04,0,.08,0,.12,0Z"/>
  <path class="cls-41" d="m7.66,5.57h.5s0,.09,0,.09h-.5s0-.09,0-.09Z"/>
  <path class="cls-47" d="m9.84,6.36h0s0,0,0,0c0,.01,0,.02,0,.04l-.42.41-.08.08s-.02.02-.02.02c-.02,0-.05,0-.07,0h-.24s-.09,0-.13,0h0s0,0,0,0c0-.01,0-.03,0-.04.02,0,.37,0,.43,0,.02-.01.04-.03.05-.04l.11-.1c.13-.12.26-.24.37-.37Z"/>
  <path class="cls-49" d="m6.05,4.95s.06-.08.09-.09v.57s-.09,0-.09,0v-.48Z"/>
  <path class="cls-38" d="m5.19,7.43s0,0,0,.01c-.01.01-.34,0-.39,0-.03,0-.31.3-.36.34,0-.02,0-.06,0-.08,0-.01.26-.27.3-.31h.46s0,.02,0,.03Z"/>
  <path class="cls-45" d="m9.01,8.65l.15-.15v-.63s0-.11,0-.11c0,0,0-.02,0-.03,0,0,0,0,0,0-.04-.04-.09-.08-.13-.12-.04-.03-.09-.06-.12-.1-.02-.02-.02-.03-.02-.05h0s0,0,0,0c.03.02.06.05.09.08.08.07.16.12.22.22v.78s-.15.14-.16.17c0-.02-.01-.03-.03-.04Z"/>
  <path class="cls-24" d="m8.64,7.59h.11s0,.43,0,.43h-.11s0-.43,0-.43Z"/>
  <path class="cls-14" d="m6.42,4.55l-.08-.07.15-.15.21.12h0c-.06.06-.14.11-.22.14l-.06-.05Z"/>
  <path class="cls-45" d="m6.69,4.46h0c-.06.06-.14.11-.22.14l-.06-.05s.05-.02.07-.03l.2-.06Z"/>
  <path class="cls-38" d="m8.88,7.73l.07.06v.53s0,.1,0,.1c0,0,0,.03,0,.03,0,0-.03.03-.03.04l-.03.04s0-.03,0-.04v-.13s0-.63,0-.63Z"/>
  <path class="cls-38" d="m9.14,7.26h.73s0,.06,0,.06h-.09s-.03,0-.05,0c-.03-.01-.09,0-.13,0h-.5s-.11,0-.11,0c-.02,0-.04,0-.06,0-.01,0-.03,0-.04-.01,0-.01,0-.02,0-.03.03-.01.07,0,.1,0h.15Z"/>
  <path class="cls-37" d="m5.34,8.77l-.24-.22s0-.06,0-.1v-.16s0-.54,0-.54c.02-.02.04-.05.06-.07l.15-.16s.07-.08.11-.12v.05s-.02.03-.02.03l-.2.22s-.05.05-.06.07c0,0,0,.71,0,.76.02.03.06.06.09.08l.14.13s0,.02-.01.03Z"/>
  <path class="cls-60" d="m7.49,9.19h.04c0,.05,0,.11,0,.17v.38s0,.06,0,.06c0,0,0,.02,0,.02,0,0,.02.02.02.02l.08.08.14.14-.02.02-.21-.19s-.01-.01-.03,0c0,0,0,.01,0,.02v.08s0,.03,0,.04c0,.02.12.13.14.16l-.03.03s-.05-.07-.08-.1l-.04-.04s-.01-.01-.02-.02c0,0,0-.03,0-.03v-.11s0-.71,0-.71Z"/>
  <path class="cls-24" d="m8.64,5.78h.11s0,.47,0,.47h-.11s0-.47,0-.47Z"/>
  <path class="cls-38" d="m6.2,4.8s.03-.03.05-.04l.05.05v.63s-.08,0-.08,0v-.41c0-.06,0-.13,0-.19,0-.01,0-.02-.01-.03Z"/>
  <path class="cls-38" d="m6.39,4.64l.07.06v.73s-.07,0-.07,0v-.56s0-.09,0-.09c0,0,0-.02,0-.03,0,0-.02-.02-.02-.02-.02-.01-.03-.03-.05-.04h.02s.03-.03.05-.05Z"/>
  <path class="cls-38" d="m9.22,7.78l.06.06v.72s-.11.11-.11.11h-.02s-.02-.02-.02-.04c0-.01.07-.07.09-.09v-.76Z"/>
  <path class="cls-38" d="m8.87,5.6l.08.07v.52s0,.11,0,.11c0,.01,0,.03,0,.04,0,.01-.02.03-.03.04l-.04.03v-.81Z"/>
  <path class="cls-16" d="m6.82,9.67s0-.09,0-.13v-.25s0-.09,0-.11h.03s0,.85,0,.85l-.12.13s-.03.04-.04.04c0,0-.01,0-.01,0-.01,0-.01,0-.02-.01.01-.02.03-.04.05-.06l.08-.09s.03-.03.03-.04c0-.02,0-.05,0-.07,0-.02,0-.05,0-.06,0,0,0-.01-.02-.02-.02,0-.05.05-.07.06-.06.06-.12.12-.18.19,0,0-.03-.02-.03-.03l.17-.17.07-.07s.02-.02.03-.03h0s0-.02,0-.02c0-.04,0-.08,0-.12Z"/>
  <path class="cls-49" d="m8.9,7.1h.96s0,.05,0,.06h-.01s-.72,0-.72,0h-.18s-.04,0-.05,0c0,0,0,0,0,0,0-.01,0-.03,0-.04,0-.01,0-.01.02-.01Z"/>
  <path class="cls-38" d="m6.75,9.18h.05s0,.59,0,.59l-.28.29-.05-.05.28-.28v-.55Z"/>
  <path class="cls-38" d="m4.69,7.25h.63s-.06.07-.06.07h-.46s-.08,0-.08,0c0,0-.02,0-.02,0,0,0-.02.02-.02.03l-.05.06-.19.19v-.07s0,0,0-.02c0,0,.02-.02.03-.03l.06-.06.17-.17Z"/>
  <path class="cls-20" d="m8.35,7.2h.26s0,.24,0,.24h-.26s0-.24,0-.24Z"/>
  <path class="cls-38" d="m9.24,7.39h.35s.06,0,.06,0c0,0,.02,0,.02,0,.02,0,.06.05.08.07l.11.1s0,0,0,0c0,0,0,.02,0,.03v.1s0,0,0,0l-.18-.17s-.08-.09-.09-.09c0,0-.03,0-.04,0h-.11s-.53,0-.53,0c-.01,0-.01-.01-.02-.02,0,0,0-.01,0-.02,0,0,0,0,0,0,.02,0,.06,0,.08,0h.26Z"/>
  <path class="cls-38" d="m5.42,7.73s0,.04,0,.06v.13s0,.56,0,.56c-.01.01-.03.04-.05.05l-.02-.02s-.03-.02-.03-.03c0,0,0-.03,0-.03v-.1s0-.53,0-.53c.03-.03.06-.07.09-.1Z"/>
  <path class="cls-61" d="m8.48,5.57h.26s0,.19,0,.19h-.11v-.09s-.09,0-.09,0h-.37s0-.1,0-.1h.31Z"/>
  <path class="cls-45" d="m8.35,6.4h.26s0,.26,0,.26h-.26s0-.26,0-.26Z"/>
  <path class="cls-10" d="m5.15,6.71l.27.28h0s0,.01,0,.02h0s0,.02,0,.03h0s-.07-.07-.1-.1c-.01-.01-.03-.03-.05-.04,0,0-.01,0-.01,0,0,0,0,.02,0,.02,0,0-.02,0-.03,0h-.27s-.39-.39-.39-.39c-.04-.04-.09-.08-.12-.13,0,0,0-.02,0-.03,0-.01,0-.02.02-.03.02,0,.03.03.04.05l.11.12s.35.37.36.37c.02,0,.04,0,.06,0h.18s.03-.04.03-.04l-.07-.08s-.02-.02-.02-.03c-.03-.03-.06-.07-.09-.1l-.1-.12s.02,0,.02-.02l.19.2Z"/>
  <path class="cls-45" d="m5.18,7.46h.05s-.02.02-.02.02c-.06.06-.11.12-.16.19l-.05.06s-.02.02-.02.03c0,0,0,.03,0,.03v.12s0,.62,0,.62l-.04-.04v-.61s0-.1,0-.1c0,0,0-.02,0-.03,0-.01.02-.03.03-.04l.09-.1s.08-.07.08-.1c-.01,0-.06,0-.08,0h-.17s-.06,0-.09,0c0,0-.01,0-.01,0-.03.02-.07.06-.09.09-.09.09-.19.18-.27.28,0-.02,0-.05,0-.06.04-.04.33-.34.35-.35,0,0,.02,0,.03,0h.06s.29,0,.29,0Z"/>
  <path class="cls-49" d="m5.41,5.62v.62s0,.15,0,.15c0,.02,0,.05,0,.07l-.08-.08s-.02-.02-.02-.03c0,0,0-.03,0-.03v-.1s0-.51,0-.51l.1-.09Z"/>
  <path class="cls-38" d="m4.89,7.12h.38s.09,0,.09,0c0,0,.02,0,.03,0,0,0,0,.02,0,.02l-.02.03h-.67s-.05,0-.05,0l-.22.23v-.28s.45,0,.45,0Z"/>
  <path class="cls-14" d="m6,9.19l.22-.23h.23s0,.14,0,.14c0,.01,0,.03,0,.05,0,0-.03.04-.04.04h0s-.08,0-.11,0h-.31Z"/>
  <path class="cls-38" d="m7.22,10.21v-1.02s.08,0,.08,0v1.02s-.06,0-.08,0Z"/>
  <path class="cls-38" d="m7.05,9.19h.08s0,1.03,0,1.03h-.08s0-1.03,0-1.03Z"/>
  <path class="cls-14" d="m8.35,4.87l.48.47v.09s-.06,0-.07,0c0,0-.01-.01-.02-.02l-.5-.48.11-.06Z"/>
  <path class="cls-24" d="m8.35,6.84h.26s0,.33,0,.33h-.26s0-.33,0-.33Z"/>
  <path class="cls-38" d="m9.23,5.93l.1.09v.47s-.36.34-.36.34l-.02.02s-.05,0-.07,0h0s0,0,0,0c.02-.03.06-.06.09-.09l.23-.21s.03-.03.03-.04c0,0,0-.02,0-.03v-.1s0-.44,0-.44Z"/>
  <path class="cls-38" d="m6.89,9.19h.07s0,1.03,0,1.03h-.22s.11-.13.11-.13c0,0,.03-.03.04-.04,0,0,0-.02,0-.03v-.09s0-.74,0-.74Z"/>
  <path class="cls-28" d="m7.7,8.48h.4s0,.04,0,.06v.16s-.41,0-.41,0v-.22Z"/>
  <path d="m7.74,8.55v-.02s.27,0,.31,0h0s0,.02,0,.02c-.07,0-.14,0-.21,0-.03,0-.08,0-.11,0Z"/>
  <path d="m7.74,8.64h0s.31-.01.31-.01c0,.01,0,.01,0,.02-.02,0-.05,0-.07,0h-.14s-.08,0-.11,0h0Z"/>
  <path class="cls-20" d="m7.74,8.55s.08,0,.11,0c.07,0,.14,0,.21,0,0,.01,0,.02,0,.04,0,.02,0,.03,0,.04h-.31s0,.01,0,.01h0s0-.04,0-.05h0s0,0,0-.02c0,0,0-.02,0-.03Z"/>
  <path class="cls-17" d="m7.26,8.48h.35s0,.04,0,.06v.16s-.04,0-.04,0h-.37s0-.21,0-.22h.05Z"/>
  <path d="m7.25,8.64h0c.06-.01.12,0,.17,0,.05,0,.1,0,.14,0v.02s-.07,0-.11,0h-.21s0,0,0-.01Z"/>
  <path class="cls-20" d="m7.25,8.53h0s.21,0,.21,0c.03,0,.07,0,.1,0,0,0,0,0,0,.02,0,.01,0,.02,0,.04,0,.02,0,.03,0,.05-.04,0-.1,0-.14,0-.06,0-.12,0-.17,0h0s0,0,0-.02c0-.01,0-.02,0-.03h0s0-.03,0-.05Z"/>
  <path d="m7.25,8.53h0s.21,0,.21,0c.03,0,.07,0,.1,0v.02s-.27,0-.31,0c0,0,0,0,0-.02Z"/>
  <path class="cls-28" d="m6.69,8.48h.41s0,.22,0,.22h-.41c0-.07,0-.15,0-.22Z"/>
  <path d="m6.73,8.55h0s.06-.02.08-.02h.24s0,0,0,.02h0s-.3,0-.32,0Z"/>
  <path d="m6.73,8.63h.22s.07,0,.1,0v.02s0,0,0,0c-.04,0-.29,0-.31,0v-.02Z"/>
  <path class="cls-20" d="m6.73,8.55s.3,0,.32,0h0s0,.04,0,.06c0,0,0,.01,0,.02-.03,0-.07,0-.1,0h-.22s0-.02,0-.03v-.02s0-.02,0-.03Z"/>
  <path d="m6.74,8.58h.24s.06,0,.08,0h0s-.05.02-.06.02h-.18s-.05,0-.07,0c0,0,0,0-.01,0v-.02Z"/>
  <path class="cls-38" d="m5.34,7.42s0,0,0,.01c0,.01-.14.16-.16.18l-.09.11s-.02.02-.03.03c0,0,0,.02,0,.03v.11s0,.66,0,.66c.02.04.07.07.11.11l.13.12s-.03.03-.04.04l-.28-.28v-.62s0-.13,0-.13c0,0,0-.03,0-.04,0,0,.01-.01.02-.02l.04-.05c.08-.09.17-.18.24-.29.01,0,.03,0,.04,0h0Z"/>
  <path class="cls-38" d="m7.4,9.19s.05,0,.07,0v.24s0,.47,0,.47v.11s0,.03,0,.03c0,0,.01.01.02.02l.04.04s.06.06.08.1h-.22s0-.71,0-.71v-.21s0-.08,0-.11Z"/>
  <path class="cls-28" d="m6.19,8.48h.41s0,.22,0,.22h-.41s0-.22,0-.22Z"/>
  <path d="m6.24,8.63h.21s.08,0,.11,0v.02s-.27,0-.32,0h0s0-.02,0-.02Z"/>
  <path d="m6.24,8.55s0-.01,0-.02h.25s.05,0,.06,0c0,0,0,0,0,0v.02s-.07,0-.11,0h-.21Z"/>
  <path class="cls-20" d="m6.56,8.55v.03s-.32,0-.32,0c0,0,0,0,0,0h0s-.01-.02-.01-.02h.21s.07,0,.11,0Z"/>
  <path class="cls-20" d="m6.24,8.58h.32s0,.02,0,.02v.03s-.08,0-.11,0h-.21s0-.02,0-.03v-.02Z"/>
  <path d="m6.24,8.58h.32s0,.02,0,.02h-.22s-.07,0-.1,0v-.02Z"/>
  <path class="cls-38" d="m5.14,5.87s.04-.03.05-.05c0,0,.02-.03.03-.03v.61s.13.13.13.13c.02.02.05.05.07.07v.18s-.22-.23-.22-.23l-.05-.05s-.01-.01-.01-.02c0,0,0-.02,0-.03v-.1s0-.32,0-.32c0-.05,0-.1,0-.15h0Z"/>
  <path class="cls-14" d="m8.42,9.19l-.22-.23h.33s.1,0,.15,0l.1.11-.12.12s-.07,0-.11,0c-.04,0-.09,0-.13,0Z"/>
  <path class="cls-38" d="m4.7,6.33s0,.05,0,.07c0,0,.04.04.05.05l.3.31s-.03-.05-.03-.07c0-.02,0-.03,0-.04.03.03.06.07.09.11.02.03.06.06.08.09,0,0,0,0,0,.01h0s-.21,0-.21,0l-.4-.41.12-.12Z"/>
  <path class="cls-14" d="m5.48,9.02h.01s.02-.02.03-.04c0,0,0,0,0-.01,0,0,0,0,0,0h.4c.05,0,.11,0,.16,0h0s-.14.14-.14.14c-.02.02-.05.05-.07.07-.03,0-.06,0-.09,0-.06,0-.12,0-.18,0l-.14-.15h0Z"/>
  <path class="cls-38" d="m5.41,7.49s0,0,0,0v.08s0,.02,0,.02c0,0-.02.02-.03.03l-.12.12s-.03.03-.03.04c0,.01,0,.03,0,.05v.1s0,.44,0,.44c0,.02,0,.12,0,.12,0,.02.03.04.05.05l.11.11-.02.05-.03-.03-.19-.18v-.54s0-.16,0-.16c0-.01,0-.04,0-.05.01-.02.04-.05.06-.07l.19-.21Z"/>
  <path class="cls-14" d="m7.7,9.19v-.23s.35,0,.35,0l.23.22h-.58Z"/>
  <path class="cls-24" d="m8.35,7.6h.25s0,.43,0,.43h-.25s0-.43,0-.43Z"/>
  <path class="cls-38" d="m8.91,7.56s.04.03.05.04c.06.05.11.09.16.14,0,0,.01.01.01.02,0,.02,0,.05,0,.07v.15s0,.51,0,.51l-.21.2-.02.02h0s-.02-.03-.02-.03c0,0,0,0,0,0,0,0,.01-.02.02-.02.03-.04.07-.08.11-.12,0,0,.03-.03.03-.04,0-.01,0-.04,0-.05v-.13s0-.55,0-.55c0-.01-.02-.02-.03-.03-.04-.03-.08-.06-.12-.1,0,0,0-.02,0-.03,0,0,.01,0,.02-.02h0s.01-.02.01-.02Z"/>
  <path class="cls-20" d="m5.87,7.18h.11s0,.39,0,.39h-.04s0,0,0,0v-.02s-.07,0-.09,0h-.16s0-.06,0-.08v-.28s.19,0,.19,0Z"/>
  <path d="m5.72,7.34s.05,0,.07,0c.05,0,.1,0,.15,0,0,0,0,.01,0,.02,0,0,0,0,0,0-.03,0-.2,0-.21,0v-.02Z"/>
  <path d="m5.85,7.23s.07,0,.09,0v.02s-.02,0-.03,0h-.1s-.07,0-.09,0v-.02s.11,0,.13,0Z"/>
  <path d="m5.73,7.44s.2,0,.21,0v.02s0,0,0,0h-.15s-.04,0-.06,0c0-.01,0-.01,0-.03Z"/>
  <path class="cls-38" d="m9.03,5.74l.11.11v.62s-.04.04-.06.06l-.15.14-.06.06v-.17s0-.01,0-.02c0,0,.02-.02.02-.02l.07-.07s.05-.05.06-.08c0-.02,0-.04,0-.06v-.11s0-.45,0-.45Z"/>
  <path class="cls-38" d="m9.6,6.29l.15.14s-.06.06-.08.08l-.26.25-.08.08s-.02.02-.02.02c0,0-.01,0-.02,0h-.06s-.15,0-.15,0l.13-.11.19-.18c.06-.05.13-.11.18-.18.02-.03.02-.06.03-.09Z"/>
  <path class="cls-24" d="m5.55,8.65h.61s0,.19,0,.19h-.61s0-.19,0-.19Z"/>
  <path class="cls-24" d="m8.35,5.78h.25s0,.47,0,.47h-.25s0-.47,0-.47Z"/>
  <path class="cls-49" d="m6,9.19h.31s.09-.01.11,0l-.38.39-.21-.21.18-.18Z"/>
  <path class="cls-26" d="m6.55,4.27l1.26.78s.06,0,.09,0c.03,0,.06-.03.09-.04l.15-.08.17-.09.03.03-.26.15c-.07.04-.15.08-.21.13,0,.03,0,.07,0,.11v.2s-.05,0-.05,0v-.3s-.06-.05-.09-.07l-.19-.12-.84-.52c-.06-.04-.12-.07-.18-.11l.04-.04Z"/>
  <path class="cls-11" d="m7.81,5.06s.05,0,.07,0h0s-.04.02-.05.01c0,0,0,0,0-.01Z"/>
  <path class="cls-38" d="m6.65,9.18v.51c-.09.07-.17.17-.25.25l-.2-.2.28-.29s.08-.09.12-.12v-.15s.05,0,.05,0Z"/>
  <path class="cls-42" d="m8.32,5.81v2.63s-.06,0-.06,0c0,0,0,0-.01,0v-2.56s.07-.07.07-.07Z"/>
  <path class="cls-38" d="m9.75,6.55l.11.1v.37s-.86,0-.86,0c-.03,0-.09,0-.12,0,0-.01,0-.02,0-.03,0-.01.03-.03.04-.04,0,0,.02,0,.02,0h.05s.29,0,.29,0c.02,0,.05,0,.06,0,0,0,.36-.35.4-.39Z"/>
  <path class="cls-38" d="m4.53,6.54l.41.42s.3,0,.31,0c0,0,.02-.01.02-.02.03.02.07.07.1.1h-.94s0-.4,0-.4l.09-.1Z"/>
  <path class="cls-24" d="m8.13,8.62s.06,0,.07-.01h-.07s0-.15,0-.15h.22s0-.4,0-.4h.25s0,.39,0,.39v.1s0,.03,0,.04h-.22s0,.01,0,.01c.02,0,.06,0,.08,0h.18s0-.55,0-.55h.11s0,.56,0,.56h-.62Z"/>
  <path class="cls-24" d="m5.94,7.59s.03,0,.05,0v.89s-.3,0-.3,0v-.2s0-.19,0-.19h.26s-.03-.04-.03-.04h-.23s0-.44,0-.44c.04,0,.22,0,.25,0v-.02Z"/>
  <path class="cls-49" d="m8.22,4.94l.51.49s-.07,0-.09,0h-.24s-.51,0-.51,0v-.29s.06-.04.09-.06l.24-.14Z"/>
  <path class="cls-14" d="m6.64,4.29l-.07-.04.13-.13h.73s.12,0,.12,0c0,0,.03,0,.04,0,0,0,.03.03.04.04l.13.13.3.3c.07.07.15.15.22.21l-.12.06-.62-.6h-.84s.11.02.11.02c-.04,0-.08,0-.12,0-.02,0-.04,0-.06,0Z"/>
  <path class="cls-49" d="m4.82,7.52h.3s0,0,0,0l-.12.12s-.05.05-.07.08c0,.01,0,.66,0,.73l-.09-.09-.38-.38s0-.07,0-.09l.38-.38Z"/>
  <path class="cls-38" d="m9.02,7.53h.4s.09,0,.09,0c.01,0,.03,0,.04,0,.01,0,.04.04.05.05l.17.15.09.08v.18s-.24.24-.24.24l-.14.14s-.07.07-.11.1v-.68c-.06-.04-.11-.11-.18-.15-.02-.01-.04-.03-.06-.03-.04,0-.09-.06-.12-.08Z"/>
  <path class="cls-53" d="m7.18,8.71s0,.01.02.02h.42s.02-.02.02-.02c0,0,0-.04,0-.05v-.19s0,0,0,0h.02s0,.05,0,.07c0,.06,0,.14,0,.2h.45s0-.08,0-.08v-.03s.62,0,.62,0v.03s0,.13,0,.13c0,.02,0,.04,0,.05-.02,0-.04,0-.05,0h-.11s-.55,0-.55,0h-1.87s0-.18,0-.18h0s0,.08,0,.08h.47s0-.2,0-.2c0-.02,0-.05,0-.07.01,0,.02,0,.04,0,0,.01,0,.03,0,.04,0,.03,0,.17,0,.2,0,0,.01.01.02.02.05,0,.11,0,.16,0h.25s0,0,0,0c0,0,.01-.02.02-.03.02,0,.03.01.05,0h0Z"/>
  <path class="cls-24" d="m8.13,8.62h.62s0,.03,0,.03v.13s0,.04,0,.05h-.62s0-.1,0-.1v-.08s0-.03,0-.03Z"/>
  <path class="cls-42" d="m8.13,8.62h.62s0,.03,0,.03h-.62s0-.03,0-.03Z"/>
  <path class="cls-38" d="m7.7,9.19h.58s.19.19.19.19l-.58.57h0c-.05-.06-.1-.11-.15-.16,0,0-.03-.03-.03-.03,0,0,0-.02,0-.03v-.09s0-.45,0-.45Z"/>
  <path class="cls-24" d="m5.68,5.79h.5s0,.08,0,.08h-.19s0,1.29,0,1.29h-.05s0-.04,0-.04h-.24s0,0-.01,0v-.36s.27,0,.27,0l-.03-.04h-.24s0-.41,0-.41h.27s-.04-.04-.04-.04h-.24s0-.47,0-.47Z"/>
  <path class="cls-38" d="m7.41,4.29h.13s.61.59.61.59l-.12.07c-.06.03-.12.08-.19.08-.01,0-.02,0-.03,0-.05-.01-.1-.05-.14-.08l-.16-.1-.68-.42c.05-.03.11-.05.17-.07.09-.02.19-.03.28-.04.04,0,.09,0,.13-.02Z"/>
  <path class="cls-7" d="m5.55,8.62v-3.06s.63,0,.63,0v.1s-.53,0-.53,0v2.84s.34,0,.36,0v-.04s.03,0,.05,0h.1s0,.18,0,.18h0s-.61,0-.61,0v-.03Z"/>
  <path class="cls-42" d="m5.55,8.62h.47s.1,0,.1,0c0,0,.02,0,.03,0,0,0,0,0,0,0v.02s-.61,0-.61,0v-.03Z"/>
  <path class="cls-38" d="m6.7,4.47l1.09.68v.29s-.5,0-.5,0c-.08,0-.16,0-.24,0-.01,0-.02,0-.03,0l-.12-.06s-.07-.03-.09-.05c0-.01.01-.02,0-.04l-.02-.02v-.21s-.06-.05-.09-.07h0s0,.01,0,.01l.05.04h-.01s-.02,0-.03-.01c0,0,0,.02,0,.03h0s.03.04.04.05v.27s.09.05.14.06h-.35s0-.76,0-.76c0-.04-.03-.06-.06-.08.08-.03.15-.08.22-.13Z"/>
  <path class="cls-33" d="m7.07,4.89c.06,0,.12,0,.16.03.06.03.11.09.12.16.02.07,0,.15-.03.21-.04.07-.1.09-.18.11-.06,0-.12,0-.17-.03-.06-.04-.11-.09-.12-.16-.02-.07,0-.15.04-.21.04-.06.1-.1.17-.11Z"/>
  <path class="cls-63" d="m6.9,5.22s0,.02,0,.04c0,0,0,.02,0,.03h0s-.02-.06-.03-.09c-.01-.05,0-.11.03-.16.04-.06.1-.11.16-.12.03,0,.06,0,.08,0h0s.04.01.06.02h0s.08.08.1.14c.02.07.01.13-.02.19-.03.05-.08.08-.13.1-.07.02-.15,0-.21-.04,0,0,0,0,0,0,0,0,0,0,.01,0h.03s.03.02.03.02c.01,0,.03.01.04.01h0s.02,0,.04,0c0,0,.01,0,.02,0,.02,0,.04,0,.06-.02.03-.01.06-.04.08-.07l.02-.02s0-.01,0-.02h0s0,0,0,0c0,0,0,0,0-.02,0,0,0,0,0-.02h0s0-.06,0-.08c0,0,0,0,0,0h0s0-.02,0-.02c0-.01-.01-.02-.02-.04,0-.01-.01-.02-.01-.04,0-.02,0-.02-.02-.04,0,0-.01-.01-.03-.02h-.01s-.02-.02-.03-.02c0,0,0,0,0,0-.02-.01-.04,0-.06,0h0s-.04,0-.06,0h0s-.02,0-.03.02h-.01s-.01.01-.02.02c-.02.02-.04.03-.05.05-.02.03-.03.05-.04.09,0,0,0,.01,0,.02,0,.03,0,.06,0,.09Z"/>
  <path class="cls-41" d="m7.6,5.89h.62s0,2.55,0,2.55h-1.58s-.63,0-.63,0v-2.55s1.59,0,1.59,0Z"/>
  <path d="m6.11,5.99h2.05s0,2.35,0,2.35h-2.05s0-2.35,0-2.35Z"/>
  <path class="cls-12" d="m6.23,8l-.02-.02h0s.02,0,.03,0l.07.08s.02.02.03.04h0s-.02-.01-.04-.03c-.03-.03-.05-.06-.08-.08Z"/>
  <path class="cls-6" d="m6.31,7.94s-.03-.03-.03-.05h0s.02.02.02.02c.03.03.06.06.08.1,0,0,.01.02.01.03h0s-.06-.07-.09-.1Z"/>
  <path class="cls-12" d="m6.23,7.94s.02,0,.03.01h.01s.08.08.1.12h0s0,0,0,0c-.04-.04-.07-.08-.1-.11-.01-.01-.02-.02-.03-.04Z"/>
  <path class="cls-6" d="m6.28,7.96s-.02-.02-.03-.03h0s0,0,0,0l.04.04s.07.06.09.1h0s0,.01,0,.01l-.1-.11Z"/>
  <path class="cls-6" d="m6.33,7.9s-.02-.02-.02-.03h0s.04.03.05.04c.02.02.02.04.04.06.01.02.03.03.03.04h0s-.03-.02-.04-.04l-.06-.07Z"/>
  <path class="cls-12" d="m6.38,7.9s-.03-.03-.04-.04c0,0,.02,0,.02,0l.07.07.05.05h0s0,.01,0,.01l-.09-.08Z"/>
  <path class="cls-51" d="m6.22,7.94s.08-.09.13-.11h.02s.07.07.1.1h-.03s-.07-.07-.07-.07c0,0-.02,0-.02,0,0,.02.03.03.04.04h0s-.04-.03-.05-.04h0s.01.03.02.04h0s-.02-.01-.02-.01h0s.01.04.03.05h0s-.04-.03-.04-.03h0s0,0,0,0c0,.01.01.02.03.03h-.01s-.01,0-.01,0c-.01-.01-.01-.01-.03-.01h0s0,0,0,0Z"/>
  <path class="cls-41" d="m7.04,7.85h.34s-.48.45-.48.45c-.02,0-.06,0-.08,0h-.24s.47-.45.47-.45Z"/>
  <path class="cls-41" d="m6.68,7.85s.08,0,.12,0h.21s-.48.45-.48.45h-.33s.48-.46.48-.46Z"/>
  <path class="cls-1" d="m6.26,8.06l.07.07-.14.14s-.03.03-.04.04c.02,0,.03,0,.04,0-.02,0-.03,0-.05,0v-2.31s2,0,2,0v2.31s-1.27,0-1.27,0c.01,0,.03,0,.04,0,.02-.01.06-.05.08-.07l.17-.16c.07-.07.15-.13.21-.2.02-.02.04-.04.04-.06,0,0,0,0-.01,0-.02,0-.05,0-.07,0h-.19s-.34,0-.34,0c-.04,0-.1,0-.13,0-.02,0-.04.03-.06.05-.03.03-.06.06-.1.08l-.04-.04s-.06-.07-.1-.09h-.02c-.05.02-.09.06-.13.11h0s0,0,0,0c0,.02.01.02.03.04h0s-.01,0-.03,0h0s.02.03.02.03h0s0,.01,0,.01c.01,0,.02.02.02.03v.02Z"/>
  <path class="cls-51" d="m6.36,7.76h0s-.02.02-.04.02h-.05s-.02,0-.03-.01h.02s.09,0,.09,0Z"/>
  <path class="cls-63" d="m6.24,7.7h0s0-.02,0-.02c0,0,0,0,0-.02h0s0,.09,0,.09c0,0,0,0,.01,0h-.02s.02.01.03.01c-.01,0-.02,0-.04,0,0-.01,0-.05,0-.07Z"/>
  <path d="m7.4,7.12s0-.11,0-.13c.02,0,.03,0,.05.01h-.03s0,.04,0,.06v.05s0-.01,0-.02c0,0,0,.02,0,.02Z"/>
  <path d="m6.74,7.76h0s0,0,0,0h0s-.03.01-.05.01c-.02,0-.06,0-.08,0,0-.02,0-.03.01-.05v.04s.07,0,.09,0Z"/>
  <path class="cls-39" d="m7.34,7.01s-.01,0-.02,0c.01,0,.02,0,.04,0,0,.04,0,.08,0,.12h-.1s.05,0,.08,0c0,0,0,0,.01,0h0s-.01,0-.01,0c0,0,0,0,0-.01,0-.02,0-.07,0-.09Z"/>
  <path class="cls-39" d="m7.4,7.12s0-.02,0-.02c0,0,0,.01,0,.02v.19s0,.05,0,.07h0s0-.07,0-.11c0-.05,0-.09,0-.14Z"/>
  <path class="cls-63" d="m6.22,7.94h0s0,0,0,0c0,.02.01.02.03.04h0s-.01,0-.03,0h0s.02.03.02.03h0s0,.01,0,.01c.01,0,.02.02.02.03v.02s-.05-.06-.07-.09c0-.01.02-.03.03-.04Z"/>
  <path d="m7.52,7.76s0,0,.01,0h0s0,.02,0,.02h-.08s-.03,0-.04,0c0,0,0,0,0-.01,0-.02,0-.05.01-.06v.06s.09,0,.1,0Z"/>
  <path d="m7.07,7.11h.18s.06,0,.09,0h.01s0,0,0,0c0,0,0,0-.01,0-.03,0-.05,0-.08,0h-.34s-.01,0-.01,0h0s.04,0,.05,0c.04,0,.07,0,.11,0h0Z"/>
  <path d="m7.34,7.76s0-.02,0-.03v.03s0,0,0,0c0-.01,0-.02,0-.03v.05s-.49,0-.56,0c0-.01,0-.01,0-.02h0s.09,0,.13,0h.25s.11,0,.11,0c.02,0,.04,0,.05,0Z"/>
  <path class="cls-39" d="m7.34,7.32s-.03,0-.05,0h-.08s-.33,0-.33,0v-.21s.18,0,.18,0h0s-.07,0-.11,0c-.02,0-.04,0-.05,0h0s.01.01.01.01h0s0,0,0,0c0,.02,0,.04,0,.07v.11s0,0,0,0c0,0,0,0,.02-.01h0s.04,0,.06,0c.03,0,.07,0,.11,0,.02,0,.05,0,.07,0h.1s.06,0,.09,0h0s0,.01,0,.01h0s0,0,0,0c0,.02,0,.07,0,.08,0-.02,0-.05,0-.07Z"/>
  <path class="cls-39" d="m7.59,7.73v-.08s0-.02,0-.03c0-.03,0-.05,0-.08,0-.01,0-.03,0-.04,0-.03,0-.07,0-.1,0-.02,0-.04,0-.06,0-.03,0-.06,0-.09h0s0-.1,0-.13c0-.04,0-.07,0-.11,0,0,0,0,0-.02h0s0-.01,0-.01h0s.05,0,.07,0c.04,0,.08,0,.12,0,.05,0,.11,0,.16,0h-.08s-.04.01-.06,0c.01,0,.05,0,.05,0h-.25s0,.75,0,.75c0,0,0-.02,0-.03Z"/>
  <path class="cls-63" d="m7.69,8.02h.01s.02.02.02.03h0s0,.02,0,.02h.01s.02.01.02.02h0s.02,0,.02.01c0,0,.01,0,.02.01h0s0,.01,0,.01c0,0,.01,0,.02.02h0s0,.02,0,.02h.01s.01,0,.02,0h0s0,0,0,0h.02s0,0-.01.01c0,.01-.03.03-.04.04-.04-.02-.08-.05-.12-.09-.03-.02-.05-.05-.07-.07,0-.01.03-.03.04-.04Z"/>
  <path class="cls-12" d="m7.83,8.16h.01s.01,0,.02,0c0,0-.01.01-.02.02-.01,0-.01,0-.02,0v-.02Z"/>
  <path class="cls-6" d="m7.81,8.12s.01,0,.02.02h0s0,.03-.02.03h-.02s.01-.04.02-.05Z"/>
  <path class="cls-6" d="m7.7,8.03s.02,0,.02.02h0s-.01.02-.02.02c0,0-.02,0-.02-.02l.02-.02Z"/>
  <path class="cls-6" d="m7.73,8.07h.01s.02.01.02.02h0s-.02.02-.03.02h-.01s0-.03,0-.04Z"/>
  <path class="cls-39" d="m6.24,7.7v-.67s.02-.03.04-.04h.3s.11-.01.15,0c.01.01.02.02.03.04,0,0,0,.03,0,.04h0s0,.06,0,.09c0,.01,0,.02,0,.03.01.03,0,.07,0,.11h0s0-.17,0-.17c0-.03,0-.06,0-.09,0-.01,0-.02-.02-.03,0,0,0,0-.02,0-.04,0-.09,0-.13,0h-.29s-.02.02-.03.03c0,.01,0,.02,0,.04v.08s0,.34,0,.34c0,.05,0,.11,0,.16h0s0,0,0,.02v.02s0,0,0,0Z"/>
  <path d="m7.95,6.99h.08s.03,0,.05,0h.01s0,.11,0,.13c-.03.01-.08,0-.11,0h-.24s0,.52,0,.52h.24s.09-.01.12,0c0,.01,0,.03,0,.04v.09s-.5,0-.5,0c0-.02,0-.03,0-.05v.02h0v-.02s0,.02,0,.03c.02,0,.03,0,.05,0h.1s.32,0,.32,0v-.1s-.37,0-.37,0v-.56s.37,0,.37,0v-.1s-.11,0-.11,0h-.11s-.04,0-.05,0c.02,0,.04,0,.06,0h.08Z"/>
  <path class="cls-63" d="m7.95,6.99h.08s.03,0,.05,0h-.08s.06,0,.09,0h0s0,0,0,0c-.02,0-.08,0-.1,0h-.11s-.04,0-.05,0c.02,0,.04,0,.06,0h.08Z"/>
  <path class="cls-63" d="m7.77,6.74h.32s0,.09,0,.09c0,.01,0,.03,0,.04h-.04s-.3,0-.3,0c0-.03,0-.1,0-.12,0,0,.02,0,.03,0Z"/>
  <path class="cls-6" d="m7.76,6.76h.31s0,.09,0,.09h-.31s0-.09,0-.09Z"/>
  <path d="m7.69,8.02s.08-.09.14-.11c.01,0,.02.02.03.03,0,0,.02.03.03.03h.01s-.01-.02-.02-.03c0,0,0,0-.01,0h0s0,0,.02,0c.01,0,.02.01.03.02.03.02.06.05.09.08-.02.04-.05.07-.09.11-.01.01-.03.03-.04.04,0,0,0-.01.01-.02h-.02s0,.01,0,.01h0s-.01-.02-.02-.02h-.01s0,0,0,0h0s-.01-.02-.02-.02h0s0-.01,0-.01c0,0-.01,0-.02-.01,0,0-.01,0-.02,0h0s-.01-.02-.02-.03h-.01s0,0,0,0h0s-.01-.02-.02-.03h-.01Z"/>
  <path class="cls-12" d="m7.88,8.12h0s0,0,.01.02c0,.01,0,.01-.02.02,0,0-.01,0-.02-.02,0-.01,0-.01.02-.02Z"/>
  <path class="cls-12" d="m7.95,8.05s0,0,.01,0h0s0,.03-.02.03c0,0-.01,0-.02-.01h0s.02-.02.02-.02Z"/>
  <path class="cls-12" d="m7.77,7.96h0s.01.01.02.02h-.01s-.01.01-.01.01c0,0-.01,0-.02-.02l.02-.02Z"/>
  <path class="cls-12" d="m7.91,8.09h0s.01,0,.02.02c0,.01,0,.01-.02.02,0,0-.01,0-.02-.01,0-.01.01-.02.02-.02Z"/>
  <path class="cls-12" d="m7.87,8.06h0s.01,0,.01.02h-.01s-.02,0-.03,0h0s.02-.02.02-.02Z"/>
  <path class="cls-6" d="m7.84,8.09h.01s.02.01.02.01h0s-.01.02-.01.02c-.02,0-.02,0-.03,0h0s.01-.02.01-.02Z"/>
  <path class="cls-6" d="m7.8,8.06h0s.01,0,.02.02v.02s-.02,0-.02,0c0,0-.01,0-.02-.02v-.02Z"/>
  <path class="cls-12" d="m7.91,7.96h0s.02.01.03.03h-.01s0,.02,0,.02c0-.01-.02-.02-.03-.03h0Z"/>
  <path class="cls-6" d="m7.76,8.04h-.01s-.02-.02-.02-.03c0,0,.01-.01.02-.01,0,0,.02.01.02.02v.02Z"/>
  <path class="cls-6" d="m7.84,8.02h0s.01.01.02.02c0,.01,0,.01-.02.02-.01,0-.02,0-.03-.02l.02-.02Z"/>
  <path class="cls-12" d="m7.84,7.95h.01s.02.01.02.03c0,0,0,0-.02.01h0s-.01,0-.01,0c0,0-.01,0-.02-.01l.02-.02Z"/>
  <path class="cls-12" d="m7.76,8.02s.02.02.04.03c0,.01,0,.02-.01.02-.01,0-.01,0-.02-.02,0,0,0,0,0-.02v-.02Z"/>
  <path class="cls-12" d="m7.88,7.99h0s.02.01.03.02h-.01s0,.01-.01.01c0,0-.02-.01-.02-.02v-.02Z"/>
  <path class="cls-12" d="m7.81,7.99h0s.02.02.02.03l-.02.02h0s-.01,0-.02-.02l.02-.03Z"/>
  <path class="cls-63" d="m6.55,6.19h0s.03.03.05.04c.03.03.06.06.08.09-.05.07-.12.13-.18.19-.03.03-.06.05-.08.08h0s0,0,0,0c-.05-.04-.09-.08-.13-.13,0-.02.03-.04.04-.05l.13-.13s.05-.06.09-.09Z"/>
  <path class="cls-6" d="m6.45,6.39s-.03-.01-.03-.02c0-.01,0-.02.01-.02.02.01.03.03.05.04,0,0,0,0-.02,0,0,0,0,0-.01,0Z"/>
  <path class="cls-12" d="m6.48,6.39s.05.04.05.06h0s-.05-.04-.07-.06c0,0,0,0,.01,0,0,0,0,0,.02,0Z"/>
  <path class="cls-6" d="m6.54,6.32l-.04-.03s0-.01,0-.02c.02,0,.04.03.06.05.02.02.04.03.05.05h0s-.05-.04-.07-.05Z"/>
  <path class="cls-12" d="m6.58,6.26s-.02-.02-.03-.04h0s.01,0,.01,0l.03.03.07.07h0s0,.01-.01.01c-.02,0-.05-.05-.07-.06Z"/>
  <path class="cls-6" d="m6.39,6.38h0s.08.06.11.09h0s-.03,0-.05-.02c-.02-.02-.05-.03-.07-.06h0Z"/>
  <path class="cls-6" d="m6.48,6.29h0s.01.01.02.02c.03.02.06.05.08.08h0s-.05-.04-.07-.06h0s.06.07.06.07h0s0,.01,0,.01c0,0,0,0,0,0-.02-.02-.04-.05-.05-.07-.01-.01-.03-.02-.03-.04h0Z"/>
  <path class="cls-6" d="m6.37,6.41h0s.01,0,.02.01c.02.02.03.04.05.06,0,.01.02.02.02.04h-.01s-.03-.02-.04-.03c-.02-.02-.04-.04-.06-.06h0s0,0,0-.02h0Z"/>
  <path class="cls-4" d="m7.46,7h.07s0,.75,0,.75c-.02.01-.08,0-.1,0v-.06s0-.05,0-.07v-.15c0-.14,0-.28,0-.42,0-.02,0-.05,0-.06h.03Z"/>
  <path d="m7.87,6.11s.05,0,.07.03c.01.02.02.04.02.06,0,.03-.02.05-.02.08,0,.04,0,.08,0,.12v.29s-.07,0-.07,0h-.07s0-.08,0-.12v-.2s0-.07,0-.1c0-.01-.02-.03-.02-.04,0-.02,0-.04,0-.06.02-.03.05-.05.08-.05Z"/>
  <path class="cls-20" d="m7.85,6.14s.03,0,.04,0c.02,0,.03.02.04.03,0,.02.01.04,0,.06,0,.02-.03.03-.05.04h0s-.03,0-.03,0c-.02,0-.03-.01-.04-.03,0-.01-.01-.04,0-.05,0-.03.02-.03.05-.05Z"/>
  <path class="cls-20" d="m7.81,6.29s.01,0,.02,0c.03,0,.05,0,.08,0v.38s-.1,0-.1,0v-.38Z"/>
  <path class="cls-4" d="m7.97,7h.11s0,.1,0,.1h-.37s0,.56,0,.56h.37s0,.1,0,.1h-.32s-.1,0-.1,0c-.02,0-.03,0-.05,0v-.75s.25,0,.25,0h.11Z"/>
  <path class="cls-4" d="m7.34,7.01s0,.07,0,.09c0,0,0,0,0,.01-.03,0-.06,0-.09,0h-.18s-.18,0-.18,0v.21s.33,0,.33,0h.08s.03,0,.05,0v.44s-.04,0-.05,0h-.11s-.25,0-.25,0c-.04,0-.09,0-.13,0,0-.03,0-.07,0-.1h.43s0-.04,0-.06v-.19s-.27,0-.27,0c-.04,0-.09,0-.13,0,0,0-.02,0-.02-.01,0,0-.01-.01-.02-.02,0-.03,0-.08,0-.11v-.25s.54,0,.54,0Z"/>
  <path class="cls-4" d="m6.26,7.66c0-.05,0-.11,0-.16v-.34s0-.08,0-.08c0-.01,0-.02,0-.04,0-.02.01-.02.03-.03h.29s.09,0,.13,0c0,0,.01,0,.02,0,0,0,.02.02.02.03,0,.03,0,.06,0,.09v.18c0,.06,0,.42,0,.45-.02,0-.08,0-.09,0v-.04c0-.06,0-.13,0-.2,0-.03,0-.08,0-.11-.02,0-.05,0-.08,0h-.13s-.06,0-.09,0v.02c0,.07,0,.16,0,.23,0,.03,0,.07,0,.09h-.09s0,0-.01,0v-.1Z"/>
  <path class="cls-1" d="m6.37,7.11h.21s.06,0,.07,0v.02s0,.1,0,.14v.05s-.28,0-.29,0c0-.02,0-.04,0-.06v-.14s.01,0,.01,0Z"/>
  <path class="cls-39" d="m6.36,7.31v-.02s0,.01,0,.01c.02,0,.05,0,.07,0,.02,0,.05,0,.07,0h.13s0-.07,0-.07v.03s0,.05,0,.05c-.04,0-.28,0-.29,0Z"/>
  <path class="cls-63" d="m6.37,7.11h.21s.06,0,.07,0v.02s0,.01,0,.01c0,0,0-.01-.01-.02-.01,0-.04,0-.06,0-.04,0-.19,0-.21-.02Z"/>
  <path d="m7.75,6.13s.03,0,.04,0c0,.01,0,.02-.01.03h0s-.07.08-.1.11c-.09.09-.18.19-.28.27h.35s-.07.09-.1.13l-.13.12-.12.12s-.03.03-.04.04c-.02.01-.66,0-.74,0h-.24s-.09,0-.13,0c0,0,0,0,0,0,0-.02.02-.03.03-.04.07-.08.16-.15.23-.22l.19-.18.2-.18s.1-.1.15-.14c.01-.01.03-.03.04-.04.02,0,.06,0,.08,0h.25s.34,0,.34,0Z"/>
  <path class="cls-41" d="m7.41,6.56h.3c-.08.09-.17.16-.25.25l-.09.08s-.02.03-.03.03c0,0,0,0-.01,0h-.29s.38-.36.38-.36Z"/>
  <path class="cls-41" d="m7.45,6.15h.31c-.05.07-.12.13-.19.19l-.19.18h-.31s.38-.37.38-.37Z"/>
  <path class="cls-41" d="m7.02,6.56h.33s-.38.36-.38.36h-.32s.38-.36.38-.36Z"/>
  <path class="cls-41" d="m6.64,6.56h.34s-.38.36-.38.36h-.34s.37-.36.37-.36Z"/>
  <path class="cls-41" d="m7.11,6.15h.3s-.33.32-.33.32l-.05.05s-.01.01-.01.01c0,0-.03,0-.03,0h-.3s.23-.21.23-.21l.12-.12s.03-.04.05-.04c0,0,.02,0,.03,0Z"/>
</svg>