<?xml version="1.0" encoding="utf-8"?>
<!-- Generator: Adobe Illustrator 27.1.1, SVG Export Plug-In . SVG Version: 6.00 Build 0)  -->
<svg version="1.1" id="Слой_1" xmlns="http://www.w3.org/2000/svg" xmlns:xlink="http://www.w3.org/1999/xlink" x="0px" y="0px"
	 viewBox="0 0 108 108" style="enable-background:new 0 0 108 108;" xml:space="preserve">
<style type="text/css">
	.st0{fill-rule:evenodd;clip-rule:evenodd;fill:#E3E3E3;}
	.st1{fill-rule:evenodd;clip-rule:evenodd;fill:#FFFFFF;filter:url(#Adobe_OpacityMaskFilter);}
	.st2{mask:url(#path-2-inside-1_129_11564_00000137128640450597883500000012398019325630210713_);fill:#393931;}
	.st3{fill:#484D51;stroke:#000000;stroke-linejoin:round;}
	.st4{fill:#1D1F20;stroke:#000000;stroke-linejoin:round;}
	.st5{fill:#0DFCF0;stroke:#000000;stroke-linejoin:round;}
	.st6{fill:#2E3032;stroke:#000000;stroke-linejoin:round;}
	.st7{fill:url(#SVGID_1_);stroke:#000000;stroke-linejoin:round;}
	.st8{fill:#818C96;stroke:#000000;stroke-linejoin:round;}
	.st9{fill:#64676B;stroke:#000000;stroke-linejoin:round;}
	.st10{fill:#DFA715;stroke:#000000;stroke-linejoin:round;}
	.st11{fill:#AEC1D3;stroke:#000000;stroke-linejoin:round;}
	.st12{fill:url(#SVGID_00000058556930373130406790000002771512729264372128_);stroke:#000000;stroke-linejoin:round;}
	.st13{fill:url(#SVGID_00000111881792325383979050000008033455649395232190_);stroke:#000000;stroke-linejoin:round;}
	.st14{fill:url(#SVGID_00000081646459623944825640000003602426580187569823_);stroke:#000000;stroke-linejoin:round;}
	.st15{fill:#90A7D3;stroke:#000000;stroke-linejoin:round;}
	.st16{fill:#9E1217;stroke:#000000;stroke-linejoin:round;}
	.st17{fill:url(#SVGID_00000056426498961972004870000017342995878758192039_);stroke:#000000;stroke-linejoin:round;}
	.st18{fill:#EA2128;stroke:#000000;stroke-linejoin:round;}
	.st19{fill:#7B7C83;stroke:#000000;stroke-linejoin:round;}
	.st20{fill:#DADBDB;stroke:#000000;stroke-linejoin:round;}
	.st21{fill:#F2A2A7;stroke:#000000;stroke-linejoin:round;}
	.st22{fill:url(#SVGID_00000096753713628862065290000009838532389280957355_);stroke:#000000;stroke-linejoin:round;}
	.st23{fill:#030302;stroke:#000000;stroke-linejoin:round;}
	.st24{fill:#FC5757;stroke:#000000;stroke-linejoin:round;}
	.st25{fill:#60ADB8;stroke:#000000;stroke-linejoin:round;}
	.st26{fill:#580E0F;stroke:#000000;stroke-linejoin:round;}
	.st27{fill:#BCBBBA;stroke:#000000;stroke-linejoin:round;}
	.st28{fill:#484D51;}
	.st29{fill:#1D1F20;}
	.st30{fill:#0DFCF0;}
	.st31{fill:#2E3032;}
	.st32{fill:url(#SVGID_00000139284500604095202910000005406649173018435515_);}
	.st33{fill:#818C96;}
	.st34{fill:#64676B;}
	.st35{fill:#DFA715;}
	.st36{fill:#AEC1D3;}
	.st37{fill:url(#SVGID_00000018937185652827591280000009984466788728742320_);}
	.st38{fill:url(#SVGID_00000119804888258955506050000015372831465048038531_);}
	.st39{fill:url(#SVGID_00000094581783516917666370000011853645631548338100_);}
	.st40{fill:#90A7D3;}
	.st41{fill:#9E1217;}
	.st42{fill:url(#SVGID_00000001664595484312780300000006218438842252978055_);}
	.st43{fill:#EA2128;}
	.st44{fill:#7B7C83;}
	.st45{fill:#DADBDB;}
	.st46{fill:#F2A2A7;}
	.st47{fill:url(#SVGID_00000075151233832920557740000014893300393218420669_);}
	.st48{fill:#030302;}
	.st49{fill:#FC5757;}
	.st50{fill:#60ADB8;}
	.st51{fill:#580E0F;}
	.st52{fill:#BCBBBA;}
	.st53{fill:#66FECB;}
	.st54{fill:url(#SVGID_00000029763708174920080500000017407162839310039986_);}
	.st55{fill:#5EDEB3;}
	.st56{fill:#01B478;}
	.st57{fill:#1DCE92;}
	.st58{fill:#2AFFB7;}
	.st59{fill:#FFFFFF;}
	.st60{fill:#441F00;}
	.st61{fill:url(#SVGID_00000172407778461891941350000006730502650076843164_);}
	.st62{fill:url(#SVGID_00000022534449431654889320000002883974247562948491_);}
	.st63{fill:#434343;}
	.st64{fill:url(#SVGID_00000093896871666595541740000001543324597920064140_);}
</style>
<path class="st0" d="M76,12c0-6.6-5.4-12-12-12H12C5.4,0,0,5.4,0,12v84c0,6.6,5.4,12,12,12h84c6.6,0,12-5.4,12-12V44
	c0-6.6-5.4-12-12-12h-8c-6.6,0-12-5.4-12-12V12z"/>
<defs>
	<filter id="Adobe_OpacityMaskFilter" filterUnits="userSpaceOnUse" x="-1" y="-1" width="110" height="110">
		<feColorMatrix  type="matrix" values="1 0 0 0 0  0 1 0 0 0  0 0 1 0 0  0 0 0 1 0"/>
	</filter>
</defs>
<mask maskUnits="userSpaceOnUse" x="-1" y="-1" width="110" height="110" id="path-2-inside-1_129_11564_00000137128640450597883500000012398019325630210713_">
	<path class="st1" d="M76,12c0-6.6-5.4-12-12-12H12C5.4,0,0,5.4,0,12v84c0,6.6,5.4,12,12,12h84c6.6,0,12-5.4,12-12V44
		c0-6.6-5.4-12-12-12h-8c-6.6,0-12-5.4-12-12V12z"/>
</mask>
<path class="st2" d="M12,1h52v-2H12V1z M1,96V12h-2v84H1z M96,107H12v2h84V107z M107,44v52h2V44H107z M96,31h-8v2h8V31z M77,20v-8
	h-2v8H77z M88,31c-6.1,0-11-4.9-11-11h-2c0,7.2,5.8,13,13,13V31z M109,44c0-7.2-5.8-13-13-13v2c6.1,0,11,4.9,11,11H109z M96,109
	c7.2,0,13-5.8,13-13h-2c0,6.1-4.9,11-11,11V109z M-1,96c0,7.2,5.8,13,13,13v-2c-6.1,0-11-4.9-11-11H-1z M64,1c6.1,0,11,4.9,11,11h2
	c0-7.2-5.8-13-13-13V1z M12-1C4.8-1-1,4.8-1,12h2C1,5.9,5.9,1,12,1V-1z"/>
<g>
	<path class="st3" d="M81.1,60c0,0.3-0.2,0.6-0.3,0.9L80,63c-0.1,0.2-0.3,0.5-0.3,0.7l0,0c-0.1-0.2,0.1-0.7,0.2-0.9
		C80.2,61.9,80.6,60.8,81.1,60z"/>
	<path class="st4" d="M42.4,72.1L42.4,72.1C42.5,72.1,42.5,72.1,42.4,72.1c0.1,0.1,0.1,0.2,0.1,0.3v0.7v3.8v-0.1c-0.1,0-0.1,0-0.1,0
		c0-0.6,0-1.2,0-1.8v-2C42.4,72.7,42.3,72.4,42.4,72.1z"/>
	<path class="st5" d="M28.6,52.9L28.6,52.9l-0.1-1h2.1V52c-0.1,0.3,0,0.7,0,1L28.6,52.9z"/>
	<path class="st5" d="M29.7,54.6h0.9c0,0.3-0.1,0.8,0,1h-2.1v-1H29.7z"/>
	<path class="st5" d="M30.7,57.2L30.7,57.2v1.1h-2.1c-0.1-0.2-0.1-0.8,0-1.1H30.7z"/>
	<path class="st5" d="M28.5,59.8h2.1v1.1h-2.1V59.8z"/>
	<path class="st5" d="M30.6,63.5c-0.2,0-0.5,0-0.7,0h-1.4v-1.1h2.2C30.6,62.7,30.6,63.1,30.6,63.5z"/>
	<path class="st4" d="M37.7,77.4h1.4l-6,2.6c-0.4,0.1-0.7,0.3-1.2,0.4c0.2-0.1,0.4-0.2,0.6-0.3l1.2-0.6l1.3-0.8l1.4-0.7
		C36.8,77.8,37.3,77.6,37.7,77.4z"/>
	<path class="st6" d="M28,55.4c-0.1-0.6,0-1.3,0-1.9v-1.4c0-0.2,0-0.4,0-0.6v1.7h2.6c0,0.3-0.1,0.8,0,1.1H28
		C28.1,54.7,28.1,55.1,28,55.4z"/>
	
		<linearGradient id="SVGID_1_" gradientUnits="userSpaceOnUse" x1="33.9731" y1="557.4221" x2="32.2811" y2="557.4286" gradientTransform="matrix(1 0 0 1 0 -484)">
		<stop  offset="0" style="stop-color:#CC890B"/>
		<stop  offset="1" style="stop-color:#AF6E0F"/>
	</linearGradient>
	<path class="st7" d="M32.2,71.6l1.9,2l-1.7,1.6L32.2,71.6z"/>
	<path class="st4" d="M21.6,76.5h2.2v2.3h-2.2c0-0.5,0-1,0-1.4C21.6,77.1,21.7,76.8,21.6,76.5z"/>
	<path class="st8" d="M75.5,43.8c0.1-0.1,0.3,0,0.4,0h0.9h3.1l0,0c-0.4,0.1-0.8,0-1.2,0c-0.1,0-0.3,0-0.3,0s-0.1,0.1-0.2,0.2
		l-0.5,0.5l-1.3,1.2c-0.4,0.4-0.8,0.7-1.2,1.1l0,0l0,0c-0.2-0.2-0.5-0.4-0.6-0.6c-0.1-0.1-0.2-0.2-0.3-0.2L75.5,43.8z"/>
	<path class="st9" d="M75.5,43.8c0.1-0.1,0.3,0,0.4,0h0.9h3.1l0,0c-0.4,0.1-0.8,0-1.2,0c-0.1,0-0.3,0-0.3,0s-0.1,0.1-0.2,0.2
		l-0.5,0.5l-1.3,1.2c-0.4,0.4-0.8,0.7-1.2,1.1l0,0l0,0c-0.2-0.2-0.5-0.4-0.6-0.6l3.5-2.4H75.5z"/>
	<path class="st4" d="M37.9,41.4v1.8L32,49h-0.1l0,0c0-0.1,0-0.3,0.1-0.4c0.5-0.8,1.2-1.5,1.8-2.1C35.2,44.8,36.6,43.2,37.9,41.4z"
		/>
	<path class="st9" d="M28.3,35.8c0.1,0,0.3,0.1,0.4,0.1l1,0.4l1.4,0.5l6.3,2.2l3.4,1.2h-2.1c-0.3,0-0.6,0-0.9,0
		c-0.3-0.1-0.6-0.2-0.9-0.4l-2-0.9C32.8,37.9,30.4,36.9,28.3,35.8z"/>
	<path class="st4" d="M76.3,72.1h1.3c0.2,0.2,0.4,0.6,0.6,0.9l1.7,2.7c0.2,0.3,0.5,0.7,0.6,1h-0.1H79L77.3,74l-0.8-1.3
		c-0.1-0.1-0.3-0.4-0.3-0.5L76.3,72.1z"/>
	<path class="st9" d="M31.8,39.7l1.1,0.7c0.1,0.1,0.3,0.2,0.3,0.2c0.1,0,0.2,0,0.3,0l1.3-0.2c0.6-0.1,1.3-0.1,2-0.3l0,0l1.2,0.5
		L37.7,41c-0.3,0.1-0.6,0.4-0.9,0.6c-0.6,0.4-1.1,0.8-1.7,1.1l-1.9-1.6l-0.8-0.7c-0.1-0.1-0.3-0.2-0.4-0.4
		C31.8,40,31.8,39.8,31.8,39.7z"/>
	<path class="st10" d="M28.5,45.9c0-0.2-0.1-1.2,0-1.3c0-0.1,0.2-0.2,0.2-0.3l0.7-0.9l2.2-2.8l1.6,1.4L28.5,45.9L28.5,45.9z"/>
	<path class="st6" d="M43.2,75.4v-0.6h16.3l0.3,0.5l-7.5,0.1h-0.6c-0.1,0-0.3,0-0.4,0h-1.1h-4.9h-1.5C43.7,75.4,43.4,75.5,43.2,75.4
		z"/>
	<path class="st11" d="M62.3,57.6l3.2,1.5c0.5,0.2,1.1,0.4,1.5,0.7c0.3,0.1,0.5,0.4,0.7,0.5c0.3,0.2,0.7,0.4,1.1,0.6L68.2,61
		l-2.6,0.4c-0.3,0.1-0.8,0.2-1.1,0.2L62.3,57.6z"/>
	
		<linearGradient id="SVGID_00000181775086251236895510000004902020523637788814_" gradientUnits="userSpaceOnUse" x1="69.4549" y1="538.2238" x2="69.985" y2="533.1505" gradientTransform="matrix(1 0 0 1 0 -484)">
		<stop  offset="0" style="stop-color:#5BB6CE"/>
		<stop  offset="1" style="stop-color:#F3EFF0"/>
	</linearGradient>
	<path style="fill:url(#SVGID_00000181775086251236895510000004902020523637788814_);stroke:#000000;stroke-linejoin:round;" d="
		M67.7,49.4c0.2-0.1,3.9,0,4.5,0l-0.9,0.9l-0.1,0.1L69,52.5c-0.5,0.5-1,1-1.4,1.5v0.1c0-0.4,0-0.8,0-1.2v-2.2
		C67.6,50.2,67.6,49.8,67.7,49.4z"/>
	<path class="st11" d="M63.9,53.3l2.7,5.8l-1.3-0.5L62,57.1L63.9,53.3z"/>
	<path class="st11" d="M73.8,55.4c0.4,0.2,0.8,0.5,1.1,0.7l2.9,1.7l-1.7,2.8c-0.4,0.6-0.8,1.2-1.3,1.7c-0.1-0.5-0.1-1.1-0.1-1.7
		C74.6,58.9,74.4,57.1,73.8,55.4z"/>
	
		<linearGradient id="SVGID_00000090290890343128909790000013812222603475290558_" gradientUnits="userSpaceOnUse" x1="31.6793" y1="529.9318" x2="30.4302" y2="528.1779" gradientTransform="matrix(1 0 0 1 0 -484)">
		<stop  offset="0" style="stop-color:#D38D0A"/>
		<stop  offset="1" style="stop-color:#C27313"/>
	</linearGradient>
	<path style="fill:url(#SVGID_00000090290890343128909790000013812222603475290558_);stroke:#000000;stroke-linejoin:round;" d="
		M33.4,42l1.2,1.1l-6.1,5.3V46l0.1,0.1L33.4,42z"/>
	
		<linearGradient id="SVGID_00000138555477215727291620000015505908719301384871_" gradientUnits="userSpaceOnUse" x1="64.613" y1="540.2004" x2="68.1775" y2="534.1138" gradientTransform="matrix(1 0 0 1 0 -484)">
		<stop  offset="0" style="stop-color:#6B98CD"/>
		<stop  offset="1" style="stop-color:#C1E9E3"/>
	</linearGradient>
	<path style="fill:url(#SVGID_00000138555477215727291620000015505908719301384871_);stroke:#000000;stroke-linejoin:round;" d="
		M64.7,52.2l1.6-1.8c0.3-0.3,0.6-0.7,0.9-0.9l-0.1,2.8c0,0.2,0,0.4,0,0.6v1.3c0,0.2,0,0.5,0,0.6c-0.1,0.2-0.2,0.4-0.3,0.6
		c-0.3,0.6-0.5,1.2-0.5,1.9l-2.1-4.5L64.7,52.2z"/>
	<path class="st15" d="M72.6,49.5l3.3,2.8L71.1,53c-1,0.1-1.8,0.3-2.7,0.7L72.6,49.5z"/>
	<path class="st11" d="M74,58c0.1,0.5,0.2,1,0.2,1.5l0.2,3.4l-0.8,0.8l-0.2,0.2c-0.1,0.1-0.5,0-0.7,0L70.2,64h-0.5l1.8-2.3
		c0.7-0.8,1.5-1.7,2-2.7C73.7,58.8,73.8,58.4,74,58z"/>
	<path class="st11" d="M76.1,52.7c0.3,0.6,0.5,1.3,0.8,1.9c0.4,0.9,0.8,1.9,1.1,2.9l-3.1-1.8l-2.1-1.3c-0.6-0.3-1.1-0.6-1.7-0.9
		L76.1,52.7z"/>
	<path class="st15" d="M71.7,60.7L71.7,60.7L71.7,60.7l-2.6,3.5l-1.9,0.1l-1.1-1.1l-1.3-1.3l4.5-0.7C70.2,61.1,70.9,61,71.7,60.7z"
		/>
	<path class="st6" d="M38.1,71.9c0.3-0.1,0.7,0,1,0h2.7v5h-0.5c0-0.4,0.1-2.3-0.1-2.6c-0.1-0.1-0.2-0.2-0.4-0.2
		c-0.2,0-0.3,0-0.4,0.1c-0.2,0.2-0.2,0.7-0.2,1v1.6h-0.5v-1.5c0-0.3,0-0.6,0-0.8c0-0.1-0.1-0.2-0.1-0.2c-0.1-0.1-0.2-0.2-0.3-0.2
		c-0.1,0-0.2,0-0.3,0.1c-0.1,0.1-0.2,0.2-0.2,0.3c-0.1,0.3,0,0.6,0,0.8v1.5h-0.5C38.1,76.2,38.2,72.3,38.1,71.9L38.1,71.9z"/>
	<path class="st16" d="M64.4,62.1l2.6,2.5l-1.1,2.3l-1-0.7l-3.4-2.1L64.4,62.1z"/>
	<path class="st16" d="M76,61.7l3,1.8l-3.3,2.4l-1.4,0.9l-0.7-2.4C74.5,63.6,75.2,62.7,76,61.7z"/>
	
		<linearGradient id="SVGID_00000119825106005847908790000012778160469951144120_" gradientUnits="userSpaceOnUse" x1="31.1451" y1="524.8536" x2="30.5164" y2="518.0349" gradientTransform="matrix(1 0 0 1 0 -484)">
		<stop  offset="0" style="stop-color:#A19EA1"/>
		<stop  offset="1" style="stop-color:#C2C3C1"/>
	</linearGradient>
	<path style="fill:url(#SVGID_00000119825106005847908790000012778160469951144120_);stroke:#000000;stroke-linejoin:round;" d="
		M25.8,35.4c-0.4-0.3-0.8-0.6-1.1-0.9l1.4,0.6l10.8,5l0,0c-0.6,0.1-1.3,0.2-2,0.3l-1.3,0.2c-0.1,0-0.2,0.1-0.3,0
		c-0.1,0-0.3-0.2-0.3-0.2l-1.1-0.7c-0.1-0.1-0.3-0.2-0.4-0.3l-1-0.7l-2.8-2C27,36.3,26.3,35.9,25.8,35.4z"/>
	<path class="st16" d="M60.4,51.6l3.3,1.3L62,56.6l-0.3,0.5l-2.1,0.4l0.4-2.6C60.1,53.8,60.1,52.6,60.4,51.6z"/>
	<path class="st18" d="M79.3,51.8C79.4,51.8,79.3,51.8,79.3,51.8l1.7,5.6c-0.3,0-2.4,0.1-2.5,0c0,0-0.1,0-0.1-0.1l-1.8-4.7
		L79.3,51.8z"/>
	<path class="st16" d="M79.1,57.8h2l-1.9,5.4l-0.7-0.4l-2.3-1.4l2.1-3.5L79.1,57.8z"/>
	<path class="st3" d="M78.1,72.1h6.5c-0.1,0.2-0.3,0.4-0.5,0.6l-1.6,1.9l-1.7,2.1L78.1,72.1z"/>
	<path class="st19" d="M69,43.7h6l-1.1,2.2h-1.7h-6L69,43.7z"/>
	<path class="st18" d="M66.2,46.4h7.6L72.9,48l-0.5,0.8h-5.2L66.2,46.4z"/>
	<path class="st16" d="M61.4,57.6c0.1,0,0.1,0,0.2,0c0.3,0.4,0.5,0.9,0.8,1.4l1.6,2.8l-2.3,1.6l-0.6,0.4l-1.6-5.9L61.4,57.6z"/>
	<path class="st18" d="M74.1,46.5l5.1,4.9l-1.7,0.5l-1.1,0.3l-2.6-2.3l-0.7-0.6c-0.1-0.1-0.2-0.2-0.3-0.3L74.1,46.5z"/>
	<path class="st6" d="M28,55.8h2.2h0.4c0.1,0.2,0,0.8,0.1,1.1h-2.6v1.5h0.7h0.1c0.4,0,0.7,0,1.1,0c0.2,0,0.5,0,0.7,0v1.1h-1.8
		c-0.2,0-0.6-0.1-0.8,0c-0.1,0.3,0,1.2,0,1.6h2.6c0.1,0.3,0,0.8,0.1,1.1h-2.6v1.6H31c0.1,0.2,0.1,0.7,0.1,0.9
		c0.1,1.1,0.2,2.1,0.3,3.2l-0.2-0.2l-2.4-2.5l-0.5-0.5l-0.1-0.1c0-0.1,0-0.4,0-0.6v-1.9v-1.6L28,55.8z"/>
	<path class="st10" d="M32.4,75.1c-0.2,0.1-0.3,0.3-0.5,0.4l-2.9-3c-0.1-0.1-0.4-0.3-0.4-0.5v-0.2v-0.6v-3.6l3.7,3.8L32.4,75.1z"/>
	<path class="st18" d="M65.8,46.5L67,49c-0.5,0.5-1,1.1-1.5,1.6l-1.7,1.9l-1.3-0.6l-1.8-0.7L65.8,46.5z"/>
	<path class="st20" d="M33.8,58.8L33,58.7l18-10.2l-0.6,1.6L33.8,58.8z"/>
	<path class="st3" d="M80.2,52.4l4-2.8l0.5-0.4c0.1,0,0.2-0.1,0.2-0.2v-0.2v1.3c0,0.2,0,0.4,0,0.6c-0.1,0.3-0.2,0.6-0.4,0.8L83.8,53
		L81,59.2c0-0.1,0.1-0.3,0.1-0.4l0.4-1c0-0.1,0-0.1,0-0.2c-0.1-0.6-0.3-1.3-0.5-1.9L80.2,52.4z"/>
	<path class="st6" d="M35,42.8c0.6-0.3,1.2-0.7,1.7-1.1c0.3-0.2,0.6-0.4,0.9-0.6c-0.4,0.7-1,1.3-1.5,2l-3.4,4.1l-0.9,1
		c-0.1,0.1-0.2,0.2-0.3,0.3c-0.4,0.4-0.8,0.8-0.8,1.3v1.7h-1.8c-0.2,0-0.6,0-0.7,0l0,0v-2.2l7.2-6.3L35,42.8z"/>
	<path class="st16" d="M72.7,64.4h0.4l0.8,2.6c-2.1,0.4-4.2,0.6-6.3,0.4l-1.3-0.2c0-0.3,0.3-0.6,0.4-0.8l0.8-1.6L72.7,64.4z"/>
	<path class="st9" d="M34.3,74l0.8,0.9c0.1,0.1,0.6,0.5,0.6,0.7c-0.7,0.6-1.4,1.1-2.1,1.6L31,79.1l-5.1,3.6c-0.5,0.3-1,0.6-1.5,0.9
		v-0.7c0.3-0.4,0.7-0.7,1.1-1l2.1-1.8l3.6-3.2L34.3,74z"/>
	<path class="st8" d="M84,43.7c0.1,0,0.2,0,0.3,0c0.1,0,0.3,0.2,0.3,0.3l0,0l-0.1,0.1c-0.3,0.4-0.8,0.6-1.1,0.9l-0.2-0.1
		c-0.4-0.2-0.8-0.3-1.2-0.2c-0.3,0.1-0.5,0.3-0.7,0.5c-0.3,0.1-0.5,0.4-0.7,0.6l-3.7,2.6l-1.7-1.6l0,0l0,0c0.3-0.4,0.8-0.8,1.2-1.1
		l1.3-1.2l0.5-0.5c0,0,0.1-0.1,0.2-0.2c0.1,0,0.3,0,0.3,0c0.4,0,0.8,0,1.2,0l0,0c0.4-0.1,0.9,0,1.3,0L84,43.7z"/>
	<path class="st19" d="M84,43.7c0.1,0,0.2,0,0.3,0c0.1,0,0.3,0.2,0.3,0.3l0,0l-0.1,0.1c-0.3,0.4-0.8,0.6-1.1,0.9l-0.2-0.1
		c0,0,0,0,0-0.1c0.2-0.5,0.6-0.8,1-1.1l0,0L84,43.7z"/>
	<path class="st3" d="M80,64c0.5-0.5,1.1-1,1.7-1.4l3.4-2.8v8L80,64z"/>
	<path class="st3" d="M69.8,70.2l0.8-1.8c0.1-0.1,0.1-0.4,0.2-0.5H71c0.9-0.1,1.9-0.1,2.8-0.4c1.1-0.3,2.2-1.2,3.1-1.9l2.3-1.7
		c0.4,0.4,0.8,0.7,1.3,1l1.9,1.4L69.8,70.2z"/>
	<path class="st6" d="M31.2,68l6.4,6.9v1.3c0,0.2,0,0.4,0,0.6L27.8,82v-0.1c0.9-0.6,1.8-1.3,2.6-1.9l1.8-1.4c1-0.7,1.9-1.4,2.8-2.2
		c0.3-0.3,0.6-0.5,0.8-0.8v-0.1c0-0.2-0.5-0.5-0.6-0.7l-0.8-0.9l0.4-0.4l-3.5-3.7C31.3,69.3,31.3,68.6,31.2,68z"/>
	<path class="st9" d="M81.1,60c0.1-0.2,0.3-0.5,0.4-0.8l1-2.1l2.6-5.6v8.3l-3.4,2.8C81.2,63,80.5,63.5,80,64l-0.3-0.3
		c0-0.2,0.2-0.5,0.3-0.7l0.8-2.1C80.9,60.6,81.1,60.3,81.1,60z"/>
	<path class="st3" d="M53.7,51l-1.8-3.2l3.1-4.1h9h3.2H68c0.1,0,0.3,0,0.4,0h-9.3L53.7,51z"/>
	<path class="st6" d="M67.5,67.9L67.5,67.9c0.4,0.1,0.8,0,1.2,0h1.7l-1.8,3.7c-0.4,0-0.8,0-1.2,0H65h-8.4c0.1-0.2,0.2-0.4,0.4-0.6
		l0,0c0.1,0,0.2,0,0.4-0.1l0.9-0.2l3.9-1c1.5-0.4,3.1-0.8,4.5-1.4C67,68.3,67.4,68.2,67.5,67.9L67.5,67.9z"/>
	<path class="st3" d="M57,71.1l4.3-6.5c1.2,0.7,2.3,1.6,3.5,2.4c0.4,0.2,0.8,0.5,1.2,0.7c0.5,0.2,1,0.3,1.5,0.3l0.1,0.1
		c-0.2,0.2-0.6,0.3-0.8,0.4c-1.5,0.6-3,1-4.5,1.4l-3.9,1l-0.9,0.2C57.3,71,57.2,71.1,57,71.1L57,71.1z"/>
	<path class="st9" d="M39.2,43.7h15.2l-1.7,2.2l-1.3,1.7L39.2,43.7z"/>
	<path class="st3" d="M23,40h0.9v36h-1.5c-0.1,0-0.4,0-0.5,0H23V40z"/>
	<path class="st18" d="M69.6,53.8c0.9-0.1,1.8,0.2,2.5,0.7c0.7,0.4,1.2,1.1,1.4,1.9c0.2,0.9,0,1.7-0.4,2.5c-0.5,0.9-1.3,1.3-2.2,1.6
		c-1,0.2-1.7,0-2.5-0.5c-0.7-0.4-1.3-1.2-1.4-2v-0.1v-0.1c-0.2-0.9,0-1.7,0.5-2.5C67.9,54.5,68.6,54,69.6,53.8z"/>
	<path class="st21" d="M70.6,54.4c0.3,0,0.7,0,1,0.1c0.6,0.2,1,0.7,1.3,1.3c0.2,0.4,0.2,0.8,0,1.2s-0.5,0.6-0.9,0.7
		c-0.4,0.1-0.8,0-1.2-0.2c-0.5-0.2-0.9-0.6-1-1.1c-0.2-0.4-0.2-0.9,0-1.2C69.9,54.8,70.2,54.6,70.6,54.4z"/>
	
		<linearGradient id="SVGID_00000024000200055809473050000004429276674486624443_" gradientUnits="userSpaceOnUse" x1="77.3514" y1="533.6349" x2="85.7464" y2="531.4317" gradientTransform="matrix(1 0 0 1 0 -484)">
		<stop  offset="0" style="stop-color:#606166"/>
		<stop  offset="1" style="stop-color:#848586"/>
	</linearGradient>
	<path style="fill:url(#SVGID_00000024000200055809473050000004429276674486624443_);stroke:#000000;stroke-linejoin:round;" d="
		M84.7,44l0.3,0.3v3.1v1.5v0.2c0,0.1-0.2,0.1-0.2,0.2l-0.5,0.4l-4,2.8l-0.1-0.4l-0.1-0.4c0-0.1,0-0.1-0.1-0.2
		c-0.2-0.3-0.5-0.5-0.8-0.8L77,48.6l3.7-2.6c0.2-0.2,0.4-0.4,0.7-0.6c0.2-0.2,0.4-0.4,0.7-0.5c0.4-0.1,0.8,0,1.2,0.2l0.2,0.1
		c0.4-0.3,0.8-0.6,1.1-0.9L84.7,44L84.7,44z"/>
	<path class="st3" d="M80.6,45.8c0.2-0.2,0.4-0.4,0.7-0.6c-0.2,0.5-0.4,0.9-0.2,1.4c0.1,0.4,0.5,0.7,0.8,0.8s0.6,0.1,0.9,0
		c0.4-0.2,0.8-0.5,0.9-1c0-0.1,0.1-0.3,0.1-0.4l0,0l0,0c0.1,0.1,0.1,0.2,0,0.3C83.7,47,83,47.6,82.5,48c-0.4,0.3-0.8,0.4-1.3,0.3
		c-0.4-0.1-0.7-0.3-0.9-0.7c-0.2-0.3-0.2-0.8-0.1-1.1l0,0C80.4,46.3,80.5,46.1,80.6,45.8z"/>
	<path class="st9" d="M80.1,52c1.4-1.3,2.7-2.8,4.2-4c0.2-0.2,0.5-0.5,0.7-0.6v1.5v0.2c0,0.1-0.2,0.1-0.2,0.2l-0.5,0.4l-4,2.8
		L80.1,52z"/>
	<path class="st23" d="M81.3,45.3c0.2-0.2,0.4-0.4,0.7-0.5c0.4-0.1,0.8,0,1.2,0.2l0.2,0.1c0.2,0.3,0.5,0.7,0.4,1.1
		c0,0.1,0,0.3-0.1,0.4c-0.1,0.4-0.5,0.8-0.9,1c-0.3,0.1-0.6,0.2-0.9,0c-0.3-0.1-0.7-0.5-0.8-0.8C80.9,46.2,81,45.8,81.3,45.3z"/>
	<path class="st18" d="M83.3,45.8c0.1,0.3,0.1,0.5-0.1,0.8s-0.5,0.4-0.8,0.5c-0.3-0.1-0.6-0.2-0.8-0.6c0-0.1-0.1-0.2-0.1-0.3
		c0.3,0,1.6,0.1,1.7,0C83.2,46.1,83.2,46,83.3,45.8L83.3,45.8z"/>
	<path class="st24" d="M81.5,46.3c0-0.2,0-0.3,0-0.5c0.1-0.3,0.3-0.5,0.5-0.6s0.4-0.1,0.6,0c0.3,0.1,0.5,0.4,0.6,0.6v0.1
		c0,0.1,0,0.2,0,0.4C83.1,46.3,81.8,46.3,81.5,46.3z"/>
	<path class="st9" d="M32.1,59.9l6.9,8.3l2.1,2.6c0.2,0.3,0.6,0.6,0.7,0.9h-0.1c-0.4,0-3.8,0-3.9,0c-0.5-0.5-0.9-1-1.3-1.5l-2.8-3.3
		l-1.2-1.3c-0.1-0.1-0.3-0.3-0.3-0.4c0-0.1,0-0.2,0-0.3V64L32.1,59.9z"/>
	<path class="st25" d="M21.9,76c-0.1-0.2,0-0.4,0-0.5v-1.2v-4.6V40.1H23V76L21.9,76z"/>
	<path class="st9" d="M54.3,51.9l1.9-1.1l6.4-3.6l5-2.9c0.1,0,0.1,0,0.2,0l-2.3,1.9L64,47.6l-3,2.6c-0.3,0.3-0.9,0.7-1,1
		c-0.2,0.3-0.2,0.8-0.2,1.1l-0.3,1.8l-0.3,2.1c-0.1,0.5-0.2,1-0.2,1.5c0,0.2,0.1,0.5,0.1,0.7l0.3,1c0.2,0.8,0.5,1.6,0.7,2.5
		L54.3,51.9z"/>
	<path class="st4" d="M32.2,58.7L32.2,58.7c0.6,0.4,1.5,0.4,2.2,0.6l2.1,0.4l8.8,1.6c-0.2,0.2-0.5,0.3-0.7,0.5L42.8,63L38,66.2
		c-0.6-0.6-1.1-1.3-1.6-1.9l-1.7-2.1L32.1,59v-2.8v1.7c0,0.2,0,0.4,0,0.6C32.1,58.7,32.1,58.7,32.2,58.7z"/>
	<path class="st19" d="M53.7,51l5.4-7.2h9.3c-0.1,0.2-0.5,0.5-0.7,0.6c-0.1,0-0.1,0-0.2,0l-5,2.9l-6.3,3.5l-1.9,1.1L53.7,51z"/>
	<path class="st6" d="M60,65.1L60,65.1C60.1,65.2,60.1,65.2,60,65.1c0.1,0.2,0.1,0.3,0.1,0.3c0,0.1-0.2,0.3-0.2,0.4l-0.5,0.8
		c-1.1,1.7-2.1,3.4-3.2,5H42.5l-3.2-4L39,67.2c0.5,0.2,1.1,0.4,1.6,0.6l2.7,0.9l6.8,2.3L60,65.1z"/>
	<path class="st8" d="M45.8,61.6l3.5,7.8l0.4,0.9c0,0.1,0.1,0.2,0.1,0.3c0,0,0.1,0,0.1,0.1h-0.1c-0.1,0-0.5-0.1-0.6-0.2l-2.9-1
		l-6.2-2l-1.9-0.7c0.1-0.1,0.3-0.2,0.4-0.3l0.8-0.5l4.4-2.9l1.4-0.9C45.3,61.9,45.6,61.8,45.8,61.6L45.8,61.6z"/>
	<path class="st20" d="M38.4,41.1v-0.2c0.2-0.1,1.3-0.1,1.6-0.1h6.1h23.7h11.9l1.6,1.7l0,0c-0.3,0.2-4-0.1-4.7-0.1l-5.2-0.1h-2.5
		L63,42.1l-3.5-0.2l-8.9-0.3L46,41.4l-5-0.1l-1.6-0.1C39.1,41.1,38.7,41.2,38.4,41.1z"/>
	<path class="st11" d="M45.8,61.6c0,0,0.1-0.1,0.2-0.1s0.3,0.1,0.3,0.1l1.5,0.4l4.9,1.4l6.2,1.7l-9,5.4c0,0-0.1,0-0.1-0.1
		s-0.1-0.2-0.1-0.3l-0.4-0.9L45.8,61.6z"/>
	<path class="st6" d="M82.4,66.4l2.6,2v3.3H69.1l0.7-1.5L82.4,66.4z"/>
	<path class="st23" d="M82.2,68.5c0.3,0,0.5,0,0.8,0.2c0.4,0.2,0.7,0.6,0.8,1c0.1,0.3,0,0.6-0.1,0.9c-0.2,0.4-0.5,0.5-0.9,0.6
		c-0.3,0-0.5,0-0.8-0.2c-0.4-0.2-0.7-0.5-0.8-0.9c-0.1-0.3-0.1-0.7,0.1-1C81.4,68.8,81.8,68.6,82.2,68.5z"/>
	<path class="st26" d="M83.1,69.4c0.1,0.2,0.1,0.4,0.1,0.6c-0.1,0.3-0.2,0.4-0.4,0.6c-0.2,0.1-0.5,0.1-0.7,0.1
		c-0.2-0.1-0.3-0.2-0.5-0.4c0.1,0,0.2,0,0.3-0.1c0.3-0.1,0.7-0.4,0.8-0.7l0,0C82.9,69.4,83,69.4,83.1,69.4z"/>
	<path class="st18" d="M81.6,70.3c-0.1-0.2-0.2-0.4-0.1-0.7c0-0.2,0.1-0.4,0.3-0.5c0.2-0.2,0.5-0.2,0.7-0.2c0.3,0,0.5,0.3,0.6,0.5
		c-0.1,0-0.3,0-0.4,0l0,0c-0.1,0.3-0.5,0.6-0.8,0.7C81.8,70.2,81.7,70.3,81.6,70.3z"/>
	<path class="st27" d="M38.4,41.1c0.4,0.1,0.7,0,1.1,0.1l1.6,0.1l5,0.1l4.6,0.2l8.9,0.3l3.5,0.1l7.9,0.2h2.5l5.2,0.1
		c0.6,0,4.4,0.2,4.7,0.1l0,0l0,0l0.7,0.7l-45.7,0.1L38.4,41.1z"/>
	<path class="st6" d="M20.5,36.8c0.2-0.1,0.5,0,0.8,0c0.5,0,1,0,1.5,0h0.3V39h-0.8c-0.1,0-0.3,0-0.4,0c-0.1,0-0.2,0.1-0.2,0.2
		c-0.1,0.1-0.1,0.1-0.2,0.2c-0.1,0.2,0,0.5,0,0.8v1.5v6.6v27.6c0,0.2,0,0.4,0.2,0.5l0,0c0.1,0.2,0,0.6,0,0.9c0,0.5,0,1,0,1.4h-1.4
		c-0.1,0-0.1-0.1-0.2-0.2C20,78.2,20,75.7,20,75.2v-7V44.8v-6v-1.2c0-0.2,0-0.4,0-0.6v-0.1C20.2,36.9,20.3,36.9,20.5,36.8z"/>
	<path class="st8" d="M20.5,36.8h2.1L20.1,39v-1.8v-0.1C20.2,36.9,20.3,36.9,20.5,36.8z"/>
	<path class="st11" d="M50.4,50l-4.5,11l-12.1-2.2L50.4,50z"/>
	<path class="st9" d="M26.4,80.6l-1.9,1.6V35l7,5.2c-0.2,0.4-0.6,0.8-0.9,1.2h-0.1l-4.1-3.6V80.6z"/>
	<path class="st3" d="M26.4,80.6V37.8l4.2,3.4h0.1l-2.6,3.2v4.9v2.2c-0.1,0.2,0,0.4,0,0.6v1.4c0,0.6-0.1,1.3,0,1.9v0.4v4.7v1.6V64
		c0,0.2,0,0.4,0,0.6l0.1,0.1l0.5,0.5l2.4,2.5l0.2,0.2V68c0.1,0.6,0.1,1.3,0.1,1.9l-2.2-2.1c-0.2-0.2-0.5-0.6-0.8-0.7
		c-0.1,0-0.2,0-0.3,0.1c0,0.1-0.1,0.1-0.1,0.2c0,0.3,0,0.6,0,0.8v1.5c0,0.8-0.1,1.7,0,2.6c0,0.3,3,3.2,3.4,3.7L26.4,80.6z"/>
	<path class="st3" d="M53.9,52.1l1.6,2.7l2.8,4.7l1.4,2.4c0.2,0.4,0.5,0.8,0.7,1.1c0.2,0.4,0.3,0.9,0.5,1.3l0,0l-0.7,0.4
		c-0.1,0-0.2,0.1-0.3,0.1c-0.1,0-0.5-0.1-0.6-0.2l-2.8-0.8l-9.9-2.7l5.2-12.8l1.4,2.3L53.9,52.1z"/>
	<path class="st8" d="M53,50.6l0.9,1.6l-5.1,5.5c0.6-1.4,1.5-2.7,2.3-4.1L53,50.6z"/>
	<path class="st3" d="M43.2,72.1h32.5l2.7,4.5l-0.1,0.1l-17.1,0.1l-1.3-2.3H43.3L43.2,72.1z"/>
	<path class="st3" d="M32.1,56.3v-6.5c0.2-0.3,0.5-0.5,0.7-0.8l1.3-1.3l2.5-2.6c0.4-0.4,0.9-1,1.4-1.3c0.1,0,0.1,0,0.2,0l10,3.3
		l1.7,0.6c0.3,0.1,0.6,0.2,0.9,0.3L32.2,58.7l0,0l-0.1-0.1c0-0.2,0-0.4,0-0.6L32.1,56.3z"/>
	<path class="st8" d="M48.3,47.1l1.7,0.6l-0.1,0.1c-0.2,0.2-0.6,0.4-0.9,0.6l-2.1,1.2l-4.7,2.6L38,54.3l-1.1,0.5
		c-0.1,0.1-0.3,0.2-0.5,0.2L48.3,47.1z"/>
	<path class="st6" d="M32.1,56.3v-6.5c0.2-0.3,0.5-0.5,0.7-0.8l1.3-1.3l2.5-2.6c0.4-0.4,0.9-1,1.4-1.3c0.1,0,0.1,0,0.2,0
		c-0.2,0.4-0.3,0.8-0.5,1.1l-1,2.4l-2.1,5.3l-1.8,4.5c-0.2,0.5-0.5,1-0.6,1.6l0,0l-0.1-0.1c0-0.2,0-0.4,0-0.6L32.1,56.3z"/>
	<path class="st28" d="M81.1,60c0,0.3-0.2,0.6-0.3,0.9L80,63c-0.1,0.2-0.3,0.5-0.3,0.7l0,0c-0.1-0.2,0.1-0.7,0.2-0.9
		C80.2,61.9,80.6,60.8,81.1,60z"/>
	<path class="st29" d="M42.4,72.1L42.4,72.1C42.5,72.1,42.5,72.1,42.4,72.1c0.1,0.1,0.1,0.2,0.1,0.3v0.7v3.8v-0.1
		c-0.1,0-0.1,0-0.1,0c0-0.6,0-1.2,0-1.8v-2C42.4,72.7,42.3,72.4,42.4,72.1z"/>
	<path class="st30" d="M28.6,52.9L28.6,52.9l-0.1-1h2.1V52c-0.1,0.3,0,0.7,0,1L28.6,52.9z"/>
	<path class="st30" d="M29.7,54.6h0.9c0,0.3-0.1,0.8,0,1h-2.1v-1H29.7z"/>
	<path class="st30" d="M30.7,57.2L30.7,57.2v1.1h-2.1c-0.1-0.2-0.1-0.8,0-1.1H30.7z"/>
	<path class="st30" d="M28.5,59.8h2.1v1.1h-2.1V59.8z"/>
	<path class="st30" d="M30.6,63.5c-0.2,0-0.5,0-0.7,0h-1.4v-1.1h2.2C30.6,62.7,30.6,63.1,30.6,63.5z"/>
	<path class="st29" d="M37.7,77.4h1.4l-6,2.6c-0.4,0.1-0.7,0.3-1.2,0.4c0.2-0.1,0.4-0.2,0.6-0.3l1.2-0.6l1.3-0.8l1.4-0.7
		C36.8,77.8,37.3,77.6,37.7,77.4z"/>
	<path class="st31" d="M28,55.4c-0.1-0.6,0-1.3,0-1.9v-1.4c0-0.2,0-0.4,0-0.6v1.7h2.6c0,0.3-0.1,0.8,0,1.1H28
		C28.1,54.7,28.1,55.1,28,55.4z"/>
	
		<linearGradient id="SVGID_00000134929554913028919450000010029645938640932267_" gradientUnits="userSpaceOnUse" x1="33.9731" y1="557.4221" x2="32.2811" y2="557.4286" gradientTransform="matrix(1 0 0 1 0 -484)">
		<stop  offset="0" style="stop-color:#CC890B"/>
		<stop  offset="1" style="stop-color:#AF6E0F"/>
	</linearGradient>
	<path style="fill:url(#SVGID_00000134929554913028919450000010029645938640932267_);" d="M32.2,71.6l1.9,2l-1.7,1.6L32.2,71.6z"/>
	<path class="st29" d="M21.6,76.5h2.2v2.3h-2.2c0-0.5,0-1,0-1.4C21.6,77.1,21.7,76.8,21.6,76.5z"/>
	<path class="st33" d="M75.5,43.8c0.1-0.1,0.3,0,0.4,0h0.9h3.1l0,0c-0.4,0.1-0.8,0-1.2,0c-0.1,0-0.3,0-0.3,0s-0.1,0.1-0.2,0.2
		l-0.5,0.5l-1.3,1.2c-0.4,0.4-0.8,0.7-1.2,1.1l0,0l0,0c-0.2-0.2-0.5-0.4-0.6-0.6c-0.1-0.1-0.2-0.2-0.3-0.2L75.5,43.8z"/>
	<path class="st34" d="M75.5,43.8c0.1-0.1,0.3,0,0.4,0h0.9h3.1l0,0c-0.4,0.1-0.8,0-1.2,0c-0.1,0-0.3,0-0.3,0s-0.1,0.1-0.2,0.2
		l-0.5,0.5l-1.3,1.2c-0.4,0.4-0.8,0.7-1.2,1.1l0,0l0,0c-0.2-0.2-0.5-0.4-0.6-0.6l3.5-2.4H75.5z"/>
	<path class="st29" d="M37.9,41.4v1.8L32,49h-0.1l0,0c0-0.1,0-0.3,0.1-0.4c0.5-0.8,1.2-1.5,1.8-2.1C35.2,44.8,36.6,43.2,37.9,41.4z"
		/>
	<path class="st34" d="M28.3,35.8c0.1,0,0.3,0.1,0.4,0.1l1,0.4l1.4,0.5l6.3,2.2l3.4,1.2h-2.1c-0.3,0-0.6,0-0.9,0
		c-0.3-0.1-0.6-0.2-0.9-0.4l-2-0.9C32.8,37.9,30.4,36.9,28.3,35.8z"/>
	<path class="st29" d="M76.3,72.1h1.3c0.2,0.2,0.4,0.6,0.6,0.9l1.7,2.7c0.2,0.3,0.5,0.7,0.6,1h-0.1H79L77.3,74l-0.8-1.3
		c-0.1-0.1-0.3-0.4-0.3-0.5L76.3,72.1z"/>
	<path class="st34" d="M31.8,39.7l1.1,0.7c0.1,0.1,0.3,0.2,0.3,0.2c0.1,0,0.2,0,0.3,0l1.3-0.2c0.6-0.1,1.3-0.1,2-0.3l0,0l1.2,0.5
		L37.7,41c-0.3,0.1-0.6,0.4-0.9,0.6c-0.6,0.4-1.1,0.8-1.7,1.1l-1.9-1.6l-0.8-0.7c-0.1-0.1-0.3-0.2-0.4-0.4
		C31.8,40,31.8,39.8,31.8,39.7z"/>
	<path class="st35" d="M28.5,45.9c0-0.2-0.1-1.2,0-1.3c0-0.1,0.2-0.2,0.2-0.3l0.7-0.9l2.2-2.8l1.6,1.4L28.5,45.9L28.5,45.9z"/>
	<path class="st31" d="M43.2,75.4v-0.6h16.3l0.3,0.5l-7.5,0.1h-0.6c-0.1,0-0.3,0-0.4,0h-1.1h-4.9h-1.5
		C43.7,75.4,43.4,75.5,43.2,75.4z"/>
	<path class="st36" d="M62.3,57.6l3.2,1.5c0.5,0.2,1.1,0.4,1.5,0.7c0.3,0.1,0.5,0.4,0.7,0.5c0.3,0.2,0.7,0.4,1.1,0.6L68.2,61
		l-2.6,0.4c-0.3,0.1-0.8,0.2-1.1,0.2L62.3,57.6z"/>
	
		<linearGradient id="SVGID_00000109012151477131381690000017522607650946295937_" gradientUnits="userSpaceOnUse" x1="69.4549" y1="538.2238" x2="69.985" y2="533.1505" gradientTransform="matrix(1 0 0 1 0 -484)">
		<stop  offset="0" style="stop-color:#5BB6CE"/>
		<stop  offset="1" style="stop-color:#F3EFF0"/>
	</linearGradient>
	<path style="fill:url(#SVGID_00000109012151477131381690000017522607650946295937_);" d="M67.7,49.4c0.2-0.1,3.9,0,4.5,0l-0.9,0.9
		l-0.1,0.1L69,52.5c-0.5,0.5-1,1-1.4,1.5v0.1c0-0.4,0-0.8,0-1.2v-2.2C67.6,50.2,67.6,49.8,67.7,49.4z"/>
	<path class="st36" d="M63.9,53.3l2.7,5.8l-1.3-0.5L62,57.1L63.9,53.3z"/>
	<path class="st36" d="M73.8,55.4c0.4,0.2,0.8,0.5,1.1,0.7l2.9,1.7l-1.7,2.8c-0.4,0.6-0.8,1.2-1.3,1.7c-0.1-0.5-0.1-1.1-0.1-1.7
		C74.6,58.9,74.4,57.1,73.8,55.4z"/>
	
		<linearGradient id="SVGID_00000159437736921851928870000002887673625834840988_" gradientUnits="userSpaceOnUse" x1="31.6793" y1="529.9318" x2="30.4302" y2="528.1779" gradientTransform="matrix(1 0 0 1 0 -484)">
		<stop  offset="0" style="stop-color:#D38D0A"/>
		<stop  offset="1" style="stop-color:#C27313"/>
	</linearGradient>
	<path style="fill:url(#SVGID_00000159437736921851928870000002887673625834840988_);" d="M33.4,42l1.2,1.1l-6.1,5.3V46l0.1,0.1
		L33.4,42z"/>
	
		<linearGradient id="SVGID_00000165225587563184080940000008172394677897816498_" gradientUnits="userSpaceOnUse" x1="64.613" y1="540.2004" x2="68.1775" y2="534.1138" gradientTransform="matrix(1 0 0 1 0 -484)">
		<stop  offset="0" style="stop-color:#6B98CD"/>
		<stop  offset="1" style="stop-color:#C1E9E3"/>
	</linearGradient>
	<path style="fill:url(#SVGID_00000165225587563184080940000008172394677897816498_);" d="M64.7,52.2l1.6-1.8
		c0.3-0.3,0.6-0.7,0.9-0.9l-0.1,2.8c0,0.2,0,0.4,0,0.6v1.3c0,0.2,0,0.5,0,0.6c-0.1,0.2-0.2,0.4-0.3,0.6c-0.3,0.6-0.5,1.2-0.5,1.9
		l-2.1-4.5L64.7,52.2z"/>
	<path class="st40" d="M72.6,49.5l3.3,2.8L71.1,53c-1,0.1-1.8,0.3-2.7,0.7L72.6,49.5z"/>
	<path class="st36" d="M74,58c0.1,0.5,0.2,1,0.2,1.5l0.2,3.4l-0.8,0.8l-0.2,0.2c-0.1,0.1-0.5,0-0.7,0L70.2,64h-0.5l1.8-2.3
		c0.7-0.8,1.5-1.7,2-2.7C73.7,58.8,73.8,58.4,74,58z"/>
	<path class="st36" d="M76.1,52.7c0.3,0.6,0.5,1.3,0.8,1.9c0.4,0.9,0.8,1.9,1.1,2.9l-3.1-1.8l-2.1-1.3c-0.6-0.3-1.1-0.6-1.7-0.9
		L76.1,52.7z"/>
	<path class="st40" d="M71.7,60.7L71.7,60.7L71.7,60.7l-2.6,3.5l-1.9,0.1l-1.1-1.1l-1.3-1.3l4.5-0.7C70.2,61.1,70.9,61,71.7,60.7z"
		/>
	<path class="st31" d="M38.1,71.9c0.3-0.1,0.7,0,1,0h2.7v5h-0.5c0-0.4,0.1-2.3-0.1-2.6c-0.1-0.1-0.2-0.2-0.4-0.2
		c-0.2,0-0.3,0-0.4,0.1c-0.2,0.2-0.2,0.7-0.2,1v1.6h-0.5v-1.5c0-0.3,0-0.6,0-0.8c0-0.1-0.1-0.2-0.1-0.2c-0.1-0.1-0.2-0.2-0.3-0.2
		c-0.1,0-0.2,0-0.3,0.1c-0.1,0.1-0.2,0.2-0.2,0.3c-0.1,0.3,0,0.6,0,0.8v1.5h-0.5C38.1,76.2,38.2,72.3,38.1,71.9L38.1,71.9z"/>
	<path class="st41" d="M64.4,62.1l2.6,2.5l-1.1,2.3l-1-0.7l-3.4-2.1L64.4,62.1z"/>
	<path class="st41" d="M76,61.7l3,1.8l-3.3,2.4l-1.4,0.9l-0.7-2.4C74.5,63.6,75.2,62.7,76,61.7z"/>
	
		<linearGradient id="SVGID_00000034811743960440312570000005358109533152134312_" gradientUnits="userSpaceOnUse" x1="31.1451" y1="524.8536" x2="30.5164" y2="518.0349" gradientTransform="matrix(1 0 0 1 0 -484)">
		<stop  offset="0" style="stop-color:#A19EA1"/>
		<stop  offset="1" style="stop-color:#C2C3C1"/>
	</linearGradient>
	<path style="fill:url(#SVGID_00000034811743960440312570000005358109533152134312_);" d="M25.8,35.4c-0.4-0.3-0.8-0.6-1.1-0.9
		l1.4,0.6l10.8,5l0,0c-0.6,0.1-1.3,0.2-2,0.3l-1.3,0.2c-0.1,0-0.2,0.1-0.3,0c-0.1,0-0.3-0.2-0.3-0.2l-1.1-0.7
		c-0.1-0.1-0.3-0.2-0.4-0.3l-1-0.7l-2.8-2C27,36.3,26.3,35.9,25.8,35.4z"/>
	<path class="st41" d="M60.4,51.6l3.3,1.3L62,56.6l-0.3,0.5l-2.1,0.4l0.4-2.6C60.1,53.8,60.1,52.6,60.4,51.6z"/>
	<path class="st43" d="M79.3,51.8C79.4,51.8,79.3,51.8,79.3,51.8l1.7,5.6c-0.3,0-2.4,0.1-2.5,0c0,0-0.1,0-0.1-0.1l-1.8-4.7
		L79.3,51.8z"/>
	<path class="st41" d="M79.1,57.8h2l-1.9,5.4l-0.7-0.4l-2.3-1.4l2.1-3.5L79.1,57.8z"/>
	<path class="st28" d="M78.1,72.1h6.5c-0.1,0.2-0.3,0.4-0.5,0.6l-1.6,1.9l-1.7,2.1L78.1,72.1z"/>
	<path class="st44" d="M69,43.7h6l-1.1,2.2h-1.7h-6L69,43.7z"/>
	<path class="st43" d="M66.2,46.4h7.6L72.9,48l-0.5,0.8h-5.2L66.2,46.4z"/>
	<path class="st41" d="M61.4,57.6c0.1,0,0.1,0,0.2,0c0.3,0.4,0.5,0.9,0.8,1.4l1.6,2.8l-2.3,1.6l-0.6,0.4l-1.6-5.9L61.4,57.6z"/>
	<path class="st43" d="M74.1,46.5l5.1,4.9l-1.7,0.5l-1.1,0.3l-2.6-2.3l-0.7-0.6c-0.1-0.1-0.2-0.2-0.3-0.3L74.1,46.5z"/>
	<path class="st31" d="M28,55.8h2.2h0.4c0.1,0.2,0,0.8,0.1,1.1h-2.6v1.5h0.7h0.1c0.4,0,0.7,0,1.1,0c0.2,0,0.5,0,0.7,0v1.1h-1.8
		c-0.2,0-0.6-0.1-0.8,0c-0.1,0.3,0,1.2,0,1.6h2.6c0.1,0.3,0,0.8,0.1,1.1h-2.6v1.6H31c0.1,0.2,0.1,0.7,0.1,0.9
		c0.1,1.1,0.2,2.1,0.3,3.2l-0.2-0.2l-2.4-2.5l-0.5-0.5l-0.1-0.1c0-0.1,0-0.4,0-0.6v-1.9v-1.6L28,55.8z"/>
	<path class="st35" d="M32.4,75.1c-0.2,0.1-0.3,0.3-0.5,0.4l-2.9-3c-0.1-0.1-0.4-0.3-0.4-0.5v-0.2v-0.6v-3.6l3.7,3.8L32.4,75.1z"/>
	<path class="st43" d="M65.8,46.5L67,49c-0.5,0.5-1,1.1-1.5,1.6l-1.7,1.9l-1.3-0.6l-1.8-0.7L65.8,46.5z"/>
	<path class="st45" d="M33.8,58.8L33,58.7l18-10.2l-0.6,1.6L33.8,58.8z"/>
	<path class="st28" d="M80.2,52.4l4-2.8l0.5-0.4c0.1,0,0.2-0.1,0.2-0.2v-0.2v1.3c0,0.2,0,0.4,0,0.6c-0.1,0.3-0.2,0.6-0.4,0.8
		L83.8,53L81,59.2c0-0.1,0.1-0.3,0.1-0.4l0.4-1c0-0.1,0-0.1,0-0.2c-0.1-0.6-0.3-1.3-0.5-1.9L80.2,52.4z"/>
	<path class="st31" d="M35,42.8c0.6-0.3,1.2-0.7,1.7-1.1c0.3-0.2,0.6-0.4,0.9-0.6c-0.4,0.7-1,1.3-1.5,2l-3.4,4.1l-0.9,1
		c-0.1,0.1-0.2,0.2-0.3,0.3c-0.4,0.4-0.8,0.8-0.8,1.3v1.7h-1.8c-0.2,0-0.6,0-0.7,0l0,0v-2.2l7.2-6.3L35,42.8z"/>
	<path class="st41" d="M72.7,64.4h0.4l0.8,2.6c-2.1,0.4-4.2,0.6-6.3,0.4l-1.3-0.2c0-0.3,0.3-0.6,0.4-0.8l0.8-1.6L72.7,64.4z"/>
	<path class="st34" d="M34.3,74l0.8,0.9c0.1,0.1,0.6,0.5,0.6,0.7c-0.7,0.6-1.4,1.1-2.1,1.6L31,79.1l-5.1,3.6c-0.5,0.3-1,0.6-1.5,0.9
		v-0.7c0.3-0.4,0.7-0.7,1.1-1l2.1-1.8l3.6-3.2L34.3,74z"/>
	<path class="st33" d="M84,43.7c0.1,0,0.2,0,0.3,0c0.1,0,0.3,0.2,0.3,0.3l0,0l-0.1,0.1c-0.3,0.4-0.8,0.6-1.1,0.9l-0.2-0.1
		c-0.4-0.2-0.8-0.3-1.2-0.2c-0.3,0.1-0.5,0.3-0.7,0.5c-0.3,0.1-0.5,0.4-0.7,0.6l-3.7,2.6l-1.7-1.6l0,0l0,0c0.3-0.4,0.8-0.8,1.2-1.1
		l1.3-1.2l0.5-0.5c0,0,0.1-0.1,0.2-0.2c0.1,0,0.3,0,0.3,0c0.4,0,0.8,0,1.2,0l0,0c0.4-0.1,0.9,0,1.3,0L84,43.7z"/>
	<path class="st44" d="M84,43.7c0.1,0,0.2,0,0.3,0c0.1,0,0.3,0.2,0.3,0.3l0,0l-0.1,0.1c-0.3,0.4-0.8,0.6-1.1,0.9l-0.2-0.1
		c0,0,0,0,0-0.1c0.2-0.5,0.6-0.8,1-1.1l0,0L84,43.7z"/>
	<path class="st28" d="M80,64c0.5-0.5,1.1-1,1.7-1.4l3.4-2.8v8L80,64z"/>
	<path class="st28" d="M69.8,70.2l0.8-1.8c0.1-0.1,0.1-0.4,0.2-0.5H71c0.9-0.1,1.9-0.1,2.8-0.4c1.1-0.3,2.2-1.2,3.1-1.9l2.3-1.7
		c0.4,0.4,0.8,0.7,1.3,1l1.9,1.4L69.8,70.2z"/>
	<path class="st31" d="M31.2,68l6.4,6.9v1.3c0,0.2,0,0.4,0,0.6L27.8,82v-0.1c0.9-0.6,1.8-1.3,2.6-1.9l1.8-1.4c1-0.7,1.9-1.4,2.8-2.2
		c0.3-0.3,0.6-0.5,0.8-0.8v-0.1c0-0.2-0.5-0.5-0.6-0.7l-0.8-0.9l0.4-0.4l-3.5-3.7C31.3,69.3,31.3,68.6,31.2,68z"/>
	<path class="st34" d="M81.1,60c0.1-0.2,0.3-0.5,0.4-0.8l1-2.1l2.6-5.6v8.3l-3.4,2.8C81.2,63,80.5,63.5,80,64l-0.3-0.3
		c0-0.2,0.2-0.5,0.3-0.7l0.8-2.1C80.9,60.6,81.1,60.3,81.1,60z"/>
	<path class="st28" d="M53.7,51l-1.8-3.2l3.1-4.1h9h3.2H68c0.1,0,0.3,0,0.4,0h-9.3L53.7,51z"/>
	<path class="st31" d="M67.5,67.9L67.5,67.9c0.4,0.1,0.8,0,1.2,0h1.7l-1.8,3.7c-0.4,0-0.8,0-1.2,0H65h-8.4c0.1-0.2,0.2-0.4,0.4-0.6
		l0,0c0.1,0,0.2,0,0.4-0.1l0.9-0.2l3.9-1c1.5-0.4,3.1-0.8,4.5-1.4C67,68.3,67.4,68.2,67.5,67.9L67.5,67.9z"/>
	<path class="st28" d="M57,71.1l4.3-6.5c1.2,0.7,2.3,1.6,3.5,2.4c0.4,0.2,0.8,0.5,1.2,0.7c0.5,0.2,1,0.3,1.5,0.3l0.1,0.1
		c-0.2,0.2-0.6,0.3-0.8,0.4c-1.5,0.6-3,1-4.5,1.4l-3.9,1l-0.9,0.2C57.3,71,57.2,71.1,57,71.1L57,71.1z"/>
	<path class="st34" d="M39.2,43.7h15.2l-1.7,2.2l-1.3,1.7L39.2,43.7z"/>
	<path class="st28" d="M23,40h0.9v36h-1.5c-0.1,0-0.4,0-0.5,0H23V40z"/>
	<path class="st43" d="M69.6,53.8c0.9-0.1,1.8,0.2,2.5,0.7c0.7,0.4,1.2,1.1,1.4,1.9c0.2,0.9,0,1.7-0.4,2.5c-0.5,0.9-1.3,1.3-2.2,1.6
		c-1,0.2-1.7,0-2.5-0.5c-0.7-0.4-1.3-1.2-1.4-2v-0.1v-0.1c-0.2-0.9,0-1.7,0.5-2.5C67.9,54.5,68.6,54,69.6,53.8z"/>
	<path class="st46" d="M70.6,54.4c0.3,0,0.7,0,1,0.1c0.6,0.2,1,0.7,1.3,1.3c0.2,0.4,0.2,0.8,0,1.2s-0.5,0.6-0.9,0.7
		c-0.4,0.1-0.8,0-1.2-0.2c-0.5-0.2-0.9-0.6-1-1.1c-0.2-0.4-0.2-0.9,0-1.2C69.9,54.8,70.2,54.6,70.6,54.4z"/>
	
		<linearGradient id="SVGID_00000080177859151856269990000004595794006385864323_" gradientUnits="userSpaceOnUse" x1="77.3514" y1="533.6349" x2="85.7464" y2="531.4317" gradientTransform="matrix(1 0 0 1 0 -484)">
		<stop  offset="0" style="stop-color:#606166"/>
		<stop  offset="1" style="stop-color:#848586"/>
	</linearGradient>
	<path style="fill:url(#SVGID_00000080177859151856269990000004595794006385864323_);" d="M84.7,44l0.3,0.3v3.1v1.5v0.2
		c0,0.1-0.2,0.1-0.2,0.2l-0.5,0.4l-4,2.8l-0.1-0.4l-0.1-0.4c0-0.1,0-0.1-0.1-0.2c-0.2-0.3-0.5-0.5-0.8-0.8L77,48.6l3.7-2.6
		c0.2-0.2,0.4-0.4,0.7-0.6c0.2-0.2,0.4-0.4,0.7-0.5c0.4-0.1,0.8,0,1.2,0.2l0.2,0.1c0.4-0.3,0.8-0.6,1.1-0.9L84.7,44L84.7,44z"/>
	<path class="st28" d="M80.6,45.8c0.2-0.2,0.4-0.4,0.7-0.6c-0.2,0.5-0.4,0.9-0.2,1.4c0.1,0.4,0.5,0.7,0.8,0.8s0.6,0.1,0.9,0
		c0.4-0.2,0.8-0.5,0.9-1c0-0.1,0.1-0.3,0.1-0.4l0,0l0,0c0.1,0.1,0.1,0.2,0,0.3C83.7,47,83,47.6,82.5,48c-0.4,0.3-0.8,0.4-1.3,0.3
		c-0.4-0.1-0.7-0.3-0.9-0.7c-0.2-0.3-0.2-0.8-0.1-1.1l0,0C80.4,46.3,80.5,46.1,80.6,45.8z"/>
	<path class="st34" d="M80.1,52c1.4-1.3,2.7-2.8,4.2-4c0.2-0.2,0.5-0.5,0.7-0.6v1.5v0.2c0,0.1-0.2,0.1-0.2,0.2l-0.5,0.4l-4,2.8
		L80.1,52z"/>
	<path class="st48" d="M81.3,45.3c0.2-0.2,0.4-0.4,0.7-0.5c0.4-0.1,0.8,0,1.2,0.2l0.2,0.1c0.2,0.3,0.5,0.7,0.4,1.1
		c0,0.1,0,0.3-0.1,0.4c-0.1,0.4-0.5,0.8-0.9,1c-0.3,0.1-0.6,0.2-0.9,0c-0.3-0.1-0.7-0.5-0.8-0.8C80.9,46.2,81,45.8,81.3,45.3z"/>
	<path class="st43" d="M83.3,45.8c0.1,0.3,0.1,0.5-0.1,0.8s-0.5,0.4-0.8,0.5c-0.3-0.1-0.6-0.2-0.8-0.6c0-0.1-0.1-0.2-0.1-0.3
		c0.3,0,1.6,0.1,1.7,0C83.2,46.1,83.2,46,83.3,45.8L83.3,45.8z"/>
	<path class="st49" d="M81.5,46.3c0-0.2,0-0.3,0-0.5c0.1-0.3,0.3-0.5,0.5-0.6s0.4-0.1,0.6,0c0.3,0.1,0.5,0.4,0.6,0.6v0.1
		c0,0.1,0,0.2,0,0.4C83.1,46.3,81.8,46.3,81.5,46.3z"/>
	<path class="st34" d="M32.1,59.9l6.9,8.3l2.1,2.6c0.2,0.3,0.6,0.6,0.7,0.9h-0.1c-0.4,0-3.8,0-3.9,0c-0.5-0.5-0.9-1-1.3-1.5
		l-2.8-3.3l-1.2-1.3c-0.1-0.1-0.3-0.3-0.3-0.4c0-0.1,0-0.2,0-0.3V64L32.1,59.9z"/>
	<path class="st50" d="M21.9,76c-0.1-0.2,0-0.4,0-0.5v-1.2v-4.6V40.1H23V76L21.9,76z"/>
	<path class="st34" d="M54.3,51.9l1.9-1.1l6.4-3.6l5-2.9c0.1,0,0.1,0,0.2,0l-2.3,1.9L64,47.6l-3,2.6c-0.3,0.3-0.9,0.7-1,1
		c-0.2,0.3-0.2,0.8-0.2,1.1l-0.3,1.8l-0.3,2.1c-0.1,0.5-0.2,1-0.2,1.5c0,0.2,0.1,0.5,0.1,0.7l0.3,1c0.2,0.8,0.5,1.6,0.7,2.5
		L54.3,51.9z"/>
	<path class="st29" d="M32.2,58.7L32.2,58.7c0.6,0.4,1.5,0.4,2.2,0.6l2.1,0.4l8.8,1.6c-0.2,0.2-0.5,0.3-0.7,0.5L42.8,63L38,66.2
		c-0.6-0.6-1.1-1.3-1.6-1.9l-1.7-2.1L32.1,59v-2.8v1.7c0,0.2,0,0.4,0,0.6C32.1,58.7,32.1,58.7,32.2,58.7z"/>
	<path class="st44" d="M53.7,51l5.4-7.2h9.3c-0.1,0.2-0.5,0.5-0.7,0.6c-0.1,0-0.1,0-0.2,0l-5,2.9l-6.3,3.5l-1.9,1.1L53.7,51z"/>
	<path class="st31" d="M60,65.1L60,65.1C60.1,65.2,60.1,65.2,60,65.1c0.1,0.2,0.1,0.3,0.1,0.3c0,0.1-0.2,0.3-0.2,0.4l-0.5,0.8
		c-1.1,1.7-2.1,3.4-3.2,5H42.5l-3.2-4L39,67.2c0.5,0.2,1.1,0.4,1.6,0.6l2.7,0.9l6.8,2.3L60,65.1z"/>
	<path class="st33" d="M45.8,61.6l3.5,7.8l0.4,0.9c0,0.1,0.1,0.2,0.1,0.3c0,0,0.1,0,0.1,0.1h-0.1c-0.1,0-0.5-0.1-0.6-0.2l-2.9-1
		l-6.2-2l-1.9-0.7c0.1-0.1,0.3-0.2,0.4-0.3l0.8-0.5l4.4-2.9l1.4-0.9C45.3,61.9,45.6,61.8,45.8,61.6L45.8,61.6z"/>
	<path class="st45" d="M38.4,41.1v-0.2c0.2-0.1,1.3-0.1,1.6-0.1h6.1h23.7h11.9l1.6,1.7l0,0c-0.3,0.2-4-0.1-4.7-0.1l-5.2-0.1h-2.5
		L63,42.1l-3.5-0.2l-8.9-0.3L46,41.4l-5-0.1l-1.6-0.1C39.1,41.1,38.7,41.2,38.4,41.1z"/>
	<path class="st36" d="M45.8,61.6c0,0,0.1-0.1,0.2-0.1s0.3,0.1,0.3,0.1l1.5,0.4l4.9,1.4l6.2,1.7l-9,5.4c0,0-0.1,0-0.1-0.1
		s-0.1-0.2-0.1-0.3l-0.4-0.9L45.8,61.6z"/>
	<path class="st31" d="M82.4,66.4l2.6,2v3.3H69.1l0.7-1.5L82.4,66.4z"/>
	<path class="st48" d="M82.2,68.5c0.3,0,0.5,0,0.8,0.2c0.4,0.2,0.7,0.6,0.8,1c0.1,0.3,0,0.6-0.1,0.9c-0.2,0.4-0.5,0.5-0.9,0.6
		c-0.3,0-0.5,0-0.8-0.2c-0.4-0.2-0.7-0.5-0.8-0.9c-0.1-0.3-0.1-0.7,0.1-1C81.4,68.8,81.8,68.6,82.2,68.5z"/>
	<path class="st51" d="M83.1,69.4c0.1,0.2,0.1,0.4,0.1,0.6c-0.1,0.3-0.2,0.4-0.4,0.6c-0.2,0.1-0.5,0.1-0.7,0.1
		c-0.2-0.1-0.3-0.2-0.5-0.4c0.1,0,0.2,0,0.3-0.1c0.3-0.1,0.7-0.4,0.8-0.7l0,0C82.9,69.4,83,69.4,83.1,69.4z"/>
	<path class="st43" d="M81.6,70.3c-0.1-0.2-0.2-0.4-0.1-0.7c0-0.2,0.1-0.4,0.3-0.5c0.2-0.2,0.5-0.2,0.7-0.2c0.3,0,0.5,0.3,0.6,0.5
		c-0.1,0-0.3,0-0.4,0l0,0c-0.1,0.3-0.5,0.6-0.8,0.7C81.8,70.2,81.7,70.3,81.6,70.3z"/>
	<path class="st52" d="M38.4,41.1c0.4,0.1,0.7,0,1.1,0.1l1.6,0.1l5,0.1l4.6,0.2l8.9,0.3l3.5,0.1l7.9,0.2h2.5l5.2,0.1
		c0.6,0,4.4,0.2,4.7,0.1l0,0l0,0l0.7,0.7l-45.7,0.1L38.4,41.1z"/>
	<path class="st31" d="M20.5,36.8c0.2-0.1,0.5,0,0.8,0c0.5,0,1,0,1.5,0h0.3V39h-0.8c-0.1,0-0.3,0-0.4,0c-0.1,0-0.2,0.1-0.2,0.2
		c-0.1,0.1-0.1,0.1-0.2,0.2c-0.1,0.2,0,0.5,0,0.8v1.5v6.6v27.6c0,0.2,0,0.4,0.2,0.5l0,0c0.1,0.2,0,0.6,0,0.9c0,0.5,0,1,0,1.4h-1.4
		c-0.1,0-0.1-0.1-0.2-0.2C20,78.2,20,75.7,20,75.2v-7V44.8v-6v-1.2c0-0.2,0-0.4,0-0.6v-0.1C20.2,36.9,20.3,36.9,20.5,36.8z"/>
	<path class="st33" d="M20.5,36.8h2.1L20.1,39v-1.8v-0.1C20.2,36.9,20.3,36.9,20.5,36.8z"/>
	<path class="st36" d="M50.4,50l-4.5,11l-12.1-2.2L50.4,50z"/>
	<path class="st34" d="M26.4,80.6l-1.9,1.6V35l7,5.2c-0.2,0.4-0.6,0.8-0.9,1.2h-0.1l-4.1-3.6V80.6z"/>
	<path class="st28" d="M26.4,80.6V37.8l4.2,3.4h0.1l-2.6,3.2v4.9v2.2c-0.1,0.2,0,0.4,0,0.6v1.4c0,0.6-0.1,1.3,0,1.9v0.4v4.7v1.6V64
		c0,0.2,0,0.4,0,0.6l0.1,0.1l0.5,0.5l2.4,2.5l0.2,0.2V68c0.1,0.6,0.1,1.3,0.1,1.9l-2.2-2.1c-0.2-0.2-0.5-0.6-0.8-0.7
		c-0.1,0-0.2,0-0.3,0.1c0,0.1-0.1,0.1-0.1,0.2c0,0.3,0,0.6,0,0.8v1.5c0,0.8-0.1,1.7,0,2.6c0,0.3,3,3.2,3.4,3.7L26.4,80.6z"/>
	<path class="st28" d="M53.9,52.1l1.6,2.7l2.8,4.7l1.4,2.4c0.2,0.4,0.5,0.8,0.7,1.1c0.2,0.4,0.3,0.9,0.5,1.3l0,0l-0.7,0.4
		c-0.1,0-0.2,0.1-0.3,0.1c-0.1,0-0.5-0.1-0.6-0.2l-2.8-0.8l-9.9-2.7l5.2-12.8l1.4,2.3L53.9,52.1z"/>
	<path class="st33" d="M53,50.6l0.9,1.6l-5.1,5.5c0.6-1.4,1.5-2.7,2.3-4.1L53,50.6z"/>
	<path class="st28" d="M43.2,72.1h32.5l2.7,4.5l-0.1,0.1l-17.1,0.1l-1.3-2.3H43.3L43.2,72.1z"/>
	<path class="st28" d="M32.1,56.3v-6.5c0.2-0.3,0.5-0.5,0.7-0.8l1.3-1.3l2.5-2.6c0.4-0.4,0.9-1,1.4-1.3c0.1,0,0.1,0,0.2,0l10,3.3
		l1.7,0.6c0.3,0.1,0.6,0.2,0.9,0.3L32.2,58.7l0,0l-0.1-0.1c0-0.2,0-0.4,0-0.6L32.1,56.3z"/>
	<path class="st33" d="M48.3,47.1l1.7,0.6l-0.1,0.1c-0.2,0.2-0.6,0.4-0.9,0.6l-2.1,1.2l-4.7,2.6L38,54.3l-1.1,0.5
		c-0.1,0.1-0.3,0.2-0.5,0.2L48.3,47.1z"/>
	<path class="st31" d="M32.1,56.3v-6.5c0.2-0.3,0.5-0.5,0.7-0.8l1.3-1.3l2.5-2.6c0.4-0.4,0.9-1,1.4-1.3c0.1,0,0.1,0,0.2,0
		c-0.2,0.4-0.3,0.8-0.5,1.1l-1,2.4l-2.1,5.3l-1.8,4.5c-0.2,0.5-0.5,1-0.6,1.6l0,0l-0.1-0.1c0-0.2,0-0.4,0-0.6L32.1,56.3z"/>
</g>
<g>
	<path class="st53" d="M102.6,20.7V10.3l-9-5.2l-9.1,5.2v10.4l9.1,5.2L102.6,20.7z"/>
	<path class="st53" d="M98.8,18.6v-6.1l-5.3-3.1l-5.3,3.1v6.1l5.3,3.1L98.8,18.6z"/>
	
		<linearGradient id="SVGID_00000044877753058610222760000007416514725279389354_" gradientUnits="userSpaceOnUse" x1="93.6238" y1="501.7906" x2="93.6238" y2="497.2157" gradientTransform="matrix(1 0 0 1 0 -484)">
		<stop  offset="0" style="stop-color:#9C3600"/>
		<stop  offset="4.000000e-02" style="stop-color:#A44401"/>
		<stop  offset="0.25" style="stop-color:#CD8909"/>
		<stop  offset="0.4" style="stop-color:#E7B40D"/>
		<stop  offset="0.48" style="stop-color:#F1C40F"/>
		<stop  offset="0.53" style="stop-color:#F2C615"/>
		<stop  offset="0.6" style="stop-color:#F3CC25"/>
		<stop  offset="0.67" style="stop-color:#F7D53F"/>
		<stop  offset="0.75" style="stop-color:#FBE363"/>
		<stop  offset="0.81" style="stop-color:#FFF088"/>
		<stop  offset="1" style="stop-color:#FFF8D6"/>
	</linearGradient>
	<path style="fill:url(#SVGID_00000044877753058610222760000007416514725279389354_);" d="M95.6,16.7v-2.3l-2-1.2l-2,1.2v2.3l2,1.2
		L95.6,16.7z"/>
	<path class="st55" d="M93.6,9.4V5.1l9.1,5.2l-3.8,2.1L93.6,9.4z"/>
	<path class="st56" d="M98.8,18.6v-6.1l3.8-2.1v10.4L98.8,18.6z"/>
	<path class="st57" d="M93.6,21.6v4.3l9.1-5.2l-3.8-2.1L93.6,21.6z"/>
	<path class="st56" d="M88.3,18.6l-3.8,2.1l9.1,5.2v-4.3L88.3,18.6z"/>
	<path class="st55" d="M84.6,10.3l3.8,2.1v6.1l-3.8,2.1C84.6,20.6,84.6,10.3,84.6,10.3z"/>
	<path class="st58" d="M93.6,9.4l-5.3,3.1l-3.8-2.1l9.1-5.2V9.4z"/>
	<path class="st59" d="M102.6,10.3l-4,2l-4.8-2.8L93.6,5l-0.2,4.4l-4.8,2.8l-4-2l3.8,2.1v2.1c0.1-0.7,0.2-1.4,0.2-2l5.1-2.8l5.1,2.8
		c0.1,0.7,0.2,1.4,0.2,2v-2.1h0.1L102.6,10.3z"/>
	<path class="st60" d="M93.6,3.9l0.5,0.3l9,5.2l0.5,0.3v11.6l-0.5,0.3l-9,5.2l-0.5,0.3l-0.5-0.3l-9-5.2l-0.5-0.3V9.7l0.5-0.3l9-5.2
		L93.6,3.9z M93.6,3.4c-0.1,0-0.2,0-0.3,0.1l-0.5,0.3l-9,5.2l-0.5,0.3c-0.1,0.1-0.2,0.2-0.2,0.2C83,9.6,83,9.7,83,9.8v11.6
		c0,0.1,0,0.2,0.1,0.3c0.1,0.1,0.2,0.2,0.2,0.2l0.5,0.3l9,5.2l0.5,0.3c0.1,0.1,0.2,0.1,0.3,0.1c0.1,0,0.2,0,0.3-0.1l0.5-0.3l9.1-5.2
		l0.5-0.3c0.1-0.1,0.2-0.2,0.2-0.2c0.1-0.1,0.1-0.2,0.1-0.3V9.7c0-0.1,0-0.2-0.1-0.3c-0.1-0.1-0.2-0.2-0.2-0.2l-0.5-0.3l-9-5.2
		l-0.6-0.2C93.9,3.4,93.7,3.4,93.6,3.4L93.6,3.4z"/>
	
		<linearGradient id="SVGID_00000122691813098791775740000005909333408977910403_" gradientUnits="userSpaceOnUse" x1="93.6238" y1="511.0641" x2="93.6238" y2="487.9428" gradientTransform="matrix(1 0 0 1 0 -484)">
		<stop  offset="0" style="stop-color:#9C3600"/>
		<stop  offset="4.000000e-02" style="stop-color:#A44401"/>
		<stop  offset="0.25" style="stop-color:#CD8909"/>
		<stop  offset="0.4" style="stop-color:#E7B40D"/>
		<stop  offset="0.48" style="stop-color:#F1C40F"/>
		<stop  offset="0.53" style="stop-color:#F2C615"/>
		<stop  offset="0.6" style="stop-color:#F3CC25"/>
		<stop  offset="0.67" style="stop-color:#F7D53F"/>
		<stop  offset="0.75" style="stop-color:#FBE363"/>
		<stop  offset="0.81" style="stop-color:#FFF088"/>
		<stop  offset="1" style="stop-color:#FFF8D6"/>
	</linearGradient>
	<path style="fill:url(#SVGID_00000122691813098791775740000005909333408977910403_);" d="M103.1,9.4l-9-5.2l-0.5-0.3l-0.5,0.3
		l-9,5.2l-0.5,0.3v11.6l0.5,0.3l9,5.2l0.5,0.3l0.5-0.3l9-5.2l0.5-0.3V9.7L103.1,9.4z M93.6,23.7l-1.3,1.5l-6.4-3.8l0.7-1.8l-1.9-0.4
		v-7.4l1.9-0.4l-0.7-1.8l6.4-3.8l1.3,1.5l1.3-1.5l6.4,3.8l-0.7,1.8l1.9,0.4v7.4l-1.9,0.4l0.7,1.8l-6.4,3.8L93.6,23.7z"/>
	<path class="st60" d="M102.6,11.7l-1.9-0.4l0.7-1.8l-6.4-3.8l-1.3,1.5l-1.3-1.5l-6.4,3.8l0.7,1.8l-1.9,0.4v7.4l1.9,0.4l-0.7,1.8
		l6.4,3.8l1.3-1.5l1.3,1.5l6.4-3.8l-0.7-1.8l1.9-0.4V11.7z M95,6.4l5.9,3.4l-0.5,1.5c0,0.1,0,0.1,0,0.2L95.8,14l-2-1.2V7.7
		c0.1,0,0.1-0.1,0.1-0.1L95,6.4z M93.6,17.8l-2-1.2v-2.3l2-1.2l2,1.2v2.3L93.6,17.8z M92.2,6.4l1.1,1.2l0.1,0.1v5.2l-2,1.2l-4.5-2.6
		c0-0.1,0-0.1,0-0.2l-0.5-1.5L92.2,6.4z M85,12.1l1.6-0.3c0.1,0,0.1,0,0.2-0.1l4.5,2.6v2.3l-4.5,2.6c-0.1,0-0.1-0.1-0.2-0.1L85,18.9
		V12.1z M92.2,24.6l-5.9-3.4l0.5-1.5c0-0.1,0-0.1,0-0.2l4.5-2.6l2,1.2v5.2c-0.1,0-0.1,0.1-0.1,0.1L92.2,24.6z M100.8,21.3l-5.9,3.4
		l-1.1-1.2l-0.1-0.1v-5.2l2-1.2l4.5,2.6c0,0.1,0,0.1,0,0.2L100.8,21.3z M102.2,18.9l-1.6,0.3c-0.1,0-0.1,0-0.2,0.1l-4.5-2.6v-2.3
		l4.5-2.6c0.1,0,0.1,0.1,0.2,0.1l1.6,0.3V18.9z"/>
	<path class="st53" d="M102.6,20.4V10.1l-9-5.2l-9.1,5.2v10.4l9.1,5.2L102.6,20.4z"/>
	<path class="st53" d="M98.8,18.3v-6.1l-5.3-3.1l-5.3,3.1v6.1l5.3,3.1L98.8,18.3z"/>
	
		<linearGradient id="SVGID_00000155124444581517487450000003425359360503538067_" gradientUnits="userSpaceOnUse" x1="93.6238" y1="501.5298" x2="93.6238" y2="496.9548" gradientTransform="matrix(1 0 0 1 0 -484)">
		<stop  offset="0" style="stop-color:#686868"/>
		<stop  offset="4.000000e-02" style="stop-color:#5D5D5D"/>
		<stop  offset="0.25" style="stop-color:#8B8B8B"/>
		<stop  offset="0.4" style="stop-color:#8D8D8D"/>
		<stop  offset="0.48" style="stop-color:#A0A0A0"/>
		<stop  offset="0.53" style="stop-color:#C0C0C0"/>
		<stop  offset="0.6" style="stop-color:#ABABAB"/>
		<stop  offset="0.67" style="stop-color:#BDBDBD"/>
		<stop  offset="0.75" style="stop-color:#C2C2C2"/>
		<stop  offset="0.81" style="stop-color:#D8D8D8"/>
		<stop  offset="1" style="stop-color:#FFFFFF"/>
	</linearGradient>
	<path style="fill:url(#SVGID_00000155124444581517487450000003425359360503538067_);" d="M95.6,16.4v-2.3l-2-1.2l-2,1.2v2.3l2,1.2
		L95.6,16.4z"/>
	<path class="st55" d="M93.6,9.1V4.8l9.1,5.2l-3.8,2.1L93.6,9.1z"/>
	<path class="st56" d="M98.8,18.3v-6.1l3.8-2.1v10.4L98.8,18.3z"/>
	<path class="st57" d="M93.6,21.3v4.3l9.1-5.2l-3.8-2.1L93.6,21.3z"/>
	<path class="st56" d="M88.3,18.3l-3.8,2.1l9.1,5.2v-4.3L88.3,18.3z"/>
	<path class="st55" d="M84.6,10.1l3.8,2.1v6.1l-3.8,2.1C84.6,20.4,84.6,10.1,84.6,10.1z"/>
	<path class="st58" d="M93.6,9.1l-5.3,3.1l-3.8-2.1l9.1-5.2V9.1z"/>
	<path class="st59" d="M102.6,10.1l-4,2l-4.8-2.8l-0.2-4.4l-0.2,4.4L88.6,12l-4-2l3.8,2.1v2.1c0.1-0.7,0.2-1.4,0.2-2l5.1-2.8
		l5.1,2.8c0.1,0.7,0.2,1.4,0.2,2v-2.1h0.1L102.6,10.1z"/>
	<path class="st63" d="M93.6,3.7L94.2,4l9,5.2l0.5,0.3v11.6l-0.5,0.3l-9,5.2l-0.5,0.3l-0.5-0.3l-9-5.2l-0.5-0.3V9.4l0.5-0.3l9-5.2
		L93.6,3.7z M93.6,3.1c-0.1,0-0.2,0-0.3,0.1l-0.5,0.3l-9,5.2L83.3,9c-0.1,0.1-0.2,0.2-0.2,0.2C83,9.3,83,9.4,83,9.5v11.6
		c0,0.1,0,0.2,0.1,0.3c0.1,0.1,0.2,0.2,0.2,0.2l0.5,0.3l9,5.2l0.5,0.3c0.1,0.1,0.2,0.1,0.3,0.1c0.1,0,0.2,0,0.3-0.1l0.5-0.3l9.1-5.2
		l0.5-0.3c0.1-0.1,0.2-0.2,0.2-0.2c0.1-0.1,0.1-0.2,0.1-0.3V9.4c0-0.1,0-0.2-0.1-0.3c-0.1-0.1-0.2-0.2-0.2-0.2l-0.5-0.3l-9-5.2
		l-0.6-0.2C93.9,3.1,93.7,3.1,93.6,3.1L93.6,3.1z"/>
	
		<linearGradient id="SVGID_00000006676280988730878620000005542824077693332911_" gradientUnits="userSpaceOnUse" x1="93.6238" y1="510.8032" x2="93.6238" y2="487.6819" gradientTransform="matrix(1 0 0 1 0 -484)">
		<stop  offset="0" style="stop-color:#686868"/>
		<stop  offset="4.000000e-02" style="stop-color:#5D5D5D"/>
		<stop  offset="0.25" style="stop-color:#8B8B8B"/>
		<stop  offset="0.4" style="stop-color:#8D8D8D"/>
		<stop  offset="0.48" style="stop-color:#A0A0A0"/>
		<stop  offset="0.53" style="stop-color:#C0C0C0"/>
		<stop  offset="0.6" style="stop-color:#ABABAB"/>
		<stop  offset="0.67" style="stop-color:#BDBDBD"/>
		<stop  offset="0.75" style="stop-color:#C2C2C2"/>
		<stop  offset="0.81" style="stop-color:#D8D8D8"/>
		<stop  offset="1" style="stop-color:#FFFFFF"/>
	</linearGradient>
	<path style="fill:url(#SVGID_00000006676280988730878620000005542824077693332911_);" d="M103.1,9.2l-9-5.2l-0.5-0.3L93.1,4l-9,5.2
		l-0.5,0.3v11.6l0.5,0.3l9,5.2l0.5,0.3l0.5-0.3l9-5.2l0.5-0.3V9.4L103.1,9.2z M93.6,23.4l-1.3,1.5l-6.4-3.8l0.7-1.8L84.6,19v-7.4
		l1.9-0.4l-0.7-1.8l6.4-3.8l1.3,1.5l1.3-1.5l6.4,3.8l-0.7,1.8l1.9,0.4V19l-1.9,0.4l0.7,1.8l-6.4,3.8L93.6,23.4z"/>
	<path class="st63" d="M102.6,11.5l-1.9-0.4l0.7-1.8l-6.4-3.8l-1.3,1.5l-1.3-1.5l-6.4,3.8l0.7,1.8l-1.9,0.4V19l1.9,0.4l-0.7,1.8
		l6.4,3.8l1.3-1.5l1.3,1.5l6.4-3.8l-0.7-1.8l1.9-0.4V11.5z M95,6.1l5.9,3.4l-0.5,1.5c0,0.1,0,0.1,0,0.2l-4.5,2.6l-2-1.2V7.4
		c0.1,0,0.1-0.1,0.1-0.1L95,6.1z M93.6,17.5l-2-1.2V14l2-1.2l2,1.2v2.3L93.6,17.5z M92.2,6.1l1.1,1.2l0.1,0.1v5.2l-2,1.2l-4.5-2.6
		c0-0.1,0-0.1,0-0.2l-0.5-1.5L92.2,6.1z M85,11.8l1.6-0.3c0.1,0,0.1,0,0.2-0.1l4.5,2.6v2.3L86.8,19c-0.1,0-0.1-0.1-0.2-0.1L85,18.6
		V11.8z M92.2,24.4L86.3,21l0.5-1.5c0-0.1,0-0.1,0-0.2l4.5-2.6l2,1.2v5.2c-0.1,0-0.1,0.1-0.1,0.1L92.2,24.4z M100.8,21l-5.9,3.4
		l-1.1-1.2l-0.1-0.1v-5.2l2-1.2l4.5,2.6c0,0.1,0,0.1,0,0.2L100.8,21z M102.2,18.6l-1.6,0.3c-0.1,0-0.1,0-0.2,0.1l-4.5-2.6v-2.3
		l4.5-2.6c0.1,0,0.1,0.1,0.2,0.1l1.6,0.3V18.6z"/>
</g>
</svg>
