<?xml version="1.0" encoding="utf-8"?>
<!-- Generator: Adobe Illustrator 27.1.1, SVG Export Plug-In . SVG Version: 6.00 Build 0)  -->
<svg version="1.1" id="Слой_1" xmlns="http://www.w3.org/2000/svg" xmlns:xlink="http://www.w3.org/1999/xlink" x="0px" y="0px"
	 viewBox="0 0 108 108" style="enable-background:new 0 0 108 108;" xml:space="preserve">
<style type="text/css">
	.st0{fill-rule:evenodd;clip-rule:evenodd;fill:#E3E3E3;}
	.st1{fill-rule:evenodd;clip-rule:evenodd;fill:#FFFFFF;filter:url(#Adobe_OpacityMaskFilter);}
	.st2{mask:url(#path-2-inside-1_129_11564_00000137128640450597883500000012398019325630210713_);fill:#393931;}
	.st3{fill:#66FECB;}
	.st4{fill:url(#SVGID_1_);}
	.st5{fill:#5EDEB3;}
	.st6{fill:#01B478;}
	.st7{fill:#1DCE92;}
	.st8{fill:#2AFFB7;}
	.st9{fill:#FFFFFF;}
	.st10{fill:#441F00;}
	.st11{fill:url(#SVGID_00000123404693652013253890000013610607931207302027_);}
	.st12{fill:url(#SVGID_00000026850592941701459670000000125332353189933995_);}
	.st13{fill:#434343;}
	.st14{fill:url(#SVGID_00000110450452494187419470000004532425068332594304_);}
	.st15{fill:#413E76;}
	.st16{fill:none;stroke:#000000;stroke-width:1.176;stroke-linejoin:round;}
	.st17{fill:#98A5C5;stroke:#000000;stroke-width:1.176;stroke-linejoin:round;}
	.st18{fill:#030015;stroke:#000000;stroke-width:1.176;stroke-linejoin:round;}
	.st19{fill:#413E76;stroke:#000000;stroke-width:1.176;stroke-linejoin:round;}
	.st20{fill:#246282;stroke:#000000;stroke-width:1.176;stroke-linejoin:round;}
	.st21{fill:#342664;stroke:#000000;stroke-width:1.176;stroke-linejoin:round;}
	.st22{fill:#130B30;stroke:#000000;stroke-width:1.176;stroke-linejoin:round;}
	.st23{fill:#170F3E;stroke:#000000;stroke-width:1.176;stroke-linejoin:round;}
	
		.st24{fill:url(#SVGID_00000042700322823011787920000005148924074710282130_);stroke:#000000;stroke-width:1.176;stroke-linejoin:round;}
	.st25{fill:#33A6AA;stroke:#000000;stroke-width:1.176;stroke-linejoin:round;}
	.st26{fill:#3DC2D7;stroke:#000000;stroke-width:1.176;stroke-linejoin:round;}
	.st27{fill:#065655;stroke:#000000;stroke-width:1.176;stroke-linejoin:round;}
	.st28{fill:#E6EDE9;stroke:#000000;stroke-width:1.176;stroke-linejoin:round;}
	.st29{fill:#0E7872;stroke:#000000;stroke-width:1.176;stroke-linejoin:round;}
	.st30{fill:#278D95;stroke:#000000;stroke-width:1.176;stroke-linejoin:round;}
	.st31{fill:#97D5B1;stroke:#000000;stroke-width:1.176;stroke-linejoin:round;}
	.st32{fill:#098F75;stroke:#000000;stroke-width:1.176;stroke-linejoin:round;}
	
		.st33{fill:url(#SVGID_00000120527777764538463290000016997363014445290133_);stroke:#000000;stroke-width:1.176;stroke-linejoin:round;}
	
		.st34{fill:url(#SVGID_00000158718621513386469790000013749891193299232417_);stroke:#000000;stroke-width:1.176;stroke-linejoin:round;}
	
		.st35{fill:url(#SVGID_00000137098847811441203100000011469705862725526679_);stroke:#000000;stroke-width:1.176;stroke-linejoin:round;}
	.st36{fill:#98A5C5;}
	.st37{fill:#030015;}
	.st38{fill:#246282;}
	.st39{fill:#342664;}
	.st40{fill:#130B30;}
	.st41{fill:#170F3E;}
	.st42{fill:url(#SVGID_00000016051194487311555550000015653435246096566150_);}
	.st43{fill:#33A6AA;}
	.st44{fill:#3DC2D7;}
	.st45{fill:#065655;}
	.st46{fill:#E6EDE9;}
	.st47{fill:#0E7872;}
	.st48{fill:#278D95;}
	.st49{fill:#97D5B1;}
	.st50{fill:#098F75;}
	.st51{fill:url(#SVGID_00000068665740424049142940000018375664325072022664_);}
	.st52{fill:url(#SVGID_00000021810414840916185870000016502999357107599494_);}
	.st53{fill:url(#SVGID_00000174585108469796607710000002059498624735753092_);}
</style>
<path class="st0" d="M76,12c0-6.6-5.4-12-12-12H12C5.4,0,0,5.4,0,12v84c0,6.6,5.4,12,12,12h84c6.6,0,12-5.4,12-12V44
	c0-6.6-5.4-12-12-12h-8c-6.6,0-12-5.4-12-12V12z"/>
<defs>
	<filter id="Adobe_OpacityMaskFilter" filterUnits="userSpaceOnUse" x="-1" y="-1" width="110" height="110">
		<feColorMatrix  type="matrix" values="1 0 0 0 0  0 1 0 0 0  0 0 1 0 0  0 0 0 1 0"/>
	</filter>
</defs>
<mask maskUnits="userSpaceOnUse" x="-1" y="-1" width="110" height="110" id="path-2-inside-1_129_11564_00000137128640450597883500000012398019325630210713_">
	<path class="st1" d="M76,12c0-6.6-5.4-12-12-12H12C5.4,0,0,5.4,0,12v84c0,6.6,5.4,12,12,12h84c6.6,0,12-5.4,12-12V44
		c0-6.6-5.4-12-12-12h-8c-6.6,0-12-5.4-12-12V12z"/>
</mask>
<path class="st2" d="M12,1h52v-2H12V1z M1,96V12h-2v84H1z M96,107H12v2h84V107z M107,44v52h2V44H107z M96,31h-8v2h8V31z M77,20v-8
	h-2v8H77z M88,31c-6.1,0-11-4.9-11-11h-2c0,7.2,5.8,13,13,13V31z M109,44c0-7.2-5.8-13-13-13v2c6.1,0,11,4.9,11,11H109z M96,109
	c7.2,0,13-5.8,13-13h-2c0,6.1-4.9,11-11,11V109z M-1,96c0,7.2,5.8,13,13,13v-2c-6.1,0-11-4.9-11-11H-1z M64,1c6.1,0,11,4.9,11,11h2
	c0-7.2-5.8-13-13-13V1z M12-1C4.8-1-1,4.8-1,12h2C1,5.9,5.9,1,12,1V-1z"/>
<g>
	<path class="st3" d="M102.5,20.6V10.2l-9-5.2l-9.1,5.2v10.5l9.1,5.2L102.5,20.6z"/>
	<path class="st3" d="M98.8,18.5v-6.1l-5.3-3.1l-5.3,3.1v6.1l5.3,3.1L98.8,18.5z"/>
	
		<linearGradient id="SVGID_1_" gradientUnits="userSpaceOnUse" x1="93.4792" y1="503.6997" x2="93.4792" y2="499.1154" gradientTransform="matrix(1 0 0 1 0 -486)">
		<stop  offset="0" style="stop-color:#9C3600"/>
		<stop  offset="4.000000e-02" style="stop-color:#A44401"/>
		<stop  offset="0.25" style="stop-color:#CD8909"/>
		<stop  offset="0.4" style="stop-color:#E7B40D"/>
		<stop  offset="0.48" style="stop-color:#F1C40F"/>
		<stop  offset="0.53" style="stop-color:#F2C615"/>
		<stop  offset="0.6" style="stop-color:#F3CC25"/>
		<stop  offset="0.67" style="stop-color:#F7D53F"/>
		<stop  offset="0.75" style="stop-color:#FBE363"/>
		<stop  offset="0.81" style="stop-color:#FFF088"/>
		<stop  offset="1" style="stop-color:#FFF8D6"/>
	</linearGradient>
	<path class="st4" d="M95.5,16.6v-2.3l-2-1.2l-2,1.2v2.3l2,1.2L95.5,16.6z"/>
	<path class="st5" d="M93.5,9.3V5l9.1,5.2l-3.8,2.2L93.5,9.3z"/>
	<path class="st6" d="M98.8,18.5v-6.1l3.8-2.2v10.4L98.8,18.5z"/>
	<path class="st7" d="M93.5,21.5v4.3l9.1-5.2l-3.8-2.2L93.5,21.5z"/>
	<path class="st6" d="M88.3,18.5l-3.8,2.2l9.1,5.2v-4.3L88.3,18.5z"/>
	<path class="st5" d="M84.5,10.2l3.8,2.2v6.1l-3.8,2.2V10.2z"/>
	<path class="st8" d="M93.5,9.3l-5.3,3.1l-3.8-2.2L93.5,5V9.3z"/>
	<path class="st9" d="M102.5,10.2l-4,2l-4.8-2.8l-0.2-4.5l-0.2,4.5l-4.8,2.8l-4-2l3.8,2.2v2.2c0.1-0.7,0.2-1.4,0.2-2l5.1-2.8
		l5.1,2.8c0.1,0.7,0.2,1.4,0.2,2v-2.2H99L102.5,10.2z"/>
	<path class="st10" d="M93.5,3.8L94,4.1l9,5.2l0.5,0.3v11.6l-0.5,0.3l-9,5.2l-0.5,0.3l-0.5-0.3l-9-5.2l-0.5-0.3V9.6l0.5-0.3l9-5.2
		L93.5,3.8z M93.5,3.2c-0.1,0-0.2,0-0.3,0.1l-0.5,0.3l-9,5.2l-0.5,0.3c-0.1,0.1-0.2,0.2-0.2,0.2c-0.1,0.1-0.1,0.2-0.1,0.3v11.6
		c0,0.1,0,0.2,0.1,0.3c0.1,0.1,0.2,0.2,0.2,0.2l0.5,0.3l9,5.2l0.5,0.3c0.1,0.1,0.2,0.1,0.3,0.1c0.1,0,0.2,0,0.3-0.1l0.5-0.3l9.1-5.2
		l0.5-0.3c0.1-0.1,0.2-0.2,0.2-0.2c0.1-0.1,0.1-0.2,0.1-0.3V9.6c0-0.1,0-0.2-0.1-0.3c-0.1-0.1-0.2-0.2-0.2-0.2l-0.5-0.3l-9-5.2
		l-0.5-0.3C93.7,3.3,93.6,3.3,93.5,3.2L93.5,3.2z"/>
	
		<linearGradient id="SVGID_00000110470264155731984180000012744829226518852509_" gradientUnits="userSpaceOnUse" x1="93.4793" y1="512.9924" x2="93.4793" y2="489.8232" gradientTransform="matrix(1 0 0 1 0 -486)">
		<stop  offset="0" style="stop-color:#9C3600"/>
		<stop  offset="4.000000e-02" style="stop-color:#A44401"/>
		<stop  offset="0.25" style="stop-color:#CD8909"/>
		<stop  offset="0.4" style="stop-color:#E7B40D"/>
		<stop  offset="0.48" style="stop-color:#F1C40F"/>
		<stop  offset="0.53" style="stop-color:#F2C615"/>
		<stop  offset="0.6" style="stop-color:#F3CC25"/>
		<stop  offset="0.67" style="stop-color:#F7D53F"/>
		<stop  offset="0.75" style="stop-color:#FBE363"/>
		<stop  offset="0.81" style="stop-color:#FFF088"/>
		<stop  offset="1" style="stop-color:#FFF8D6"/>
	</linearGradient>
	<path style="fill:url(#SVGID_00000110470264155731984180000012744829226518852509_);" d="M103,9.3l-9-5.2l-0.5-0.3l-0.5,0.3l-9,5.2
		l-0.5,0.3v11.6l0.5,0.3l9,5.2l0.5,0.3l0.5-0.3l9-5.2l0.5-0.3V9.6L103,9.3z M93.5,23.6l-1.3,1.5l-6.5-3.8l0.7-1.8l-1.9-0.4v-7.5
		l1.9-0.4l-0.7-1.8l6.5-3.8l1.3,1.5l1.3-1.5l6.5,3.8l-0.7,1.8l1.9,0.4v7.5l-1.9,0.4l0.7,1.8l-6.5,3.8L93.5,23.6z"/>
	<path class="st10" d="M102.5,11.6l-1.9-0.4l0.7-1.8l-6.5-3.8l-1.3,1.5l-1.3-1.5l-6.5,3.8l0.7,1.8l-1.9,0.4v7.5l1.9,0.4l-0.7,1.8
		l6.5,3.8l1.3-1.5l1.3,1.5l6.5-3.8l-0.7-1.8l1.9-0.4V11.6z M94.9,6.3l5.9,3.4l-0.5,1.5c0,0.1,0,0.1,0,0.2l-4.5,2.6l-2-1.2V7.6
		c0.1,0,0.1-0.1,0.1-0.1L94.9,6.3z M93.5,17.7l-2-1.2v-2.3l2-1.2l2,1.2v2.3L93.5,17.7z M92.2,6.3l1.1,1.2l0.1,0.1v5.2l-2,1.2
		l-4.5-2.6c0-0.1,0-0.1,0-0.2l-0.5-1.5L92.2,6.3z M84.9,12l1.6-0.3c0.1,0,0.1,0,0.2-0.1l4.5,2.6v2.3l-4.5,2.6
		c-0.1,0-0.1-0.1-0.2-0.1l-1.6-0.3V12z M92.2,24.6l-5.9-3.4l0.5-1.5c0-0.1,0-0.1,0-0.2l4.5-2.6l2,1.2v5.2c-0.1,0-0.1,0.1-0.1,0.1
		L92.2,24.6z M100.8,21.2l-5.9,3.4l-1.1-1.2l-0.1-0.1V18l2-1.2l4.5,2.6c0,0.1,0,0.1,0,0.2L100.8,21.2z M102.2,18.8l-1.6,0.3
		c-0.1,0-0.1,0-0.2,0.1l-4.5-2.6v-2.3l4.5-2.6c0.1,0,0.1,0.1,0.2,0.1l1.6,0.3V18.8z"/>
	<path class="st3" d="M102.3,20.3V9.9l-9-5.2l-9.1,5.2v10.5l9.1,5.2L102.3,20.3z"/>
	<path class="st3" d="M98.6,18.2v-6.1L93.2,9l-5.3,3.1v6.1l5.3,3.1L98.6,18.2z"/>
	
		<linearGradient id="SVGID_00000020386372724124321080000007964577647918631060_" gradientUnits="userSpaceOnUse" x1="93.3255" y1="503.4385" x2="93.3255" y2="498.8541" gradientTransform="matrix(1 0 0 1 0 -486)">
		<stop  offset="0" style="stop-color:#686868"/>
		<stop  offset="4.000000e-02" style="stop-color:#5D5D5D"/>
		<stop  offset="0.25" style="stop-color:#8B8B8B"/>
		<stop  offset="0.4" style="stop-color:#8D8D8D"/>
		<stop  offset="0.48" style="stop-color:#A0A0A0"/>
		<stop  offset="0.53" style="stop-color:#C0C0C0"/>
		<stop  offset="0.6" style="stop-color:#ABABAB"/>
		<stop  offset="0.67" style="stop-color:#BDBDBD"/>
		<stop  offset="0.75" style="stop-color:#C2C2C2"/>
		<stop  offset="0.81" style="stop-color:#D8D8D8"/>
		<stop  offset="1" style="stop-color:#FFFFFF"/>
	</linearGradient>
	<path style="fill:url(#SVGID_00000020386372724124321080000007964577647918631060_);" d="M95.3,16.3V14l-2-1.2l-2,1.2v2.3l2,1.2
		L95.3,16.3z"/>
	<path class="st5" d="M93.3,9V4.7l9.1,5.2l-3.8,2.2L93.3,9z"/>
	<path class="st6" d="M98.6,18.2v-6.1l3.8-2.2v10.5L98.6,18.2z"/>
	<path class="st7" d="M93.3,21.2v4.3l9.1-5.2l-3.8-2.2L93.3,21.2z"/>
	<path class="st6" d="M88,18.2l-3.8,2.2l9.1,5.2v-4.3L88,18.2z"/>
	<path class="st5" d="M84.3,9.9l3.8,2.2v6.1l-3.8,2.2C84.3,20.3,84.3,9.9,84.3,9.9z"/>
	<path class="st8" d="M93.3,9L88,12.1l-3.8-2.2l9.1-5.2V9z"/>
	<path class="st9" d="M102.3,9.9l-4,2l-4.8-2.8l-0.2-4.5l-0.2,4.5l-4.8,2.8l-4-2l3.8,2.2v2.2c0.1-0.7,0.2-1.4,0.2-2l5.1-2.8l5.1,2.8
		c0.1,0.7,0.2,1.4,0.2,2v-2.2h0.1L102.3,9.9z"/>
	<path class="st13" d="M93.3,3.6l0.5,0.3l9,5.2l0.5,0.3V21l-0.5,0.3l-9,5.2l-0.5,0.3l-0.5-0.3l-9-5.2L83.3,21V9.3L83.8,9l9-5.2
		L93.3,3.6z M93.3,3C93.2,3,93.1,3,93,3l-0.5,0.3l-9,5.2l-0.5,0.3c-0.1,0.1-0.2,0.2-0.2,0.2c-0.1,0.1-0.1,0.2-0.1,0.3V21
		c0,0.1,0,0.2,0.1,0.3s0.2,0.2,0.2,0.2l0.5,0.3l9,5.2l0.5,0.3c0.1,0.1,0.2,0.1,0.3,0.1c0.1,0,0.2,0,0.3-0.1l0.5-0.3l9.1-5.2l0.5-0.3
		c0.1-0.1,0.2-0.2,0.2-0.2s0.1-0.2,0.1-0.3V9.3c0-0.1,0-0.2-0.1-0.3s-0.2-0.2-0.2-0.2l-0.5-0.3l-9-5.2L93.6,3C93.6,3,93.4,3,93.3,3
		L93.3,3z"/>
	
		<linearGradient id="SVGID_00000068642323930195756780000008657095546986543028_" gradientUnits="userSpaceOnUse" x1="93.3255" y1="512.7311" x2="93.3255" y2="489.5619" gradientTransform="matrix(1 0 0 1 0 -486)">
		<stop  offset="0" style="stop-color:#686868"/>
		<stop  offset="4.000000e-02" style="stop-color:#5D5D5D"/>
		<stop  offset="0.25" style="stop-color:#8B8B8B"/>
		<stop  offset="0.4" style="stop-color:#8D8D8D"/>
		<stop  offset="0.48" style="stop-color:#A0A0A0"/>
		<stop  offset="0.53" style="stop-color:#C0C0C0"/>
		<stop  offset="0.6" style="stop-color:#ABABAB"/>
		<stop  offset="0.67" style="stop-color:#BDBDBD"/>
		<stop  offset="0.75" style="stop-color:#C2C2C2"/>
		<stop  offset="0.81" style="stop-color:#D8D8D8"/>
		<stop  offset="1" style="stop-color:#FFFFFF"/>
	</linearGradient>
	<path style="fill:url(#SVGID_00000068642323930195756780000008657095546986543028_);" d="M102.9,9.1l-9-5.2l-0.5-0.3l-0.5,0.3
		l-9,5.2l-0.5,0.3V21l0.5,0.3l9,5.2l0.5,0.3l0.5-0.3l9-5.2l0.5-0.3V9.3L102.9,9.1z M93.3,23.3L92,24.9l-6.5-3.8l0.7-1.8l-1.9-0.4
		v-7.5l1.9-0.4l-0.7-1.8L92,5.4L93.3,7l1.3-1.5l6.5,3.8l-0.7,1.8l1.9,0.4v7.5l-1.9,0.4l0.7,1.8l-6.5,3.8L93.3,23.3z"/>
	<path class="st13" d="M102.3,11.4l-1.9-0.4l0.7-1.8l-6.5-3.8L93.3,7L92,5.4l-6.5,3.8l0.7,1.8l-1.9,0.4v7.5l1.9,0.4l-0.7,1.8
		l6.5,3.8l1.3-1.5l1.3,1.5l6.5-3.8l-0.7-1.8l1.9-0.4V11.4z M94.7,6l5.9,3.4l-0.5,1.5c0,0.1,0,0.1,0,0.2l-4.5,2.6l-2-1.2V7.3
		c0.1,0,0.1-0.1,0.1-0.1L94.7,6z M93.3,17.4l-2-1.2v-2.3l2-1.2l2,1.2v2.3L93.3,17.4z M91.9,6L93,7.2l0.1,0.1v5.2l-2,1.2L86.6,11
		c0-0.1,0-0.1,0-0.2L86,9.3L91.9,6z M84.7,11.7l1.6-0.3c0.1,0,0.1,0,0.2-0.1l4.5,2.6v2.3l-4.5,2.6c-0.1,0-0.1-0.1-0.2-0.1l-1.6-0.3
		V11.7z M91.9,24.3L86,20.9l0.5-1.5c0-0.1,0-0.1,0-0.2l4.5-2.6l2,1.2V23C93,23,93,23.1,93,23.1L91.9,24.3z M100.6,20.9l-5.9,3.4
		l-1.1-1.2L93.5,23v-5.2l2-1.2l4.5,2.6c0,0.1,0,0.1,0,0.2L100.6,20.9z M101.9,18.6l-1.6,0.3c-0.1,0-0.1,0-0.2,0.1l-4.5-2.6V14
		l4.5-2.6c0.1,0,0.1,0.1,0.2,0.1l1.6,0.3V18.6z"/>
</g>
<g>
	<path class="st15" d="M18.2,79.5l65.2-1.8l-1.4,3.7c-0.1,0.2-0.4,0.9-0.4,1.1c-0.1,0.1-0.5,0-0.7,0h-2.7H68.1l-46.4,0.1L18.2,79.5
		C18.4,80,17.9,79,18.2,79.5z"/>
	<path class="st16" d="M18.2,79.5l65.2-1.8l-1.4,3.7c-0.1,0.2-0.4,0.9-0.4,1.1c-0.1,0.1-0.5,0-0.7,0h-2.7H68.1l-46.4,0.1L18.2,79.5z
		 M18.2,79.5C17.9,79,18.4,80,18.2,79.5z"/>
	<path class="st17" d="M29.4,37.8v-3.4l0.9,1.8v0.1v2.5v4.7v13.7v3.4c0,0.6,0,1.2,0,1.8h-0.9v0.1l-0.1,0.1c-0.1-0.6,0-1.3,0-2v-3.8
		V43.3c0.1-0.7,0-1.5,0-2.2v-4.5v-0.9c0-0.2,0-0.4,0-0.6v1.8C29.4,37.2,29.4,37.6,29.4,37.8L29.4,37.8z"/>
	<path class="st18" d="M29.4,43.4c0.1-0.7,0-1.5,0-2.2v-4.5v-0.9c0-0.2,0-0.4,0-0.6V37c0,0.2,0,0.5,0,0.7v0.1v24.6v0.1l-0.1,0.1
		c-0.1-0.6,0-1.3,0-2v-3.8L29.4,43.4z"/>
	<path class="st19" d="M73.5,34.6v27.4h-1.3c-0.1,0-0.1,0-0.1,0V42.7v-4.6V37c0-0.1,0-0.4,0-0.5c0-0.1,0.4-0.4,0.4-0.5L73.5,34.6z"
		/>
	<path class="st20" d="M51.5,33.8h22c-0.2,0.4-0.5,0.6-0.7,0.9l-0.9,1.4H54.7h-5.2h-1.4c-0.2,0-0.6,0-0.8,0c0.5,0,0.9,0,1.4,0h2.8
		v-0.7c0.4,0,0.8,0.1,1.1-0.1c0-0.1,0.1-0.1,0.1-0.2c0-0.2,0-0.4-0.1-0.5c-0.2-0.1-0.8,0-1.1,0V33.8z"/>
	<path class="st17" d="M29.7,33.8h21.8l0,0v0.7c0.4,0,0.8-0.1,1.1,0c0.1,0.1,0.1,0.2,0.1,0.5c0,0.1,0,0.1-0.1,0.2
		c-0.2,0.1-0.8,0.1-1.1,0.1V36h-2.8c-0.5,0-0.9,0-1.4,0H30.7L29.7,33.8L29.7,33.8z"/>
	<path class="st18" d="M51.5,34.5c0.4,0,0.8-0.1,1.1,0c0.1,0.1,0.1,0.2,0.1,0.5c0,0.1,0,0.1-0.1,0.2c-0.2,0.1-0.8,0.1-1.1,0.1
		c-0.2,0-1.1,0.1-1.3-0.1c-0.1-0.1-0.1-0.1-0.1-0.2c0-0.2,0-0.4,0.1-0.5C50.6,34.4,51.2,34.5,51.5,34.5z"/>
	<path class="st21" d="M50.5,34.8L50.5,34.8c0.2-0.1,1.9-0.1,2,0c0,0.1,0,0.1,0,0.2c-0.2,0-0.6,0-0.9,0s-0.8,0-1.2,0
		C50.3,35.1,50.5,35,50.5,34.8z"/>
	<path class="st22" d="M57.6,32.4h11.6h3.2c0.5,0,0.9,0,1.4,0c0.2,0,0.4,0.1,0.5,0.4c0.1,0.1,0.2,0.4,0.4,0.5v20.7v6.5v1.8
		c0,0.2,0,0.6,0,0.8c0,0.1,0,0.2-0.1,0.4l-0.6-0.1c-0.1,0-0.4,0-0.6,0c0,0.1,0,0.2,0,0.4c-0.1-0.4,0.1-0.9-0.1-1.3h-0.1l0.5-0.1
		V33.6h-2.9H58.3h-4.8h-1.4c-0.2,0-0.6,0-0.8,0h-0.1v-1.2L57.6,32.4L57.6,32.4z"/>
	<path class="st19" d="M47.9,62.1h-17V36.5h20.8v1.3h-1.9h-12h-3.6c-0.7,0-1.3-0.1-2,0v22.6h14.3l0,0c1.1,0.1,2.2,0,3.3,0
		c0.4,0,0.8-0.1,1.1,0v1.6h-1.9C48.6,61.9,48.2,61.9,47.9,62.1z"/>
	<path class="st23" d="M51.5,36.5h16.3h3.1c0.2,0,0.7,0,0.9,0v25.6h-17H51h-2.2c-0.4,0-0.7,0-1.1,0c0.4,0,0.7,0,1.1,0h1.9v-1.6
		c-0.2-0.1-0.8,0-1.1,0c-1.1,0-2.2,0-3.3,0l0,0c0.2,0,0.6,0,0.9,0h1.5h4.6h17.1V37.9H49.8l0,0h1.9L51.5,36.5z"/>
	<path class="st21" d="M28.7,32.6c0.1-0.1,0.4-0.2,0.6-0.2c0.4,0,0.8,0,1.3,0h2.7h9.7h14.7l0,0h-6.1v1.2h0.1h0.4c-0.1,0-0.2,0-0.5,0
		c-0.1,0-0.4,0-0.6,0h-1.2c-0.4,0-0.6,0-0.9,0.1h1.6c0.2,0,0.6,0,0.8,0h0.7l0,0c-0.1,0-0.4,0-0.6,0H29.7h-0.1c0,0,0-0.1-0.1-0.1
		h-0.1c-0.1,0.2,0,0.5,0,0.7v1.3v5.1v1.9c0,0.4,0,0.7,0,0.9v13.4v3.8c0,0.6-0.1,1.4,0,2c0,0.2,0.1,0.6,0.1,0.9l-0.1,0.2L29,64.4
		c-0.7,1.1-1.5,2.2-2.1,3.4c-0.2,0.5-0.6,0.8-0.8,1.3L23,74l-2.1,3.3l-0.7,1.1c-0.1,0.1-0.2,0.4-0.4,0.5c0,0.1,0,0.4,0.1,0.5v0.2
		c0.1,0,0.1,0.1,0.2,0.1v0.1c-0.1,0-0.1,0-0.2,0c-0.2,0-0.5,0-0.7,0h-1.1c-0.1,0.1-0.1,0.1-0.1,0.2l-0.2-0.2l10.4-16.5
		c-0.1-0.1-0.2-0.4-0.2-0.5c0-0.2,0-0.4,0-0.6v-0.9v-3.3v-5.1c0-0.2,0-0.6,0-0.8v-1.8v-4.9c0-0.2,0-0.6,0-0.9v-1.9v-5.9
		c0-0.9,0-2,0-2.9C28.2,33.2,28.4,32.8,28.7,32.6z"/>
	<path class="st18" d="M51.5,33.6L51.5,33.6H52C51.9,33.7,51.6,33.7,51.5,33.6c-0.1,0.1-0.4,0.1-0.6,0.1h-1.2c-0.4,0-0.6,0-0.9,0.1
		h1.6c0.2,0,0.6,0,0.8,0H52l0,0c-0.1,0-0.4,0-0.6,0H29.6h-0.1c0,0,0-0.1-0.1-0.1h5.3h11.3h3.8h1.1C51.2,33.7,51.3,33.7,51.5,33.6z"
		/>
	<path class="st18" d="M28.7,32.6c0,0.1-0.2,0.2-0.2,0.4c-0.1,0.1-0.1,0.2-0.2,0.5l0,0c-0.1,0.6,0,1.2,0,1.6v4.4v13.1v7.7
		c0,0.7,0,1.4,0,2.1c0,0.1,0,0.2,0.1,0.4l0.2,0.2c0,0.1-0.1,0.2-0.2,0.5l-1.5,2.5l-4.1,6.6l-2.2,3.7c-0.7,1.2-1.4,2.4-2.2,3.4h1.9
		c0.1,0,0.1,0.1,0.2,0.1v0.1c-0.1,0-0.1,0-0.2,0c-0.2,0-0.5,0-0.7,0h-1.1c-0.1,0.1-0.1,0.1-0.1,0.2l-0.2-0.2l10.4-16.5
		c-0.1-0.1-0.2-0.4-0.2-0.5c0-0.2,0-0.4,0-0.6v-0.9v-3.3v-5.1c0-0.2,0-0.6,0-0.8v-1.8v-4.9c0-0.2,0-0.6,0-0.9v-1.9v-5.9
		c0-0.9,0-2,0-2.9C28.2,33.2,28.4,32.8,28.7,32.6z"/>
	
		<linearGradient id="SVGID_00000099627281055523432600000009653966324775688380_" gradientUnits="userSpaceOnUse" x1="71.7056" y1="542.7774" x2="30.8152" y2="527.2251" gradientTransform="matrix(1 0 0 1 0 -486)">
		<stop  offset="0" style="stop-color:#000001"/>
		<stop  offset="1" style="stop-color:#03021A"/>
	</linearGradient>
	
		<path style="fill:url(#SVGID_00000099627281055523432600000009653966324775688380_);stroke:#000000;stroke-width:1.176;stroke-linejoin:round;" d="
		M46.3,60.3H32V37.7c0.6-0.1,1.3,0,2,0h3.6h12l0,0h20.8v22.5H53.3h-4.6h-1.5C46.9,60.3,46.7,60.3,46.3,60.3z"/>
	<path class="st25" d="M62.9,53.7l-4.5-4.5H66L62.9,53.7z"/>
	<path class="st26" d="M32.4,59.9v-0.1V59v-0.2c0-0.1,0.2-0.2,0.2-0.2l0.7-0.8l6.2-6.6l1.4,2.1c-0.9,0.6-1.8,1.3-2.6,2L36.1,57
		l-3.1,2.5C33,59.5,32.6,59.8,32.4,59.9z"/>
	<path class="st25" d="M33.9,38h5.5v12.5l-2.3-2.4l-0.7-0.8c-0.1-0.1-0.2-0.2-0.4-0.4l3.2-8.7l0,0L33.9,38L33.9,38z"/>
	<path class="st27" d="M69.6,38.9c0.1-0.2,0.4-0.4,0.6-0.5v10.5h-7.6c0.4-0.1,0.7,0,1.1,0h2.5c0.2-0.8,0.6-1.6,0.8-2.5l1.1-2.8
		l1.4-3.7C69.5,39.6,69.7,39.1,69.6,38.9z"/>
	<path class="st28" d="M41.2,53.1L39.8,51l0,0c0.2-0.2,0.5-0.5,0.8-0.8l2.2-2.1l5.8-5.7l2.2-2.1l1.5-1.5c0.1-0.1,0.2-0.4,0.4-0.5
		l0,0h0.2c-0.7,1.3-1.9,2.4-2.8,3.5l-5.4,7l-1.5,2L41.2,53.1z"/>
	<path class="st25" d="M32.4,57.7V43.6l3.5,3.7c-0.4,0.8-0.6,1.6-0.8,2.5l-1.9,5.7l-0.4,1.4C32.7,57.1,32.6,57.5,32.4,57.7z"/>
	<path class="st29" d="M58.7,60.1h-0.5V49.5l4.5,4.5c-0.1,0.4-0.4,0.6-0.6,0.9l-1.5,2.2l-1.4,2C59,59.4,58.7,59.7,58.7,60.1z"/>
	<path class="st29" d="M35.9,47.3l3.4,3.5l-7,7.4c0-0.2,0-0.5,0-0.6c0.2-0.2,0.4-0.7,0.5-1.1l0.4-1.3l1.9-5.7
		C35.3,49,35.5,48,35.9,47.3z"/>
	<path class="st29" d="M56.3,50.6l0.1-0.1l0.7-0.6c0,0.1,0,0.2-0.1,0.4c-0.5,0.7-0.9,1.4-1.4,2.1l-3.1,4.7c-0.6,0.9-1.3,1.9-1.8,2.9
		H46l0.9-0.8v-0.1l-0.4,0.4c-0.1,0.1-0.2,0.4-0.5,0.4c-0.1,0-0.1,0.1-0.2,0.1c-0.1,0-0.1,0-0.2-0.1l0.8-0.8l0,0h-0.1l5.6-5.1
		c0,0.1-0.2,0.2-0.4,0.4c0,0,0,0.1,0.1,0.1l0,0l0.7-0.7l0.1-0.1c0.1-0.1,0.1-0.1,0.2-0.2l0,0c0.1,0,0,0,0.1,0l0.1-0.1l0.1-0.1
		c0.4-0.4,0.8-0.7,1.2-1.1l0.1-0.1c0.1-0.1,0,0,0.1-0.1c0.5-0.5,0.9-0.8,1.4-1.3C56.2,50.6,56.3,50.6,56.3,50.6z"/>
	<path class="st18" d="M52.2,53.8c0,0.1-0.2,0.2-0.4,0.4c0,0,0,0.1,0.1,0.1l0,0l0.7-0.7l0.1-0.1c0.1-0.1,0.1-0.1,0.2-0.2l0,0
		c0.1,0,0,0,0.1,0l0.1-0.1l0.1-0.1c0.4-0.4,0.8-0.7,1.2-1.1l0.1-0.1c0.1-0.1,0,0,0.1-0.1c0.5-0.5,0.9-0.8,1.4-1.3h0.1l-9.4,8.5v-0.1
		l-0.4,0.4c-0.1,0.1-0.2,0.4-0.5,0.4c-0.1,0-0.1,0.1-0.2,0.1c-0.1,0-0.1,0-0.2-0.1l0.8-0.8l0,0h-0.1L52.2,53.8z"/>
	<path class="st27" d="M62.7,53.8l4.2,4.1l1.4,1.4c0.2,0.2,0.5,0.5,0.6,0.7H58.7c0.1-0.4,0.4-0.6,0.5-0.9l1.4-2l1.5-2.2
		C62.3,54.5,62.5,54.2,62.7,53.8z"/>
	<path class="st20" d="M69.6,38.9c0,0.4-0.1,0.7-0.2,1.1l-1.4,3.7l-1.1,2.7c-0.4,0.8-0.6,1.6-0.8,2.5h-2.5c-0.4,0-0.7,0-1.1,0h-4.1
		L69.6,38.9z"/>
	<path class="st27" d="M57.3,49.9c0.2-0.2,0.4-0.4,0.6-0.6v10.7h-4.7h-1.4c-0.2,0-0.6,0-0.8,0c0.5-1.1,1.2-1.9,1.8-2.9l3.1-4.7
		c0.5-0.7,0.9-1.4,1.4-2.1C57.1,50.2,57.1,50,57.3,49.9z"/>
	<path class="st26" d="M36,46.9l-3.6-3.8V38h1.5l0,0h5.2l0,0L36,46.9z"/>
	<path class="st30" d="M40.9,53.2l4.5,6.7h-9.6h-2.2c-0.4,0-0.8,0-1.1,0c0.2,0,0.6-0.5,0.8-0.6l3.1-2.5l2.2-1.8
		C39.2,54.4,40,53.7,40.9,53.2z"/>
	<path class="st30" d="M66,49.2h4.2v10.8h-0.8l-6.5-6.4L66,49.2z"/>
	<path class="st29" d="M39.8,38h12.6l-6.2,6.2l-6.3,6.2L39.8,38z"/>
	<path class="st31" d="M52.9,38h0.8l-8,21.7l-0.1,0.1c-0.1-0.1-0.2-0.4-0.4-0.5l-0.7-1.1l-3.5-5.2l2-2.5l1.5-2l5.4-7
		C51,40.4,52.2,39.3,52.9,38z"/>
	<path class="st32" d="M53.7,38h16.2L55,51.3c-0.2,0.2-2.8,2.4-2.8,2.5l-5.6,5.1c-0.2,0.2-0.6,0.6-0.8,0.7L53.7,38z"/>
	<path class="st18" d="M73.3,63.5c0-0.1,0-0.2,0-0.4c0.1,0,0.4,0,0.6,0h0.8c0.1,0.5,0.5,0.9,0.8,1.4l3.9,6.2l3.9,6.4l1.5,2.4
		l-3.8,3.2H81H70.1h-9.7H46H30.6h-8.9c0.1-0.1,0.2-0.1,0.4-0.1h1.8h4.6h14.8h37.4v-1.3H21.9l-1.2-0.9c-0.1-0.1-0.4-0.2-0.4-0.5
		c0.2,0.1,0.5,0.2,0.6,0.5l1.1,0.8h45.5h9.6h2.6c0.2,0,0.5,0,0.7,0c0.1,0,0.4-0.2,0.4-0.2l1.3-1.1l0.2-0.2c0.2-0.1,0.5-0.1,0.7-0.1
		h1.3c-0.4-0.5-0.6-0.9-0.9-1.4L82,75.8l-1.3-2.1l-1.9-3.2l-4.2-7.3c-0.2,0-0.4,0-0.6,0c-0.2,0-0.5,0-0.6,0
		c-0.1,0.2,0.4,0.9,0.5,1.2l1.9,3.1l5.3,8.6l1.1,1.8c0.1,0.2,0.2,0.4,0.4,0.7l0,0L82,77.7l-1.4-2.2l-3.9-6.2l-2.7-4.4l-0.5-0.7
		c0-0.1-0.1-0.2-0.1-0.4h-0.1V63.5z"/>
	<path class="st22" d="M83.1,79.7h1.2l-2.7,2.4l-0.7,0.6v-1.1c0-0.1,0-0.2,0-0.4c0.1-0.1,0.2-0.1,0.4-0.2l0.7-0.5
		c0.2-0.2,0.5-0.5,0.8-0.6C82.7,79.7,83,79.7,83.1,79.7z"/>
	<path class="st23" d="M82.4,78.8L82.4,78.8c0-0.2-0.1-0.5-0.2-0.7l-1.1-1.8l-5.3-8.6l-1.9-3.1c-0.1-0.2-0.6-0.9-0.5-1.2
		c0.2,0,0.5,0,0.6,0c0.2,0,0.4,0,0.6,0l4.3,7.2l1.9,3.2l1.3,2.1l1.4,2.2c0.4,0.5,0.6,0.9,0.9,1.4h-1.3c-0.2,0-0.5,0-0.7,0.1L82.3,80
		H20.4l-0.1-0.2v-0.1c0-0.1-0.1-0.1-0.2-0.1v-0.2c0-0.1-0.1-0.4-0.1-0.5c0-0.1,0.2-0.4,0.4-0.5l0.7-1.1l2.1-3.3l3.1-4.8
		c0.2-0.5,0.5-0.9,0.8-1.3l0,0.1L22.6,75l-1.5,2.5c-0.4,0.5-0.6,0.9-0.9,1.4h31.1v-1.1h-1.5h-0.1c0.2,0,0.6,0,0.8,0h1.9h5.4
		c0.9,0,1.9,0,2.7,0c0.1,0,0.1,0,0.2-0.1c0-0.4-0.2-0.6-0.4-0.9l2.8,0.2l6.1,0.5l6.7,0.6l4.1,0.4C80.9,78.6,81.7,78.8,82.4,78.8z"/>
	<path class="st19" d="M60.3,76.8l2.8,0.2l6.1,0.5l6.7,0.6l4.1,0.4c0.8,0.1,1.5,0.2,2.3,0.2l0.1,0.1c-0.2,0.1-0.5,0-0.7,0h-1.5h-8.6
		H59.8h-8.7v-1.1h-1.5h-0.1c0.2,0,0.6,0,0.8,0h1.9h5.4c0.9,0,1.9,0,2.7,0c0.1,0,0.1,0,0.2-0.1C60.7,77.5,60.4,77.1,60.3,76.8z"/>
	<path class="st21" d="M73.3,63.9C73.3,63.9,73.5,63.9,73.3,63.9c0.1,0.1,0.2,0.2,0.2,0.4l0.5,0.7l2.7,4.4l3.9,6.2l1.4,2.2l0.5,0.8
		c-0.8,0-1.5-0.1-2.3-0.2L76,78.1l-6.7-0.6L63.3,77l-2.8-0.2c0,0-0.4-0.8-0.4-0.9c-0.4-0.8-0.6-1.6-0.9-2.5h-6.3h3.3l0,0L51.2,73
		v-0.7h-0.9c0.8-0.1,1.8,0,2.6,0h4.9h12.6h5.9c-0.2-0.4-0.5-0.7-0.8-1.2l-1.8-2.5l-1.8-2.5c-0.4-0.5-0.6-0.9-0.9-1.3
		c-0.1-0.4-0.2-0.7-0.2-0.9L73.3,63.9z"/>
	
		<linearGradient id="SVGID_00000048480873860507822520000017899087540881187495_" gradientUnits="userSpaceOnUse" x1="54.9419" y1="544.0763" x2="43.9447" y2="573.6228" gradientTransform="matrix(1 0 0 1 0 -486)">
		<stop  offset="0" style="stop-color:#5E4698"/>
		<stop  offset="1" style="stop-color:#8373AE"/>
	</linearGradient>
	
		<path style="fill:url(#SVGID_00000048480873860507822520000017899087540881187495_);stroke:#000000;stroke-width:1.176;stroke-linejoin:round;" d="
		M73.2,62.3L73.2,62.3c0.2,0.5,0,0.9,0.1,1.3v0.2h-2.5c0.1,0.4,0.1,0.7,0.2,0.9c0.4,0.4,0.6,0.8,0.9,1.3l1.8,2.5l1.8,2.5
		c0.2,0.4,0.6,0.7,0.8,1.2h-5.9H58H53c-0.8,0-1.8-0.1-2.6,0h0.9v0.7l4.9,0.4l0,0H53h6.3c0.4,0.8,0.6,1.6,0.9,2.5
		c0,0.1,0.4,0.9,0.4,0.9c0.1,0.2,0.2,0.6,0.4,0.9c-0.1,0.1-0.1,0.1-0.2,0.1c-0.9,0.1-1.9,0-2.7,0h-5.4h-1.9c-0.2,0-0.6,0-0.8,0h0.1
		h1.5v1.1H20.5c0.4-0.5,0.7-0.9,0.9-1.4l1.5-2.5l4.3-7.1l-0.1-0.1c0.6-1.2,1.4-2.2,2.1-3.4l0.4-0.7c0,0,0.1-0.1,0.1-0.2
		c0-0.2,0-0.6-0.1-0.9l0.1-0.1v-0.1h0.9H51L73.2,62.3z"/>
	
		<linearGradient id="SVGID_00000090281172036417708920000005849295735801284511_" gradientUnits="userSpaceOnUse" x1="38.7816" y1="548.4361" x2="38.8063" y2="550.0035" gradientTransform="matrix(1 0 0 1 0 -486)">
		<stop  offset="0" style="stop-color:#000101"/>
		<stop  offset="1" style="stop-color:#020016"/>
	</linearGradient>
	
		<path style="fill:url(#SVGID_00000090281172036417708920000005849295735801284511_);stroke:#000000;stroke-width:1.176;stroke-linejoin:round;" d="
		M29.6,62.5l0.1,0.4v0.7l21.1,0.1v0.2h-1.4c-0.2,0-0.5,0-0.7,0H29.6L27,68l-0.1-0.1c0.6-1.2,1.4-2.2,2.1-3.4l0.4-0.7
		c0,0,0.1-0.1,0.1-0.2c0-0.2,0-0.6-0.1-0.9H29.6z"/>
	<path class="st21" d="M30.5,62.4h20.3v0.5l0,0c0,0.2,0.1,0.6,0,0.8l-21.1-0.1v-0.7l-0.1-0.4v-0.1L30.5,62.4z"/>
	<path class="st19" d="M30.5,62.4h20.3v0.5l0,0H29.7l-0.1-0.4v-0.1L30.5,62.4z"/>
	<path class="st23" d="M73.2,62.3L73.2,62.3c0.2,0.5,0,0.9,0.1,1.3v0.2h-2.5H48.6c0.2,0,0.5,0,0.7,0h1.4v-0.2c0.1-0.2,0-0.6,0-0.8
		l0,0v-0.5L73.2,62.3z"/>
	<path class="st21" d="M73.2,62.3L73.2,62.3l0.1,0.5H50.9v-0.5H73.2z"/>
	<path class="st18" d="M49.5,77.8h-7.6l1.9-4.5h9h6.3c0.4,0.8,0.6,1.6,0.9,2.5c0,0.1,0.4,0.9,0.4,0.9c0.1,0.2,0.2,0.6,0.4,0.9
		c-0.1,0.1-0.1,0.1-0.2,0.1c-0.9,0.1-1.9,0-2.7,0h-5.4h-1.9C50.1,77.8,49.8,77.8,49.5,77.8z"/>
	
		<linearGradient id="SVGID_00000097471987378257488200000004014562716469049996_" gradientUnits="userSpaceOnUse" x1="60.4108" y1="562.6188" x2="42.5682" y2="560.7752" gradientTransform="matrix(1 0 0 1 0 -486)">
		<stop  offset="0" style="stop-color:#1E6E99"/>
		<stop  offset="1" style="stop-color:#C5DFF2"/>
	</linearGradient>
	
		<path style="fill:url(#SVGID_00000097471987378257488200000004014562716469049996_);stroke:#000000;stroke-width:1.176;stroke-linejoin:round;" d="
		M47.1,77.6h-4.7c0-0.1,0.2-0.6,0.2-0.7l1.3-3.3h4.7h10.3l1.5,3.9L47.1,77.6z"/>
	<path class="st18" d="M26.2,72.3c0-0.2,4.3-6.7,4.8-7.4h40.1c0.4,0.4,0.6,0.8,0.9,1.3l1.8,2.5l1.8,2.5c0.2,0.4,0.6,0.7,0.8,1.2
		h-5.9H58H53c-0.8,0-1.8-0.1-2.6,0h-6.6h-1.8h-3.4h-9h-2.2C26.9,72.4,26.4,72.4,26.2,72.3z"/>
	<path class="st27" d="M75.5,71.5l0.5,0.6h-3.3l-0.4-0.6H75.5z"/>
	<path class="st27" d="M51.3,70.4V72h-3.6c0-0.1,0-0.4,0-0.6h3.6V70.4L51.3,70.4z"/>
	<path class="st27" d="M30.6,71.5l-0.4,0.6h-3.4l0.4-0.6H30.6z"/>
	<path class="st26" d="M68.9,66.1l-0.5-0.7h2.7c0.1,0,0.4,0.6,0.5,0.7c-0.2,0.1-0.6,0-0.8,0H68.9z"/>
	<path class="st27" d="M55.3,71.5V72h-3.6c0-0.4-0.1-2.1,0-2.4v0.8v0.9h2.5C54.4,71.5,54.9,71.4,55.3,71.5z"/>
	<path class="st27" d="M71.8,71.5l0.4,0.6h-3.6l-0.4-0.6H71.8z"/>
	<path class="st27" d="M59.5,71.4l0.1,0.6h-3.9v-0.6c0.2,0,0.5,0,0.7,0h2.1C58.8,71.5,59.1,71.5,59.5,71.4z"/>
	<path class="st26" d="M51.6,66.1v-0.7h2.9l0.1,0.7H51.6z"/>
	<path class="st27" d="M31.1,71.5h3.6c-0.1,0.2-0.1,0.4-0.2,0.6h-3.6l0,0L31.1,71.5z"/>
	<path class="st26" d="M41.4,66.1l0.2-0.7h2.9l-0.2,0.7H41.4z"/>
	<path class="st27" d="M67.7,71.5l0.2,0.6h-3.8l-0.1-0.6H67.7z"/>
	<path class="st27" d="M59.8,71.5h3.8l0.2,0.6H60L59.8,71.5z"/>
	<path class="st27" d="M39.4,71.4c0.2,0.1,3.3,0.1,3.6,0.1l-0.1,0.6h-3.8L39.4,71.4z"/>
	<path class="st26" d="M37.8,66.1l0.5-0.7h2.9l-0.2,0.7H37.8z"/>
	<path class="st27" d="M39,71.5L38.7,72H35l0.4-0.6c0.5,0,0.9,0,1.4,0L39,71.5z"/>
	<path class="st26" d="M65.5,66.1l-0.4-0.7h2.9c0.1,0,0.4,0.6,0.5,0.7c-0.2,0.1-0.6,0-0.8,0H65.5z"/>
	<path class="st27" d="M47.3,71.5v0.6h-3.9l0.1-0.6v0.1L47.3,71.5z"/>
	<path class="st26" d="M30.7,66.1l0.5-0.7h3.1l-0.5,0.7H30.7z"/>
	<path class="st26" d="M62,66.1l-0.4-0.7h3.1l0.4,0.7H62z"/>
	<path class="st26" d="M58.4,66.1l-0.2-0.7h2.9l0.2,0.7H58.4z"/>
	<path class="st26" d="M54.9,66.1l-0.1-0.7h3.1l0.2,0.7H54.9z"/>
	<path class="st26" d="M44.7,66.1l0.2-0.7H48l-0.1,0.7H44.7z"/>
	<path class="st26" d="M34.4,66.1c0.1-0.2,0.2-0.5,0.5-0.7h3.1l-0.4,0.7H34.4z"/>
	<path class="st30" d="M71.7,66.1l0.7,0.9h-2.9l-0.6-0.9h2C71.1,66.1,71.6,66.1,71.7,66.1z"/>
	<path class="st22" d="M26.2,72.3c0.1,0,0.1,0,0.2,0h6.3c-0.2,0-0.5,0-0.6,0h-1.4c-0.1,0-0.4,0-0.6,0l0,0c-0.1,0-0.2,0-0.5,0h-0.8
		c-0.2,0-0.5,0-0.6,0s-0.2,0-0.5,0c-0.1,0-0.4,0-0.5,0h-0.1c-0.1,0-0.4,0-0.6,0c-0.1,0-0.1,0-0.1,0l0,0l0,0c0.1,0,0,0,0.1,0h0.1
		c0.2,0,0.5,0,0.7,0H29h7.5h1.6c0.1,0,0.4,0,0.5,0v0.1h-0.2c0.1,0.1,0.4,0,0.6,0l0,0h-0.1l0,0H39c0.1,0,0.4,0,0.5,0l1.9,0.1
		c0.7,0,1.4,0,2.1,0h-1.8h-3.4h-9H27C26.9,72.4,26.4,72.4,26.2,72.3z"/>
	<path class="st26" d="M70.3,68.3l-0.5-0.9h2.8l0.6,0.9H70.3z"/>
	<path class="st26" d="M29.3,68.2l0.6-0.8h3.2l-0.6,0.8H29.3z"/>
	<path class="st26" d="M71.7,70.5l-0.6-0.8h3.1l0.6,0.8H71.7z"/>
	<path class="st26" d="M31.7,70.4l0.5-0.8h3.4l-0.4,0.9L31.7,70.4z"/>
	<path class="st26" d="M27.9,70.4l0.6-0.8h3.3l-0.5,0.8H29C28.6,70.5,28.2,70.5,27.9,70.4z"/>
	<path class="st26" d="M40.6,68.2l0.4-0.8h3.2l-0.2,0.8h-2.1C41.4,68.2,40.8,68.3,40.6,68.2z"/>
	<path class="st26" d="M33,68.2l0.6-0.8h3.2c-0.1,0.2-0.2,0.6-0.5,0.8H33z"/>
	<path class="st30" d="M71.7,70.5h3.1l0.6,0.8h-3.2L71.7,70.5z"/>
	<path class="st30" d="M68.5,66.1l0.6,0.9H66l-0.5-0.9h2.2C67.9,66.1,68.3,66.1,68.5,66.1z"/>
	<path class="st30" d="M51.6,66.1h2.9l0.1,0.9h-3.1V66.1z"/>
	<path class="st26" d="M51.6,69.7H55l0.1,0.8h-3.5V69.7z"/>
	<path class="st30" d="M44.4,66.1L44.1,67c-0.2,0.1-0.6,0-0.9,0h-2.2l0.4-0.9H44.4z"/>
	<path class="st26" d="M47.8,70.3l0.1-0.7h3.4v0.8l0,0c-0.5,0.1-0.9,0-1.4,0c-0.7,0-1.4,0-2,0L47.8,70.3z"/>
	<path class="st26" d="M36.7,68.2l0.5-0.8h3.3l-0.4,0.8H36.7z"/>
	<path class="st26" d="M51.6,68.3v-0.9h3.2l0.1,0.9H51.6z"/>
	<path class="st26" d="M39.8,70.4l0.2-0.8h3.4l-0.2,0.8h-2.3C40.6,70.5,40.1,70.5,39.8,70.4z"/>
	<path class="st30" d="M34.4,66.1h3.1L37,67h-3.2L34.4,66.1z"/>
	<path class="st26" d="M48,68.2l0.1-0.8h3.2v0.9h-2C48.8,68.3,48.3,68.3,48,68.2z"/>
	<path class="st26" d="M35.7,70.4l0.4-0.8h2.3c0.4,0,0.8,0,1.2,0l-0.4,0.8H35.7z"/>
	<path class="st30" d="M30.7,66.1h3.1L33.3,67h-3.2L30.7,66.1z"/>
	<path class="st26" d="M44.2,68.2l0.2-0.8c0.2-0.1,0.7,0,0.9,0h2.3l-0.1,0.8C47.2,68.2,44.5,68.3,44.2,68.2z"/>
	<path class="st30" d="M44.7,66.1h3.1L47.6,67h-3.2L44.7,66.1z"/>
	<path class="st30" d="M65.1,66.1l0.5,0.9h-3.3L62,66.1H65.1z"/>
	<path class="st30" d="M61.5,66.1L62,67h-3.3l-0.2-0.9H61.5z"/>
	<path class="st26" d="M66.7,68.3l-0.5-0.9h3.2l0.6,0.9H66.7z"/>
	<path class="st26" d="M67.7,70.5l-0.5-0.8h3.4l0.5,0.8c-0.4,0.1-0.8,0-1.1,0H67.7z"/>
	<path class="st26" d="M43.6,70.4l0.2-0.8h3.6l-0.1,0.8h-2.5C44.5,70.5,44,70.5,43.6,70.4z"/>
	<path class="st26" d="M62.8,68.3l-0.4-0.9h3.3l0.4,0.8c-0.4,0.1-0.8,0-1.2,0L62.8,68.3z"/>
	<path class="st30" d="M54.9,66.1h3.2l0.2,0.9H55L54.9,66.1z"/>
	<path class="st26" d="M59,68.3l-0.2-0.9h3.3l0.4,0.9H59z"/>
	<path class="st26" d="M55.3,68.3l-0.1-0.9h3.3l0.2,0.8c-0.4,0.1-0.7,0-1.1,0L55.3,68.3z"/>
	<path class="st30" d="M37.8,66.1h3.2L40.6,67h-3.3L37.8,66.1z"/>
	<path class="st26" d="M59.6,70.5l-0.2-0.8h3.5l0.4,0.8c-0.4,0.1-0.8,0-1.2,0H59.6z"/>
	<path class="st26" d="M63.7,70.5l-0.4-0.8h3.5l0.5,0.8H63.7z"/>
	<path class="st26" d="M55.5,70.5c0-0.1-0.1-0.7-0.1-0.8h3.5l0.2,0.8H55.5z"/>
	<path class="st30" d="M27.9,70.4c0.2,0.1,0.7,0,0.9,0h2.3l-0.6,1.1h-3.4L27.9,70.4z"/>
	<path class="st30" d="M73.2,68.3l0.7,1.1h-3.1c-0.2-0.2-0.5-0.7-0.7-1.1H73.2z"/>
	<path class="st30" d="M71.2,70.5l0.6,0.9h-3.6l-0.5-0.9h2.3C70.4,70.5,70.9,70.7,71.2,70.5z"/>
	<path class="st30" d="M67.2,70.5l0.5,0.9H64l-0.4-0.9H67.2z"/>
	<path class="st30" d="M29.3,68.2h3.2l-0.6,1.1h-3.2L29.3,68.2z"/>
	<path class="st30" d="M39.8,70.4c0.4,0.1,0.8,0,1.2,0h2.3l-0.2,1.1c-0.5,0-3.5,0-3.6-0.1L39.8,70.4z"/>
	<path class="st30" d="M63.3,70.5l0.4,0.9h-3.8l-0.2-0.9h2.5C62.4,70.5,62.9,70.5,63.3,70.5z"/>
	<path class="st30" d="M59.3,70.5l0.2,0.8c-0.2,0.1-0.7,0-0.9,0l-2.2,0.1c-0.2,0-0.5,0-0.7,0l-0.1-0.9H59.3z"/>
	<path class="st30" d="M51.6,70.5h3.5l0.1,0.9c-0.4,0-0.8,0-1.2,0h-2.5V70.5z"/>
	<path class="st30" d="M47.6,71.5l0.1-1.1v0.1c0.7,0.1,1.4,0,2,0c0.5,0,0.9,0,1.4,0v0.9H47.6z"/>
	<path class="st30" d="M31.7,70.4h3.5l-0.5,1.1h-3.6L31.7,70.4z"/>
	<path class="st30" d="M35.7,70.4h3.6L39,71.5h-2.3c-0.5,0-0.9,0-1.4,0L35.7,70.4z"/>
	<path class="st30" d="M51.6,68.3h3.3l0.1,1.1h-3.4V68.3z"/>
	<path class="st30" d="M69.8,68.3l0.7,1.1h-2.2c-0.4,0-0.7,0-1.1,0l-0.5-1.1H69.8z"/>
	<path class="st30" d="M33,68.2h3.3l-0.5,1.1h-3.4L33,68.2z"/>
	<path class="st30" d="M51.3,68.3v1.1h-3.4l0.1-1.1c0.4,0.1,0.9,0,1.3,0H51.3z"/>
	<path class="st30" d="M43.6,70.4c0.4,0.1,0.8,0,1.2,0h2.5l0,1.1h-3.8v-0.1L43.6,70.4z"/>
	<path class="st30" d="M66.2,68.2l0.6,1.1h-3.5l-0.4-1.1h2.2C65.4,68.3,65.8,68.3,66.2,68.2z"/>
	<path class="st30" d="M40.6,68.2c0.2,0.1,0.8,0,1.1,0h2.1l-0.2,1.1h-3.4L40.6,68.2z"/>
	<path class="st30" d="M62.4,68.3c0,0.1,0.4,0.9,0.4,1.1h-3.5L59,68.3H62.4z"/>
	<path class="st30" d="M58.7,68.2l0.2,1.1h-3.5l-0.1-1.1h2.3C57.9,68.3,58.3,68.3,58.7,68.2z"/>
	<path class="st30" d="M44.2,68.2c0.2,0.1,2.9,0,3.4,0l-0.1,1.1H44L44.2,68.2z"/>
	<path class="st30" d="M40.1,68.2l-0.4,1.1c-0.4,0-0.7,0-1.1,0h-2.5l0.6-1.1H40.1z"/>
	<path class="st30" d="M48.1,65.9v-0.6c0.5,0,2.8-0.1,3.1,0c0.1,0.5,0,1.1,0,1.6H48L48.1,65.9z"/>
	<path class="st26" d="M48.1,65.9v-0.6c0.5,0,2.8-0.1,3.1,0v0.7C50.8,66.1,48.2,66.1,48.1,65.9L48.1,65.9z"/>
	<path class="st15" d="M18.2,79.5l65.2-1.8l-1.4,3.7c-0.1,0.2-0.4,0.9-0.4,1.1c-0.1,0.1-0.5,0-0.7,0h-2.7H68.1l-46.4,0.1L18.2,79.5
		C18.4,80,17.9,79,18.2,79.5z"/>
	<path class="st36" d="M29.4,37.8v-3.4l0.9,1.8v0.1v2.5v4.7v13.7v3.4c0,0.6,0,1.2,0,1.8h-0.9v0.1l-0.1,0.1c-0.1-0.6,0-1.3,0-2v-3.8
		V43.3c0.1-0.7,0-1.5,0-2.2v-4.5v-0.9c0-0.2,0-0.4,0-0.6v1.8C29.4,37.2,29.4,37.6,29.4,37.8L29.4,37.8z"/>
	<path class="st37" d="M29.4,43.4c0.1-0.7,0-1.5,0-2.2v-4.5v-0.9c0-0.2,0-0.4,0-0.6V37c0,0.2,0,0.5,0,0.7v0.1v24.6v0.1l-0.1,0.1
		c-0.1-0.6,0-1.3,0-2v-3.8L29.4,43.4z"/>
	<path class="st15" d="M73.5,34.6v27.4h-1.3c-0.1,0-0.1,0-0.1,0V42.7v-4.6V37c0-0.1,0-0.4,0-0.5c0-0.1,0.4-0.4,0.4-0.5L73.5,34.6z"
		/>
	<path class="st38" d="M51.5,33.8h22c-0.2,0.4-0.5,0.6-0.7,0.9l-0.9,1.4H54.7h-5.2h-1.4c-0.2,0-0.6,0-0.8,0c0.5,0,0.9,0,1.4,0h2.8
		v-0.7c0.4,0,0.8,0.1,1.1-0.1c0-0.1,0.1-0.1,0.1-0.2c0-0.2,0-0.4-0.1-0.5c-0.2-0.1-0.8,0-1.1,0V33.8z"/>
	<path class="st36" d="M29.7,33.8h21.8l0,0v0.7c0.4,0,0.8-0.1,1.1,0c0.1,0.1,0.1,0.2,0.1,0.5c0,0.1,0,0.1-0.1,0.2
		c-0.2,0.1-0.8,0.1-1.1,0.1V36h-2.8c-0.5,0-0.9,0-1.4,0H30.7L29.7,33.8L29.7,33.8z"/>
	<path class="st37" d="M51.5,34.5c0.4,0,0.8-0.1,1.1,0c0.1,0.1,0.1,0.2,0.1,0.5c0,0.1,0,0.1-0.1,0.2c-0.2,0.1-0.8,0.1-1.1,0.1
		c-0.2,0-1.1,0.1-1.3-0.1c-0.1-0.1-0.1-0.1-0.1-0.2c0-0.2,0-0.4,0.1-0.5C50.6,34.4,51.2,34.5,51.5,34.5z"/>
	<path class="st39" d="M50.5,34.8L50.5,34.8c0.2-0.1,1.9-0.1,2,0c0,0.1,0,0.1,0,0.2c-0.2,0-0.6,0-0.9,0s-0.8,0-1.2,0
		C50.3,35.1,50.5,35,50.5,34.8z"/>
	<path class="st40" d="M57.6,32.4h11.6h3.2c0.5,0,0.9,0,1.4,0c0.2,0,0.4,0.1,0.5,0.4c0.1,0.1,0.2,0.4,0.4,0.5v20.7v6.5v1.8
		c0,0.2,0,0.6,0,0.8c0,0.1,0,0.2-0.1,0.4l-0.6-0.1c-0.1,0-0.4,0-0.6,0c0,0.1,0,0.2,0,0.4c-0.1-0.4,0.1-0.9-0.1-1.3h-0.1l0.5-0.1
		V33.6h-2.9H58.3h-4.8h-1.4c-0.2,0-0.6,0-0.8,0h-0.1v-1.2L57.6,32.4L57.6,32.4z"/>
	<path class="st15" d="M47.9,62.1h-17V36.5h20.8v1.3h-1.9h-12h-3.6c-0.7,0-1.3-0.1-2,0v22.6h14.3l0,0c1.1,0.1,2.2,0,3.3,0
		c0.4,0,0.8-0.1,1.1,0v1.6h-1.9C48.6,61.9,48.2,61.9,47.9,62.1z"/>
	<path class="st41" d="M51.5,36.5h16.3h3.1c0.2,0,0.7,0,0.9,0v25.6h-17H51h-2.2c-0.4,0-0.7,0-1.1,0c0.4,0,0.7,0,1.1,0h1.9v-1.6
		c-0.2-0.1-0.8,0-1.1,0c-1.1,0-2.2,0-3.3,0l0,0c0.2,0,0.6,0,0.9,0h1.5h4.6h17.1V37.9H49.8l0,0h1.9L51.5,36.5z"/>
	<path class="st39" d="M28.7,32.6c0.1-0.1,0.4-0.2,0.6-0.2c0.4,0,0.8,0,1.3,0h2.7h9.7h14.7l0,0h-6.1v1.2h0.1h0.4c-0.1,0-0.2,0-0.5,0
		c-0.1,0-0.4,0-0.6,0h-1.2c-0.4,0-0.6,0-0.9,0.1h1.6c0.2,0,0.6,0,0.8,0h0.7l0,0c-0.1,0-0.4,0-0.6,0H29.7h-0.1c0,0,0-0.1-0.1-0.1
		h-0.1c-0.1,0.2,0,0.5,0,0.7v1.3v5.1v1.9c0,0.4,0,0.7,0,0.9v13.4v3.8c0,0.6-0.1,1.4,0,2c0,0.2,0.1,0.6,0.1,0.9l-0.1,0.2L29,64.4
		c-0.7,1.1-1.5,2.2-2.1,3.4c-0.2,0.5-0.6,0.8-0.8,1.3L23,74l-2.1,3.3l-0.7,1.1c-0.1,0.1-0.2,0.4-0.4,0.5c0,0.1,0,0.4,0.1,0.5v0.2
		c0.1,0,0.1,0.1,0.2,0.1v0.1c-0.1,0-0.1,0-0.2,0c-0.2,0-0.5,0-0.7,0h-1.1c-0.1,0.1-0.1,0.1-0.1,0.2l-0.2-0.2l10.4-16.5
		c-0.1-0.1-0.2-0.4-0.2-0.5c0-0.2,0-0.4,0-0.6v-0.9v-3.3v-5.1c0-0.2,0-0.6,0-0.8v-1.8v-4.9c0-0.2,0-0.6,0-0.9v-1.9v-5.9
		c0-0.9,0-2,0-2.9C28.2,33.2,28.4,32.8,28.7,32.6z"/>
	<path class="st37" d="M51.5,33.6L51.5,33.6H52C51.9,33.7,51.6,33.7,51.5,33.6c-0.1,0.1-0.4,0.1-0.6,0.1h-1.2c-0.4,0-0.6,0-0.9,0.1
		h1.6c0.2,0,0.6,0,0.8,0H52l0,0c-0.1,0-0.4,0-0.6,0H29.6h-0.1c0,0,0-0.1-0.1-0.1h5.3h11.3h3.8h1.1C51.2,33.7,51.3,33.7,51.5,33.6z"
		/>
	<path class="st37" d="M28.7,32.6c0,0.1-0.2,0.2-0.2,0.4c-0.1,0.1-0.1,0.2-0.2,0.5l0,0c-0.1,0.6,0,1.2,0,1.6v4.4v13.1v7.7
		c0,0.7,0,1.4,0,2.1c0,0.1,0,0.2,0.1,0.4l0.2,0.2c0,0.1-0.1,0.2-0.2,0.5l-1.5,2.5l-4.1,6.6l-2.2,3.7c-0.7,1.2-1.4,2.4-2.2,3.4h1.9
		c0.1,0,0.1,0.1,0.2,0.1v0.1c-0.1,0-0.1,0-0.2,0c-0.2,0-0.5,0-0.7,0h-1.1c-0.1,0.1-0.1,0.1-0.1,0.2l-0.2-0.2l10.4-16.5
		c-0.1-0.1-0.2-0.4-0.2-0.5c0-0.2,0-0.4,0-0.6v-0.9v-3.3v-5.1c0-0.2,0-0.6,0-0.8v-1.8v-4.9c0-0.2,0-0.6,0-0.9v-1.9v-5.9
		c0-0.9,0-2,0-2.9C28.2,33.2,28.4,32.8,28.7,32.6z"/>
	
		<linearGradient id="SVGID_00000125585430642486707270000004904683482109154447_" gradientUnits="userSpaceOnUse" x1="71.7056" y1="542.7774" x2="30.8152" y2="527.2251" gradientTransform="matrix(1 0 0 1 0 -486)">
		<stop  offset="0" style="stop-color:#000001"/>
		<stop  offset="1" style="stop-color:#03021A"/>
	</linearGradient>
	<path style="fill:url(#SVGID_00000125585430642486707270000004904683482109154447_);" d="M46.3,60.3H32V37.7c0.6-0.1,1.3,0,2,0h3.6
		h12l0,0h20.8v22.5H53.3h-4.6h-1.5C46.9,60.3,46.7,60.3,46.3,60.3z"/>
	<path class="st43" d="M62.9,53.7l-4.5-4.5H66L62.9,53.7z"/>
	<path class="st44" d="M32.4,59.9v-0.1V59v-0.2c0-0.1,0.2-0.2,0.2-0.2l0.7-0.8l6.2-6.6l1.4,2.1c-0.9,0.6-1.8,1.3-2.6,2L36.1,57
		l-3.1,2.5C33,59.5,32.6,59.8,32.4,59.9z"/>
	<path class="st43" d="M33.9,38h5.5v12.5l-2.3-2.4l-0.7-0.8c-0.1-0.1-0.2-0.2-0.4-0.4l3.2-8.7l0,0L33.9,38L33.9,38z"/>
	<path class="st45" d="M69.6,38.9c0.1-0.2,0.4-0.4,0.6-0.5v10.5h-7.6c0.4-0.1,0.7,0,1.1,0h2.5c0.2-0.8,0.6-1.6,0.8-2.5l1.1-2.8
		l1.4-3.7C69.5,39.6,69.7,39.1,69.6,38.9z"/>
	<path class="st46" d="M41.2,53.1L39.8,51l0,0c0.2-0.2,0.5-0.5,0.8-0.8l2.2-2.1l5.8-5.7l2.2-2.1l1.5-1.5c0.1-0.1,0.2-0.4,0.4-0.5
		l0,0h0.2c-0.7,1.3-1.9,2.4-2.8,3.5l-5.4,7l-1.5,2L41.2,53.1z"/>
	<path class="st43" d="M32.4,57.7V43.6l3.5,3.7c-0.4,0.8-0.6,1.6-0.8,2.5l-1.9,5.7l-0.4,1.4C32.7,57.1,32.6,57.5,32.4,57.7z"/>
	<path class="st47" d="M58.7,60.1h-0.5V49.5l4.5,4.5c-0.1,0.4-0.4,0.6-0.6,0.9l-1.5,2.2l-1.4,2C59,59.4,58.7,59.7,58.7,60.1z"/>
	<path class="st47" d="M35.9,47.3l3.4,3.5l-7,7.4c0-0.2,0-0.5,0-0.6c0.2-0.2,0.4-0.7,0.5-1.1l0.4-1.3l1.9-5.7
		C35.3,49,35.5,48,35.9,47.3z"/>
	<path class="st47" d="M56.3,50.6l0.1-0.1l0.7-0.6c0,0.1,0,0.2-0.1,0.4c-0.5,0.7-0.9,1.4-1.4,2.1l-3.1,4.7c-0.6,0.9-1.3,1.9-1.8,2.9
		H46l0.9-0.8v-0.1l-0.4,0.4c-0.1,0.1-0.2,0.4-0.5,0.4c-0.1,0-0.1,0.1-0.2,0.1c-0.1,0-0.1,0-0.2-0.1l0.8-0.8l0,0h-0.1l5.6-5.1
		c0,0.1-0.2,0.2-0.4,0.4c0,0,0,0.1,0.1,0.1l0,0l0.7-0.7l0.1-0.1c0.1-0.1,0.1-0.1,0.2-0.2l0,0c0.1,0,0,0,0.1,0l0.1-0.1l0.1-0.1
		c0.4-0.4,0.8-0.7,1.2-1.1l0.1-0.1c0.1-0.1,0,0,0.1-0.1c0.5-0.5,0.9-0.8,1.4-1.3C56.2,50.6,56.3,50.6,56.3,50.6z"/>
	<path class="st37" d="M52.2,53.8c0,0.1-0.2,0.2-0.4,0.4c0,0,0,0.1,0.1,0.1l0,0l0.7-0.7l0.1-0.1c0.1-0.1,0.1-0.1,0.2-0.2l0,0
		c0.1,0,0,0,0.1,0l0.1-0.1l0.1-0.1c0.4-0.4,0.8-0.7,1.2-1.1l0.1-0.1c0.1-0.1,0,0,0.1-0.1c0.5-0.5,0.9-0.8,1.4-1.3h0.1l-9.4,8.5v-0.1
		l-0.4,0.4c-0.1,0.1-0.2,0.4-0.5,0.4c-0.1,0-0.1,0.1-0.2,0.1c-0.1,0-0.1,0-0.2-0.1l0.8-0.8l0,0h-0.1L52.2,53.8z"/>
	<path class="st45" d="M62.7,53.8l4.2,4.1l1.4,1.4c0.2,0.2,0.5,0.5,0.6,0.7H58.7c0.1-0.4,0.4-0.6,0.5-0.9l1.4-2l1.5-2.2
		C62.3,54.5,62.5,54.2,62.7,53.8z"/>
	<path class="st38" d="M69.6,38.9c0,0.4-0.1,0.7-0.2,1.1l-1.4,3.7l-1.1,2.7c-0.4,0.8-0.6,1.6-0.8,2.5h-2.5c-0.4,0-0.7,0-1.1,0h-4.1
		L69.6,38.9z"/>
	<path class="st45" d="M57.3,49.9c0.2-0.2,0.4-0.4,0.6-0.6v10.7h-4.7h-1.4c-0.2,0-0.6,0-0.8,0c0.5-1.1,1.2-1.9,1.8-2.9l3.1-4.7
		c0.5-0.7,0.9-1.4,1.4-2.1C57.1,50.2,57.1,50,57.3,49.9z"/>
	<path class="st44" d="M36,46.9l-3.6-3.8V38h1.5l0,0h5.2l0,0L36,46.9z"/>
	<path class="st48" d="M40.9,53.2l4.5,6.7h-9.6h-2.2c-0.4,0-0.8,0-1.1,0c0.2,0,0.6-0.5,0.8-0.6l3.1-2.5l2.2-1.8
		C39.2,54.4,40,53.7,40.9,53.2z"/>
	<path class="st48" d="M66,49.2h4.2v10.8h-0.8l-6.5-6.4L66,49.2z"/>
	<path class="st47" d="M39.8,38h12.6l-6.2,6.2l-6.3,6.2L39.8,38z"/>
	<path class="st49" d="M52.9,38h0.8l-8,21.7l-0.1,0.1c-0.1-0.1-0.2-0.4-0.4-0.5l-0.7-1.1l-3.5-5.2l2-2.5l1.5-2l5.4-7
		C51,40.4,52.2,39.3,52.9,38z"/>
	<path class="st50" d="M53.7,38h16.2L55,51.3c-0.2,0.2-2.8,2.4-2.8,2.5l-5.6,5.1c-0.2,0.2-0.6,0.6-0.8,0.7L53.7,38z"/>
	<path class="st37" d="M73.3,63.5c0-0.1,0-0.2,0-0.4c0.1,0,0.4,0,0.6,0h0.8c0.1,0.5,0.5,0.9,0.8,1.4l3.9,6.2l3.9,6.4l1.5,2.4
		l-3.8,3.2H81H70.1h-9.7H46H30.6h-8.9c0.1-0.1,0.2-0.1,0.4-0.1h1.8h4.6h14.8h37.4v-1.3H21.9l-1.2-0.9c-0.1-0.1-0.4-0.2-0.4-0.5
		c0.2,0.1,0.5,0.2,0.6,0.5l1.1,0.8h45.5h9.6h2.6c0.2,0,0.5,0,0.7,0c0.1,0,0.4-0.2,0.4-0.2l1.3-1.1l0.2-0.2c0.2-0.1,0.5-0.1,0.7-0.1
		h1.3c-0.4-0.5-0.6-0.9-0.9-1.4L82,75.8l-1.3-2.1l-1.9-3.2l-4.2-7.3c-0.2,0-0.4,0-0.6,0c-0.2,0-0.5,0-0.6,0
		c-0.1,0.2,0.4,0.9,0.5,1.2l1.9,3.1l5.3,8.6l1.1,1.8c0.1,0.2,0.2,0.4,0.4,0.7l0,0L82,77.7l-1.4-2.2l-3.9-6.2l-2.7-4.4l-0.5-0.7
		c0-0.1-0.1-0.2-0.1-0.4h-0.1V63.5z"/>
	<path class="st40" d="M83.1,79.7h1.2l-2.7,2.4l-0.7,0.6v-1.1c0-0.1,0-0.2,0-0.4c0.1-0.1,0.2-0.1,0.4-0.2l0.7-0.5
		c0.2-0.2,0.5-0.5,0.8-0.6C82.7,79.7,83,79.7,83.1,79.7z"/>
	<path class="st41" d="M82.4,78.8L82.4,78.8c0-0.2-0.1-0.5-0.2-0.7l-1.1-1.8l-5.3-8.6l-1.9-3.1c-0.1-0.2-0.6-0.9-0.5-1.2
		c0.2,0,0.5,0,0.6,0c0.2,0,0.4,0,0.6,0l4.3,7.2l1.9,3.2l1.3,2.1l1.4,2.2c0.4,0.5,0.6,0.9,0.9,1.4h-1.3c-0.2,0-0.5,0-0.7,0.1L82.3,80
		H20.4l-0.1-0.2v-0.1c0-0.1-0.1-0.1-0.2-0.1v-0.2c0-0.1-0.1-0.4-0.1-0.5c0-0.1,0.2-0.4,0.4-0.5l0.7-1.1l2.1-3.3l3.1-4.8
		c0.2-0.5,0.5-0.9,0.8-1.3l0,0.1L22.6,75l-1.5,2.5c-0.4,0.5-0.6,0.9-0.9,1.4h31.1v-1.1h-1.5h-0.1c0.2,0,0.6,0,0.8,0h1.9h5.4
		c0.9,0,1.9,0,2.7,0c0.1,0,0.1,0,0.2-0.1c0-0.4-0.2-0.6-0.4-0.9l2.8,0.2l6.1,0.5l6.7,0.6l4.1,0.4C80.9,78.6,81.7,78.8,82.4,78.8z"/>
	<path class="st15" d="M60.3,76.8l2.8,0.2l6.1,0.5l6.7,0.6l4.1,0.4c0.8,0.1,1.5,0.2,2.3,0.2l0.1,0.1c-0.2,0.1-0.5,0-0.7,0h-1.5h-8.6
		H59.8h-8.7v-1.1h-1.5h-0.1c0.2,0,0.6,0,0.8,0h1.9h5.4c0.9,0,1.9,0,2.7,0c0.1,0,0.1,0,0.2-0.1C60.7,77.5,60.4,77.1,60.3,76.8z"/>
	<path class="st39" d="M73.3,63.9C73.3,63.9,73.5,63.9,73.3,63.9c0.1,0.1,0.2,0.2,0.2,0.4l0.5,0.7l2.7,4.4l3.9,6.2l1.4,2.2l0.5,0.8
		c-0.8,0-1.5-0.1-2.3-0.2L76,78.1l-6.7-0.6L63.3,77l-2.8-0.2c0,0-0.4-0.8-0.4-0.9c-0.4-0.8-0.6-1.6-0.9-2.5h-6.3h3.3l0,0L51.2,73
		v-0.7h-0.9c0.8-0.1,1.8,0,2.6,0h4.9h12.6h5.9c-0.2-0.4-0.5-0.7-0.8-1.2l-1.8-2.5l-1.8-2.5c-0.4-0.5-0.6-0.9-0.9-1.3
		c-0.1-0.4-0.2-0.7-0.2-0.9L73.3,63.9z"/>
	
		<linearGradient id="SVGID_00000018946598301603727880000013074779528425128125_" gradientUnits="userSpaceOnUse" x1="54.9419" y1="544.0763" x2="43.9447" y2="573.6228" gradientTransform="matrix(1 0 0 1 0 -486)">
		<stop  offset="0" style="stop-color:#5E4698"/>
		<stop  offset="1" style="stop-color:#8373AE"/>
	</linearGradient>
	<path style="fill:url(#SVGID_00000018946598301603727880000013074779528425128125_);" d="M73.2,62.3L73.2,62.3
		c0.2,0.5,0,0.9,0.1,1.3v0.2h-2.5c0.1,0.4,0.1,0.7,0.2,0.9c0.4,0.4,0.6,0.8,0.9,1.3l1.8,2.5l1.8,2.5c0.2,0.4,0.6,0.7,0.8,1.2h-5.9
		H58H53c-0.8,0-1.8-0.1-2.6,0h0.9v0.7l4.9,0.4l0,0H53h6.3c0.4,0.8,0.6,1.6,0.9,2.5c0,0.1,0.4,0.9,0.4,0.9c0.1,0.2,0.2,0.6,0.4,0.9
		c-0.1,0.1-0.1,0.1-0.2,0.1c-0.9,0.1-1.9,0-2.7,0h-5.4h-1.9c-0.2,0-0.6,0-0.8,0h0.1h1.5v1.1H20.5c0.4-0.5,0.7-0.9,0.9-1.4l1.5-2.5
		l4.3-7.1l-0.1-0.1c0.6-1.2,1.4-2.2,2.1-3.4l0.4-0.7c0,0,0.1-0.1,0.1-0.2c0-0.2,0-0.6-0.1-0.9l0.1-0.1v-0.1h0.9H51L73.2,62.3z"/>
	
		<linearGradient id="SVGID_00000155861107493316523270000005723795205913832619_" gradientUnits="userSpaceOnUse" x1="38.7816" y1="548.4361" x2="38.8063" y2="550.0035" gradientTransform="matrix(1 0 0 1 0 -486)">
		<stop  offset="0" style="stop-color:#000101"/>
		<stop  offset="1" style="stop-color:#020016"/>
	</linearGradient>
	<path style="fill:url(#SVGID_00000155861107493316523270000005723795205913832619_);" d="M29.6,62.5l0.1,0.4v0.7l21.1,0.1v0.2h-1.4
		c-0.2,0-0.5,0-0.7,0H29.6L27,68l-0.1-0.1c0.6-1.2,1.4-2.2,2.1-3.4l0.4-0.7c0,0,0.1-0.1,0.1-0.2c0-0.2,0-0.6-0.1-0.9H29.6z"/>
	<path class="st39" d="M30.5,62.4h20.3v0.5l0,0c0,0.2,0.1,0.6,0,0.8l-21.1-0.1v-0.7l-0.1-0.4v-0.1L30.5,62.4z"/>
	<path class="st15" d="M30.5,62.4h20.3v0.5l0,0H29.7l-0.1-0.4v-0.1L30.5,62.4z"/>
	<path class="st41" d="M73.2,62.3L73.2,62.3c0.2,0.5,0,0.9,0.1,1.3v0.2h-2.5H48.6c0.2,0,0.5,0,0.7,0h1.4v-0.2c0.1-0.2,0-0.6,0-0.8
		l0,0v-0.5L73.2,62.3z"/>
	<path class="st39" d="M73.2,62.3L73.2,62.3l0.1,0.5H50.9v-0.5H73.2z"/>
	<path class="st37" d="M49.5,77.8h-7.6l1.9-4.5h9h6.3c0.4,0.8,0.6,1.6,0.9,2.5c0,0.1,0.4,0.9,0.4,0.9c0.1,0.2,0.2,0.6,0.4,0.9
		c-0.1,0.1-0.1,0.1-0.2,0.1c-0.9,0.1-1.9,0-2.7,0h-5.4h-1.9C50.1,77.8,49.8,77.8,49.5,77.8z"/>
	
		<linearGradient id="SVGID_00000163768838606626546180000000660315543253830024_" gradientUnits="userSpaceOnUse" x1="60.4108" y1="562.6188" x2="42.5682" y2="560.7752" gradientTransform="matrix(1 0 0 1 0 -486)">
		<stop  offset="0" style="stop-color:#1E6E99"/>
		<stop  offset="1" style="stop-color:#C5DFF2"/>
	</linearGradient>
	<path style="fill:url(#SVGID_00000163768838606626546180000000660315543253830024_);" d="M47.1,77.6h-4.7c0-0.1,0.2-0.6,0.2-0.7
		l1.3-3.3h4.7h10.3l1.5,3.9L47.1,77.6z"/>
	<path class="st37" d="M26.2,72.3c0-0.2,4.3-6.7,4.8-7.4h40.1c0.4,0.4,0.6,0.8,0.9,1.3l1.8,2.5l1.8,2.5c0.2,0.4,0.6,0.7,0.8,1.2
		h-5.9H58H53c-0.8,0-1.8-0.1-2.6,0h-6.6h-1.8h-3.4h-9h-2.2C26.9,72.4,26.4,72.4,26.2,72.3z"/>
	<path class="st45" d="M75.5,71.5l0.5,0.6h-3.3l-0.4-0.6H75.5z"/>
	<path class="st45" d="M51.3,70.4V72h-3.6c0-0.1,0-0.4,0-0.6h3.6V70.4L51.3,70.4z"/>
	<path class="st45" d="M30.6,71.5l-0.4,0.6h-3.4l0.4-0.6H30.6z"/>
	<path class="st44" d="M68.9,66.1l-0.5-0.7h2.7c0.1,0,0.4,0.6,0.5,0.7c-0.2,0.1-0.6,0-0.8,0H68.9z"/>
	<path class="st45" d="M55.3,71.5V72h-3.6c0-0.4-0.1-2.1,0-2.4v0.8v0.9h2.5C54.4,71.5,54.9,71.4,55.3,71.5z"/>
	<path class="st45" d="M71.8,71.5l0.4,0.6h-3.6l-0.4-0.6H71.8z"/>
	<path class="st45" d="M59.5,71.4l0.1,0.6h-3.9v-0.6c0.2,0,0.5,0,0.7,0h2.1C58.8,71.5,59.1,71.5,59.5,71.4z"/>
	<path class="st44" d="M51.6,66.1v-0.7h2.9l0.1,0.7H51.6z"/>
	<path class="st45" d="M31.1,71.5h3.6c-0.1,0.2-0.1,0.4-0.2,0.6h-3.6l0,0L31.1,71.5z"/>
	<path class="st44" d="M41.4,66.1l0.2-0.7h2.9l-0.2,0.7H41.4z"/>
	<path class="st45" d="M67.7,71.5l0.2,0.6h-3.8l-0.1-0.6H67.7z"/>
	<path class="st45" d="M59.8,71.5h3.8l0.2,0.6H60L59.8,71.5z"/>
	<path class="st45" d="M39.4,71.4c0.2,0.1,3.3,0.1,3.6,0.1l-0.1,0.6h-3.8L39.4,71.4z"/>
	<path class="st44" d="M37.8,66.1l0.5-0.7h2.9l-0.2,0.7H37.8z"/>
	<path class="st45" d="M39,71.5L38.7,72H35l0.4-0.6c0.5,0,0.9,0,1.4,0L39,71.5z"/>
	<path class="st44" d="M65.5,66.1l-0.4-0.7h2.9c0.1,0,0.4,0.6,0.5,0.7c-0.2,0.1-0.6,0-0.8,0H65.5z"/>
	<path class="st45" d="M47.3,71.5v0.6h-3.9l0.1-0.6v0.1L47.3,71.5z"/>
	<path class="st44" d="M30.7,66.1l0.5-0.7h3.1l-0.5,0.7H30.7z"/>
	<path class="st44" d="M62,66.1l-0.4-0.7h3.1l0.4,0.7H62z"/>
	<path class="st44" d="M58.4,66.1l-0.2-0.7h2.9l0.2,0.7H58.4z"/>
	<path class="st44" d="M54.9,66.1l-0.1-0.7h3.1l0.2,0.7H54.9z"/>
	<path class="st44" d="M44.7,66.1l0.2-0.7H48l-0.1,0.7H44.7z"/>
	<path class="st44" d="M34.4,66.1c0.1-0.2,0.2-0.5,0.5-0.7h3.1l-0.4,0.7H34.4z"/>
	<path class="st48" d="M71.7,66.1l0.7,0.9h-2.9l-0.6-0.9h2C71.1,66.1,71.6,66.1,71.7,66.1z"/>
	<path class="st40" d="M26.2,72.3c0.1,0,0.1,0,0.2,0h6.3c-0.2,0-0.5,0-0.6,0h-1.4c-0.1,0-0.4,0-0.6,0l0,0c-0.1,0-0.2,0-0.5,0h-0.8
		c-0.2,0-0.5,0-0.6,0s-0.2,0-0.5,0c-0.1,0-0.4,0-0.5,0h-0.1c-0.1,0-0.4,0-0.6,0c-0.1,0-0.1,0-0.1,0l0,0l0,0c0.1,0,0,0,0.1,0h0.1
		c0.2,0,0.5,0,0.7,0H29h7.5h1.6c0.1,0,0.4,0,0.5,0v0.1h-0.2c0.1,0.1,0.4,0,0.6,0l0,0h-0.1l0,0H39c0.1,0,0.4,0,0.5,0l1.9,0.1
		c0.7,0,1.4,0,2.1,0h-1.8h-3.4h-9H27C26.9,72.4,26.4,72.4,26.2,72.3z"/>
	<path class="st44" d="M70.3,68.3l-0.5-0.9h2.8l0.6,0.9H70.3z"/>
	<path class="st44" d="M29.3,68.2l0.6-0.8h3.2l-0.6,0.8H29.3z"/>
	<path class="st44" d="M71.7,70.5l-0.6-0.8h3.1l0.6,0.8H71.7z"/>
	<path class="st44" d="M31.7,70.4l0.5-0.8h3.4l-0.4,0.9L31.7,70.4z"/>
	<path class="st44" d="M27.9,70.4l0.6-0.8h3.3l-0.5,0.8H29C28.6,70.5,28.2,70.5,27.9,70.4z"/>
	<path class="st44" d="M40.6,68.2l0.4-0.8h3.2l-0.2,0.8h-2.1C41.4,68.2,40.8,68.3,40.6,68.2z"/>
	<path class="st44" d="M33,68.2l0.6-0.8h3.2c-0.1,0.2-0.2,0.6-0.5,0.8H33z"/>
	<path class="st48" d="M71.7,70.5h3.1l0.6,0.8h-3.2L71.7,70.5z"/>
	<path class="st48" d="M68.5,66.1l0.6,0.9H66l-0.5-0.9h2.2C67.9,66.1,68.3,66.1,68.5,66.1z"/>
	<path class="st48" d="M51.6,66.1h2.9l0.1,0.9h-3.1V66.1z"/>
	<path class="st44" d="M51.6,69.7H55l0.1,0.8h-3.5V69.7z"/>
	<path class="st48" d="M44.4,66.1L44.1,67c-0.2,0.1-0.6,0-0.9,0h-2.2l0.4-0.9H44.4z"/>
	<path class="st44" d="M47.8,70.3l0.1-0.7h3.4v0.8l0,0c-0.5,0.1-0.9,0-1.4,0c-0.7,0-1.4,0-2,0L47.8,70.3z"/>
	<path class="st44" d="M36.7,68.2l0.5-0.8h3.3l-0.4,0.8H36.7z"/>
	<path class="st44" d="M51.6,68.3v-0.9h3.2l0.1,0.9H51.6z"/>
	<path class="st44" d="M39.8,70.4l0.2-0.8h3.4l-0.2,0.8h-2.3C40.6,70.5,40.1,70.5,39.8,70.4z"/>
	<path class="st48" d="M34.4,66.1h3.1L37,67h-3.2L34.4,66.1z"/>
	<path class="st44" d="M48,68.2l0.1-0.8h3.2v0.9h-2C48.8,68.3,48.3,68.3,48,68.2z"/>
	<path class="st44" d="M35.7,70.4l0.4-0.8h2.3c0.4,0,0.8,0,1.2,0l-0.4,0.8H35.7z"/>
	<path class="st48" d="M30.7,66.1h3.1L33.3,67h-3.2L30.7,66.1z"/>
	<path class="st44" d="M44.2,68.2l0.2-0.8c0.2-0.1,0.7,0,0.9,0h2.3l-0.1,0.8C47.2,68.2,44.5,68.3,44.2,68.2z"/>
	<path class="st48" d="M44.7,66.1h3.1L47.6,67h-3.2L44.7,66.1z"/>
	<path class="st48" d="M65.1,66.1l0.5,0.9h-3.3L62,66.1H65.1z"/>
	<path class="st48" d="M61.5,66.1L62,67h-3.3l-0.2-0.9H61.5z"/>
	<path class="st44" d="M66.7,68.3l-0.5-0.9h3.2l0.6,0.9H66.7z"/>
	<path class="st44" d="M67.7,70.5l-0.5-0.8h3.4l0.5,0.8c-0.4,0.1-0.8,0-1.1,0H67.7z"/>
	<path class="st44" d="M43.6,70.4l0.2-0.8h3.6l-0.1,0.8h-2.5C44.5,70.5,44,70.5,43.6,70.4z"/>
	<path class="st44" d="M62.8,68.3l-0.4-0.9h3.3l0.4,0.8c-0.4,0.1-0.8,0-1.2,0L62.8,68.3z"/>
	<path class="st48" d="M54.9,66.1h3.2l0.2,0.9H55L54.9,66.1z"/>
	<path class="st44" d="M59,68.3l-0.2-0.9h3.3l0.4,0.9H59z"/>
	<path class="st44" d="M55.3,68.3l-0.1-0.9h3.3l0.2,0.8c-0.4,0.1-0.7,0-1.1,0L55.3,68.3z"/>
	<path class="st48" d="M37.8,66.1h3.2L40.6,67h-3.3L37.8,66.1z"/>
	<path class="st44" d="M59.6,70.5l-0.2-0.8h3.5l0.4,0.8c-0.4,0.1-0.8,0-1.2,0H59.6z"/>
	<path class="st44" d="M63.7,70.5l-0.4-0.8h3.5l0.5,0.8H63.7z"/>
	<path class="st44" d="M55.5,70.5c0-0.1-0.1-0.7-0.1-0.8h3.5l0.2,0.8H55.5z"/>
	<path class="st48" d="M27.9,70.4c0.2,0.1,0.7,0,0.9,0h2.3l-0.6,1.1h-3.4L27.9,70.4z"/>
	<path class="st48" d="M73.2,68.3l0.7,1.1h-3.1c-0.2-0.2-0.5-0.7-0.7-1.1H73.2z"/>
	<path class="st48" d="M71.2,70.5l0.6,0.9h-3.6l-0.5-0.9h2.3C70.4,70.5,70.9,70.7,71.2,70.5z"/>
	<path class="st48" d="M67.2,70.5l0.5,0.9H64l-0.4-0.9H67.2z"/>
	<path class="st48" d="M29.3,68.2h3.2l-0.6,1.1h-3.2L29.3,68.2z"/>
	<path class="st48" d="M39.8,70.4c0.4,0.1,0.8,0,1.2,0h2.3l-0.2,1.1c-0.5,0-3.5,0-3.6-0.1L39.8,70.4z"/>
	<path class="st48" d="M63.3,70.5l0.4,0.9h-3.8l-0.2-0.9h2.5C62.4,70.5,62.9,70.5,63.3,70.5z"/>
	<path class="st48" d="M59.3,70.5l0.2,0.8c-0.2,0.1-0.7,0-0.9,0l-2.2,0.1c-0.2,0-0.5,0-0.7,0l-0.1-0.9H59.3z"/>
	<path class="st48" d="M51.6,70.5h3.5l0.1,0.9c-0.4,0-0.8,0-1.2,0h-2.5V70.5z"/>
	<path class="st48" d="M47.6,71.5l0.1-1.1v0.1c0.7,0.1,1.4,0,2,0c0.5,0,0.9,0,1.4,0v0.9H47.6z"/>
	<path class="st48" d="M31.7,70.4h3.5l-0.5,1.1h-3.6L31.7,70.4z"/>
	<path class="st48" d="M35.7,70.4h3.6L39,71.5h-2.3c-0.5,0-0.9,0-1.4,0L35.7,70.4z"/>
	<path class="st48" d="M51.6,68.3h3.3l0.1,1.1h-3.4V68.3z"/>
	<path class="st48" d="M69.8,68.3l0.7,1.1h-2.2c-0.4,0-0.7,0-1.1,0l-0.5-1.1H69.8z"/>
	<path class="st48" d="M33,68.2h3.3l-0.5,1.1h-3.4L33,68.2z"/>
	<path class="st48" d="M51.3,68.3v1.1h-3.4l0.1-1.1c0.4,0.1,0.9,0,1.3,0H51.3z"/>
	<path class="st48" d="M43.6,70.4c0.4,0.1,0.8,0,1.2,0h2.5l0,1.1h-3.8v-0.1L43.6,70.4z"/>
	<path class="st48" d="M66.2,68.2l0.6,1.1h-3.5l-0.4-1.1h2.2C65.4,68.3,65.8,68.3,66.2,68.2z"/>
	<path class="st48" d="M40.6,68.2c0.2,0.1,0.8,0,1.1,0h2.1l-0.2,1.1h-3.4L40.6,68.2z"/>
	<path class="st48" d="M62.4,68.3c0,0.1,0.4,0.9,0.4,1.1h-3.5L59,68.3H62.4z"/>
	<path class="st48" d="M58.7,68.2l0.2,1.1h-3.5l-0.1-1.1h2.3C57.9,68.3,58.3,68.3,58.7,68.2z"/>
	<path class="st48" d="M44.2,68.2c0.2,0.1,2.9,0,3.4,0l-0.1,1.1H44L44.2,68.2z"/>
	<path class="st48" d="M40.1,68.2l-0.4,1.1c-0.4,0-0.7,0-1.1,0h-2.5l0.6-1.1H40.1z"/>
	<path class="st48" d="M48.1,65.9v-0.6c0.5,0,2.8-0.1,3.1,0c0.1,0.5,0,1.1,0,1.6H48L48.1,65.9z"/>
	<path class="st44" d="M48.1,65.9v-0.6c0.5,0,2.8-0.1,3.1,0v0.7C50.8,66.1,48.2,66.1,48.1,65.9L48.1,65.9z"/>
</g>
</svg>
