<?xml version="1.0" encoding="utf-8"?>
<!-- Generator: Adobe Illustrator 27.1.1, SVG Export Plug-In . SVG Version: 6.00 Build 0)  -->
<svg version="1.1" id="Слой_1" xmlns="http://www.w3.org/2000/svg" xmlns:xlink="http://www.w3.org/1999/xlink" x="0px" y="0px"
	 viewBox="0 0 108 108" style="enable-background:new 0 0 108 108;" xml:space="preserve">
<style type="text/css">
	.st0{fill-rule:evenodd;clip-rule:evenodd;fill:#E3E3E3;}
	.st1{fill-rule:evenodd;clip-rule:evenodd;fill:#FFFFFF;filter:url(#Adobe_OpacityMaskFilter);}
	.st2{mask:url(#path-2-inside-1_129_11564_00000137128640450597883500000012398019325630210713_);fill:#393931;}
	.st3{fill:#C2C2C2;stroke:#393931;stroke-width:0.8744;stroke-linejoin:round;}
	.st4{fill:#1C1F33;}
	.st5{fill:#0F0F28;}
	.st6{fill:#125B6E;}
	.st7{fill:#010002;}
	.st8{fill:#80828C;}
	.st9{fill:#525356;}
	.st10{fill:url(#SVGID_1_);}
	.st11{fill:#8EC7D5;}
	.st12{fill:#1E343A;}
	.st13{fill:#0A7678;}
	.st14{fill:url(#SVGID_00000030460448207947123930000015484195188151272582_);}
	.st15{fill:#46ABAD;}
</style>
<path class="st0" d="M76,12c0-6.6-5.4-12-12-12H12C5.4,0,0,5.4,0,12v84c0,6.6,5.4,12,12,12h84c6.6,0,12-5.4,12-12V44
	c0-6.6-5.4-12-12-12h-8c-6.6,0-12-5.4-12-12V12z"/>
<defs>
	<filter id="Adobe_OpacityMaskFilter" filterUnits="userSpaceOnUse" x="-1" y="-1" width="110" height="110">
		<feColorMatrix  type="matrix" values="1 0 0 0 0  0 1 0 0 0  0 0 1 0 0  0 0 0 1 0"/>
	</filter>
</defs>
<mask maskUnits="userSpaceOnUse" x="-1" y="-1" width="110" height="110" id="path-2-inside-1_129_11564_00000137128640450597883500000012398019325630210713_">
	<path class="st1" d="M76,12c0-6.6-5.4-12-12-12H12C5.4,0,0,5.4,0,12v84c0,6.6,5.4,12,12,12h84c6.6,0,12-5.4,12-12V44
		c0-6.6-5.4-12-12-12h-8c-6.6,0-12-5.4-12-12V12z"/>
</mask>
<path class="st2" d="M12,1h52v-2H12V1z M1,96V12h-2v84H1z M96,107H12v2h84V107z M107,44v52h2V44H107z M96,31h-8v2h8V31z M77,20v-8
	h-2v8H77z M88,31c-6.1,0-11-4.9-11-11h-2c0,7.2,5.8,13,13,13V31z M109,44c0-7.2-5.8-13-13-13v2c6.1,0,11,4.9,11,11H109z M96,109
	c7.2,0,13-5.8,13-13h-2c0,6.1-4.9,11-11,11V109z M-1,96c0,7.2,5.8,13,13,13v-2c-6.1,0-11-4.9-11-11H-1z M64,1c6.1,0,11,4.9,11,11h2
	c0-7.2-5.8-13-13-13V1z M12-1C4.8-1-1,4.8-1,12h2C1,5.9,5.9,1,12,1V-1z"/>
<path class="st3" d="M103.9,21.3V9.4l-10.2-6l-10.3,6v11.9l10.3,6L103.9,21.3z"/>
<g>
	<path class="st4" d="M17.7,79.7l2.2-3.5l1.2-1.9l2.9-4.7l1.8-2.8c0.1-0.2,0.5-0.6,0.5-0.8c0-0.1,0-0.1,0-0.2c-0.1-0.7,0-1.4,0-2.1
		v-4.4V52V41.1v-6.6v-1.1c0-0.2,0-0.5,0-0.6c0.2-0.1,0.4-0.1,0.6-0.1H38h21h11.8h3.6c0.6,0,1.3,0,1.9,0c0.1,0,0.2,0.1,0.2,0.2
		c0.1,0.4,0,0.7,0,0.9v1.8v5.9v18.6v4.6v1.2c0,0.1,0,0.4,0,0.5c0.1,0.2,0.2,0.5,0.4,0.7l0.8,1.3l2.6,4.1l1.2,1.9l2.6,4.1
		c0.4,0.6,0.7,1.1,1.1,1.6c-0.2-0.1-0.7,0-0.9,0l-0.1-0.2l-5.5-8.8l-0.8-1.2l-0.8-0.8c0-0.1-0.1-0.1-0.1-0.2l-0.4-0.6
		c-0.1-0.1-0.2-0.4-0.4-0.5l-0.1-0.1l0,0l-0.4-0.6L75.6,67l-0.1-0.2c-0.1-0.1-0.1-0.1-0.1-0.4c-0.1-0.1,0-0.8,0-1.1l-0.1-2.5v-13
		V38.1v-3.4c0,0,0,0,0-0.1c-0.1-0.1-0.2-0.1-0.4-0.1l0,0c-0.6-0.1-1.3,0-1.9,0h-3.3h-9.5h-33v3.7v7.3v14.6v5.3v0.8v0.2
		c0,0.1-0.1,0.2-0.2,0.5c-0.5,0.8-0.9,1.5-1.4,2.2l-4.7,7.4L19,79.4c-0.2,0.4-0.5,0.7-0.6,1.1C18.3,79.7,17.9,79.7,17.7,79.7z"/>
	<path class="st5" d="M17.7,79.7c0.2,0.1,0.6,0,0.8,0c0.2-0.4,0.4-0.7,0.6-1.1l1.9-2.9l4.7-7.4c0.5-0.7,1.1-1.5,1.4-2.2
		c0.1-0.1,0.2-0.2,0.2-0.5c0,0,0-0.1,0-0.2v-0.8v-5.3V44.7v-7.3v-3.7h33.1h9.5h3.3c0.6,0,1.3,0,1.9,0l0,0c0.1,0,0.2,0.1,0.4,0.1
		c0,0,0,0,0,0.1v3.4V49v13.1l0.1,2.5c0,0.1,0,0.9,0,1.1c0,0.1,0.1,0.2,0.1,0.4l0.1,0.2l0.1,0.1l0.4,0.6l0,0c0,0,0,0.1,0.1,0.1
		c0.1,0.1,0.2,0.4,0.4,0.5l0.4,0.6c0,0.1,0.1,0.1,0.1,0.2l0.6,0.8l0.8,1.2l5.5,8.8l0.1,0.2c0.4,0,0.7-0.1,0.9,0
		c0.1,0.1,0.2,0.2,0.2,0.5c0,0.2-0.1,0.4-0.2,0.6s-0.2,0.6-0.5,0.8l-0.1,0.1c-0.7,0.8-1.5,1.3-2.6,1.4c-1.2,0.1-2.3,0-3.5,0h-6.4
		H51.5H30.7h-6.6c-1.2,0-2.2,0.1-3.4,0c-0.8,0-1.4-0.4-2-0.8c-0.2,0-0.5-0.2-0.6-0.5c-0.4-0.5-0.7-0.9-0.8-1.5c0-0.1,0-0.2,0-0.4
		C17.4,80,17.6,79.7,17.7,79.7z"/>
	<path class="st6" d="M24,80.2h61l-0.5,1.1h-5.9H18.2l-0.5-1.2L24,80.2z"/>
	<path class="st7" d="M77.4,80.6c0.2,0,1.5-0.1,1.6,0c0,0.1,0.1,0.2,0.1,0.4S79,81,79,81l0,0c-0.4,0.1-0.8,0-1.2,0
		c-0.1,0-0.4,0-0.5,0c-0.1-0.1-0.1-0.1-0.1-0.2C77.3,80.7,77.4,80.7,77.4,80.6z"/>
	<path class="st4" d="M18.7,82.3c-0.1-0.2-0.4-0.5-0.6-0.7h66.3c-0.7,0.8-1.5,1.3-2.6,1.4c-1.2,0.1-2.3,0-3.5,0h-6.4H51.4H30.6H24
		c-1.2,0-2.2,0.1-3.4,0C20,83,19.3,82.8,18.7,82.3z"/>
	<path class="st8" d="M27.6,65.7V34.1h41.2h5.6l-2.5,2h-42V42l0,0c0,0.7,0,1.5,0,2.2V48v12v2.5c0,0.1,0,0.6,0,0.7s-0.4,0.4-0.5,0.5
		L28.2,65C28.1,65.1,27.9,65.5,27.6,65.7z"/>
	<path class="st9" d="M68.9,34.1h5.5h0.1h0.6v31.7H27.6c0-0.1,0,0,0-0.1c0.2-0.2,0.5-0.5,0.7-0.7l1.2-1.3c0.1-0.1,0.4-0.4,0.5-0.5
		c0-0.1,0-0.5,0-0.7V60V48.1v-3.9c0-0.7,0-1.5,0-2.2l0,0v21.3h34.1H70h1.9c0.2,0,0.6,0,0.8,0c0.1,0,0.2-0.1,0.2-0.2
		c0-0.1,0-0.2,0-0.4v-0.9v-3.7V43.6v-4.3v-2.1c0-0.2,0-0.7,0-0.9c-0.1-0.1-0.6,0-0.7,0l2.5-2L68.9,34.1z"/>
	
		<linearGradient id="SVGID_1_" gradientUnits="userSpaceOnUse" x1="56.9376" y1="1032.832" x2="48.7898" y2="1060.3262" gradientTransform="matrix(1 0 0 1 0 -972)">
		<stop  offset="0" style="stop-color:#626267"/>
		<stop  offset="1" style="stop-color:#7C838D"/>
	</linearGradient>
	<path class="st10" d="M27.4,66.2c0.5,0,1.1,0,1.6,0h3.3h10.5h21.5h10.9l8.4,13.5h-8.5H19L27.4,66.2z"/>
	<path class="st5" d="M43.4,74.2L43.4,74.2c0.1,0,0.4,0,0.5,0h0.8h3.4h7.1h3.7c0.1,0,0.1,0,0.1,0l0.1,0.1c0.2,0.6,0.5,1.3,0.6,2
		l0.5,1.4c0.1,0.2,0.2,0.5,0.2,0.7c0,0.1,0,0.1,0,0.1l-0.1,0.1c-0.1,0-0.4,0-0.5,0h-1.1H47.3h-3.5c-0.6,0-1.2,0-1.9,0
		c-0.1,0-0.1,0-0.2-0.1v-0.1c0-0.1,0.1-0.4,0.1-0.5l0.4-0.9l0.9-2.7C43.3,74.4,43.4,74.2,43.4,74.2z"/>
	<path class="st11" d="M43.7,74.5h15.2l1.2,3.7h-1.4H42.2L43.7,74.5z"/>
	<path class="st5" d="M29.3,67.2h44.1c0.4,0.4,0.6,0.8,0.8,1.2l1.9,3.2l0.7,1.2c0.1,0.1,0.2,0.4,0.4,0.6c0,0.1,0,0.1,0,0.2
		c0,0,0,0-0.1,0.1c-0.1,0-3.2,0-3.6,0H38.6h-9.7h-2.3c-0.4,0-0.7,0-0.9,0c-0.1,0-0.1-0.1-0.2-0.1c0-0.1,0-0.1,0-0.2
		c0.1-0.2,0.2-0.4,0.4-0.6l0.7-1.2L29.3,67.2z"/>
	<path class="st12" d="M49.5,67.8h3.9l0.1,1.5c0,0.1,0.1,0.5,0,0.6h-0.2h-4.1L49.5,67.8z"/>
	<path class="st12" d="M53.7,67.8h4c0.1,0.1,0.1,0.4,0.1,0.5l0.5,1.6h-4.4L53.7,67.8z"/>
	<path class="st12" d="M61,67.8h1.2c0.1,0,0,0,0.1,0.1l1.1,2h-2.8H59l-0.6-2.1H61z"/>
	<path class="st12" d="M62.8,67.8h4.1c0.2,0.1,0.4,0.5,0.5,0.6l1.1,1.5h-4.6L62.8,67.8z"/>
	<path class="st12" d="M47.3,67.8h1.8l-0.4,2.1h-2.8h-1.8l0.7-2.1H47.3z"/>
	<path class="st12" d="M40.2,67.8c0.6,0,4.1,0,4.2,0L43.9,69c-0.1,0.2-0.1,0.6-0.4,0.8h-0.2H39L40.2,67.8z"/>
	<path class="st12" d="M35.2,67.8h4.4l-1.2,2.1h-0.1h-4.6L35.2,67.8z"/>
	<path class="st12" d="M29.6,67.8h5.2l-1.3,2.1c0,0,0,0-0.1,0h-0.3h-0.7h-4.1L29.6,67.8z"/>
	<path class="st12" d="M67.4,67.8h5.7l1.3,2.1H69L67.4,67.8z"/>
	<path class="st12" d="M49.2,70.4h4.4c0,0.4,0.2,2.5,0.2,2.6h-0.2h-4.7L49.2,70.4z"/>
	<path class="st12" d="M33.6,70.4h4.7l-0.9,1.8c-0.1,0.2-0.2,0.6-0.5,0.8h-0.1H32L33.6,70.4z"/>
	<path class="st12" d="M54.1,70.4h4.6l0.8,2.6h-5.2L54.1,70.4z"/>
	<path class="st12" d="M64.2,70.4h4.7l1.9,2.6h-5.2L64.2,70.4z"/>
	<path class="st12" d="M38.9,70.4h4.7l-0.7,2c-0.1,0.2-0.1,0.5-0.2,0.6h-0.4h-4.8L38.9,70.4z"/>
	<path class="st12" d="M60.8,70.4h2.8L65,73h-1.8h-3.4L59,70.4H60.8z"/>
	<path class="st12" d="M44,70.4h4.7L48.4,73h-0.5h-4.8L44,70.4z"/>
	<path class="st12" d="M28,70.3h5.1l-1.6,2.6l0,0c0,0,0,0-0.1,0s-0.4,0-0.5,0H30h-3.7L28,70.3z"/>
	<path class="st12" d="M69.3,70.4h5.4l1.6,2.7h-5L69.3,70.4z"/>
	<path class="st5" d="M72,36.1c0.2,0,0.6,0,0.7,0c0.1,0.2,0.1,0.7,0,0.9v2.1v4.3V58v3.7v0.9c0,0.1,0,0.2,0,0.4s-0.1,0.2-0.2,0.2
		c-0.2,0.1-0.6,0-0.8,0h-1.9h-5.9h-34V41.9V36L72,36.1z"/>
	<path class="st4" d="M72.5,36.3L72.5,36.3L72.5,36.3l0.1,16.6v6.8v2.9c0,0.1,0,0.2-0.1,0.4c-0.1,0-0.1,0-0.2,0c-0.6,0-1.2,0-1.8,0
		h-4.1H43.1h-4.7h-8.2c-0.1,0,0,0-0.1,0V36.4L72.5,36.3z"/>
	<path class="st7" d="M68.4,36.8h3.7v1.9c0,0.2,0,0.6,0,0.7l0,0v-0.1c0-0.2,0-0.6,0-0.8V37h-0.6h-0.4c-0.4-0.1-0.8,0-1.2,0h-2.7
		c0.1-0.1,0.4,0,0.5,0L68.4,36.8z"/>
	<path class="st5" d="M54,36.8h14.3h-0.9c-0.1,0-0.4,0-0.5,0h2.7c0.4,0,0.8,0,1.2,0H56c0.2-0.1,0.6,0,0.8,0h1.6l0,0h-0.1
		c-0.2-0.1-0.6,0-0.9,0h-2.7C54.8,36.8,54.2,36.8,54,36.8z"/>
	<path class="st5" d="M71.9,62.4c0.1-0.2,0-3.4,0-3.9c0.1,0.1,0,0.5,0,0.6v2.2C72,61.6,72,62.1,71.9,62.4L71.9,62.4
		c0.1-0.2,0.1-0.5,0.1-0.6l0,0c0,0.2,0,0.5,0,0.7H33.4l0,0h6.1c0.1,0,0,0,0.1,0l0,0l0,0c-1.1,0.1-2.2,0-3.4,0h-0.8
		c-0.1,0-0.2,0-0.2,0l0,0h-0.1H35c-0.4,0-2.3-0.1-2.6,0l0,0h-0.1c0,0,0,0-0.1,0s-1.2,0-1.2,0c-0.1,0-0.2,0-0.4-0.1v-0.5
		c0-0.2,0-0.5,0-0.6c0,0.2-0.1,0.8,0,1.1c0.2,0.1,0.6,0,0.8,0H33h6.2c0.9,0.1,1.9,0,2.9,0h5.2h16.2h6.3h1.4
		C71.5,62.4,71.8,62.4,71.9,62.4z"/>
	<path class="st13" d="M30.8,39.2L30.8,39.2c0-0.2,0-0.2,0-0.3c0-0.2,0-0.5,0-0.7s0-0.5,0-0.7c0-0.1,0-0.4,0-0.5l0,0l0,0
		c-0.1,0.1,0,0.8-0.1,1.1v-1.2c0.1-0.1,2.7,0,3,0h7.5h4.6h2.1h6.2c0.2,0.1,0.8,0,1.1,0h2.7c0.2,0,0.6,0,0.9,0h0.1l0,0h-1.6
		c-0.2,0-0.6,0-0.8,0h14.8h0.5h0.6v1.5c0,0.2,0,0.6,0,0.8v0.1v23.2c-0.1,0-0.4,0-0.6,0h-1.4h-6.3H47.8h-5.2c-0.9,0-2,0-2.9,0
		c0.1,0,0.2,0,0.4-0.1c0.9-0.6,1.9-1.4,2.8-2.1l5.5-4.4l13.8-11.1l6.7-5.4c-0.4,0-0.8,0-1.2,0h-2.2h-7.6h-17L30.8,39.2V43V39.2z"/>
	<path class="st5" d="M30.8,39.2L30.8,39.2c0-0.2,0-0.2,0-0.3c0-0.2,0-0.5,0-0.7s0-0.5,0-0.7c0-0.1,0-0.4,0-0.5l0,0l0,0
		c-0.1,0.1,0,0.8-0.1,1.1v-1.2c0.1-0.1,2.7,0,3,0h7.5l0,0c-0.4,0.1-0.8,0-1.2,0h-2.8c-0.5,0-0.8,0-1.3,0h-0.4l0,0h8.1h4.8h1.3
		c0.2,0,0.5,0,0.6,0s0.2,0,0.4,0H30.9L30.8,39.2z"/>
	<path class="st7" d="M47.8,36.8H54c0.2,0.1,0.8,0,1.1,0h2.7c0.2,0,0.6,0,0.9,0h0.1l0,0h-1.7c-0.2,0-0.6,0-0.8,0h-5.6
		c-0.1,0-0.2,0-0.4,0s-0.5,0-0.6,0h-1.3h-4.8h-8.1l0,0h0.4c0.5,0,0.8,0,1.3,0H40c0.4,0,0.8,0,1.2,0l0,0h4.6H47.8z"/>
	
		<linearGradient id="SVGID_00000055690539564797463090000001384333809045698715_" gradientUnits="userSpaceOnUse" x1="68.672" y1="1010.8521" x2="72.1793" y2="1009.8834" gradientTransform="matrix(1 0 0 1 0 -972)">
		<stop  offset="0" style="stop-color:#092537"/>
		<stop  offset="1" style="stop-color:#0A3B40"/>
	</linearGradient>
	<path style="fill:url(#SVGID_00000055690539564797463090000001384333809045698715_);" d="M71.4,36.8H72v1.5c0,0.2,0,0.6,0,0.8v0.1
		h-3.4l2.2-1.8C70.8,37.2,71.3,37,71.4,36.8z"/>
	<path class="st15" d="M30.8,42.9v-3.7h9.6h17H65h2.2c0.4,0,0.8,0,1.2,0l-6.7,5.4l-13.8,11L42.4,60c-0.9,0.7-1.8,1.5-2.8,2.1
		c-0.1,0.1-0.2,0.1-0.4,0.1H33h-1.6c-0.2,0-0.6,0-0.8,0L30.8,42.9z"/>
</g>
</svg>
