<?xml version="1.0" encoding="utf-8"?>
<!-- Generator: Adobe Illustrator 27.1.1, SVG Export Plug-In . SVG Version: 6.00 Build 0)  -->
<svg version="1.1" id="Слой_1" xmlns="http://www.w3.org/2000/svg" xmlns:xlink="http://www.w3.org/1999/xlink" x="0px" y="0px"
	 viewBox="0 0 108 108" style="enable-background:new 0 0 108 108;" xml:space="preserve">
<style type="text/css">
	.st0{fill-rule:evenodd;clip-rule:evenodd;fill:#E3E3E3;}
	.st1{fill-rule:evenodd;clip-rule:evenodd;fill:#FFFFFF;filter:url(#Adobe_OpacityMaskFilter);}
	.st2{mask:url(#path-2-inside-1_129_11564_00000137128640450597883500000012398019325630210713_);fill:#393931;}
	.st3{fill:#484D51;stroke:#000000;stroke-linejoin:round;}
	.st4{fill:#1D1F20;stroke:#000000;stroke-linejoin:round;}
	.st5{fill:#0DFCF0;stroke:#000000;stroke-linejoin:round;}
	.st6{fill:#2E3032;stroke:#000000;stroke-linejoin:round;}
	.st7{fill:url(#SVGID_1_);stroke:#000000;stroke-linejoin:round;}
	.st8{fill:#818C96;stroke:#000000;stroke-linejoin:round;}
	.st9{fill:#64676B;stroke:#000000;stroke-linejoin:round;}
	.st10{fill:#DFA715;stroke:#000000;stroke-linejoin:round;}
	.st11{fill:#AEC1D3;stroke:#000000;stroke-linejoin:round;}
	.st12{fill:url(#SVGID_00000060751021985918480090000004251991010832808588_);stroke:#000000;stroke-linejoin:round;}
	.st13{fill:url(#SVGID_00000068640343356100288230000008491887572661556874_);stroke:#000000;stroke-linejoin:round;}
	.st14{fill:url(#SVGID_00000130615039983323146910000015482034132775976327_);stroke:#000000;stroke-linejoin:round;}
	.st15{fill:#90A7D3;stroke:#000000;stroke-linejoin:round;}
	.st16{fill:#9E1217;stroke:#000000;stroke-linejoin:round;}
	.st17{fill:url(#SVGID_00000136383858471042453960000010045945016450665128_);stroke:#000000;stroke-linejoin:round;}
	.st18{fill:#EA2128;stroke:#000000;stroke-linejoin:round;}
	.st19{fill:#7B7C83;stroke:#000000;stroke-linejoin:round;}
	.st20{fill:#DADBDB;stroke:#000000;stroke-linejoin:round;}
	.st21{fill:#F2A2A7;stroke:#000000;stroke-linejoin:round;}
	.st22{fill:url(#SVGID_00000116917392216567256120000005596701524027109040_);stroke:#000000;stroke-linejoin:round;}
	.st23{fill:#030302;stroke:#000000;stroke-linejoin:round;}
	.st24{fill:#FC5757;stroke:#000000;stroke-linejoin:round;}
	.st25{fill:#60ADB8;stroke:#000000;stroke-linejoin:round;}
	.st26{fill:#580E0F;stroke:#000000;stroke-linejoin:round;}
	.st27{fill:#BCBBBA;stroke:#000000;stroke-linejoin:round;}
	.st28{fill:#484D51;}
	.st29{fill:#1D1F20;}
	.st30{fill:#00F3FF;}
	.st31{fill:#2E3032;}
	.st32{fill:#1F7B9B;}
	.st33{fill:#818C96;}
	.st34{fill:#494B63;}
	.st35{fill:#64676B;}
	.st36{fill:#5EDAF7;}
	.st37{fill:#AEC1D3;}
	.st38{fill:url(#SVGID_00000154393965671514015690000011351338748942024079_);}
	.st39{fill:url(#SVGID_00000178901795261263714670000002592661624669836930_);}
	.st40{fill:#90A7D3;}
	.st41{fill:#20841E;}
	.st42{fill:url(#SVGID_00000114784573104621677560000002148941161641724288_);}
	.st43{fill:#23E82D;}
	.st44{fill:#7B7C83;}
	.st45{fill:#DADBDB;}
	.st46{fill:url(#SVGID_00000170996549222292046430000007124592612891519390_);}
	.st47{fill:#F2A2A7;}
	.st48{fill:url(#SVGID_00000036212977237611112660000010981254164810469295_);}
	.st49{fill:#030302;}
	.st50{fill:#46A508;}
	.st51{fill:#84F255;}
	.st52{fill:#20E0EF;}
	.st53{fill:#7CB3E0;}
	.st54{fill:#0F5626;}
	.st55{fill:#BCBBBA;}
	.st56{fill:#66FECB;}
	.st57{fill:url(#SVGID_00000103230623843888908450000001559456455212702117_);}
	.st58{fill:#5EDEB3;}
	.st59{fill:#01B478;}
	.st60{fill:#1DCE92;}
	.st61{fill:#2AFFB7;}
	.st62{fill:#FFFFFF;}
	.st63{fill:#441F00;}
	.st64{fill:url(#SVGID_00000173870313060566385210000014411791564742718892_);}
	.st65{opacity:0.6;fill:#282828;enable-background:new    ;}
	.st66{fill:url(#SVGID_00000045620306797761464820000008504743001342938516_);}
	.st67{fill-rule:evenodd;clip-rule:evenodd;fill:#441F00;}
	.st68{fill:url(#SVGID_00000044144263725058941250000007047719772037555584_);}
	.st69{fill:url(#SVGID_00000141442398102213520850000008115165714805488811_);}
</style>
<path class="st0" d="M76,12c0-6.6-5.4-12-12-12H12C5.4,0,0,5.4,0,12v84c0,6.6,5.4,12,12,12h84c6.6,0,12-5.4,12-12V44
	c0-6.6-5.4-12-12-12h-8c-6.6,0-12-5.4-12-12V12z"/>
<defs>
	<filter id="Adobe_OpacityMaskFilter" filterUnits="userSpaceOnUse" x="-1" y="-1" width="110" height="110">
		<feColorMatrix  type="matrix" values="1 0 0 0 0  0 1 0 0 0  0 0 1 0 0  0 0 0 1 0"/>
	</filter>
</defs>
<mask maskUnits="userSpaceOnUse" x="-1" y="-1" width="110" height="110" id="path-2-inside-1_129_11564_00000137128640450597883500000012398019325630210713_">
	<path class="st1" d="M76,12c0-6.6-5.4-12-12-12H12C5.4,0,0,5.4,0,12v84c0,6.6,5.4,12,12,12h84c6.6,0,12-5.4,12-12V44
		c0-6.6-5.4-12-12-12h-8c-6.6,0-12-5.4-12-12V12z"/>
</mask>
<path class="st2" d="M12,1h52v-2H12V1z M1,96V12h-2v84H1z M96,107H12v2h84V107z M107,44v52h2V44H107z M96,31h-8v2h8V31z M77,20v-8
	h-2v8H77z M88,31c-6.1,0-11-4.9-11-11h-2c0,7.2,5.8,13,13,13V31z M109,44c0-7.2-5.8-13-13-13v2c6.1,0,11,4.9,11,11H109z M96,109
	c7.2,0,13-5.8,13-13h-2c0,6.1-4.9,11-11,11V109z M-1,96c0,7.2,5.8,13,13,13v-2c-6.1,0-11-4.9-11-11H-1z M64,1c6.1,0,11,4.9,11,11h2
	c0-7.2-5.8-13-13-13V1z M12-1C4.8-1-1,4.8-1,12h2C1,5.9,5.9,1,12,1V-1z"/>
<g>
	<path class="st3" d="M80.9,60.2c0,0.3-0.2,0.6-0.3,0.9l-0.8,2.1c-0.1,0.2-0.3,0.5-0.3,0.7l0,0c-0.1-0.2,0.1-0.7,0.2-0.9
		C80,62.1,80.4,61,80.9,60.2z"/>
	<path class="st4" d="M42.2,72.3L42.2,72.3C42.3,72.3,42.3,72.3,42.2,72.3c0.1,0.1,0.1,0.2,0.1,0.3v0.7v3.8V77c-0.1,0-0.1,0-0.1,0
		c0-0.6,0-1.2,0-1.8v-2C42.2,72.9,42.1,72.6,42.2,72.3z"/>
	<path class="st5" d="M28.4,53.1L28.4,53.1l-0.1-1h2.1v0.1c-0.1,0.3,0,0.7,0,1L28.4,53.1z"/>
	<path class="st5" d="M29.5,54.8h0.9c0,0.3-0.1,0.8,0,1h-2.1v-1H29.5z"/>
	<path class="st5" d="M30.5,57.4L30.5,57.4v1.1h-2.1c-0.1-0.2-0.1-0.8,0-1.1H30.5z"/>
	<path class="st5" d="M28.3,60h2.1v1.1h-2.1V60z"/>
	<path class="st5" d="M30.4,63.7c-0.2,0-0.5,0-0.7,0h-1.4v-1.1h2.2C30.4,62.9,30.4,63.3,30.4,63.7z"/>
	<path class="st4" d="M37.5,77.6h1.4l-6,2.6c-0.4,0.1-0.7,0.3-1.2,0.4c0.2-0.1,0.4-0.2,0.6-0.3l1.2-0.6l1.3-0.8l1.4-0.7
		C36.6,78,37.1,77.8,37.5,77.6z"/>
	<path class="st6" d="M27.8,55.6c-0.1-0.6,0-1.3,0-1.9v-1.4c0-0.2,0-0.4,0-0.6v1.7h2.6c0,0.3-0.1,0.8,0,1.1h-2.6
		C27.9,54.9,27.9,55.3,27.8,55.6z"/>
	
		<linearGradient id="SVGID_1_" gradientUnits="userSpaceOnUse" x1="33.7731" y1="557.6367" x2="32.0811" y2="557.6431" gradientTransform="matrix(1 0 0 1 0 -484)">
		<stop  offset="0" style="stop-color:#CC890B"/>
		<stop  offset="1" style="stop-color:#AF6E0F"/>
	</linearGradient>
	<path class="st7" d="M32,71.8l1.9,2l-1.7,1.6L32,71.8z"/>
	<path class="st4" d="M21.4,76.7h2.2V79h-2.2c0-0.5,0-1,0-1.4C21.4,77.3,21.5,77,21.4,76.7z"/>
	<path class="st8" d="M75.3,44c0.1-0.1,0.3,0,0.4,0h0.9h3.1l0,0c-0.4,0.1-0.8,0-1.2,0c-0.1,0-0.3,0-0.3,0s-0.1,0.1-0.2,0.2l-0.5,0.5
		l-1.3,1.2c-0.4,0.4-0.8,0.7-1.2,1.1l0,0l0,0c-0.2-0.2-0.5-0.4-0.6-0.6c-0.1-0.1-0.2-0.2-0.3-0.2L75.3,44z"/>
	<path class="st9" d="M75.3,44c0.1-0.1,0.3,0,0.4,0h0.9h3.1l0,0c-0.4,0.1-0.8,0-1.2,0c-0.1,0-0.3,0-0.3,0s-0.1,0.1-0.2,0.2l-0.5,0.5
		l-1.3,1.2c-0.4,0.4-0.8,0.7-1.2,1.1l0,0l0,0c-0.2-0.2-0.5-0.4-0.6-0.6l3.5-2.4H75.3z"/>
	<path class="st4" d="M37.7,41.6v1.8l-5.9,5.8h-0.1l0,0c0-0.1,0-0.3,0.1-0.4c0.5-0.8,1.2-1.5,1.8-2.1C35,45,36.4,43.4,37.7,41.6z"/>
	<path class="st9" d="M28.1,36c0.1,0,0.3,0.1,0.4,0.1l1,0.4l1.4,0.5l6.3,2.2l3.4,1.2h-2.1c-0.3,0-0.6,0-0.9,0
		c-0.3-0.1-0.6-0.2-0.9-0.4l-2-0.9C32.6,38.1,30.2,37.1,28.1,36z"/>
	<path class="st4" d="M76.1,72.3h1.3c0.2,0.2,0.4,0.6,0.6,0.9l1.7,2.7c0.2,0.3,0.5,0.7,0.6,1h-0.1h-1.4l-1.7-2.7l-0.8-1.3
		c-0.1-0.1-0.3-0.4-0.3-0.5L76.1,72.3z"/>
	<path class="st9" d="M31.6,39.9l1.1,0.7c0.1,0.1,0.3,0.2,0.3,0.2c0.1,0,0.2,0,0.3,0l1.3-0.2c0.6-0.1,1.3-0.1,2-0.3l0,0l1.2,0.5
		l-0.3,0.4c-0.3,0.1-0.6,0.4-0.9,0.6c-0.6,0.4-1.1,0.8-1.7,1.1L33,41.3l-0.8-0.7c-0.1-0.1-0.3-0.2-0.4-0.4
		C31.6,40.2,31.6,40,31.6,39.9z"/>
	<path class="st10" d="M28.3,46.1c0-0.2-0.1-1.2,0-1.3c0-0.1,0.2-0.2,0.2-0.3l0.7-0.9l2.2-2.8l1.6,1.4L28.3,46.1L28.3,46.1z"/>
	<path class="st6" d="M43,75.6V75h16.3l0.3,0.5l-7.5,0.1h-0.6c-0.1,0-0.3,0-0.4,0H50h-4.9h-1.5C43.5,75.6,43.2,75.7,43,75.6z"/>
	<path class="st11" d="M62.1,57.8l3.2,1.5c0.5,0.2,1.1,0.4,1.5,0.7c0.3,0.1,0.5,0.4,0.7,0.5c0.3,0.2,0.7,0.4,1.1,0.6L68,61.2
		l-2.6,0.4c-0.3,0.1-0.8,0.2-1.1,0.2L62.1,57.8z"/>
	
		<linearGradient id="SVGID_00000012466054785524485190000004173318739253584789_" gradientUnits="userSpaceOnUse" x1="69.2549" y1="538.4384" x2="69.785" y2="533.3651" gradientTransform="matrix(1 0 0 1 0 -484)">
		<stop  offset="0" style="stop-color:#5BB6CE"/>
		<stop  offset="1" style="stop-color:#F3EFF0"/>
	</linearGradient>
	<path style="fill:url(#SVGID_00000012466054785524485190000004173318739253584789_);stroke:#000000;stroke-linejoin:round;" d="
		M67.5,49.6c0.2-0.1,3.9,0,4.5,0l-0.9,0.9L71,50.6l-2.2,2.1c-0.5,0.5-1,1-1.4,1.5v0.1c0-0.4,0-0.8,0-1.2v-2.2
		C67.4,50.4,67.4,50,67.5,49.6z"/>
	<path class="st11" d="M63.7,53.5l2.7,5.8l-1.3-0.5l-3.3-1.5L63.7,53.5z"/>
	<path class="st11" d="M73.6,55.6c0.4,0.2,0.8,0.5,1.1,0.7l2.9,1.7l-1.7,2.8c-0.4,0.6-0.8,1.2-1.3,1.7c-0.1-0.5-0.1-1.1-0.1-1.7
		C74.4,59.1,74.2,57.3,73.6,55.6z"/>
	
		<linearGradient id="SVGID_00000053525696545385048180000005139220571260015531_" gradientUnits="userSpaceOnUse" x1="31.4793" y1="530.1464" x2="30.2302" y2="528.3925" gradientTransform="matrix(1 0 0 1 0 -484)">
		<stop  offset="0" style="stop-color:#D38D0A"/>
		<stop  offset="1" style="stop-color:#C27313"/>
	</linearGradient>
	<path style="fill:url(#SVGID_00000053525696545385048180000005139220571260015531_);stroke:#000000;stroke-linejoin:round;" d="
		M33.2,42.2l1.2,1.1l-6.1,5.3v-2.4l0.1,0.1L33.2,42.2z"/>
	
		<linearGradient id="SVGID_00000062165649892613820350000000200860945539161494_" gradientUnits="userSpaceOnUse" x1="64.413" y1="540.415" x2="67.9775" y2="534.3284" gradientTransform="matrix(1 0 0 1 0 -484)">
		<stop  offset="0" style="stop-color:#6B98CD"/>
		<stop  offset="1" style="stop-color:#C1E9E3"/>
	</linearGradient>
	<path style="fill:url(#SVGID_00000062165649892613820350000000200860945539161494_);stroke:#000000;stroke-linejoin:round;" d="
		M64.5,52.4l1.6-1.8c0.3-0.3,0.6-0.7,0.9-0.9l-0.1,2.8c0,0.2,0,0.4,0,0.6v1.3c0,0.2,0,0.5,0,0.6c-0.1,0.2-0.2,0.4-0.3,0.6
		c-0.3,0.6-0.5,1.2-0.5,1.9L64,53L64.5,52.4z"/>
	<path class="st15" d="M72.4,49.7l3.3,2.8l-4.8,0.7c-1,0.1-1.8,0.3-2.7,0.7L72.4,49.7z"/>
	<path class="st11" d="M73.8,58.2c0.1,0.5,0.2,1,0.2,1.5l0.2,3.4l-0.8,0.8l-0.2,0.2c-0.1,0.1-0.5,0-0.7,0L70,64.2h-0.5l1.8-2.3
		c0.7-0.8,1.5-1.7,2-2.7C73.5,59,73.6,58.6,73.8,58.2z"/>
	<path class="st11" d="M75.9,52.9c0.3,0.6,0.5,1.3,0.8,1.9c0.4,0.9,0.8,1.9,1.1,2.9l-3.1-1.8l-2.1-1.3c-0.6-0.3-1.1-0.6-1.7-0.9
		L75.9,52.9z"/>
	<path class="st15" d="M71.5,60.9L71.5,60.9L71.5,60.9l-2.6,3.5L67,64.5l-1.1-1.1l-1.3-1.3l4.5-0.7C70,61.3,70.7,61.2,71.5,60.9z"/>
	<path class="st6" d="M37.9,72.1c0.3-0.1,0.7,0,1,0h2.7v5h-0.5c0-0.4,0.1-2.3-0.1-2.6c-0.1-0.1-0.2-0.2-0.4-0.2
		c-0.2,0-0.3,0-0.4,0.1c-0.2,0.2-0.2,0.7-0.2,1V77h-0.5v-1.5c0-0.3,0-0.6,0-0.8c0-0.1-0.1-0.2-0.1-0.2c-0.1-0.1-0.2-0.2-0.3-0.2
		c-0.1,0-0.2,0-0.3,0.1c-0.1,0.1-0.2,0.2-0.2,0.3c-0.1,0.3,0,0.6,0,0.8V77h-0.5C37.9,76.4,38,72.5,37.9,72.1L37.9,72.1z"/>
	<path class="st16" d="M64.2,62.3l2.6,2.5l-1.1,2.3l-1-0.7l-3.4-2.1L64.2,62.3z"/>
	<path class="st16" d="M75.8,61.9l3,1.8l-3.3,2.4L74.1,67l-0.7-2.4C74.3,63.8,75,62.9,75.8,61.9z"/>
	
		<linearGradient id="SVGID_00000149381227406829944310000013204101700335723705_" gradientUnits="userSpaceOnUse" x1="30.9451" y1="525.0681" x2="30.3164" y2="518.2495" gradientTransform="matrix(1 0 0 1 0 -484)">
		<stop  offset="0" style="stop-color:#A19EA1"/>
		<stop  offset="1" style="stop-color:#C2C3C1"/>
	</linearGradient>
	<path style="fill:url(#SVGID_00000149381227406829944310000013204101700335723705_);stroke:#000000;stroke-linejoin:round;" d="
		M25.6,35.6c-0.4-0.3-0.8-0.6-1.1-0.9l1.4,0.6l10.8,5l0,0c-0.6,0.1-1.3,0.2-2,0.3l-1.3,0.2c-0.1,0-0.2,0.1-0.3,0
		c-0.1,0-0.3-0.2-0.3-0.2l-1.1-0.7c-0.1-0.1-0.3-0.2-0.4-0.3l-1-0.7l-2.8-2C26.8,36.5,26.1,36.1,25.6,35.6z"/>
	<path class="st16" d="M60.2,51.8l3.3,1.3l-1.7,3.7l-0.3,0.5l-2.1,0.4l0.4-2.6C59.9,54,59.9,52.8,60.2,51.8z"/>
	<path class="st18" d="M79.1,52C79.2,52,79.1,52,79.1,52l1.7,5.6c-0.3,0-2.4,0.1-2.5,0c0,0-0.1,0-0.1-0.1l-1.8-4.7L79.1,52z"/>
	<path class="st16" d="M78.9,58h2L79,63.4L78.3,63L76,61.6l2.1-3.5L78.9,58z"/>
	<path class="st3" d="M77.9,72.3h6.5c-0.1,0.2-0.3,0.4-0.5,0.6l-1.6,1.9l-1.7,2.1L77.9,72.3z"/>
	<path class="st19" d="M68.8,43.9h6l-1.1,2.2H72h-6L68.8,43.9z"/>
	<path class="st18" d="M66,46.6h7.6l-0.9,1.6L72.2,49H67L66,46.6z"/>
	<path class="st16" d="M61.2,57.8c0.1,0,0.1,0,0.2,0c0.3,0.4,0.5,0.9,0.8,1.4l1.6,2.8l-2.3,1.6L60.9,64l-1.6-5.9L61.2,57.8z"/>
	<path class="st18" d="M73.9,46.7l5.1,4.9l-1.7,0.5l-1.1,0.3l-2.6-2.3l-0.7-0.6c-0.1-0.1-0.2-0.2-0.3-0.3L73.9,46.7z"/>
	<path class="st6" d="M27.8,56H30h0.4c0.1,0.2,0,0.8,0.1,1.1h-2.6v1.5h0.7h0.1c0.4,0,0.7,0,1.1,0c0.2,0,0.5,0,0.7,0v1.1h-1.8
		c-0.2,0-0.6-0.1-0.8,0c-0.1,0.3,0,1.2,0,1.6h2.6c0.1,0.3,0,0.8,0.1,1.1H28V64h2.8c0.1,0.2,0.1,0.7,0.1,0.9c0.1,1.1,0.2,2.1,0.3,3.2
		L31,67.9l-2.4-2.5l-0.5-0.5L28,64.8c0-0.1,0-0.4,0-0.6v-1.9v-1.6L27.8,56z"/>
	<path class="st10" d="M32.2,75.3c-0.2,0.1-0.3,0.3-0.5,0.4l-2.9-3c-0.1-0.1-0.4-0.3-0.4-0.5V72v-0.6v-3.6l3.7,3.8L32.2,75.3z"/>
	<path class="st18" d="M65.6,46.7l1.2,2.5c-0.5,0.5-1,1.1-1.5,1.6l-1.7,1.9l-1.3-0.6l-1.8-0.7L65.6,46.7z"/>
	<path class="st20" d="M33.6,59l-0.8-0.1l18-10.2l-0.6,1.6L33.6,59z"/>
	<path class="st3" d="M80,52.6l4-2.8l0.5-0.4c0.1,0,0.2-0.1,0.2-0.2V49v1.3c0,0.2,0,0.4,0,0.6c-0.1,0.3-0.2,0.6-0.4,0.8l-0.7,1.5
		l-2.8,6.2c0-0.1,0.1-0.3,0.1-0.4l0.4-1c0-0.1,0-0.1,0-0.2c-0.1-0.6-0.3-1.3-0.5-1.9L80,52.6z"/>
	<path class="st6" d="M34.8,43c0.6-0.3,1.2-0.7,1.7-1.1c0.3-0.2,0.6-0.4,0.9-0.6c-0.4,0.7-1,1.3-1.5,2l-3.4,4.1l-0.9,1
		c-0.1,0.1-0.2,0.2-0.3,0.3c-0.4,0.4-0.8,0.8-0.8,1.3v1.7h-1.8c-0.2,0-0.6,0-0.7,0l0,0v-2.2l7.2-6.3L34.8,43z"/>
	<path class="st16" d="M72.5,64.6h0.4l0.8,2.6c-2.1,0.4-4.2,0.6-6.3,0.4l-1.3-0.2c0-0.3,0.3-0.6,0.4-0.8l0.8-1.6L72.5,64.6z"/>
	<path class="st9" d="M34.1,74.2l0.8,0.9c0.1,0.1,0.6,0.5,0.6,0.7c-0.7,0.6-1.4,1.1-2.1,1.6l-2.6,1.9l-5.1,3.6
		c-0.5,0.3-1,0.6-1.5,0.9v-0.7c0.3-0.4,0.7-0.7,1.1-1l2.1-1.8l3.6-3.2L34.1,74.2z"/>
	<path class="st8" d="M83.8,43.9c0.1,0,0.2,0,0.3,0c0.1,0,0.3,0.2,0.3,0.3l0,0l-0.1,0.1c-0.3,0.4-0.8,0.6-1.1,0.9L83,45.1
		c-0.4-0.2-0.8-0.3-1.2-0.2c-0.3,0.1-0.5,0.3-0.7,0.5c-0.3,0.1-0.5,0.4-0.7,0.6l-3.7,2.6L75,47l0,0l0,0c0.3-0.4,0.8-0.8,1.2-1.1
		l1.3-1.2l0.5-0.5c0,0,0.1-0.1,0.2-0.2c0.1,0,0.3,0,0.3,0c0.4,0,0.8,0,1.2,0l0,0c0.4-0.1,0.9,0,1.3,0L83.8,43.9z"/>
	<path class="st19" d="M83.8,43.9c0.1,0,0.2,0,0.3,0c0.1,0,0.3,0.2,0.3,0.3l0,0l-0.1,0.1c-0.3,0.4-0.8,0.6-1.1,0.9L83,45.1
		c0,0,0,0,0-0.1c0.2-0.5,0.6-0.8,1-1.1l0,0L83.8,43.9z"/>
	<path class="st3" d="M79.8,64.2c0.5-0.5,1.1-1,1.7-1.4l3.4-2.8v8L79.8,64.2z"/>
	<path class="st3" d="M69.6,70.4l0.8-1.8c0.1-0.1,0.1-0.4,0.2-0.5h0.2c0.9-0.1,1.9-0.1,2.8-0.4c1.1-0.3,2.2-1.2,3.1-1.9l2.3-1.7
		c0.4,0.4,0.8,0.7,1.3,1l1.9,1.4L69.6,70.4z"/>
	<path class="st6" d="M31,68.2l6.4,6.9v1.3c0,0.2,0,0.4,0,0.6l-9.8,5.2v-0.1c0.9-0.6,1.8-1.3,2.6-1.9l1.8-1.4c1-0.7,1.9-1.4,2.8-2.2
		c0.3-0.3,0.6-0.5,0.8-0.8v-0.1c0-0.2-0.5-0.5-0.6-0.7l-0.8-0.9l0.4-0.4L31.1,70C31.1,69.5,31.1,68.8,31,68.2z"/>
	<path class="st9" d="M80.9,60.2c0.1-0.2,0.3-0.5,0.4-0.8l1-2.1l2.6-5.6V60l-3.4,2.8c-0.5,0.4-1.2,0.9-1.7,1.4l-0.3-0.3
		c0-0.2,0.2-0.5,0.3-0.7l0.8-2.1C80.7,60.8,80.9,60.5,80.9,60.2z"/>
	<path class="st3" d="M53.5,51.2L51.7,48l3.1-4.1h9H67h0.8c0.1,0,0.3,0,0.4,0h-9.3L53.5,51.2z"/>
	<path class="st6" d="M67.3,68.1L67.3,68.1c0.4,0.1,0.8,0,1.2,0h1.7l-1.8,3.7c-0.4,0-0.8,0-1.2,0h-2.4h-8.4c0.1-0.2,0.2-0.4,0.4-0.6
		l0,0c0.1,0,0.2,0,0.4-0.1l0.9-0.2l3.9-1c1.5-0.4,3.1-0.8,4.5-1.4C66.8,68.5,67.2,68.4,67.3,68.1L67.3,68.1z"/>
	<path class="st3" d="M56.8,71.3l4.3-6.5c1.2,0.7,2.3,1.6,3.5,2.4c0.4,0.2,0.8,0.5,1.2,0.7c0.5,0.2,1,0.3,1.5,0.3l0.1,0.1
		c-0.2,0.2-0.6,0.3-0.8,0.4c-1.5,0.6-3,1-4.5,1.4l-3.9,1l-0.9,0.2C57.1,71.2,57,71.3,56.8,71.3L56.8,71.3z"/>
	<path class="st9" d="M39,43.9h15.2l-1.7,2.2l-1.3,1.7L39,43.9z"/>
	<path class="st3" d="M22.8,40.2h0.9v36h-1.5c-0.1,0-0.4,0-0.5,0h1.1V40.2z"/>
	<path class="st18" d="M69.4,54c0.9-0.1,1.8,0.2,2.5,0.7c0.7,0.4,1.2,1.1,1.4,1.9c0.2,0.9,0,1.7-0.4,2.5c-0.5,0.9-1.3,1.3-2.2,1.6
		c-1,0.2-1.7,0-2.5-0.5c-0.7-0.4-1.3-1.2-1.4-2v-0.1V58c-0.2-0.9,0-1.7,0.5-2.5C67.7,54.7,68.4,54.2,69.4,54z"/>
	<path class="st21" d="M70.4,54.6c0.3,0,0.7,0,1,0.1c0.6,0.2,1,0.7,1.3,1.3c0.2,0.4,0.2,0.8,0,1.2s-0.5,0.6-0.9,0.7
		c-0.4,0.1-0.8,0-1.2-0.2c-0.5-0.2-0.9-0.6-1-1.1c-0.2-0.4-0.2-0.9,0-1.2C69.7,55,70,54.8,70.4,54.6z"/>
	
		<linearGradient id="SVGID_00000009585301823067651000000010040232348177694897_" gradientUnits="userSpaceOnUse" x1="77.1514" y1="533.8495" x2="85.5464" y2="531.6462" gradientTransform="matrix(1 0 0 1 0 -484)">
		<stop  offset="0" style="stop-color:#606166"/>
		<stop  offset="1" style="stop-color:#848586"/>
	</linearGradient>
	<path style="fill:url(#SVGID_00000009585301823067651000000010040232348177694897_);stroke:#000000;stroke-linejoin:round;" d="
		M84.5,44.2l0.3,0.3v3.1v1.5v0.2c0,0.1-0.2,0.1-0.2,0.2l-0.5,0.4l-4,2.8L80,52.3l-0.1-0.4c0-0.1,0-0.1-0.1-0.2
		c-0.2-0.3-0.5-0.5-0.8-0.8l-2.2-2.1l3.7-2.6c0.2-0.2,0.4-0.4,0.7-0.6c0.2-0.2,0.4-0.4,0.7-0.5c0.4-0.1,0.8,0,1.2,0.2l0.2,0.1
		c0.4-0.3,0.8-0.6,1.1-0.9L84.5,44.2L84.5,44.2z"/>
	<path class="st3" d="M80.4,46c0.2-0.2,0.4-0.4,0.7-0.6c-0.2,0.5-0.4,0.9-0.2,1.4c0.1,0.4,0.5,0.7,0.8,0.8s0.6,0.1,0.9,0
		c0.4-0.2,0.8-0.5,0.9-1c0-0.1,0.1-0.3,0.1-0.4l0,0l0,0c0.1,0.1,0.1,0.2,0,0.3c-0.1,0.7-0.8,1.3-1.3,1.7c-0.4,0.3-0.8,0.4-1.3,0.3
		c-0.4-0.1-0.7-0.3-0.9-0.7c-0.2-0.3-0.2-0.8-0.1-1.1l0,0C80.2,46.5,80.3,46.3,80.4,46z"/>
	<path class="st9" d="M79.9,52.2c1.4-1.3,2.7-2.8,4.2-4c0.2-0.2,0.5-0.5,0.7-0.6v1.5v0.2c0,0.1-0.2,0.1-0.2,0.2l-0.5,0.4l-4,2.8
		L79.9,52.2z"/>
	<path class="st23" d="M81.1,45.5c0.2-0.2,0.4-0.4,0.7-0.5c0.4-0.1,0.8,0,1.2,0.2l0.2,0.1c0.2,0.3,0.5,0.7,0.4,1.1
		c0,0.1,0,0.3-0.1,0.4c-0.1,0.4-0.5,0.8-0.9,1c-0.3,0.1-0.6,0.2-0.9,0c-0.3-0.1-0.7-0.5-0.8-0.8C80.7,46.4,80.8,46,81.1,45.5z"/>
	<path class="st18" d="M83.1,46c0.1,0.3,0.1,0.5-0.1,0.8s-0.5,0.4-0.8,0.5c-0.3-0.1-0.6-0.2-0.8-0.6c0-0.1-0.1-0.2-0.1-0.3
		c0.3,0,1.6,0.1,1.7,0C83,46.3,83,46.2,83.1,46L83.1,46z"/>
	<path class="st24" d="M81.3,46.5c0-0.2,0-0.3,0-0.5c0.1-0.3,0.3-0.5,0.5-0.6s0.4-0.1,0.6,0c0.3,0.1,0.5,0.4,0.6,0.6v0.1
		c0,0.1,0,0.2,0,0.4C82.9,46.5,81.6,46.5,81.3,46.5z"/>
	<path class="st9" d="M31.9,60.1l6.9,8.3l2.1,2.6c0.2,0.3,0.6,0.6,0.7,0.9h-0.1c-0.4,0-3.8,0-3.9,0c-0.5-0.5-0.9-1-1.3-1.5l-2.8-3.3
		l-1.2-1.3c-0.1-0.1-0.3-0.3-0.3-0.4c0-0.1,0-0.2,0-0.3v-0.9L31.9,60.1z"/>
	<path class="st25" d="M21.7,76.2c-0.1-0.2,0-0.4,0-0.5v-1.2v-4.6V40.3h1.1v35.9L21.7,76.2z"/>
	<path class="st9" d="M54.1,52.1L56,51l6.4-3.6l5-2.9c0.1,0,0.1,0,0.2,0l-2.3,1.9l-1.5,1.4l-3,2.6c-0.3,0.3-0.9,0.7-1,1
		c-0.2,0.3-0.2,0.8-0.2,1.1l-0.3,1.8L59,56.4c-0.1,0.5-0.2,1-0.2,1.5c0,0.2,0.1,0.5,0.1,0.7l0.3,1c0.2,0.8,0.5,1.6,0.7,2.5
		L54.1,52.1z"/>
	<path class="st4" d="M32,58.9L32,58.9c0.6,0.4,1.5,0.4,2.2,0.6l2.1,0.4l8.8,1.6c-0.2,0.2-0.5,0.3-0.7,0.5l-1.8,1.2l-4.8,3.2
		c-0.6-0.6-1.1-1.3-1.6-1.9l-1.7-2.1l-2.6-3.2v-2.8v1.7c0,0.2,0,0.4,0,0.6C31.9,58.9,31.9,58.9,32,58.9z"/>
	<path class="st19" d="M53.5,51.2l5.4-7.2h9.3c-0.1,0.2-0.5,0.5-0.7,0.6c-0.1,0-0.1,0-0.2,0l-5,2.9L56,51l-1.9,1.1L53.5,51.2z"/>
	<path class="st6" d="M59.8,65.3L59.8,65.3C59.9,65.4,59.9,65.4,59.8,65.3c0.1,0.2,0.1,0.3,0.1,0.3c0,0.1-0.2,0.3-0.2,0.4l-0.5,0.8
		c-1.1,1.7-2.1,3.4-3.2,5H42.3l-3.2-4l-0.3-0.4c0.5,0.2,1.1,0.4,1.6,0.6l2.7,0.9l6.8,2.3L59.8,65.3z"/>
	<path class="st8" d="M45.6,61.8l3.5,7.8l0.4,0.9c0,0.1,0.1,0.2,0.1,0.3c0,0,0.1,0,0.1,0.1h-0.1c-0.1,0-0.5-0.1-0.6-0.2l-2.9-1
		l-6.2-2L38,67c0.1-0.1,0.3-0.2,0.4-0.3l0.8-0.5l4.4-2.9l1.4-0.9C45.1,62.1,45.4,62,45.6,61.8L45.6,61.8z"/>
	<path class="st20" d="M38.2,41.3v-0.2c0.2-0.1,1.3-0.1,1.6-0.1h6.1h23.7h11.9l1.6,1.7l0,0c-0.3,0.2-4-0.1-4.7-0.1l-5.2-0.1h-2.5
		l-7.9-0.2l-3.5-0.2l-8.9-0.3l-4.6-0.2l-5-0.1l-1.6-0.1C38.9,41.3,38.5,41.4,38.2,41.3z"/>
	<path class="st11" d="M45.6,61.8c0,0,0.1-0.1,0.2-0.1s0.3,0.1,0.3,0.1l1.5,0.4l4.9,1.4l6.2,1.7l-9,5.4c0,0-0.1,0-0.1-0.1
		s-0.1-0.2-0.1-0.3l-0.4-0.9L45.6,61.8z"/>
	<path class="st6" d="M82.2,66.6l2.6,2v3.3H68.9l0.7-1.5L82.2,66.6z"/>
	<path class="st23" d="M82,68.7c0.3,0,0.5,0,0.8,0.2c0.4,0.2,0.7,0.6,0.8,1c0.1,0.3,0,0.6-0.1,0.9c-0.2,0.4-0.5,0.5-0.9,0.6
		c-0.3,0-0.5,0-0.8-0.2c-0.4-0.2-0.7-0.5-0.8-0.9c-0.1-0.3-0.1-0.7,0.1-1C81.2,69,81.6,68.8,82,68.7z"/>
	<path class="st26" d="M82.9,69.6C83,69.8,83,70,83,70.2c-0.1,0.3-0.2,0.4-0.4,0.6c-0.2,0.1-0.5,0.1-0.7,0.1
		c-0.2-0.1-0.3-0.2-0.5-0.4c0.1,0,0.2,0,0.3-0.1c0.3-0.1,0.7-0.4,0.8-0.7l0,0C82.7,69.6,82.8,69.6,82.9,69.6z"/>
	<path class="st18" d="M81.4,70.5c-0.1-0.2-0.2-0.4-0.1-0.7c0-0.2,0.1-0.4,0.3-0.5c0.2-0.2,0.5-0.2,0.7-0.2c0.3,0,0.5,0.3,0.6,0.5
		c-0.1,0-0.3,0-0.4,0l0,0c-0.1,0.3-0.5,0.6-0.8,0.7C81.6,70.4,81.5,70.5,81.4,70.5z"/>
	<path class="st27" d="M38.2,41.3c0.4,0.1,0.7,0,1.1,0.1l1.6,0.1l5,0.1l4.6,0.2l8.9,0.3l3.5,0.1l7.9,0.2h2.5l5.2,0.1
		c0.6,0,4.4,0.2,4.7,0.1l0,0l0,0l0.7,0.7l-45.7,0.1L38.2,41.3z"/>
	<path class="st6" d="M20.3,37c0.2-0.1,0.5,0,0.8,0c0.5,0,1,0,1.5,0h0.3v2.2h-0.8c-0.1,0-0.3,0-0.4,0c-0.1,0-0.2,0.1-0.2,0.2
		c-0.1,0.1-0.1,0.1-0.2,0.2c-0.1,0.2,0,0.5,0,0.8v1.5v6.6v27.6c0,0.2,0,0.4,0.2,0.5l0,0c0.1,0.2,0,0.6,0,0.9c0,0.5,0,1,0,1.4h-1.4
		c-0.1,0-0.1-0.1-0.2-0.2c-0.1-0.3-0.1-2.8-0.1-3.3v-7V45v-6v-1.2c0-0.2,0-0.4,0-0.6v-0.1C20,37.1,20.1,37.1,20.3,37z"/>
	<path class="st8" d="M20.3,37h2.1l-2.5,2.2v-1.8v-0.1C20,37.1,20.1,37.1,20.3,37z"/>
	<path class="st11" d="M50.2,50.2l-4.5,11L33.6,59L50.2,50.2z"/>
	<path class="st9" d="M26.2,80.8l-1.9,1.6V35.2l7,5.2c-0.2,0.4-0.6,0.8-0.9,1.2h-0.1L26.2,38V80.8z"/>
	<path class="st3" d="M26.2,80.8V38l4.2,3.4h0.1l-2.6,3.2v4.9v2.2c-0.1,0.2,0,0.4,0,0.6v1.4c0,0.6-0.1,1.3,0,1.9V56v4.7v1.6v1.9
		c0,0.2,0,0.4,0,0.6l0.1,0.1l0.5,0.5l2.4,2.5l0.2,0.2v0.1c0.1,0.6,0.1,1.3,0.1,1.9L29,68c-0.2-0.2-0.5-0.6-0.8-0.7
		c-0.1,0-0.2,0-0.3,0.1c0,0.1-0.1,0.1-0.1,0.2c0,0.3,0,0.6,0,0.8v1.5c0,0.8-0.1,1.7,0,2.6c0,0.3,3,3.2,3.4,3.7L26.2,80.8z"/>
	<path class="st3" d="M53.7,52.3l1.6,2.7l2.8,4.7l1.4,2.4c0.2,0.4,0.5,0.8,0.7,1.1c0.2,0.4,0.3,0.9,0.5,1.3l0,0L60,64.9
		c-0.1,0-0.2,0.1-0.3,0.1c-0.1,0-0.5-0.1-0.6-0.2L56.3,64l-9.9-2.7l5.2-12.8l1.4,2.3L53.7,52.3z"/>
	<path class="st8" d="M52.8,50.8l0.9,1.6l-5.1,5.5c0.6-1.4,1.5-2.7,2.3-4.1L52.8,50.8z"/>
	<path class="st3" d="M43,72.3h32.5l2.7,4.5l-0.1,0.1L61,77l-1.3-2.3H43.1L43,72.3z"/>
	<path class="st3" d="M31.9,56.5V50c0.2-0.3,0.5-0.5,0.7-0.8l1.3-1.3l2.5-2.6c0.4-0.4,0.9-1,1.4-1.3c0.1,0,0.1,0,0.2,0l10,3.3
		l1.7,0.6c0.3,0.1,0.6,0.2,0.9,0.3L32,58.9l0,0l-0.1-0.1c0-0.2,0-0.4,0-0.6L31.9,56.5z"/>
	<path class="st8" d="M48.1,47.3l1.7,0.6L49.7,48c-0.2,0.2-0.6,0.4-0.9,0.6l-2.1,1.2L42,52.4l-4.2,2.1L36.7,55
		c-0.1,0.1-0.3,0.2-0.5,0.2L48.1,47.3z"/>
	<path class="st6" d="M31.9,56.5V50c0.2-0.3,0.5-0.5,0.7-0.8l1.3-1.3l2.5-2.6c0.4-0.4,0.9-1,1.4-1.3c0.1,0,0.1,0,0.2,0
		c-0.2,0.4-0.3,0.8-0.5,1.1l-1,2.4l-2.1,5.3l-1.8,4.5c-0.2,0.5-0.5,1-0.6,1.6l0,0l-0.1-0.1c0-0.2,0-0.4,0-0.6L31.9,56.5z"/>
	<path class="st28" d="M80.9,60.2c0,0.3-0.2,0.6-0.3,0.9l-0.8,2.1c-0.1,0.2-0.3,0.5-0.3,0.7l0,0c-0.1-0.2,0.1-0.7,0.2-0.9
		C80,62.1,80.4,61,80.9,60.2z"/>
	<path class="st29" d="M42.2,72.3L42.2,72.3C42.3,72.3,42.3,72.3,42.2,72.3c0.1,0.1,0.1,0.2,0.1,0.3v0.7v3.8V77c-0.1,0-0.1,0-0.1,0
		c0-0.6,0-1.2,0-1.8v-2C42.2,72.9,42.1,72.6,42.2,72.3z"/>
	<path class="st30" d="M28.4,53.1L28.4,53.1l-0.1-1h2.1v0.1c-0.1,0.3,0,0.7,0,1L28.4,53.1z"/>
	<path class="st30" d="M29.5,54.8h0.9c0,0.3-0.1,0.8,0,1h-2.1v-1H29.5z"/>
	<path class="st30" d="M30.5,57.4L30.5,57.4v1.1h-2.1c-0.1-0.2-0.1-0.8,0-1.1H30.5z"/>
	<path class="st30" d="M28.3,60h2.1v1.1h-2.1V60z"/>
	<path class="st30" d="M30.4,63.7c-0.2,0-0.5,0-0.7,0h-1.4v-1.1h2.2C30.4,62.9,30.4,63.3,30.4,63.7z"/>
	<path class="st29" d="M37.5,77.6h1.4l-6,2.6c-0.4,0.1-0.7,0.3-1.2,0.4c0.2-0.1,0.4-0.2,0.6-0.3l1.2-0.6l1.3-0.8l1.4-0.7
		C36.6,78,37.1,77.8,37.5,77.6z"/>
	<path class="st31" d="M27.8,55.6c-0.1-0.6,0-1.3,0-1.9v-1.4c0-0.2,0-0.4,0-0.6v1.7h2.6c0,0.3-0.1,0.8,0,1.1h-2.6
		C27.9,54.9,27.9,55.3,27.8,55.6z"/>
	<path class="st32" d="M32,71.8l1.9,2l-1.7,1.6L32,71.8z"/>
	<path class="st29" d="M21.4,76.7h2.2V79h-2.2c0-0.5,0-1,0-1.4C21.4,77.3,21.5,77,21.4,76.7z"/>
	<path class="st33" d="M75.3,44c0.1-0.1,0.3,0,0.4,0h0.9h3.1l0,0c-0.4,0.1-0.8,0-1.2,0c-0.1,0-0.3,0-0.3,0s-0.1,0.1-0.2,0.2
		l-0.5,0.5l-1.3,1.2c-0.4,0.4-0.8,0.7-1.2,1.1l0,0l0,0c-0.2-0.2-0.5-0.4-0.6-0.6c-0.1-0.1-0.2-0.2-0.3-0.2L75.3,44z"/>
	<path class="st34" d="M75.3,44c0.1-0.1,0.3,0,0.4,0h0.9h3.1l0,0c-0.4,0.1-0.8,0-1.2,0c-0.1,0-0.3,0-0.3,0s-0.1,0.1-0.2,0.2
		l-0.5,0.5l-1.3,1.2c-0.4,0.4-0.8,0.7-1.2,1.1l0,0l0,0c-0.2-0.2-0.5-0.4-0.6-0.6l3.5-2.4H75.3z"/>
	<path class="st29" d="M37.7,41.6v1.8l-5.9,5.8h-0.1l0,0c0-0.1,0-0.3,0.1-0.4c0.5-0.8,1.2-1.5,1.8-2.1C35,45,36.4,43.4,37.7,41.6z"
		/>
	<path class="st35" d="M28.1,36c0.1,0,0.3,0.1,0.4,0.1l1,0.4l1.4,0.5l6.3,2.2l3.4,1.2h-2.1c-0.3,0-0.6,0-0.9,0
		c-0.3-0.1-0.6-0.2-0.9-0.4l-2-0.9C32.6,38.1,30.2,37.1,28.1,36z"/>
	<path class="st29" d="M76.1,72.3h1.3c0.2,0.2,0.4,0.6,0.6,0.9l1.7,2.7c0.2,0.3,0.5,0.7,0.6,1h-0.1h-1.4l-1.7-2.7l-0.8-1.3
		c-0.1-0.1-0.3-0.4-0.3-0.5L76.1,72.3z"/>
	<path class="st35" d="M31.6,39.9l1.1,0.7c0.1,0.1,0.3,0.2,0.3,0.2c0.1,0,0.2,0,0.3,0l1.3-0.2c0.6-0.1,1.3-0.1,2-0.3l0,0l1.2,0.5
		l-0.3,0.4c-0.3,0.1-0.6,0.4-0.9,0.6c-0.6,0.4-1.1,0.8-1.7,1.1L33,41.3l-0.8-0.7c-0.1-0.1-0.3-0.2-0.4-0.4
		C31.6,40.2,31.6,40,31.6,39.9z"/>
	<path class="st36" d="M28.3,46.1c0-0.2-0.1-1.2,0-1.3c0-0.1,0.2-0.2,0.2-0.3l0.7-0.9l2.2-2.8l1.6,1.4L28.3,46.1L28.3,46.1z"/>
	<path class="st31" d="M43,75.6V75h16.3l0.3,0.5l-7.5,0.1h-0.6c-0.1,0-0.3,0-0.4,0H50h-4.9h-1.5C43.5,75.6,43.2,75.7,43,75.6z"/>
	<path class="st37" d="M62.1,57.8l3.2,1.5c0.5,0.2,1.1,0.4,1.5,0.7c0.3,0.1,0.5,0.4,0.7,0.5c0.3,0.2,0.7,0.4,1.1,0.6L68,61.2
		l-2.6,0.4c-0.3,0.1-0.8,0.2-1.1,0.2L62.1,57.8z"/>
	
		<linearGradient id="SVGID_00000152231728856990083460000008832931462447095224_" gradientUnits="userSpaceOnUse" x1="69.2549" y1="538.4384" x2="69.785" y2="533.3651" gradientTransform="matrix(1 0 0 1 0 -484)">
		<stop  offset="0" style="stop-color:#5BB6CE"/>
		<stop  offset="1" style="stop-color:#F3EFF0"/>
	</linearGradient>
	<path style="fill:url(#SVGID_00000152231728856990083460000008832931462447095224_);" d="M67.5,49.6c0.2-0.1,3.9,0,4.5,0l-0.9,0.9
		L71,50.6l-2.2,2.1c-0.5,0.5-1,1-1.4,1.5v0.1c0-0.4,0-0.8,0-1.2v-2.2C67.4,50.4,67.4,50,67.5,49.6z"/>
	<path class="st37" d="M63.7,53.5l2.7,5.8l-1.3-0.5l-3.3-1.5L63.7,53.5z"/>
	<path class="st37" d="M73.6,55.6c0.4,0.2,0.8,0.5,1.1,0.7l2.9,1.7l-1.7,2.8c-0.4,0.6-0.8,1.2-1.3,1.7c-0.1-0.5-0.1-1.1-0.1-1.7
		C74.4,59.1,74.2,57.3,73.6,55.6z"/>
	<path class="st32" d="M33.2,42.2l1.2,1.1l-6.1,5.3v-2.4l0.1,0.1L33.2,42.2z"/>
	
		<linearGradient id="SVGID_00000163765946181319693520000015915868231214888099_" gradientUnits="userSpaceOnUse" x1="64.413" y1="540.415" x2="67.9775" y2="534.3284" gradientTransform="matrix(1 0 0 1 0 -484)">
		<stop  offset="0" style="stop-color:#6B98CD"/>
		<stop  offset="1" style="stop-color:#C1E9E3"/>
	</linearGradient>
	<path style="fill:url(#SVGID_00000163765946181319693520000015915868231214888099_);" d="M64.5,52.4l1.6-1.8
		c0.3-0.3,0.6-0.7,0.9-0.9l-0.1,2.8c0,0.2,0,0.4,0,0.6v1.3c0,0.2,0,0.5,0,0.6c-0.1,0.2-0.2,0.4-0.3,0.6c-0.3,0.6-0.5,1.2-0.5,1.9
		L64,53L64.5,52.4z"/>
	<path class="st40" d="M72.4,49.7l3.3,2.8l-4.8,0.7c-1,0.1-1.8,0.3-2.7,0.7L72.4,49.7z"/>
	<path class="st37" d="M73.8,58.2c0.1,0.5,0.2,1,0.2,1.5l0.2,3.4l-0.8,0.8l-0.2,0.2c-0.1,0.1-0.5,0-0.7,0L70,64.2h-0.5l1.8-2.3
		c0.7-0.8,1.5-1.7,2-2.7C73.5,59,73.6,58.6,73.8,58.2z"/>
	<path class="st37" d="M75.9,52.9c0.3,0.6,0.5,1.3,0.8,1.9c0.4,0.9,0.8,1.9,1.1,2.9l-3.1-1.8l-2.1-1.3c-0.6-0.3-1.1-0.6-1.7-0.9
		L75.9,52.9z"/>
	<path class="st40" d="M71.5,60.9L71.5,60.9L71.5,60.9l-2.6,3.5L67,64.5l-1.1-1.1l-1.3-1.3l4.5-0.7C70,61.3,70.7,61.2,71.5,60.9z"/>
	<path class="st31" d="M37.9,72.1c0.3-0.1,0.7,0,1,0h2.7v5h-0.5c0-0.4,0.1-2.3-0.1-2.6c-0.1-0.1-0.2-0.2-0.4-0.2
		c-0.2,0-0.3,0-0.4,0.1c-0.2,0.2-0.2,0.7-0.2,1V77h-0.5v-1.5c0-0.3,0-0.6,0-0.8c0-0.1-0.1-0.2-0.1-0.2c-0.1-0.1-0.2-0.2-0.3-0.2
		c-0.1,0-0.2,0-0.3,0.1c-0.1,0.1-0.2,0.2-0.2,0.3c-0.1,0.3,0,0.6,0,0.8V77h-0.5C37.9,76.4,38,72.5,37.9,72.1L37.9,72.1z"/>
	<path class="st41" d="M64.2,62.3l2.6,2.5l-1.1,2.3l-1-0.7l-3.4-2.1L64.2,62.3z"/>
	<path class="st41" d="M75.8,61.9l3,1.8l-3.3,2.4L74.1,67l-0.7-2.4C74.3,63.8,75,62.9,75.8,61.9z"/>
	
		<linearGradient id="SVGID_00000158026408441993615960000017797986824827517568_" gradientUnits="userSpaceOnUse" x1="30.9451" y1="525.0681" x2="30.3164" y2="518.2495" gradientTransform="matrix(1 0 0 1 0 -484)">
		<stop  offset="0" style="stop-color:#A19EA1"/>
		<stop  offset="1" style="stop-color:#C2C3C1"/>
	</linearGradient>
	<path style="fill:url(#SVGID_00000158026408441993615960000017797986824827517568_);" d="M25.6,35.6c-0.4-0.3-0.8-0.6-1.1-0.9
		l1.4,0.6l10.8,5l0,0c-0.6,0.1-1.3,0.2-2,0.3l-1.3,0.2c-0.1,0-0.2,0.1-0.3,0c-0.1,0-0.3-0.2-0.3-0.2l-1.1-0.7
		c-0.1-0.1-0.3-0.2-0.4-0.3l-1-0.7l-2.8-2C26.8,36.5,26.1,36.1,25.6,35.6z"/>
	<path class="st41" d="M60.2,51.8l3.3,1.3l-1.7,3.7l-0.3,0.5l-2.1,0.4l0.4-2.6C59.9,54,59.9,52.8,60.2,51.8z"/>
	<path class="st43" d="M79.1,52C79.2,52,79.1,52,79.1,52l1.7,5.6c-0.3,0-2.4,0.1-2.5,0c0,0-0.1,0-0.1-0.1l-1.8-4.7L79.1,52z"/>
	<path class="st41" d="M78.9,58h2L79,63.4L78.3,63L76,61.6l2.1-3.5L78.9,58z"/>
	<path class="st28" d="M77.9,72.3h6.5c-0.1,0.2-0.3,0.4-0.5,0.6l-1.6,1.9l-1.7,2.1L77.9,72.3z"/>
	<path class="st44" d="M68.8,43.9h6l-1.1,2.2H72h-6L68.8,43.9z"/>
	<path class="st43" d="M66,46.6h7.6l-0.9,1.6L72.2,49H67L66,46.6z"/>
	<path class="st41" d="M61.2,57.8c0.1,0,0.1,0,0.2,0c0.3,0.4,0.5,0.9,0.8,1.4l1.6,2.8l-2.3,1.6L60.9,64l-1.6-5.9L61.2,57.8z"/>
	<path class="st43" d="M73.9,46.7l5.1,4.9l-1.7,0.5l-1.1,0.3l-2.6-2.3l-0.7-0.6c-0.1-0.1-0.2-0.2-0.3-0.3L73.9,46.7z"/>
	<path class="st31" d="M27.8,56H30h0.4c0.1,0.2,0,0.8,0.1,1.1h-2.6v1.5h0.7h0.1c0.4,0,0.7,0,1.1,0c0.2,0,0.5,0,0.7,0v1.1h-1.8
		c-0.2,0-0.6-0.1-0.8,0c-0.1,0.3,0,1.2,0,1.6h2.6c0.1,0.3,0,0.8,0.1,1.1H28V64h2.8c0.1,0.2,0.1,0.7,0.1,0.9c0.1,1.1,0.2,2.1,0.3,3.2
		L31,67.9l-2.4-2.5l-0.5-0.5L28,64.8c0-0.1,0-0.4,0-0.6v-1.9v-1.6L27.8,56z"/>
	<path class="st36" d="M32.2,75.3c-0.2,0.1-0.3,0.3-0.5,0.4l-2.9-3c-0.1-0.1-0.4-0.3-0.4-0.5V72v-0.6v-3.6l3.7,3.8L32.2,75.3z"/>
	<path class="st43" d="M65.6,46.7l1.2,2.5c-0.5,0.5-1,1.1-1.5,1.6l-1.7,1.9l-1.3-0.6l-1.8-0.7L65.6,46.7z"/>
	<path class="st45" d="M33.6,59l-0.8-0.1l18-10.2l-0.6,1.6L33.6,59z"/>
	<path class="st28" d="M80,52.6l4-2.8l0.5-0.4c0.1,0,0.2-0.1,0.2-0.2V49v1.3c0,0.2,0,0.4,0,0.6c-0.1,0.3-0.2,0.6-0.4,0.8l-0.7,1.5
		l-2.8,6.2c0-0.1,0.1-0.3,0.1-0.4l0.4-1c0-0.1,0-0.1,0-0.2c-0.1-0.6-0.3-1.3-0.5-1.9L80,52.6z"/>
	<path class="st31" d="M34.8,43c0.6-0.3,1.2-0.7,1.7-1.1c0.3-0.2,0.6-0.4,0.9-0.6c-0.4,0.7-1,1.3-1.5,2l-3.4,4.1l-0.9,1
		c-0.1,0.1-0.2,0.2-0.3,0.3c-0.4,0.4-0.8,0.8-0.8,1.3v1.7h-1.8c-0.2,0-0.6,0-0.7,0l0,0v-2.2l7.2-6.3L34.8,43z"/>
	<path class="st41" d="M72.5,64.6h0.4l0.8,2.6c-2.1,0.4-4.2,0.6-6.3,0.4l-1.3-0.2c0-0.3,0.3-0.6,0.4-0.8l0.8-1.6L72.5,64.6z"/>
	<path class="st35" d="M34.1,74.2l0.8,0.9c0.1,0.1,0.6,0.5,0.6,0.7c-0.7,0.6-1.4,1.1-2.1,1.6l-2.6,1.9l-5.1,3.6
		c-0.5,0.3-1,0.6-1.5,0.9v-0.7c0.3-0.4,0.7-0.7,1.1-1l2.1-1.8l3.6-3.2L34.1,74.2z"/>
	<path class="st33" d="M83.8,43.9c0.1,0,0.2,0,0.3,0c0.1,0,0.3,0.2,0.3,0.3l0,0l-0.1,0.1c-0.3,0.4-0.8,0.6-1.1,0.9L83,45.1
		c-0.4-0.2-0.8-0.3-1.2-0.2c-0.3,0.1-0.5,0.3-0.7,0.5c-0.3,0.1-0.5,0.4-0.7,0.6l-3.7,2.6L75,47l0,0l0,0c0.3-0.4,0.8-0.8,1.2-1.1
		l1.3-1.2l0.5-0.5c0,0,0.1-0.1,0.2-0.2c0.1,0,0.3,0,0.3,0c0.4,0,0.8,0,1.2,0l0,0c0.4-0.1,0.9,0,1.3,0L83.8,43.9z"/>
	<path class="st44" d="M83.8,43.9c0.1,0,0.2,0,0.3,0c0.1,0,0.3,0.2,0.3,0.3l0,0l-0.1,0.1c-0.3,0.4-0.8,0.6-1.1,0.9L83,45.1
		c0,0,0,0,0-0.1c0.2-0.5,0.6-0.8,1-1.1l0,0L83.8,43.9z"/>
	<path class="st34" d="M79.8,64.2c0.5-0.5,1.1-1,1.7-1.4l3.4-2.8v8L79.8,64.2z"/>
	<path class="st34" d="M69.6,70.4l0.8-1.8c0.1-0.1,0.1-0.4,0.2-0.5h0.2c0.9-0.1,1.9-0.1,2.8-0.4c1.1-0.3,2.2-1.2,3.1-1.9l2.3-1.7
		c0.4,0.4,0.8,0.7,1.3,1l1.9,1.4L69.6,70.4z"/>
	<path class="st31" d="M31,68.2l6.4,6.9v1.3c0,0.2,0,0.4,0,0.6l-9.8,5.2v-0.1c0.9-0.6,1.8-1.3,2.6-1.9l1.8-1.4
		c1-0.7,1.9-1.4,2.8-2.2c0.3-0.3,0.6-0.5,0.8-0.8v-0.1c0-0.2-0.5-0.5-0.6-0.7l-0.8-0.9l0.4-0.4L31.1,70C31.1,69.5,31.1,68.8,31,68.2
		z"/>
	<path class="st35" d="M80.9,60.2c0.1-0.2,0.3-0.5,0.4-0.8l1-2.1l2.6-5.6V60l-3.4,2.8c-0.5,0.4-1.2,0.9-1.7,1.4l-0.3-0.3
		c0-0.2,0.2-0.5,0.3-0.7l0.8-2.1C80.7,60.8,80.9,60.5,80.9,60.2z"/>
	<path class="st34" d="M53.5,51.2L51.7,48l3.1-4.1h9H67h0.8c0.1,0,0.3,0,0.4,0h-9.3L53.5,51.2z"/>
	<path class="st31" d="M67.3,68.1L67.3,68.1c0.4,0.1,0.8,0,1.2,0h1.7l-1.8,3.7c-0.4,0-0.8,0-1.2,0h-2.4h-8.4
		c0.1-0.2,0.2-0.4,0.4-0.6l0,0c0.1,0,0.2,0,0.4-0.1l0.9-0.2l3.9-1c1.5-0.4,3.1-0.8,4.5-1.4C66.8,68.5,67.2,68.4,67.3,68.1L67.3,68.1
		z"/>
	<path class="st34" d="M56.8,71.3l4.3-6.5c1.2,0.7,2.3,1.6,3.5,2.4c0.4,0.2,0.8,0.5,1.2,0.7c0.5,0.2,1,0.3,1.5,0.3l0.1,0.1
		c-0.2,0.2-0.6,0.3-0.8,0.4c-1.5,0.6-3,1-4.5,1.4l-3.9,1l-0.9,0.2C57.1,71.2,57,71.3,56.8,71.3L56.8,71.3z"/>
	<path class="st35" d="M39,43.9h15.2l-1.7,2.2l-1.3,1.7L39,43.9z"/>
	<path class="st28" d="M22.8,40.2h0.9v36h-1.5c-0.1,0-0.4,0-0.5,0h1.1V40.2z"/>
	
		<linearGradient id="SVGID_00000114767524979829774140000008149015264092448937_" gradientUnits="userSpaceOnUse" x1="66.6067" y1="51.8543" x2="73.4271" y2="51.8543" gradientTransform="matrix(1 0 0 -1 0 109.276)">
		<stop  offset="0" style="stop-color:#FFE5F6"/>
		<stop  offset="0.475" style="stop-color:#FF80D4"/>
		<stop  offset="1" style="stop-color:#FF00A8"/>
	</linearGradient>
	<path style="fill:url(#SVGID_00000114767524979829774140000008149015264092448937_);" d="M69.4,54c0.9-0.1,1.8,0.2,2.5,0.7
		c0.7,0.4,1.2,1.1,1.4,1.9c0.2,0.9,0,1.7-0.4,2.5c-0.5,0.9-1.3,1.3-2.2,1.6c-1,0.2-1.7,0-2.5-0.5c-0.7-0.4-1.3-1.2-1.4-2v-0.1V58
		c-0.2-0.9,0-1.7,0.5-2.5C67.7,54.7,68.4,54.2,69.4,54z"/>
	<path class="st47" d="M70.4,54.6c0.3,0,0.7,0,1,0.1c0.6,0.2,1,0.7,1.3,1.3c0.2,0.4,0.2,0.8,0,1.2s-0.5,0.6-0.9,0.7
		c-0.4,0.1-0.8,0-1.2-0.2c-0.5-0.2-0.9-0.6-1-1.1c-0.2-0.4-0.2-0.9,0-1.2C69.7,55,70,54.8,70.4,54.6z"/>
	
		<linearGradient id="SVGID_00000142881834891884215650000013274100922783927231_" gradientUnits="userSpaceOnUse" x1="77.1514" y1="533.8495" x2="85.5464" y2="531.6462" gradientTransform="matrix(1 0 0 1 0 -484)">
		<stop  offset="0" style="stop-color:#606166"/>
		<stop  offset="1" style="stop-color:#848586"/>
	</linearGradient>
	<path style="fill:url(#SVGID_00000142881834891884215650000013274100922783927231_);" d="M84.5,44.2l0.3,0.3v3.1v1.5v0.2
		c0,0.1-0.2,0.1-0.2,0.2l-0.5,0.4l-4,2.8L80,52.3l-0.1-0.4c0-0.1,0-0.1-0.1-0.2c-0.2-0.3-0.5-0.5-0.8-0.8l-2.2-2.1l3.7-2.6
		c0.2-0.2,0.4-0.4,0.7-0.6c0.2-0.2,0.4-0.4,0.7-0.5c0.4-0.1,0.8,0,1.2,0.2l0.2,0.1c0.4-0.3,0.8-0.6,1.1-0.9L84.5,44.2L84.5,44.2z"/>
	<path class="st28" d="M80.4,46c0.2-0.2,0.4-0.4,0.7-0.6c-0.2,0.5-0.4,0.9-0.2,1.4c0.1,0.4,0.5,0.7,0.8,0.8s0.6,0.1,0.9,0
		c0.4-0.2,0.8-0.5,0.9-1c0-0.1,0.1-0.3,0.1-0.4l0,0l0,0c0.1,0.1,0.1,0.2,0,0.3c-0.1,0.7-0.8,1.3-1.3,1.7c-0.4,0.3-0.8,0.4-1.3,0.3
		c-0.4-0.1-0.7-0.3-0.9-0.7c-0.2-0.3-0.2-0.8-0.1-1.1l0,0C80.2,46.5,80.3,46.3,80.4,46z"/>
	<path class="st35" d="M79.9,52.2c1.4-1.3,2.7-2.8,4.2-4c0.2-0.2,0.5-0.5,0.7-0.6v1.5v0.2c0,0.1-0.2,0.1-0.2,0.2l-0.5,0.4l-4,2.8
		L79.9,52.2z"/>
	<path class="st49" d="M81.1,45.5c0.2-0.2,0.4-0.4,0.7-0.5c0.4-0.1,0.8,0,1.2,0.2l0.2,0.1c0.2,0.3,0.5,0.7,0.4,1.1
		c0,0.1,0,0.3-0.1,0.4c-0.1,0.4-0.5,0.8-0.9,1c-0.3,0.1-0.6,0.2-0.9,0c-0.3-0.1-0.7-0.5-0.8-0.8C80.7,46.4,80.8,46,81.1,45.5z"/>
	<path class="st50" d="M83.1,46c0.1,0.3,0.1,0.5-0.1,0.8s-0.5,0.4-0.8,0.5c-0.3-0.1-0.6-0.2-0.8-0.6c0-0.1-0.1-0.2-0.1-0.3
		c0.3,0,1.6,0.1,1.7,0C83,46.3,83,46.2,83.1,46L83.1,46z"/>
	<path class="st51" d="M81.3,46.5c0-0.2,0-0.3,0-0.5c0.1-0.3,0.3-0.5,0.5-0.6s0.4-0.1,0.6,0c0.3,0.1,0.5,0.4,0.6,0.6v0.1
		c0,0.1,0,0.2,0,0.4C82.9,46.5,81.6,46.5,81.3,46.5z"/>
	<path class="st35" d="M31.9,60.1l6.9,8.3l2.1,2.6c0.2,0.3,0.6,0.6,0.7,0.9h-0.1c-0.4,0-3.8,0-3.9,0c-0.5-0.5-0.9-1-1.3-1.5
		l-2.8-3.3l-1.2-1.3c-0.1-0.1-0.3-0.3-0.3-0.4c0-0.1,0-0.2,0-0.3v-0.9L31.9,60.1z"/>
	<path class="st52" d="M21.7,76.2c-0.1-0.2,0-0.4,0-0.5v-1.2v-4.6V40.3h1.1v35.9L21.7,76.2z"/>
	<path class="st35" d="M54.1,52.1L56,51l6.4-3.6l5-2.9c0.1,0,0.1,0,0.2,0l-2.3,1.9l-1.5,1.4l-3,2.6c-0.3,0.3-0.9,0.7-1,1
		c-0.2,0.3-0.2,0.8-0.2,1.1l-0.3,1.8L59,56.4c-0.1,0.5-0.2,1-0.2,1.5c0,0.2,0.1,0.5,0.1,0.7l0.3,1c0.2,0.8,0.5,1.6,0.7,2.5
		L54.1,52.1z"/>
	<path class="st29" d="M32,58.9L32,58.9c0.6,0.4,1.5,0.4,2.2,0.6l2.1,0.4l8.8,1.6c-0.2,0.2-0.5,0.3-0.7,0.5l-1.8,1.2l-4.8,3.2
		c-0.6-0.6-1.1-1.3-1.6-1.9l-1.7-2.1l-2.6-3.2v-2.8v1.7c0,0.2,0,0.4,0,0.6C31.9,58.9,31.9,58.9,32,58.9z"/>
	<path class="st44" d="M53.5,51.2l5.4-7.2h9.3c-0.1,0.2-0.5,0.5-0.7,0.6c-0.1,0-0.1,0-0.2,0l-5,2.9L56,51l-1.9,1.1L53.5,51.2z"/>
	<path class="st31" d="M59.8,65.3L59.8,65.3C59.9,65.4,59.9,65.4,59.8,65.3c0.1,0.2,0.1,0.3,0.1,0.3c0,0.1-0.2,0.3-0.2,0.4l-0.5,0.8
		c-1.1,1.7-2.1,3.4-3.2,5H42.3l-3.2-4l-0.3-0.4c0.5,0.2,1.1,0.4,1.6,0.6l2.7,0.9l6.8,2.3L59.8,65.3z"/>
	<path class="st33" d="M45.6,61.8l3.5,7.8l0.4,0.9c0,0.1,0.1,0.2,0.1,0.3c0,0,0.1,0,0.1,0.1h-0.1c-0.1,0-0.5-0.1-0.6-0.2l-2.9-1
		l-6.2-2L38,67c0.1-0.1,0.3-0.2,0.4-0.3l0.8-0.5l4.4-2.9l1.4-0.9C45.1,62.1,45.4,62,45.6,61.8L45.6,61.8z"/>
	<path class="st45" d="M38.2,41.3v-0.2c0.2-0.1,1.3-0.1,1.6-0.1h6.1h23.7h11.9l1.6,1.7l0,0c-0.3,0.2-4-0.1-4.7-0.1l-5.2-0.1h-2.5
		l-7.9-0.2l-3.5-0.2l-8.9-0.3l-4.6-0.2l-5-0.1l-1.6-0.1C38.9,41.3,38.5,41.4,38.2,41.3z"/>
	<path class="st53" d="M45.6,61.8c0,0,0.1-0.1,0.2-0.1s0.3,0.1,0.3,0.1l1.5,0.4l4.9,1.4l6.2,1.7l-9,5.4c0,0-0.1,0-0.1-0.1
		s-0.1-0.2-0.1-0.3l-0.4-0.9L45.6,61.8z"/>
	<path class="st31" d="M82.2,66.6l2.6,2v3.3H68.9l0.7-1.5L82.2,66.6z"/>
	<path class="st49" d="M82,68.7c0.3,0,0.5,0,0.8,0.2c0.4,0.2,0.7,0.6,0.8,1c0.1,0.3,0,0.6-0.1,0.9c-0.2,0.4-0.5,0.5-0.9,0.6
		c-0.3,0-0.5,0-0.8-0.2c-0.4-0.2-0.7-0.5-0.8-0.9c-0.1-0.3-0.1-0.7,0.1-1C81.2,69,81.6,68.8,82,68.7z"/>
	<path class="st54" d="M82.9,69.6C83,69.8,83,70,83,70.2c-0.1,0.3-0.2,0.4-0.4,0.6c-0.2,0.1-0.5,0.1-0.7,0.1
		c-0.2-0.1-0.3-0.2-0.5-0.4c0.1,0,0.2,0,0.3-0.1c0.3-0.1,0.7-0.4,0.8-0.7l0,0C82.7,69.6,82.8,69.6,82.9,69.6z"/>
	<path class="st51" d="M81.4,70.5c-0.1-0.2-0.2-0.4-0.1-0.7c0-0.2,0.1-0.4,0.3-0.5c0.2-0.2,0.5-0.2,0.7-0.2c0.3,0,0.5,0.3,0.6,0.5
		c-0.1,0-0.3,0-0.4,0l0,0c-0.1,0.3-0.5,0.6-0.8,0.7C81.6,70.4,81.5,70.5,81.4,70.5z"/>
	<path class="st55" d="M38.2,41.3c0.4,0.1,0.7,0,1.1,0.1l1.6,0.1l5,0.1l4.6,0.2l8.9,0.3l3.5,0.1l7.9,0.2h2.5l5.2,0.1
		c0.6,0,4.4,0.2,4.7,0.1l0,0l0,0l0.7,0.7l-45.7,0.1L38.2,41.3z"/>
	<path class="st31" d="M20.3,37c0.2-0.1,0.5,0,0.8,0c0.5,0,1,0,1.5,0h0.3v2.2h-0.8c-0.1,0-0.3,0-0.4,0c-0.1,0-0.2,0.1-0.2,0.2
		c-0.1,0.1-0.1,0.1-0.2,0.2c-0.1,0.2,0,0.5,0,0.8v1.5v6.6v27.6c0,0.2,0,0.4,0.2,0.5l0,0c0.1,0.2,0,0.6,0,0.9c0,0.5,0,1,0,1.4h-1.4
		c-0.1,0-0.1-0.1-0.2-0.2c-0.1-0.3-0.1-2.8-0.1-3.3v-7V45v-6v-1.2c0-0.2,0-0.4,0-0.6v-0.1C20,37.1,20.1,37.1,20.3,37z"/>
	<path class="st33" d="M20.3,37h2.1l-2.5,2.2v-1.8v-0.1C20,37.1,20.1,37.1,20.3,37z"/>
	<path class="st53" d="M50.2,50.2l-4.5,11L33.6,59L50.2,50.2z"/>
	<path class="st35" d="M26.2,80.8l-1.9,1.6V35.2l7,5.2c-0.2,0.4-0.6,0.8-0.9,1.2h-0.1L26.2,38V80.8z"/>
	<path class="st28" d="M26.2,80.8V38l4.2,3.4h0.1l-2.6,3.2v4.9v2.2c-0.1,0.2,0,0.4,0,0.6v1.4c0,0.6-0.1,1.3,0,1.9V56v4.7v1.6v1.9
		c0,0.2,0,0.4,0,0.6l0.1,0.1l0.5,0.5l2.4,2.5l0.2,0.2v0.1c0.1,0.6,0.1,1.3,0.1,1.9L29,68c-0.2-0.2-0.5-0.6-0.8-0.7
		c-0.1,0-0.2,0-0.3,0.1c0,0.1-0.1,0.1-0.1,0.2c0,0.3,0,0.6,0,0.8v1.5c0,0.8-0.1,1.7,0,2.6c0,0.3,3,3.2,3.4,3.7L26.2,80.8z"/>
	<path class="st34" d="M53.7,52.3l1.6,2.7l2.8,4.7l1.4,2.4c0.2,0.4,0.5,0.8,0.7,1.1c0.2,0.4,0.3,0.9,0.5,1.3l0,0L60,64.9
		c-0.1,0-0.2,0.1-0.3,0.1c-0.1,0-0.5-0.1-0.6-0.2L56.3,64l-9.9-2.7l5.2-12.8l1.4,2.3L53.7,52.3z"/>
	<path class="st33" d="M52.8,50.8l0.9,1.6l-5.1,5.5c0.6-1.4,1.5-2.7,2.3-4.1L52.8,50.8z"/>
	<path class="st28" d="M43,72.3h32.5l2.7,4.5l-0.1,0.1L61,77l-1.3-2.3H43.1L43,72.3z"/>
	<path class="st34" d="M31.9,56.5V50c0.2-0.3,0.5-0.5,0.7-0.8l1.3-1.3l2.5-2.6c0.4-0.4,0.9-1,1.4-1.3c0.1,0,0.1,0,0.2,0l10,3.3
		l1.7,0.6c0.3,0.1,0.6,0.2,0.9,0.3L32,58.9l0,0l-0.1-0.1c0-0.2,0-0.4,0-0.6L31.9,56.5z"/>
	<path class="st33" d="M48.1,47.3l1.7,0.6L49.7,48c-0.2,0.2-0.6,0.4-0.9,0.6l-2.1,1.2L42,52.4l-4.2,2.1L36.7,55
		c-0.1,0.1-0.3,0.2-0.5,0.2L48.1,47.3z"/>
	<path class="st31" d="M31.9,56.5V50c0.2-0.3,0.5-0.5,0.7-0.8l1.3-1.3l2.5-2.6c0.4-0.4,0.9-1,1.4-1.3c0.1,0,0.1,0,0.2,0
		c-0.2,0.4-0.3,0.8-0.5,1.1l-1,2.4l-2.1,5.3l-1.8,4.5c-0.2,0.5-0.5,1-0.6,1.6l0,0l-0.1-0.1c0-0.2,0-0.4,0-0.6L31.9,56.5z"/>
</g>
<g>
	<path class="st56" d="M102.8,20.8V10.3L93.7,5l-9.2,5.3v10.6l9.2,5.3L102.8,20.8z"/>
	<path class="st56" d="M99,18.6v-6.1l-5.4-3.1l-5.4,3.1v6.1l5.4,3.1L99,18.6z"/>
	
		<linearGradient id="SVGID_00000063591003103191423600000009061624793020706688_" gradientUnits="userSpaceOnUse" x1="93.7374" y1="501.8644" x2="93.7374" y2="497.2321" gradientTransform="matrix(1 0 0 1 0 -484)">
		<stop  offset="0" style="stop-color:#9C3600"/>
		<stop  offset="4.000000e-02" style="stop-color:#A44401"/>
		<stop  offset="0.25" style="stop-color:#CD8909"/>
		<stop  offset="0.4" style="stop-color:#E7B40D"/>
		<stop  offset="0.48" style="stop-color:#F1C40F"/>
		<stop  offset="0.53" style="stop-color:#F2C615"/>
		<stop  offset="0.6" style="stop-color:#F3CC25"/>
		<stop  offset="0.67" style="stop-color:#F7D53F"/>
		<stop  offset="0.75" style="stop-color:#FBE363"/>
		<stop  offset="0.81" style="stop-color:#FFF088"/>
		<stop  offset="1" style="stop-color:#FFF8D6"/>
	</linearGradient>
	<path style="fill:url(#SVGID_00000063591003103191423600000009061624793020706688_);" d="M95.8,16.7v-2.3l-2-1.2l-2,1.2v2.3l2,1.2
		L95.8,16.7z"/>
	<path class="st58" d="M93.7,9.4V5l9.2,5.3l-3.8,2.2L93.7,9.4z"/>
	<path class="st59" d="M99,18.6v-6.1l3.8-2.2v10.6L99,18.6z"/>
	<path class="st60" d="M93.7,21.7v4.3l9.2-5.3l-3.8-2.2L93.7,21.7z"/>
	<path class="st59" d="M88.4,18.6l-3.8,2.2l9.2,5.3v-4.3L88.4,18.6z"/>
	<path class="st58" d="M84.6,10.3l3.8,2.2v6.1l-3.8,2.2C84.6,20.8,84.6,10.3,84.6,10.3z"/>
	<path class="st61" d="M93.7,9.4l-5.4,3.1l-3.8-2.2L93.7,5V9.4z"/>
	<path class="st62" d="M102.8,10.3l-4,2l-4.9-2.9l-0.2-4.5l-0.2,4.5l-4.9,2.9l-4-2l3.8,2.2v2.2c0.1-0.7,0.2-1.4,0.2-2l5.1-2.8
		l5.1,2.8c0.1,0.7,0.2,1.4,0.2,2v-2.2h0.1L102.8,10.3z"/>
	<path class="st63" d="M93.7,3.8l0.5,0.3l9.1,5.3l0.5,0.3v11.7l-0.5,0.3l-9.1,5.3l-0.5,0.3l-0.5-0.3l-9.1-5.3l-0.5-0.3V9.7l0.5-0.3
		l9.1-5.3L93.7,3.8z M93.7,3.2c-0.1,0-0.2,0-0.3,0.1l-0.5,0.3l-9.1,5.3l-0.5,0.3c-0.1,0.1-0.2,0.2-0.2,0.2s-0.1,0.2-0.1,0.3v11.7
		c0,0.1,0,0.2,0.1,0.3c0.1,0.1,0.2,0.2,0.2,0.2l0.5,0.3l9.1,5.3l0.5,0.3c0.1,0.1,0.2,0.1,0.3,0.1c0.1,0,0.2,0,0.3-0.1l0.5-0.3
		l9.2-5.3l0.5-0.3c0.1-0.1,0.2-0.2,0.2-0.2c0.1-0.1,0.1-0.2,0.1-0.3V9.7c0-0.1,0-0.2-0.1-0.3c-0.1-0.1-0.2-0.2-0.2-0.2l-0.5-0.3
		l-9.1-5.3l-0.5-0.3C93.9,3.2,93.8,3.2,93.7,3.2L93.7,3.2z"/>
	
		<linearGradient id="SVGID_00000153664924013374693000000006499206982218617489_" gradientUnits="userSpaceOnUse" x1="93.7374" y1="511.2541" x2="93.7374" y2="487.8429" gradientTransform="matrix(1 0 0 1 0 -484)">
		<stop  offset="0" style="stop-color:#9C3600"/>
		<stop  offset="4.000000e-02" style="stop-color:#A44401"/>
		<stop  offset="0.25" style="stop-color:#CD8909"/>
		<stop  offset="0.4" style="stop-color:#E7B40D"/>
		<stop  offset="0.48" style="stop-color:#F1C40F"/>
		<stop  offset="0.53" style="stop-color:#F2C615"/>
		<stop  offset="0.6" style="stop-color:#F3CC25"/>
		<stop  offset="0.67" style="stop-color:#F7D53F"/>
		<stop  offset="0.75" style="stop-color:#FBE363"/>
		<stop  offset="0.81" style="stop-color:#FFF088"/>
		<stop  offset="1" style="stop-color:#FFF8D6"/>
	</linearGradient>
	<path style="fill:url(#SVGID_00000153664924013374693000000006499206982218617489_);" d="M103.4,9.4l-9.1-5.3l-0.5-0.3l-0.5,0.3
		l-9.1,5.3l-0.5,0.3v11.7l0.5,0.3l9.1,5.3l0.5,0.3l0.5-0.3l9.1-5.3l0.5-0.3V9.7L103.4,9.4z M93.7,23.8l-1.3,1.6l-6.5-3.8l0.7-1.9
		l-1.9-0.4v-7.5l1.9-0.4l-0.7-1.9l6.5-3.8l1.3,1.6l1.3-1.6l6.5,3.8l-0.7,1.9l1.9,0.4v7.5l-1.9,0.4l0.7,1.9l-6.5,3.8L93.7,23.8z"/>
	<path class="st61" d="M93.7,6.3l-0.9-1.1l0.9-0.5l0.9,0.5L93.7,6.3z"/>
	<path class="st60" d="M93.7,24.9l0.9,1.1l-0.9,0.5L92.8,26L93.7,24.9z"/>
	<path class="st58" d="M101.8,10.9l1.4,0.2v-1l-0.9-0.5L101.8,10.9z"/>
	<path class="st59" d="M85.7,20.2L84.3,20v1l0.9,0.5L85.7,20.2z"/>
	<path class="st59" d="M101.8,20.2l1.4-0.2v1l-0.9,0.5L101.8,20.2z"/>
	<path class="st58" d="M85.7,10.9l-1.3,0.2v-1l0.9-0.5L85.7,10.9z"/>
	<path class="st65" d="M93.7,4.9l0.7,0.4L93.7,6L93,5.2L93.7,4.9 M93.7,4.6l-0.9,0.5l0.9,1.1l0.9-1.1L93.7,4.6z"/>
	<path class="st65" d="M93.7,25.1l0.7,0.8l-0.7,0.4L93,25.9L93.7,25.1z M93.7,24.9L92.8,26l0.9,0.5l0.9-0.5L93.7,24.9z"/>
	<path class="st65" d="M102.4,9.8l0.7,0.4V11l-1-0.2L102.4,9.8z M102.2,9.6l-0.5,1.3l1.4,0.2v-1L102.2,9.6L102.2,9.6z"/>
	<path class="st65" d="M84.4,20.2l1,0.2l-0.3,0.9l-0.7-0.4V20.2 M84.3,19.9v1l0.9,0.5l0.5-1.3L84.3,19.9z"/>
	<path class="st65" d="M103,20.2v0.8l-0.7,0.4l-0.3-0.9L103,20.2 M103.1,19.9l-1.4,0.2l0.5,1.3l0.9-0.5V19.9L103.1,19.9z"/>
	<path class="st65" d="M85.1,9.8l0.3,0.9l-1,0.2v-0.8L85.1,9.8z M85.2,9.6l-0.9,0.5v1l1.4-0.2L85.2,9.6L85.2,9.6z"/>
	<path class="st63" d="M102.8,11.8l-1.9-0.4l0.7-1.9l-6.5-3.8l-1.3,1.6l-1.3-1.6l-6.5,3.8l0.7,1.9l-1.9,0.4v7.5l1.9,0.4l-0.7,1.9
		l6.5,3.8l1.3-1.6l1.3,1.6l6.5-3.8l-0.7-1.9l1.9-0.4V11.8z M95.1,6.3l6,3.4l-0.5,1.6c0,0.1,0,0.1,0,0.2L95.9,14l-2-1.2V7.7
		C94,7.7,94,7.6,94,7.6L95.1,6.3z M93.7,17.8l-2-1.2v-2.3l2-1.2l2,1.2v2.3L93.7,17.8z M92.3,6.3l1.1,1.2l0.1,0.1v5.3l-2,1.2
		l-4.6-2.6c0-0.1,0-0.1,0-0.2l-0.5-1.6L92.3,6.3z M85,12.1l1.6-0.3c0.1,0,0.1,0,0.2-0.1l4.6,2.6v2.3l-4.6,2.6
		c-0.1,0-0.1-0.1-0.2-0.1L85,18.9C85,18.9,85,12.1,85,12.1z M92.3,24.8l-6-3.4l0.5-1.6c0-0.1,0-0.1,0-0.2l4.6-2.6l2,1.2v5.3
		c-0.1,0-0.1,0.1-0.1,0.1L92.3,24.8z M101,21.4l-6,3.4L94,23.6l-0.1-0.1v-5.3l2-1.2l4.6,2.6c0,0.1,0,0.1,0,0.2L101,21.4z M102.4,19
		l-1.6,0.3c-0.1,0-0.1,0-0.2,0.1l-4.6-2.6v-2.3l4.6-2.6c0.1,0,0.1,0.1,0.2,0.1l1.6,0.3V19z"/>
	<path class="st56" d="M103.1,20.9V10.3L94,5l-9.2,5.3v10.6l9.2,5.3L103.1,20.9z"/>
	<path class="st56" d="M99.3,18.6v-6.1l-5.4-3.1l-5.4,3.1v6.1l5.4,3.1L99.3,18.6z"/>
	<path class="st58" d="M93.9,9.4V5l9.2,5.3l-3.8,2.2L93.9,9.4z"/>
	<path class="st59" d="M99.3,18.6v-6.1l3.8-2.2v10.6L99.3,18.6z"/>
	<path class="st60" d="M93.9,21.7v4.3l9.2-5.3l-3.8-2.2L93.9,21.7z"/>
	<path class="st59" d="M88.6,18.6l-3.8,2.2l9.2,5.3v-4.3L88.6,18.6z"/>
	<path class="st58" d="M84.8,10.3l3.8,2.2v6.1l-3.8,2.2C84.8,20.8,84.8,10.3,84.8,10.3z"/>
	<path class="st61" d="M93.9,9.4l-5.4,3.1l-3.8-2.2L93.9,5V9.4z"/>
	<path class="st62" d="M103.1,10.3l-4,2l-4.9-2.9L94,4.9l-0.2,4.5l-4.9,2.9l-4-2l3.8,2.2v2.2c0.1-0.7,0.2-1.4,0.2-2L94,9.8l5.1,2.8
		c0.1,0.7,0.2,1.4,0.2,2v-2.2h0.1L103.1,10.3z"/>
	<path class="st63" d="M93.9,3.8l0.5,0.3l9.1,5.3l0.5,0.3v11.7l-0.5,0.3l-9.1,5.3l-0.5,0.3l-0.5-0.3l-9.1-5.3l-0.5-0.3V9.7l0.5-0.3
		l9.1-5.3L93.9,3.8z M93.9,3.2c-0.1,0-0.2,0-0.3,0.1L93,3.6L84,8.9l-0.5,0.3c-0.1,0.1-0.2,0.2-0.2,0.2c-0.1,0.1-0.1,0.2-0.1,0.3
		v11.7c0,0.1,0,0.2,0.1,0.3c0.1,0.1,0.2,0.2,0.2,0.2l0.5,0.3l9.1,5.3l0.5,0.3c0.1,0.1,0.2,0.1,0.3,0.1c0.1,0,0.2,0,0.3-0.1l0.5-0.3
		l9.2-5.3l0.5-0.3c0.1-0.1,0.2-0.2,0.2-0.2c0.1-0.1,0.1-0.2,0.1-0.3V9.7c0-0.1,0-0.2-0.1-0.3c-0.1-0.1-0.2-0.2-0.2-0.2l-0.5-0.3
		l-9.1-5.3l-0.5-0.3C94.1,3.3,94,3.2,93.9,3.2L93.9,3.2z"/>
	
		<linearGradient id="SVGID_00000049179484515456144130000002058074624733784760_" gradientUnits="userSpaceOnUse" x1="93.8927" y1="511.2618" x2="93.8927" y2="487.8506" gradientTransform="matrix(1 0 0 1 0 -484)">
		<stop  offset="0" style="stop-color:#9C3600"/>
		<stop  offset="4.000000e-02" style="stop-color:#A44401"/>
		<stop  offset="0.25" style="stop-color:#CD8909"/>
		<stop  offset="0.4" style="stop-color:#E7B40D"/>
		<stop  offset="0.48" style="stop-color:#F1C40F"/>
		<stop  offset="0.53" style="stop-color:#F2C615"/>
		<stop  offset="0.6" style="stop-color:#F3CC25"/>
		<stop  offset="0.67" style="stop-color:#F7D53F"/>
		<stop  offset="0.75" style="stop-color:#FBE363"/>
		<stop  offset="0.81" style="stop-color:#FFF088"/>
		<stop  offset="1" style="stop-color:#FFF8D6"/>
	</linearGradient>
	<path style="fill:url(#SVGID_00000049179484515456144130000002058074624733784760_);" d="M103.5,9.4l-9.1-5.3l-0.5-0.3l-0.5,0.3
		l-9.1,5.3l-0.5,0.3v11.7l0.5,0.3l9.1,5.3l0.5,0.3l0.5-0.3l9.1-5.3l0.5-0.3V9.7L103.5,9.4z M93.9,23.8l-1.3,1.6L86,21.6l0.7-1.9
		l-1.9-0.4v-7.5l1.9-0.4L86,9.5l6.5-3.8l1.3,1.6l1.3-1.6l6.5,3.8l-0.7,1.9l1.9,0.4v7.5l-1.9,0.4l0.7,1.9l-6.5,3.8L93.9,23.8z"/>
	<path class="st61" d="M93.9,6.3L93,5.2l0.9-0.5l0.9,0.5L93.9,6.3z"/>
	<path class="st60" d="M93.9,24.9l0.9,1.1l-0.9,0.5L93,26L93.9,24.9z"/>
	<path class="st58" d="M102,10.9l1.4,0.2v-1l-0.9-0.5L102,10.9z"/>
	<path class="st59" d="M85.8,20.2L84.5,20v1l0.9,0.5L85.8,20.2z"/>
	<path class="st59" d="M102,20.2l1.4-0.2v1l-0.9,0.5L102,20.2z"/>
	<path class="st58" d="M85.8,10.9l-1.3,0.2v-1l0.9-0.5L85.8,10.9z"/>
	<path class="st65" d="M93.9,4.9l0.7,0.4L93.9,6l-0.7-0.8L93.9,4.9 M93.9,4.6L93,5.2l0.9,1.1l0.9-1.1L93.9,4.6z"/>
	<path class="st65" d="M93.9,25.1l0.7,0.8l-0.7,0.4l-0.7-0.4L93.9,25.1z M93.9,24.9L93,26l0.9,0.5l0.9-0.5L93.9,24.9z"/>
	<path class="st65" d="M102.5,9.8l0.7,0.4V11l-1-0.2L102.5,9.8z M102.4,9.6l-0.5,1.3l1.4,0.2v-1L102.4,9.6L102.4,9.6z"/>
	<path class="st65" d="M84.7,20.2l1,0.2l-0.3,0.9l-0.7-0.4V20.2 M84.5,19.9v1l0.9,0.5l0.5-1.3L84.5,19.9z"/>
	<path class="st65" d="M103.2,20.2v0.8l-0.7,0.4l-0.3-0.9L103.2,20.2 M103.4,19.9l-1.4,0.2l0.5,1.3l0.9-0.5V19.9L103.4,19.9z"/>
	<path class="st65" d="M85.3,9.8l0.3,0.9l-1,0.2v-0.8L85.3,9.8z M85.4,9.6l-0.9,0.5v1l1.4-0.2L85.4,9.6L85.4,9.6z"/>
	<path class="st63" d="M103.1,11.8l-1.9-0.4l0.7-1.9l-6.5-3.8L94,7.3l-1.3-1.6l-6.5,3.8l0.7,1.9l-2,0.4v7.5l1.9,0.4L86,21.6l6.5,3.8
		l1.3-1.6l1.3,1.6l6.5-3.8l-0.7-1.9l1.9-0.4L103.1,11.8z M95.3,6.3l6,3.4l-0.5,1.6c0,0.1,0,0.1,0,0.2L96.1,14l-2-1.2V7.7
		c0.1,0,0.1-0.1,0.1-0.1L95.3,6.3z M93.9,17.9l-2-1.2v-2.3l2-1.2l2,1.2v2.3L93.9,17.9z M92.5,6.3l1.1,1.2l0.1,0.1v5.3l-2,1.2
		l-4.6-2.6c0-0.1,0-0.1,0-0.2l-0.5-1.6L92.5,6.3z M85.2,12.1l1.6-0.3c0.1,0,0.1,0,0.2-0.1l4.6,2.6v2.3L87,19.3
		c-0.1,0-0.1-0.1-0.2-0.1l-1.6-0.3C85.2,18.9,85.2,12.1,85.2,12.1z M92.5,24.8l-6-3.4l0.5-1.6c0-0.1,0-0.1,0-0.2l4.6-2.6l2,1.2v5.3
		c-0.1,0-0.1,0.1-0.1,0.1L92.5,24.8z M101.3,21.4l-6,3.4l-1.1-1.2l-0.1-0.1v-5.3l2-1.2l4.6,2.6c0,0.1,0,0.1,0,0.2L101.3,21.4z
		 M102.7,19l-1.6,0.3c-0.1,0-0.1,0-0.2,0.1l-4.6-2.6v-2.3l4.6-2.6c0.1,0,0.1,0.1,0.2,0.1l1.6,0.3V19z"/>
	<path class="st67" d="M99.9,19L94,22.3L88.2,19v-6.7L94,9l5.8,3.3V19z M94,9.4l5.4,3.1v6.2L94,21.9l-5.4-3.1v-6.2L94,9.4z"/>
	
		<linearGradient id="SVGID_00000064329777161934893790000014932287699189685129_" gradientUnits="userSpaceOnUse" x1="94.048" y1="505.8827" x2="94.048" y2="493.4564" gradientTransform="matrix(1 0 0 1 0 -484)">
		<stop  offset="0" style="stop-color:#9C3600"/>
		<stop  offset="4.000000e-02" style="stop-color:#A44401"/>
		<stop  offset="0.25" style="stop-color:#CD8909"/>
		<stop  offset="0.4" style="stop-color:#E7B40D"/>
		<stop  offset="0.48" style="stop-color:#F1C40F"/>
		<stop  offset="0.53" style="stop-color:#F2C615"/>
		<stop  offset="0.6" style="stop-color:#F3CC25"/>
		<stop  offset="0.67" style="stop-color:#F7D53F"/>
		<stop  offset="0.75" style="stop-color:#FBE363"/>
		<stop  offset="0.81" style="stop-color:#FFF088"/>
		<stop  offset="1" style="stop-color:#FFF8D6"/>
	</linearGradient>
	<path style="fill:url(#SVGID_00000064329777161934893790000014932287699189685129_);" d="M99.5,18.8v-6.2L94,9.4l-5.4,3.1v6.2
		l5.4,3.1L99.5,18.8z"/>
	<path class="st63" d="M103.1,11.8l-1.9-0.4l0.7-1.9l-6.5-3.8L94,7.3l-1.3-1.6l-6.5,3.8l0.7,1.9l-2,0.4v7.5l1.9,0.4L86,21.6l6.5,3.8
		l1.3-1.6l1.3,1.6l6.5-3.8l-0.7-1.9l1.9-0.4L103.1,11.8z M95.3,6.3l6,3.4l-0.5,1.6c0,0.1,0,0.1,0,0.2L96.1,14l-2-1.2V7.7
		c0.1,0,0.1-0.1,0.1-0.1L95.3,6.3z M93.9,17.9l-2-1.2v-2.3l2-1.2l2,1.2v2.3L93.9,17.9z M92.5,6.3l1.1,1.2l0.1,0.1v5.3l-2,1.2
		l-4.6-2.6c0-0.1,0-0.1,0-0.2l-0.5-1.6L92.5,6.3z M85.2,12.1l1.6-0.3c0.1,0,0.1,0,0.2-0.1l4.6,2.6v2.3L87,19.3
		c-0.1,0-0.1-0.1-0.2-0.1l-1.6-0.3C85.2,18.9,85.2,12.1,85.2,12.1z M92.5,24.8l-6-3.4l0.5-1.6c0-0.1,0-0.1,0-0.2l4.6-2.6l2,1.2v5.3
		c-0.1,0-0.1,0.1-0.1,0.1L92.5,24.8z M101.3,21.4l-6,3.4l-1.1-1.2l-0.1-0.1v-5.3l2-1.2l4.6,2.6c0,0.1,0,0.1,0,0.2L101.3,21.4z
		 M102.7,19l-1.6,0.3c-0.1,0-0.1,0-0.2,0.1l-4.6-2.6v-2.3l4.6-2.6c0.1,0,0.1,0.1,0.2,0.1l1.6,0.3V19z"/>
	
		<linearGradient id="SVGID_00000108280778251808568910000007949270077995314069_" gradientUnits="userSpaceOnUse" x1="93.8927" y1="497.2398" x2="93.8927" y2="501.8721" gradientTransform="matrix(1 0 0 1 0 -484)">
		<stop  offset="0" style="stop-color:#FFE5F6"/>
		<stop  offset="0.475" style="stop-color:#FF80D4"/>
		<stop  offset="1" style="stop-color:#FF00A8"/>
	</linearGradient>
	<path style="fill:url(#SVGID_00000108280778251808568910000007949270077995314069_);" d="M95.9,16.7v-2.3l-2-1.2l-2,1.2v2.3l2,1.2
		L95.9,16.7z"/>
</g>
</svg>
