<svg width="37" height="36" viewBox="0 0 37 36" fill="none" xmlns="http://www.w3.org/2000/svg">
<path fill-rule="evenodd" clip-rule="evenodd" d="M18.333 4.125C17.2974 4.125 16.458 4.96446 16.458 6C16.458 7.03554 17.2974 7.875 18.333 7.875C19.3686 7.875 20.208 7.03554 20.208 6C20.208 4.96446 19.3686 4.125 18.333 4.125ZM14.208 6C14.208 3.72183 16.0548 1.875 18.333 1.875C20.6112 1.875 22.458 3.72183 22.458 6C22.458 8.27817 20.6112 10.125 18.333 10.125C16.0548 10.125 14.208 8.27817 14.208 6ZM25.8171 10.7457C27.9483 10.289 29.958 11.9137 29.958 14.0933C29.958 15.5669 29.0151 16.8752 27.6171 17.3412L24.3542 18.4289C24.1485 18.4974 24.0255 18.5387 23.9343 18.5732C23.8766 18.5949 23.8523 18.6066 23.8464 18.6095C23.7233 18.6873 23.6562 18.8292 23.6745 18.9737C23.676 18.9801 23.6825 19.0064 23.7023 19.0647C23.7336 19.1571 23.78 19.2783 23.8578 19.4805L25.728 24.3431C26.5682 26.5274 24.9558 28.875 22.6154 28.875C21.4187 28.875 20.3138 28.2338 19.7199 27.1947L18.333 24.7676L16.9461 27.1947C16.3523 28.2338 15.2473 28.875 14.0506 28.875C11.7103 28.875 10.0979 26.5274 10.938 24.3431L12.8082 19.4805C12.886 19.2783 12.9324 19.1571 12.9638 19.0647C12.9836 19.0064 12.9901 18.9801 12.9915 18.9737C13.0098 18.8292 12.9428 18.6873 12.8197 18.6095C12.8138 18.6066 12.7895 18.5949 12.7318 18.5732C12.6405 18.5387 12.5175 18.4974 12.3119 18.4289L9.04894 17.3412C7.65095 16.8752 6.70801 15.5669 6.70801 14.0933C6.70801 11.9137 8.71769 10.289 10.8489 10.7457L13.6953 11.3557C13.855 11.3899 13.9297 11.4059 14.0033 11.4211C16.8596 12.0119 19.8065 12.0119 22.6628 11.4211C22.7364 11.4059 22.811 11.3899 22.9707 11.3557L25.8171 10.7457ZM27.708 14.0933C27.708 13.3461 27.0191 12.7892 26.2886 12.9458L23.4381 13.5566C23.2839 13.5896 23.201 13.6074 23.1185 13.6245C19.9616 14.2775 16.7045 14.2775 13.5475 13.6245C13.4651 13.6074 13.3822 13.5897 13.2283 13.5567L10.3775 12.9458C9.64691 12.7892 8.95801 13.3461 8.95801 14.0933C8.95801 14.5984 9.28124 15.047 9.76046 15.2067L13.0234 16.2944C13.0506 16.3034 13.0779 16.3124 13.1054 16.3215C13.4137 16.4237 13.7341 16.5299 13.9983 16.6929C14.8819 17.2383 15.3609 18.2535 15.2203 19.2822C15.1782 19.5899 15.0565 19.9047 14.9393 20.2077C14.9289 20.2347 14.9185 20.2616 14.9083 20.2883L13.0381 25.1508C12.7648 25.8614 13.2893 26.625 14.0506 26.625C14.4399 26.625 14.7993 26.4164 14.9925 26.0784L17.3562 21.9419C17.5565 21.5913 17.9294 21.375 18.333 21.375C18.7367 21.375 19.1096 21.5913 19.3098 21.9419L21.6735 26.0784C21.8667 26.4164 22.2261 26.625 22.6154 26.625C23.3768 26.625 23.9013 25.8614 23.628 25.1508L21.7578 20.2883C21.7475 20.2616 21.7371 20.2347 21.7266 20.2077C21.6095 19.9047 21.4878 19.5899 21.4457 19.2822C21.3051 18.2535 21.7841 17.2383 22.6677 16.6929C22.9319 16.5299 23.2523 16.4237 23.5607 16.3215C23.5881 16.3124 23.6154 16.3034 23.6426 16.2944L26.9055 15.2067C27.3848 15.047 27.708 14.5984 27.708 14.0933ZM8.15759 21.2447C8.43668 21.7998 8.21293 22.476 7.65782 22.7552C5.37644 23.9022 4.45801 25.1924 4.45801 26.25C4.45801 27.3956 5.54402 28.8072 8.18807 29.997C10.7265 31.1394 14.3123 31.875 18.333 31.875C22.3538 31.875 25.9395 31.1394 28.478 29.997C31.122 28.8072 32.208 27.3956 32.208 26.25C32.208 25.1924 31.2896 23.9022 29.0082 22.7552C28.4531 22.476 28.2293 21.7998 28.5084 21.2447C28.7876 20.6895 29.4638 20.4659 30.0189 20.7449C32.4879 21.9863 34.458 23.85 34.458 26.25C34.458 28.8324 32.1861 30.7958 29.4012 32.0489C26.5107 33.3497 22.5966 34.125 18.333 34.125C14.0695 34.125 10.1552 33.3497 7.26475 32.0489C4.47986 30.7958 2.20801 28.8324 2.20801 26.25C2.20801 23.85 4.17811 21.9863 6.64712 20.7449C7.20223 20.4659 7.87849 20.6895 8.15759 21.2447Z" fill="#393931"/>
</svg>
