<?xml version="1.0" encoding="utf-8"?>
<!-- Generator: Adobe Illustrator 27.1.1, SVG Export Plug-In . SVG Version: 6.00 Build 0)  -->
<svg version="1.1" id="Слой_1" xmlns="http://www.w3.org/2000/svg" xmlns:xlink="http://www.w3.org/1999/xlink" x="0px" y="0px"
	 viewBox="0 0 160 109" style="enable-background:new 0 0 160 109;" xml:space="preserve">
<style type="text/css">
	.st0{fill:#F4F6F1;}
	.st1{fill:none;stroke:#C2C2C2;}
	.st2{fill:url(#SVGID_1_);}
	.st3{fill:#625A65;}
	.st4{fill:#291D29;}
	.st5{fill:#201D28;}
	.st6{fill:#756370;}
	.st7{fill:#352331;}
	.st8{fill:#413543;}
	.st9{fill:#441F00;}
	.st10{fill-rule:evenodd;clip-rule:evenodd;fill:url(#SVGID_00000052098335900083023300000007034439150532352146_);}
	.st11{fill:#111111;}
	.st12{fill:#FFFFFF;stroke:#919191;stroke-width:0.2;stroke-miterlimit:10;}
</style>
<path class="st0" d="M12.5,0.5H148c6.4,0,11.5,5.1,11.5,11.5v85c0,6.4-5.1,11.5-11.5,11.5H12.5C6.1,108.5,1,103.4,1,97V12
	C1,5.6,6.1,0.5,12.5,0.5z"/>
<path class="st1" d="M12.5,0.5H148c6.4,0,11.5,5.1,11.5,11.5v85c0,6.4-5.1,11.5-11.5,11.5H12.5C6.1,108.5,1,103.4,1,97V12
	C1,5.6,6.1,0.5,12.5,0.5z"/>
<linearGradient id="SVGID_1_" gradientUnits="userSpaceOnUse" x1="80.35" y1="580.5" x2="80.35" y2="501.1" gradientTransform="matrix(1 0 0 1 0 -486)">
	<stop  offset="0" style="stop-color:#9C3600"/>
	<stop  offset="4.000000e-02" style="stop-color:#A44401"/>
	<stop  offset="0.25" style="stop-color:#CD8909"/>
	<stop  offset="0.4" style="stop-color:#E7B40D"/>
	<stop  offset="0.48" style="stop-color:#F1C40F"/>
	<stop  offset="0.53" style="stop-color:#F2C615"/>
	<stop  offset="0.6" style="stop-color:#F3CC25"/>
	<stop  offset="0.67" style="stop-color:#F7D53F"/>
	<stop  offset="0.75" style="stop-color:#FBE363"/>
	<stop  offset="0.81" style="stop-color:#FFF088"/>
	<stop  offset="1" style="stop-color:#FFF8D6"/>
</linearGradient>
<path class="st2" d="M80.4,15.1L114.7,35v39.7L80.4,94.5L46,74.7V35L80.4,15.1z"/>
<path class="st3" d="M80.3,19v35.2L49.8,36.6L80.3,19z"/>
<path class="st4" d="M80.3,54.2L49.8,71.8V36.6L80.3,54.2z"/>
<path class="st5" d="M80.3,54.2v35.2L49.8,71.8L80.3,54.2z"/>
<path class="st6" d="M80.3,19l30.5,17.6L80.3,54.2V19z"/>
<path class="st7" d="M80.3,54.2l30.5,17.6L80.3,89.4V54.2z"/>
<path class="st8" d="M80.3,54.2l30.5-17.6v35.2L80.3,54.2z"/>
<path class="st9" d="M80.3,16.5l1.6,0.9l29.6,17.1l1.6,0.9v38l-1.6,0.9L81.9,91.6l-1.6,0.9l-1.6-0.9L49,74.5l-1.6-0.9v-38l1.6-0.9
	l29.6-17.1L80.3,16.5z M80.3,14.5c-0.3,0-0.7,0.1-1,0.3l-1.6,0.9L48,32.8l-1.6,0.9c-0.3,0.2-0.5,0.4-0.7,0.7s-0.3,0.6-0.3,1v38
	c0,0.3,0.1,0.7,0.3,1s0.4,0.5,0.7,0.7L48,76l29.6,17.1l1.6,0.9c0.3,0.2,0.6,0.3,1,0.3c0.3,0,0.7-0.1,1-0.3l1.6-0.9L112.4,76l1.6-0.9
	c0.3-0.2,0.6-0.4,0.7-0.7c0.2-0.3,0.3-0.6,0.3-1v-38c0-0.3-0.1-0.7-0.3-1c-0.2-0.3-0.4-0.5-0.7-0.7l-1.6-0.9L82.9,15.7l-1.6-0.9
	C80.9,14.6,80.6,14.5,80.3,14.5L80.3,14.5z"/>
<path class="st9" d="M80.5,20.7l1.5,0.9l26.6,15.3l1.5,0.9v34.1l-1.5,0.9L81.9,88l-1.5,0.9L79,88L52.4,72.7L51,71.9V37.8l1.5-0.9
	L79,21.6L80.5,20.7z M80.5,19c-0.3,0-0.6,0.1-0.9,0.2l-1.5,0.9L51.5,35.4L50,36.3c-0.3,0.2-0.5,0.4-0.6,0.6
	c-0.2,0.3-0.2,0.6-0.2,0.9v34.1c0,0.3,0.1,0.6,0.2,0.9c0.2,0.3,0.4,0.5,0.6,0.6l1.5,0.9l26.6,15.3l1.5,0.9c0.3,0.2,0.6,0.2,0.9,0.2
	s0.6-0.1,0.9-0.2l1.5-0.9l26.6-15.3l1.5-0.9c0.3-0.2,0.5-0.4,0.6-0.6c0.2-0.3,0.2-0.6,0.2-0.9V37.8c0-0.3-0.1-0.6-0.2-0.9
	c-0.2-0.3-0.4-0.5-0.6-0.6l-1.5-0.9L82.8,20.1l-1.5-0.9C81.1,19.1,80.8,19,80.5,19L80.5,19z"/>
<linearGradient id="SVGID_00000117641324210283576410000008167377856740242356_" gradientUnits="userSpaceOnUse" x1="80.2" y1="565.8" x2="80.2" y2="527.4" gradientTransform="matrix(1 0 0 1 0 -486)">
	<stop  offset="0" style="stop-color:#9C3600"/>
	<stop  offset="4.000000e-02" style="stop-color:#A44401"/>
	<stop  offset="0.25" style="stop-color:#CD8909"/>
	<stop  offset="0.4" style="stop-color:#E7B40D"/>
	<stop  offset="0.48" style="stop-color:#F1C40F"/>
	<stop  offset="0.53" style="stop-color:#F2C615"/>
	<stop  offset="0.6" style="stop-color:#F3CC25"/>
	<stop  offset="0.67" style="stop-color:#F7D53F"/>
	<stop  offset="0.75" style="stop-color:#FBE363"/>
	<stop  offset="0.81" style="stop-color:#FFF088"/>
	<stop  offset="1" style="stop-color:#FFF8D6"/>
</linearGradient>
<path style="fill-rule:evenodd;clip-rule:evenodd;fill:url(#SVGID_00000117641324210283576410000008167377856740242356_);" d="
	M99.7,41.4L80.2,79.8L60.7,41.4H99.7z M78.6,44.7v25l-11.5-25C67.1,44.7,78.6,44.7,78.6,44.7z M81.8,44.7v25l11.5-25
	C93.3,44.7,81.8,44.7,81.8,44.7z"/>
<path class="st9" d="M80.2,79.8L79.8,80c0.1,0.2,0.3,0.3,0.4,0.3c0.2,0,0.4-0.1,0.4-0.3L80.2,79.8z M99.7,41.4l0.4,0.2
	c0.1-0.2,0.1-0.3,0-0.5c-0.1-0.1-0.3-0.2-0.4-0.2V41.4z M60.7,41.4v-0.5c-0.2,0-0.3,0.1-0.4,0.2c-0.1,0.1-0.1,0.3,0,0.5L60.7,41.4z
	 M78.6,69.8L78.2,70c0.1,0.2,0.3,0.3,0.6,0.3c0.2-0.1,0.4-0.3,0.4-0.5H78.6z M78.6,44.7h0.5c0-0.3-0.2-0.5-0.5-0.5V44.7z M67.1,44.7
	v-0.5c-0.2,0-0.3,0.1-0.4,0.2c-0.1,0.1-0.1,0.3,0,0.5L67.1,44.7z M81.8,69.8h-0.5c0,0.2,0.2,0.4,0.4,0.5c0.2,0.1,0.5-0.1,0.6-0.3
	L81.8,69.8z M81.8,44.7v-0.5c-0.3,0-0.5,0.2-0.5,0.5H81.8z M93.3,44.7l0.5,0.2c0.1-0.2,0.1-0.3,0-0.5c-0.1-0.1-0.3-0.2-0.4-0.2
	L93.3,44.7L93.3,44.7z M80.7,80l19.5-38.4l-0.9-0.5L79.8,79.6L80.7,80z M60.3,41.6L79.8,80l0.9-0.5L61.1,41.2L60.3,41.6z M99.7,40.9
	h-39v1h39V40.9z M79.1,69.8v-25h-1v25H79.1z M66.6,44.9l11.5,25l0.9-0.4l-11.5-25L66.6,44.9z M78.6,44.2H67.1v1h11.5V44.2z
	 M82.3,69.8v-25h-1v25H82.3z M92.9,44.5l-11.5,25l0.9,0.4l11.5-25L92.9,44.5z M81.8,45.2h11.5v-1H81.8V45.2z"/>
<g>
	<g>
		<polygon class="st11" points="91.1,77.5 86,77.5 83,81.3 81.7,77.5 76.9,77.5 79.7,84.4 73.8,91.5 78.8,91.5 81.9,87.7 83.4,91.4 
			88.1,91.4 85.1,84.6 		"/>
		<path class="st11" d="M132.1,73c-1.2,0-2.4,0.3-3.4,1c-1.1,0.5-2,1.4-2.8,2.5c-0.8,1.1-1.4,2.4-1.8,3.7c-0.4,1.4-0.6,3-0.6,4.6
			c0,2.2,0.6,3.9,1.7,5.1c1.2,1.3,2.7,2,4.7,2c1.3,0,2.4-0.5,3.4-1c1.1-0.5,2-1.4,2.8-2.5c0.8-1.1,1.4-2.4,1.8-3.8
			c0.4-1.4,0.6-3,0.6-4.6c0-2.2-0.6-3.9-1.7-5.1C135.6,73.6,134,73,132.1,73z M134,80c0,1.4-0.2,2.8-0.6,4c-0.5,1.4-1,2.3-1.6,3
			c-0.6,0.7-1.2,1-1.8,1c-0.6,0-1.1-0.2-1.4-0.7c-0.3-0.5-0.5-1.2-0.5-2.2c0-1.4,0.2-2.8,0.6-4.1c0.3-1.1,0.9-2.1,1.6-2.9
			c0.6-0.7,1.2-1,1.8-1c0.6,0,1.1,0.2,1.4,0.7C133.8,78.3,134,79,134,80z"/>
		<polygon class="st11" points="91.5,76.8 90.5,81.5 95.5,78.6 92.8,91.5 97.3,91.5 101,73.6 96.8,73.6 		"/>
		<path class="st11" d="M152.8,75c-1.2-1.3-2.7-2-4.7-2c-1.2,0-2.4,0.3-3.4,1c-1.1,0.5-2,1.4-2.8,2.5c-0.8,1.1-1.4,2.4-1.8,3.7
			c-0.4,1.4-0.6,3-0.6,4.6c0,2.2,0.6,3.9,1.7,5.1c1.2,1.3,2.7,2,4.7,2c1.4,0,2.5-0.3,3.4-1c1.1-0.5,2-1.4,2.8-2.5
			c0.8-1.1,1.4-2.4,1.8-3.8c0.4-1.4,0.6-3,0.6-4.6C154.5,77.9,153.9,76.2,152.8,75z M150,80c0,1.4-0.2,2.8-0.6,4
			c-0.5,1.4-1,2.3-1.6,3c-0.6,0.7-1.2,1-1.8,1c-0.6,0-1.1-0.2-1.4-0.7c-0.3-0.5-0.5-1.2-0.5-2.2c0-1.4,0.2-2.8,0.6-4.1
			c0.3-1.1,0.9-2.1,1.6-2.9c0.6-0.7,1.2-1,1.8-1c0.6,0,1.1,0.2,1.4,0.7C149.8,78.3,150,79,150,80z"/>
		<path class="st11" d="M116.2,73c-1.2,0-2.4,0.3-3.4,1c-1.1,0.5-2,1.4-2.8,2.5c-0.8,1.1-1.4,2.4-1.8,3.8c-0.4,1.4-0.6,3-0.6,4.6
			c0,2.2,0.6,3.9,1.7,5.1c1.2,1.3,2.7,2,4.7,2c1.4,0,2.5-0.3,3.4-1c1.1-0.5,2-1.4,2.8-2.5c0.8-1.1,1.4-2.4,1.8-3.8
			c0.4-1.4,0.6-3,0.6-4.6c0-2.2-0.6-3.9-1.7-5.1C119.7,73.6,118.1,73,116.2,73z M114.1,88c-0.6,0-1.1-0.2-1.4-0.7
			c-0.3-0.5-0.5-1.2-0.5-2.2c0-1.4,0.2-2.8,0.6-4.1c0.3-1.1,0.9-2.1,1.6-2.9c0.6-0.7,1.2-1,1.8-1c0.6,0,1.1,0.2,1.4,0.7
			c0.3,0.5,0.5,1.2,0.5,2.2c0,1.4-0.2,2.8-0.6,4c-0.5,1.4-1,2.3-1.6,3C115.3,87.7,114.7,88,114.1,88z"/>
	</g>
	<g>
		<path class="st12" d="M81.1,85.9h-0.2L77.6,90h-3.7l5.4-6.5L76.6,77h3.7l1.5,4.2H82l3.2-4.2H89l-5.5,6.5l2.8,6.4h-3.6L81.1,85.9z
			 M92.4,90l2.8-13.3H95l-4.8,2.8l0.7-3.4l5-3h3.5L95.9,90H92.4z M113,90.4c-1.8,0-3.2-0.6-4.3-1.8s-1.6-2.8-1.6-4.8
			c0-1.6,0.2-3.1,0.6-4.5s1-2.6,1.7-3.6s1.6-1.8,2.6-2.3c1-0.6,2.1-0.9,3.2-0.9c1.8,0,3.2,0.6,4.3,1.8c1.1,1.2,1.6,2.8,1.6,4.8
			c0,1.6-0.2,3.1-0.6,4.5s-1,2.6-1.7,3.6s-1.6,1.8-2.6,2.3C115.2,90.2,114.1,90.4,113,90.4z M110.7,84.1c0,1.1,0.2,1.9,0.6,2.5
			s1,0.9,1.8,0.9s1.5-0.4,2.2-1.2c0.7-0.8,1.2-1.8,1.7-3.1c0.4-1.3,0.6-2.7,0.6-4.2c0-1.1-0.2-1.9-0.6-2.5s-1-0.9-1.8-0.9
			s-1.5,0.4-2.2,1.2c-0.7,0.8-1.3,1.8-1.7,3.1S110.7,82.6,110.7,84.1z M128.9,90.4c-1.8,0-3.2-0.6-4.3-1.8c-1.1-1.2-1.6-2.8-1.6-4.8
			c0-1.6,0.2-3.1,0.6-4.5s1-2.6,1.7-3.6s1.6-1.8,2.6-2.3c1-0.6,2.1-0.9,3.2-0.9c1.8,0,3.2,0.6,4.3,1.8c1.1,1.2,1.6,2.8,1.6,4.8
			c0,1.6-0.2,3.1-0.6,4.5c-0.4,1.4-1,2.6-1.7,3.6s-1.6,1.8-2.6,2.3S130.1,90.4,128.9,90.4z M126.6,84.1c0,1.1,0.2,1.9,0.6,2.5
			s1,0.9,1.8,0.9s1.5-0.4,2.2-1.2c0.7-0.8,1.2-1.8,1.7-3.1c0.4-1.3,0.6-2.7,0.6-4.2c0-1.1-0.2-1.9-0.6-2.5c-0.4-0.6-1-0.9-1.8-0.9
			s-1.5,0.4-2.2,1.2c-0.7,0.8-1.3,1.8-1.7,3.1S126.6,82.6,126.6,84.1z M144.9,90.4c-1.8,0-3.2-0.6-4.3-1.8c-1.1-1.2-1.6-2.8-1.6-4.8
			c0-1.6,0.2-3.1,0.6-4.5c0.4-1.4,1-2.6,1.7-3.6s1.6-1.8,2.6-2.3c1-0.6,2.1-0.9,3.2-0.9c1.8,0,3.2,0.6,4.3,1.8
			c1.1,1.2,1.6,2.8,1.6,4.8c0,1.6-0.2,3.1-0.6,4.5c-0.4,1.4-1,2.6-1.7,3.6s-1.6,1.8-2.6,2.3C147.1,90.2,146,90.4,144.9,90.4z
			 M142.6,84.1c0,1.1,0.2,1.9,0.6,2.5c0.4,0.6,1,0.9,1.8,0.9s1.5-0.4,2.2-1.2c0.7-0.8,1.2-1.8,1.7-3.1c0.4-1.3,0.6-2.7,0.6-4.2
			c0-1.1-0.2-1.9-0.6-2.5c-0.4-0.6-1-0.9-1.8-0.9s-1.5,0.4-2.2,1.2c-0.7,0.8-1.3,1.8-1.7,3.1C142.8,81.2,142.6,82.6,142.6,84.1z"/>
	</g>
</g>
</svg>
