<?xml version="1.0" encoding="utf-8"?>
<!-- Generator: Adobe Illustrator 27.1.1, SVG Export Plug-In . SVG Version: 6.00 Build 0)  -->
<svg version="1.1" id="Слой_1" xmlns="http://www.w3.org/2000/svg" xmlns:xlink="http://www.w3.org/1999/xlink" x="0px" y="0px"
	 viewBox="0 0 160 109" style="enable-background:new 0 0 160 109;" xml:space="preserve">
<style type="text/css">
	.st0{fill:#F4F6F1;}
	.st1{fill:none;stroke:#C2C2C2;}
	.st2{fill:url(#SVGID_1_);}
	.st3{fill:#FD9F09;}
	.st4{fill:#FC8B09;}
	.st5{fill:#CA7402;}
	.st6{fill:#FE920A;}
	.st7{fill:#A85C03;}
	.st8{fill:#B96704;}
	.st9{fill:#441F00;}
	.st10{fill:#111111;}
	.st11{fill:#FFFFFF;stroke:#919191;stroke-width:0.2;stroke-miterlimit:10;}
	.st12{fill:url(#SVGID_00000142143661985229495490000001360518450718707132_);}
	.st13{fill-rule:evenodd;clip-rule:evenodd;fill:#441F00;}
</style>
<path class="st0" d="M12,0.9h135.5c6.4,0,11.5,5.1,11.5,11.5v85c0,6.4-5.1,11.5-11.5,11.5H12c-6.4,0-11.5-5.1-11.5-11.5v-85
	C0.5,6,5.6,0.9,12,0.9z"/>
<path class="st1" d="M12,0.5h135.5c6.4,0,11.5,5.1,11.5,11.5v85c0,6.4-5.1,11.5-11.5,11.5H12c-6.4,0-11.5-5.1-11.5-11.5V12
	C0.5,5.6,5.6,0.5,12,0.5z"/>
<linearGradient id="SVGID_1_" gradientUnits="userSpaceOnUse" x1="79.85" y1="-471.224" x2="79.85" y2="-391.824" gradientTransform="matrix(1 0 0 -1 0 -376.724)">
	<stop  offset="0" style="stop-color:#9C3600"/>
	<stop  offset="4.000000e-02" style="stop-color:#A44401"/>
	<stop  offset="0.25" style="stop-color:#CD8909"/>
	<stop  offset="0.4" style="stop-color:#E7B40D"/>
	<stop  offset="0.48" style="stop-color:#F1C40F"/>
	<stop  offset="0.53" style="stop-color:#F2C615"/>
	<stop  offset="0.6" style="stop-color:#F3CC25"/>
	<stop  offset="0.67" style="stop-color:#F7D53F"/>
	<stop  offset="0.75" style="stop-color:#FBE363"/>
	<stop  offset="0.81" style="stop-color:#FFF088"/>
	<stop  offset="1" style="stop-color:#FFF8D6"/>
</linearGradient>
<path class="st2" d="M79.9,15.1L114.2,35v39.7L79.9,94.5L45.5,74.7V35L79.9,15.1z"/>
<path class="st3" d="M79.8,19v35.2L49.3,36.6L79.8,19z"/>
<path class="st4" d="M79.8,54.2L49.3,71.8V36.6L79.8,54.2z"/>
<path class="st5" d="M79.8,54.2v35.2L49.3,71.8L79.8,54.2z"/>
<path class="st6" d="M79.8,19l30.5,17.6L79.8,54.2V19z"/>
<path class="st7" d="M79.8,54.2l30.5,17.6L79.8,89.4V54.2z"/>
<path class="st8" d="M79.8,54.2l30.5-17.6v35.2L79.8,54.2z"/>
<path class="st9" d="M79.8,16.5l1.6,0.9L111,34.5l1.6,0.9v38l-1.6,0.9L81.4,91.6l-1.6,0.9l-1.6-0.9L48.5,74.5l-1.6-0.9v-38l1.6-0.9
	l29.6-17.1L79.8,16.5z M79.8,14.5c-0.3,0-0.7,0.1-1,0.3l-1.6,0.9L47.5,32.8l-1.6,0.9c-0.3,0.2-0.5,0.4-0.7,0.7s-0.3,0.6-0.3,1v38
	c0,0.3,0.1,0.7,0.3,1s0.4,0.5,0.7,0.7l1.6,0.9l29.6,17.1l1.6,0.9c0.3,0.2,0.6,0.3,1,0.3c0.3,0,0.7-0.1,1-0.3l1.6-0.9L112,76.2
	l1.6-0.9c0.3-0.2,0.6-0.4,0.7-0.7c0.2-0.3,0.3-0.6,0.3-1v-38c0-0.3-0.1-0.7-0.3-1c-0.2-0.3-0.4-0.5-0.7-0.7L112,33L82.4,15.7
	l-1.6-0.9C80.4,14.6,80.1,14.5,79.8,14.5L79.8,14.5z"/>
<path class="st9" d="M80,20.7l1.5,0.9L108,36.9l1.5,0.9v34.1l-1.5,0.9L81.4,88L80,88.9L78.5,88L51.9,72.7l-1.5-0.9v-34l1.5-0.9
	l26.6-15.3L80,20.7z M80,19c-0.3,0-0.6,0.1-0.9,0.2l-1.5,0.9L51,35.4l-1.5,0.9c-0.3,0.2-0.5,0.4-0.6,0.6c-0.2,0.3-0.2,0.6-0.2,0.9
	v34.1c0,0.3,0.1,0.6,0.2,0.9c0.2,0.3,0.4,0.5,0.6,0.6l1.5,0.9l26.6,15.3l1.5,0.9c0.3,0.2,0.6,0.2,0.9,0.2s0.6-0.1,0.9-0.2l1.5-0.9
	L109,74.3l1.5-0.9c0.3-0.2,0.5-0.4,0.6-0.6c0.2-0.3,0.2-0.6,0.2-0.9V37.8c0-0.3-0.1-0.6-0.2-0.9c-0.2-0.3-0.4-0.5-0.6-0.6l-1.5-0.9
	L82.3,20.1l-1.5-0.9C80.6,19.1,80.3,19,80,19L80,19z"/>
<g>
	<g>
		<polygon class="st10" points="91.1,77.5 86,77.5 83,81.3 81.7,77.5 76.9,77.5 79.7,84.4 73.8,91.5 78.8,91.5 81.9,87.7 83.4,91.4 
			88.1,91.4 85.1,84.6 		"/>
		<polygon class="st10" points="96.8,73.6 91.5,76.8 90.5,81.5 95.5,78.6 92.8,91.5 97.3,91.5 101,73.6 		"/>
	</g>
	<g>
		<path class="st11" d="M81.1,85.9h-0.2L77.6,90h-3.7l5.4-6.5L76.6,77h3.7l1.5,4.2H82l3.2-4.2H89l-5.5,6.5l2.8,6.4h-3.6L81.1,85.9z
			 M92.4,90l2.8-13.3H95l-4.8,2.8l0.7-3.4l5-3h3.5L95.9,90H92.4z"/>
	</g>
</g>
<g>
	<g>
		
			<linearGradient id="SVGID_00000002344483566672877740000006515549185542734985_" gradientUnits="userSpaceOnUse" x1="82.9161" y1="1128.8296" x2="74.8751" y2="1093.8304" gradientTransform="matrix(1 0 0 1 0 -1056)">
			<stop  offset="0" style="stop-color:#9C3600"/>
			<stop  offset="4.000000e-02" style="stop-color:#A44401"/>
			<stop  offset="0.25" style="stop-color:#CD8909"/>
			<stop  offset="0.4" style="stop-color:#E7B40D"/>
			<stop  offset="0.48" style="stop-color:#F1C40F"/>
			<stop  offset="0.53" style="stop-color:#F2C615"/>
			<stop  offset="0.6" style="stop-color:#F3CC25"/>
			<stop  offset="0.67" style="stop-color:#F7D53F"/>
			<stop  offset="0.75" style="stop-color:#FBE363"/>
			<stop  offset="0.81" style="stop-color:#FFF088"/>
			<stop  offset="1" style="stop-color:#FFF8D6"/>
		</linearGradient>
		<path style="fill:url(#SVGID_00000002344483566672877740000006515549185542734985_);" d="M91.8,48.8c-0.3-3.8-3.5-5.1-8-5.4v-5.1
			h-3.2v5.1c-1,0-1.9,0-2.6,0v-5.1h-3.2v5.1c-0.6,0-1.3,0-2.2,0l0,0h-4.5v3.5h2.6c1.3,0,1.9,0.6,1.9,1.3l-1,14.1c0,0.3-0.3,1-1.3,1
			h-2.6L67.1,67h4.5c1,0,1.6,0,2.2,0v5.4H77v-5.1c1,0,1.9,0,2.6,0v5.1h3.2V67c5.8-0.3,9.6-1.6,10.2-6.4c0.3-4.2-1.6-5.8-4.5-6.7
			C90.8,53.2,92.1,51.6,91.8,48.8L91.8,48.8z M86.9,60.3c0,3.8-7,3.5-9.3,3.5v-7C79.9,56.4,86.9,56.1,86.9,60.3z M85.7,50
			c0,3.5-6.1,3.2-8,3.2v-6.4C79.6,46.8,85.7,46.5,85.7,50z"/>
		<path class="st13" d="M67.4,67l0.6-3.8c0,0,0.3,0,1,0s1.6,0,1.6,0l0,0l0,0c1,0,1.3-0.6,1.3-1l0,0l0.3-14.4c0-0.3-0.3-0.6-0.3-1
			c-0.6,0-1-0.3-1.9-0.3l0,0l0,0c0,0-0.3,0-1,0c-0.3,0-0.6,0-0.6,0c-0.3,0-1,0-1,0V43h4.5l0,0c0.6,0,1.3,0,2.2,0v-5.1h3.2V43
			c0.6,0,1,0,1.6,0c0.3,0,0.6,0,1,0v-5.1h3.2V43c4.2,0.3,7.7,1.9,8,5.4l0,0c0,1.9-0.3,3.2-1.3,4.2c-0.3,0.3-1,1-1.6,1
			c0.6,0.3,1.3,0.3,1.9,0.6c1.9,1,3.2,2.9,2.9,6.1c-0.6,5.1-4.5,6.4-10.2,6.4v5.4h-3.2V67c-0.3,0-0.6,0-1,0h-0.3c-0.6,0-1,0-1.6,0
			v5.1h-3.2v-5.4L67.4,67z M71.6,68.6h-4.5c-0.3,0-1-0.3-1.3-0.6s-0.3-1-0.3-1.3l0.6-3.8c0-0.6,1-1.3,1.6-1.3l0,0H68
			c0.3,0,0.6,0,1,0s0.6,0,1,0l0,0l0.3-13.8l0,0l0,0c0,0,0,0-0.3,0c0,0,0,0-0.3,0l0,0c-0.3,0-0.6,0-1,0s-0.6,0-1,0h-0.3l0,0
			c-0.3,0-1-0.3-1.3-0.3c0-0.3,0-0.6,0-1V43c0-1,0.6-1.6,1.6-1.6h4.5c0,0,0,0,0.3,0h0.3v-3.8c0-1,0.6-1.6,1.6-1.6h3.2
			c0.3,0,1,0.3,1,0.3s0,0.3,0.3,0.3l0,0c0.3-0.3,1-0.6,1.3-0.6h3.2c0.3,0,1,0.3,1,0.3c0.3,0.3,0.3,0.6,0.3,1v3.8
			c1.6,0.3,3.5,0.6,4.8,1.6c1.9,1,2.9,2.9,3.2,5.1l0,0c0,1.6,0,3.2-1,4.2c-0.3,0.3-0.3,0.6-0.6,0.6c0.6,0.3,1.3,1,1.9,1.6
			c1.3,1.6,1.6,3.5,1.3,5.8c-0.3,2.9-1.6,5.1-3.8,6.1c-1.6,1-3.8,1.3-6.1,1.6v3.8c0,1-0.6,1.6-1.6,1.6h-3.2c-0.3,0-1-0.3-1-0.3
			s0-0.3-0.3-0.3c0,1.6-0.6,1.6-1.3,1.6h-3.2c-0.3,0-1-0.3-1-0.3c-0.3-0.3-0.3-0.6-0.3-1V69C72.2,68.6,71.9,68.6,71.6,68.6
			 M68.7,63.2C69,63.2,69,63.2,68.7,63.2C69,63.2,69,63.2,68.7,63.2z M85.3,60.3c0-0.6-0.3-1-0.6-1c-0.3-0.3-1-0.6-1.9-0.6
			C81.5,58,80.2,58,79.3,58v4.2c1,0,2.6,0,3.5-0.3c1,0,1.6-0.3,1.9-0.6C85,60.9,85.3,60.6,85.3,60.3z M77.7,63.5
			C77.7,63.5,77.3,63.5,77.7,63.5v-7c0.3,0,0.6,0,1,0c2.9,0,8.6,0,8.3,3.5c0,3.5-6.1,3.5-8.6,3.5C78,63.5,77.7,63.5,77.7,63.5z
			 M83.4,51c0.3-0.3,0.3-0.3,0.3-1s0-0.6-0.3-1s-0.6-0.3-1.6-0.6c-0.6,0-1.6,0-2.6,0V52c1,0,1.9,0,2.6-0.3
			C82.8,51.3,83.1,51.3,83.4,51z M77.7,53.2L77.7,53.2v-6.4c0.3,0,0.3,0,0.6,0c2.2,0,7,0,7,3.2s-5.1,3.2-7.4,3.2
			C78,53.2,78,53.2,77.7,53.2z"/>
	</g>
</g>
</svg>
