<svg width="160" height="109" viewBox="0 0 160 109" fill="none" xmlns="http://www.w3.org/2000/svg">
<rect x="1" y="0.5" width="158.5" height="108" rx="11.5" fill="#F4F6F1"/>
<rect x="1" y="0.5" width="158.5" height="108" rx="11.5" stroke="#C2C2C2"/>
<path d="M80.3483 15.14L114.712 34.98V74.66L80.3483 94.5L45.9844 74.66V34.98L80.3483 15.14Z" fill="url(#paint0_linear_68_5257)"/>
<path d="M80.3109 18.98L80.3109 54.18L49.8252 36.58L80.3109 18.98Z" fill="#E2C04F"/>
<path d="M80.3109 54.18L49.8252 71.78V36.58L80.3109 54.18Z" fill="#BF951E"/>
<path d="M80.3109 54.18L80.3109 89.38L49.8252 71.78L80.3109 54.18Z" fill="#8A6E10"/>
<path d="M80.3105 18.98L110.796 36.58L80.3105 54.18V18.98Z" fill="#B69932"/>
<path d="M80.3105 54.18L110.796 71.78L80.3105 89.38V54.18Z" fill="#634902"/>
<path d="M80.3105 54.18L110.796 36.58V71.78L80.3105 54.18Z" fill="#9B8122"/>
<path d="M95.228 38.5762C95.4819 38.7765 95.6347 39.0751 95.8221 39.3348L96.7802 40.5948L101.5 46.5721C101.793 46.9621 102.257 47.4333 102.437 47.8846L102.41 47.984L102.472 48.107L97.7753 45.3953L95.9497 44.3135C95.6483 44.1403 95.3517 43.9399 95.0293 43.8087L95.228 38.5762Z" fill="#EB9503"/>
<path d="M80.4309 35.8287L87.7826 38.7228L85.7071 40.6881C85.3291 41.0466 84.8993 41.5499 84.4454 41.7921C84.0649 41.9952 83.3827 42.1334 82.9519 42.1379L82.6844 42.1218L75.4182 41.5779L73.2822 39.5479L80.4309 35.8287Z" fill="#C64904"/>
<path d="M64.9063 43.7835L64.9054 45.2869L62.3346 52.1142L61.8154 55.1884L61.1991 58.3445C61.1498 58.584 60.9396 59.2188 60.9836 59.4414C60.9938 59.4929 61.0388 59.5308 61.0665 59.5754L61.902 61.3297L64.0776 65.9236L65.6075 69.1673C65.8332 69.6191 66.0507 70.1246 66.3377 70.5389L66.4508 70.8502L61.5542 78.2208C60.9957 78.2149 58.4465 78.4018 58.1167 78.6974L58.0342 78.5737L58.1458 74.7835L58.1565 74.7053L58.2841 61.4976L58.3311 52.5482L58.317 49.8508C58.3085 49.3216 58.3255 48.7745 58.2362 48.2526L58.2616 48.1951L64.9063 43.7835Z" fill="#C64904"/>
<path d="M95.0296 43.8088C95.352 43.9399 95.6486 44.1403 95.9499 44.3135L97.7755 45.3953L102.472 48.107L102.818 48.3442L102.844 48.4229C102.777 48.957 102.798 49.5086 102.796 50.0468L102.797 52.691L102.832 61.0696L102.851 74.3462L102.853 75.4451L102.848 77.7718L102.84 78.4386L102.766 78.8125L99.6754 75.1933C99.5139 74.5678 99.4551 73.8984 99.3682 73.2586L98.9796 70.5954L97.2203 58.6774C97.2217 58.5529 97.2001 58.4534 97.1746 58.333C96.9623 57.7178 96.8554 57.0023 96.7143 56.3631L95.8684 52.4391L95.1417 49.1788C95.0492 48.7463 94.9045 48.2703 94.8691 47.8316C94.8276 47.3148 94.8916 46.7656 94.9191 46.2484L95.0296 43.8088Z" fill="#C64904"/>
<path d="M61.9038 77.2838C61.7955 77.2434 61.6809 77.2221 61.5653 77.2209C61.2271 77.2173 60.4043 77.2674 59.64 77.3521C59.2531 77.395 58.8534 77.4497 58.5182 77.5169C58.352 77.5503 58.1809 77.5907 58.0265 77.6411C57.9119 77.6785 57.6589 77.7652 57.4497 77.9528C57.2055 78.1717 57.0842 78.4964 57.125 78.8218C57.1657 79.1471 57.3634 79.4318 57.6541 79.5837L63.6159 82.699L63.6358 82.7092L73.4429 87.5575L73.4438 87.558L77.4144 89.5262L77.4144 89.5262L77.4208 89.5293L79.0319 90.3138C79.0429 90.3191 79.054 90.3243 79.0651 90.3292C79.0897 90.3401 79.1191 90.3537 79.1528 90.3693C79.3643 90.4671 79.7431 90.6424 80.1396 90.7021C80.6074 90.7726 81.0606 90.5056 81.2257 90.0622C81.3907 89.6189 81.2226 89.1205 80.8226 88.8678L68.6453 81.1754C68.6351 81.1689 68.6247 81.1626 68.6142 81.1565L64.4782 78.7496L64.476 78.7483L62.9924 77.8747C62.954 77.8517 62.9072 77.8224 62.8536 77.7887C62.6212 77.6429 62.261 77.4169 61.9038 77.2838ZM58.6124 79.5553C58.612 79.5552 58.6169 79.5529 58.6283 79.5488C58.6185 79.5534 58.6128 79.5554 58.6124 79.5553Z" fill="#D07202" stroke="#441F00" stroke-width="2" stroke-linejoin="round"/>
<path d="M69.8445 43.4518C69.9345 43.3959 70.0254 43.3395 70.1171 43.2838C70.1548 43.3353 70.1921 43.3819 70.2243 43.4208C70.2917 43.5023 70.3904 43.6117 70.4316 43.6573C70.4405 43.6672 70.4468 43.6741 70.4494 43.6771C70.4496 43.6773 70.4497 43.6774 70.4498 43.6776L71.3646 44.7262C72.1655 45.683 72.8854 46.6928 73.5569 47.7597L73.5569 47.7598C73.5867 47.8072 73.6161 47.8532 73.6449 47.8983C73.7516 48.0657 73.8502 48.2202 73.9345 48.3847C73.9849 48.4832 74.0153 48.5579 74.031 48.6098C74.0345 48.6214 74.0368 48.6302 74.0382 48.6364C74.0325 48.7488 74.0458 48.8615 74.0777 48.9696L76.138 55.9615C76.2312 56.278 76.4746 56.5282 76.7885 56.63L82.2515 58.4031C82.5271 58.4926 82.828 58.4581 83.0762 58.3086L89.4882 54.4459L93.5995 57.1951C93.5995 57.1951 93.5995 57.1952 93.5996 57.1952C93.5996 57.1952 93.5997 57.1953 93.5997 57.1953C93.8413 57.3569 94.0984 57.5368 94.3667 57.7245C95.0943 58.2334 95.9049 58.8004 96.7138 59.2205C97.0769 59.409 97.5183 59.3574 97.828 59.09C98.1378 58.8227 98.2534 58.3936 98.12 58.0068C97.9909 57.6328 97.9135 57.2428 97.8246 56.7952C97.7845 56.5932 97.742 56.3794 97.6914 56.1501C97.6912 56.1493 97.6911 56.1484 97.6909 56.1476L96.8461 52.2284L96.8445 52.2215L96.1196 48.9698C96.1193 48.9684 96.119 48.967 96.1187 48.9655C96.0773 48.7724 96.0376 48.6093 96.0021 48.4639C95.9358 48.192 95.8845 47.9817 95.8659 47.7515C95.8412 47.4442 95.8621 47.1438 95.8877 46.7741C95.8978 46.6288 95.9086 46.4727 95.9177 46.3014L95.9178 46.3014L95.9181 46.2936L96.0286 43.8541L96.0286 43.8541L96.0289 43.8467L96.2276 38.6143C96.2287 38.5858 96.2285 38.5573 96.2272 38.5288C96.2139 38.2504 96.2249 38.01 96.2377 37.7291C96.2461 37.5442 96.2554 37.3418 96.259 37.0996L96.259 37.0996L96.2591 37.0918L96.2811 34.0546L96.2811 34.0504C96.2815 33.9398 96.2852 33.8211 96.2896 33.6819L96.2898 33.6781C96.294 33.5449 96.2988 33.3941 96.2995 33.2415C96.301 32.9408 96.2879 32.5705 96.2 32.2062C96.165 32.0616 96.0983 31.9267 96.0046 31.8111C96.003 31.8091 96.0008 31.8063 95.998 31.803C95.9807 31.7815 95.9436 31.7353 95.9107 31.6985C95.8632 31.6455 95.7726 31.5508 95.6354 31.4681C95.495 31.3834 95.3648 31.3465 95.2828 31.3279C95.2211 31.3139 95.1555 31.304 95.124 31.2992L95.1161 31.298C94.953 31.2732 94.7864 31.2891 94.631 31.3442C93.946 31.5873 93.4549 32.0846 93.1435 32.3999C93.0898 32.4543 93.0414 32.5033 92.9983 32.5446L92.9982 32.5447C92.574 32.9515 92.173 33.3262 91.7486 33.6646C91.7285 33.6807 91.709 33.6975 91.6901 33.7151L88.6347 36.5639L88.6236 36.5744C88.4597 36.732 88.309 36.8823 88.1658 37.0251C87.8209 37.369 87.5195 37.6696 87.1816 37.9242C87.1495 37.9484 87.1189 37.9746 87.0899 38.0025L84.6209 40.38H75.7136L73.546 39.0105L65.0198 31.0825C64.7221 30.8058 64.2865 30.7367 63.9178 30.9078C63.5491 31.079 63.3207 31.4562 63.34 31.8623L63.9067 43.8069L63.9057 45.2863C63.9055 45.6495 64.1023 45.9844 64.4198 46.1609C64.7372 46.3374 65.1255 46.3279 65.4339 46.136L68.6317 44.1467C68.7616 44.0678 68.9005 43.9718 69.0061 43.8989C69.0384 43.8765 69.0676 43.8564 69.0925 43.8395C69.1904 43.773 69.2615 43.7287 69.3183 43.6984C69.4231 43.6681 69.5837 43.6133 69.7523 43.509L69.7527 43.5087C69.7832 43.4899 69.8138 43.4709 69.8445 43.4518Z" fill="#FBBF05" stroke="#441F00" stroke-width="2" stroke-linejoin="round"/>
<path d="M81.4075 49.8732C81.0765 49.861 80.7609 50.0134 80.5647 50.2803L79.708 51.4458L79.7076 51.4463L79.3656 51.9111C79.3373 51.9495 79.3118 51.9898 79.2893 52.0319C79.0799 52.423 78.821 52.7853 78.5275 53.1961C78.4185 53.3486 78.3048 53.5078 78.187 53.6776C77.9796 53.9767 77.9511 54.3648 78.1125 54.691C78.274 55.0172 78.5999 55.2299 78.9635 55.2464L84.427 55.4942C84.954 55.5181 85.4089 55.1286 85.4664 54.6043L85.8554 51.0566C85.8862 50.7758 85.7967 50.495 85.6092 50.2837C85.4217 50.0725 85.1535 49.9504 84.871 49.9476L82.8973 49.9286L81.4075 49.8732Z" fill="#30290B" stroke="#441F00" stroke-width="2" stroke-linejoin="round"/>
<path d="M81.4078 49.8732C81.0768 49.861 80.7611 50.0134 80.5649 50.2803L79.7079 51.4463C79.4188 51.8397 79.456 52.3844 79.7959 52.7348L79.981 52.9257C80.3587 53.3712 80.7611 53.7432 81.1885 54.0906C81.5327 54.3703 82.0199 54.39 82.3854 54.139C82.9205 53.7715 83.3208 53.2854 83.6241 52.9171C83.6563 52.878 83.6875 52.8402 83.7176 52.804L83.7177 52.8038C83.761 52.7517 83.8057 52.6983 83.8515 52.6436C84.1247 52.317 84.4368 51.944 84.7081 51.5415C84.915 51.2346 84.9355 50.8386 84.7613 50.512C84.5872 50.1855 84.247 49.9818 83.8769 49.9825C83.7872 49.9827 83.6868 49.9878 83.61 49.9917L83.6026 49.9921L83.6022 49.9921C83.5144 49.9965 83.4388 50.0003 83.3663 50.0018C83.3164 50.0028 83.2778 50.0024 83.2489 50.0013C83.1417 49.9579 83.0275 49.9334 82.9113 49.9291L81.4078 49.8732ZM83.1981 49.9972C83.1982 49.9972 83.2002 49.9974 83.204 49.9981C83.2 49.9976 83.1981 49.9973 83.1981 49.9972Z" fill="#080706" stroke="#441F00" stroke-width="2" stroke-linejoin="round"/>
<path d="M80.7908 50.6516C80.9803 50.4696 81.2338 50.3695 81.4965 50.3729C81.5006 50.373 81.5074 50.373 81.5166 50.3729C81.5815 50.3727 81.7643 50.3721 81.9256 50.3952C82.137 50.4255 82.4608 50.5098 82.743 50.7791L80.7908 50.6516ZM80.7908 50.6516C80.7894 50.6529 80.7863 50.6556 80.7816 50.6595C80.709 50.7211 80.266 51.0969 80.2309 51.715L80.2309 51.715C80.219 51.923 80.2527 52.1297 80.315 52.3121C80.3752 52.4881 80.4903 52.7229 80.707 52.9172L80.7073 52.9175C81.151 53.315 81.6963 53.3268 81.936 53.3198C82.1699 53.3131 82.394 53.2244 82.5694 53.0694C82.5718 53.0673 82.5762 53.0637 82.5824 53.0587C82.6735 52.9854 83.1459 52.6053 83.1882 51.9684L83.1882 51.9683M80.7908 50.6516L83.1882 51.9683M83.1882 51.9683C83.1978 51.8243 83.1983 51.6138 83.1248 51.382M83.1882 51.9683L83.1248 51.382M81.1926 51.8359L81.2301 51.8384C81.2283 51.8154 81.228 51.793 81.2292 51.7717C81.2329 51.7075 81.25 51.654 81.2759 51.6064L81.2624 51.5912C81.2553 51.6046 81.248 51.6195 81.241 51.6357C81.2228 51.6781 81.2091 51.7234 81.2007 51.7701C81.2007 51.7701 81.2007 51.7701 81.2007 51.7701L81.1926 51.8359ZM81.1926 51.8359C81.1926 51.8356 81.1927 51.8354 81.1927 51.8351L81.1926 51.8359ZM83.1248 51.382C83.0463 51.1344 82.9075 50.9361 82.7433 50.7794L83.1248 51.382ZM81.4721 52.2403L81.4712 52.3092C81.4366 52.2885 81.3995 52.2615 81.3625 52.2263C81.3624 52.2262 81.3623 52.2261 81.3622 52.226C81.3564 52.2204 81.3502 52.2141 81.3437 52.207C81.3437 52.207 81.3437 52.207 81.3437 52.207C81.3029 52.1627 81.2506 52.0883 81.2183 51.9864C81.1939 51.9093 81.1924 51.851 81.1926 51.8359L81.2301 51.8384C81.2395 51.9598 81.2898 52.0967 81.3745 52.1726C81.3815 52.1789 81.3887 52.1849 81.3959 52.1907C81.396 52.1908 81.3961 52.1908 81.3962 52.1909C81.4202 52.2099 81.4456 52.2262 81.4721 52.2403ZM81.1927 51.8351C81.1927 51.8331 81.1928 51.8321 81.1928 51.8321L81.1927 51.8351ZM82.1587 52.076L82.1449 52.0616C82.1699 52.0147 82.1864 51.9624 82.1904 51.9021C82.1922 51.8757 82.193 51.8506 82.1926 51.8264L82.2276 51.8284C82.2262 51.853 82.2232 51.8783 82.2183 51.904C82.2183 51.904 82.2183 51.904 82.2183 51.904C82.2111 51.9422 82.2 51.9811 82.1847 52.0194C82.1763 52.0403 82.1675 52.0592 82.1587 52.076ZM82.2276 51.8284L82.1926 51.8264C82.1905 51.6994 82.1555 51.6007 82.0528 51.5027C82.0385 51.489 82.0235 51.4769 82.0079 51.466L82.042 51.428C82.0575 51.4419 82.0716 51.4557 82.0845 51.4694L82.0528 51.5026L82.0845 51.4694C82.1679 51.5579 82.1981 51.6376 82.2075 51.6651C82.2205 51.7031 82.2318 51.7544 82.2276 51.8284ZM82.0417 51.4277L82.0077 51.4658C81.9686 51.4385 81.9257 51.4193 81.8805 51.4058L81.8783 51.33C81.9146 51.3421 81.9765 51.3693 82.0417 51.4277Z" fill="#FEFEFE" stroke="#441F00" stroke-width="2" stroke-linejoin="round"/>
<path d="M70.072 42.3213C70.3288 42.7097 70.8197 42.8695 71.256 42.7066C71.2551 42.707 71.288 42.6957 71.3713 42.6849C71.4504 42.6746 71.5481 42.6679 71.6655 42.6644C71.7824 42.6609 71.9039 42.6609 72.0337 42.6613C72.0435 42.6613 72.0534 42.6614 72.0634 42.6614C72.1782 42.6617 72.306 42.6621 72.4216 42.6588C72.422 42.6588 72.4224 42.6588 72.4229 42.6588L75.4467 42.5776C75.8507 42.5667 76.2085 42.3137 76.3534 41.9363C76.4982 41.559 76.4017 41.1315 76.1087 40.8531L73.9728 38.8231L73.9549 38.8065L68.6783 34.0306C68.6712 34.0242 68.6641 34.0179 68.6568 34.0117L66.241 31.9477C66.2329 31.9408 66.2246 31.9339 66.2163 31.9272C66.1659 31.8869 66.112 31.8431 66.0549 31.7966C65.7119 31.5175 65.2538 31.1446 64.7601 30.8907C64.3556 30.6827 63.8617 30.7739 63.5581 31.1125C63.2545 31.4512 63.2177 31.9521 63.4685 32.3315L70.072 42.3213Z" fill="#E78A02" stroke="#441F00" stroke-width="2" stroke-linejoin="round"/>
<path d="M63.4452 32.4996L63.9069 43.8037L63.906 45.2863C63.9058 45.6496 64.1025 45.9844 64.42 46.1609C64.7375 46.3375 65.1258 46.3279 65.4342 46.136L68.6319 44.1468C68.7618 44.0678 68.9007 43.9719 69.0063 43.8989C69.0386 43.8766 69.0678 43.8564 69.0927 43.8395C69.2249 43.7499 69.3081 43.7004 69.3735 43.6714C69.8765 43.4478 70.1042 42.8596 69.8829 42.3555L65.3599 32.0566C65.1666 31.6164 64.6874 31.3761 64.219 31.4845C63.7506 31.5928 63.4255 32.0192 63.4452 32.4996Z" fill="#FEFEFE" stroke="#441F00" stroke-width="2" stroke-linejoin="round"/>
<path d="M82.7457 41.1237C82.2707 41.0952 81.8433 41.4051 81.7203 41.8612C81.6886 41.8896 81.6537 41.9196 81.6131 41.9541C81.607 41.9593 81.6006 41.9648 81.5939 41.9704C81.5581 42.0009 81.5153 42.0373 81.4762 42.0717L80.4241 42.9784C80.424 42.9785 80.4239 42.9786 80.4238 42.9787C80.0362 43.3121 79.653 43.6462 79.272 43.9785C77.7498 45.3057 76.2615 46.6035 74.6562 47.7124C74.3931 47.8942 74.2327 48.1909 74.2249 48.5107C74.2171 48.8305 74.3627 49.1347 74.6167 49.3291L76.5599 50.8172L76.5741 50.8278C76.6985 50.9196 76.8211 51.0096 76.9417 51.0981C77.8334 51.7525 78.6225 52.3317 79.3299 53.0606C79.3411 53.0722 79.3526 53.0835 79.3644 53.0945C79.5433 53.339 79.8247 53.4905 80.1303 53.503C80.4624 53.5167 80.7797 53.3644 80.9768 53.0967L81.3192 52.6314L81.3196 52.6308L82.1767 51.4648C82.2668 51.3422 82.3277 51.2006 82.3549 51.0508L83.9371 42.3163C83.9881 42.0349 83.9162 41.7452 83.7396 41.5203C83.563 41.2955 83.2985 41.157 83.0131 41.1398L82.7457 41.1237Z" fill="#FBD522" stroke="#441F00" stroke-width="2" stroke-linejoin="round"/>
<path d="M95.4528 32.9796C95.4877 32.5406 95.2313 32.1303 94.8213 31.9694C94.4113 31.8084 93.9443 31.9347 93.6712 32.2803L85.2768 42.9068C85.109 43.1192 85.0345 43.3906 85.0703 43.659C85.1062 43.9274 85.2493 44.1697 85.467 44.3307L88.6218 46.6633L88.6241 46.665L92.5912 49.6162C92.8831 49.8333 93.2699 49.8748 93.6012 49.7245C93.9325 49.5742 94.156 49.2559 94.1849 48.8932L95.4528 32.9796Z" fill="#FBD522" stroke="#441F00" stroke-width="2" stroke-linejoin="round"/>
<path d="M68.5611 41.8438C68.608 41.823 68.6564 41.8058 68.7059 41.7924L68.7245 41.7873L68.74 41.7831L68.7413 41.7828C68.7557 41.7739 68.7703 41.7647 68.7854 41.7554C68.9955 41.6247 69.2684 41.4552 69.5478 41.3036C69.8567 41.1361 70.2508 40.9469 70.6509 40.8589C70.9545 40.7922 71.2718 40.8703 71.5096 41.0704C71.7474 41.2705 71.8786 41.5698 71.8647 41.8803C71.8611 41.9611 71.8518 42.0476 71.8455 42.1056C71.8437 42.1222 71.842 42.1379 71.8403 42.1529C71.8375 42.1781 71.835 42.2012 71.8326 42.2237C71.839 42.2309 71.8457 42.2383 71.8524 42.2459L71.902 42.3009C71.9181 42.3187 71.9368 42.3395 71.9544 42.3596L71.9558 42.3612L72.8787 43.4191L72.8917 43.4343C73.7616 44.4728 74.536 45.5603 75.2498 46.6944C75.2667 46.7212 75.2867 46.7525 75.3091 46.7875C75.4177 46.9572 75.5823 47.2142 75.7149 47.473C75.8384 47.7142 76.0165 48.1056 76.0376 48.5439L77.9077 54.8905L82.4352 56.36L89.0004 52.405C89.3324 52.205 89.7501 52.2149 90.0723 52.4304L94.7118 55.5328L94.712 55.533C95.0306 55.7461 95.3331 55.9578 95.627 56.1635C95.6592 56.186 95.6912 56.2084 95.7232 56.2307C95.7784 55.8164 96.0913 55.4665 96.5218 55.3819C97.0501 55.278 97.5659 55.6112 97.6884 56.1356L98.1487 58.1055C98.1965 58.3101 98.1779 58.5197 98.1024 58.707L100.686 74.8538L102.919 77.3661L103.275 77.5379C103.625 77.7064 103.845 78.0617 103.841 78.4496C103.84 78.4787 103.841 78.5015 103.842 78.5403C103.843 78.5601 103.844 78.5841 103.845 78.6152C103.847 78.689 103.849 78.8063 103.836 78.9351C103.807 79.2266 103.698 79.5904 103.375 79.9018L103.374 79.9018C102.991 80.2704 102.511 80.4871 102.208 80.6188L81.5359 90.5473C81.4267 90.5997 81.3104 90.6312 81.1926 90.6418C80.8597 90.9245 80.3769 90.9599 80.0041 90.7196L79.7546 90.5587L79.7469 90.5538L67.5927 82.876L63.468 80.4756L63.4635 80.473L61.975 79.5965L61.9698 79.5935C61.8385 79.515 61.6222 79.395 61.4271 79.2885C61.332 79.2366 61.2459 79.1901 61.1836 79.1565L61.1102 79.1171L61.0905 79.1066L61.0855 79.1039L61.0844 79.1033L61.0841 79.1031L61.0841 79.1031L61.084 79.1031L61.5548 78.2209C61.5548 78.2209 62.1191 78.522 62.4332 78.7057L68.5611 41.8438ZM68.5611 41.8438C68.3255 41.9485 68.121 42.0819 67.9699 42.1845C67.9132 42.2229 67.8654 42.2559 67.8228 42.2853C67.7332 42.3473 67.6668 42.3931 67.5907 42.4392L67.5906 42.4391L67.5803 42.4456L64.3778 44.4378C64.1901 44.5546 64.0464 44.7303 63.9691 44.9374L61.3675 51.9105C61.3459 51.9683 61.3298 52.0279 61.3192 52.0887L60.0392 59.4487C60.0033 59.6554 60.0332 59.8682 60.1249 60.0569M68.5611 41.8438L60.1249 60.0569M60.1249 60.0569L65.3154 70.7432L60.1249 60.0569Z" fill="#FEFEFE" stroke="#441F00" stroke-width="2" stroke-linejoin="round"/>
<path d="M70.352 56.0937C70.7267 55.8945 71.1864 55.9535 71.4986 56.2409C71.6206 56.3532 71.7933 56.4707 72.0334 56.6138C72.0995 56.6532 72.1798 56.6996 72.2665 56.7496C72.4419 56.851 72.6434 56.9673 72.8065 57.0718L72.8212 57.0813L75.2032 58.6658C75.6232 58.9451 75.7694 59.4936 75.5441 59.9449C75.4143 60.2051 75.2319 60.4228 75.1022 60.5686C75.0366 60.6423 74.9699 60.7133 74.9149 60.772L74.9064 60.781C74.8457 60.8457 74.8007 60.8939 74.7631 60.9369C74.7553 60.9459 74.7473 60.9546 74.7392 60.9633L72.6379 63.1982L74.1098 63.7241L74.1263 63.7301L75.5265 64.2583C75.5269 64.2585 75.5274 64.2587 75.5279 64.2588L75.5285 64.2591L75.5242 64.2706C75.5287 64.268 75.5332 64.2653 75.5378 64.2626M70.352 56.0937L69.1709 65.5149C69.6995 65.192 70.2065 64.902 70.7369 64.6429L70.912 64.7054L71.0983 65.364C71.0042 65.3906 70.9364 65.3874 70.9172 65.3854M70.352 56.0937L66.5608 58.1092C66.313 58.241 66.1319 58.4709 66.0619 58.7427C65.9919 59.0146 66.0393 59.3033 66.1927 59.5385L67.7945 61.9946C67.8034 62.0083 67.8127 62.0217 67.8223 62.035L67.8309 62.0469C68.1407 62.4747 68.4783 62.9407 68.8361 63.3891M70.352 56.0937L68.8361 63.3891M75.5378 64.2626C75.566 64.2734 75.5916 64.2842 75.61 64.2921C75.632 64.3015 75.6543 64.3114 75.6729 64.3197C75.6806 64.3231 75.6878 64.3263 75.6947 64.3294C75.7253 64.3431 75.7494 64.3538 75.7741 64.3644C75.7881 64.3703 75.7989 64.3747 75.8068 64.3778C75.8128 64.3801 75.8155 64.3811 75.8155 64.3811C75.8155 64.3811 75.8151 64.381 75.8142 64.3807L75.8141 64.3806C75.812 64.38 75.796 64.3746 75.7699 64.3686C75.756 64.3655 75.7351 64.3612 75.7086 64.3574C75.6829 64.3538 75.6442 64.3496 75.5961 64.3491L75.5934 64.6362C75.6018 64.6308 75.6104 64.6253 75.6192 64.6196L75.6214 64.6182C75.6711 64.5864 75.7457 64.5387 75.8135 64.5006L76.1709 64.2954L76.1767 64.2921L79.183 62.5663L80.0328 62.0533L80.0415 62.0481L81.661 61.0705L82.1777 61.9266L82.4198 62.8969C82.2412 62.9414 82.022 63.0361 81.7434 63.1822C81.6105 63.2519 81.4772 63.3261 81.3335 63.406L81.3237 63.4115C81.1827 63.49 81.0295 63.5752 80.8781 63.6536L80.0823 64.0774L80.0676 64.0852L76.9581 65.7412C76.9543 65.7434 76.9425 65.7502 76.9191 65.7643C76.8914 65.7808 76.8577 65.8014 76.8166 65.8265L76.8042 65.8341C76.7535 65.865 76.6944 65.9011 76.6323 65.9384C76.6296 65.94 76.6269 65.9417 76.6241 65.9433C76.5939 65.9615 76.563 65.9799 76.5321 65.9981C76.4321 66.057 76.3153 66.1238 76.207 66.1783C76.1539 66.205 76.0857 66.2375 76.0125 66.2655C76.0113 66.266 76.01 66.2665 76.0085 66.2671C75.9736 66.2805 75.8528 66.3272 75.6945 66.3435C75.6944 66.3435 75.6944 66.3435 75.6943 66.3435C75.6575 66.3472 75.6185 66.3494 75.5782 66.349L75.5771 66.349C75.4662 66.348 75.3754 66.33 75.325 66.3185C75.2687 66.3057 75.2194 66.2906 75.1821 66.2782C75.1086 66.2537 75.0398 66.2254 74.9908 66.2046C74.9641 66.1932 74.937 66.1813 74.913 66.1707C74.9108 66.1697 74.9086 66.1687 74.9065 66.1678C74.8951 66.1627 74.8844 66.1579 74.8749 66.1537C74.8693 66.1512 74.864 66.1488 74.8593 66.1467C74.8297 66.1335 74.8193 66.1292 74.8193 66.1291L73.4286 65.6045L71.7921 65.0199L71.7897 65.019L70.9163 64.707L71.1094 65.3608L70.9764 65.4001M75.5378 64.2626C75.6145 64.2171 75.6921 64.1697 75.7654 64.125L75.7746 64.1193L75.7866 64.112C75.8545 64.0706 75.941 64.0178 76.0014 63.9848L76.0104 63.9799L76.0104 63.9799L79.9433 61.8854L79.9544 61.8795L79.9545 61.8796C80.0756 61.817 80.204 61.7458 80.3508 61.6641L80.3686 61.6542C80.5062 61.5775 80.659 61.4925 80.8146 61.4109C81.1328 61.2441 81.5212 61.0598 81.9356 60.9563C82.4158 60.8365 82.9113 61.0859 83.1012 61.5429C83.2911 61.9999 83.1182 62.527 82.6945 62.7827L80.2072 64.2842L80.1882 64.2954L76.8043 66.2379L76.7919 66.2449C76.7919 66.2449 76.7848 66.249 76.7674 66.2598C76.749 66.2712 76.7266 66.2854 76.6978 66.3039C76.6901 66.3088 76.682 66.314 76.6735 66.3195C76.6225 66.3522 76.5574 66.3939 76.4926 66.4337C76.4183 66.4793 76.3231 66.5356 76.2245 66.5844C76.1747 66.609 76.1119 66.6378 76.0414 66.6635C75.9778 66.6866 75.8682 66.722 75.7336 66.7354L75.7334 66.7354C75.6089 66.7478 75.5045 66.7367 75.4476 66.7289C75.3831 66.7201 75.3253 66.7077 75.2808 66.6968C75.1925 66.6754 75.1069 66.6483 75.0426 66.627C74.9888 66.6091 74.9337 66.5897 74.892 66.5751C74.8831 66.572 74.8748 66.5691 74.8673 66.5664C74.8218 66.5505 74.8065 66.5456 74.8066 66.5455C74.8066 66.5455 74.807 66.5456 74.8078 66.5458L74.7982 66.5432L74.7983 66.5431L71.6174 65.626L71.6106 65.6241L71.6106 65.624C71.4972 65.5905 71.3777 65.545 71.2939 65.5131L71.2888 65.5112L71.2771 65.5067C71.1845 65.4715 71.1116 65.4437 71.0413 65.4203C71.0155 65.4118 70.994 65.4052 70.9764 65.4001M75.5378 64.2626L68.8361 63.3891M70.9764 65.4001C70.9453 65.3911 70.9264 65.387 70.9172 65.3854M70.9764 65.4001L67.9211 66.3028C67.4745 66.4347 66.9958 66.2408 66.7669 65.8352C66.538 65.4296 66.6194 64.9197 66.9632 64.6055C67.2921 64.305 67.689 64.0696 67.9735 63.9008C68.03 63.8673 68.082 63.8365 68.1282 63.8083L68.1282 63.8082C68.3621 63.6654 68.5972 63.5254 68.8361 63.3891M70.9172 65.3854C70.9166 65.3853 70.916 65.3852 70.9155 65.3852L70.9172 65.3854Z" fill="#080706" stroke="#441F00" stroke-width="2" stroke-linejoin="round"/>
<path d="M67.4012 70.5376C67.2815 70.1739 66.9646 69.9104 66.5851 69.8592C66.2057 69.8079 65.8302 69.9779 65.6183 70.2968L60.7217 77.6674C60.5528 77.9217 60.5093 78.2392 60.6035 78.5295C60.6978 78.8199 60.9195 79.0513 61.2055 79.1578C61.3545 79.2133 61.4746 79.2881 61.6672 79.4081C61.7514 79.4605 61.8494 79.5215 61.9697 79.5934L61.9697 79.5934L61.9748 79.5964L63.4634 80.4729L63.4634 80.4729L63.4678 80.4755L67.6083 82.8851C67.9286 83.0715 68.3258 83.0654 68.6403 82.8694C68.9548 82.6733 69.1351 82.3194 69.1087 81.9497C68.9766 80.096 68.6678 78.2061 68.3707 76.3883C68.269 75.7659 68.1687 75.1519 68.0773 74.5507L67.7329 72.2216L67.7327 72.2204C67.7224 72.1509 67.712 72.0768 67.701 71.9988C67.6414 71.5748 67.5659 71.0381 67.4012 70.5376Z" fill="#FBBF05" stroke="#441F00" stroke-width="2" stroke-linejoin="round"/>
<path d="M68.5608 41.8438C68.6077 41.823 68.6561 41.8058 68.7056 41.7924L68.7242 41.7873L68.7398 41.7831L68.741 41.7828C68.7554 41.7739 68.7701 41.7647 68.7851 41.7554C68.9953 41.6247 69.2681 41.4552 69.5475 41.3036C69.8564 41.1361 70.2506 40.9469 70.6507 40.8589C70.9542 40.7922 71.2715 40.8703 71.5093 41.0704C71.7471 41.2705 71.8783 41.5698 71.8644 41.8803C71.8608 41.9611 71.8515 42.0476 71.8452 42.1056C71.8434 42.1222 71.8417 42.1379 71.84 42.1529C71.8372 42.178 71.8347 42.2012 71.8323 42.2237C71.8388 42.2309 71.8454 42.2383 71.8522 42.2459L71.9017 42.3009C71.9178 42.3187 71.9365 42.3395 71.9541 42.3596L71.9555 42.3612L72.8784 43.4191L72.8914 43.4343C73.7613 44.4728 74.5357 45.5603 75.2495 46.6944L68.5608 41.8438ZM68.5608 41.8438C68.3252 41.9485 68.1207 42.0819 67.9696 42.1845C67.913 42.2229 67.8651 42.2559 67.8225 42.2853C67.7329 42.3473 67.6665 42.3931 67.5904 42.4392L67.5903 42.4391L67.58 42.4456L64.3775 44.4378C64.1907 44.554 64.0474 44.7286 63.9699 44.9345L61.3991 51.7619C61.2528 52.1505 61.3618 52.589 61.673 52.8639L66.3446 56.9891C66.6149 57.2279 66.9928 57.3025 67.3337 57.1845L70.915 55.9445L70.915 55.9446M68.5608 41.8438L70.915 55.9446M76.0332 48.7731C76.0208 48.9164 75.9776 49.0554 75.9066 49.1805C75.8302 49.3151 75.6161 49.7099 75.329 50.2391C75.0179 50.8128 74.6211 51.5444 74.2212 52.2738C73.8418 52.9657 73.4629 53.6496 73.1642 54.1707C73.0156 54.43 72.8822 54.6573 72.7764 54.8277C72.7244 54.9115 72.6719 54.9931 72.6234 55.0619C72.5998 55.0954 72.5684 55.1384 72.5321 55.1817C72.5316 55.1824 72.5309 55.1832 72.53 55.1843C72.5113 55.207 72.4159 55.3226 72.2681 55.4151L76.0332 48.7731ZM76.0332 48.7731C76.0789 48.2443 75.8593 47.7556 75.7146 47.473M76.0332 48.7731L75.7146 47.473M70.915 55.9446L70.9246 55.9412M70.915 55.9446L70.9246 55.9412M70.9246 55.9412C71.0181 55.9077 71.0916 55.8851 71.1817 55.8573M70.9246 55.9412L71.1817 55.8573M75.7146 47.473C75.582 47.2142 75.4174 46.9571 75.3088 46.7875M75.7146 47.473L75.3088 46.7875M75.3088 46.7875C75.2864 46.7525 75.2664 46.7213 75.2495 46.6945L75.3088 46.7875ZM71.1817 55.8573C71.2629 55.8323 71.3577 55.8031 71.4929 55.758M71.1817 55.8573L71.4929 55.758M71.4929 55.758C71.7082 55.6863 72.0068 55.5786 72.2681 55.4151L71.4929 55.758Z" fill="url(#paint1_linear_68_5257)" stroke="#441F00" stroke-width="2" stroke-linejoin="round"/>
<path d="M68.8164 49.5012C68.5146 49.254 68.0966 49.205 67.7457 49.3755L66.0453 50.2021C65.5792 50.4286 65.3634 50.9738 65.5481 51.458C65.674 51.7879 65.8305 52.1214 65.9682 52.415C66.0003 52.4833 66.0313 52.5495 66.0607 52.613C66.2273 52.9724 66.3571 53.2761 66.4373 53.5647C66.5478 53.9622 66.8911 54.251 67.3016 54.2919L68.8705 54.4483L68.8855 54.4497L70.511 54.5871C70.8504 54.6157 71.1812 54.4696 71.3886 54.1993C71.5959 53.929 71.6514 53.5717 71.5358 53.2512L70.6253 50.7277C70.5273 50.456 70.3165 50.2399 70.0473 50.1352L69.9897 50.1128C69.5324 49.9285 69.0657 49.7053 68.8164 49.5012Z" fill="#080706" stroke="#441F00" stroke-width="2" stroke-linejoin="round"/>
<path d="M67.4467 50.0893C67.6331 49.9847 67.8481 49.9425 68.0602 49.969C68.1847 49.9846 68.3916 50.0115 68.6067 50.1038C68.8405 50.2042 69.0074 50.3465 69.1326 50.4684C69.2404 50.5733 69.3231 50.7011 69.3746 50.8424C69.3761 50.8465 69.3778 50.851 69.3796 50.856C69.4066 50.9294 69.4677 51.0955 69.4918 51.2838C69.5228 51.5263 69.4926 51.7661 69.401 52.0025L67.4467 50.0893ZM67.4467 50.0893C67.4397 50.0932 67.4311 50.0979 67.4212 50.1033M67.4467 50.0893L67.4212 50.1033M68.5618 52.8421C68.3828 52.9352 68.1799 52.972 67.9797 52.9476C67.8323 52.9297 67.6295 52.8979 67.4157 52.8082C67.1865 52.7121 67.0019 52.5745 66.8431 52.4135C66.7466 52.3157 66.6712 52.1989 66.6218 52.0706C66.5613 51.9136 66.4305 51.5657 66.5519 51.1192L68.5618 52.8421ZM68.5618 52.8421C68.5635 52.8412 68.5673 52.8395 68.5729 52.837M68.5618 52.8421L68.5729 52.837M68.4685 51.6412L68.4813 51.6462C68.4659 51.7015 68.4413 51.7534 68.4112 51.7982C68.4102 51.7996 68.4093 51.8011 68.4083 51.8025L68.3894 51.7688C68.4217 51.7337 68.4487 51.6923 68.4685 51.6412ZM68.4685 51.6412L68.4813 51.6462C68.4815 51.6454 68.4817 51.6447 68.4819 51.6439C68.4819 51.6439 68.4819 51.6439 68.4819 51.6438C68.491 51.6102 68.4986 51.5688 68.5011 51.5216C68.5013 51.5167 68.5015 51.5119 68.5017 51.5071C68.4977 51.5486 68.4874 51.5922 68.4689 51.6403C68.4688 51.6403 68.4688 51.6404 68.4688 51.6404C68.4687 51.6407 68.4686 51.641 68.4685 51.6412ZM67.5169 51.3815C67.5262 51.3473 67.5386 51.3159 67.5537 51.2869C67.5538 51.2868 67.5538 51.2866 67.5539 51.2865C67.5845 51.2276 67.6259 51.1783 67.6739 51.1352L67.6521 51.0932C67.6455 51.1004 67.6388 51.1081 67.632 51.1164C67.5916 51.1655 67.5588 51.2214 67.5362 51.2796C67.5361 51.2797 67.5361 51.2798 67.536 51.2799C67.536 51.2799 67.536 51.28 67.536 51.28C67.5278 51.3013 67.5171 51.3354 67.5102 51.3797L67.5169 51.3815ZM67.5169 51.3815L67.5102 51.3797C67.5095 51.3846 67.5088 51.3897 67.5081 51.3948C67.5057 51.4144 67.5043 51.4334 67.5038 51.4517C67.506 51.4293 67.5103 51.406 67.5169 51.3815ZM68.5729 52.837C68.6593 52.7985 69.1828 52.5651 69.4008 52.0029L68.5729 52.837ZM67.4212 50.1033C67.2575 50.1924 66.7252 50.4821 66.552 51.1191L67.4212 50.1033ZM67.8198 51.893L67.8139 51.94C67.797 51.9325 67.7807 51.9242 67.7655 51.9154C67.7554 51.9096 67.7467 51.9041 67.7397 51.8993L67.7679 51.8703C67.7849 51.8787 67.8021 51.8862 67.8198 51.893ZM68.2667 51.0092L68.2399 51.0356C68.2312 51.0312 68.2225 51.0271 68.2136 51.0233L68.2191 50.9781C68.2314 50.9847 68.2428 50.9917 68.2529 50.9988C68.2592 51.0032 68.2638 51.0068 68.2667 51.0092Z" fill="#FEFEFE" stroke="#441F00" stroke-width="2" stroke-linejoin="round"/>
<path d="M61.5461 58.6975C61.1655 58.49 60.6946 58.5513 60.3799 58.8493C60.0651 59.1473 59.9782 59.6141 60.1646 60.0054L60.9991 61.7577L61.0001 61.7597L63.174 66.3502L63.1747 66.3516L64.704 69.5939L64.7138 69.6141C64.7526 69.6917 64.7949 69.7798 64.8407 69.8751C65.0174 70.2426 65.2457 70.7173 65.5165 71.1083C65.7423 71.4343 66.1394 71.596 66.5286 71.5207C66.9179 71.4453 67.2259 71.1471 67.3137 70.7605C67.3224 70.7225 67.3296 70.6849 67.3355 70.648L75.3117 76.4526C75.6503 76.6989 76.1064 76.7083 76.4548 76.4761L94.8919 64.1849C95.3029 63.911 95.4522 63.3781 95.2436 62.9304C95.0349 62.4828 94.5307 62.2545 94.0567 62.3931L88.3589 64.0585L81.1736 66.0331L81.1736 66.0331L81.1673 66.0349L75.6911 67.5782C75.6018 67.6016 75.5114 67.6307 75.4418 67.6535C75.4154 67.6622 75.3912 67.6702 75.3683 67.6777C75.3181 67.6943 75.2742 67.7089 75.2267 67.7237C75.2041 67.7308 75.1837 67.737 75.1655 67.7423C75.1563 67.7385 75.1465 67.7344 75.1361 67.73L75.1324 67.7284C75.1128 67.7202 75.0894 67.7103 75.0663 67.7009C75.0465 67.6928 75.0216 67.6829 74.9948 67.6729L73.6459 67.1499L68.3329 64.9664C68.3059 64.9538 68.272 64.9327 68.2134 64.879C68.1787 64.8472 68.1404 64.8089 68.0875 64.7542C68.0766 64.7428 68.0644 64.7302 68.0513 64.7165C68.0081 64.6717 67.955 64.6164 67.9025 64.5641L67.8996 64.5611L67.0314 63.7016L67.0142 63.685L63.9041 60.7497L63.9041 60.7497L63.9017 60.7475L62.5747 59.5033L62.5614 59.4911C62.5345 59.4668 62.5045 59.4391 62.4717 59.4087C62.2583 59.2117 61.9255 58.9043 61.5461 58.6975ZM75.0602 67.7687C75.0602 67.7687 75.0611 67.7686 75.0627 67.7684L75.0602 67.7687Z" fill="#DCDCD8" stroke="#441F00" stroke-width="2" stroke-linejoin="round"/>
<path d="M94.0309 43.7646L94.031 43.7636L94.128 43.768L94.0309 43.7646ZM94.0309 43.7646C94.0309 43.766 94.0308 43.7675 94.0307 43.769L94.0148 44.1215M94.0309 43.7646L103.841 78.4504M94.0148 44.1215C94.0118 44.1141 94.0089 44.1065 94.0061 44.0987C93.9881 44.0496 93.9698 43.9875 93.9579 43.9144C93.9461 43.8409 93.9401 43.752 93.9504 43.6523C93.9608 43.5511 93.9874 43.4438 94.0364 43.3372C94.0854 43.2304 94.1508 43.1375 94.2256 43.06C94.2993 42.9836 94.3766 42.9277 94.4469 42.8873C94.5166 42.8472 94.582 42.8208 94.6362 42.8032C94.6906 42.7855 94.7395 42.7747 94.7794 42.768C94.857 42.7549 94.9216 42.7535 94.9632 42.7542C95.0069 42.7549 95.0434 42.7584 95.0695 42.7616C95.0964 42.7649 95.1193 42.7688 95.137 42.7722C95.1715 42.7789 95.1994 42.7861 95.2173 42.7911C95.2362 42.7963 95.2522 42.8013 95.2641 42.8052C95.2875 42.8128 95.3068 42.82 95.3196 42.8249C95.3451 42.8347 95.3677 42.8443 95.3832 42.8511C95.4156 42.8653 95.4483 42.8807 95.4764 42.8944C95.5044 42.9081 95.5367 42.9244 95.5678 42.9412C95.5827 42.9493 95.6042 42.9611 95.6277 42.9753C95.6395 42.9823 95.6571 42.9932 95.6776 43.007C95.688 43.014 95.7019 43.0236 95.7177 43.0354C95.7327 43.0465 95.7558 43.0643 95.7825 43.0877C95.7962 43.0997 95.8136 43.1155 95.8329 43.1349C95.8518 43.1538 95.8772 43.1809 95.905 43.2155C95.9314 43.2485 95.9706 43.3015 96.0082 43.3724C96.0276 43.4089 96.0493 43.4551 96.0687 43.5103C96.088 43.5653 96.107 43.6347 96.1173 43.7161C96.1278 43.7983 96.1297 43.8952 96.1125 44.0014C96.0959 44.1042 96.0627 44.2078 96.0109 44.3067L95.8737 47.7449L96.6381 51.2942L96.8448 52.2216L96.8464 52.2285L96.8463 52.2285L97.6912 56.1476C97.6913 56.1485 97.6915 56.1493 97.6917 56.1502C97.7423 56.3795 97.7847 56.5933 97.8249 56.7953C97.833 56.8365 97.8411 56.8772 97.8492 56.9175L97.9655 57.4577L98.1367 58.0593C98.1432 58.0819 98.1488 58.1046 98.1536 58.1276M94.0148 44.1215L93.9206 46.1992M94.0148 44.1215L93.9206 46.1992M98.1536 58.1276C98.1587 58.152 98.163 58.1767 98.1663 58.2015L98.2107 58.5368L98.2193 58.5931M98.1536 58.1276C98.1549 58.1338 98.1563 58.1404 98.1578 58.1472C98.1785 58.244 98.212 58.401 98.2193 58.5931M98.1536 58.1276L101.941 76.3737M98.2193 58.5931C98.2205 58.624 98.2209 58.6558 98.2206 58.6884C98.2189 58.842 98.1819 58.9931 98.1124 59.1301L97.4789 60.3784L99.7445 75.3001L101.344 77.2201M98.2193 58.5931L100.691 74.8742L101.941 76.3737M101.344 77.2201L102.849 77.7719L102.841 78.4387M101.344 77.2201L102.113 76.5799L101.941 76.3737M101.344 77.2201L101.689 76.2813L101.941 76.3737M102.841 78.4387C102.84 78.49 102.842 78.5409 102.843 78.5909C102.85 78.809 102.857 79.0123 102.681 79.1812C102.436 79.4175 102.101 79.5752 101.792 79.7093M102.841 78.4387L103.841 78.4497L103.841 78.4504M102.841 78.4387L103.841 78.4504M101.792 79.7093L82.0897 89.172C82.0658 89.2111 82.0423 89.2494 82.0199 89.2858L82.0165 89.2914C81.9613 89.3811 81.9113 89.4623 81.8642 89.5427C81.7664 89.7097 81.7085 89.8275 81.6796 89.911L81.1409 89.7251L81.0759 89.7026L81.0358 89.6887L81.0223 89.8151L80.9376 90.6119L80.7923 90.5965M101.792 79.7093L102.19 80.6265C102.196 80.624 102.202 80.6214 102.208 80.6188M101.792 79.7093L102.225 80.6107L102.208 80.6188M80.7923 90.5965C80.7518 90.5832 80.7119 90.5673 80.6728 90.5487L80.6338 90.5301L80.6133 90.5203L80.641 90.462L81.0132 89.6809L80.7344 89.5847L80.7959 89.0066L80.67 88.7445L80.832 88.6667L80.8402 88.5903L80.9637 88.6034L81.2467 88.4675L80.4558 88.0077C80.4148 88.0779 80.3685 88.1532 80.3131 88.2432L80.3112 88.2464C80.2582 88.3324 80.1977 88.4308 80.1385 88.5318C80.0225 88.7298 79.8838 88.9841 79.7891 89.2583C79.6897 89.5463 79.727 89.8639 79.8904 90.1211C80.0538 90.3782 80.3256 90.5468 80.6286 90.5791L80.7923 90.5965ZM80.7923 90.5965C81.0357 90.676 81.3022 90.6596 81.5359 90.5473L102.208 80.6188M102.208 80.6188C102.511 80.4871 102.991 80.2704 103.374 79.9018L103.375 79.9018C103.698 79.5905 103.807 79.2266 103.836 78.9351C103.849 78.8063 103.847 78.689 103.845 78.6153C103.844 78.5841 103.843 78.5601 103.842 78.5403C103.841 78.5018 103.84 78.4792 103.841 78.4504M82.4665 86.5387L81.3833 88.4019L81.2468 88.4675L80.4565 88.0065L81.5956 86.0471M82.4665 86.5387L85.9903 80.1068M82.4665 86.5387L81.6019 86.0361L81.5956 86.0471M82.4665 86.5387L81.5895 86.0582L81.5956 86.0471M85.9903 80.1068L92.5535 67.8741M85.9903 80.1068L85.1132 79.6263L91.667 67.4114M85.9903 80.1068L85.1091 79.634L81.5956 86.0471M92.5535 67.8741L96.4421 60.2116L96.232 58.8276L96.2293 58.8091L96.1962 58.5592C96.1914 58.5444 96.1866 58.5295 96.1819 58.5146M92.5535 67.8741L91.6723 67.4014L91.667 67.4114M92.5535 67.8741L91.6618 67.4216L91.667 67.4114M96.1819 58.5146L96.1851 58.5083L96.033 57.9738C96.0327 57.9727 96.0324 57.9717 96.0321 57.9706M96.1819 58.5146C96.1265 58.339 96.077 58.1553 96.0321 57.9706M96.1819 58.5146L91.667 67.4114M96.0321 57.9706C96.0272 57.9506 96.0224 57.9305 96.0176 57.9105C96.016 57.9037 96.0144 57.8969 96.0128 57.8901M96.0321 57.9706C96.0265 57.9507 96.0215 57.9307 96.0172 57.9106L96.0128 57.8901M96.0128 57.8901L95.8734 57.2427M96.0128 57.8901C95.9608 57.6699 95.9151 57.45 95.8734 57.2427M95.8734 57.2427C95.8598 57.1755 95.8467 57.1097 95.834 57.0455C95.8 56.8748 95.7686 56.7165 95.7382 56.5787L95.7371 56.5739L95.7371 56.5739L94.892 52.6533L94.6845 51.7223M95.8734 57.2427L94.6845 51.7223M94.6845 51.7223L94.1827 49.3927L94.1809 49.3843L93.8919 48.0422C93.8826 47.9992 93.8762 47.9557 93.8727 47.912C93.9046 48.3078 94.0173 48.7731 94.0988 49.1096C94.1251 49.2179 94.1481 49.3129 94.1641 49.3879L94.1641 49.3879L94.166 49.3965L94.6845 51.7223ZM93.8727 47.9118C93.8695 47.8719 93.8686 47.8318 93.8702 47.7918L93.9336 46.2038L93.9205 46.2032L93.9206 46.1992M93.8727 47.9118L94.0165 44.1259L93.9339 46.1962L93.9208 46.1955C93.9208 46.1967 93.9207 46.198 93.9206 46.1992M93.8727 47.9118C93.8348 47.4407 93.8713 46.9222 93.9001 46.514C93.9081 46.3992 93.9156 46.2931 93.9206 46.1992M93.8727 47.9118L93.9206 46.1992M96.119 48.9656C96.0776 48.7724 96.0379 48.6094 96.0024 48.4639C95.9414 48.2136 95.8931 48.0155 95.8713 47.806L96.119 48.9656ZM94.6624 44.7124C94.6548 44.7101 94.6483 44.708 94.643 44.7063C94.6241 44.7001 94.61 44.6948 94.6031 44.6922C94.6019 44.6917 94.6008 44.6913 94.5997 44.6909C94.5987 44.6903 94.5976 44.6896 94.5965 44.6889C94.5902 44.6851 94.5772 44.6772 94.5606 44.666C94.556 44.6629 94.5504 44.6591 94.5439 44.6545L94.6624 44.7124ZM95.8619 47.6901C95.8443 47.4038 95.8641 47.1192 95.888 46.7742C95.8981 46.6289 95.9089 46.4728 95.918 46.3014L95.9181 46.3014L95.9184 46.2937L96.0082 44.3118L95.8619 47.6901Z" fill="#FBBF05" stroke="#441F00" stroke-width="2" stroke-linejoin="round"/>
<path d="M100.437 74.544C100.09 74.1378 99.4854 74.0758 99.0634 74.4032L89.7575 81.6227L89.7562 81.6237L83.8413 86.2282L81.7439 87.8255L80.8458 88.4756L80.8458 88.4755L80.8362 88.4827C80.8229 88.4925 80.8077 88.5031 80.7757 88.5254L80.7585 88.5374C80.7214 88.5632 80.6678 88.6008 80.6123 88.6433C80.5213 88.7131 80.3235 88.8701 80.1822 89.1102C80.0399 89.3518 80.0057 89.6421 80.0878 89.9102C80.1698 90.1783 80.3607 90.3996 80.6139 90.5202L80.6735 90.5486C80.9465 90.6787 81.2638 90.6782 81.5365 90.5472L102.208 80.6187C102.511 80.487 102.992 80.2703 103.375 79.9017L103.375 79.9017C103.699 79.5903 103.807 79.2265 103.836 78.935C103.849 78.8062 103.847 78.6889 103.845 78.6151C103.844 78.584 103.844 78.56 103.843 78.5402C103.842 78.5014 103.841 78.4786 103.841 78.4496C103.847 77.9334 103.459 77.4978 102.946 77.444C102.934 77.4428 102.922 77.4418 102.91 77.4409L100.437 74.544Z" fill="#D07202" stroke="#441F00" stroke-width="2" stroke-linejoin="round"/>
<path d="M61.5547 78.2208C61.8823 78.3429 62.1824 78.5558 62.4822 78.7348L63.9708 79.6113L68.1113 82.0208L80.2885 89.7133C80.0003 89.6699 79.7351 89.5321 79.4697 89.4147L77.8585 88.6302L73.887 86.6616L64.079 81.8128L58.1172 78.6974C58.4469 78.4018 60.9962 78.2149 61.5547 78.2208Z" fill="#D07202"/>
<path d="M64.9067 43.7836L64.3389 31.8149L72.9332 39.8062L75.4241 41.38H85.0241L87.7835 38.7228C88.3253 38.3145 88.8255 37.7674 89.3166 37.2953L92.3721 34.4465C92.8346 34.0776 93.2635 33.6757 93.6903 33.2665C94.0925 32.8809 94.4233 32.4791 94.9655 32.2866C95.1305 32.3118 95.1223 32.3107 95.2279 32.441C95.3464 32.9318 95.2827 33.5368 95.2811 34.0473L95.2591 37.0845C95.2517 37.5777 95.2049 38.085 95.2283 38.5763L95.0296 43.8088L94.9191 46.2484C94.8917 46.7657 94.8276 47.3148 94.8692 47.8316C94.9045 48.2704 95.0493 48.7463 95.1417 49.1788L95.8685 52.4391L96.7144 56.3631C96.8554 57.0023 96.9624 57.7179 97.1746 58.333C96.132 57.7915 95.1347 57.0192 94.1556 56.364L89.5161 53.2616L82.5602 57.452L77.0972 55.6789L75.0369 48.6869C75.0762 48.2318 74.6425 47.6072 74.4032 47.2271C73.7097 46.1252 72.9615 45.0752 72.1248 44.0765L71.202 43.0186C71.1023 42.9048 70.8715 42.6667 70.8344 42.5336C70.7907 42.3764 70.8575 42.0128 70.8654 41.8356C70.3463 41.9497 69.6877 42.3728 69.2262 42.6586C69.1392 42.7124 69.0649 42.7311 68.967 42.7576C68.6661 42.8914 68.3916 43.1231 68.1082 43.2947L64.9057 45.2869L64.9067 43.7836Z" fill="#FBBF05"/>
<path d="M81.3704 50.8726L82.8739 50.9284L84.8613 50.9476L84.4723 54.4953L79.0088 54.2474C79.3995 53.684 79.8477 53.1077 80.1709 52.5039L80.5134 52.0386L81.3704 50.8726Z" fill="#30290B"/>
<path d="M81.3707 50.8726L82.8742 50.9284L82.9169 50.9521C83.1406 51.043 83.6252 50.9831 83.8789 50.9825C83.5979 51.3994 83.2693 51.7786 82.9486 52.1647C82.6016 52.5821 82.271 53.0044 81.8193 53.3147C81.4173 52.9879 81.0563 52.6513 80.7229 52.2542L80.5137 52.0386L81.3707 50.8726Z" fill="#080706"/>
<path d="M81.4834 51.3729C81.6751 51.3754 81.903 51.3597 82.0528 51.5027C82.1751 51.6193 82.2014 51.7369 82.1904 51.9021C82.1778 52.0924 82.0403 52.2024 81.907 52.3203C81.7233 52.3256 81.5177 52.3008 81.3745 52.1726C81.2738 52.0823 81.2216 51.9058 81.2292 51.7717C81.2397 51.588 81.3599 51.4915 81.4834 51.3729Z" fill="#FEFEFE"/>
<path d="M70.9062 41.7698L64.3027 31.78C64.7642 32.0173 65.1871 32.3844 65.5915 32.708L68.0072 34.772L73.2839 39.5479L75.4198 41.5779L72.3942 41.6592C71.9683 41.6714 71.2935 41.6252 70.9062 41.7698Z" fill="#E78A02"/>
<path d="M64.9069 43.7836L64.4443 32.4587L68.9673 42.7576C68.6663 42.8914 68.3919 43.1231 68.1085 43.2947L64.906 45.2869L64.9069 43.7836Z" fill="#FEFEFE"/>
<path d="M82.6857 42.1219L82.9531 42.138L81.3709 50.8726L80.5139 52.0386L80.1714 52.5039L80.1221 52.424L80.0475 52.3642C79.1725 51.4625 78.1799 50.7701 77.1679 50.0232L75.2246 48.5352C77.2891 47.109 79.1761 45.371 81.0762 43.7365L82.1335 42.8254C82.2875 42.6892 82.5242 42.5077 82.6356 42.339C82.6614 42.2999 82.6739 42.1732 82.6857 42.1219Z" fill="#FBD522"/>
<path d="M94.4559 32.9002L93.1881 48.8138L89.2186 45.8609L86.0615 43.5266L94.4559 32.9002Z" fill="#FBD522"/>
<path d="M68.9673 42.7576C69.0652 42.7311 69.1395 42.7124 69.2265 42.6586C69.688 42.3728 70.3466 41.9497 70.8657 41.8356C70.8578 42.0129 70.791 42.3764 70.8347 42.5336C70.8718 42.6667 71.1026 42.9048 71.2022 43.0186L72.1251 44.0765C72.9618 45.0752 73.71 46.1252 74.4035 47.2271C74.6427 47.6072 75.0765 48.2318 75.0372 48.6869L77.0975 55.6789L82.5605 57.452L89.5164 53.2616L94.1559 56.364C95.135 57.0192 96.1323 57.7915 97.1749 58.333L96.7146 56.3631L99.7444 75.3L102.304 78.18L102.841 78.4386C102.838 78.7139 102.897 78.9735 102.681 79.1812C102.436 79.4174 102.101 79.5751 101.792 79.7092L81.1029 89.6459L81.0433 89.6175L80.7344 89.5846C80.6769 89.6935 80.6332 89.7907 80.5459 89.8791L80.2887 89.7133L68.1114 82.0209L63.9709 79.6113L62.4824 78.7348C62.1826 78.5558 61.5548 78.2209 61.5548 78.2209L66.4644 70.82L61.0244 59.62L62.3044 52.26L64.906 45.2869L68.1085 43.2947C68.3919 43.1231 68.6663 42.8914 68.9673 42.7576Z" fill="#FEFEFE"/>
<path d="M70.8214 56.9767C71.2228 57.3462 71.8045 57.6176 72.2674 57.914L74.6493 59.4984C74.5126 59.7723 74.2142 60.0457 74.0106 60.2783L71.6889 62.7477C71.4195 63.0146 71.0376 63.3027 70.8268 63.6131L73.7733 64.6658L75.1756 65.1947C75.2672 65.2291 75.4986 65.3482 75.5866 65.3491C75.7106 65.3501 76.3321 64.9436 76.4805 64.8626L80.4134 62.7681C80.9623 62.4846 81.5847 62.0746 82.1777 61.9266L79.6904 63.4281L76.3064 65.3707C76.155 65.4547 75.7835 65.7254 75.6342 65.7404C75.5222 65.7515 75.1956 65.6155 75.0753 65.5823L71.8944 64.6652C71.6039 64.5792 71.1072 64.3223 70.8261 64.4018L67.6378 65.3437C67.9391 65.0685 68.3025 64.8736 68.6496 64.6616C69.2447 64.298 69.8309 63.964 70.4614 63.6658C70.309 63.4762 70.0965 63.3388 69.9363 63.1516C69.4787 62.617 69.0453 62.0187 68.6321 61.4484L67.0303 58.9922L70.8214 56.9767Z" fill="#080706"/>
<path d="M66.4513 70.8502C66.6119 71.3382 66.6681 71.8611 66.7437 72.3678L67.0883 74.699C67.4553 77.1136 67.9376 79.5846 68.1113 82.0208L63.9708 79.6112L62.4823 78.7347C62.1825 78.5557 61.8823 78.3429 61.5547 78.2208L66.4513 70.8502Z" fill="#FBBF05"/>
<path d="M68.967 42.7576C69.0649 42.7311 69.1392 42.7124 69.2262 42.6586C69.6877 42.3728 70.3463 41.9497 70.8654 41.8356C70.8575 42.0129 70.7907 42.3764 70.8344 42.5336C70.8715 42.6667 71.1023 42.9048 71.202 43.0186L72.1248 44.0765C72.9615 45.0752 73.7097 46.1252 74.4032 47.2271C74.6425 47.6072 75.0762 48.2318 75.0369 48.6869C74.7107 49.2617 71.9493 54.4349 71.7377 54.5673C71.4307 54.7595 70.9324 54.8763 70.5879 54.9996L67.0065 56.2396L62.335 52.1143L64.9057 45.2869L68.1082 43.2947C68.3916 43.1231 68.6661 42.8914 68.967 42.7576Z" fill="url(#paint2_linear_68_5257)"/>
<path d="M68.1829 50.2749C68.5637 50.5867 69.1633 50.8582 69.6217 51.0426L69.6847 51.0671L70.5951 53.5906L68.9697 53.4533L67.4008 53.2969C67.1935 52.5511 66.7603 51.8297 66.4824 51.1015L68.1829 50.2749Z" fill="#080706"/>
<path d="M67.9362 50.9613C68.1759 50.9913 68.2663 51.0206 68.4351 51.1849C68.496 51.3521 68.5358 51.4677 68.4685 51.6412C68.4019 51.8131 68.253 51.8755 68.1003 51.9549C67.866 51.9264 67.7226 51.8811 67.555 51.7113C67.5108 51.5964 67.4833 51.5051 67.5169 51.3815C67.575 51.1677 67.7557 51.0626 67.9362 50.9613Z" fill="#FEFEFE"/>
<path d="M61.0674 59.5754C61.3721 59.7416 61.6338 60.0006 61.8907 60.2328L63.2177 61.477L66.3278 64.4122L67.196 65.2718C67.4361 65.5115 67.6202 65.7467 67.9395 65.8859L73.275 68.0787L74.6407 68.6081C74.7545 68.6497 74.9864 68.7648 75.1036 68.7659C75.3309 68.7682 75.7186 68.6034 75.9525 68.5434L81.4386 66.9974L88.6317 65.0206L94.3372 63.3529L75.9001 75.644L66.2035 68.5874L66.29 69.7455C66.3202 70.0057 66.3973 70.2803 66.3386 70.5389C66.0516 70.1246 65.8341 69.6191 65.6085 69.1673L64.0785 65.9236L61.9029 61.3297L61.0674 59.5754Z" fill="#DCDCD8"/>
<path d="M95.0299 43.8089C94.7286 43.6357 95.3524 43.94 95.0299 43.8089L94.8694 47.8316L96.9948 57.7001L97.1749 58.3331L97.2206 58.6775L99.7445 75.3001L101.344 77.2201L102.849 77.7719L102.841 78.4387C102.838 78.714 102.897 78.9736 102.681 79.1812C102.436 79.4175 102.101 79.5752 101.792 79.7093L81.1029 89.6459L81.0434 89.6175L80.7344 89.5847C80.8579 89.2269 81.1276 88.8408 81.3203 88.5103L82.4665 86.5387L85.9903 80.1068L92.5535 67.8741L97.2206 58.6775C97.222 58.553 97.2004 58.4535 97.1749 58.3331C96.9627 57.7179 96.8557 57.0024 96.7147 56.3632L95.8688 52.4392L95.142 49.1789C95.0496 48.7464 94.9048 48.2704 94.8694 47.8316C94.8279 47.3149 94.892 46.7657 94.9194 46.2485L95.0299 43.8089Z" fill="#FBBF05"/>
<path d="M99.6764 75.1933L102.766 78.8125L102.841 78.4386C102.838 78.7138 102.898 78.9735 102.682 79.1811C102.436 79.4174 102.101 79.575 101.793 79.7091L81.1035 89.6458L81.0439 89.6174C81.1205 89.4873 81.3091 89.377 81.4322 89.2856L82.3401 88.6284L84.4514 87.0206L90.3705 82.4128L99.6764 75.1933Z" fill="#D07202"/>
<path fill-rule="evenodd" clip-rule="evenodd" d="M114.712 34.34L80.3483 14.5L45.9844 34.34V74.02L80.3483 93.86L114.712 74.02V34.34ZM79.5766 18.5776C79.845 18.4222 80.1496 18.3403 80.4597 18.34V18.3462C80.7703 18.3465 81.0754 18.4285 81.3443 18.5838L110.85 35.6188C111.119 35.774 111.343 35.9973 111.498 36.2662C111.653 36.535 111.735 36.84 111.735 37.1505V71.2236C111.735 71.5341 111.653 71.8391 111.498 72.1079C111.343 72.3768 111.119 72.6001 110.85 72.7553L81.3397 89.7824C81.0711 89.9381 80.7662 90.02 80.4558 90.02C80.1454 90.02 79.8405 89.9381 79.5719 89.7824L50.069 72.749C49.8001 72.5938 49.5768 72.3705 49.4216 72.1017C49.2663 71.8328 49.1845 71.5278 49.1844 71.2173V37.1443C49.1845 36.8338 49.2663 36.5288 49.4216 36.2599C49.5768 35.991 49.8001 35.7678 50.069 35.6125L79.5766 18.5776Z" fill="url(#paint3_linear_68_5257)"/>
<path d="M80.4599 20.7477L81.9338 21.598L108.494 36.934L109.967 37.7842V71.8573L108.494 72.7076L81.9338 88.0436L80.4599 88.8938L78.9875 88.0436L52.4262 72.7076L50.9523 71.8573V37.7842L52.4262 36.934L78.9875 21.598L80.4599 20.7477ZM80.4599 18.98C80.1498 18.9803 79.8452 19.0622 79.5768 19.2176L78.1029 20.0678L51.5415 35.4022L50.0692 36.2525C49.8003 36.4078 49.577 36.631 49.4217 36.8999C49.2665 37.1688 49.1847 37.4737 49.1846 37.7842V71.8573C49.1847 72.1678 49.2665 72.4728 49.4217 72.7416C49.577 73.0105 49.8003 73.2338 50.0692 73.389L51.5415 74.2393L78.0982 89.5722L79.5721 90.4224C79.8407 90.578 80.1456 90.66 80.456 90.66C80.7664 90.66 81.0713 90.578 81.3398 90.4224L82.8122 89.5722L109.378 74.2455L110.851 73.3953C111.119 73.24 111.343 73.0168 111.498 72.7479C111.653 72.479 111.735 72.174 111.735 71.8635V37.7905C111.735 37.48 111.653 37.175 111.498 36.9061C111.343 36.6373 111.119 36.414 110.851 36.2588L109.378 35.4085L82.8169 20.0741L81.3445 19.2238C81.0756 19.0685 80.7705 18.9865 80.4599 18.9862V18.98Z" fill="#441F00"/>
<path d="M80.2502 16.4729L81.8952 17.4219L111.538 34.5379L113.183 35.4869V73.5149L111.538 74.4638L81.8952 91.5799L80.2502 92.5288L78.607 91.5799L48.9626 74.4638L47.3176 73.5149V35.4869L48.9626 34.5379L78.607 17.4219L80.2502 16.4729ZM80.2502 14.5C79.9041 14.5003 79.5642 14.5918 79.2646 14.7652L77.6197 15.7141L47.9753 32.8284L46.3321 33.7774C46.032 33.9507 45.7827 34.1998 45.6094 34.4999C45.4361 34.8 45.3448 35.1404 45.3447 35.4869V73.5149C45.3448 73.8614 45.4361 74.2018 45.6094 74.5019C45.7827 74.8019 46.032 75.0511 46.3321 75.2244L47.9753 76.1733L77.6144 93.2859L79.2594 94.2349C79.5591 94.4085 79.8994 94.5 80.2458 94.5C80.5923 94.5 80.9326 94.4085 81.2323 94.2349L82.8755 93.2859L112.525 76.1803L114.168 75.2314C114.468 75.0581 114.718 74.8089 114.891 74.5088C115.064 74.2088 115.156 73.8684 115.156 73.5218V35.4939C115.156 35.1474 115.064 34.807 114.891 34.5069C114.718 34.2068 114.468 33.9576 114.168 33.7844L112.525 32.8354L82.8808 15.7211L81.2375 14.7721C80.9374 14.5987 80.5969 14.5073 80.2502 14.507V14.5Z" fill="#441F00"/>
<g filter="url(#filter0_d_68_5257)">
<path d="M81.6016 85.8516H81.3906L78.1445 90H74.4062L79.832 83.5312L77.125 77.0742H80.8516L82.3633 81.2695H82.5742L85.7383 77.0742H89.5469L84.0859 83.5664L86.8398 90H83.2422L81.6016 85.8516ZM92.8906 90L95.7383 76.7109H95.5273L90.7695 79.5469L91.4727 76.1016L96.5 73.0898H100.027L96.4297 90H92.8906ZM113.5 90.4336C111.695 90.4336 110.266 89.8438 109.211 88.6641C108.156 87.4844 107.629 85.8906 107.629 83.8828C107.629 82.2891 107.84 80.7969 108.262 79.4062C108.684 78.0078 109.254 76.8164 109.973 75.832C110.699 74.8477 111.566 74.0742 112.574 73.5117C113.582 72.9414 114.656 72.6562 115.797 72.6562C117.609 72.6562 119.043 73.2461 120.098 74.4258C121.16 75.5977 121.691 77.1914 121.691 79.207C121.691 80.8086 121.48 82.3086 121.059 83.707C120.637 85.0977 120.062 86.2852 119.336 87.2695C118.609 88.2539 117.742 89.0273 116.734 89.5898C115.727 90.1523 114.648 90.4336 113.5 90.4336ZM111.191 84.0703C111.191 85.1562 111.402 86.0039 111.824 86.6133C112.254 87.2227 112.848 87.5273 113.605 87.5273C114.395 87.5273 115.137 87.1367 115.832 86.3555C116.527 85.5742 117.082 84.5273 117.496 83.2148C117.918 81.8945 118.129 80.4922 118.129 79.0078C118.129 77.9297 117.914 77.0898 117.484 76.4883C117.062 75.8789 116.473 75.5742 115.715 75.5742C114.926 75.5742 114.184 75.9648 113.488 76.7461C112.793 77.5195 112.234 78.5625 111.812 79.875C111.398 81.1875 111.191 82.5859 111.191 84.0703ZM129.43 90.4336C127.625 90.4336 126.195 89.8438 125.141 88.6641C124.086 87.4844 123.559 85.8906 123.559 83.8828C123.559 82.2891 123.77 80.7969 124.191 79.4062C124.613 78.0078 125.184 76.8164 125.902 75.832C126.629 74.8477 127.496 74.0742 128.504 73.5117C129.512 72.9414 130.586 72.6562 131.727 72.6562C133.539 72.6562 134.973 73.2461 136.027 74.4258C137.09 75.5977 137.621 77.1914 137.621 79.207C137.621 80.8086 137.41 82.3086 136.988 83.707C136.566 85.0977 135.992 86.2852 135.266 87.2695C134.539 88.2539 133.672 89.0273 132.664 89.5898C131.656 90.1523 130.578 90.4336 129.43 90.4336ZM127.121 84.0703C127.121 85.1562 127.332 86.0039 127.754 86.6133C128.184 87.2227 128.777 87.5273 129.535 87.5273C130.324 87.5273 131.066 87.1367 131.762 86.3555C132.457 85.5742 133.012 84.5273 133.426 83.2148C133.848 81.8945 134.059 80.4922 134.059 79.0078C134.059 77.9297 133.844 77.0898 133.414 76.4883C132.992 75.8789 132.402 75.5742 131.645 75.5742C130.855 75.5742 130.113 75.9648 129.418 76.7461C128.723 77.5195 128.164 78.5625 127.742 79.875C127.328 81.1875 127.121 82.5859 127.121 84.0703ZM145.359 90.4336C143.555 90.4336 142.125 89.8438 141.07 88.6641C140.016 87.4844 139.488 85.8906 139.488 83.8828C139.488 82.2891 139.699 80.7969 140.121 79.4062C140.543 78.0078 141.113 76.8164 141.832 75.832C142.559 74.8477 143.426 74.0742 144.434 73.5117C145.441 72.9414 146.516 72.6562 147.656 72.6562C149.469 72.6562 150.902 73.2461 151.957 74.4258C153.02 75.5977 153.551 77.1914 153.551 79.207C153.551 80.8086 153.34 82.3086 152.918 83.707C152.496 85.0977 151.922 86.2852 151.195 87.2695C150.469 88.2539 149.602 89.0273 148.594 89.5898C147.586 90.1523 146.508 90.4336 145.359 90.4336ZM143.051 84.0703C143.051 85.1562 143.262 86.0039 143.684 86.6133C144.113 87.2227 144.707 87.5273 145.465 87.5273C146.254 87.5273 146.996 87.1367 147.691 86.3555C148.387 85.5742 148.941 84.5273 149.355 83.2148C149.777 81.8945 149.988 80.4922 149.988 79.0078C149.988 77.9297 149.773 77.0898 149.344 76.4883C148.922 75.8789 148.332 75.5742 147.574 75.5742C146.785 75.5742 146.043 75.9648 145.348 76.7461C144.652 77.5195 144.094 78.5625 143.672 79.875C143.258 81.1875 143.051 82.5859 143.051 84.0703Z" fill="white"/>
</g>
<defs>
<filter id="filter0_d_68_5257" x="74.4062" y="72.6562" width="82.1445" height="18.7773" filterUnits="userSpaceOnUse" color-interpolation-filters="sRGB">
<feFlood flood-opacity="0" result="BackgroundImageFix"/>
<feColorMatrix in="SourceAlpha" type="matrix" values="0 0 0 0 0 0 0 0 0 0 0 0 0 0 0 0 0 0 127 0" result="hardAlpha"/>
<feOffset dx="3" dy="1"/>
<feComposite in2="hardAlpha" operator="out"/>
<feColorMatrix type="matrix" values="0 0 0 0 0 0 0 0 0 0 0 0 0 0 0 0 0 0 1 0"/>
<feBlend mode="normal" in2="BackgroundImageFix" result="effect1_dropShadow_68_5257"/>
<feBlend mode="normal" in="SourceGraphic" in2="effect1_dropShadow_68_5257" result="shape"/>
</filter>
<linearGradient id="paint0_linear_68_5257" x1="80.3483" y1="94.4982" x2="80.3483" y2="15.14" gradientUnits="userSpaceOnUse">
<stop stop-color="#9C3600"/>
<stop offset="0.04" stop-color="#A44401"/>
<stop offset="0.25" stop-color="#CD8909"/>
<stop offset="0.4" stop-color="#E7B40D"/>
<stop offset="0.48" stop-color="#F1C40F"/>
<stop offset="0.53" stop-color="#F2C615"/>
<stop offset="0.6" stop-color="#F3CC25"/>
<stop offset="0.67" stop-color="#F7D53F"/>
<stop offset="0.75" stop-color="#FBE363"/>
<stop offset="0.81" stop-color="#FFF088"/>
<stop offset="1" stop-color="#FFF8D6"/>
</linearGradient>
<linearGradient id="paint1_linear_68_5257" x1="62.8237" y1="48.3897" x2="74.8235" y2="49.6121" gradientUnits="userSpaceOnUse">
<stop stop-color="#FFBD03"/>
<stop offset="1" stop-color="#FEE104"/>
</linearGradient>
<linearGradient id="paint2_linear_68_5257" x1="62.8237" y1="48.3897" x2="74.8235" y2="49.6121" gradientUnits="userSpaceOnUse">
<stop stop-color="#FFBD03"/>
<stop offset="1" stop-color="#FEE104"/>
</linearGradient>
<linearGradient id="paint3_linear_68_5257" x1="80.3483" y1="93.8582" x2="80.3483" y2="14.5" gradientUnits="userSpaceOnUse">
<stop stop-color="#9C3600"/>
<stop offset="0.04" stop-color="#A44401"/>
<stop offset="0.25" stop-color="#CD8909"/>
<stop offset="0.4" stop-color="#E7B40D"/>
<stop offset="0.48" stop-color="#F1C40F"/>
<stop offset="0.53" stop-color="#F2C615"/>
<stop offset="0.6" stop-color="#F3CC25"/>
<stop offset="0.67" stop-color="#F7D53F"/>
<stop offset="0.75" stop-color="#FBE363"/>
<stop offset="0.81" stop-color="#FFF088"/>
<stop offset="1" stop-color="#FFF8D6"/>
</linearGradient>
</defs>
</svg>
