<?xml version="1.0" encoding="utf-8"?>
<!-- Generator: Adobe Illustrator 27.1.1, SVG Export Plug-In . SVG Version: 6.00 Build 0)  -->
<svg version="1.1" id="Слой_1" xmlns="http://www.w3.org/2000/svg" xmlns:xlink="http://www.w3.org/1999/xlink" x="0px" y="0px"
	 viewBox="0 0 160 109" style="enable-background:new 0 0 160 109;" xml:space="preserve">
<style type="text/css">
	.st0{fill:#F4F6F1;}
	.st1{fill:none;stroke:#C2C2C2;}
	.st2{fill:url(#SVGID_1_);}
	.st3{fill:#625A65;}
	.st4{fill:#291D29;}
	.st5{fill:#201D28;}
	.st6{fill:#756370;}
	.st7{fill:#352331;}
	.st8{fill:#413543;}
	.st9{fill:#441F00;}
	.st10{fill-rule:evenodd;clip-rule:evenodd;fill:url(#SVGID_00000074429204812684843390000000839852799492753850_);}
	.st11{fill:#111111;}
	.st12{fill:#FFFFFF;stroke:#919191;stroke-width:0.2;stroke-miterlimit:10;}
</style>
<path class="st0" d="M12,0.5h135.5c6.4,0,11.5,5.1,11.5,11.5v85c0,6.4-5.1,11.5-11.5,11.5H12c-6.4,0-11.5-5.1-11.5-11.5V12
	C0.5,5.6,5.6,0.5,12,0.5z"/>
<path class="st1" d="M12,0.5h135.5c6.4,0,11.5,5.1,11.5,11.5v85c0,6.4-5.1,11.5-11.5,11.5H12c-6.4,0-11.5-5.1-11.5-11.5V12
	C0.5,5.6,5.6,0.5,12,0.5z"/>
<linearGradient id="SVGID_1_" gradientUnits="userSpaceOnUse" x1="79.85" y1="580.5" x2="79.85" y2="501.1" gradientTransform="matrix(1 0 0 1 0 -486)">
	<stop  offset="0" style="stop-color:#9C3600"/>
	<stop  offset="4.000000e-02" style="stop-color:#A44401"/>
	<stop  offset="0.25" style="stop-color:#CD8909"/>
	<stop  offset="0.4" style="stop-color:#E7B40D"/>
	<stop  offset="0.48" style="stop-color:#F1C40F"/>
	<stop  offset="0.53" style="stop-color:#F2C615"/>
	<stop  offset="0.6" style="stop-color:#F3CC25"/>
	<stop  offset="0.67" style="stop-color:#F7D53F"/>
	<stop  offset="0.75" style="stop-color:#FBE363"/>
	<stop  offset="0.81" style="stop-color:#FFF088"/>
	<stop  offset="1" style="stop-color:#FFF8D6"/>
</linearGradient>
<path class="st2" d="M79.9,15.1L114.2,35v39.7L79.9,94.5L45.5,74.7V35L79.9,15.1z"/>
<path class="st3" d="M79.8,19v35.2L49.3,36.6L79.8,19z"/>
<path class="st4" d="M79.8,54.2L49.3,71.8V36.6L79.8,54.2z"/>
<path class="st5" d="M79.8,54.2v35.2L49.3,71.8L79.8,54.2z"/>
<path class="st6" d="M79.8,19l30.5,17.6L79.8,54.2V19z"/>
<path class="st7" d="M79.8,54.2l30.5,17.6L79.8,89.4V54.2z"/>
<path class="st8" d="M79.8,54.2l30.5-17.6v35.2L79.8,54.2z"/>
<path class="st9" d="M79.8,16.5l1.6,0.9L111,34.5l1.6,0.9v38l-1.6,0.9L81.4,91.6l-1.6,0.9l-1.6-0.9L48.5,74.5l-1.6-0.9v-38l1.6-0.9
	l29.6-17.1L79.8,16.5z M79.8,14.5c-0.3,0-0.7,0.1-1,0.3l-1.6,0.9L47.5,32.8l-1.6,0.9c-0.3,0.2-0.5,0.4-0.7,0.7s-0.3,0.6-0.3,1v38
	c0,0.3,0.1,0.7,0.3,1s0.4,0.5,0.7,0.7l1.6,0.9l29.6,17.1l1.6,0.9c0.3,0.2,0.6,0.3,1,0.3c0.3,0,0.7-0.1,1-0.3l1.6-0.9L112,76.2
	l1.6-0.9c0.3-0.2,0.6-0.4,0.7-0.7c0.2-0.3,0.3-0.6,0.3-1v-38c0-0.3-0.1-0.7-0.3-1c-0.2-0.3-0.4-0.5-0.7-0.7L112,33L82.4,15.7
	l-1.6-0.9C80.4,14.6,80.1,14.5,79.8,14.5L79.8,14.5z"/>
<path class="st9" d="M80,20.7l1.5,0.9L108,36.9l1.5,0.9v34.1l-1.5,0.9L81.4,88L80,88.9L78.5,88L51.9,72.7l-1.5-0.9v-34l1.5-0.9
	l26.6-15.3L80,20.7z M80,19c-0.3,0-0.6,0.1-0.9,0.2l-1.5,0.9L51,35.4l-1.5,0.9c-0.3,0.2-0.5,0.4-0.6,0.6c-0.2,0.3-0.2,0.6-0.2,0.9
	v34.1c0,0.3,0.1,0.6,0.2,0.9c0.2,0.3,0.4,0.5,0.6,0.6l1.5,0.9l26.6,15.3l1.5,0.9c0.3,0.2,0.6,0.2,0.9,0.2s0.6-0.1,0.9-0.2l1.5-0.9
	L109,74.3l1.5-0.9c0.3-0.2,0.5-0.4,0.6-0.6c0.2-0.3,0.2-0.6,0.2-0.9V37.8c0-0.3-0.1-0.6-0.2-0.9c-0.2-0.3-0.4-0.5-0.6-0.6l-1.5-0.9
	L82.3,20.1l-1.5-0.9C80.6,19.1,80.3,19,80,19L80,19z"/>
<linearGradient id="SVGID_00000005971443981702356440000017635371338696599721_" gradientUnits="userSpaceOnUse" x1="79.7" y1="565.8" x2="79.7" y2="527.4" gradientTransform="matrix(1 0 0 1 0 -486)">
	<stop  offset="0" style="stop-color:#9C3600"/>
	<stop  offset="4.000000e-02" style="stop-color:#A44401"/>
	<stop  offset="0.25" style="stop-color:#CD8909"/>
	<stop  offset="0.4" style="stop-color:#E7B40D"/>
	<stop  offset="0.48" style="stop-color:#F1C40F"/>
	<stop  offset="0.53" style="stop-color:#F2C615"/>
	<stop  offset="0.6" style="stop-color:#F3CC25"/>
	<stop  offset="0.67" style="stop-color:#F7D53F"/>
	<stop  offset="0.75" style="stop-color:#FBE363"/>
	<stop  offset="0.81" style="stop-color:#FFF088"/>
	<stop  offset="1" style="stop-color:#FFF8D6"/>
</linearGradient>
<path style="fill-rule:evenodd;clip-rule:evenodd;fill:url(#SVGID_00000005971443981702356440000017635371338696599721_);" d="
	M99.2,41.4L79.7,79.8L60.2,41.4H99.2z M78.1,44.7v25l-11.5-25C66.6,44.7,78.1,44.7,78.1,44.7z M81.3,44.7v25l11.5-25
	C92.8,44.7,81.3,44.7,81.3,44.7z"/>
<path class="st9" d="M79.7,79.8L79.3,80c0.1,0.2,0.3,0.3,0.4,0.3c0.2,0,0.4-0.1,0.4-0.3L79.7,79.8z M99.2,41.4l0.4,0.2
	c0.1-0.2,0.1-0.3,0-0.5c-0.1-0.1-0.3-0.2-0.4-0.2V41.4z M60.2,41.4v-0.5c-0.2,0-0.3,0.1-0.4,0.2c-0.1,0.1-0.1,0.3,0,0.5L60.2,41.4z
	 M78.1,69.8L77.7,70c0.1,0.2,0.3,0.3,0.6,0.3c0.2-0.1,0.4-0.3,0.4-0.5H78.1z M78.1,44.7h0.5c0-0.3-0.2-0.5-0.5-0.5V44.7z M66.6,44.7
	v-0.5c-0.2,0-0.3,0.1-0.4,0.2c-0.1,0.1-0.1,0.3,0,0.5L66.6,44.7z M81.3,69.8h-0.5c0,0.2,0.2,0.4,0.4,0.5c0.2,0.1,0.5-0.1,0.6-0.3
	L81.3,69.8z M81.3,44.7v-0.5c-0.3,0-0.5,0.2-0.5,0.5H81.3z M92.8,44.7l0.5,0.2c0.1-0.2,0.1-0.3,0-0.5c-0.1-0.1-0.3-0.2-0.4-0.2
	L92.8,44.7L92.8,44.7z M80.2,80l19.5-38.4l-0.9-0.5L79.3,79.6L80.2,80z M59.8,41.6L79.3,80l0.9-0.5L60.6,41.2L59.8,41.6z M99.2,40.9
	h-39v1h39V40.9z M78.6,69.8v-25h-1v25H78.6z M66.1,44.9l11.5,25l0.9-0.4L67,44.5L66.1,44.9z M78.1,44.2H66.6v1h11.5V44.2z
	 M81.8,69.8v-25h-1v25H81.8z M92.4,44.5l-11.5,25l0.9,0.4l11.5-25L92.4,44.5z M81.3,45.2h11.5v-1H81.3V45.2z"/>
<g>
	<g>
		<polygon class="st11" points="91.1,77.5 86,77.5 83,81.3 81.7,77.5 76.9,77.5 79.7,84.4 73.8,91.5 78.8,91.5 81.9,87.7 83.4,91.4 
			88.1,91.4 85.1,84.6 		"/>
		<polygon class="st11" points="91.5,76.8 90.5,81.5 95.5,78.6 92.8,91.5 97.3,91.5 101,73.6 96.8,73.6 		"/>
		<path class="st11" d="M110.5,73c-1.2,0-2.4,0.3-3.4,1c-1.1,0.5-2,1.4-2.8,2.5c-0.8,1.1-1.4,2.4-1.8,3.7c-0.4,1.4-0.6,3-0.6,4.6
			c0,2.2,0.6,3.9,1.7,5.1c1.2,1.3,2.7,2,4.7,2c1.5,0,2.5-0.3,3.4-1c1.1-0.5,2-1.4,2.8-2.5c0.8-1.1,1.4-2.4,1.8-3.8
			c0.4-1.4,0.6-3,0.6-4.6c0-2.2-0.6-3.9-1.7-5.1C114,73.6,112.4,73,110.5,73z M108.4,88c-0.6,0-1.1-0.2-1.4-0.7
			c-0.3-0.5-0.5-1.2-0.5-2.2c0-1.4,0.2-2.8,0.6-4.1c0.3-1.1,0.9-2.1,1.6-2.9c0.6-0.7,1.2-1,1.8-1c0.6,0,1.1,0.2,1.4,0.7
			c0.3,0.5,0.5,1.2,0.5,2.2c0,1.4-0.2,2.8-0.6,4c-0.5,1.4-1,2.3-1.6,3C109.6,87.7,109,88,108.4,88z"/>
		<path class="st11" d="M131.1,75c-1.2-1.3-2.7-2-4.7-2c-1.2,0-2.4,0.3-3.4,1c-1.1,0.5-2,1.4-2.8,2.5c-0.8,1.1-1.4,2.4-1.8,3.8
			c-0.4,1.4-0.6,3-0.6,4.6c0,2.2,0.6,3.9,1.7,5.1c1.2,1.3,2.7,2,4.7,2c1.5,0,2.6-0.3,3.4-1c1.1-0.5,2-1.4,2.8-2.5
			c0.8-1.1,1.4-2.4,1.8-3.7c0.4-1.4,0.6-3,0.6-4.6C132.8,77.9,132.2,76.2,131.1,75z M128.3,80c0,1.4-0.2,2.8-0.6,4
			c-0.5,1.4-1,2.3-1.6,3c-0.6,0.7-1.2,1-1.8,1c-0.6,0-1.1-0.2-1.4-0.7c-0.3-0.5-0.5-1.2-0.5-2.2c0-1.4,0.2-2.8,0.6-4.1
			c0.3-1.1,0.9-2.1,1.6-2.9c0.6-0.7,1.2-1,1.8-1c0.6,0,1.1,0.2,1.4,0.7C128.1,78.3,128.3,79,128.3,80z"/>
	</g>
	<g>
		<path class="st12" d="M81.1,85.9h-0.2L77.6,90h-3.7l5.4-6.5L76.6,77h3.7l1.5,4.2H82l3.2-4.2H89l-5.5,6.5l2.8,6.4h-3.6L81.1,85.9z
			 M92.4,90l2.8-13.3H95l-4.8,2.8l0.7-3.4l5-3h3.5L95.9,90H92.4z M107.3,90.4c-1.8,0-3.2-0.6-4.3-1.8c-1.1-1.2-1.6-2.8-1.6-4.8
			c0-1.6,0.2-3.1,0.6-4.5s1-2.6,1.7-3.6s1.6-1.8,2.6-2.3c1-0.6,2.1-0.9,3.2-0.9c1.8,0,3.2,0.6,4.3,1.8c1.1,1.2,1.6,2.8,1.6,4.8
			c0,1.6-0.2,3.1-0.6,4.5s-1,2.6-1.7,3.6s-1.6,1.8-2.6,2.3C109.5,90.2,108.5,90.4,107.3,90.4z M105,84.1c0,1.1,0.2,1.9,0.6,2.5
			s1,0.9,1.8,0.9s1.5-0.4,2.2-1.2c0.7-0.8,1.2-1.8,1.7-3.1c0.4-1.3,0.6-2.7,0.6-4.2c0-1.1-0.2-1.9-0.6-2.5s-1-0.9-1.8-0.9
			s-1.5,0.4-2.2,1.2c-0.7,0.8-1.3,1.8-1.7,3.1C105.2,81.2,105,82.6,105,84.1z M123.2,90.4c-1.8,0-3.2-0.6-4.3-1.8s-1.6-2.8-1.6-4.8
			c0-1.6,0.2-3.1,0.6-4.5s1-2.6,1.7-3.6s1.6-1.8,2.6-2.3c1-0.6,2.1-0.9,3.2-0.9c1.8,0,3.2,0.6,4.3,1.8c1.1,1.2,1.6,2.8,1.6,4.8
			c0,1.6-0.2,3.1-0.6,4.5c-0.4,1.4-1,2.6-1.7,3.6s-1.6,1.8-2.6,2.3C125.5,90.2,124.4,90.4,123.2,90.4z M120.9,84.1
			c0,1.1,0.2,1.9,0.6,2.5s1,0.9,1.8,0.9s1.5-0.4,2.2-1.2c0.7-0.8,1.2-1.8,1.7-3.1c0.4-1.3,0.6-2.7,0.6-4.2c0-1.1-0.2-1.9-0.6-2.5
			s-1-0.9-1.8-0.9s-1.5,0.4-2.2,1.2c-0.7,0.8-1.3,1.8-1.7,3.1C121.1,81.2,120.9,82.6,120.9,84.1z"/>
	</g>
</g>
</svg>
