<?xml version="1.0" encoding="utf-8"?>
<!-- Generator: Adobe Illustrator 27.1.1, SVG Export Plug-In . SVG Version: 6.00 Build 0)  -->
<svg version="1.1" id="Слой_1" xmlns="http://www.w3.org/2000/svg" xmlns:xlink="http://www.w3.org/1999/xlink" x="0px" y="0px"
	 viewBox="0 0 36 36" style="enable-background:new 0 0 36 36;" xml:space="preserve">
<style type="text/css">
	.st0{clip-path:url(#SVGID_00000059995241308450831880000007253976663726299323_);}
	.st1{fill:#393931;}
</style>
<g>
	<defs>
		<rect id="SVGID_1_" y="0" width="36" height="36"/>
	</defs>
	<clipPath id="SVGID_00000116201363398089359720000014426610758480696204_">
		<use xlink:href="#SVGID_1_"  style="overflow:visible;"/>
	</clipPath>
	<g style="clip-path:url(#SVGID_00000116201363398089359720000014426610758480696204_);">
		<path class="st1" d="M34.8,33.7h-6.1c0.1-0.4,0.2-0.8,0.2-1.2c0-0.4-0.1-0.8-0.2-1.2h1.4c0.6,0,1.2-0.5,1.2-1.2v-2.3
			c0-1.5-0.9-2.7-2.1-3.2c0.1-0.4,1.9-9.3,1.9-9.7h1.4c0.6,0,1.2-0.5,1.2-1.2c0-0.6-0.5-1.2-1.2-1.2c-2.5,0-1.8,0-4.1,0l-5.1-6.8
			c-1.2-1.7-3.7-1.7-5,0l-2,2.7c-1.6-1.6-4.2-1.3-5.4,0.5l-2.4,3.6c-0.8,0-3.3,0-4.1,0c-0.6,0-1.2,0.5-1.2,1.2
			c0,0.6,0.5,1.2,1.2,1.2h1.4c0.1,0.4,1.9,9.3,1.9,9.7c-1.3,0.5-2.1,1.8-2.1,3.2v2.3c0,0.6,0.5,1.2,1.2,1.2H8
			c-0.1,0.4-0.2,0.8-0.2,1.2c0,0.4,0.1,0.8,0.2,1.2H1.2c-0.6,0-1.2,0.5-1.2,1.2S0.5,36,1.2,36h33.7c0.6,0,1.2-0.5,1.2-1.2
			C36,34.2,35.5,33.7,34.8,33.7z M20.1,7.1c0.3-0.4,0.9-0.4,1.2,0l4.1,5.4H19l-1.4-2.1L20.1,7.1z M12.7,10.2c0.5-0.7,1.5-0.7,2,0
			l1.5,2.3h-5L12.7,10.2z M28.7,14.9l-0.5,2.3H8.6l-0.5-2.3C9,14.9,27.2,14.9,28.7,14.9z M27.8,19.6l-0.9,4.7H10L9,19.6H27.8z
			 M7.8,29v-1.2c0-0.6,0.5-1.2,1.2-1.2h18.8c0.6,0,1.2,0.5,1.2,1.2V29H7.8z M11.3,33.7c-0.6,0-1.2-0.5-1.2-1.2s0.5-1.2,1.2-1.2
			c0.6,0,1.2,0.5,1.2,1.2S12,33.7,11.3,33.7z M22.1,33.7h-7.4c0.1-0.4,0.2-0.8,0.2-1.2c0-0.4-0.1-0.8-0.2-1.2h7.4
			c-0.1,0.4-0.2,0.8-0.2,1.2C21.9,32.9,22,33.3,22.1,33.7z M25.4,33.7c-0.6,0-1.2-0.5-1.2-1.2s0.5-1.2,1.2-1.2
			c0.6,0,1.2,0.5,1.2,1.2S26.1,33.7,25.4,33.7z"/>
		<path class="st1" d="M32.5,2.3h-1.2V1.2c0-0.6-0.5-1.2-1.2-1.2C29.5,0,29,0.5,29,1.2v1.2h-1.2c-0.6,0-1.2,0.5-1.2,1.2
			s0.5,1.2,1.2,1.2H29v1.2C29,6.5,29.5,7,30.1,7c0.6,0,1.2-0.5,1.2-1.2V4.7h1.2c0.6,0,1.2-0.5,1.2-1.2S33.1,2.3,32.5,2.3z"/>
		<path class="st1" d="M6.7,5.5H5.5V4.3c0-0.6-0.5-1.2-1.2-1.2S3.1,3.7,3.1,4.3v1.2H2C1.3,5.5,0.8,6,0.8,6.7S1.3,7.8,2,7.8h1.2V9
			c0,0.6,0.5,1.2,1.2,1.2S5.5,9.6,5.5,9V7.8h1.2c0.6,0,1.2-0.5,1.2-1.2S7.3,5.5,6.7,5.5z"/>
	</g>
</g>
</svg>
