<?xml version="1.0" encoding="utf-8"?>
<!-- Generator: Adobe Illustrator 27.1.1, SVG Export Plug-In . SVG Version: 6.00 Build 0)  -->
<svg version="1.1" id="Слой_1" xmlns="http://www.w3.org/2000/svg" xmlns:xlink="http://www.w3.org/1999/xlink" x="0px" y="0px"
	 viewBox="0 0 85 85" style="enable-background:new 0 0 85 85;" xml:space="preserve">
<style type="text/css">
	.st0{fill:none;}
	.st1{fill:#CF8A1A;}
	.st2{fill-rule:evenodd;clip-rule:evenodd;fill:#441F00;}
	.st3{fill:url(#SVGID_1_);}
	.st4{fill:#393931;}
	.st5{fill:#FEFEFE;}
	.st6{fill:#64BB54;}
	.st7{fill:#21737A;}
	.st8{fill:#061E42;}
	.st9{fill:#2C8982;}
	.st10{fill:#9CD357;}
	.st11{fill:#4EB384;}
	.st12{fill:#3EA048;}
	.st13{fill:url(#SVGID_00000149374076558626008400000016190384502253636510_);}
	.st14{fill:#6A3F05;}
	.st15{fill:url(#SVGID_00000017474358349560017920000010458762853247442336_);}
	.st16{fill:#FED934;}
	.st17{fill:url(#SVGID_00000134962152954674012550000006050245620753048729_);}
	.st18{fill:#32B7FF;}
	.st19{fill:#3490C1;}
	.st20{fill:#0270AC;}
	.st21{fill:#0098EA;}
	.st22{fill:#025887;}
	.st23{fill:#441F00;}
	.st24{fill-rule:evenodd;clip-rule:evenodd;fill:url(#SVGID_00000003089244586084730150000011431955588416365954_);}
	.st25{fill:url(#SVGID_00000120541320673073780280000017784134927552868260_);}
	.st26{fill:#FD9F09;}
	.st27{fill:#FC8B09;}
	.st28{fill:#CA7402;}
	.st29{fill:#FE920A;}
	.st30{fill:#A85C03;}
	.st31{fill:#B96704;}
	.st32{fill:url(#SVGID_00000160160839157237790040000012622063086021777571_);}
	.st33{fill:#E2C04F;}
	.st34{fill:#BF951E;}
	.st35{fill:#8A6E10;}
	.st36{fill:#B69932;}
	.st37{fill:#634902;}
	.st38{fill:#9B8122;}
	.st39{fill:#EB9503;}
	.st40{fill:#C64904;}
	.st41{fill:#D07202;}
	.st42{fill:#FBBF05;}
	.st43{fill:#30290B;}
	.st44{fill:#080706;}
	.st45{fill:#E78A02;}
	.st46{fill:#FBD522;}
	.st47{fill:url(#SVGID_00000098903202566805351910000008779516303611055762_);}
	.st48{fill:#DCDCD8;}
	.st49{fill:url(#SVGID_00000003096758390497931630000003319264417885867427_);}
	.st50{fill-rule:evenodd;clip-rule:evenodd;fill:url(#SVGID_00000182512040721120598200000013885723793287874226_);}
	.st51{fill:url(#SVGID_00000167390740639928933660000002785490066135348395_);}
	.st52{fill:#625A65;}
	.st53{fill:#291D29;}
	.st54{fill:#201D28;}
	.st55{fill:#756370;}
	.st56{fill:#352331;}
	.st57{fill:#413543;}
	.st58{fill-rule:evenodd;clip-rule:evenodd;fill:url(#SVGID_00000131366581433002281180000000262399771613890464_);}
	.st59{fill:url(#SVGID_00000132775374403308244580000005187458256578154912_);}
</style>
<g>
	<rect x="0.1" y="0" class="st0" width="85" height="85"/>
	<g>
		<path class="st1" d="M10.9,23.7c0.4-1.3,1-2.6,1.6-3.8c3-5.9,7.9-11,13.7-14.1c3.3-1.8,6.9-3.1,10.6-3.7c5-0.9,10.4-0.6,15.2,0.9
			c3.2,0.9,6.2,2.3,9,4.2c4.7,3.1,8.5,7.4,11.2,12.3c1,1.8,1.9,3.9,2.5,5.9l0,0.1c0.1,0.3,0.2,0.6,0.3,0.9l0.5,1.8
			c1.7,6.9,0.9,14.7-2,21.1c-1.2,2.8-2.9,5.5-4.8,7.8c-1,1.2-2.2,2.4-3.4,3.5c-3.1,2.7-6.6,5-10.5,6.4c-8.3,3.1-18,2.9-26.1-0.8
			c-8-3.7-14.4-10.3-17.5-18.6C8.7,41,8.2,33.8,9.9,27.1l0.7-2.4C10.7,24.4,10.8,24,10.9,23.7z"/>
		<path class="st2" d="M72.3,19.4c1,1.8,1.9,3.9,2.5,5.9l0,0.1c0.1,0.2,0.1,0.4,0.2,0.7c0,0.1,0,0.1,0.1,0.2l0.5,1.8
			c1.7,6.9,0.9,14.7-2,21.1c-1.2,2.8-2.9,5.5-4.8,7.8c-1,1.2-2.2,2.4-3.4,3.5c-3.1,2.7-6.6,5-10.5,6.4c-8.3,3.1-18,2.9-26.1-0.8
			c-8-3.7-14.4-10.3-17.5-18.6c-2.4-6.4-2.9-13.6-1.2-20.3l0.7-2.4c0-0.1,0.1-0.2,0.1-0.3c0.1-0.3,0.2-0.5,0.3-0.7
			c0.4-1.3,1-2.6,1.6-3.8c3-5.9,7.9-11,13.7-14.1c3.3-1.8,6.9-3.1,10.6-3.7c5-0.9,10.4-0.6,15.2,0.9c3.2,0.9,6.2,2.3,9,4.2
			C65.8,10.2,69.7,14.5,72.3,19.4z M10.3,23.5c-0.1,0.3-0.2,0.6-0.3,0.8c0,0.1,0,0.2-0.1,0.2l0,0l-0.7,2.4l0,0
			C7.5,33.7,8,41.1,10.5,47.6c3.1,8.4,9.7,15.2,17.8,19c8.3,3.8,18.1,4,26.6,0.8c4-1.5,7.6-3.8,10.7-6.5c1.2-1.1,2.4-2.3,3.5-3.5
			c2-2.4,3.7-5.2,4.9-8c3-6.6,3.8-14.5,2.1-21.5L75.6,26l0,0c0,0,0-0.1,0-0.2c-0.1-0.2-0.1-0.6-0.3-0.8l0,0v0
			c-0.6-2-1.5-4.1-2.5-5.9c-2.7-5-6.6-9.4-11.4-12.5c-2.8-1.9-6-3.3-9.2-4.2c-4.9-1.5-10.4-1.8-15.5-0.9C33,2,29.3,3.4,26,5.2
			c-6,3.2-10.9,8.4-14,14.4C11.4,20.8,10.8,22.2,10.3,23.5z"/>
		
			<linearGradient id="SVGID_1_" gradientUnits="userSpaceOnUse" x1="42.7339" y1="261.4564" x2="41.6739" y2="240.9392" gradientTransform="matrix(1 0 0 1 0 -239.2676)">
			<stop  offset="0" style="stop-color:#E4B335"/>
			<stop  offset="1" style="stop-color:#FAD83C"/>
		</linearGradient>
		<path class="st3" d="M10.9,23.7c0.4-1.3,1-2.6,1.6-3.8c3-5.9,7.9-11,13.7-14.1c3.3-1.8,6.9-3.1,10.6-3.7c5-0.9,10.4-0.6,15.2,0.9
			c3.2,0.9,6.2,2.3,9,4.2c4.7,3.1,8.5,7.4,11.2,12.3c1,1.8,1.9,3.9,2.5,5.9l-0.1,0c0-0.1,0-0.2-0.1-0.3c0-0.1-0.1-0.2-0.1-0.3
			s-0.1-0.2-0.1-0.3s-0.1-0.2-0.1-0.3l0-0.1l0-0.1l0-0.1l0-0.1c0-0.1,0-0.1-0.1-0.2l0,0l0-0.1l0-0.1c0-0.1,0-0.1-0.1-0.2l0,0V23
			c-0.1-0.1-0.1-0.2-0.1-0.3l0,0v-0.1c0-0.1-0.1-0.1-0.1-0.2c0-0.1,0-0.1,0-0.1c0-0.1-0.1-0.1-0.1-0.2c0-0.1,0-0.1-0.1-0.2l-0.1-0.1
			c0-0.1-0.1-0.2-0.1-0.3c0,0,0-0.1-0.1-0.1v-0.1L73.2,21l0,0c0-0.1-0.1-0.1-0.1-0.2c0-0.1,0-0.1-0.1-0.2c-0.1,0-0.1,0-0.2,0l0,0
			c-0.1,0-0.1,0-0.1-0.1l-0.1-0.1l0,0c-0.1-0.1-0.1-0.1-0.1-0.2h-0.1c-0.1-0.1-0.3-0.2-0.4-0.3l-0.1,0c-0.1-0.1-0.1-0.1-0.2-0.1
			l0,0.1L71.6,20c0,0.1,0,0.2,0.1,0.3l0.4,0.9c0.1,0.1,0.1,0.2,0.2,0.3c0,0.2,0.2,0.3,0.2,0.5l0,0.1l0.1,0.1c0,0.1,0,0.1,0.1,0.2
			c0.1,0.1,0.2,0.3,0.2,0.5c0,0.1,0,0,0,0.1l0.1,0.1l0,0.1c0.1,0.1,0,0.1,0,0.2c-3.1-7.8-9-14.1-16.5-17.6c-4.4-2-9.4-3.1-14.2-3
			c-3.8,0.1-7.6,0.9-11.1,2.2c-1,0.4-2.1,0.9-3.1,1.4c-6.8,3.4-11.9,8.8-15,15.5c-0.1-0.2,0.7-1.5,0.8-1.8l0,0l-0.1,0.1l0-0.1
			c-0.2-0.1-0.2,0.1-0.3,0.2c0,0-0.1,0-0.2,0c-0.1,0-0.1,0-0.2,0.1L13,20.4l-0.1,0l0,0.1c-0.1,0-0.2,0.1-0.3,0.1l0,0l-0.1,0l0,0.1
			l-0.1,0c-0.1,0-0.2,0-0.2,0c-0.1,0.1-0.1,0.1-0.1,0.2c0,0.1-0.1,0.1-0.1,0.2c0,0.1-0.1,0.1-0.1,0.2v0.1c-0.1,0-0.1,0.1-0.1,0.2
			v0.1c-0.1,0.1-0.1,0.2-0.2,0.3c0,0.2-0.1,0.4-0.2,0.5l-0.1,0.2v0.1c0,0-0.1,0.1-0.1,0.1V23l0,0c0,0.1,0,0.1-0.1,0.2
			c0,0.1-0.1,0.1,0,0.2l-0.1,0v0.1l0,0C11.1,23.7,11.1,23.7,10.9,23.7L10.9,23.7z"/>
		<path class="st4" d="M42,4.7c7.7-0.2,15.7,2.8,21.3,8c6,5.6,9.6,13.4,9.9,21.6c0.3,8.1-2.8,16.1-8.4,21.9
			c-4.5,4.8-10.6,7.9-17,9.1c-1.5,0.3-3.1,0.4-4.6,0.4c-2.4,0-4.7-0.2-7.1-0.6c-2.9-0.6-5.6-1.6-8.2-3c-2-1.1-4-2.4-5.7-4
			c-1.6-1.5-3.1-3.1-4.4-4.9c-3.5-4.8-5.5-10.7-5.8-16.6c-0.4-8.3,2.7-16.4,8.3-22.4c0.7-0.8,1.5-1.5,2.3-2.1c4.1-3.6,9-6,14.4-7
			C38.6,4.9,40.3,4.7,42,4.7z"/>
		<path class="st2" d="M20.3,14.3c-5.6,6.1-8.7,14.1-8.3,22.4c0.3,5.9,2.3,11.8,5.8,16.6c1.3,1.8,2.8,3.4,4.4,4.9
			c1.7,1.5,3.7,2.9,5.7,4c2.6,1.4,5.4,2.4,8.2,3c2.4,0.5,4.7,0.7,7.1,0.6c1.5,0,3.1-0.2,4.6-0.4c6.5-1.1,12.6-4.3,17-9.1
			c5.5-5.9,8.6-13.8,8.4-21.9c-0.3-8.2-3.9-16-9.9-21.6c-5.7-5.3-13.6-8.2-21.3-8c-1.7,0.1-3.4,0.2-5.1,0.5c-5.3,1-10.2,3.4-14.3,7
			C21.7,12.8,21,13.5,20.3,14.3z M42,5.3c-1.7,0.1-3.4,0.2-5,0.5l-0.1-0.7L37,5.8c-5.2,1-10,3.3-14.1,6.8c-0.8,0.7-1.5,1.3-2.2,2.1
			l0,0c-5.5,6-8.5,13.8-8.1,21.9l-0.6,0l0.6,0c0.3,5.8,2.2,11.5,5.6,16.2l-0.5,0.4l0.5-0.4c1.3,1.7,2.7,3.3,4.3,4.8
			c1.7,1.5,3.6,2.8,5.6,3.9c2.6,1.3,5.2,2.4,8.1,2.9c2.3,0.5,4.6,0.6,7,0.6c1.5,0,3-0.2,4.5-0.4c6.3-1.1,12.3-4.2,16.7-8.9
			c5.4-5.8,8.5-13.5,8.2-21.5c-0.3-8-3.8-15.7-9.7-21.2C57.4,8,49.6,5.1,42,5.3z"/>
		<path class="st5" d="M41.9,7.4c2.7,0,5.4,0.3,8,0.9c4.1,1.1,8.1,3.3,11.3,6.2c4.5,4.1,7.6,9.6,8.7,15.6c0.2,1.2,0.4,2.4,0.5,3.6
			c0.4,7.5-2.3,14.8-7.3,20.3c-3.3,3.6-7.7,6.4-12.4,7.7c-2.4,0.7-4.8,1-7.3,1.1c-7.3,0.2-14.5-2.3-19.9-7.3c-2.9-2.7-5.3-6-6.7-9.7
			c-1.3-3.1-1.9-6.4-2-9.8c-0.3-7.3,2.6-14.6,7.5-19.9c1.3-1.4,2.7-2.6,4.2-3.6c3.7-2.6,7.9-4.3,12.5-4.9C40,7.5,40.9,7.5,41.9,7.4z
			"/>
		<path class="st4" d="M41.1,7.9L41.1,7.9c7.3-0.5,14.6,2.3,19.9,7c4.1,3.7,6.9,8.5,8.2,13.8c0.4,1.6,0.7,3.2,0.8,4.8
			c0.3,6.4-1.5,12.7-5.2,17.9c-0.6,0.9-1.3,1.7-2,2.4c-3.1,3.4-7.4,6.1-11.8,7.4c-2.3,0.7-4.5,1.1-6.9,1.2h-0.2
			c-1.1,0.1-2.2,0-3.3,0c-5.9-0.4-11.7-2.7-16.2-6.6c-5.4-4.7-8.7-11.4-9.2-18.6c-0.5-7.2,1.8-14.5,6.6-19.9
			c4.3-4.9,10.2-8.2,16.6-9.2C39.3,8,40.2,7.9,41.1,7.9z"/>
		<path class="st6" d="M27.4,13.1c3-2.1,6.4-3.5,10-4.3c1.4-0.3,2.9-0.5,4.4-0.5c-0.2,0.1-0.4,0.1-0.6,0.1l-0.9,0.2l-2,0.5l-2,0.6
			c-2.4,0.8-4.7,1.8-7.1,2.8l-1,0.5c-0.2,0.1-0.3,0.1-0.4,0.2C27.7,13.1,27.7,13.1,27.4,13.1L27.4,13.1z"/>
		<path class="st7" d="M65.2,21c0.5,0.6,0.8,1.4,1.2,2.1c0.8,1.5,1.4,3.1,1.9,4.8c1,3.6,1.3,7.2,0.8,10.9L69,39.4c0-0.1,0-0.2,0-0.3
			L65.2,21z"/>
		<path class="st7" d="M63.4,48.2l5.2-7.2c-0.1,0.7-0.3,1.5-0.5,2.2c-0.3,0.9-0.6,1.6-0.9,2.5c-1.6,3.9-4.2,7.3-7.4,10l-1.5,1.2
			c-0.3,0.2-0.6,0.5-0.9,0.7L50.4,55l10.5-5.9l0.1-0.6c0.2-0.3,0.3-0.5,0.6-0.7c0.5-0.3,0.9-0.2,1.4,0l0,0.1L63.4,48.2z"/>
		<path class="st8" d="M61.1,48.6c0.2-0.3,0.3-0.5,0.6-0.7c0.5-0.3,0.9-0.2,1.4,0l0,0.1l0.3,0.3c0.1,0.2,0.2,0.4,0.3,0.6v0
			c0.1,0.4,0,0.8-0.2,1.1c-0.1,0.1-0.2,0.2-0.2,0.3c-0.3,0.2-0.5,0.4-0.8,0.4c-0.4,0-0.8,0-1-0.3c-0.4-0.3-0.5-0.7-0.6-1.2
			L61.1,48.6z"/>
		<path class="st5" d="M63.2,50.1l-0.3,0.2c-0.3,0.2-0.6,0.2-0.9,0.1c-0.3-0.1-0.6-0.3-0.7-0.6c-0.1-0.3-0.2-0.7-0.1-1
			c0.1-0.3,0.4-0.6,0.7-0.7c0.4-0.2,0.8-0.1,1.1,0.1c0.3,0.3,0.5,0.6,0.6,1C63.6,49.6,63.4,49.9,63.2,50.1z"/>
		<path class="st9" d="M41.8,8.3c0.7-0.1,1.4,0,2.1,0c2.8,0.2,5.7,0.6,8.2,1.7l-8.4,5c-0.1-0.3-0.3-0.5-0.6-0.6
			c-0.4-0.2-0.8-0.2-1.2-0.1c-0.3,0.1-0.6,0.3-0.7,0.6l-13.4-1.8c0.1-0.1,0.3-0.2,0.4-0.2l1-0.5c2.3-1.1,4.6-2.1,7.1-2.8l2-0.6
			l1.9-0.5l0.9-0.2C41.4,8.4,41.6,8.4,41.8,8.3z"/>
		<path class="st9" d="M16.5,41.4l7.8,1.1c0.1,0.3,0,0.6,0,0.8c-0.4,0.2-0.7,0.4-0.8,0.9c-0.1,0.3,0,0.7,0.1,0.9
			c0.2,0.3,0.5,0.5,0.8,0.6c0.2,0,0.4,0,0.6,0h0.1c0.2,0,0.3-0.1,0.5-0.2c1,0.8,2.2,1.4,3.3,2l2.7,1.6l1.6,0.9
			c0.4,0.2,0.7,0.4,1,0.6l0.2,0.1L34.1,51l-6.2,6.5c-5.5-3.5-9.7-9.1-11.3-15.4L16.5,41.4z"/>
		<path class="st10" d="M24.5,49.3c0.6,0.1,1.2,0.2,1.9,0.3l5.5,0.9c0.7,0.1,1.4,0.3,2.2,0.3l0.2,0.1L34.1,51
			c-1.1-0.1-2.2-0.3-3.3-0.5l-4.6-0.7c-0.6-0.1-1.3-0.1-1.8-0.3L24.5,49.3L24.5,49.3z"/>
		<path class="st10" d="M16.5,41.4l7.8,1.1V43l-7.6-0.9L16.5,41.4z"/>
		<path class="st8" d="M24.5,49.3c0,0.2-0.1,0.5-0.3,0.7c-0.3,0.4-0.7,0.6-1.1,0.7c-0.5,0.1-0.9-0.1-1.2-0.4c-0.3-0.3-0.5-0.6-0.5-1
			c0-0.4,0-0.9,0.3-1.2c0.3-0.3,0.7-0.6,1.1-0.6c0.5,0,0.9,0.1,1.2,0.4c0.4,0.3,0.4,0.8,0.5,1.2L24.5,49.3z"/>
		<path class="st5" d="M22.8,47.8c0.2,0,0.5,0,0.7,0.1c0.3,0.2,0.5,0.4,0.6,0.8c0.1,0.3,0.1,0.8-0.1,1.1c-0.2,0.4-0.6,0.6-1,0.7
			c-0.3,0-0.6,0-0.8-0.2c-0.3-0.2-0.5-0.5-0.6-0.9c-0.1-0.4,0-0.8,0.2-1C22.1,48,22.4,47.9,22.8,47.8z"/>
		<path class="st11" d="M20.3,20.2c0.2,0.3,0.4,0.8,0.5,1.2l0.6,1.3l0.2,0.2c0.1,0.3,0.2,0.6,0.4,0.9c0.1,0.4,0.3,0.7,0.4,1l1.1,2.5
			c0.2,0.3,0.4,0.8,0.7,1l0,0v0.2v1.5v0.8l0,11.6l-7.8-1.1l-0.4-1.9L16,38.7c-0.7-6.2,0.7-12.9,4.2-18.1L20.3,20.2z"/>
		<path class="st10" d="M20.3,20.2c0.2,0.3,0.4,0.8,0.5,1.2l0.6,1.3l0.2,0.2c0.1,0.3,0.2,0.6,0.4,0.9c0.1,0.4,0.3,0.7,0.4,1l1.1,2.5
			c0.2,0.3,0.4,0.8,0.7,1l0,0v0.2c0,0-0.1,0-0.1,0c-0.2,0-0.6-1-0.8-1.2l-2-4.2c-0.5-0.8-0.9-1.8-1.2-2.7L20.3,20.2z"/>
		<path class="st10" d="M15.9,38.6c0.2-0.1,0.4-0.4,0.6-0.5c0.9-0.8,1.7-1.7,2.5-2.6l2.6-2.6c0.4-0.4,2.3-2.6,2.6-2.7v0.8l-8.1,8.6
			L15.9,38.6z"/>
		<path class="st9" d="M16.1,39.5l8.1-8.6l0,11.6l-7.8-1.1L16.1,39.5z"/>
		<path class="st7" d="M50.8,50.7c-0.1,0.4-0.2,0.8-0.2,1.2c-0.1,0.9-0.3,1.8-0.5,2.7l3.8-2.1l4.3-2.4l1.8-1c0.3-0.2,0.7-0.5,1-0.5
			l-0.1,0.6l-10.5,5.9l6.9,2.5c-0.2,0.1-0.3,0.2-0.5,0.3c-1.2,0.8-2.6,1.4-4,2c-0.8,0.3-1.5,0.6-2.3,0.8c-2.7,0.8-5.5,1.1-8.2,1.2
			c-1.2,0-2.4,0-3.6-0.2l-1-0.2c-2.8-0.5-5.5-1.4-7.9-2.7c-0.7-0.4-1.3-0.7-1.9-1.1l6.3-6.6l0.1-0.1c0.1,0.1,0.2,0.1,0.3,0.2
			l0.5,0.3l1.8,1l3.1,1.7c0.4,0.3,1,0.5,1.4,0.8c0,0.1,0,0.2,0.1,0.4c0.1,0.3,0.3,0.6,0.6,0.8c0.3,0.1,0.7,0.1,0.9,0
			c0.3-0.1,0.5-0.3,0.7-0.6c0.1-0.2,0.1-0.4,0.2-0.5l6.5-3.9L50.8,50.7z"/>
		<path class="st12" d="M50.8,50.7c-0.1,0.4-0.2,0.8-0.2,1.2c-0.1,0.9-0.3,1.8-0.5,2.7l3.8-2.1l4.3-2.4l1.8-1c0.3-0.2,0.7-0.5,1-0.5
			l-0.1,0.6l-10.5,5.9l6.9,2.5c-0.2,0.1-0.3,0.2-0.5,0.3l-6.9-2.5c-0.4,0.2-0.8,0.4-1.1,0.7l-2.3,1.3l-7.7,4.3c-0.1,0,0,0-0.1,0
			l-1-0.2l-1.1-3.6l-1.2-3.8c-0.3-0.9-0.7-1.8-0.9-2.7c0-0.1,0-0.1,0-0.2l0.5,0.3c0.1,0.5,0.3,0.9,0.4,1.3l0.9,2.6l1.4,4.2l0.4,1.3
			c0.1,0.2,0.1,0.4,0.2,0.5l11.3-6.3l0.7-3.9L50.8,50.7z"/>
		<path class="st7" d="M34.2,50.9c0.1,0.1,0.2,0.1,0.3,0.2c0,0.1,0,0.1,0,0.2c0.2,0.9,0.6,1.8,0.9,2.7l1.2,3.8l1.1,3.6
			c-2.8-0.5-5.5-1.4-7.9-2.7c-0.7-0.4-1.3-0.7-1.9-1.1L34.2,50.9L34.2,50.9z"/>
		<path class="st7" d="M38.7,61.5c0.1,0,0.1,0,0.1,0l7.7-4.3l2.3-1.3c0.4-0.2,0.8-0.5,1.1-0.7l6.9,2.5c-1.2,0.8-2.6,1.4-4,2
			c-0.8,0.3-1.5,0.6-2.3,0.8c-2.7,0.8-5.5,1.1-8.2,1.2C41.1,61.8,39.9,61.8,38.7,61.5z"/>
		<path class="st4" d="M52.2,10.1l0.7,0.3l0.2,0.1c0.1,0.1,0.2,0.1,0.3,0.2c0.5,0.1,0.9,0.4,1.3,0.6c1.3,0.7,2.5,1.4,3.6,2.3
			c2,1.5,3.8,3.2,5.4,5.2c0.3,0.4,0.7,0.8,0.9,1.2l0,0l0.7,1.1l3.8,18c0,0.1,0,0.2,0,0.3L68.9,40l-0.2,1l-5.2,7.2L63.2,48l0-0.1
			c-0.5-0.2-0.9-0.2-1.4,0c-0.3,0.2-0.5,0.4-0.6,0.7c-0.4,0.1-0.7,0.3-1,0.5l-1.8,1l-4.3,2.4l-3.8,2.1c0.2-0.9,0.3-1.8,0.5-2.7
			c0.1-0.4,0.1-0.8,0.2-1.2L50.4,51l-6.5,3.9c0,0.2-0.1,0.4-0.2,0.5c-0.2,0.3-0.4,0.5-0.7,0.6c-0.3,0.1-0.7,0.1-0.9,0
			c-0.3-0.2-0.5-0.4-0.6-0.8c0-0.1,0-0.2-0.1-0.4c-0.4-0.3-0.9-0.5-1.4-0.8L37,52.3l-1.8-1l-0.5-0.3c-0.1-0.1-0.2-0.1-0.3-0.2
			l-0.2-0.1c-0.3-0.2-0.7-0.4-1-0.6l-1.6-0.9l-2.7-1.6c-1.1-0.7-2.3-1.3-3.3-2c-0.2,0.1-0.3,0.1-0.5,0.2H25c-0.2,0-0.4,0-0.6,0
			c-0.3-0.1-0.6-0.3-0.8-0.6c-0.1-0.3-0.2-0.7-0.1-0.9c0.1-0.5,0.4-0.7,0.8-0.9c0-0.3,0-0.6,0-0.8l0-11.6v-0.8v-1.5v-0.2l0,0
			c-0.3-0.2-0.5-0.8-0.7-1l-1.1-2.5c-0.1-0.3-0.4-0.7-0.4-1c-0.2-0.3-0.3-0.6-0.4-0.9l-0.2-0.2L21,21.4c-0.2-0.4-0.3-0.9-0.5-1.2
			c2-2.8,4.3-5.2,7.1-7.1v0.1c0.2,0,0.2,0,0.4,0.1L41.4,15c0.1-0.3,0.4-0.5,0.7-0.6c0.4-0.2,0.8-0.1,1.2,0.1
			c0.2,0.1,0.5,0.4,0.6,0.6L52.2,10.1z"/>
		<path class="st8" d="M59.4,25.3L59.4,25.3c0,0.4-0.1,0.8,0.1,1.1c0.1,0.2,0.2,0.3,0.3,0.4v0.1l-0.1-0.1c-0.1-0.1-0.1,0-0.2,0
			c-0.2-0.3-0.3-0.6-0.3-0.9v-0.1c0-0.1-0.2-0.2-0.3-0.3l0.1,0l0,0l0.1,0.1c0.1,0.1,0.1,0.1,0.2,0.3c0.1-0.1,0.1-0.1,0.1-0.2
			c-0.1-0.1-0.1-0.1-0.2-0.2c-0.1,0-0.1-0.1-0.1-0.1l0.2,0.1L59.4,25.3z"/>
		<path class="st5" d="M24.5,43.5c0.2,0,0.5,0,0.7,0.1c0.2,0.1,0.4,0.3,0.5,0.6c0.1,0.2,0.1,0.6-0.1,0.8c-0.2,0.3-0.4,0.5-0.8,0.6
			c-0.2,0-0.4,0-0.7-0.1c-0.3-0.1-0.5-0.3-0.6-0.6c-0.1-0.3-0.1-0.6,0.1-0.8C23.9,43.7,24.2,43.6,24.5,43.5z"/>
		<path class="st5" d="M59.5,25.3c0.2-0.2,0.4-0.4,0.7-0.5c0.3-0.1,0.6,0,0.9,0.2c0.3,0.2,0.4,0.5,0.5,0.8c0,0.3-0.1,0.6-0.2,0.8
			c-0.2,0.2-0.5,0.4-0.8,0.4c-0.2,0-0.5-0.1-0.7-0.2c-0.1-0.1-0.3-0.3-0.3-0.4C59.3,26,59.4,25.6,59.5,25.3z"/>
		<path class="st5" d="M42.3,14.6c0.2,0,0.4,0,0.6,0.1c0.3,0.1,0.5,0.3,0.7,0.6c0.1,0.3,0.1,0.7-0.1,0.9c-0.2,0.3-0.5,0.5-0.8,0.6
			c-0.2,0-0.4,0-0.6-0.1c-0.3-0.1-0.5-0.3-0.6-0.6c-0.1-0.3-0.1-0.6,0-0.9C41.7,14.9,42,14.7,42.3,14.6z"/>
		<path class="st5" d="M24.8,24.4l0.4,0.1c0.1,0.1,0.3,0.2,0.4,0.3l-0.1,0c0,0,0,0.1,0.1,0.1l0,0.1c0.1,0.2,0.2,0.3,0.3,0.5
			c0.1,0.3,0.1,0.6-0.1,0.9c-0.2,0.2-0.4,0.4-0.7,0.5c-0.3,0.1-0.6,0-0.9-0.2c-0.3-0.2-0.5-0.5-0.5-0.8c0-0.3,0-0.6,0.2-0.8
			c0.2-0.3,0.6-0.4,0.9-0.5h0.1C24.8,24.5,24.8,24.4,24.8,24.4z"/>
		<path class="st8" d="M24.8,24.4l0.4,0.1c0.1,0.1,0.3,0.2,0.4,0.3l-0.1,0c0,0,0,0.1,0.1,0.1l0,0.1c-0.2-0.2-0.4-0.3-0.7-0.3
			C24.8,24.5,24.8,24.4,24.8,24.4z"/>
		<path class="st5" d="M60.2,39.7V27.2c0.2,0,0.4,0,0.5,0.1l0,16.2l-0.5,0V39.7z"/>
		<path class="st5" d="M41.2,15.9L41.2,15.9c0.1,0.1,0.2,0.3,0.2,0.4c-0.3,0.2-0.6,0.4-0.9,0.5l-1.7,1l-4.1,2.4l-5.9,3.4L26,25.3
			l-0.2-0.4c0.2-0.2,0.7-0.4,1-0.6l1.9-1.1l7.7-4.5L41.2,15.9z"/>
		<path class="st5" d="M59.1,25.3c-0.1-0.2-0.6-0.4-0.8-0.5l-3.5-2.1l-11.1-6.5c0.1-0.2,0.1-0.3,0.1-0.5l8.9,5.2l5.1,3l1.3,0.8
			c0.1,0.1,0.4,0.2,0.5,0.4l-0.1,0.2l-0.1,0.1L59.1,25.3z"/>
		<path class="st5" d="M24.5,27.5v-0.4c0.1-0.1,0.3-0.1,0.5-0.1c0.1,0.2,0,10.4,0,11.5l0,4.6l-0.1,0.1h-0.4h-0.3c0-0.3,0-0.6,0-0.8
			l0-11.6v-0.8v-1.5v-0.2h0.1C24.5,28.4,24.4,27.7,24.5,27.5z"/>
		<path class="st8" d="M24.2,28.5L24.2,28.5c0.3-0.1,0.1-0.7,0.2-0.9V40v2.5c0,0.2-0.1,0.7,0,0.8h-0.3c0-0.3,0-0.6,0-0.8l0-11.6
			v-0.8v-1.5L24.2,28.5z"/>
		<path class="st5" d="M25.6,45.3l0.2-0.3c0.7,0.3,1.4,0.9,2.1,1.3l4.8,2.9l6.8,3.8l1.1,0.7c0.3,0.1,0.5,0.3,0.7,0.5
			c0,0.1,0,0.2-0.1,0.3h0.1c-0.1,0.2-0.1,0.4-0.1,0.7l-0.1,0.1c0.1,0.1,0.1,0.1,0.1,0.3c-0.2-0.2-0.2-0.4-0.2-0.7l0,0.4
			c0-0.1,0-0.2-0.1-0.4c-0.4-0.3-0.9-0.5-1.4-0.8l-3.1-1.7l-1.8-1l-0.5-0.3c-0.1-0.1-0.2-0.1-0.3-0.2L34,50.8
			c-0.3-0.2-0.7-0.4-1-0.6l-1.6-0.9l-2.7-1.6c-1.1-0.7-2.3-1.3-3.3-2c-0.2,0.1-0.3,0.1-0.5,0.2h-0.1c-0.1,0,0,0-0.1-0.1l0.2,0l0.1,0
			l0.1,0c0.1,0,0.1-0.1,0.2-0.1C25.5,45.5,25.5,45.5,25.6,45.3L25.6,45.3L25.6,45.3z"/>
		<path class="st8" d="M24.8,45.8C24.8,45.7,24.8,45.8,24.8,45.8l0.1-0.1l0.1,0l0.1,0c0.1,0,0.1-0.1,0.2-0.1c0.1,0,0.2-0.1,0.3-0.2
			l0-0.1l0,0.1v0.1c0.3,0.3,0.7,0.5,1.1,0.7l1.9,1.1l8.3,4.7l2.7,1.5c0.6,0.3,1.1,0.7,1.7,0.9c0,0,0.1-0.1,0.1-0.1h0.1
			c-0.1,0.2-0.1,0.4-0.1,0.7l-0.1,0.1c0.1,0.1,0.1,0.1,0.1,0.3c-0.2-0.2-0.2-0.4-0.2-0.7l0,0.4c0-0.1,0-0.2-0.1-0.4
			c-0.4-0.3-0.9-0.5-1.4-0.8l-3.1-1.7l-1.8-1l-0.5-0.3c-0.1-0.1-0.2-0.1-0.3-0.2l-0.2-0.1c-0.3-0.2-0.7-0.4-1-0.6l-1.6-0.9l-2.7-1.6
			c-1.1-0.7-2.3-1.3-3.3-2c-0.2,0.1-0.3,0.1-0.5,0.2L24.8,45.8z"/>
		<path class="st5" d="M43.4,54.2c0.2-0.2,0.7-0.5,0.9-0.6l2.5-1.5l8.8-5.1c1.2-0.7,2.6-1.4,3.8-2.2c0-0.4,0.1-0.7,0.4-1
			c0.3-0.3,0.6-0.3,0.9-0.3c0.4,0.1,0.6,0.3,0.8,0.6c0.1,0.3,0.1,0.6,0,0.8c-0.1,0.3-0.3,0.5-0.6,0.6c-0.3,0.1-0.6,0.1-0.9,0
			c-0.1,0-0.2-0.1-0.3-0.1v0.1c0.2,0.1,0.3,0.2,0.4,0.2h0.1h0.1h0.1c0.3,0,0.5-0.1,0.7-0.1h0l0,0.1h-0.1l-0.1,0l-0.1,0
			c-0.1,0-0.1,0-0.1,0.1h0c-0.2,0,0.1,0-0.1,0c-0.1,0-0.2,0-0.3-0.1h0c-0.2,0-0.2,0-0.4-0.1l-0.1,0c-0.1,0-0.1-0.1-0.1-0.1l-0.1-0.1
			l0,0c-0.3,0.3-0.8,0.5-1.1,0.7l-2.3,1.3l-3.3,1.9l-2,1.1l-0.5,0.3l-6.5,3.9c0,0.2-0.1,0.4-0.2,0.5c-0.2,0.3-0.4,0.5-0.7,0.6
			c-0.3,0.1-0.7,0.1-0.9,0c-0.3-0.2-0.5-0.4-0.6-0.8l0-0.4c0,0.2,0,0.5,0.2,0.7c0-0.1,0-0.2-0.1-0.3l0.1-0.1c0-0.2,0-0.5,0.1-0.7
			c0.2-0.3,0.3-0.5,0.6-0.7c0.3,0,0.6-0.1,0.9,0.2C43.2,54,43.3,54.1,43.4,54.2L43.4,54.2z"/>
		
			<linearGradient id="SVGID_00000049908595246905006040000003413772763901668012_" gradientUnits="userSpaceOnUse" x1="51.6746" y1="290.313" x2="50.7526" y2="288.6865" gradientTransform="matrix(1 0 0 1 0 -239.2676)">
			<stop  offset="0" style="stop-color:#000729"/>
			<stop  offset="1" style="stop-color:#103D6B"/>
		</linearGradient>
		<path style="fill:url(#SVGID_00000049908595246905006040000003413772763901668012_);" d="M43.4,54.2c0.1,0.1,0.1,0.3,0.2,0.4
			l9.3-5.4l4.1-2.4c0.9-0.5,1.8-1,2.6-1.6l0.2,0.3v0.1c0.2,0.1,0.3,0.2,0.4,0.2h0.1h0.1h0.1c0.3,0,0.5-0.1,0.7-0.1h0l0,0.1h-0.1
			l-0.1,0l-0.1,0c-0.1,0-0.1,0-0.1,0.1h0c-0.2,0,0.1,0-0.1,0c-0.1,0-0.2,0-0.3-0.1h0c-0.2,0-0.2,0-0.4-0.1l-0.1,0
			c-0.1,0-0.1-0.1-0.1-0.1l-0.1-0.1l0,0c-0.3,0.3-0.8,0.5-1.1,0.7l-2.3,1.3l-3.3,1.9l-2,1.1l-0.5,0.3l-6.5,3.9
			c0,0.2-0.1,0.4-0.2,0.5c-0.2,0.3-0.4,0.5-0.7,0.6c-0.3,0.1-0.7,0.1-0.9,0c-0.3-0.2-0.5-0.4-0.6-0.8l0-0.4c0,0.2,0,0.5,0.2,0.7
			c0-0.1,0-0.2-0.1-0.3l0.1-0.1c0-0.2,0-0.5,0.1-0.7c0.2-0.3,0.3-0.5,0.6-0.7c0.3,0,0.6-0.1,0.9,0.2C43.2,54,43.3,54.1,43.4,54.2
			L43.4,54.2z"/>
		<path class="st5" d="M42.2,53.8c0.3,0,0.6-0.1,0.9,0.2c0.1,0.1,0.2,0.2,0.3,0.3h0c0.1,0.3,0.1,0.5,0.1,0.8
			c-0.1,0.3-0.3,0.6-0.6,0.7c-0.3,0.1-0.6,0.1-0.9,0c-0.3-0.1-0.3-0.4-0.5-0.6c0-0.2,0-0.5,0.1-0.7C41.7,54.1,41.9,54,42.2,53.8z"/>
		<path class="st11" d="M25.2,42.6l3.8,0.6l0.1,0.1c0.1,0.1,0.2,0.2,0.4,0.3c0.1,0.1,0.2,0.1,0.3,0.2l2.2,1.3c0,0.1,0,0.1,0,0.2
			c0.1,0.5,0.5,0.9,0.7,1.3c0.5,1,1,2.2,1.5,3.2c-0.6-0.3-1.1-0.7-1.7-1l-3.7-2.2l-2.2-1.3c-0.1-0.1-0.5-0.3-0.6-0.4
			c0,0,0-0.6-0.1-0.7c-0.1-0.3-0.2-0.5-0.5-0.7l-0.2-0.1v-0.2L25.2,42.6z"/>
		<path class="st10" d="M25.2,42.6l3.8,0.6l0.1,0.1c0.1,0.1,0.2,0.2,0.4,0.3c0.1,0.1,0.2,0.1,0.3,0.2c-0.3,0-0.6,0-0.9-0.1l-1.5-0.2
			l-2.2-0.3L25.2,42.6z"/>
		<path class="st9" d="M29.5,23.6l0.3-0.2l0.5,2.8L30,26.4c-0.4,0.3-0.9,0.5-1.2,0.9l0,0.1c-0.1,0.2-0.1,0.7-0.1,0.9v2.5v0.4v2
			c0,0.2,0,0.4,0,0.6v0.1c0,0.2,0,0.3,0,0.5c-0.1-0.2-0.2-0.3-0.3-0.5l-0.5-1l-1.1-2.5l-1.7,0.1c0-0.2-0.1-0.6,0-0.7l0,0
			c-0.1-0.2,0-0.6,0-0.8v-1.3c0-0.1,0-0.3,0-0.4c0.1-0.1,0.4-0.3,0.5-0.4c0.3-0.3,0.4-0.7,0.3-1v-0.1l2.6-1.5l0.4-0.3
			C29.2,23.7,29.4,23.6,29.5,23.6z"/>
		<path class="st10" d="M29.5,23.6l0.3-0.2l0.5,2.8L30,26.4L29.5,23.6z"/>
		<path class="st10" d="M29.1,23.8c0,0.9-0.4,1.8-0.7,2.6l-0.8,2.4l-0.3,0.9c0,0.1-0.1,0.2-0.1,0.4l0.2,0.1l1.3,0.6v0.4v2
			c0,0.2,0,0.4,0,0.6v0.1c0,0.2,0,0.3,0,0.5c-0.1-0.2-0.2-0.3-0.3-0.5l-0.5-1l-1.1-2.5l-1.7,0.1c0-0.2-0.1-0.6,0-0.7l0,0
			c-0.1-0.2,0-0.6,0-0.8l1.7,1l1.7-5.8L29.1,23.8z"/>
		<path class="st9" d="M27.3,30.5c0.5,0.2,1,0.5,1.4,0.8v2c0,0.2,0,0.4,0,0.6L27.3,30.5z"/>
		<path class="st9" d="M25.2,28.8v-1.3c0-0.1,0-0.3,0-0.4c0.1-0.1,0.4-0.3,0.5-0.4c0.3-0.3,0.4-0.7,0.3-1v-0.1l2.6-1.5l-1.7,5.8
			L25.2,28.8z"/>
		<path class="st9" d="M29.9,23.4l11.6-6.8l0,0c0.4,0.4,0.6,0.4,1.1,0.5c-0.3,0.1-1.3,2-1.5,2.4c0,0.1,0,0.1-0.1,0.2l-10.7,6.5
			L29.9,23.4z"/>
		<path class="st9" d="M25.2,30.4l1.7-0.1l1.1,2.5l0.5,1c0.1,0.2,0.1,0.4,0.3,0.5c0-0.2,0-0.3,0-0.5c0.1,0.4,0,0.7,0,1.1v7.8
			c0,0.1,0.2,0.4,0.3,0.5l-3.8-0.6L25.2,30.4z"/>
		<path class="st7" d="M55.6,38.2l4.4,0.6v0.5v1.8c0,0.3,0,0.6,0,0.9v0v0.5v0.9l-0.1,0c-0.4,0.3-0.7,0.6-0.8,1.1l0,0.2L51,49.4
			l-0.5,0.3c0-0.3,0.1-0.6,0.1-0.9l0.3-1.9l0.3-1.3c0.1-0.1,0.3-0.2,0.5-0.3l1-0.6c0.6-0.4,1.2-0.8,1.8-1.1c0.2-0.2,0.5-0.3,0.7-0.4
			l0.1,0c0.1-0.1,0.2-0.2,0.3-0.3c0.1-0.3,0-0.7,0-1v-3.2L55.6,38.2z"/>
		<path class="st12" d="M51.8,45.2c0,0.4-0.1,0.9-0.2,1.3l-0.4,2c-0.1,0.3-0.1,0.6-0.2,0.9l-0.5,0.3c0-0.3,0.1-0.6,0.1-0.9l0.3-1.9
			l0.3-1.3C51.4,45.4,51.6,45.3,51.8,45.2z"/>
		<path class="st12" d="M54.5,43.5c0.3,0,0.8-0.2,1-0.3l2.6-0.8c0.6-0.2,1.2-0.4,1.8-0.5v0.5c-0.9,0.2-1.8,0.5-2.7,0.8l-2.9,0.9
			c-0.6,0.2-1.1,0.4-1.7,0.5C53.3,44.3,53.9,43.8,54.5,43.5z"/>
		<path class="st7" d="M55.6,38.2l4.4,0.6v0.5v1.8c0,0.3,0,0.6,0,0.9v0c-0.6,0.1-1.2,0.4-1.8,0.5l-2.6,0.8c-0.3,0.1-0.8,0.3-1,0.3
			c0.2-0.2,0.5-0.3,0.7-0.4l0.1,0c0.1-0.1,0.2-0.2,0.3-0.3c0.1-0.3,0-0.7,0-1v-3.2L55.6,38.2z"/>
		<path class="st6" d="M55.6,38.2l4.4,0.6v0.5l-4.4-0.6V38.2z"/>
		<path class="st11" d="M52.2,10.1l0.7,0.3l0.2,0.1l0,0.6l-0.5,5.7l-0.2,2.7c0,0.3,0,0.7-0.1,1L51.9,20L44,15.4
			c-0.2-0.1-0.2-0.2-0.3-0.4L52.2,10.1z"/>
		<path class="st10" d="M52.2,10.1l0.7,0.3l0.2,0.1l0,0.6l-0.5,5.7l-0.2,2.7c0,0.3,0,0.7-0.1,1L51.9,20l0.9-9.6L44,15.4
			c-0.2-0.1-0.2-0.2-0.3-0.4L52.2,10.1z"/>
		<path class="st7" d="M51.8,21.2c0.2,0.1,0.4,0.2,0.5,0.3l6.6,4c0.1,0.1,0.3,0.1,0.3,0.3v0.1c0,0.3,0.1,0.7,0.3,0.9l0,0
			c0.1,0.1,0.2,0.2,0.4,0.3c0.1,0.2,0,0.6,0,0.9v1.8l0,5.9l0,3.2l-4.4-0.6l0-11.3l-2.3-1.4c-0.4-0.2-0.8-0.4-1.1-0.7l0,0l-0.6-0.3
			L51.8,21.2z"/>
		<path class="st10" d="M51.8,21.2c0.2,0.1,0.4,0.2,0.5,0.3l-0.2,3.3l-0.6-0.3L51.8,21.2z"/>
		<path class="st7" d="M61,38.9l6.9,0.9l0.4,0.5l0.1,0.1c-0.5,0.8-1,1.5-1.5,2.3l-2.6,3.7l-0.7,1c-0.1,0.2-0.3,0.4-0.4,0.6
			c-0.5-0.2-0.9-0.2-1.4,0c-0.3,0.2-0.5,0.4-0.6,0.7c-0.4,0.1-0.7,0.3-1,0.5l-1.8,1L54,52.5l-3.8,2.1c0.2-0.9,0.3-1.8,0.5-2.7
			c0.1-0.4,0.1-0.8,0.2-1.2l2-1.1l3.3-1.9l2.3-1.3c0.4-0.2,0.8-0.4,1.1-0.7l0,0l0.1,0.1c0.1,0,0.1,0.1,0.1,0.1l0.1,0
			c0.1,0.1,0.2,0.1,0.4,0.1h0c0.1,0.1,0.2,0.1,0.3,0.1c0.2,0,0,0,0.1,0h0c0.1,0,0,0,0.1-0.1l0.1,0l0.1,0h0.1l0-0.1h0
			c-0.2,0.1-0.5,0.2-0.7,0.1h-0.1h-0.1h-0.1c-0.2,0-0.3-0.1-0.4-0.2v-0.1c0.1,0,0.2,0.1,0.3,0.1c0.3,0.1,0.6,0.1,0.9,0
			c0.3-0.1,0.5-0.3,0.6-0.6c0.1-0.3,0.1-0.6,0-0.8c-0.2-0.4-0.4-0.5-0.8-0.6l0-0.2h0.3l0-4.1L61,38.9z"/>
		<path class="st8" d="M60.7,43.4h0.3c0.4,0.2,0.6,0.4,0.8,0.8c0.1,0.3,0.1,0.7,0,1c-0.1,0.3-0.4,0.6-0.8,0.7
			c-0.3,0.1-0.8,0.1-1.1-0.1c-0.1-0.1-0.2-0.1-0.3-0.2l0,0l0.1,0.1c0.1,0,0.1,0.1,0.1,0.1l0.1,0c0.1,0.1,0.2,0.1,0.4,0.1h0
			c0.1,0.1,0.2,0.1,0.3,0.1c0.2,0,0,0,0.1,0h0c0.1,0,0,0,0.1-0.1l0.1,0l0.1,0H61l0-0.1h0c-0.2,0.1-0.5,0.2-0.7,0.1h-0.1h-0.1h-0.1
			c-0.2,0-0.3-0.1-0.4-0.2v-0.1c0.1,0,0.2,0.1,0.3,0.1c0.3,0.1,0.6,0.1,0.9,0c0.3-0.1,0.5-0.3,0.6-0.6c0.1-0.3,0.1-0.6,0-0.8
			c-0.2-0.4-0.4-0.5-0.8-0.6L60.7,43.4z"/>
		<path class="st12" d="M61,38.9l6.9,0.9l0.4,0.5L61,39.4V38.9z"/>
		<path class="st9" d="M20.3,20.2c2-2.8,4.3-5.2,7.1-7.1v0.1c0.2,0,0.2,0,0.4,0.1l13.4,1.8l-0.1,0.5c0,0.1,0,0.1-0.1,0.1
			c-0.1,0.1-0.4,0.2-0.6,0.3l-2.4,1.4l-8.4,4.9l-0.3,0.2c-0.4,0.3-0.8,0.5-1.1,0.7l-1.6,1c-0.4,0.2-0.9,0.4-1.2,0.8
			c-0.1-0.1-0.3-0.2-0.4-0.3l-0.4-0.1c0,0.1,0,0.2,0,0.2h-0.1c0-0.1,0-0.1,0-0.2c-0.3,0-0.7,0.1-0.9,0.4c-0.3,0.3-0.5,0.6-0.5,1
			c0,0.4,0.2,0.8,0.4,1c0.1,0.1,0.2,0.1,0.3,0.2l0.2,0.1v1.4c-0.3-0.2-0.5-0.8-0.7-1l-1.1-2.5c-0.1-0.3-0.4-0.7-0.4-1
			c-0.2-0.3-0.3-0.6-0.4-0.9l-0.2-0.2l-0.6-1.3C20.6,21,20.5,20.5,20.3,20.2z"/>
		<path class="st10" d="M27.5,13.2c0.2,0,0.2,0,0.4,0.1l13.4,1.8l-0.1,0.5L28,13.7l1.8,8.5l-0.3,0.2l-1.8-8.4l-0.3,1.5l-1.6,6.7
			c-0.2,0.8-0.4,1.5-0.5,2.3l-0.5-0.1c0-0.2,0-0.5,0.1-0.7l0.4-1.7l1.6-6.5L27.5,13.2z"/>
		<path class="st9" d="M27.4,15.4l0.3-1.5l1.8,8.4c-0.4,0.3-0.8,0.5-1.1,0.7l-1.6,1c-0.4,0.2-0.9,0.4-1.2,0.8
			c-0.1-0.1-0.3-0.2-0.4-0.3c0.1-0.8,0.3-1.6,0.5-2.3L27.4,15.4z"/>
		<path class="st11" d="M20.3,20.2c2-2.8,4.3-5.2,7.1-7.1v0.1l-0.6,2.3L25.3,22l-0.4,1.7c0,0.2-0.1,0.5-0.1,0.7c0,0.1,0,0.2,0,0.2
			h-0.1c0-0.1,0-0.1,0-0.2c-0.3,0-0.7,0.1-0.9,0.4c-0.3,0.3-0.5,0.6-0.5,1c0,0.4,0.2,0.8,0.4,1c0.1,0.1,0.2,0.1,0.3,0.2l0.2,0.1v1.4
			c-0.3-0.2-0.5-0.8-0.7-1L22.4,25c-0.1-0.3-0.4-0.7-0.4-1c-0.2-0.3-0.3-0.6-0.4-0.9l-0.2-0.2l-0.6-1.3C20.6,21,20.5,20.5,20.3,20.2
			z"/>
		<path class="st8" d="M21.6,23c0-0.2,0-0.5,0-0.7v-0.1c0.1-0.4,0.4-0.7,0.7-0.9c0.4-0.2,0.8-0.3,1.2-0.1c0.4,0.1,0.8,0.4,1,0.8
			c0.2,0.4,0.2,0.8,0.1,1.2c-0.1,0.4-0.5,0.8-0.8,0.9c-0.3,0.2-0.8,0.2-1.2,0.1l-0.1-0.1c-0.2-0.1-0.4-0.2-0.5-0.3
			C21.8,23.6,21.7,23.3,21.6,23z"/>
		<path class="st5" d="M23,21.4c0.3,0,0.5,0,0.8,0.2c0.3,0.2,0.6,0.5,0.6,0.9c0.1,0.3,0,0.7-0.2,0.9c-0.3,0.4-0.6,0.5-1,0.6
			c-0.3,0-0.6,0-0.8-0.2c-0.3-0.2-0.5-0.5-0.6-0.9c-0.1-0.3,0-0.7,0.2-1C22.2,21.6,22.6,21.4,23,21.4z"/>
		<path class="st7" d="M53,10.4c0.1,0.1,0.2,0.1,0.3,0.2c0.5,0.1,0.9,0.4,1.3,0.6c1.3,0.7,2.5,1.4,3.6,2.3c2,1.5,3.8,3.2,5.4,5.2
			c0.3,0.4,0.7,0.8,0.9,1.2l0,0l0.7,1.1l3.8,18c0,0.1,0,0.2,0,0.3L68.9,40l-0.2,1l-5.2,7.2L63.1,48l0-0.1c0.1-0.2,0.3-0.4,0.4-0.6
			l0.7-1l2.6-3.7c0.5-0.8,1.1-1.5,1.5-2.3l-0.1-0.1l-0.4-0.5L61,38.9v-9.5l0-0.8c0-0.4,0-0.8,0-1.2v-0.3l0.1-0.1
			c0.3-0.2,0.6-0.4,0.7-0.7c0.1-0.3,0.1-0.7,0-1c-0.2-0.4-0.5-0.6-0.9-0.8c-0.4-0.1-0.7,0-1,0.1l-0.1,0l-0.5-0.3L58.6,24l-6.3-3.7
			c0.1-0.3,0-0.7,0.1-1l0.2-2.7L53,11L53,10.4z"/>
		<path class="st8" d="M62.3,21.1c0.3,0,0.5,0,0.7,0.1c0.4,0.1,0.7,0.4,0.8,0.8c0.1,0.3,0.1,0.8-0.1,1.1c-0.2,0.4-0.6,0.6-1,0.8
			c-0.3,0-0.6,0-0.9-0.1c-0.3-0.2-0.6-0.5-0.7-0.8c-0.1-0.3,0-0.8,0.1-1.1C61.5,21.4,61.9,21.3,62.3,21.1z"/>
		<path class="st5" d="M62.3,21.4c0.2,0,0.5,0,0.7,0.1c0.3,0.1,0.5,0.4,0.6,0.7c0.1,0.3,0.1,0.7,0,0.9c-0.2,0.3-0.5,0.5-0.8,0.6
			c-0.3,0-0.5,0.1-0.8-0.1c-0.3-0.1-0.5-0.4-0.6-0.7s-0.1-0.7,0.1-0.9C61.7,21.6,61.9,21.5,62.3,21.4z"/>
		<path class="st6" d="M60.9,28.6c0.8,1,1.4,2.2,2,3.2l3.4,4.9c0.7,0.9,1.3,2.1,2.2,2.9c0.1,0.1,0.1,0.2,0.2,0.3
			c0,0.1-0.1,0.3-0.3,0.3c0,0-0.1,0-0.1,0.1l-0.1-0.1l-0.4-0.5c-0.2-0.4-0.6-0.9-0.9-1.3l-2.9-4.1L62,31.1c-0.4-0.6-0.7-1.2-1.1-1.7
			L60.9,28.6z"/>
		<path class="st6" d="M53,10.4c0.1,0.1,0.2,0.1,0.3,0.2l5.9,13.9l0,0.1l-0.6-0.4c-0.1-0.5-0.3-0.9-0.5-1.3L57,20.2l-3-7.1l-0.5-1.3
			c-0.1-0.3-0.1-0.6-0.3-0.8L53,10.4z"/>
		<path class="st12" d="M68.6,39.7c0-0.4-0.2-1-0.3-1.4L68,36.5l-2.8-13.6l-0.5-2.1c-0.1-0.3-0.2-0.6-0.2-0.9l0.7,1.1l3.8,18
			c0,0.1,0,0.2,0,0.3L68.8,40l-0.2,1l-5.2,7.2L63.1,48l0-0.1c0.1-0.2,0.3-0.4,0.4-0.6l0.7-1l2.6-3.7c0.5-0.8,1.1-1.5,1.5-2.3
			c0,0,0.1,0,0.1-0.1c0.1-0.1,0.2-0.2,0.3-0.3C68.7,39.9,68.6,39.8,68.6,39.7z"/>
		<path class="st7" d="M53,11c0.2,0.2,0.2,0.5,0.3,0.8l0.5,1.3l3,7.1l1.1,2.6c0.2,0.4,0.4,0.9,0.5,1.3l-6.3-3.7c0.1-0.3,0-0.7,0.1-1
			l0.2-2.7L53,11z"/>
		<path class="st7" d="M61,29.4c0.4,0.5,0.7,1.2,1.1,1.7l2.2,3.3l2.9,4.1c0.3,0.4,0.7,0.9,0.9,1.3L61,38.9L61,29.4z"/>
		<path class="st1" d="M42.6,17.1L42.6,17.1c0.5-0.1,0.8-0.3,1.1-0.6l8.1,4.8l-0.3,3.2l0.6,0.3l0,0c0.3,0.3,0.8,0.4,1.1,0.7l2.3,1.4
			l0,11.3v0.5v3.2c0,0.3,0.1,0.7,0,1c0,0.1-0.2,0.2-0.3,0.3l-0.1,0c-0.2,0.1-0.5,0.3-0.7,0.4c-0.6,0.3-1.3,0.7-1.8,1.1l-1,0.6
			c-0.2,0.1-0.3,0.2-0.5,0.3L51,46.8l-0.3,1.9c0,0.3-0.1,0.6-0.1,0.9l-7.2,4.3l0,0c-0.4-0.3-0.6-0.3-1-0.3c-0.2,0.1-0.4,0.1-0.6,0.3
			l-0.1,0L35,50.2l-0.4-0.2L34.6,50l-0.5-0.3c-0.6-1-1-2.1-1.5-3.2c-0.2-0.4-0.5-0.9-0.7-1.3c0-0.1,0-0.1,0-0.2l-2.2-1.3
			c-0.1,0-0.2-0.1-0.3-0.2c-0.1-0.1-0.3-0.2-0.4-0.3L29,43.2c-0.1-0.1-0.3-0.3-0.3-0.5v-7.8c0-0.4,0-0.7,0-1.1v-0.1
			c0.1-0.2,0-0.4,0-0.6v-2v-0.4v-2.5c0-0.2-0.1-0.8,0-0.9l0-0.1c0.3-0.4,0.8-0.7,1.2-0.9l0.3-0.2l10.7-6.5c0-0.1,0-0.1,0.1-0.2
			C41.2,19,42.3,17.1,42.6,17.1z"/>
		<path class="st14" d="M29.1,42.6c0.2,0.2,0.4,0.4,0.6,0.5l3.4-2l6,3.6l1.9,1.2c0.3,0.2,0.6,0.3,0.8,0.6l-0.1,0l-8.6-5.2l-3.3,1.9
			l0,0c-0.2,0-0.3,0-0.4,0.1c0,0-0.1,0.1-0.1,0.1c0,0.1,0.1,0.1,0.1,0.2c-0.1-0.1-0.3-0.2-0.4-0.3L29.1,42.6z"/>
		<path class="st14" d="M42.7,46.5v-0.2c0.2-0.3,0.7-0.5,0.9-0.7l3.1-1.9l4.7-3c0.5,0.2,1,0.6,1.5,0.8l2.1,1.1l-0.1,0.1l-0.1,0
			l-3.4-1.8L42.7,46.5L42.7,46.5z"/>
		
			<linearGradient id="SVGID_00000017504889935662530290000006409619266248681663_" gradientUnits="userSpaceOnUse" x1="56.8499" y1="278.6882" x2="28.4288" y2="267.5269" gradientTransform="matrix(1 0 0 1 0 -239.2676)">
			<stop  offset="0" style="stop-color:#443621"/>
			<stop  offset="1" style="stop-color:#1D3541"/>
		</linearGradient>
		<path style="fill:url(#SVGID_00000017504889935662530290000006409619266248681663_);" d="M41,19.6c0.4-0.2,0.9-0.5,1.3-0.7
			c0.8,0.3,1.6,0.8,2.3,1.3l2.6,1.6l3.3,2c0.3,0.2,0.7,0.4,1,0.7l0.6,0.3l0,0c0.3,0.3,0.8,0.4,1.1,0.7l2.3,1.4l0,11.3v0.5v3.2
			c0,0.3,0.1,0.7,0,1c0,0.1-0.2,0.2-0.3,0.3l-0.1,0c-0.1-0.4,0-0.8-0.1-1.2V27l-2.3-1.4l-6.6-4l-2.2-1.4c-0.6-0.4-1.1-0.7-1.7-1
			c-0.2,0-0.3,0.1-0.5,0.2l-2.6,1.6l-5.4,3.4l-3.3,2.1c-0.3,0.2-0.7,0.4-0.9,0.6c-0.1,0.1-0.3,0.3-0.4,0.4c0,0.1,0,0.3,0,0.4l0,1.6
			v4.3c0,0.6,0.1,1.2,0,1.8v0.1v4.5c0,0.8-0.1,1.5,0.1,2.3l0,0.7l-0.1-0.1c-0.1-0.1-0.3-0.3-0.3-0.5V35c0-0.4,0-0.7,0-1.1v-0.1
			c0.1-0.2,0-0.4,0-0.6v-2v-0.4v-2.5c0-0.2-0.1-0.8,0-0.9l0-0.1c0.3-0.4,0.8-0.7,1.2-0.9l0.3-0.2L41,19.6z"/>
		<path class="st11" d="M42.6,17.1L42.6,17.1c0.5-0.1,0.8-0.3,1.1-0.6l8.1,4.8l-0.3,3.2c-0.3-0.2-0.7-0.4-1-0.7l-3.3-2l-2.6-1.6
			c-0.7-0.5-1.5-0.9-2.3-1.3c-0.5,0.1-0.9,0.4-1.3,0.7c0-0.1,0-0.1,0.1-0.2C41.2,19,42.3,17.1,42.6,17.1z"/>
		<path class="st16" d="M43,36.3l6.5,3.7l0.8,0.4l-2.8,1.8L43,45V36.3z"/>
		<path class="st16" d="M43,25.1l0.4,0.3l6.2,3.9l0.6,0.4c-0.1,0.2-0.7,0.4-0.9,0.5c-0.6,0.3-1.2,0.7-1.7,1l-0.1,0L45,32.7l-1.3,0.8
			c-0.3,0.1-0.5,0.3-0.7,0.5V25.1z"/>
		<path class="st16" d="M50.6,30.7L50.6,30.7c0.1,0.2,0.1,7.8,0.1,8.7L46,36.7c-0.3-0.3-0.8-0.5-1.2-0.7l-1.6-1
			c0.1-0.1,0.3-0.2,0.4-0.3l1-0.6l3.9-2.3C49.2,31.6,49.9,31.2,50.6,30.7z"/>
		<path class="st16" d="M33.7,30.6c0.3,0.1,0.6,0.4,0.9,0.6l1.8,1.1l4.6,2.8c-0.3,0.3-0.8,0.5-1.1,0.8l-1.3,0.9l-0.3,0.2l-4.4,2.8
			L33.7,30.6z"/>
		<path class="st16" d="M41.8,35.9v9.2l-4.4-2.7l-2-1.2c-0.3-0.2-0.7-0.4-0.9-0.6l4.5-2.8L41.8,35.9z"/>
		<path class="st16" d="M41.8,25.1c0,0,0.1,8.4,0,9.3l-0.4-0.2l-4.2-2.6c-0.8-0.5-1.6-1-2.4-1.5c-0.1-0.1-0.5-0.3-0.5-0.4L41.8,25.1
			z"/>
		<path class="st16" d="M54.8,28.2c0.1,0.1,0.1,12.4,0.1,13.6l-0.5-0.3l-1.5-0.8l-1.1-0.6l0-10.1c0.4-0.3,0.9-0.6,1.3-0.8
			C53.7,28.9,54.3,28.5,54.8,28.2z"/>
		<path class="st16" d="M29.6,28.1c0.1,0,0.2,0.1,0.3,0.2c0.1,0.1,0,0,0.1,0.1l0.7,0.4l0.4,0.2l0.3,0.2l0.7,0.4l0.5,0.4v10.4
			l-0.5,0.3l-0.7,0.4l-1.9,1.1c-0.1-1.2,0-2.5,0-3.7v-7.2v-2c0-0.3,0-0.6,0-0.9v0C29.5,28.3,29.6,28.3,29.6,28.1z"/>
		<path class="st16" d="M43,20l8.1,5l3.6,2c-0.1,0.1-0.2,0.1-0.3,0.2l-0.9,0.5l-2.2,1.3L43,23.9V20z"/>
		<path class="st16" d="M41.8,20c0.1,0.2,0,0.8,0,1v2.8L33.3,29c-0.1,0-0.1,0.1-0.2,0.1l-1.9-1.2L30,27.2c0.5-0.5,1.3-0.9,1.9-1.2
			l1.8-1.1L41.8,20z"/>
		<path class="st7" d="M42.8,46.5l8.7-5.5l3.4,1.8l0.1,0l0.1-0.1c0.1,0,0.1,0,0.2,0l0-0.7c0,0.4-0.1,0.9,0.1,1.2
			c-0.2,0.1-0.5,0.3-0.7,0.4c-0.6,0.3-1.3,0.7-1.8,1.1l-1,0.6c-0.2,0.1-0.3,0.2-0.5,0.3L51,46.9l-0.3,1.9c0,0.3-0.1,0.6-0.1,0.9
			l-7.2,4.3l0,0c-0.4-0.3-0.6-0.3-1-0.3c-0.2,0.1-0.4,0.1-0.6,0.3l-0.1,0l-6.6-3.6l-0.4-0.2l-0.1-0.1l-0.5-0.3c-0.6-1-1-2.1-1.5-3.2
			c-0.2-0.4-0.5-0.9-0.7-1.3c0-0.1,0-0.1,0-0.2l-2.2-1.3c-0.1,0-0.2-0.1-0.3-0.2c0-0.1-0.1-0.1-0.1-0.2c0,0,0-0.1,0.1-0.1
			c0.1-0.1,0.3-0.1,0.4-0.1l0,0l3.3-1.9l8.6,5.2l0.1,0V49c0,0.5,0,0.9,0,1.4l0.3,0.3l0.6-0.4L42.8,46.5L42.8,46.5z"/>
		<path class="st12" d="M35.7,49.4c0.5-0.1,1-0.2,1.5-0.3l1.2-0.3l0.8,0.5c-0.9,0.1-1.8,0.3-2.7,0.5c-0.4,0.1-0.8,0.2-1.2,0.2
			L35.7,49.4z"/>
		<path class="st7" d="M36.8,47.9l1.6,1l-1.2,0.3c-0.5,0.1-1,0.3-1.5,0.3L36.8,47.9z"/>
		<path class="st14" d="M55.2,41.9c0,0.4-0.1,0.9,0.1,1.2c-0.2,0.1-0.5,0.3-0.7,0.4c-0.6,0.3-1.3,0.7-1.8,1.1l-1,0.6
			c-0.2,0.1-0.3,0.2-0.5,0.3L51,46.8l-1.8,0.6c-0.3,0.1-0.8,0.3-1.1,0.3c-0.1,0-0.1,0-0.2-0.1l-5.7,3.6l-3-1.9l-0.8-0.5l-1.6-1
			l-1.1,1.6L35.3,50l-0.2,0.2l-0.4-0.2L34.7,50l-0.5-0.3c-0.6-1-1-2.1-1.5-3.2c-0.2-0.4-0.5-0.9-0.7-1.3c0-0.1,0-0.1,0-0.2l-2.2-1.3
			c-0.1,0-0.2-0.1-0.3-0.2c0-0.1-0.1-0.1-0.1-0.2c0,0,0-0.1,0.1-0.1c0.1-0.1,0.3-0.1,0.4-0.1c0.3,0.2,0.7,0.4,1,0.6l2.9,1.7l8,4.8
			v-3.9l0.1,0v2.6c0,0.5,0,0.9,0,1.4l0.3,0.3l0.6-0.4v-3.8h0l0,3.7l12.1-7.5l0.1-0.1c0.1,0,0.1,0,0.2,0L55.2,41.9z"/>
		<path class="st11" d="M47.9,47.6l3.4-2.1L51,46.8l-1.8,0.6c-0.3,0.1-0.8,0.3-1.1,0.3C48,47.7,48,47.7,47.9,47.6z"/>
		<path class="st7" d="M34.2,49.7c-0.6-1-1-2.1-1.5-3.2c-0.2-0.4-0.5-0.9-0.7-1.3c0-0.1,0-0.1,0-0.2l0.3,0.2c0.4,0.2,0.7,0.4,1,0.6
			l3.1,1.9l0.3,0.2l-1.1,1.6l-0.4,0.6l-0.2,0.2l-0.4-0.2l-0.1-0.1L34.2,49.7z"/>
		<path class="st10" d="M36.5,47.7l0.3,0.2l-1.1,1.6L35.2,50l-0.2,0.2l-0.4-0.2L36.5,47.7z"/>
		<path class="st10" d="M34.2,49.7c-0.6-1-1-2.1-1.5-3.2c-0.2-0.4-0.5-0.9-0.7-1.3c0-0.1,0-0.1,0-0.2l0.3,0.2l1.7,3.4l0.5,1
			c0.1,0.1,0.2,0.3,0.2,0.5L34.2,49.7z"/>
		<path class="st1" d="M42.8,46.5l8.7-5.5l3.4,1.8l0.1,0l-12.1,7.5L42.8,46.5z"/>
		<path class="st1" d="M29.9,43.2L29.9,43.2l3.3-2l8.6,5.2v3.9l-8-4.8l-2.9-1.7C30.6,43.5,30.2,43.4,29.9,43.2z"/>
		
			<linearGradient id="SVGID_00000126316502271031953270000005898428426741087122_" gradientUnits="userSpaceOnUse" x1="42.8038" y1="296.1216" x2="42.8038" y2="252.3933" gradientTransform="matrix(1 0 0 1 0 -239.2676)">
			<stop  offset="0" style="stop-color:#9C3600"/>
			<stop  offset="4.000000e-02" style="stop-color:#A44401"/>
			<stop  offset="0.25" style="stop-color:#CD8909"/>
			<stop  offset="0.4" style="stop-color:#E7B40D"/>
			<stop  offset="0.48" style="stop-color:#F1C40F"/>
			<stop  offset="0.53" style="stop-color:#F2C615"/>
			<stop  offset="0.6" style="stop-color:#F3CC25"/>
			<stop  offset="0.67" style="stop-color:#F7D53F"/>
			<stop  offset="0.75" style="stop-color:#FBE363"/>
			<stop  offset="0.81" style="stop-color:#FFF088"/>
			<stop  offset="1" style="stop-color:#FFF8D6"/>
		</linearGradient>
		<path style="fill:url(#SVGID_00000126316502271031953270000005898428426741087122_);" d="M42.8,13.1L61.7,24v21.8l-18.9,11
			L23.9,45.9V24L42.8,13.1z"/>
		<path class="st18" d="M42.8,15.2v19.4L26,24.9L42.8,15.2z"/>
		<path class="st19" d="M42.8,34.6L26,44.3V24.9L42.8,34.6z"/>
		<path class="st20" d="M42.8,34.6V54L26,44.3L42.8,34.6z"/>
		<path class="st21" d="M42.8,15.2l16.8,9.7l-16.8,9.7V15.2z"/>
		<path class="st22" d="M42.8,34.6l16.8,9.7L42.8,54V34.6z"/>
		<path class="st20" d="M42.8,34.6l16.8-9.7v19.4L42.8,34.6z"/>
		<path class="st23" d="M42.7,13.8l0.9,0.5L60,23.8l0.9,0.5v21L60,45.8l-16.3,9.4l-0.9,0.5l-0.9-0.5l-16.3-9.4l-0.9-0.5v-21l0.9-0.5
			l16.3-9.4L42.7,13.8z M42.7,12.8c-0.2,0-0.4,0.1-0.6,0.1l-0.9,0.5L25,22.9l-0.9,0.5c-0.2,0.1-0.3,0.2-0.4,0.4
			c-0.1,0.2-0.2,0.4-0.2,0.5v21c0,0.2,0.1,0.4,0.1,0.6c0.1,0.2,0.2,0.3,0.4,0.4l0.9,0.5l16.3,9.4l0.9,0.5c0.2,0.1,0.4,0.1,0.6,0.1
			c0.2,0,0.4-0.1,0.6-0.1l0.9-0.5l16.4-9.4l0.9-0.5c0.2-0.1,0.3-0.2,0.4-0.4c0.1-0.2,0.1-0.4,0.1-0.6V24.3c0-0.2-0.1-0.4-0.1-0.6
			c-0.1-0.2-0.2-0.3-0.4-0.4l-0.9-0.5l-16.3-9.4l-0.9-0.5C43.1,12.8,42.9,12.8,42.7,12.8L42.7,12.8z"/>
		<path class="st23" d="M42.9,16.2l0.8,0.5l14.6,8.5l0.8,0.5v18.8l-0.8,0.5l-14.6,8.4l-0.8,0.5l-0.8-0.5l-14.6-8.4l-0.8-0.5V25.6
			l0.8-0.5l14.6-8.4L42.9,16.2z M42.9,15.2c-0.2,0-0.3,0-0.5,0.1l-0.8,0.5l-14.6,8.5l-0.8,0.5c-0.2,0.1-0.3,0.2-0.4,0.4
			c-0.1,0.2-0.1,0.3-0.1,0.5v18.8c0,0.2,0,0.3,0.1,0.5c0.1,0.2,0.2,0.3,0.4,0.4l0.8,0.5l14.6,8.4l0.8,0.5c0.2,0.1,0.3,0.1,0.5,0.1
			s0.3,0,0.5-0.1l0.8-0.5l14.7-8.4l0.8-0.5c0.2-0.1,0.3-0.2,0.4-0.4c0.1-0.2,0.1-0.3,0.1-0.5V25.6c0-0.2,0-0.3-0.1-0.5
			c-0.1-0.2-0.2-0.3-0.4-0.4l-0.8-0.5l-14.6-8.4l-0.8-0.5C43.2,15.3,43,15.2,42.9,15.2L42.9,15.2z"/>
		
			<linearGradient id="SVGID_00000103240832520125933720000017141753942899115910_" gradientUnits="userSpaceOnUse" x1="42.7384" y1="288.0104" x2="42.7384" y2="266.8495" gradientTransform="matrix(1 0 0 1 0 -239.2676)">
			<stop  offset="0" style="stop-color:#9C3600"/>
			<stop  offset="4.000000e-02" style="stop-color:#A44401"/>
			<stop  offset="0.25" style="stop-color:#CD8909"/>
			<stop  offset="0.4" style="stop-color:#E7B40D"/>
			<stop  offset="0.48" style="stop-color:#F1C40F"/>
			<stop  offset="0.53" style="stop-color:#F2C615"/>
			<stop  offset="0.6" style="stop-color:#F3CC25"/>
			<stop  offset="0.67" style="stop-color:#F7D53F"/>
			<stop  offset="0.75" style="stop-color:#FBE363"/>
			<stop  offset="0.81" style="stop-color:#FFF088"/>
			<stop  offset="1" style="stop-color:#FFF8D6"/>
		</linearGradient>
		<path style="fill-rule:evenodd;clip-rule:evenodd;fill:url(#SVGID_00000103240832520125933720000017141753942899115910_);" d="
			M53.5,27.6L42.7,48.7L32,27.6H53.5z M41.9,29.4v13.8l-6.3-13.8H41.9z M43.6,29.4v13.8L50,29.4C50,29.4,43.6,29.4,43.6,29.4z"/>
		<path class="st2" d="M42.7,49.7c-0.4,0-0.7-0.2-0.9-0.5L31.1,28c-0.2-0.3-0.1-0.7,0-0.9c0.2-0.3,0.5-0.5,0.9-0.5h21.5
			c0.3,0,0.7,0.2,0.9,0.5c0.2,0.3,0.2,0.7,0,0.9L43.6,49.2C43.5,49.5,43.1,49.7,42.7,49.7z M42.7,48.7l10.8-21.2H32L42.7,48.7z
			 M40.9,38.7v-8.3H37L40.9,38.7z M35.5,29.4h6.3v13.8L35.5,29.4z M43.6,43.2V29.4H50L43.6,43.2z M44.6,38.7l3.8-8.3h-3.8V38.7z"/>
		
			<linearGradient id="SVGID_00000012450135564966495490000013356933074564450222_" gradientUnits="userSpaceOnUse" x1="23.7033" y1="309.9237" x2="23.7033" y2="276.9884" gradientTransform="matrix(1 0 0 1 0 -239.2676)">
			<stop  offset="0" style="stop-color:#9C3600"/>
			<stop  offset="4.000000e-02" style="stop-color:#A44401"/>
			<stop  offset="0.25" style="stop-color:#CD8909"/>
			<stop  offset="0.4" style="stop-color:#E7B40D"/>
			<stop  offset="0.48" style="stop-color:#F1C40F"/>
			<stop  offset="0.53" style="stop-color:#F2C615"/>
			<stop  offset="0.6" style="stop-color:#F3CC25"/>
			<stop  offset="0.67" style="stop-color:#F7D53F"/>
			<stop  offset="0.75" style="stop-color:#FBE363"/>
			<stop  offset="0.81" style="stop-color:#FFF088"/>
			<stop  offset="1" style="stop-color:#FFF8D6"/>
		</linearGradient>
		<path style="fill:url(#SVGID_00000012450135564966495490000013356933074564450222_);" d="M23.7,37.7L38,46v16.5l-14.3,8.2
			L9.4,62.4V46L23.7,37.7z"/>
		<path class="st26" d="M23.7,39.3v14.6L11,46.6L23.7,39.3z"/>
		<path class="st27" d="M23.7,53.9L11,61.2V46.6L23.7,53.9z"/>
		<path class="st28" d="M23.7,53.9v14.6L11,61.2L23.7,53.9z"/>
		<path class="st29" d="M23.7,39.3l12.7,7.3l-12.7,7.3V39.3z"/>
		<path class="st30" d="M23.7,53.9l12.7,7.3l-12.7,7.3C23.7,68.5,23.7,53.9,23.7,53.9z"/>
		<path class="st31" d="M23.7,53.9l12.7-7.3v14.6L23.7,53.9z"/>
		<path class="st23" d="M23.7,38.3l0.7,0.4l12.3,7.1l0.7,0.4v15.8l-0.7,0.4l-12.3,7.1l-0.7,0.4L23,69.4l-12.3-7.1L10,61.9V46.2
			l0.7-0.4L23,38.7L23.7,38.3z M23.7,37.5c-0.1,0-0.3,0-0.4,0.1l-0.7,0.4L10.3,45l-0.7,0.4c-0.1,0.1-0.2,0.2-0.3,0.3
			c-0.1,0.1-0.1,0.3-0.1,0.4v15.8c0,0.1,0,0.3,0.1,0.4c0.1,0.1,0.2,0.2,0.3,0.3l0.7,0.4l12.3,7.1l0.7,0.4c0.1,0.1,0.3,0.1,0.4,0.1
			c0.1,0,0.3,0,0.4-0.1l0.7-0.4L37.1,63l0.7-0.4c0.1-0.1,0.2-0.2,0.3-0.3c0.1-0.1,0.1-0.3,0.1-0.4V46.2c0-0.1,0-0.3-0.1-0.4
			c-0.1-0.1-0.2-0.2-0.3-0.3L37.1,45l-12.3-7.1l-0.7-0.4C24,37.5,23.8,37.5,23.7,37.5L23.7,37.5z"/>
		<path class="st23" d="M23.7,40l0.6,0.4l11,6.4l0.6,0.4v14.1l-0.6,0.4l-11,6.3l-0.6,0.4L23.1,68l-11-6.4l-0.6-0.4V47.1l0.6-0.4
			l11-6.4L23.7,40z M23.7,39.3c-0.1,0-0.3,0-0.4,0.1l-0.6,0.4l-11,6.4l-0.6,0.4c-0.1,0.1-0.2,0.2-0.3,0.3c-0.1,0.1-0.1,0.2-0.1,0.4
			v14.1c0,0.1,0,0.3,0.1,0.4c0.1,0.1,0.2,0.2,0.3,0.3l0.6,0.4l11,6.4l0.6,0.4c0.1,0.1,0.2,0.1,0.4,0.1c0.1,0,0.3,0,0.4-0.1l0.6-0.4
			l11-6.3l0.6-0.4c0.1-0.1,0.2-0.2,0.3-0.3c0.1-0.1,0.1-0.2,0.1-0.4V47.2c0-0.1,0-0.3-0.1-0.4c-0.1-0.1-0.2-0.2-0.3-0.3l-0.6-0.4
			l-11-6.4l-0.6-0.4C24,39.4,23.9,39.3,23.7,39.3L23.7,39.3z"/>
		
			<linearGradient id="SVGID_00000075158520729589481490000013529190852626457260_" gradientUnits="userSpaceOnUse" x1="62.1987" y1="309.9237" x2="62.1987" y2="276.9884" gradientTransform="matrix(1 0 0 1 0 -239.2676)">
			<stop  offset="0" style="stop-color:#9C3600"/>
			<stop  offset="4.000000e-02" style="stop-color:#A44401"/>
			<stop  offset="0.25" style="stop-color:#CD8909"/>
			<stop  offset="0.4" style="stop-color:#E7B40D"/>
			<stop  offset="0.48" style="stop-color:#F1C40F"/>
			<stop  offset="0.53" style="stop-color:#F2C615"/>
			<stop  offset="0.6" style="stop-color:#F3CC25"/>
			<stop  offset="0.67" style="stop-color:#F7D53F"/>
			<stop  offset="0.75" style="stop-color:#FBE363"/>
			<stop  offset="0.81" style="stop-color:#FFF088"/>
			<stop  offset="1" style="stop-color:#FFF8D6"/>
		</linearGradient>
		<path style="fill:url(#SVGID_00000075158520729589481490000013529190852626457260_);" d="M62.2,37.7L76.5,46v16.5l-14.3,8.2
			l-14.3-8.2V46L62.2,37.7z"/>
		<path class="st33" d="M62.2,39.3v14.6l-12.7-7.3L62.2,39.3z"/>
		<path class="st34" d="M62.2,53.9l-12.7,7.3V46.6L62.2,53.9z"/>
		<path class="st35" d="M62.2,53.9v14.6l-12.7-7.3L62.2,53.9z"/>
		<path class="st36" d="M62.2,39.3l12.7,7.3l-12.7,7.3V39.3z"/>
		<path class="st37" d="M62.2,53.9l12.7,7.3l-12.7,7.3V53.9z"/>
		<path class="st38" d="M62.2,53.9l12.7-7.3v14.6L62.2,53.9z"/>
		<path class="st39" d="M68.4,47.4c0.1,0.1,0.2,0.2,0.3,0.3l0.4,0.5l2,2.5c0.1,0.2,0.3,0.4,0.4,0.6v0l0,0.1l-2-1.1l-0.8-0.5
			c-0.1-0.1-0.3-0.2-0.4-0.2L68.4,47.4z"/>
		<path class="st40" d="M62.2,46.3l3,1.2l-0.9,0.8c-0.2,0.2-0.3,0.4-0.5,0.5c-0.2,0.1-0.4,0.1-0.6,0.1h-0.1l-3-0.2l-0.9-0.9
			L62.2,46.3z"/>
		<path class="st40" d="M55.8,49.6v0.6l-1.1,2.8l-0.2,1.3l-0.3,1.3c0,0.1-0.1,0.4-0.1,0.5c0,0,0,0,0,0.1l0.4,0.7l0.9,1.9l0.6,1.3
			c0.1,0.2,0.2,0.4,0.3,0.6l0,0.1l-2,3.1c-0.2,0-1.3,0.1-1.4,0.2l0,0l0-1.6v0L53,57l0-3.7v-1.1c0-0.2,0-0.5,0-0.7v0L55.8,49.6z"/>
		<path class="st40" d="M68.3,49.6c0.1,0.1,0.3,0.1,0.4,0.2l0.8,0.5l2,1.1l0.1,0.1v0c0,0.2,0,0.5,0,0.7v1.1v3.5v5.5v0.5v1V64l0,0.2
			l-1.3-1.5c-0.1-0.3-0.1-0.5-0.1-0.8l-0.2-1.1l-0.7-4.9c0-0.1,0-0.1,0-0.1c-0.1-0.3-0.1-0.6-0.2-0.8l-0.4-1.6l-0.3-1.3
			c0-0.2-0.1-0.4-0.1-0.6c0-0.2,0-0.5,0-0.7L68.3,49.6z"/>
		<path class="st41" d="M54.4,63.9c0.1,0.1,0.3,0.1,0.4,0.2l0.6,0.4l1.7,1l5,3.2c-0.1,0-0.2-0.1-0.3-0.1l-0.7-0.3l-1.6-0.8l-4.1-2
			L53,64.1C53.1,64,54.2,63.9,54.4,63.9z"/>
		<path class="st2" d="M54.4,63.2c0.1,0,0.2,0,0.2,0c0.2,0.1,0.4,0.2,0.5,0.2c0,0,0,0,0,0l0.6,0.4l1.7,1c0,0,0,0,0,0l5,3.2
			c0.3,0.2,0.4,0.5,0.3,0.8c-0.1,0.3-0.4,0.5-0.7,0.4c-0.2,0-0.4-0.1-0.5-0.2h0c0,0,0,0,0,0l-0.7-0.3L55.1,66l0,0l-2.5-1.3
			c-0.2-0.1-0.3-0.3-0.4-0.5c0-0.2,0.1-0.4,0.2-0.6c0.1-0.1,0.3-0.2,0.3-0.2c0.1,0,0.2,0,0.2-0.1c0.2,0,0.3-0.1,0.5-0.1
			C53.9,63.3,54.3,63.2,54.4,63.2z M57.1,65.5l-1.7-1l-0.6-0.4c0,0-0.1,0-0.1-0.1c-0.1-0.1-0.2-0.1-0.3-0.2c-0.1,0-0.2,0-0.4,0
			c-0.4,0-1,0.1-1.1,0.2l2.5,1.3l4.1,2l1.6,0.8l0.7,0.3c0,0,0,0,0.1,0c0.1,0,0.2,0.1,0.3,0.1L57.1,65.5z M53.3,64.7L53.3,64.7
			L53.3,64.7z"/>
		<path class="st42" d="M55.8,49.6l-0.2-5l3.6,3.3l1,0.7h4l1.1-1.1c0.2-0.2,0.4-0.4,0.6-0.6l1.3-1.2c0.2-0.2,0.4-0.3,0.6-0.5
			c0.2-0.2,0.3-0.3,0.5-0.4c0.1,0,0.1,0,0.1,0.1c0,0.2,0,0.5,0,0.7v1.3c0,0.2,0,0.4,0,0.6l-0.1,2.2l0,1c0,0.2,0,0.5,0,0.7
			c0,0.2,0.1,0.4,0.1,0.6l0.3,1.3l0.4,1.6c0.1,0.3,0.1,0.6,0.2,0.8c-0.4-0.2-0.9-0.6-1.2-0.8L66,53.5l-2.9,1.7l-2.3-0.7L60,51.6
			c0-0.2-0.2-0.5-0.3-0.6c-0.3-0.5-0.6-0.9-0.9-1.3l-0.4-0.4c0,0-0.1-0.1-0.2-0.2c0-0.1,0-0.2,0-0.3c-0.2,0-0.5,0.2-0.7,0.3
			c0,0-0.1,0-0.1,0c-0.1,0.1-0.2,0.2-0.4,0.2l-1.3,0.8L55.8,49.6z"/>
		<path class="st2" d="M55.8,50.2v-0.6l-0.2-5l3.6,3.3l1,0.7h4l1.1-1.1c0.2-0.1,0.3-0.3,0.5-0.4c0.1-0.1,0.1-0.1,0.2-0.2l1.3-1.2
			c0.2-0.2,0.4-0.3,0.6-0.5l0,0c0,0,0,0,0.1-0.1C67.9,45.1,68,45,68,45c0.1-0.1,0.2-0.1,0.3-0.2c0.1,0,0.1,0,0.1,0.1l0,0
			c0,0.1,0,0.2,0,0.3c0,0.1,0,0.1,0,0.2c0,0,0,0.1,0,0.1s0,0,0,0.1v1.3c0,0.1,0,0.2,0,0.2c0,0.1,0,0.3,0,0.4l-0.1,2.2l0,1
			c0,0.1,0,0.1,0,0.2c0,0.2,0,0.3,0,0.5c0,0.1,0,0.3,0.1,0.4c0,0.1,0,0.1,0,0.2l0.3,1.3l0.4,1.6c0,0.1,0,0.2,0,0.2
			c0,0.2,0.1,0.4,0.1,0.6c-0.3-0.1-0.5-0.3-0.8-0.5c0,0-0.1-0.1-0.1-0.1c-0.1-0.1-0.2-0.2-0.4-0.2L66,53.6l-2.9,1.7l-2.3-0.7
			L60,51.7c0-0.2-0.1-0.4-0.2-0.6c0,0,0,0,0,0c-0.3-0.5-0.6-0.9-0.9-1.3l-0.4-0.4c0,0,0,0,0,0c0,0,0,0,0,0c0-0.1-0.1-0.1-0.1-0.2
			c0,0,0-0.1,0-0.2c0,0,0-0.1,0-0.1c-0.2,0-0.5,0.2-0.7,0.3h0l0,0c0,0-0.1,0-0.1,0l0,0c-0.1,0-0.2,0.1-0.2,0.1c0,0-0.1,0.1-0.1,0.1
			L55.8,50.2z M57.5,50l-1.3,0.8c-0.2,0.1-0.5,0.1-0.7,0c-0.2-0.1-0.3-0.3-0.3-0.6v-0.6l-0.2-4.9c0-0.3,0.1-0.5,0.4-0.6
			c0.2-0.1,0.5-0.1,0.7,0.1l3.5,3.3l0.8,0.5h3.5l0.9-0.9c0,0,0,0,0.1-0.1c0.1-0.1,0.2-0.2,0.4-0.3c0.1-0.1,0.1-0.1,0.2-0.2l0,0
			l1.3-1.2l0,0c0.2-0.1,0.3-0.3,0.5-0.5l0,0c0.1-0.1,0.4-0.4,0.7-0.5c0.1,0,0.2,0,0.3,0l0,0c0,0,0,0,0.1,0c0,0,0.1,0,0.2,0.1
			c0.1,0.1,0.1,0.1,0.2,0.1c0,0,0,0,0,0.1l0,0c0.1,0.1,0.1,0.2,0.1,0.3c0,0.2,0,0.4,0,0.5c0,0.1,0,0.1,0,0.2l0,0c0,0.1,0,0.1,0,0.1
			l0,0v1.3l0,0c0,0.1,0,0.2,0,0.3c0,0.1,0,0.2,0,0.3c0,0,0,0,0,0.1L69,49.7l0,0l0,1l0,0c0,0.1,0,0.2,0,0.2c0,0.1,0,0.2,0,0.4
			c0,0.1,0,0.1,0,0.2c0,0.1,0,0.1,0.1,0.2l0.3,1.3l0.4,1.6l0,0c0,0.1,0,0.2,0.1,0.3c0,0.2,0.1,0.3,0.1,0.5c0.1,0.3,0,0.5-0.2,0.7
			c-0.2,0.2-0.5,0.2-0.7,0.1c-0.4-0.2-0.7-0.4-1-0.7c-0.1-0.1-0.2-0.1-0.3-0.2l-1.6-1l-2.5,1.5C63.4,56,63.2,56,63,56l-2.3-0.7
			c-0.2-0.1-0.4-0.2-0.4-0.4l-0.9-2.9c0-0.1,0-0.1,0-0.2c0,0,0,0,0,0c0,0,0-0.1-0.1-0.1c0,0,0,0,0-0.1l0,0c0,0,0,0,0-0.1
			c-0.3-0.4-0.6-0.9-0.9-1.2L58,49.8l0,0l0,0c-0.1,0-0.1,0.1-0.2,0.1c0,0,0,0-0.1,0c0,0,0,0,0,0C57.6,49.9,57.5,49.9,57.5,50z
			 M59.4,51.7L59.4,51.7L59.4,51.7z"/>
		<path class="st43" d="M62.6,52.5l0.6,0h0.8L63.9,54l-2.3-0.1c0.2-0.2,0.4-0.5,0.5-0.7l0.1-0.2L62.6,52.5z"/>
		<path class="st2" d="M62.1,52.1c0.1-0.2,0.3-0.3,0.6-0.3l0.6,0h0.8c0.2,0,0.4,0.1,0.5,0.2c0.1,0.1,0.2,0.3,0.2,0.5l-0.2,1.5
			c0,0.3-0.3,0.6-0.7,0.6l-2.3-0.1c-0.2,0-0.5-0.2-0.6-0.4c-0.1-0.2-0.1-0.5,0-0.7c0.1-0.1,0.1-0.2,0.2-0.2c0.1-0.2,0.2-0.3,0.3-0.5
			c0,0,0-0.1,0.1-0.1L62.1,52.1z M62.1,53.2C62.1,53.3,62.1,53.3,62.1,53.2c-0.2,0.3-0.3,0.4-0.4,0.6c0,0.1-0.1,0.1-0.1,0.2l2.3,0.1
			l0.2-1.5h-0.8l-0.6,0L62.1,53.2z"/>
		<path class="st44" d="M62.6,52.5l0.6,0h0c0.1,0,0.3,0,0.4,0c-0.1,0.2-0.3,0.3-0.4,0.5c-0.1,0.2-0.3,0.4-0.5,0.5
			c-0.2-0.1-0.3-0.3-0.5-0.4L62.3,53L62.6,52.5z"/>
		<path class="st2" d="M62.1,52.1c0.1-0.2,0.3-0.3,0.6-0.3l0.6,0c0.1,0,0.1,0,0.2,0l0,0c0,0,0.1,0,0.1,0l0,0c0,0,0.1,0,0.1,0
			c0.2,0,0.5,0.1,0.6,0.4c0.1,0.2,0.1,0.5,0,0.7c-0.1,0.2-0.3,0.4-0.4,0.5c0,0,0,0-0.1,0.1l0,0c-0.1,0.2-0.3,0.4-0.6,0.6
			s-0.6,0.2-0.8,0c-0.2-0.2-0.4-0.3-0.5-0.5l-0.1-0.1c-0.2-0.2-0.3-0.6-0.1-0.9L62.1,52.1z M62.4,53.1c0.1,0.2,0.3,0.3,0.5,0.4
			c0.1-0.1,0.2-0.2,0.4-0.3l0,0c0,0,0-0.1,0.1-0.1c0,0,0,0,0,0l0,0c0,0,0,0,0.1-0.1c0.1-0.1,0.2-0.3,0.3-0.4c0,0-0.1,0-0.1,0
			c-0.1,0-0.2,0-0.3,0h0l-0.6,0L62.4,53.1L62.4,53.1z"/>
		<path class="st5" d="M62.7,52.8c0.1,0,0.2,0,0.2,0.1c0.1,0,0.1,0.1,0.1,0.2s-0.1,0.1-0.1,0.2c-0.1,0-0.2,0-0.2-0.1
			c0,0-0.1-0.1-0.1-0.2C62.6,52.8,62.6,52.8,62.7,52.8z"/>
		<path class="st2" d="M62.2,52.3c0.1-0.1,0.3-0.2,0.5-0.2c0,0,0,0,0,0l0,0h0c0,0,0.1,0,0.1,0c0.1,0,0.3,0.1,0.5,0.2 M63.6,53
			L63.6,53c0,0.2-0.1,0.4-0.2,0.5c-0.1,0.1-0.1,0.1-0.2,0.2l0,0c-0.1,0.1-0.3,0.2-0.4,0.2c-0.1,0-0.4,0-0.7-0.2l0,0
			c-0.1-0.1-0.2-0.3-0.2-0.4c0-0.1-0.1-0.2,0-0.3l0,0c0-0.2,0.1-0.3,0.2-0.5c0,0,0.1-0.1,0.1-0.1l0,0l0,0l0,0 M62.7,53.4v-0.3
			c0.1,0,0.1,0,0.2,0l0,0c0,0,0.1-0.1,0.1-0.1l0.2,0.2l0,0c0,0,0-0.1,0.1-0.1c0,0,0-0.1,0-0.1l0,0v0H63l0,0h0.3c0-0.1,0-0.1,0-0.2
			c0,0,0-0.1-0.1-0.2l-0.2,0.2l0.2-0.2c0,0,0,0,0,0l-0.2,0.2l0,0l0.2-0.2c-0.1-0.1-0.1-0.1-0.2-0.1c0,0-0.1,0-0.1,0v0.3
			c0,0-0.1,0-0.1,0h0l0,0c0,0-0.1,0.1-0.1,0.1l-0.2-0.2l0,0c0,0,0,0.1-0.1,0.1c0,0,0,0.1,0,0.1l0,0v0l0.3,0l0,0l-0.3,0l0,0
			c0,0,0,0.1,0,0.2c0,0.1,0.1,0.2,0.1,0.2l0,0l0,0l0,0l0,0C62.5,53.4,62.6,53.4,62.7,53.4z M63.6,53c0-0.1,0-0.2,0-0.3L63.6,53z
			 M63.6,52.7c0-0.1-0.1-0.3-0.2-0.4L63.6,52.7z"/>
		<path class="st45" d="M58.3,48.8l-2.7-4.2c0.2,0.1,0.4,0.3,0.5,0.4l1,0.9l2.2,2l0.9,0.9l-1.2,0C58.7,48.7,58.4,48.7,58.3,48.8z"/>
		<path class="st2" d="M58.5,49.4c-0.3,0.1-0.6,0-0.8-0.3L55,45c-0.2-0.3-0.1-0.6,0.1-0.8c0.2-0.2,0.5-0.3,0.8-0.1
			c0.2,0.1,0.5,0.3,0.6,0.4c0,0,0,0,0.1,0.1c0,0,0,0,0,0l1,0.9l0,0l2.2,2l0,0l0.9,0.9c0.2,0.2,0.3,0.5,0.2,0.7
			c-0.1,0.3-0.3,0.4-0.6,0.4l-1.2,0l0,0c-0.1,0-0.1,0-0.2,0l0,0c-0.1,0-0.1,0-0.1,0C58.6,49.4,58.5,49.4,58.5,49.4L58.5,49.4z
			 M58.9,48.7l1.2,0l-0.9-0.9l-2.2-2L56,45c0,0-0.1,0-0.1-0.1c-0.1-0.1-0.3-0.2-0.5-0.3l2.7,4.2c0.1,0,0.3,0,0.5,0
			C58.8,48.7,58.9,48.7,58.9,48.7z"/>
		<path class="st5" d="M55.8,49.6l-0.2-4.7l1.9,4.3c-0.1,0.1-0.2,0.2-0.4,0.2l-1.3,0.8L55.8,49.6z"/>
		<path class="st2" d="M55.8,50.2v-0.6l-0.2-4.7l1.9,4.3c-0.1,0-0.2,0.1-0.2,0.1c0,0-0.1,0.1-0.1,0.1L55.8,50.2z M57.5,50
			c0.1,0,0.1-0.1,0.2-0.1c0,0,0,0,0,0c0.1,0,0.1,0,0.1-0.1c0.3-0.1,0.5-0.5,0.3-0.9l-1.9-4.3c-0.1-0.3-0.4-0.5-0.8-0.4
			c-0.3,0.1-0.5,0.4-0.5,0.7l0.2,4.7v0.6c0,0.2,0.1,0.5,0.3,0.6c0.2,0.1,0.5,0.1,0.7,0L57.5,50z"/>
		<path class="st46" d="M63.2,48.9L63.2,48.9l-0.6,3.6L62.3,53l-0.1,0.2l0,0l0,0c-0.4-0.4-0.8-0.7-1.2-1L60,51.6
			c0.9-0.6,1.6-1.3,2.4-2l0.4-0.4C63,49.1,63,49,63.2,48.9C63.2,49,63.2,48.9,63.2,48.9z"/>
		<path class="st2" d="M62.6,48.7c0.1-0.3,0.4-0.4,0.7-0.4h0.1c0.2,0,0.4,0.1,0.5,0.3c0.1,0.1,0.2,0.3,0.1,0.5l-0.7,3.6
			c0,0.1-0.1,0.2-0.1,0.3l-0.5,0.7c-0.1,0.2-0.3,0.3-0.6,0.3c-0.2,0-0.4-0.1-0.5-0.3l0,0c-0.3-0.3-0.6-0.5-0.9-0.8
			c-0.1,0-0.1-0.1-0.2-0.1l0,0l-0.8-0.6c-0.2-0.1-0.3-0.3-0.3-0.5s0.1-0.4,0.3-0.5c0.7-0.5,1.2-1,1.9-1.5c0.2-0.1,0.3-0.3,0.5-0.4
			l0,0L62.6,48.7C62.5,48.7,62.6,48.7,62.6,48.7L62.6,48.7z M63,49.2l-0.4,0.4l0,0c-0.2,0.1-0.3,0.3-0.5,0.4
			c-0.5,0.4-0.9,0.8-1.4,1.2c-0.2,0.1-0.4,0.3-0.6,0.4l0.8,0.6c0.1,0,0.1,0.1,0.2,0.1c0.2,0.2,0.4,0.3,0.6,0.5
			c0.2,0.1,0.3,0.3,0.4,0.4l0,0l0,0l0.5-0.7l0.7-3.6h-0.1c0,0,0,0,0,0c0,0,0,0.1,0,0.1c0,0.1-0.1,0.1-0.2,0.2
			C63,49.2,63,49.2,63,49.2z"/>
		<path class="st46" d="M68.1,45.1l-0.5,6.6l-1.6-1.2l-1.3-1L68.1,45.1z"/>
		<path class="st2" d="M68.3,44.5c0.3,0.1,0.4,0.4,0.4,0.7l-0.5,6.6c0,0.2-0.2,0.5-0.4,0.6c-0.2,0.1-0.5,0.1-0.7-0.1L65.5,51l0,0
			l-1.3-1C64.1,50,64,49.8,64,49.6c0-0.2,0-0.4,0.1-0.5l3.5-4.4C67.7,44.5,68,44.4,68.3,44.5z M65.9,50.5l1.6,1.2l0.5-6.6l-3.5,4.4
			L65.9,50.5z"/>
		<path class="st5" d="M57.5,49.2C57.5,49.2,57.6,49.1,57.5,49.2c0.3-0.2,0.6-0.3,0.8-0.4c0,0.1,0,0.2,0,0.3c0,0.1,0.1,0.2,0.2,0.2
			l0.4,0.4c0.4,0.4,0.7,0.9,0.9,1.3c0.1,0.2,0.3,0.4,0.3,0.6l0.9,2.9l2.3,0.7l2.9-1.7l1.9,1.3c0.4,0.3,0.8,0.6,1.2,0.8L69,54.8
			l1.2,7.8l1,1.2l0.2,0.1c0,0.1,0,0.2-0.1,0.3c-0.1,0.1-0.2,0.2-0.4,0.2l-8.6,4.1h0h-0.1c0,0,0,0.1-0.1,0.1l-0.1-0.1l-5-3.2l-1.7-1
			l-0.6-0.4c-0.1-0.1-0.4-0.2-0.4-0.2l2-3.1l-2.3-4.6l0.5-3l1.1-2.9l1.3-0.8C57.3,49.3,57.4,49.2,57.5,49.2z"/>
		<path class="st2" d="M57.6,49.1C57.6,49.2,57.5,49.2,57.6,49.1L57.6,49.1c-0.2,0.1-0.3,0.1-0.3,0.2c0,0-0.1,0.1-0.1,0.1l-1.3,0.8
			l-1.1,2.9l-0.5,3l2.3,4.6l-2,3.1c0,0,0.3,0.1,0.4,0.2l0.6,0.4l1.7,1l5,3.2l0.1,0.1c0,0,0.1-0.1,0.1-0.1l0,0l0,0h0.1h0l8.6-4.1l0,0
			c0.1,0,0.2-0.1,0.2-0.1c0,0,0.1-0.1,0.1-0.1c0.1-0.1,0.1-0.2,0.1-0.2c0,0,0,0,0-0.1l-0.2-0.1l-1-1.2l-1.1-7.1c0,0,0,0,0.1,0
			L69,54.8l0.1,0.8c-0.3-0.1-0.5-0.3-0.7-0.5c0,0,0,0,0,0c0,0-0.1,0-0.1-0.1c-0.1-0.1-0.2-0.2-0.4-0.2L66,53.6l-2.9,1.7l-2.3-0.7
			L60,51.7c0-0.2-0.1-0.4-0.2-0.6c0,0,0,0,0,0c-0.3-0.5-0.6-0.9-0.9-1.3l-0.4-0.4c0,0,0,0,0,0c0,0,0,0,0,0c0-0.1-0.1-0.1-0.1-0.2
			c0,0,0-0.1,0-0.2c0,0,0-0.1,0-0.1C58,48.9,57.8,49,57.6,49.1C57.6,49.1,57.6,49.1,57.6,49.1L57.6,49.1z M60.3,50.7
			C60.3,50.7,60.3,50.7,60.3,50.7c0.1,0.1,0.2,0.2,0.2,0.3c0.1,0.1,0.1,0.3,0.2,0.5l0.7,2.5l1.7,0.5l2.6-1.6c0.2-0.1,0.5-0.1,0.7,0
			l1.9,1.3c0.1,0,0.1,0.1,0.2,0.1c0.1-0.1,0.2-0.2,0.4-0.2c0.4-0.1,0.7,0.2,0.8,0.5l0.2,0.8c0,0.1,0,0.2,0,0.3l1,6.6l0.9,0.9
			l0.1,0.1c0.2,0.1,0.4,0.3,0.4,0.6c0,0,0,0,0,0v0c0,0,0,0.1,0,0.2c0,0.2-0.1,0.4-0.3,0.6c-0.2,0.2-0.4,0.3-0.6,0.3l-8.6,4.1
			c0,0-0.1,0-0.2,0.1c-0.2,0.1-0.5,0.2-0.7,0l-0.1-0.1l-5-3.2l-1.7-1l-0.6-0.4c-0.1,0-0.1-0.1-0.2-0.1c0,0-0.1,0-0.1-0.1h0l0,0l0,0
			l0,0 M54.1,64.5c-0.2-0.1-0.3-0.2-0.3-0.4c0-0.2,0-0.4,0.1-0.5l1.8-2.7l-2.1-4.3c-0.1-0.1-0.1-0.3-0.1-0.4l0.5-3c0,0,0-0.1,0-0.1
			l1.1-2.9c0.1-0.1,0.1-0.3,0.3-0.3l1.3-0.8l0,0c0,0,0,0,0.1-0.1c0,0,0,0,0.1,0c0.1,0,0.2-0.1,0.3-0.2c0,0,0,0,0.1,0
			c0.1-0.1,0.2-0.1,0.3-0.2c0.1-0.1,0.3-0.2,0.5-0.2c0.2,0,0.4,0,0.6,0.1c0.2,0.1,0.2,0.3,0.2,0.5c0,0,0,0,0,0.1l0.4,0.4l0,0
			c0.4,0.4,0.7,0.9,1,1.4"/>
		<path class="st44" d="M58.2,55.1c0.2,0.2,0.4,0.3,0.6,0.4l1,0.7c-0.1,0.1-0.2,0.2-0.3,0.3l-0.9,1c-0.1,0.1-0.3,0.2-0.4,0.4
			l1.2,0.4l0.6,0.2c0,0,0.1,0.1,0.2,0.1c0.1,0,0.3-0.2,0.4-0.2l1.6-0.9c0.2-0.1,0.5-0.3,0.7-0.4l-1,0.6l-1.4,0.8
			c-0.1,0-0.2,0.2-0.3,0.2c0,0-0.2-0.1-0.2-0.1l-1.3-0.4c-0.1,0-0.3-0.1-0.5-0.1l-1.3,0.4c0.1-0.1,0.3-0.2,0.4-0.3
			c0.3-0.2,0.5-0.3,0.8-0.4c-0.1-0.1-0.2-0.1-0.2-0.2c-0.2-0.2-0.4-0.5-0.6-0.7l-0.7-1L58.2,55.1z"/>
		<path class="st2" d="M57.9,54.5c0.3-0.1,0.6-0.1,0.8,0.1c0,0,0.1,0.1,0.2,0.1c0,0,0.1,0,0.1,0.1c0.1,0,0.2,0.1,0.2,0.1l0,0l1,0.7
			c0.3,0.2,0.4,0.6,0.2,0.9c-0.1,0.1-0.2,0.3-0.2,0.3c0,0-0.1,0.1-0.1,0.1l0,0c0,0,0,0-0.1,0.1c0,0,0,0,0,0l-0.6,0.7l0.3,0.1l0,0
			l0.5,0.2l0,0c0,0,0,0,0.1,0l0,0l1.6-0.9l0,0c0,0,0.1-0.1,0.2-0.1l0,0c0.1,0,0.1-0.1,0.2-0.1c0.1-0.1,0.3-0.2,0.5-0.2
			c0.3-0.1,0.7,0.1,0.8,0.4c0.1,0.3,0,0.7-0.3,0.8l-1,0.6l0,0l0,0l-1.4,0.8l0,0l0,0c0,0,0,0,0,0l0,0c0,0-0.1,0-0.1,0.1
			c0,0-0.1,0-0.1,0.1c0,0-0.1,0-0.1,0c0,0-0.1,0-0.2,0c-0.1,0-0.1,0-0.2,0c0,0-0.1,0-0.1,0c0,0-0.1,0-0.1,0c0,0-0.1,0-0.1,0l0,0
			c0,0,0,0,0,0l-1.3-0.4c0,0-0.1,0-0.1,0s0,0-0.1,0l0,0c0,0,0,0,0,0l-1.2,0.4c-0.3,0.1-0.6,0-0.8-0.3c-0.2-0.3-0.1-0.6,0.1-0.8
			c0.2-0.1,0.4-0.3,0.5-0.3c0,0,0,0,0.1,0c0,0,0,0,0.1,0c-0.1-0.1-0.2-0.2-0.3-0.4l0,0c0,0,0,0,0,0l-0.7-1C56,56.1,56,56,56,55.8
			c0-0.2,0.2-0.3,0.3-0.4L57.9,54.5z M57.7,57.3C57.7,57.4,57.7,57.4,57.7,57.3c0.1,0.1,0.1,0.1,0.1,0.2c0,0,0.1,0.1,0.1,0.1l0,0
			c0,0,0.1,0.1,0.1,0.1c0,0,0.1,0.1,0.1,0.1c-0.2,0.1-0.3,0.2-0.5,0.2c-0.1,0-0.1,0.1-0.2,0.1c0,0-0.1,0.1-0.1,0.1c0,0-0.1,0-0.1,0
			c-0.1,0.1-0.2,0.1-0.3,0.2l0.5-0.2l0.8-0.2c0.1,0,0.2,0,0.3,0.1h0c0,0,0.1,0,0.1,0l1.3,0.4c0,0,0,0,0.1,0c0.1,0,0.1,0,0.2,0l0,0
			c0,0,0,0,0,0c0,0,0.1-0.1,0.2-0.1c0,0,0.1,0,0.1,0l1.4-0.8l1-0.6c-0.2,0-0.4,0.2-0.6,0.3c-0.1,0-0.1,0.1-0.2,0.1l-1.6,0.9
			c0,0,0,0-0.1,0c0,0,0,0-0.1,0l0,0c-0.1,0.1-0.2,0.1-0.2,0.1l0,0l0,0c0,0-0.1,0-0.1,0c0,0,0,0,0,0l0,0l0,0l-0.6-0.2l-1.2-0.4
			c0.1-0.1,0.2-0.2,0.2-0.3c0,0,0,0,0.1-0.1c0,0,0,0,0.1-0.1l0.9-1c0,0,0-0.1,0.1-0.1c0,0,0.1-0.1,0.1-0.1c0,0,0.1-0.1,0.1-0.1
			l-1-0.7c-0.1,0-0.1-0.1-0.2-0.1c-0.1-0.1-0.3-0.2-0.4-0.3l-1.6,0.9l0.7,1C57.5,57.1,57.6,57.2,57.7,57.3z M59.8,59.3L59.8,59.3
			L59.8,59.3z"/>
		<path class="st42" d="M56.4,60.8c0.1,0.2,0.1,0.4,0.1,0.6l0.1,1c0.2,1,0.4,2,0.4,3l-1.7-1l-0.6-0.4c-0.1-0.1-0.3-0.2-0.4-0.2
			L56.4,60.8z"/>
		<path class="st2" d="M56.5,60.2c0.3,0,0.5,0.2,0.5,0.5c0.1,0.2,0.1,0.5,0.1,0.7c0,0,0,0.1,0,0.1l0,0l0.1,1c0,0.2,0.1,0.5,0.1,0.8
			c0.1,0.8,0.3,1.6,0.3,2.3c0,0.2-0.1,0.5-0.3,0.6c-0.2,0.1-0.5,0.1-0.7,0L55,65l-0.6-0.4c-0.1,0-0.1-0.1-0.2-0.1
			c-0.1,0-0.1-0.1-0.1-0.1c-0.2-0.1-0.3-0.2-0.4-0.4c-0.1-0.2,0-0.4,0.1-0.6l2-3C56,60.3,56.3,60.2,56.5,60.2z M56.4,60.8
			c0.1,0.2,0.1,0.4,0.1,0.5c0,0,0,0.1,0,0.1l0.1,1c0,0.3,0.1,0.5,0.1,0.8c0.1,0.5,0.2,1,0.2,1.4c0,0.3,0.1,0.5,0.1,0.8l-1.7-1
			l-0.6-0.4c0,0-0.1,0-0.1-0.1c-0.1-0.1-0.2-0.1-0.3-0.2L56.4,60.8z"/>
		
			<linearGradient id="SVGID_00000083771209136495489730000014758211883247231365_" gradientUnits="userSpaceOnUse" x1="54.9324" y1="290.8082" x2="59.9109" y2="291.3151" gradientTransform="matrix(1 0 0 1 0 -239.2676)">
			<stop  offset="0" style="stop-color:#FFBD03"/>
			<stop  offset="1" style="stop-color:#FEE104"/>
		</linearGradient>
		<path style="fill:url(#SVGID_00000083771209136495489730000014758211883247231365_);" d="M57.5,49.2
			C57.5,49.2,57.6,49.1,57.5,49.2c0.3-0.2,0.6-0.3,0.8-0.4c0,0.1,0,0.2,0,0.3c0,0.1,0.1,0.2,0.2,0.2l0.4,0.4
			c0.4,0.4,0.7,0.9,0.9,1.3c0.1,0.2,0.3,0.4,0.3,0.6c-0.1,0.2-1.3,2.4-1.4,2.5c-0.1,0.1-0.3,0.1-0.5,0.2l-1.5,0.5l-1.9-1.7l1.1-2.8
			l1.3-0.8C57.3,49.3,57.4,49.2,57.5,49.2z"/>
		<path class="st2" d="M57.6,49.1C57.6,49.2,57.5,49.2,57.6,49.1L57.6,49.1c-0.2,0.1-0.3,0.1-0.3,0.2c0,0-0.1,0.1-0.1,0.1l-1.3,0.8
			l-1.1,2.8l1.9,1.7l1.5-0.5c0,0,0.1,0,0.1,0c0.1,0,0.3-0.1,0.3-0.1c0.1,0,0.8-1.3,1.1-2c0.1-0.2,0.2-0.4,0.3-0.5
			c0-0.2-0.1-0.4-0.2-0.6c0,0,0,0,0,0c-0.3-0.5-0.6-0.9-0.9-1.3l-0.4-0.4c0,0,0,0,0,0c0,0,0,0,0,0c0-0.1-0.1-0.1-0.1-0.2
			c0,0,0-0.1,0-0.2c0,0,0-0.1,0-0.1C58,48.8,57.7,49,57.6,49.1C57.6,49.1,57.6,49.1,57.6,49.1L57.6,49.1z M58.9,48.9
			C58.9,48.9,58.9,48.8,58.9,48.9c0-0.3-0.1-0.5-0.2-0.6s-0.4-0.2-0.6-0.1c-0.2,0-0.4,0.1-0.5,0.2c-0.1,0.1-0.2,0.1-0.3,0.2
			c0,0-0.1,0-0.1,0c-0.1,0.1-0.2,0.1-0.3,0.2c0,0-0.1,0-0.1,0c0,0-0.1,0-0.1,0.1l0,0l-1.3,0.8c-0.1,0.1-0.2,0.2-0.3,0.3l-1.1,2.8
			c-0.1,0.3,0,0.6,0.2,0.7l1.9,1.7c0.2,0.2,0.4,0.2,0.7,0.1l1.5-0.5l0,0c0,0,0.1,0,0.1,0c0,0,0.1,0,0.1,0c0.1,0,0.2-0.1,0.4-0.2"/>
		<path class="st44" d="M57.2,52.3c0.2,0.1,0.4,0.2,0.6,0.3h0l0.4,1l-0.7-0.1l-0.7-0.1c-0.1-0.3-0.3-0.6-0.4-0.9L57.2,52.3z"/>
		<path class="st2" d="M56.9,51.7c0.2-0.1,0.5-0.1,0.7,0.1c0.1,0.1,0.2,0.1,0.4,0.2h0c0.2,0.1,0.3,0.2,0.4,0.4l0.4,1
			c0.1,0.2,0,0.5-0.1,0.6c-0.1,0.2-0.4,0.3-0.6,0.3l-0.7-0.1l0,0l-0.7-0.1c-0.3,0-0.5-0.2-0.6-0.5c0-0.1-0.1-0.2-0.1-0.4
			c0,0,0-0.1,0-0.1c-0.1-0.1-0.1-0.3-0.2-0.4c-0.1-0.3,0-0.7,0.3-0.8L56.9,51.7z M57.8,52.6c-0.2-0.1-0.4-0.2-0.6-0.3l-0.7,0.3
			c0,0.1,0.1,0.2,0.2,0.4c0.1,0.2,0.2,0.4,0.2,0.6l0.7,0.1l0.7,0.1L57.8,52.6L57.8,52.6z"/>
		<path class="st5" d="M57.1,52.6c0.1,0,0.1,0,0.2,0.1c0,0.1,0,0.1,0,0.2S57.2,53,57.1,53c-0.1,0-0.2,0-0.2-0.1c0,0,0-0.1,0-0.1
			C56.9,52.7,57,52.6,57.1,52.6z"/>
		<path class="st2" d="M56.7,52c0.1-0.1,0.3-0.1,0.4-0.1l0,0c0.1,0,0.2,0,0.3,0.1c0.1,0.1,0.2,0.1,0.3,0.2c0.1,0.1,0.1,0.2,0.2,0.2
			l0,0c0,0,0,0.1,0.1,0.2c0,0.1,0,0.3-0.1,0.4 M57.4,53.6c-0.1,0.1-0.3,0.1-0.4,0.1c-0.1,0-0.2,0-0.3-0.1c-0.1-0.1-0.2-0.1-0.3-0.2
			c-0.1-0.1-0.1-0.1-0.1-0.2c0-0.1-0.1-0.3,0-0.6 M57,53.2l0-0.3c0,0,0.1,0,0.1,0c0,0,0,0,0,0c0,0,0.1,0,0.1-0.1l0.1,0.2l0,0
			c0,0,0.1-0.1,0.1-0.2l-0.2-0.1l0.2,0.1v0l0,0c0-0.1,0-0.1,0-0.2c0,0,0-0.1,0-0.1l-0.2,0.1c0,0,0,0,0-0.1c0,0-0.1,0-0.1-0.1
			l0.2-0.2l0,0c0,0,0,0-0.1,0c0,0,0,0-0.1,0l0,0.3c0,0-0.1,0-0.1,0c0,0-0.1,0-0.1,0.1l-0.1-0.2c0,0-0.1,0-0.1,0.1
			c0,0-0.1,0.1-0.1,0.1l0,0c0,0,0,0,0,0.1l0.2,0.1l-0.2-0.1v0c0,0,0,0.1,0,0.1c0,0,0,0,0,0l0.2-0.1c0,0,0,0.1,0,0.1
			c0,0,0.1,0.1,0.1,0.1L57,53.2C56.9,53.1,56.9,53.2,57,53.2C56.9,53.2,57,53.2,57,53.2z M56.8,53.2L56.8,53.2L56.8,53.2z
			 M57.2,52.3L57.2,52.3L57.2,52.3z M57.5,52.7L57.5,52.7L57.5,52.7z M57.4,53.6L57.4,53.6L57.4,53.6z M57.5,53.6L57.5,53.6
			L57.5,53.6z M57.5,53.6C57.5,53.6,57.5,53.6,57.5,53.6L57.5,53.6z M57.5,53.6c0,0,0.1,0,0.1-0.1L57.5,53.6z M57.6,53.5
			c0.1-0.1,0.2-0.2,0.3-0.4L57.6,53.5z M56.7,52L56.7,52L56.7,52z M56.7,52c-0.1,0-0.4,0.2-0.5,0.6L56.7,52z"/>
		<path class="st48" d="M54.2,56.2c0.1,0.1,0.2,0.2,0.3,0.3l0.6,0.5l1.3,1.2l0.4,0.4c0.1,0.1,0.2,0.2,0.3,0.3l2.2,0.9l0.6,0.2
			c0,0,0.1,0.1,0.2,0.1c0.1,0,0.3-0.1,0.4-0.1l2.3-0.7l3-0.8l2.4-0.7l-7.7,5.1l-4-2.9l0,0.5c0,0.1,0,0.2,0,0.3
			c-0.1-0.2-0.2-0.4-0.3-0.6l-0.6-1.3l-0.9-1.9L54.2,56.2z"/>
		<path class="st2" d="M53.8,55.7c0.2-0.2,0.5-0.2,0.8-0.1c0.2,0.1,0.4,0.3,0.4,0.3l0,0l0,0l0.6,0.5l1.3,1.2l0,0l0.4,0.4
			c0,0,0,0.1,0.1,0.1l0,0c0,0,0,0,0,0l0,0l2.2,0.9l0.6,0.2h0c0,0,0.1,0,0.1,0l2.3-0.7l3-0.8l2.4-0.7c0.3-0.1,0.7,0.1,0.8,0.4
			c0.1,0.3,0,0.7-0.2,0.8l-7.7,5.1c-0.2,0.2-0.5,0.1-0.8,0l-3.1-2.2c-0.1,0.1-0.2,0.2-0.4,0.2c-0.3,0-0.5-0.1-0.7-0.3
			c-0.1-0.2-0.2-0.4-0.3-0.6c0,0,0-0.1,0-0.1l0,0L54,57.2l-0.4-0.7C53.5,56.2,53.6,55.9,53.8,55.7z M55.5,58.8l0.6,1.3
			c0,0,0,0,0,0.1c0,0,0,0,0,0.1c0,0,0,0.1,0.1,0.1l0,0c0.1,0.1,0.1,0.2,0.2,0.3c0-0.1,0-0.2,0-0.3c0,0,0-0.1,0-0.1l0-0.5l4,2.9
			l7.7-5.1l-2.4,0.7l-3,0.8l-2.3,0.7c0,0-0.1,0-0.1,0c-0.1,0-0.2,0.1-0.2,0.1c0,0-0.1,0-0.1,0c0,0,0,0,0,0l-0.6-0.2l-2.2-0.9
			c-0.1,0-0.2-0.1-0.3-0.2c0,0,0,0-0.1-0.1l-0.4-0.4L55.2,57l-0.6-0.5l0,0c-0.1-0.1-0.2-0.2-0.3-0.2l0.4,0.7L55.5,58.8z"/>
		<path class="st42" d="M68.3,49.6C68.2,49.6,68.4,49.7,68.3,49.6l-0.1,1.7l0.9,4.1l0.1,0.3l0,0.1l1,6.9l0.7,0.8l0.6,0.2V64
			c0,0.1,0,0.2-0.1,0.3c-0.1,0.1-0.2,0.2-0.4,0.2l-8.6,4.2h0h-0.1c0.1-0.2,0.2-0.3,0.2-0.5l0.5-0.8l1.5-2.7l2.7-5.1l1.9-3.8
			c0-0.1,0-0.1,0-0.1c-0.1-0.3-0.1-0.6-0.2-0.8l-0.4-1.6l-0.3-1.3c0-0.2-0.1-0.4-0.1-0.6c0-0.2,0-0.5,0-0.7L68.3,49.6z"/>
		<path class="st2" d="M68.5,55.5L68.5,55.5L68.5,55.5c0-0.1,0-0.2-0.1-0.3L67.9,53L67.7,52l0,0c0,0,0-0.1,0-0.1
			c0-0.1-0.1-0.4-0.1-0.6c0-0.2,0-0.5,0-0.6c0,0,0-0.1,0-0.1l0-0.8c0,0,0-0.1,0-0.1c0,0,0-0.1,0-0.2s0-0.1,0.1-0.2
			c0-0.1,0.1-0.1,0.1-0.2c0-0.1,0.1-0.1,0.1-0.1c0,0,0.1,0,0.1-0.1c0,0,0.1,0,0.1,0c0.1,0,0.1,0,0.1,0s0.1,0,0.1,0c0,0,0,0,0,0
			c0,0,0,0,0.1,0h0h0h0c0,0,0,0,0,0c0,0,0,0,0,0c0,0,0,0,0,0c0,0,0,0,0,0c0,0,0,0,0,0l0,0l0,0c0,0,0,0,0,0.1c0,0,0,0.1,0.1,0.1
			c0,0,0,0.1,0,0.1s0,0.1,0,0.1c0,0.1,0,0.1,0,0.2c0,0,0,0.1,0,0.1l-0.1,1.3l0.3,1.4l0.1,0.4l0.4,1.6l0,0c0,0.1,0,0.2,0.1,0.3v0
			l0,0.2l0.1,0.2v0l0,0c0,0,0,0.1,0,0.2l1,6.7l0.4,0.5l0.5,0.2c0.3,0.1,0.4,0.4,0.4,0.6V64l0,0c0,0,0,0,0,0v0c0,0,0,0.1,0,0.2
			c0,0.2-0.1,0.4-0.3,0.6c-0.2,0.2-0.4,0.3-0.6,0.3l-8.6,4.1c-0.1,0.1-0.3,0.1-0.5,0h0c-0.2,0-0.4-0.1-0.5-0.3
			c-0.1-0.2-0.1-0.4-0.1-0.6c0-0.1,0.1-0.3,0.2-0.4c0,0,0.1-0.1,0.1-0.1l0,0c0,0,0-0.1,0.1-0.1l0,0l0.5-0.8l1.5-2.6l2.7-5.1l1.8-3.6
			C68.5,55.6,68.5,55.6,68.5,55.5z M69.2,55.6l0,0.1l-1.9,3.8l-2.7,5.1l-1.5,2.7l-0.5,0.8c0,0,0,0.1-0.1,0.1v0
			c0,0.1-0.1,0.1-0.1,0.2c0,0.1-0.1,0.1-0.1,0.2h0.1h0l8.6-4.1c0.1-0.1,0.3-0.1,0.4-0.2c0.1-0.1,0.1-0.2,0.1-0.2c0,0,0,0,0-0.1v-0.3
			l-0.6-0.2l-0.7-0.8l-1-6.9C69.2,55.7,69.2,55.7,69.2,55.6L69.2,55.6z M69.1,55.4l0.1,0.3C69.2,55.5,69.1,55.5,69.1,55.4z
			 M69.1,55.4L69,55.1c0,0,0,0,0-0.1c0-0.1,0-0.2,0-0.2l-0.4-1.6l-0.1-0.4l-0.3-1.5l0-0.7l0-1l0.6,0c0-0.1,0-0.1,0-0.2
			c0,0,0-0.1,0-0.1c0,0,0-0.1,0-0.1c0,0,0-0.1-0.1-0.1c0,0,0,0,0-0.1l0,0l0,0c0,0,0,0,0,0l0,0l-0.3,0.6l0.3-0.6l0,0h0h0h0
			c0,0,0,0-0.1,0c0,0-0.1,0-0.1,0s-0.1,0-0.1,0c0,0-0.1,0-0.1,0c0,0-0.1,0.1-0.1,0.1s-0.1,0.1-0.1,0.2c0,0.1-0.1,0.1-0.1,0.2
			c0,0,0,0,0,0.1l0.6,0l0,1c0,0.1,0,0.1,0,0.2c0,0.2,0,0.3,0,0.5c0,0.1,0,0.3,0.1,0.4c0,0.1,0,0.1,0,0.2l0.2,1l0.1,0.4l0.4,1.6
			l0.1,0.3C69.1,55.2,69.1,55.3,69.1,55.4z"/>
		<path class="st41" d="M70.2,62.6l1.3,1.5l0-0.2c0,0.1,0,0.2-0.1,0.3c-0.1,0.1-0.2,0.2-0.4,0.2l-8.6,4.1h0c0-0.1,0.1-0.1,0.2-0.1
			l0.4-0.3l0.9-0.7l2.5-1.9L70.2,62.6z"/>
		<path class="st2" d="M69.8,62.1c0.3-0.2,0.7-0.2,0.9,0.1l1,1.1c0.3,0.1,0.5,0.3,0.5,0.7c0,0,0,0,0,0v0c0,0,0,0.1,0,0.2
			c0,0.2-0.1,0.4-0.3,0.6c-0.2,0.2-0.4,0.3-0.6,0.3l-8.6,4.1c-0.2,0.1-0.4,0.1-0.6,0h0c-0.2-0.1-0.3-0.2-0.4-0.4
			c-0.1-0.2,0-0.4,0.1-0.5c0-0.1,0.1-0.1,0.1-0.2c0,0,0.1-0.1,0.1-0.1c0,0,0.1,0,0.1-0.1h0l0,0l0,0l0.4-0.3l0.9-0.7l2.5-1.9
			L69.8,62.1z M63,69.1L63,69.1L63,69.1L63,69.1z M71.1,64.5c0.1-0.1,0.3-0.1,0.4-0.2c0,0,0.1-0.1,0.1-0.1v0c0,0,0,0,0-0.1
			c0,0,0,0,0-0.1l0,0.2l-1.3-1.5l-3.9,3l-2.5,1.9L63,68.2l-0.4,0.3l0,0c0,0,0,0-0.1,0c0,0,0,0-0.1,0.1c0,0,0,0,0,0h0L71.1,64.5z"/>
		<path class="st41" d="M54.4,63.9c0.1,0.1,0.3,0.1,0.4,0.2l0.6,0.4l1.7,1l5,3.2c-0.1,0-0.2-0.1-0.3-0.1l-0.7-0.3l-1.6-0.8l-4.1-2
			L53,64.1C53.1,64,54.2,63.9,54.4,63.9z"/>
		<path class="st42" d="M55.8,49.6l-0.2-5l3.6,3.3l1,0.7h4l1.1-1.1c0.2-0.2,0.4-0.4,0.6-0.6l1.3-1.2c0.2-0.2,0.4-0.3,0.6-0.5
			c0.2-0.2,0.3-0.3,0.5-0.4c0.1,0,0.1,0,0.1,0.1c0,0.2,0,0.5,0,0.7v1.3c0,0.2,0,0.4,0,0.6l-0.1,2.2l0,1c0,0.2,0,0.5,0,0.7
			c0,0.2,0.1,0.4,0.1,0.6l0.3,1.3l0.4,1.6c0.1,0.3,0.1,0.6,0.2,0.8c-0.4-0.2-0.9-0.6-1.2-0.8L66,53.5l-2.9,1.7l-2.3-0.7L60,51.6
			c0-0.2-0.2-0.5-0.3-0.6c-0.3-0.5-0.6-0.9-0.9-1.3l-0.4-0.4c0,0-0.1-0.1-0.2-0.2c0-0.1,0-0.2,0-0.3c-0.2,0-0.5,0.2-0.7,0.3
			c0,0-0.1,0-0.1,0c-0.1,0.1-0.2,0.2-0.4,0.2l-1.3,0.8L55.8,49.6z"/>
		<path class="st43" d="M62.6,52.5l0.6,0h0.8L63.9,54l-2.3-0.1c0.2-0.2,0.4-0.5,0.5-0.7l0.1-0.2L62.6,52.5z"/>
		<path class="st44" d="M62.6,52.5l0.6,0h0c0.1,0,0.3,0,0.4,0c-0.1,0.2-0.3,0.3-0.4,0.5c-0.1,0.2-0.3,0.4-0.5,0.5
			c-0.2-0.1-0.3-0.3-0.5-0.4L62.3,53L62.6,52.5z"/>
		<path class="st5" d="M62.7,52.8c0.1,0,0.2,0,0.2,0.1c0.1,0,0.1,0.1,0.1,0.2s-0.1,0.1-0.1,0.2c-0.1,0-0.2,0-0.2-0.1
			c0,0-0.1-0.1-0.1-0.2C62.6,52.8,62.6,52.8,62.7,52.8z"/>
		<path class="st45" d="M58.3,48.8l-2.7-4.2c0.2,0.1,0.4,0.3,0.5,0.4l1,0.9l2.2,2l0.9,0.9l-1.2,0C58.7,48.7,58.4,48.7,58.3,48.8z"/>
		<path class="st5" d="M55.8,49.6l-0.2-4.7l1.9,4.3c-0.1,0.1-0.2,0.2-0.4,0.2l-1.3,0.8L55.8,49.6z"/>
		<path class="st46" d="M63.2,48.9L63.2,48.9l-0.6,3.6L62.3,53l-0.1,0.2l0,0l0,0c-0.4-0.4-0.8-0.7-1.2-1L60,51.6
			c0.9-0.6,1.6-1.3,2.4-2l0.4-0.4C63,49.1,63,49,63.2,48.9C63.2,49,63.2,48.9,63.2,48.9z"/>
		<path class="st46" d="M68.1,45.1l-0.5,6.6l-1.6-1.2l-1.3-1L68.1,45.1z"/>
		<path class="st5" d="M57.5,49.2C57.5,49.2,57.6,49.1,57.5,49.2c0.3-0.2,0.6-0.3,0.8-0.4c0,0.1,0,0.2,0,0.3c0,0.1,0.1,0.2,0.2,0.2
			l0.4,0.4c0.4,0.4,0.7,0.9,0.9,1.3c0.1,0.2,0.3,0.4,0.3,0.6l0.9,2.9l2.3,0.7l2.9-1.7l1.9,1.3c0.4,0.3,0.8,0.6,1.2,0.8L69,54.8
			l1.2,7.8l1,1.2l0.2,0.1c0,0.1,0,0.2-0.1,0.3c-0.1,0.1-0.2,0.2-0.4,0.2l-8.6,4.1h0h-0.1c0,0,0,0.1-0.1,0.1l-0.1-0.1l-5-3.2l-1.7-1
			l-0.6-0.4c-0.1-0.1-0.4-0.2-0.4-0.2l2-3.1l-2.3-4.6l0.5-3l1.1-2.9l1.3-0.8C57.3,49.3,57.4,49.2,57.5,49.2z"/>
		<path class="st44" d="M58.2,55.1c0.2,0.2,0.4,0.3,0.6,0.4l1,0.7c-0.1,0.1-0.2,0.2-0.3,0.3l-0.9,1c-0.1,0.1-0.3,0.2-0.4,0.4
			l1.2,0.4l0.6,0.2c0,0,0.1,0.1,0.2,0.1c0.1,0,0.3-0.2,0.4-0.2l1.6-0.9c0.2-0.1,0.5-0.3,0.7-0.4l-1,0.6l-1.4,0.8
			c-0.1,0-0.2,0.2-0.3,0.2c0,0-0.2-0.1-0.2-0.1l-1.3-0.4c-0.1,0-0.3-0.1-0.5-0.1l-1.3,0.4c0.1-0.1,0.3-0.2,0.4-0.3
			c0.3-0.2,0.5-0.3,0.8-0.4c-0.1-0.1-0.2-0.1-0.2-0.2c-0.2-0.2-0.4-0.5-0.6-0.7l-0.7-1L58.2,55.1z"/>
		<path class="st42" d="M56.4,60.8c0.1,0.2,0.1,0.4,0.1,0.6l0.1,1c0.2,1,0.4,2,0.4,3l-1.7-1l-0.6-0.4c-0.1-0.1-0.3-0.2-0.4-0.2
			L56.4,60.8z"/>
		
			<linearGradient id="SVGID_00000170988093706621176650000002560043963372772515_" gradientUnits="userSpaceOnUse" x1="54.9324" y1="290.8082" x2="59.9109" y2="291.3151" gradientTransform="matrix(1 0 0 1 0 -239.2676)">
			<stop  offset="0" style="stop-color:#FFBD03"/>
			<stop  offset="1" style="stop-color:#FEE104"/>
		</linearGradient>
		<path style="fill:url(#SVGID_00000170988093706621176650000002560043963372772515_);" d="M57.5,49.2
			C57.5,49.2,57.6,49.1,57.5,49.2c0.3-0.2,0.6-0.3,0.8-0.4c0,0.1,0,0.2,0,0.3c0,0.1,0.1,0.2,0.2,0.2l0.4,0.4
			c0.4,0.4,0.7,0.9,0.9,1.3c0.1,0.2,0.3,0.4,0.3,0.6c-0.1,0.2-1.3,2.4-1.4,2.5c-0.1,0.1-0.3,0.1-0.5,0.2l-1.5,0.5l-1.9-1.7l1.1-2.8
			l1.3-0.8C57.3,49.3,57.4,49.2,57.5,49.2z"/>
		<path class="st44" d="M57.2,52.3c0.2,0.1,0.4,0.2,0.6,0.3h0l0.4,1l-0.7-0.1l-0.7-0.1c-0.1-0.3-0.3-0.6-0.4-0.9L57.2,52.3z"/>
		<path class="st5" d="M57.1,52.6c0.1,0,0.1,0,0.2,0.1c0,0.1,0,0.1,0,0.2S57.2,53,57.1,53c-0.1,0-0.2,0-0.2-0.1c0,0,0-0.1,0-0.1
			C56.9,52.7,57,52.6,57.1,52.6z"/>
		<path class="st48" d="M54.2,56.2c0.1,0.1,0.2,0.2,0.3,0.3l0.6,0.5l1.3,1.2l0.4,0.4c0.1,0.1,0.2,0.2,0.3,0.3l2.2,0.9l0.6,0.2
			c0,0,0.1,0.1,0.2,0.1c0.1,0,0.3-0.1,0.4-0.1l2.3-0.7l3-0.8l2.4-0.7l-7.7,5.1l-4-2.9l0,0.5c0,0.1,0,0.2,0,0.3
			c-0.1-0.2-0.2-0.4-0.3-0.6l-0.6-1.3l-0.9-1.9L54.2,56.2z"/>
		<path class="st42" d="M68.3,49.6C68.2,49.6,68.4,49.7,68.3,49.6l-0.1,1.7l0.9,4.1l0.1,0.3l0,0.1l1,6.9l0.7,0.8l0.6,0.2V64
			c0,0.1,0,0.2-0.1,0.3c-0.1,0.1-0.2,0.2-0.4,0.2l-8.6,4.2h0h-0.1c0.1-0.2,0.2-0.3,0.2-0.5l0.5-0.8l1.5-2.7l2.7-5.1l1.9-3.8
			c0-0.1,0-0.1,0-0.1c-0.1-0.3-0.1-0.6-0.2-0.8l-0.4-1.6l-0.3-1.3c0-0.2-0.1-0.4-0.1-0.6c0-0.2,0-0.5,0-0.7L68.3,49.6z"/>
		<path class="st41" d="M70.2,62.6l1.3,1.5l0-0.2c0,0.1,0,0.2-0.1,0.3c-0.1,0.1-0.2,0.2-0.4,0.2l-8.6,4.1h0c0-0.1,0.1-0.1,0.2-0.1
			l0.4-0.3l0.9-0.7l2.5-1.9L70.2,62.6z"/>
		
			<linearGradient id="SVGID_00000099621453353113883470000016464464166773398717_" gradientUnits="userSpaceOnUse" x1="62.1987" y1="309.662" x2="62.1987" y2="276.7268" gradientTransform="matrix(1 0 0 1 0 -239.2676)">
			<stop  offset="0" style="stop-color:#9C3600"/>
			<stop  offset="4.000000e-02" style="stop-color:#A44401"/>
			<stop  offset="0.25" style="stop-color:#CD8909"/>
			<stop  offset="0.4" style="stop-color:#E7B40D"/>
			<stop  offset="0.48" style="stop-color:#F1C40F"/>
			<stop  offset="0.53" style="stop-color:#F2C615"/>
			<stop  offset="0.6" style="stop-color:#F3CC25"/>
			<stop  offset="0.67" style="stop-color:#F7D53F"/>
			<stop  offset="0.75" style="stop-color:#FBE363"/>
			<stop  offset="0.81" style="stop-color:#FFF088"/>
			<stop  offset="1" style="stop-color:#FFF8D6"/>
		</linearGradient>
		<path style="fill-rule:evenodd;clip-rule:evenodd;fill:url(#SVGID_00000099621453353113883470000016464464166773398717_);" d="
			M76.5,45.7l-14.3-8.2l-14.3,8.2v16.5l14.3,8.2l14.3-8.2V45.7z M61.9,39.2c0.1-0.1,0.2-0.1,0.4-0.1l0,0c0.1,0,0.3,0,0.4,0.1
			l12.2,7.1c0.1,0.1,0.2,0.2,0.3,0.3c0.1,0.1,0.1,0.2,0.1,0.4V61c0,0.1,0,0.3-0.1,0.4c-0.1,0.1-0.2,0.2-0.3,0.3l-12.2,7.1
			c-0.1,0.1-0.2,0.1-0.4,0.1c-0.1,0-0.3,0-0.4-0.1l-12.2-7.1c-0.1-0.1-0.2-0.2-0.3-0.3c-0.1-0.1-0.1-0.2-0.1-0.4V46.8
			c0-0.1,0-0.3,0.1-0.4c0.1-0.1,0.2-0.2,0.3-0.3L61.9,39.2z"/>
		<path class="st23" d="M62.3,40l0.6,0.4l11,6.4l0.6,0.4v14.1l-0.6,0.4L62.9,68l-0.6,0.4L61.6,68l-11-6.4L50,61.2V47.1l0.6-0.4
			l11-6.4L62.3,40z M62.3,39.3c-0.1,0-0.3,0-0.4,0.1l-0.6,0.4l-11,6.4l-0.6,0.4c-0.1,0.1-0.2,0.2-0.3,0.3c-0.1,0.1-0.1,0.2-0.1,0.4
			v14.1c0,0.1,0,0.3,0.1,0.4c0.1,0.1,0.2,0.2,0.3,0.3l0.6,0.4l11,6.4l0.6,0.4c0.1,0.1,0.2,0.1,0.4,0.1s0.3,0,0.4-0.1l0.6-0.4l11-6.3
			l0.6-0.4c0.1-0.1,0.2-0.2,0.3-0.3c0.1-0.1,0.1-0.2,0.1-0.4V47.2c0-0.1,0-0.3-0.1-0.4c-0.1-0.1-0.2-0.2-0.3-0.3l-0.6-0.4l-11-6.4
			l-0.6-0.4C62.5,39.4,62.4,39.3,62.3,39.3L62.3,39.3z"/>
		<path class="st23" d="M62.2,38.3l0.7,0.4l12.3,7.1l0.7,0.4v15.8l-0.7,0.4l-12.3,7.1l-0.7,0.4l-0.7-0.4l-12.3-7.1l-0.7-0.4V46.2
			l0.7-0.4l12.3-7.1L62.2,38.3z M62.2,37.5c-0.1,0-0.3,0-0.4,0.1l-0.7,0.4L48.8,45l-0.7,0.4c-0.1,0.1-0.2,0.2-0.3,0.3
			c-0.1,0.1-0.1,0.3-0.1,0.4v15.8c0,0.1,0,0.3,0.1,0.4c0.1,0.1,0.2,0.2,0.3,0.3l0.7,0.4l12.3,7.1l0.7,0.4c0.1,0.1,0.3,0.1,0.4,0.1
			c0.1,0,0.3,0,0.4-0.1l0.7-0.4L75.6,63l0.7-0.4c0.1-0.1,0.2-0.2,0.3-0.3c0.1-0.1,0.1-0.3,0.1-0.4V46.2c0-0.1,0-0.3-0.1-0.4
			c-0.1-0.1-0.2-0.2-0.3-0.3L75.6,45l-12.3-7.1l-0.7-0.4C62.5,37.5,62.3,37.5,62.2,37.5L62.2,37.5z"/>
		
			<linearGradient id="SVGID_00000035509688486281739920000001365052121079314327_" gradientUnits="userSpaceOnUse" x1="42.8365" y1="323.4641" x2="42.8365" y2="290.5288" gradientTransform="matrix(1 0 0 1 0 -239.2676)">
			<stop  offset="0" style="stop-color:#9C3600"/>
			<stop  offset="4.000000e-02" style="stop-color:#A44401"/>
			<stop  offset="0.25" style="stop-color:#CD8909"/>
			<stop  offset="0.4" style="stop-color:#E7B40D"/>
			<stop  offset="0.48" style="stop-color:#F1C40F"/>
			<stop  offset="0.53" style="stop-color:#F2C615"/>
			<stop  offset="0.6" style="stop-color:#F3CC25"/>
			<stop  offset="0.67" style="stop-color:#F7D53F"/>
			<stop  offset="0.75" style="stop-color:#FBE363"/>
			<stop  offset="0.81" style="stop-color:#FFF088"/>
			<stop  offset="1" style="stop-color:#FFF8D6"/>
		</linearGradient>
		<path style="fill:url(#SVGID_00000035509688486281739920000001365052121079314327_);" d="M42.8,51.3l14.3,8.2V76l-14.3,8.2
			L28.6,76V59.5L42.8,51.3z"/>
		<path class="st52" d="M42.8,52.9v14.6l-12.7-7.3L42.8,52.9z"/>
		<path class="st53" d="M42.8,67.5l-12.7,7.3V60.1L42.8,67.5z"/>
		<path class="st54" d="M42.8,67.5v14.6l-12.7-7.3L42.8,67.5z"/>
		<path class="st55" d="M42.8,52.9l12.7,7.3l-12.7,7.3V52.9z"/>
		<path class="st56" d="M42.8,67.5l12.7,7.3l-12.7,7.3V67.5z"/>
		<path class="st57" d="M42.8,67.5l12.7-7.3v14.6L42.8,67.5z"/>
		<path class="st23" d="M42.8,51.8l0.7,0.4l12.3,7.1l0.7,0.4v15.8l-0.7,0.4L43.5,83l-0.7,0.4L42.1,83l-12.3-7.1l-0.7-0.4V59.7
			l0.7-0.4l12.3-7.1L42.8,51.8z M42.8,51c-0.1,0-0.3,0-0.4,0.1l-0.7,0.4l-12.3,7.1L28.7,59c-0.1,0.1-0.2,0.2-0.3,0.3
			c-0.1,0.1-0.1,0.3-0.1,0.4v15.8c0,0.1,0,0.3,0.1,0.4c0.1,0.1,0.2,0.2,0.3,0.3l0.7,0.4l12.3,7.1l0.7,0.4c0.1,0.1,0.3,0.1,0.4,0.1
			c0.1,0,0.3,0,0.4-0.1l0.7-0.4l12.3-7.1l0.7-0.4c0.1-0.1,0.2-0.2,0.3-0.3c0.1-0.1,0.1-0.3,0.1-0.4V59.7c0-0.1,0-0.3-0.1-0.4
			S57,59.1,56.9,59l-0.7-0.4l-12.3-7.1l-0.7-0.4C43.1,51,42.9,51,42.8,51L42.8,51z"/>
		<path class="st23" d="M42.9,53.6l0.6,0.4l11,6.4l0.6,0.4v14.1l-0.6,0.4l-11,6.4l-0.6,0.4l-0.6-0.4l-11-6.4l-0.6-0.4V60.7l0.6-0.4
			l11-6.4L42.9,53.6z M42.9,52.9c-0.1,0-0.3,0-0.4,0.1l-0.6,0.4l-11,6.4l-0.6,0.4c-0.1,0.1-0.2,0.2-0.3,0.3
			c-0.1,0.1-0.1,0.2-0.1,0.4v14.1c0,0.1,0,0.3,0.1,0.4s0.2,0.2,0.3,0.3l0.6,0.4l11,6.4l0.6,0.4c0.1,0.1,0.2,0.1,0.4,0.1
			s0.3,0,0.4-0.1l0.6-0.4l11-6.3l0.6-0.4c0.1-0.1,0.2-0.2,0.3-0.3s0.1-0.2,0.1-0.4V60.7c0-0.1,0-0.3-0.1-0.4s-0.2-0.2-0.3-0.3
			l-0.6-0.4l-11-6.4L43.2,53C43.1,52.9,43,52.9,42.9,52.9L42.9,52.9z"/>
		
			<linearGradient id="SVGID_00000025408501358876767610000006603761936932628371_" gradientUnits="userSpaceOnUse" x1="42.7711" y1="317.348" x2="42.7711" y2="301.42" gradientTransform="matrix(1 0 0 1 0 -239.2676)">
			<stop  offset="0" style="stop-color:#9C3600"/>
			<stop  offset="4.000000e-02" style="stop-color:#A44401"/>
			<stop  offset="0.25" style="stop-color:#CD8909"/>
			<stop  offset="0.4" style="stop-color:#E7B40D"/>
			<stop  offset="0.48" style="stop-color:#F1C40F"/>
			<stop  offset="0.53" style="stop-color:#F2C615"/>
			<stop  offset="0.6" style="stop-color:#F3CC25"/>
			<stop  offset="0.67" style="stop-color:#F7D53F"/>
			<stop  offset="0.75" style="stop-color:#FBE363"/>
			<stop  offset="0.81" style="stop-color:#FFF088"/>
			<stop  offset="1" style="stop-color:#FFF8D6"/>
		</linearGradient>
		<path style="fill-rule:evenodd;clip-rule:evenodd;fill:url(#SVGID_00000025408501358876767610000006603761936932628371_);" d="
			M50.9,62.2l-8.1,15.9l-8.1-15.9H50.9z M42.1,63.5v10.4l-4.8-10.4H42.1z M43.4,63.5v10.4l4.8-10.4H43.4z"/>
		<path class="st2" d="M42.8,78.7c-0.3,0-0.5-0.1-0.6-0.4l-8.1-15.9c-0.1-0.2-0.1-0.5,0-0.7s0.3-0.3,0.6-0.3h16.2
			c0.2,0,0.4,0.1,0.6,0.3c0.1,0.2,0.1,0.4,0,0.7l-8.1,15.9C43.2,78.6,43,78.7,42.8,78.7z M34.7,62.2h16.2l-8.1,15.9L34.7,62.2z
			 M42.1,63.5v10.4l-4.8-10.4H42.1z M38.4,64.2l3.1,6.7v-6.7H38.4z M43.4,73.9l4.8-10.4h-4.8V73.9z M44.1,71l3.1-6.7h-3.1V71z"/>
		<g>
			
				<linearGradient id="SVGID_00000123404324996921570610000013992841045841969057_" gradientUnits="userSpaceOnUse" x1="25.0454" y1="301.0281" x2="21.5969" y2="286.0178" gradientTransform="matrix(1 0 0 1 0 -239.2676)">
				<stop  offset="0" style="stop-color:#9C3600"/>
				<stop  offset="4.000000e-02" style="stop-color:#A44401"/>
				<stop  offset="0.25" style="stop-color:#CD8909"/>
				<stop  offset="0.4" style="stop-color:#E7B40D"/>
				<stop  offset="0.48" style="stop-color:#F1C40F"/>
				<stop  offset="0.53" style="stop-color:#F2C615"/>
				<stop  offset="0.6" style="stop-color:#F3CC25"/>
				<stop  offset="0.67" style="stop-color:#F7D53F"/>
				<stop  offset="0.75" style="stop-color:#FBE363"/>
				<stop  offset="0.81" style="stop-color:#FFF088"/>
				<stop  offset="1" style="stop-color:#FFF8D6"/>
			</linearGradient>
			<path style="fill:url(#SVGID_00000123404324996921570610000013992841045841969057_);" d="M28.6,51.5c-0.1-1.6-1.5-2.2-3.3-2.4
				l0-2.3l-1.4,0l0,2.2c-0.4,0-0.7,0-1.1,0l0-2.2l-1.4,0l0,2.3c-0.3,0-0.6,0-0.9,0l0,0l-1.9,0l0,1.5c0,0,1,0,1,0
				c0.6,0,0.7,0.3,0.8,0.6l-0.1,6.2c0,0.2-0.1,0.5-0.5,0.5c0,0-1,0-1,0l-0.3,1.6l1.8,0c0.3,0,0.7,0,1,0l0,2.3l1.4,0l0-2.3
				c0.4,0,0.8,0,1.1,0l0,2.3l1.4,0l0-2.3c2.3-0.1,4-0.7,4.2-2.8c0.2-1.7-0.6-2.6-1.9-2.9C28.2,53.4,28.7,52.7,28.6,51.5L28.6,51.5z
				 M26.6,56.3c0,1.7-3,1.5-3.9,1.4l0.1-3C23.7,54.8,26.6,54.6,26.6,56.3z M26.1,52c0,1.6-2.5,1.3-3.2,1.3l0-2.7
				C23.6,50.6,26.1,50.4,26.1,52z"/>
			<path class="st2" d="M18.5,59.3l0.3-1.6c0,0,0.2,0,0.4,0c0.3,0,0.6,0,0.7,0l0,0l0,0c0.4,0,0.5-0.2,0.5-0.4c0,0,0,0,0,0l0.1-6.2
				c0-0.1-0.1-0.3-0.2-0.4c-0.1-0.1-0.3-0.2-0.6-0.2l0,0l0,0c0,0-0.2,0-0.4,0c-0.1,0-0.2,0-0.3,0c-0.2,0-0.4,0-0.4,0l0-1.5l1.9,0
				l0,0c0.3,0,0.6,0,0.9,0l0-2.3l1.4,0l0,2.2c0.2,0,0.4,0,0.7,0c0.2,0,0.3,0,0.5,0l0-2.2l1.4,0l0,2.3c1.8,0.2,3.2,0.8,3.3,2.4l0,0
				c0.1,0.8-0.2,1.4-0.6,1.8c-0.2,0.2-0.4,0.4-0.7,0.5c0.3,0.1,0.6,0.2,0.8,0.3c0.9,0.4,1.3,1.2,1.1,2.6c-0.3,2.2-1.9,2.7-4.3,2.8
				l0,2.3l-1.4,0l0-2.3c-0.1,0-0.2,0-0.4,0c0,0-0.1,0-0.1,0c-0.2,0-0.4,0-0.7,0l0,2.3l-1.4,0l0-2.3L18.5,59.3z M20.3,60l-1.8,0
				c-0.2,0-0.4-0.1-0.5-0.2c-0.1-0.2-0.2-0.4-0.1-0.5l0.3-1.6c0.1-0.3,0.3-0.6,0.7-0.5h0c0,0,0.1,0,0.1,0c0.1,0,0.2,0,0.4,0
				s0.3,0,0.3,0c0,0,0,0,0,0l0.1-5.9l0,0l0,0c0,0-0.1,0-0.1,0c0,0-0.1,0-0.1,0c0,0,0,0-0.1,0c-0.1,0-0.2,0-0.3,0c-0.1,0-0.3,0-0.4,0
				c0,0-0.1,0-0.1,0h0c-0.2,0-0.4-0.1-0.5-0.2c-0.1-0.1-0.2-0.3-0.2-0.5l0-1.5c0-0.4,0.3-0.7,0.7-0.7l1.9,0c0,0,0.1,0,0.1,0
				c0,0,0.1,0,0.1,0l0-1.6c0-0.4,0.3-0.7,0.7-0.7l1.4,0c0.2,0,0.3,0.1,0.5,0.2c0,0,0,0.1,0.1,0.1l0,0c0.1-0.2,0.3-0.3,0.6-0.3l1.4,0
				c0.2,0,0.3,0.1,0.5,0.2s0.2,0.3,0.2,0.5l0,1.7c0.7,0.1,1.4,0.3,2,0.7c0.8,0.5,1.2,1.2,1.3,2.2v0c0.1,0.7-0.1,1.3-0.4,1.8
				c-0.1,0.1-0.2,0.2-0.2,0.3c0.3,0.2,0.6,0.4,0.8,0.7c0.5,0.6,0.6,1.4,0.5,2.4c-0.1,1.3-0.7,2.2-1.6,2.7c-0.7,0.4-1.6,0.6-2.6,0.7
				l0,1.7c0,0.4-0.3,0.7-0.7,0.7l-1.4,0c-0.2,0-0.3-0.1-0.5-0.2c0,0-0.1-0.1-0.1-0.1c-0.1,0.2-0.3,0.3-0.6,0.3l-1.4,0
				c-0.2,0-0.3-0.1-0.5-0.2s-0.2-0.3-0.2-0.5l0-1.6C20.5,60,20.4,60,20.3,60 M19.1,57.7c0,0,0-0.1,0-0.1
				C19.2,57.6,19.1,57.6,19.1,57.7z M26,56.3c0-0.2-0.1-0.4-0.2-0.5c-0.2-0.1-0.4-0.3-0.8-0.3c-0.5-0.1-1-0.1-1.5-0.1l0,1.7
				c0.5,0,1,0,1.5-0.1c0.4-0.1,0.7-0.2,0.9-0.3C25.9,56.7,25.9,56.5,26,56.3z M22.8,57.8L22.8,57.8l0-3c0.1,0,0.2,0,0.3,0
				c1.1,0,3.5,0,3.5,1.6c0,1.6-2.5,1.5-3.6,1.4C22.9,57.8,22.8,57.8,22.8,57.8z M25.2,52.4c0.1-0.1,0.2-0.2,0.2-0.4
				c0-0.2-0.1-0.3-0.2-0.4c-0.1-0.1-0.3-0.2-0.6-0.3c-0.4-0.1-0.8-0.1-1.1-0.1l0,1.5c0.4,0,0.8,0,1.1-0.1
				C24.9,52.6,25.1,52.5,25.2,52.4z M22.8,53.4C22.8,53.4,22.8,53.4,22.8,53.4l0-2.7c0.1,0,0.2,0,0.3,0c1,0,2.9,0,2.9,1.4
				c0,1.4-2.1,1.3-3,1.3C23,53.4,22.9,53.4,22.8,53.4z"/>
		</g>
	</g>
</g>
</svg>
