<?xml version="1.0" encoding="utf-8"?>
<!-- Generator: Adobe Illustrator 27.1.1, SVG Export Plug-In . SVG Version: 6.00 Build 0)  -->
<svg version="1.1" id="Слой_1" xmlns="http://www.w3.org/2000/svg" xmlns:xlink="http://www.w3.org/1999/xlink" x="0px" y="0px"
	 viewBox="0 0 85 85" style="enable-background:new 0 0 85 85;" xml:space="preserve">
<style type="text/css">
	.st0{fill:url(#SVGID_1_);}
	.st1{fill:#4A647D;}
	.st2{fill:#2C435B;}
	.st3{fill:#EEE0C4;}
	.st4{fill:#804E4A;}
	.st5{fill:#C2ADA1;}
	.st6{fill:#332B22;}
	.st7{fill:#E09155;}
	.st8{fill:#5D8CA4;}
	.st9{fill:#9B7A71;}
	.st10{fill:url(#SVGID_00000093887823797133694870000009038497561752620962_);}
	.st11{fill:#7FB3CC;}
	.st12{fill:url(#SVGID_00000119830138937132583340000008077647660585623190_);}
	.st13{fill:url(#SVGID_00000127764893919565916090000007346768388339613580_);}
	.st14{fill:url(#SVGID_00000061453362858343665220000014240637460316109707_);}
	.st15{fill:url(#SVGID_00000129196926876253967410000006808287791712010155_);}
	.st16{fill:url(#SVGID_00000178925017246796669240000015647737355449461175_);}
	.st17{fill:url(#SVGID_00000063597610877106499650000014146766098781027984_);}
	.st18{fill:url(#SVGID_00000125585329521903379450000002078197559981976747_);}
	.st19{fill:url(#SVGID_00000105414248849754661890000004929558519442141584_);}
	.st20{fill:url(#SVGID_00000129202707996123974250000005113830198253708987_);}
	.st21{fill:url(#SVGID_00000145772116223058142470000015390881433498596267_);}
	.st22{fill:url(#SVGID_00000121257420334038865140000011697599561328110762_);}
	.st23{fill:url(#SVGID_00000066488133765292532910000008224989427337137841_);}
	.st24{fill:url(#SVGID_00000108282257567180850980000009420259352619798195_);}
	.st25{fill:url(#SVGID_00000180342475911112188090000004639699570225144196_);}
	.st26{fill:url(#SVGID_00000134212252198879931400000017717664460404647592_);}
	.st27{fill:none;}
</style>
<g>
	
		<linearGradient id="SVGID_1_" gradientUnits="userSpaceOnUse" x1="47.5924" y1="76.5298" x2="47.1285" y2="76.2376" gradientTransform="matrix(1 0 0 -1 0 84.3154)">
		<stop  offset="0" style="stop-color:#303536"/>
		<stop  offset="1" style="stop-color:#54534E"/>
	</linearGradient>
	<path class="st0" d="M43.8,2.7l2.7,3.6l0.9,1.3C47.6,7.7,47.8,8,48,8.2c0.2,0.1,0.4,0.3,0.6,0.4l1.3,0.8l3.6,2.2l-0.1,0l-5.4-3.2
		l2,3.6l0,0.1l-0.8-0.5L49,11.4c0-0.1-0.1-0.1-0.1-0.2l0,0c-0.3-0.3-0.2-1.2-0.2-1.6c-0.1-0.4-0.4-0.9-0.7-1.2l-4.1-5.5L43.8,2.7z"
		/>
	<path class="st1" d="M48.6,9.6c0.1,0.2,0.3,0.4,0.3,0.7c0.1,0.4,0,0.7,0.2,1.1l0,0.1L49,11.4c0-0.1-0.1-0.1-0.1-0.2l0,0
		C48.5,10.9,48.6,10,48.6,9.6z"/>
	<path class="st2" d="M66.3,19.4c0.3,0.4,0.5,1,0.8,1.4l2.1,3.9l3.5,6.6l2.7,5.3l1-1.9c0.5,0.7,0.9,1.6,1.4,2.4l2,3.6
		c0.3,0.6,0.7,1.2,1,1.9L80.5,43l0-0.2l0.1-0.1c0-0.2-0.2-0.5-0.3-0.6l-0.8-1.3l-3.2-5.6c-0.4,0.8-0.9,1.6-1.2,2.5l-0.1,0l0.3-0.8
		L66.3,19.4L66.3,19.4z"/>
	<path class="st3" d="M50,11.9l-2-3.6l5.4,3.2l0.1,0l0.1,0c0.3,0.1,0.5,0.3,0.7,0.4l1.3,0.8c0.2,0.1,0.5,0.4,0.7,0.4
		c0.1,0,0.3,0,0.4,0l1.2,0c-0.3,0.1-0.7,0.1-1,0.2c-1.4,0.1-2.8,0.1-4.2-0.1c-0.8-0.1-1.6-0.2-2.4-0.5c-0.1,0-0.5-0.1-0.6-0.2
		c0,0,0-0.2,0-0.2C49.9,12.2,50,12.1,50,11.9L50,11.9z"/>
	<path class="st4" d="M53.5,11.5L53.5,11.5c0.3,0.1,0.6,0.3,0.8,0.5l1.3,0.8c0.2,0.1,0.5,0.4,0.7,0.4c0.1,0,0.3,0,0.4,0l1.2,0
		c-0.3,0.1-0.7,0.1-1,0.2c-1.4,0.1-2.8,0.1-4.2-0.1c-0.8-0.1-1.6-0.2-2.4-0.5c-0.1,0-0.5-0.1-0.6-0.2c0,0,0-0.2,0-0.2
		c0.1-0.1,0.1-0.2,0.2-0.3l0-0.1c0.4,0.1,0.8,0.4,1.3,0.5c1.5,0.5,3.2,0.7,4.8,0.7L53.5,11.5L53.5,11.5L53.5,11.5z"/>
	<path class="st2" d="M75,48.3c0.2,0.3,0.3,0.8,0.5,1.1c-0.1,0.2-0.2,0.4-0.2,0.6l-2.2,4.5l-4,8.2l-1.8,3.9
		c-0.2,0.4-0.3,0.8-0.6,1.1c-0.1-0.4,0-0.9,0-1.3c0-0.2,0-0.4-0.1-0.6c0.2-0.3,0.3-0.7,0.5-1L75,48.3z"/>
	<path class="st5" d="M75,37.7c0.3-0.9,0.8-1.7,1.2-2.5l3.2,5.6l0.8,1.3c0.1,0.2,0.3,0.4,0.3,0.6l-0.1,0.1l0,0.2l-3.2,5.8l-0.8,1.4
		c-0.1,0.2-0.2,0.4-0.3,0.6c0,0-0.1,0.1-0.1,0.1c-0.3-0.2-0.4-0.9-0.6-1.3c-0.1,0.1-0.2,0.2-0.2,0.3c0-0.2,0.1-0.4,0.2-0.6
		c-0.1-0.4-0.2-0.8-0.5-1.1L74.2,46c0-0.2-0.1-0.5-0.2-0.7l-0.4-1.2l-0.4-1c0,0,0-0.1-0.1-0.1c0.1-0.1,0.1-0.4,0.2-0.6l0.3-0.8
		l1.3-3.9L75,37.7z"/>
	<path class="st6" d="M74.9,37.6l0.1,0l-1.7,5.1l1,3.1c0.2,0.4,0.3,1,0.5,1.4l0.3,0.9c0.1,0.2,0.1,0.5,0.2,0.8l0.7,2l4.3-8l0,0.2
		l-3.2,5.8l-0.8,1.4c-0.1,0.2-0.2,0.4-0.3,0.6c0,0-0.1,0.1-0.1,0.1c-0.3-0.2-0.4-0.9-0.6-1.3c-0.1,0.1-0.2,0.2-0.2,0.3
		c0-0.2,0.1-0.4,0.2-0.6c-0.1-0.4-0.2-0.8-0.5-1.1L74.2,46c0-0.2-0.1-0.5-0.2-0.7l-0.4-1.2l-0.4-1c0,0,0-0.1-0.1-0.1
		c0.1-0.1,0.1-0.4,0.2-0.6l0.3-0.8L74.9,37.6z"/>
	<path class="st3" d="M75,37.7c0.3-0.9,0.8-1.7,1.2-2.5l3.2,5.6l0.8,1.3c0.1,0.2,0.3,0.4,0.3,0.6l-7.2,0L75,37.7z"/>
	<path class="st4" d="M64.1,62.5L73.2,43l0.4,1l0.4,1.2c0.1,0.2,0.2,0.5,0.2,0.7l0.8,2.3l-7.9,16.6c-0.3-0.1-0.7-0.2-1-0.3l-1.8-0.5
		c-0.3-0.1-0.6-0.1-0.8-0.3l0.1,0l0.1-0.2L64.1,62.5z"/>
	<path class="st7" d="M64.1,62.5L73.2,43l0.4,1c0,0.1-0.1,0.2-0.1,0.3c-0.1,0.4-0.3,0.7-0.4,1.1l-0.9,1.9l-3.6,7.7L65.8,61l-1,2
		c-0.1,0.3-0.2,0.5-0.4,0.8c0,0.1,0,0.1-0.1,0.2c-0.2-0.1-0.4,0-0.6-0.2l0.1-0.2L64.1,62.5z"/>
	<path class="st6" d="M17.5,66.3c0-0.1,0-0.3,0-0.4l0.1-0.1c0.5,0.2,1,0.5,1.4,0.8l4.7,2.9l7.8,5l3.4,2.2l5.2,3.3l2.1,1.4l0,0
		L66.6,66l0.1-0.1c0.1,0.2,0.1,0.4,0.1,0.6c0,0.4-0.1,0.9,0,1.3l0,0.3L42.3,83.9l-3.5-2.3l-3.8-2.5l-10.9-7l-5.3-3.4
		c-0.3-0.2-0.8-0.4-1.1-0.7c-0.2-0.2-0.2-0.7-0.2-1C17.6,66.7,17.5,66.5,17.5,66.3z"/>
	<path class="st2" d="M66.6,66l0,2c-0.8,0.4-1.5,1-2.3,1.5l-3.1,2l-13.6,8.8l-3.9,2.5l-1,0.6c-0.1,0.1-0.3,0.2-0.4,0.2
		c0-0.7-0.1-1.5,0-2.2l0,0L66.6,66z"/>
	<path class="st7" d="M64.1,53.8c0.4,0,0.7,0.1,1,0.2c0.2,0.1,0.3,0.2,0.5,0.3c0.1,0.1,0.2,0.2,0.3,0.3c-0.1,0.2-0.1,0.4-0.1,0.5
		c0,0.3-0.1,0.6-0.1,0.8c-0.2,1-0.5,2-0.7,2.9l0,0.1l-0.1,0.3l0,0.1c-0.1,0.3-0.3,0.6-0.5,0.9c-0.1,0.1-0.2,0.3-0.3,0.3
		c0,0.1,0,0.2,0,0.3c0,0.1,0,0.2,0,0.4c0,0.1,0,0.3-0.1,0.4c0,0.2,0,0.6-0.2,0.8l0.2,0.1l0.1,0l-0.4,1l-0.1,0.2l-0.1,0
		c0.3,0.2,0.5,0.2,0.8,0.3l1.8,0.5c0.3,0.1,0.7,0.1,1,0.3c-0.1,0.3-0.3,0.7-0.5,1L66.6,66L42.3,81.4c-0.1-0.4,0-1.1,0-1.5
		c0-0.3,0-0.7,0-1l1,1.2l0-6.6l0-0.8l0-0.8l0.1,0c0.9-0.3,1.9-0.9,2.8-1.3l3.9-1.8c0.2,0.1,0.5,0.2,0.7,0.4L52,69c0.1,0,0.1,0,0.2,0
		l-0.5-1.1l-0.3-0.6c0.4-0.3,0.8-0.6,1.2-0.9c0.6-0.5,1.2-1.1,1.8-1.7l1.9-1.7l0.6-0.6c0.1-0.2,0.4-0.5,0.6-0.5
		c-0.3,0.9-0.9,1.6-1.4,2.4c0.1,0,0.1,0,0.1-0.1c0.3-0.2,0.6-0.5,0.8-0.8c0.4-0.4,0.8-0.8,1.1-1.3c0.4-0.8,0.5-1.8,0.6-2.7l0.1-0.5
		c0.7-0.3,1.5-0.6,2.1-1c0.4-0.3,0.8-0.5,1.2-0.8l1.2-1l0.2-0.1c0.1-0.1,0.2-0.2,0.2-0.4l0.1-0.2l0.2-0.4c0-0.2,0-0.5,0-0.7l0.1,0
		l0,0C64.2,54.1,64.2,54,64.1,53.8z"/>
	<path class="st5" d="M63.6,63.8c0.3,0.2,0.5,0.2,0.8,0.3c-0.4,0.3-0.9,0.5-1.3,0.8l-2,1.3l-7.8,5l-1.9,1.2l-1.9,1.2
		c-0.3,0.2-0.6,0.4-0.9,0.6c-0.1,0.1-0.2,0.1-0.3,0.1l1.5-1.8L63.6,63.8z"/>
	<path class="st6" d="M63.8,62.4l0.2,0.1l0.1,0l-0.4,1l-0.1,0.2l-0.1,0l-13.8,8.7c0.3-0.6,0.8-1.2,1.2-1.7c0.2-0.3,0.5-0.7,0.8-1
		c0.1-0.2,0.3-0.4,0.4-0.6c0,0,0-0.2,0-0.2c0.7-0.5,1.5-0.8,2.2-1.3l2.4-1.1c0.2-0.1,0.8-0.3,1-0.5c0.1-0.2,0.2-0.4,0.4-0.5l0,0
		c-0.2-0.2-0.4-0.6-0.5-0.9c-0.2-0.4,0.1-0.8,0.2-1.2l0,0l-0.1,0.5c-0.1,0.3,0,0.5,0.2,0.8c1.5-0.4,2.9-0.8,4.3-1.5L63.8,62.4z"/>
	<path class="st1" d="M64.1,53.8c0.4,0,0.7,0.1,1,0.2c0.2,0.1,0.3,0.2,0.5,0.3c0.1,0.1,0.2,0.2,0.3,0.3c-0.1,0.2-0.1,0.4-0.1,0.5
		c0,0.3-0.1,0.6-0.1,0.8c-0.2,1-0.5,2-0.7,2.9l0,0.1l-0.1,0.3l0,0.1c-0.1,0.3-0.3,0.6-0.5,0.9c-0.1,0.1-0.2,0.3-0.3,0.3
		c0,0.1,0,0.2,0,0.3c0,0.1,0,0.2,0,0.4c0,0.1,0,0.3-0.1,0.4c0,0.2,0,0.6-0.2,0.8l-1.5,0.7c-1.4,0.7-2.8,1.1-4.3,1.5
		c-0.2-0.3-0.2-0.4-0.2-0.8l0.1-0.5l0,0c-0.2,0.4-0.4,0.8-0.2,1.2c0.1,0.3,0.2,0.7,0.5,0.9l0,0c-0.2,0.2-0.3,0.3-0.4,0.5
		c-0.2,0.2-0.7,0.4-1,0.5l-2.4,1.1c0,0,0-0.1,0-0.1c0-0.1,0.2-0.2,0.3-0.2l0.5-0.5c0.3-0.3,0.6-0.6,0.8-0.9c0.4-0.5,0.8-1.1,1-1.7
		l-0.7,0.6c-0.1-0.1-0.3-0.3-0.3-0.5c0.1,0,0.1,0,0.1-0.1c0.3-0.2,0.6-0.5,0.8-0.8c0.4-0.4,0.8-0.8,1.1-1.3c0.4-0.8,0.5-1.8,0.6-2.7
		l0.1-0.5c0.7-0.3,1.5-0.6,2.1-1c0.4-0.3,0.8-0.5,1.2-0.8l1.2-1l0.2-0.1c0.1-0.1,0.2-0.2,0.2-0.4l0.1-0.2l0.2-0.4c0-0.2,0-0.5,0-0.7
		l0.1,0l0,0C64.2,54.1,64.2,54,64.1,53.8z"/>
	<path class="st2" d="M64.1,55l0.1,0.1c0,0.2-0.1,0.3-0.2,0.4c-0.1,0.2-0.3,0.5-0.4,0.6c0-0.1,0-0.1-0.1-0.2
		c0.1-0.1,0.2-0.2,0.2-0.4l0.1-0.2L64.1,55z"/>
	<path class="st6" d="M63.5,56c0.1,0.1,0.1,0.1,0.1,0.2c-0.9,1.1-2.2,2-3.5,2.7c-0.4,0.2-0.9,0.4-1.3,0.7l0.1-0.5
		c0.7-0.3,1.5-0.6,2.1-1c0.4-0.3,0.8-0.5,1.2-0.8l1.2-1L63.5,56z"/>
	<path class="st5" d="M64.1,53.8c0.4,0,0.7,0.1,1,0.2c0.2,0.1,0.3,0.2,0.5,0.3c0.1,0.1,0.2,0.2,0.3,0.3c-0.1,0.2-0.1,0.4-0.1,0.5
		c0,0.3-0.1,0.6-0.1,0.8c-0.2,1-0.5,2-0.7,2.9l0,0.1l-0.1,0.3c-0.3,0.2-0.6,0.4-0.9,0.5c-0.9,0.5-2,0.5-3,0.6c1-1.1,2.1-2.2,3-3.5
		c0.2-0.3,0.5-0.8,0.5-1.3c0-0.2-0.1-0.6-0.3-0.8l0.1-0.1l-0.1-0.5l0,0C64.2,54.1,64.2,54,64.1,53.8z"/>
	<path class="st2" d="M51.3,67.4c0.4-0.3,0.8-0.6,1.2-0.9c0.6-0.5,1.2-1.1,1.8-1.7l1.9-1.7l0.6-0.6c0.1-0.2,0.4-0.5,0.6-0.5
		c-0.3,0.9-0.9,1.6-1.4,2.4c0.1,0.2,0.2,0.4,0.3,0.5l0.7-0.6c-0.2,0.6-0.6,1.2-1,1.7c-0.2,0.3-0.5,0.6-0.8,0.9l-0.5,0.5
		c-0.1,0.1-0.2,0.2-0.3,0.2c0,0,0,0.1,0,0.1c-0.7,0.5-1.5,0.8-2.2,1.3c0,0,0,0.2,0,0.2c-0.1,0.2-0.3,0.4-0.4,0.6
		c-0.3,0.3-0.5,0.6-0.8,1c-0.4,0.5-0.9,1.1-1.2,1.7l-1.5,1.8l-3.8,4.6c-0.2,0.2-1,1.2-1.1,1.3l0,0l0-6.6l0-0.8l0-0.8l0.1,0
		c0.9-0.3,1.9-0.9,2.8-1.3l3.9-1.8c0.2,0.1,0.5,0.2,0.7,0.4L52,69c0.1,0,0.1,0,0.2,0l-0.5-1.1L51.3,67.4z"/>
	<path class="st8" d="M50.1,68.8c0.2,0.1,0.5,0.2,0.7,0.4c-0.3,0.1-0.6,0.1-0.9,0.2c-0.3,0.1-0.5,0.3-0.8,0.4l-1.3,0.7l-2.4,1.2
		l-2.1,1.1l0-0.8l0.1,0c0.9-0.3,1.9-0.9,2.8-1.3L50.1,68.8z"/>
	<path class="st4" d="M16.4,55.9c0.7-0.2,1.2-0.4,1.9-0.3c-0.2,0.3-0.8,1-0.7,1.4l0.1,0.2c0.5,0.7,1,1.5,1.7,2.1
		c1.2,1.1,2.5,1.9,4,2.5l1.8,0.7l0.2,0.1c0.3,0,0.6,0.1,1,0.1c0.6,0.1,1.3,0.2,1.9,0.1c0.3-0.1,0.5-0.4,0.7-0.6
		c0.6-0.7,1-1.4,1.4-2.2c0,0.7-0.7,1.6-1.1,2.2c0.1,0,0,0,0.1,0c0.2,0.2,0.3,0.5,0.4,0.8c0.4,0.9,0.5,1.6,0.1,2.6l0,0.1l0,0l4.6,3.8
		l0,0l0-0.1l0.1-0.1l0.2,0c1.9,0.6,3.8,1.4,5.7,2.2l1.9,0.9c0.3,0.1,0.6,0.3,0.9,0.4l0,0.8l0,6.6l-1-1.2c0,0.3,0,0.7,0,1
		c0,0.5-0.1,1.1,0,1.5l0,0L40.1,80L35,76.7l-3.4-2.2l-7.8-5L19,66.6c-0.5-0.3-0.9-0.6-1.4-0.8l-0.1,0.1c0,0.1,0,0.3,0,0.4
		c0,0.2,0,0.5,0,0.7l-0.8-1.6c-0.1-0.3-0.3-0.6-0.4-0.8c-0.1-0.2-0.3-0.3-0.5-0.5c-0.5-0.4-0.8-0.9-1-1.5l-0.1-0.2
		c0-0.2,0-0.5,0.1-0.7l0,0l0.1-0.3l0.2-0.4c0.1-0.1,0.4-0.6,0.5-0.6l0.1,0.2l0,0c-0.3-0.8-0.5-1.7-0.4-2.5c0-0.3,0-0.5,0.1-0.8
		l0-0.1c0.1-0.3,0.2-0.7,0.5-0.9C16.2,56.1,16.3,56,16.4,55.9L16.4,55.9z"/>
	<path class="st7" d="M25.4,67.2c0.4,0,0.9,0,1.3,0c1.2,0.7,2.4,1.5,3.6,2.3l5.8,3.7l2,1.3c0.3,0.2,0.8,0.4,1.1,0.7
		c0.4,0.5,0.9,1,1.2,1.5L39.5,76l-2.6-1.6l-8.8-5.5l-2-1.3C25.9,67.5,25.6,67.4,25.4,67.2C25.5,67.2,25.5,67.2,25.4,67.2z"/>
	<path class="st6" d="M26.7,67.2c0.2-0.1,0.5-0.1,0.7-0.1c0.3,0,0.7-0.2,1-0.2c0.8,0.6,1.7,1.1,2.6,1.6l4.2,2.7
		c0.4,0.3,1.1,0.8,1.6,0.8l1.7,2.1c0.2,0.3,0.6,0.6,0.8,1c-0.3-0.3-0.7-0.5-1.1-0.7l-2-1.3l-5.8-3.7C29.2,68.7,28,67.9,26.7,67.2z"
		/>
	<path class="st2" d="M30.4,60c0,0.7-0.7,1.6-1.1,2.2c0.1,0,0,0,0.1,0c0.2,0.2,0.3,0.5,0.4,0.8c0.4,0.9,0.5,1.6,0.1,2.6l0,0.1l0,0
		l4.6,3.8l0,0l0-0.1c0.1,0.1,0.1,0.2,0.2,0.2l2.1,2.4c-0.5-0.1-1.1-0.6-1.6-0.8L31,68.5c-0.8-0.5-1.8-1-2.6-1.6
		c-0.2-0.1-0.7,0.1-1,0.2c-0.2,0-0.5,0.1-0.7,0.1c-0.4-0.1-0.9,0-1.3,0c-0.1-0.1-0.3-0.1-0.4-0.1c-0.3-0.1-0.6,0-0.9-0.1
		c-0.3-0.1-0.6,0-0.9-0.1c-0.1,0-0.3-0.1-0.4-0.1c-0.2,0-0.3-0.1-0.5-0.1c-0.1,0-0.1,0-0.1,0c-0.1,0-0.3-0.1-0.5-0.1
		c-0.1,0-0.2,0-0.3-0.1c-0.1,0-0.2,0-0.3-0.1c-0.1,0,0,0-0.1,0c-0.2,0-0.4-0.1-0.6-0.2c-0.9-0.2-1.7-0.5-2.6-1
		c-0.1-0.1-0.2-0.2-0.3-0.2l-0.1,0l0-0.1c0.3,0.1,0.6,0.3,1,0.5c0.9,0.4,1.9,0.7,2.9,0.9c0.1,0.1,0.1,0.1,0.2,0.1
		c0.3,0.1,0.8,0.1,1.2,0.2c1.9,0.3,4.3,0.5,6.1-0.4c0.2-0.1,0.4-0.3,0.5-0.5c0.2-0.4,0.5-0.7,0.5-1.2c0.1-0.7-0.2-1.4-0.6-1.9
		l-1.1,0.1c0.3-0.1,0.5-0.4,0.7-0.6C29.5,61.5,29.9,60.8,30.4,60z"/>
	<path class="st1" d="M25.4,62.6c0.3,0,0.6,0.1,1,0.1c0.6,0.1,1.3,0.2,1.9,0.1l1.1-0.1c0.4,0.5,0.6,1.2,0.6,1.9
		c-0.1,0.5-0.4,0.8-0.5,1.2c-0.1,0.2-0.3,0.4-0.5,0.5c-1.8,0.8-4.2,0.6-6.1,0.4c-0.4,0-0.8,0-1.2-0.2c-0.1,0-0.1-0.1-0.2-0.1
		c1,0,1.9,0.2,2.9,0c0.8-0.2,1.6-0.7,2-1.4c0.2-0.4,0.4-0.8,0.3-1.3C26.3,63.1,25.8,62.9,25.4,62.6z"/>
	<path class="st8" d="M34.6,69.3l0.2,0c1.9,0.6,3.8,1.4,5.7,2.2l1.9,0.9c0.3,0.1,0.6,0.3,0.9,0.4l0,0.8l0,6.6l-1-1.2
		c-0.1-0.2-0.4-0.5-0.5-0.7c-0.4-0.5-0.9-1.1-1.4-1.6c-0.3-0.5-0.8-1.1-1.2-1.5c-0.2-0.3-0.5-0.7-0.8-1L36.7,72l-2.1-2.4
		C34.6,69.5,34.5,69.5,34.6,69.3L34.6,69.3z"/>
	<path class="st1" d="M34.6,69.3l0.2,0c1.9,0.6,3.8,1.4,5.7,2.2l1.9,0.9c0.3,0.1,0.6,0.3,0.9,0.4l0,0.8c-0.2-0.1-0.5-0.2-0.7-0.3
		L41,72.5l-4.7-2.1l-1-0.5c-0.2-0.1-0.4-0.3-0.7-0.3C34.6,69.5,34.5,69.5,34.6,69.3L34.6,69.3z"/>
	<path class="st3" d="M16.4,55.9c0.7-0.2,1.2-0.4,1.9-0.3c-0.2,0.3-0.8,1-0.7,1.4l0.1,0.2c0.5,0.7,1,1.5,1.7,2.1
		c1.2,1.1,2.5,1.9,4,2.5l1.8,0.7l0.2,0.1c0.5,0.3,1,0.5,1.1,1.1c0.1,0.4-0.1,0.9-0.3,1.3c-0.4,0.7-1.2,1.2-2,1.4
		c-1,0.2-1.9,0.1-2.9,0c-1-0.1-2-0.5-2.9-0.9c-0.3-0.1-0.6-0.3-1-0.5c-0.2-0.2-0.5-0.3-0.7-0.5c-0.4-0.2-0.8-0.5-1.1-0.9
		c-0.5-0.6-0.8-1.2-0.8-2l0,0l0.1-0.3l0.2-0.4c0.1-0.1,0.4-0.6,0.5-0.6l0.1,0.2l0,0c-0.3-0.8-0.5-1.7-0.4-2.5c0-0.3,0-0.5,0.1-0.8
		l0-0.1c0.1-0.3,0.2-0.7,0.5-0.9C16.2,56.1,16.3,56,16.4,55.9L16.4,55.9z"/>
	<path class="st9" d="M15.3,60.9c0.1-0.1,0.4-0.6,0.5-0.6l0.1,0.2l0,0c0.5,0.8,0.9,1.5,1.6,2.1c-0.5-0.3-0.9-0.6-1.3-1
		C15.9,61.4,15.6,61.2,15.3,60.9z"/>
	<path class="st5" d="M25.2,62.5l0.2,0.1c0.5,0.3,1,0.5,1.1,1.1c0.1,0.4-0.1,0.9-0.3,1.3c-0.4,0.7-1.2,1.2-2,1.4
		c-1,0.2-1.9,0.1-2.9,0c-1-0.1-2-0.5-2.9-0.9c-0.3-0.1-0.6-0.3-1-0.5c-0.2-0.2-0.5-0.3-0.7-0.5l0.2,0.1c0.1,0,0.2,0.1,0.3,0.1l0,0
		l0.1,0c0.1,0.1,0.2,0.1,0.3,0.2l0.5,0.2l0.1,0.1c0.1,0,0.1,0,0.2,0.1c0.1,0,0.2,0.1,0.3,0.1l0.2,0.1l0.1,0c0.1,0,0,0,0.1,0l0,0
		c0.1,0.1,0,0,0.1,0.1l0.1,0c0.1,0,0.2,0,0.3,0.1l0.1,0l0.1,0c0.1,0.1,0,0,0.2,0.1l0.1,0l0.1,0l0.2,0.1c0.1,0,0.1,0,0.2,0
		c0.1,0,0.1,0,0.2,0l0.1,0c0.1,0,0.2,0,0.3,0.1c0.1,0,0,0,0.1,0c0.1,0,0.1,0,0.2,0l0,0c0.1,0.1,0.2,0.1,0.3,0.1c0.1,0,0.1,0,0.2,0
		c0.1,0,0,0,0.1,0l0,0c0.1,0,0.2,0,0.3,0c0-0.1,0-0.1,0-0.2l-0.1,0c0-0.1,0-0.1,0-0.1l0,0l0,0c-0.1-0.1-0.1-0.2-0.2-0.3
		c0-0.1-0.1-0.2-0.1-0.3c0-0.1,0-0.1,0-0.2c-0.1,0-0.1,0-0.2,0l-1.1-0.4c-0.2-0.1-0.8-0.3-0.9-0.4c0.2,0,0.5,0.2,0.7,0.3
		c0.4,0.2,0.8,0.3,1.2,0.5c0.8,0.3,1.6,0.4,2.4,0.3c0.3,0,0.7-0.1,1-0.3c0.3-0.1,0.6-0.4,0.7-0.7l0,0c0.1-0.4-0.1-0.8-0.2-1.2
		C25.3,63,25.2,62.8,25.2,62.5L25.2,62.5z"/>
	<path class="st6" d="M31.7,40.7c0.3,0.6,0.6,1.2,1,1.8c0.6,0.8,1.2,1.5,1.8,2.3c1.4,1.4,3,2.7,4.8,3.7c0.7,0.4,1.5,0.7,2.2,1.2
		l1,2.4l0.4,1.2c0.1,0.2,0.2,0.5,0.2,0.7l0.1,0.2c0.1,0.2,0.3,0.4,0.4,0.7l0.2,0.3c0.3,0.6,0.7,1.1,1.1,1.7l0.5,0.8l0.2,0.3l0.4,0.6
		l0.2,0.2l0.1,0.2l0.4,0.6l0.4,0.6l0.2,0.3l0.3,0.5l1.6,2.6l1.9,3.2l0.3,0.5l0.1,0.1l0.3,0.6l0.5,1.1c-0.1,0-0.1,0-0.2,0l-1.3,0.2
		c-0.2-0.2-0.5-0.3-0.7-0.4l-3.9,1.8c-0.9,0.4-1.8,1-2.8,1.3l-0.1,0l0,0.8c-0.3-0.1-0.6-0.3-0.9-0.4l-1.9-0.9
		c-1.9-0.8-3.8-1.5-5.7-2.2l-0.2,0l-0.1,0.1l0,0.1l0,0l-4.6-3.8l0,0l0-0.1c0.4-1,0.2-1.6-0.1-2.6c-0.1-0.3-0.2-0.6-0.4-0.8
		c-0.1,0,0,0-0.1,0c0.4-0.6,1.1-1.5,1.1-2.2c-0.5,0.8-0.9,1.5-1.4,2.2c-0.2,0.2-0.4,0.5-0.7,0.6c-0.6,0.1-1.3,0-1.9-0.1
		c-0.3,0-0.6-0.2-1-0.1l-0.2-0.1l-1.8-0.7c-1.5-0.6-2.8-1.5-4-2.5l0.1-0.1c-0.7-0.6-1.4-1.5-1.8-2.3c0.2-0.6,0.7-1.2,1.1-1.6l0.1,0
		c0,0.4,0.1,0.7,0.3,1.1c0.1-0.1,0.1-0.6,0.2-0.8c0.1-0.4,0.2-0.7,0.4-1.1l1.1-2.4c0.6-1.2,1.2-2.4,1.9-3.5c0.4-0.6,1.1-1.4,1.9-1.5
		c0.1,0,0.1,0,0.2-0.1c-0.2-0.1-0.4-0.1-0.6-0.1c-0.9,0-1.3,0.4-1.9,1c0.1-0.9,0.1-2,0.6-2.7L23,45c0.3-0.2,0.7-0.2,1-0.1
		c0.2-0.5,1.9-1.3,2.4-1.6l0.1,0c0.4-0.1,0.8-0.5,1.1-0.7c0.5-0.3,1.1-0.5,1.5-0.9c-0.2-0.2-0.5-0.3-0.7-0.4c-0.3-0.1-0.4,0-0.7,0.1
		l-1.1,0.6c0.3-0.3,0.9-0.5,1.2-0.7c0.1-0.1,0.1-0.2,0.2-0.3c0.1-0.1,0.2-0.2,0.3-0.3c-0.1,0.1-0.3,0.2-0.3,0.4c0.1,0,0.1,0,0.1,0
		c0.3-0.1,0.5-0.1,0.8-0.1c0.1,0,0.3,0.1,0.4,0.2c0.1,0.1,0.1,0.1,0.2,0.2l0.1,0l0.4,0.3c0.1-0.1,0.3-0.2,0.4-0.3
		C30.8,41.3,31.3,41.1,31.7,40.7z"/>
	<path class="st7" d="M29.6,41.6L29.6,41.6l0.4,0.2c2.2,2,3.8,4.4,5.1,7l0.5,1.1c0.1,0.2,0.2,0.4,0.2,0.6c0.6,1.5,1.1,3,1.3,4.6
		c0.1,0.6,0.2,1.1,0.2,1.7c0.1,0.6,0.1,1.2,0.1,1.8l0,1.9c0,0.1,0,0.1-0.1,0.1l-0.1-0.1c-0.3,0.1-0.5,0.3-0.8,0.4
		c-0.7,0.4-1.5,0.6-2.2,0.9c-0.3,0.1-0.7,0.3-1,0.2l4-1.7l0-1.3l-0.1-1.6c-0.1-0.4-0.1-0.8-0.1-1.2l-0.3-1.7
		c-0.2-0.8-0.4-1.6-0.6-2.3l-0.5-1.5l0,0L35,49.2c-0.7-1.6-1.6-3.1-2.6-4.5c-0.1-0.2-0.3-0.5-0.5-0.7C31.2,43.1,30.4,42.3,29.6,41.6
		z"/>
	<path class="st2" d="M30.4,55.3L30.4,55.3c0.2,0.2,0.3,0.4,0.4,0.6l0.6,1c0.2,0.3,0.4,0.7,0.7,1c0.7,0.9,1.6,1.4,2.6,1.9
		c0.5,0.3,1.1,0.5,1.7,0.7c-0.2,0.2-0.4,0.2-0.6,0.4l-2.5-1.3c-0.4-0.2-0.8-0.5-1.2-0.8c-0.3-0.2-0.6-0.4-0.8-0.7
		c-0.2-0.3-0.3-0.8-0.4-1.2L30.4,55.3z"/>
	<path class="st4" d="M33.3,62.2c0.3,0,0.7-0.1,1-0.2c0.8-0.3,1.5-0.5,2.2-0.9c0.3-0.1,0.5-0.3,0.8-0.4l0.1,0.1
		c0.5,0.3,1.1,0.5,1.6,0.6l-2.3,4.2l-3,0.1c-0.1-0.7-0.2-1.5-0.3-2.3C33.4,62.9,33.3,62.5,33.3,62.2z"/>
	
		<linearGradient id="SVGID_00000039818705442236242710000003219868995505258139_" gradientUnits="userSpaceOnUse" x1="29.5589" y1="33.6089" x2="39.7514" y2="33.0412" gradientTransform="matrix(1 0 0 -1 0 84.3154)">
		<stop  offset="0" style="stop-color:#954F34"/>
		<stop  offset="1" style="stop-color:#CB816C"/>
	</linearGradient>
	<path style="fill:url(#SVGID_00000039818705442236242710000003219868995505258139_);" d="M31.7,40.7c0.3,0.6,0.6,1.2,1,1.8
		c0.6,0.8,1.2,1.5,1.8,2.3c0.1,0.5,0.4,1,0.7,1.4l1.3,2.4c1.8,3.7,2.7,7.8,2.8,12L39,61.3c-0.5-0.2-1.1-0.4-1.6-0.6
		c0.1-0.1,0.1-0.1,0.1-0.1l0-1.9c0-0.6,0-1.2-0.1-1.8c0-0.6-0.1-1.2-0.2-1.7c-0.3-1.6-0.8-3.1-1.3-4.6c0-0.2-0.2-0.4-0.2-0.6
		l-0.5-1.1c-1.3-2.6-2.9-5.1-5.1-7c0.1-0.1,0.3-0.2,0.4-0.3C30.8,41.3,31.3,41.1,31.7,40.7z"/>
	<path class="st4" d="M34.6,44.8c1.4,1.4,3,2.7,4.8,3.7c0.7,0.4,1.5,0.7,2.2,1.2l1,2.4l0.4,1.2c0.1,0.2,0.2,0.5,0.2,0.7
		c-0.2,0.3-0.4,0.7-0.6,1.1l-1.1,1.9l-2.1,3.7c-0.1-4.2-1-8.2-2.8-12l-1.3-2.4C35,45.8,34.7,45.3,34.6,44.8z"/>
	<path class="st4" d="M28.4,41.4c0.2-0.1,0.3-0.1,0.5-0.1c0.1,0.1,0.3,0.2,0.4,0.4c-0.1,0.1-0.1,0.1-0.2,0.1
		c0.3,0.2,0.6,0.5,0.9,0.8c0.6,0.6,1.1,1.2,1.6,1.8c0.2,0.3,0.4,0.6,0.7,0.8l0,0c0.1,0.2,0.3,0.5,0.5,0.7c0.4,0.7,0.8,1.4,1.2,2.1
		c1.9,3.7,3,7.8,3,12c-0.2,0.1-0.5,0.1-0.7,0.2c-0.6-0.2-1.1-0.5-1.7-0.7c-1-0.5-1.9-1-2.6-1.9c-0.2-0.3-0.5-0.6-0.7-1l-0.6-1
		c-0.1-0.2-0.2-0.4-0.4-0.5l-0.1,0l-0.5-1.4c-0.1-0.3-0.2-0.5-0.2-0.7c-0.6-1.5-1.3-3-2.2-4.4c-0.9-1.5-1.9-3-3.5-3.8
		c0.2-0.5,1.9-1.3,2.4-1.6l0.1,0c0.4-0.1,0.8-0.5,1.1-0.7c0.5-0.3,1.1-0.5,1.5-0.9C28.9,41.7,28.6,41.5,28.4,41.4z"/>
	<path class="st5" d="M24,44.9c0.2-0.5,1.9-1.3,2.4-1.6l0.1,0c0,0,0,0.1,0.1,0.1c0.1,0.1,0.5,0.2,0.6,0.3c0.6,0.3,1.3,0.7,1.8,1.2
		c0.5,0.5,0.9,1.2,1.2,1.8c1.4,2.6,2.3,5.4,2.7,8.3c0.1,1,0.3,2.1,0.3,3.1c-0.5-0.6-1-1.1-1.4-1.7c-0.4-0.5-0.8-1.1-1.1-1.7
		c-0.3-0.6-0.6-1.2-0.9-1.7c-0.6-1.5-1.3-3-2.2-4.4C26.6,47.2,25.6,45.8,24,44.9z"/>
	<path class="st3" d="M24.9,46.9c0.2,0.1,0.4,0.2,0.6,0.3c0.2,0,0.3,0.1,0.4,0.2l0.1,0c0.1,0.1,0.3,0.2,0.4,0.4
		c0.5,0.6,0.9,1.4,1.3,2.1c0.9,1.7,1.6,3.5,2.1,5.4c0.3,1.1,0.6,2.2,0.6,3.3c0,0.4,0.1,0.8,0.1,1.2c0,0.1,0,0.2-0.1,0.3
		c-0.5,0.8-0.9,1.5-1.4,2.2c-0.2,0.2-0.4,0.5-0.7,0.6c-0.6,0.1-1.3,0-1.9-0.1c-0.3,0-0.6-0.2-1-0.1l-0.2-0.1l-1.8-0.7
		c-1.5-0.6-2.8-1.5-4-2.5l0.1-0.1c-0.7-0.6-1.4-1.5-1.8-2.3c0.2-0.6,0.7-1.2,1.1-1.6l0.1,0c0,0.4,0.1,0.7,0.3,1.1
		c0.1-0.1,0.1-0.6,0.2-0.8c0.1-0.4,0.2-0.7,0.4-1.1l1.1-2.4c0.6-1.2,1.2-2.4,1.9-3.5c0.4-0.6,1.1-1.4,1.9-1.5
		C24.8,47,24.8,47,24.9,46.9z"/>
	<path class="st1" d="M18.8,55.3L18.8,55.3c0.1,0.4,0.2,0.7,0.4,1c1.3,2,4.2,4,6.5,4.5c0.2,0,0.3,0,0.5,0.1c-0.1,0-0.2,0-0.3,0.1
		c-0.3,0.2-0.7,0.3-1,0.4c-0.9,0.1-1.9-0.2-2.7-0.5c-0.2-0.1-0.5-0.1-0.7-0.3c-0.8-0.4-1.5-0.8-2.1-1.3c-0.7-0.6-1.4-1.5-1.8-2.3
		C17.9,56.4,18.4,55.7,18.8,55.3z"/>
	<path class="st9" d="M18.8,55.3c-0.1,0.1-0.1,0.3,0,0.5c0.1,0.4,0.4,0.8,0.6,1.1c0.2,0.4,0.3,0.7,0.4,1.1c0.2,0.4,0.4,0.8,0.7,1.2
		c0.4,0.5,0.9,0.8,1.1,1.3c-0.8-0.4-1.5-0.8-2.1-1.3c-0.7-0.6-1.4-1.5-1.8-2.3C17.9,56.4,18.4,55.7,18.8,55.3z"/>
	<path class="st4" d="M25.5,47.2c0.2,0,0.3,0.1,0.4,0.2l0.1,0c0.1,0.1,0.3,0.2,0.4,0.4c0.5,0.6,0.9,1.4,1.3,2.1
		c0.9,1.7,1.6,3.5,2.1,5.4c0.3,1.1,0.6,2.2,0.6,3.3c0,0.4,0.1,0.8,0.1,1.2c0,0.1,0,0.2-0.1,0.3c-0.5,0.8-0.9,1.5-1.4,2.2
		c-0.2,0.2-0.4,0.5-0.7,0.6c-0.6,0.1-1.3,0-1.9-0.1c-0.3,0-0.6-0.2-1-0.1l-0.2-0.1l-1.8-0.7c-1.5-0.6-2.8-1.5-4-2.5l0.1-0.1
		c0.6,0.5,1.3,1,2.1,1.3c0.2,0.1,0.4,0.2,0.7,0.3c0.8,0.3,1.8,0.7,2.7,0.5c0.3-0.1,0.7-0.2,1-0.4c0.1-0.1,0.2-0.1,0.3-0.1
		c0.1,0,0.2-0.1,0.3-0.2c0.1-0.1,0.1-0.2,0.1-0.3c0-0.3-0.1-0.7-0.1-1.1l-1-5.4c-0.2-0.7-0.4-1.5-0.5-2.2c0.2,0.4,0.3,0.8,0.5,1.2
		c0.3,0.9,0.7,1.7,1.1,2.6c0.2,0.5,0.6,1.1,1,1.4c0.1,0.1,0.3,0.1,0.5,0.1c0.2-0.1,0.4-0.3,0.5-0.5c0.2-0.4,0.6-1.3,0.5-1.8l-0.3-1
		c-0.5-1.6-1-3.2-1.8-4.6C26.5,48.4,26.1,47.8,25.5,47.2z"/>
	<path class="st11" d="M39.3,60.6l2.1-3.7l1.1-1.9c0.2-0.3,0.3-0.8,0.6-1.1l0.1,0.2c0.1,0.2,0.3,0.4,0.4,0.7l0.2,0.3
		c0.3,0.6,0.7,1.1,1.1,1.7l0.5,0.8l0.2,0.3l0.4,0.6l0.2,0.2l0.1,0.2l0.4,0.6l0.4,0.6l0.2,0.3l0.3,0.5l1.6,2.6l1.9,3.2l0.3,0.5
		l0.1,0.1l0.3,0.6l0.5,1.1c-0.1,0-0.1,0-0.2,0l-1.3,0.2c-0.2-0.2-0.5-0.3-0.7-0.4l-3.9,1.8c-0.9,0.4-1.8,1-2.8,1.3l-0.1,0l0,0.8
		c-0.3-0.1-0.6-0.3-0.9-0.4l-1.9-0.9c-1.9-0.8-3.8-1.5-5.7-2.2l-0.2,0l1.2-2.2l0.9-1.6l2.3-4.2L39.3,60.6z"/>
	<path class="st2" d="M43.3,65.7l6.8,3.1l-3.9,1.8c-0.9,0.4-1.8,1-2.8,1.3l-0.1,0c-0.1-0.7,0-1.5,0-2.2L43.3,65.7z"/>
	<path class="st8" d="M43.1,54.1c0.1,0.2,0.3,0.4,0.4,0.7c0,0.1,0,0.1,0,0.2c0.1,0.3,0.3,0.6,0.4,0.8l0.9,2l4.8,10.2
		c-0.1,0-0.3-0.1-0.4-0.2l-0.8-0.4L46,66.3l-1.6-0.7c-0.4-0.2-0.8-0.4-1.2-0.4l-0.2-10.7L43.1,54.1z"/>
	<path class="st3" d="M35.4,69L35.4,69c0.2-0.1,0.3-0.4,0.3-0.5l0.6-1l4.5-8.1c0.6-1.2,1.3-2.3,1.9-3.5c0.2-0.5,0.4-0.9,0.4-1.4
		l0.1,0l0.2,10.7l0,0l0,0.6c-0.6,0.2-1.2,0.5-1.8,0.7l-3.8,1.7c-0.6,0.3-1.2,0.6-1.9,0.8C35.6,69,35.5,69.1,35.4,69z"/>
	<path class="st6" d="M14.9,61.7c0-0.1,0-0.2,0-0.3c-0.1-0.3-0.3-0.7-0.5-1l-1.4-2.6L9,50L8.6,51l0,0c-0.2-0.2-0.3-0.5-0.4-0.8
		l-0.8-1.6l-3.2-6l4.5-8c0.4,0.6,0.7,1.4,1,2.1c0.1,0.2,0.2,0.4,0.3,0.6l6.6-13.3l1.4-2.9l0.5-1c0.1-0.2,0.2-0.4,0.3-0.5
		c0.2-0.2,0.6-0.4,0.9-0.6l2-1.3L32,11.2l3.6-2.3c0.4-0.3,1-0.5,1.4-0.9c0.2-0.2,0.4-0.4,0.5-0.7l0.6-0.9l2.7-3.6
		c0.5-0.7,1-1.5,1.6-2.2l1.5,2l0,0.2l4.1,5.5l-3.3,0c-0.8,0-1.5,0-2.3,0c-0.6,0.1-5.2,0.1-5.4,0c-0.2,0.3-0.4,0.7-0.6,1l-1,1.8
		c-0.6,1.1-1.3,2.1-1.7,3.2l-0.2,0.2l-0.2,0.2c-0.4,0.3-0.8,0.8-1.1,1.3c-0.1,0.1-0.2,0.3-0.3,0.5c-0.5,0.9-1,1.9-1.1,3
		c0,0.2-0.1,0.4-0.1,0.6l0,0.1l0,0.1l0.1,0.6l0.1,0.5c0,0.1,0,0.2,0.1,0.2c0.1-0.3,0-0.7,0-1c0.2-0.2,0.2-0.5,0.3-0.8
		c0.2-0.4,0.4-0.8,0.6-1.2c0.1-0.1,0.4-0.3,0.5-0.5c0-0.2,0.1-0.3,0.2-0.5c0.1-0.1,0.1-0.1,0.2-0.2l-0.4,1.1
		c-0.1,0.2-0.1,0.4-0.2,0.5c-0.2,0.9-0.5,1.8-0.6,2.7c0,0.3,0,0.7,0,1c0,0.3,0,0.7,0.1,1l0,0.1c0,0.1,0.1,0.2,0.1,0.3
		c0.1,0,0.1,0.1,0.2,0.1c-0.3,0.4-0.5,1-0.6,1.5l0,0.1c-0.2,1.2,0.3,2.3,1,3.3l0.2,0.4c0.3,0.5,0.6,0.9,1,1.3
		c0.3,0.3,0.6,0.5,0.9,0.7c0.4,0.2,1.2,0.6,1.3,1.1l0,0.1l0,0l0,0.3c-0.1-0.1-0.1-0.2-0.1-0.3c-0.5-0.1-1.2-0.1-1.7,0l-0.1,0
		c-0.2,0.1-0.4,0.1-0.5,0.3c-0.3,0.1-0.5,0.3-0.7,0.5c-0.1,0.2-0.3,0.4-0.5,0.5c-0.1,0.1-0.2,0.3-0.3,0.4c-0.4,0.6-0.6,1.2-0.8,1.9
		c-0.1,0.7-0.2,1.5,0,2.2c0,0.2,0.1,0.3,0.1,0.5L31,39.3l0.1,0c0.1,0.3,0.2,0.6,0.3,0.9l0.3,0.6c-0.4,0.3-0.9,0.5-1.3,0.8
		c-0.1,0.1-0.3,0.1-0.4,0.3l-0.4-0.3l-0.1,0c-0.1-0.1-0.1-0.1-0.2-0.2c-0.1-0.1-0.3-0.1-0.4-0.2c-0.3,0-0.5-0.1-0.8,0.1
		c-0.1,0,0,0-0.1,0c0-0.2,0.2-0.3,0.3-0.4c-0.1,0.1-0.3,0.1-0.3,0.3c0,0.1-0.1,0.2-0.2,0.3c-0.3,0.3-0.9,0.4-1.2,0.7l1.1-0.6
		c0.2-0.1,0.4-0.2,0.7-0.1c0.2,0.1,0.5,0.2,0.7,0.4c-0.5,0.3-1,0.6-1.5,0.9c-0.3,0.2-0.7,0.5-1.1,0.7l-0.1,0
		c-0.5,0.3-2.2,1.1-2.4,1.6c-0.3-0.1-0.7-0.1-1,0.1l-0.1,0.1c-0.5,0.7-0.5,1.9-0.6,2.7c0.6-0.6,1.1-1,1.9-1c0.2,0,0.4,0,0.6,0.1
		C24.8,47,24.8,47,24.7,47c-0.8,0.1-1.5,0.9-1.9,1.5c-0.7,1.1-1.3,2.3-1.9,3.5l-1.1,2.4c-0.1,0.3-0.3,0.7-0.4,1.1
		c-0.1,0.2-0.1,0.7-0.2,0.8c-0.2-0.4-0.3-0.6-0.3-1.1l-0.1,0c-0.4,0.4-0.9,1.1-1.1,1.6c0.5,0.8,1.1,1.7,1.8,2.3l-0.1,0.1
		c-0.7-0.6-1.1-1.4-1.7-2.1L17.6,57c-0.1-0.4,0.5-1.1,0.7-1.4c-0.7-0.1-1.3,0-1.9,0.3l0,0c-0.1,0.1-0.2,0.2-0.3,0.3
		c-0.2,0.3-0.4,0.6-0.5,0.9l0,0.1c-0.1,0.2-0.1,0.5-0.1,0.8c-0.1,0.9,0.1,1.7,0.4,2.5l0,0l-0.1-0.2c-0.1,0.1-0.4,0.5-0.5,0.6
		l-0.2,0.4L14.9,61.7z"/>
	<path class="st7" d="M10.4,38.6c-0.1-0.2-0.4-0.7-0.5-1l8.8-17.8c0.1,0,0.4,0.2,0.5,0.3l0.1,0.1c-0.1,0.5-0.4,1-0.6,1.5l-1.6,3.1
		L12.7,34l-1.7,3.4C10.8,37.8,10.6,38.2,10.4,38.6z"/>
	<path class="st3" d="M36.9,8.4c0.4-0.7,1-1.4,1.5-2l2.8-3.8c0.2-0.3,1-1.5,1.2-1.6l0,7.5C41.8,8.5,37.1,8.5,36.9,8.4z"/>
	<path class="st5" d="M42.4,1c0.2,0.2,0.4,0.5,0.6,0.7l0.9,1.2l4.1,5.5l-3.3,0c-0.8,0-1.5,0-2.3,0L42.4,1z"/>
	<path class="st7" d="M4.3,42.8L4.3,42.8l7.2,0c-0.1,0.2-0.2,0.5-0.3,0.8l-1.5,4l-0.4,1.2c-0.3,0.7-0.6,1.4-0.8,2.1L4.3,42.8z"/>
	<path class="st5" d="M4.3,42.8c0.1-0.3,0.3-0.6,0.4-0.8l0.7-1.3L8.6,35l2.6,6.2l0.4,1.4c0.1,0.3,0.2,0.7,0.4,0.9
		c0.5,1.2,1.1,2.3,1.7,3.4l3.1,6l1,1.9c0.1,0.1,0.2,0.4,0.3,0.5c0,0,0,0.1,0,0.1l-0.6,0l-6.2-12c0-0.2,0.2-0.5,0.3-0.8L4.3,42.8
		L4.3,42.8z"/>
	<path class="st4" d="M11.2,43.5l6.2,12l0.6,0l-0.6,0c-0.1,0-0.2,0-0.4,0.1l-0.1,0c-0.2,0-0.5,0.2-0.6,0.3c0,0-0.1,0-0.1,0
		c-0.4,0.2-0.6,0.8-0.8,1.2c0,0.1-0.1,0.2-0.1,0.3l0,0.3c-0.1,0.4-0.1,0.8,0,1.1l0,0.1L9.7,48c0.1-0.2,0.1-0.3,0.1-0.4l0,0
		L11.2,43.5z"/>
	<path class="st3" d="M19.3,20.1l-0.5-0.3l18-11.4c-0.1,0.3-0.4,0.7-0.6,1l-1.7,3.1c-0.2,0.3-0.5,0.7-0.6,1l0,0l-12.4,8.1l-0.1,0.3
		c-0.7-0.4-1.4-1-2-1.5L19.3,20.1L19.3,20.1z"/>
	<path class="st4" d="M19.3,20.1l2.1,1.5l-0.1,0.3c-0.7-0.4-1.4-1-2-1.5L19.3,20.1L19.3,20.1z"/>
	<path class="st9" d="M19.4,20.2c0.6,0.5,1.3,1.1,2,1.5l0.2,0.2c0,0.3-0.3,0.6-0.4,0.8l-0.7,1.4l-5.2,10.7l-2.6,5.5l-0.7,1.5
		c-0.1,0.3-0.2,0.5-0.4,0.8l-0.4-1.4c0-0.2-0.1-0.5-0.1-0.7c-0.2-0.7-0.4-1.3-0.7-2c0.2-0.4,0.4-0.8,0.6-1.2l1.7-3.4l4.6-9.2
		l1.6-3.1C19,21.2,19.3,20.7,19.4,20.2z"/>
	<path class="st2" d="M21.5,21.5l12.4-8.1c-0.1,0.3-0.6,0.9-0.5,1.2l-0.2,0.2c-0.4,0.3-0.8,0.8-1.1,1.3c-0.1,0.1-0.2,0.3-0.3,0.5
		c-0.5,0.9-1,1.9-1.1,3c-0.9,0.5-1.8,1.1-2.7,1.7l-3.6,2.3l-0.9,0.6c-0.1,0.1-0.4,0.2-0.5,0.3c-0.2,0.2-0.4,0.7-0.5,1l-1.2,2.4
		l-5.8,11.8l-0.9,1.9c-0.2,0.4-0.5,0.9-0.6,1.4l0,0.1l0,0.1c0,0.2,0,0.4,0,0.6c0.2,0.6,0.6,1.2,0.9,1.7l1.6,3l2.3,4.5l0.7,1.3
		l0.6-1.3c0.1-0.2,0.2-0.5,0.3-0.6l0,0l-1.4,3.1l-0.1,0c-0.4,0.4-0.9,1.1-1.1,1.6c0.5,0.8,1.1,1.7,1.8,2.3l-0.1,0.1
		c-0.7-0.6-1.1-1.4-1.7-2.1L17.6,57c-0.1-0.4,0.5-1.1,0.7-1.4c-0.7-0.1-1.3,0-1.9,0.3c0.1-0.1,0.4-0.2,0.6-0.3l0.1,0
		c0.1,0,0.2-0.1,0.4-0.1l0.6,0c0,0,0-0.1,0-0.1c0-0.2-0.2-0.4-0.3-0.5l-1-1.9l-3.1-6c-0.6-1.1-1.2-2.2-1.7-3.4
		c-0.2-0.2-0.3-0.6-0.4-0.9c0.2-0.2,0.3-0.5,0.4-0.8l0.7-1.5l2.6-5.5l5.2-10.7l0.7-1.4c0.1-0.2,0.3-0.6,0.4-0.8l-0.2-0.2L21.5,21.5z
		"/>
	<path class="st1" d="M21.5,21.5l12.4-8.1c-0.1,0.3-0.6,0.9-0.5,1.2l-0.2,0.2c-0.4,0.3-0.8,0.8-1.1,1.3c-0.1,0.1-0.2,0.3-0.3,0.5
		c-0.2,0-0.3,0.2-0.5,0.3L30,17.7l-5,3.2l-2,1.3c-0.1,0.1-0.2,0.2-0.3,0.3l-10.5,21l-0.1,0l0,0c-0.2-0.2-0.3-0.6-0.4-0.9
		c0.2-0.2,0.3-0.5,0.4-0.8l0.7-1.5l2.6-5.5l5.2-10.7l0.7-1.4c0.1-0.2,0.3-0.6,0.4-0.8l-0.2-0.2L21.5,21.5z"/>
	<path class="st11" d="M31.8,18.7c0.1-0.1,0.4-0.3,0.5-0.5c0-0.2,0.1-0.3,0.2-0.5c0.1-0.1,0.1-0.1,0.2-0.2l-0.4,1.1
		c-0.1,0.2-0.1,0.4-0.2,0.5c-0.2,0.9-0.5,1.8-0.6,2.7c0,0.3,0,0.7,0,1c0,0.3,0,0.7,0.1,1l0,0.1c0,0.1,0.1,0.2,0.1,0.3
		c0.1,0,0.1,0.1,0.2,0.1c-0.3,0.4-0.5,1-0.6,1.5l0,0.1c-0.2,1.2,0.3,2.3,1,3.3l0.2,0.4c0.3,0.5,0.6,0.9,1,1.3
		c0.3,0.3,0.6,0.5,0.9,0.7c0.4,0.2,1.2,0.6,1.3,1.1l0,0.1l0,0l0,0.3c-0.1-0.1-0.1-0.2-0.1-0.3c-0.5-0.1-1.2-0.1-1.7,0l-0.1,0
		c-0.2,0.1-0.4,0.1-0.5,0.3c-0.3,0.1-0.5,0.3-0.7,0.5c-0.1,0.2-0.3,0.4-0.5,0.5c-0.1,0.1-0.2,0.3-0.3,0.4c-0.4,0.6-0.6,1.2-0.8,1.9
		c-0.1,0.7-0.2,1.5,0,2.2c0,0.2,0.1,0.3,0.1,0.5L31,39.3l0.1,0c0.1,0.3,0.2,0.6,0.3,0.9l0.3,0.6c-0.4,0.3-0.9,0.5-1.3,0.8
		c-0.1,0.1-0.3,0.1-0.4,0.3l-0.4-0.3l-0.1,0c-0.1-0.1-0.1-0.1-0.2-0.2c-0.1-0.1-0.3-0.1-0.4-0.2c-0.3,0-0.5-0.1-0.8,0.1
		c-0.1,0,0,0-0.1,0c0-0.2,0.2-0.3,0.3-0.4c-0.1,0.1-0.3,0.1-0.3,0.3c0,0.1-0.1,0.2-0.2,0.3c-0.3,0.3-0.9,0.4-1.2,0.7l1.1-0.6
		c0.2-0.1,0.4-0.2,0.7-0.1c0.2,0.1,0.5,0.2,0.7,0.4c-0.5,0.3-1,0.6-1.5,0.9c-0.3,0.2-0.7,0.5-1.1,0.7l-0.1,0
		c-0.5,0.3-2.2,1.1-2.4,1.6c-0.3-0.1-0.7-0.1-1,0.1l-0.1,0.1c-0.5,0.7-0.5,1.9-0.6,2.7c0.6-0.6,1.1-1,1.9-1c0.2,0,0.4,0,0.6,0.1
		C24.8,47,24.8,47,24.7,47c-0.8,0.1-1.5,0.9-1.9,1.5c-0.7,1.1-1.3,2.3-1.9,3.5l-1.1,2.4c-0.1,0.3-0.3,0.7-0.4,1.1
		c-0.1,0.2-0.1,0.7-0.2,0.8c-0.2-0.4-0.3-0.6-0.3-1.1l1.4-3.1l0,0c-0.1,0.1-0.2,0.4-0.3,0.6l-0.6,1.3l-0.7-1.3l-2.3-4.5l-1.6-3
		c-0.3-0.5-0.7-1.2-0.9-1.7c-0.1-0.2-0.1-0.4,0-0.6l0-0.1l0-0.1c0.1-0.5,0.4-0.9,0.6-1.4l0.9-1.9l5.8-11.8l1.2-2.4
		c0.1-0.3,0.3-0.7,0.5-1c0.1-0.1,0.3-0.2,0.5-0.3l0.9-0.6l3.6-2.3c0.9-0.6,1.8-1.2,2.7-1.7c0,0.2-0.1,0.4-0.1,0.6l0,0.1l0,0.1
		l0.1,0.6l0.1,0.5c0,0.1,0,0.2,0.1,0.2c0.1-0.3,0-0.7,0-1c0.2-0.2,0.2-0.5,0.3-0.8C31.3,19.5,31.6,19.1,31.8,18.7z"/>
	<path class="st1" d="M18.5,50.9c0.3,0.5,0.5,1.1,0.9,1.6c0,0.1,0,0,0.1,0.1c0,0.1,0,0,0.1,0.1c0.1,0,0.3-0.1,0.4-0.2
		c0.1-0.1,0.1-0.2,0.2-0.3c0-0.1,0-0.1,0.1-0.2c0-0.1,0.1-0.2,0.1-0.3c0.1-0.2,0,0,0.1-0.1c0-0.1,0,0,0-0.1c0,0,0-0.1,0.1-0.1
		c0.1-0.1,0.1-0.2,0.1-0.3l0-0.1c0-0.1,0.1-0.1,0.1-0.2l0-0.1c0.1-0.1,0,0,0.1-0.1c0.1-0.2,0.1-0.3,0.2-0.5l0-0.1
		c0-0.1,0.1-0.1,0.1-0.2l0,0c0-0.1,0-0.1,0.1-0.2l0-0.1l0,0c0.1-0.1,0.1-0.2,0.2-0.3l0,0c0,0,0.1-0.1,0.1-0.1l0-0.1
		c0-0.1,0.1-0.1,0.1-0.2l0-0.1c0-0.1,0.1-0.2,0.1-0.2c0.1-0.1,0.1-0.2,0.2-0.3l0,0c0.1-0.1,0.1-0.1,0.1-0.2V48c0-0.1,0-0.1,0-0.2
		l0,0c0.1-0.2,0-0.3,0-0.5c0-0.2,0-0.5,0.1-0.7c0.1-0.2,0-0.5,0.1-0.7c0-0.1,0,0,0-0.1c0-0.1,0-0.1,0-0.2l0.1-0.3
		c0-0.1,0.1-0.2,0.1-0.4c0.1-0.1,0.1-0.2,0.2-0.2L22.6,45c-0.3,0.6-0.4,1.7-0.4,2.4c0,0.2,0.1,0.5,0,0.6c0,0.1-0.1,0.2-0.2,0.3
		L21.7,49l-1.4,3.1l0,0c-0.1,0.1-0.2,0.4-0.3,0.6l-0.6,1.3l-0.7-1.3c0.3,0.2,0.4,0.8,0.7,1.1l0-0.1c0-0.1,0.1-0.1,0.1-0.2
		c0-0.1,0.1-0.3,0.2-0.4l-0.1-0.1C19.3,52.4,18.7,51.7,18.5,50.9L18.5,50.9z"/>
	<path class="st3" d="M31,39.3l0.1,0c0.1,0.3,0.2,0.6,0.3,0.9l0.3,0.6c-0.4,0.3-0.9,0.5-1.3,0.8c-0.1,0.1-0.3,0.1-0.4,0.3l-0.4-0.3
		l-0.1,0c-0.1-0.1-0.1-0.1-0.2-0.2c-0.1-0.1-0.3-0.1-0.4-0.2c-0.3,0-0.5-0.1-0.8,0.1c-0.1,0,0,0-0.1,0c0-0.2,0.2-0.3,0.3-0.4
		c0.4-0.2,0.7-0.4,1-0.6C29.9,39.9,30.5,39.6,31,39.3z"/>
	<path class="st9" d="M29.4,41.4c0.4,0,1.7-0.9,2.1-1.2l0.3,0.6c-0.4,0.3-0.9,0.5-1.3,0.8c-0.1,0.1-0.3,0.1-0.4,0.3l-0.4-0.3l-0.1,0
		C29.5,41.5,29.4,41.5,29.4,41.4z"/>
	<path class="st6" d="M32.5,29.7c0.3,0.5,0.6,0.9,1,1.3c0.3,0.3,0.6,0.5,0.9,0.7c0.4,0.2,1.2,0.6,1.3,1.1l0,0.1l0,0l0,0.3
		c-0.1-0.1-0.1-0.2-0.1-0.3c-0.5-0.1-1.2-0.1-1.7,0l-0.1,0c-0.2,0.1-0.4,0.1-0.5,0.3c-0.3,0.1-0.5,0.3-0.7,0.5
		c0.2-0.3,0.6-0.6,0.9-0.9c-1.1-0.7-2.1-1.1-3.4-1.2L32.5,29.7z"/>
	
		<linearGradient id="SVGID_00000134218078927776235270000014812720756517121466_" gradientUnits="userSpaceOnUse" x1="21.6236" y1="36.2504" x2="23.8927" y2="35.411" gradientTransform="matrix(1 0 0 -1 0 84.3154)">
		<stop  offset="0" style="stop-color:#FFFAD6"/>
		<stop  offset="1" style="stop-color:#FEFFFE"/>
	</linearGradient>
	<path style="fill:url(#SVGID_00000134218078927776235270000014812720756517121466_);" d="M26.7,42.1l1.1-0.6
		c0.2-0.1,0.4-0.2,0.7-0.1c0.2,0.1,0.5,0.2,0.7,0.4c-0.5,0.3-1,0.6-1.5,0.9c-0.3,0.2-0.7,0.5-1.1,0.7l-0.1,0
		c-0.5,0.3-2.2,1.1-2.4,1.6c-0.3-0.1-0.7-0.1-1,0.1l-0.1,0.1c-0.5,0.7-0.5,1.9-0.6,2.7c0.6-0.6,1.1-1,1.9-1c0.2,0,0.4,0,0.6,0.1
		C24.8,47,24.8,47,24.7,47c-0.8,0.1-1.5,0.9-1.9,1.5c-0.7,1.1-1.3,2.3-1.9,3.5l-1.1,2.4c-0.1,0.3-0.3,0.7-0.4,1.1
		c-0.1,0.2-0.1,0.7-0.2,0.8c-0.2-0.4-0.3-0.6-0.3-1.1l1.4-3.1l1.4-3.1l0.4-0.7c0-0.1,0.1-0.2,0.2-0.3c0-0.1,0-0.5,0-0.6
		c0-0.7,0.1-1.8,0.4-2.4l0.1-0.2l0.1,0c0.1-0.3,0.7-0.5,0.9-0.7l2-1.3C26,42.6,26.4,42.4,26.7,42.1z"/>
	<path class="st3" d="M26.7,42.1l1.1-0.6c0.2-0.1,0.4-0.2,0.7-0.1c0.2,0.1,0.5,0.2,0.7,0.4c-0.5,0.3-1,0.6-1.5,0.9
		c-0.3,0.2-0.7,0.5-1.1,0.7l-0.1,0c-0.5,0.3-2.2,1.1-2.4,1.6c-0.3-0.1-0.7-0.1-1,0.1l-0.1,0.1l0-0.1l-0.1,0.1L22.8,45l0,0.1l-0.1,0
		c0,0.1,0,0.1,0,0.1l0,0.1l0,0.1c-0.1,0.1,0,0-0.1,0.1l-0.1,0.3l0,0.1c0,0.1,0,0.2,0,0.2c0,0.1,0,0.2,0,0.2c0,0.1-0.1,0.2,0,0.3l0,0
		c0,0.1-0.1,0.3,0,0.4l0,0c-0.1,0.1,0,0.3-0.1,0.5l-0.1-0.1c0-0.3,0-0.6,0-0.8l0-0.3c0-0.1,0-0.1,0-0.2c0-0.2,0.1-0.3,0.1-0.5
		c0-0.3,0.1-0.6,0.3-0.9l0.1-0.1l0-0.1l0,0c0.1-0.3,0.7-0.5,0.9-0.7l2-1.3C26,42.6,26.4,42.4,26.7,42.1z"/>
	<path class="st6" d="M31.8,18.7c0.1-0.1,0.4-0.3,0.5-0.5c0-0.2,0.1-0.3,0.2-0.5c0.1-0.1,0.1-0.1,0.2-0.2l-0.4,1.1
		c-0.1,0.2-0.1,0.4-0.2,0.5c-0.2,0.9-0.5,1.8-0.6,2.7c0,0.3,0,0.7,0,1c0,0.3,0,0.7,0.1,1l0,0.1c0,0.1,0.1,0.2,0.1,0.3
		c0.1,0,0.1,0.1,0.2,0.1c-0.3,0.4-0.5,1-0.6,1.5l0,0.1c-0.2,1.2,0.3,2.3,1,3.3c-0.4-0.1-0.8-0.3-1.2-0.4c-1.2-0.4-2.3-0.6-3.6-0.6
		l2.4-1.5c-0.9-0.7-1.7-1.4-2.7-2c-0.4-0.2-0.9-0.4-1.3-0.6c1.5-0.2,3.1-0.4,4.6-0.8c0.2,0,0.5-0.1,0.7-0.2l0,0
		c-0.3-0.6-0.3-1.4-0.4-2l0.1,0l0.1,0.5c0,0.1,0,0.2,0.1,0.2c0.1-0.3,0-0.7,0-1c0.2-0.2,0.2-0.5,0.3-0.8
		C31.3,19.5,31.6,19.1,31.8,18.7z"/>
	
		<linearGradient id="SVGID_00000046332989356080643780000005097078392470784183_" gradientUnits="userSpaceOnUse" x1="29.6924" y1="44.0579" x2="17.8241" y2="53.1107" gradientTransform="matrix(1 0 0 -1 0 84.3154)">
		<stop  offset="0" style="stop-color:#6F94AA"/>
		<stop  offset="1" style="stop-color:#DDF8FF"/>
	</linearGradient>
	<path style="fill:url(#SVGID_00000046332989356080643780000005097078392470784183_);" d="M16.4,48.4l-1.6-3
		c-0.3-0.5-0.7-1.2-0.9-1.7c-0.1-0.2-0.1-0.4,0-0.6l0-0.1l0-0.1c0.1-0.5,0.4-0.9,0.6-1.4l0.9-1.9l5.8-11.8l1.2-2.4
		c0.1-0.3,0.3-0.7,0.5-1c0.1-0.1,0.3-0.2,0.5-0.3l0.9-0.6l3.6-2.3c0.9-0.6,1.8-1.2,2.7-1.7c0,0.2-0.1,0.4-0.1,0.6l0,0.1l0,0.1
		c-0.6,0.2-1.1,0.6-1.6,1l-3,2l-1.7,1.1c-0.2,0.1-0.5,0.3-0.7,0.4c-0.1,0.2-0.2,0.4-0.3,0.6l-0.6,1.1l-2.5,4.9l-3.4,6.8L15.5,41
		c-0.2,0.5-0.5,1-0.7,1.5c-0.1,0.4-0.2,0.7-0.1,1.1l0,0c0.2,0.5,0.6,1.1,0.8,1.6l0.8,1.6c0.2,0.4,0.4,0.7,0.5,1.1l0.4,0.8l0-0.1
		l-0.2-0.4l0-0.1c0.1,0,1.3,2.4,1.4,2.6l0,0l0,0c0.2,0.8,0.8,1.4,1,2.2l0.1,0.1c-0.1,0.1-0.1,0.3-0.2,0.4c0,0.1-0.1,0.1-0.1,0.2
		l0,0.1c-0.3-0.3-0.3-0.8-0.7-1.1L16.4,48.4z"/>
	<path class="st4" d="M33.6,14.4c0.5-1.1,1.1-2.2,1.7-3.2l1-1.8c0.2-0.3,0.4-0.7,0.6-1c0.2,0.1,4.9,0.1,5.4,0c0.8-0.1,1.5,0,2.3,0
		l3.3,0c0.2,0.3,0.6,0.8,0.7,1.2c0,0.4,0,1.3,0.2,1.6l0,0c0.1,0.1,0.1,0.1,0.1,0.2l0.2,0.1L50,12c0,0.1-0.1,0.2-0.2,0.3
		c0,0.1-0.1,0.2,0,0.2c0.1,0.1,0.4,0.2,0.6,0.2c0.8,0.2,1.6,0.4,2.4,0.5c1.4,0.2,2.8,0.2,4.2,0.1c0.3,0,0.7-0.1,1-0.2l0.3,0l0,0
		l-0.9,1l5.9,3.5l2.2,1.3c0.3,0.2,0.6,0.4,0.9,0.6l-0.1,0l9,17.4l-0.3,0.8l-1.3,3.9l-0.3,0.8c0,0.2-0.1,0.4-0.2,0.6
		c0,0,0,0.1,0.1,0.1l-9.1,19.5l-0.1,0l-0.2-0.1c0.2-0.2,0.2-0.5,0.2-0.8c0-0.1,0-0.3,0.1-0.4c0-0.1,0-0.2,0-0.4c0-0.1,0-0.3,0-0.3
		c0-0.1,0.2-0.2,0.3-0.3c0.2-0.3,0.3-0.6,0.5-0.9l0-0.1L65,59l0-0.1c0.3-1,0.5-1.9,0.7-2.9c0-0.3,0.1-0.6,0.1-0.8
		c0-0.2,0-0.4,0.1-0.5c-0.1-0.1-0.2-0.2-0.3-0.3c-0.2-0.1-0.3-0.2-0.5-0.3c-0.3-0.1-0.6-0.2-1-0.2c0.1,0.1,0.1,0.2,0.1,0.4l0,0
		l-0.1,0c0,0.2,0,0.5,0,0.7l-0.2,0.4l-0.1,0.2c-0.1,0.1-0.1,0.3-0.2,0.4l-0.2,0.1l-1.2,1c-0.4,0.3-0.8,0.6-1.2,0.8
		c-0.7,0.4-1.4,0.8-2.1,1l-0.1,0.5c-0.1,0.9-0.2,1.9-0.6,2.7c-0.3,0.5-0.7,0.9-1.1,1.3c-0.3,0.3-0.6,0.6-0.8,0.8
		c-0.1,0-0.1,0-0.1,0.1c0.5-0.8,1-1.5,1.4-2.4c-0.2,0.1-0.4,0.4-0.6,0.5l-0.6,0.6l-1.9,1.7c-0.6,0.6-1.2,1.1-1.8,1.7
		c-0.4,0.3-0.8,0.6-1.2,0.9l-0.1-0.1L51,66.7l-1.9-3.2L47.5,61l-0.3-0.5L47,60.2l-0.4-0.6L46.2,59l-0.1-0.2l-0.2-0.2l-0.4-0.6
		l-0.2-0.3l-0.5-0.8c-0.4-0.5-0.8-1.1-1.1-1.7l-0.2-0.3c-0.1-0.2-0.3-0.5-0.4-0.7L43,53.9c0-0.2-0.1-0.5-0.2-0.7l-0.4-1.2l-1-2.4
		c-0.7-0.4-1.5-0.8-2.2-1.2c-1.8-1-3.4-2.2-4.8-3.7c-0.6-0.8-1.3-1.5-1.8-2.3c-0.4-0.6-0.7-1.2-1-1.8l-0.3-0.6
		c-0.1-0.3-0.2-0.6-0.3-0.9l-0.1,0l0.1-0.1c0-0.2-0.1-0.3-0.1-0.5c-0.1-0.7-0.1-1.5,0-2.2c0.1-0.7,0.4-1.3,0.8-1.9
		c0.1-0.1,0.2-0.3,0.3-0.4c0.2-0.1,0.3-0.3,0.5-0.5c0.2-0.2,0.5-0.3,0.7-0.5c0.1-0.1,0.3-0.2,0.5-0.3l0.1,0c0.5-0.1,1.2-0.2,1.7,0
		c0,0.2,0,0.2,0.1,0.3l0-0.3l0,0l0-0.1c-0.1-0.4-0.9-0.8-1.3-1.1c-0.3-0.2-0.6-0.4-0.9-0.7c-0.4-0.4-0.7-0.9-1-1.3l-0.2-0.4
		c-0.6-1-1.1-2.1-1-3.3l0-0.1c0.1-0.5,0.3-1.1,0.6-1.5c-0.1,0-0.1-0.1-0.2-0.1c-0.1-0.1-0.1-0.2-0.1-0.3l0-0.1
		c-0.1-0.3-0.1-0.6-0.1-1c0-0.3,0-0.7,0-1c0.1-0.9,0.4-1.8,0.6-2.7c0.1-0.1,0.1-0.4,0.2-0.5l0.4-1.1c-0.1,0-0.1,0.1-0.2,0.2
		c-0.1,0.1-0.2,0.3-0.2,0.5c-0.1,0.2-0.3,0.4-0.5,0.5c-0.2,0.4-0.4,0.8-0.6,1.2c-0.1,0.3-0.2,0.6-0.3,0.8c0,0.3,0.1,0.7,0,1
		c0-0.1-0.1-0.1-0.1-0.2L30.7,21l-0.1-0.6l0-0.1l0-0.1c0-0.2,0.1-0.4,0.1-0.6c0.1-1.1,0.6-2,1.1-3c0.1-0.1,0.2-0.3,0.3-0.5
		c0.3-0.5,0.7-1,1.1-1.3l0.2-0.2L33.6,14.4z"/>
	<path class="st7" d="M45.8,9.7c1.1,0.4,2.1,1.2,3.2,1.7l0.2,0.1L50,12c0,0.1-0.1,0.2-0.2,0.3l-0.1,0c-0.1-0.2-0.3-0.3-0.5-0.4
		c-0.3-0.3-0.6-0.5-1-0.7c-0.5-0.3-1-0.6-1.5-0.9L45.8,9.7z"/>
	<path class="st7" d="M49.1,32.3l0.2,0.1c0.1,0.2-0.1,0.2,0,0.5c-0.1,0.2-0.4,0.6-0.7,0.7c-0.3,0.1-0.9,0-1.2-0.1l0,0
		c-0.1-0.2-0.3-0.3-0.5-0.3c-0.3-0.1-0.7,0-1,0l0,0c0.1-0.1,0.3-0.1,0.5-0.2c0.5-0.1,1-0.1,1.5-0.1c0.2,0,0.5,0,0.7,0
		C48.9,32.7,49,32.5,49.1,32.3z"/>
	<path class="st9" d="M47.9,8.4c0.2,0.3,0.6,0.8,0.7,1.2c0,0.4,0,1.3,0.2,1.6l0,0c0.1,0.1,0.1,0.1,0.1,0.2c-1.1-0.5-2.1-1.3-3.2-1.7
		c-0.5-0.2-0.9-0.4-1.4-0.5L44,9.2c-0.4-0.1-1.3,0-1.7,0.1l0-0.9c0.8-0.1,1.5,0,2.3,0L47.9,8.4z"/>
	<path class="st3" d="M46.2,35.6c0,0.1,0,0.1-0.1,0.1c-0.2,0.1-0.4,0.2-0.6,0.4c0.4-0.1,0.7-0.1,1.1-0.1c0.4,0,0.8,0.1,1.2,0.1
		c-0.1,0.2-0.6,0.3-0.6,0.4c0,0,0,0.1,0,0.1c-0.1,0-0.2,0.1-0.3,0.1c-0.4,0.2-0.2,1.1-0.3,1.5c0,0.2-0.2,0.4-0.4,0.5
		c-0.1,0.1-0.4,0-0.5,0l-0.1,0c-0.3-0.1-0.6-0.2-0.8-0.3c-0.8-0.4-1.4-0.8-1.8-1.6c0.1-0.1,0.4-0.3,0.6-0.4
		C44.5,36.1,45.3,35.8,46.2,35.6z"/>
	<path class="st7" d="M46.2,35.6L46.2,35.6c1.3-0.4,2.8-0.5,4.1-0.2c0.3,0.1,0.6,0.1,0.9,0.3l0,0.1c0.1,0,0.1,0,0.2-0.1l0,0.1l0.1,0
		c0.1,0,0.1,0,0.1,0.1l0,0.2l-1,1.8L49,39.8c-0.1-0.1,0.1-1,0.1-1.2c0-0.7-0.3-1.3-0.3-2c-0.5,0-1.1-0.1-1.6,0.1c0,0,0-0.1,0-0.1
		c0-0.2,0.5-0.3,0.6-0.4c-0.4,0-0.8-0.1-1.2-0.1c-0.4,0-0.7,0-1.1,0.1c0.2-0.2,0.4-0.3,0.6-0.4C46.2,35.7,46.2,35.6,46.2,35.6z"/>
	<path class="st5" d="M51.2,35.7c0.1,0,0.1,0,0.2-0.1l0,0.1l0.1,0c0.1,0,0.1,0,0.1,0.1l0,0.2l-1,1.8L49,39.8c-0.1-0.1,0.1-1,0.1-1.2
		c0.5-0.6,1.1-1.2,1.5-1.9C50.8,36.4,50.9,36,51.2,35.7L51.2,35.7z"/>
	<path class="st9" d="M40,10.3c0.7-0.1,1.4-0.2,2,0c-0.9,0.2-1.8,0.6-2.6,1c-0.2,0.1-0.6,0.2-0.8,0.4c-0.2,0.2-0.4,0.5-0.6,0.7
		c-0.3,0.5-0.7,0.9-0.9,1.4c-0.9,1.6-1.5,3.5-1.8,5.3l-0.4,3l-0.1,1.4c0,0.2,0,0.5-0.1,0.6c0.2,0.9,0.4,1.8,0.7,2.7
		c0.3,0.8,0.7,1.7,0.9,2.6l-0.1,0l0,0l0,0.1l0,0.1c0,0.1,0,0.1,0,0.2l-0.4-1.3l-0.6-1.7l-0.5-2c-0.6-0.2-1.2-0.5-1.8-0.7
		c0.1-0.4,0.1-0.9,0.2-1.3c0.1-0.5,0.2-1,0.3-1.5c0-0.4,0-0.7,0.1-1.1c0.3-1.5,1-2.9,1.6-4.4c0.1-0.2,0.2-0.5,0.3-0.7l0.6-1.4
		c0.1-0.3,0.4-0.7,0.6-1l0-0.1c0.2-0.2,0.4-0.4,0.6-0.6l-0.1,0c0.1-0.1,0.1-0.2,0.2-0.2c0.8-0.5,1.6-1.1,2.5-1.5L40,10.3z"/>
	
		<linearGradient id="SVGID_00000029739153736427592000000010165846852657815703_" gradientUnits="userSpaceOnUse" x1="37.2531" y1="66.9336" x2="33.5833" y2="66.5609" gradientTransform="matrix(1 0 0 -1 0 84.3154)">
		<stop  offset="0" style="stop-color:#472025"/>
		<stop  offset="1" style="stop-color:#704737"/>
	</linearGradient>
	<path style="fill:url(#SVGID_00000029739153736427592000000010165846852657815703_);" d="M37,12l0.4-0.4c-0.4,0.6-0.8,1.1-1.1,1.8
		c-0.8,1.6-1.3,3.5-1.6,5.2c-0.1,0.3-0.2,0.7-0.2,1.1c0,0.4,0,0.8,0,1.1l0.1,2.5l0-0.1c-0.1-0.2-0.2-0.6-0.3-0.8l-0.4-1.7
		c-0.1-0.4-0.2-0.8,0-1.2l1.1-3.6c0-0.1,0-0.1,0-0.2c0.1-0.2,0.2-0.5,0.3-0.7l0.6-1.4c0.1-0.3,0.4-0.7,0.6-1l0-0.1
		C36.6,12.4,36.8,12.2,37,12z"/>
	<path class="st6" d="M34.9,15.8c0,0.1,0,0.1,0,0.2l-1.1,3.6c-0.1,0.4,0,0.8,0,1.2l0.4,1.7c0.1,0.3,0.1,0.6,0.3,0.8l0,0.1l0.1,0.8
		c0.2,0.9,0.4,1.8,0.7,2.7c0.3,0.8,0.7,1.7,0.9,2.6l-0.1,0l0,0l0,0.1l0,0.1c0,0.1,0,0.1,0,0.2l-0.4-1.3l-0.6-1.7l-0.5-2
		c-0.6-0.2-1.2-0.5-1.8-0.7c0.1-0.4,0.1-0.9,0.2-1.3c0.1-0.5,0.2-1,0.3-1.5c0-0.4,0-0.7,0.1-1.1C33.7,18.7,34.4,17.3,34.9,15.8z"/>
	<path class="st3" d="M31.9,24.4c0.3-0.2,0.5-0.3,0.9-0.3c0.6,0.2,1.2,0.5,1.8,0.7l0.5,2l0.6,1.7l0.4,1.3l0,2.1l-0.1,1.3
		c0,0.3,0,0.8,0,1.1c-0.1-0.3-0.3-0.5-0.4-0.8c-0.1-0.2-0.1-0.3-0.1-0.5l0-0.3l0,0l0-0.1c-0.1-0.4-0.9-0.8-1.3-1.1
		c-0.3-0.2-0.6-0.4-0.9-0.7c-0.4-0.4-0.7-0.9-1-1.3l-0.2-0.4c-0.6-1-1.1-2.1-1-3.3l0-0.1C31.4,25.5,31.6,24.8,31.9,24.4z"/>
	<path class="st7" d="M33.2,25.5c0.4,0.2,0.7,0.4,1.1,0.6c0.3,0.2,0.5,0.5,0.8,0.7l0.6,1.7l0,0.2c0.1,0.3-0.1,0.9,0.1,1.2
		c-0.2,0.3-0.1,1.1-0.1,1.5c-0.3-0.3-0.7-0.5-1.1-0.7c-0.1-0.2-0.1-0.5-0.2-0.7c-0.1-0.3-0.7-1-0.6-1.3c-0.1-0.2-0.2-0.5-0.3-0.6
		c-0.2-0.3-0.4-0.4-0.6-0.8c-0.1-0.3-0.2-0.6-0.3-0.9c0-0.2,0-0.4,0.1-0.5c0.1-0.1,0.2-0.2,0.3-0.2C33,25.6,33.1,25.6,33.2,25.5
		L33.2,25.5z"/>
	<path class="st3" d="M33.6,14.4c0.5-1.1,1.1-2.2,1.7-3.2l1-1.8c0.2-0.3,0.4-0.7,0.6-1c0.2,0.1,4.9,0.1,5.4,0l0,0.9l-0.1,0l-2.5,0.9
		l-0.2,0.1c-0.9,0.3-1.7,0.9-2.5,1.5c-0.1,0.1-0.2,0.2-0.2,0.2l0.1,0c-0.2,0.2-0.4,0.4-0.6,0.6l0,0.1c-0.2,0.3-0.5,0.6-0.6,1
		l-0.6,1.4c-0.1,0.2-0.2,0.5-0.3,0.7c-0.5,1.5-1.2,2.9-1.6,4.4c-0.1,0.4,0,0.7-0.1,1.1c0,0.5-0.2,1-0.3,1.5
		c-0.1,0.4-0.1,0.9-0.2,1.3c-0.4,0-0.6,0.1-0.9,0.3c-0.1,0-0.1-0.1-0.2-0.1c-0.1-0.1-0.1-0.2-0.1-0.3l0-0.1c-0.1-0.3-0.1-0.6-0.1-1
		c0-0.3,0-0.7,0-1c0.1-0.9,0.4-1.8,0.6-2.7c0.1-0.1,0.1-0.4,0.2-0.5l0.4-1.1c-0.1,0-0.1,0.1-0.2,0.2c-0.1,0.1-0.2,0.3-0.2,0.5
		c-0.1,0.2-0.3,0.4-0.5,0.5c-0.2,0.4-0.4,0.8-0.6,1.2c-0.1,0.3-0.2,0.6-0.3,0.8c0,0.3,0.1,0.7,0,1c0-0.1-0.1-0.1-0.1-0.2L30.7,21
		l-0.1-0.6l0-0.1l0-0.1c0-0.2,0.1-0.4,0.1-0.6c0.1-1.1,0.6-2,1.1-3c0.1-0.1,0.2-0.3,0.3-0.5c0.3-0.5,0.7-1,1.1-1.3l0.2-0.2
		L33.6,14.4z"/>
	<path class="st4" d="M31.8,18.7c0.3-0.8,0.9-1.5,1.4-2.2l0,0l-0.5,1.1c-0.1,0-0.1,0.1-0.2,0.2c-0.1,0.1-0.2,0.3-0.2,0.5
		C32.2,18.4,31.9,18.6,31.8,18.7z"/>
	
		<linearGradient id="SVGID_00000133491495496827285250000009256023694736466861_" gradientUnits="userSpaceOnUse" x1="33.9304" y1="71.431" x2="36.8472" y2="65.6916" gradientTransform="matrix(1 0 0 -1 0 84.3154)">
		<stop  offset="0" style="stop-color:#FFF7D4"/>
		<stop  offset="1" style="stop-color:#FFFFFD"/>
	</linearGradient>
	<path style="fill:url(#SVGID_00000133491495496827285250000009256023694736466861_);" d="M39.7,10l0.3,0c-0.2,0.1,0,0-0.1,0.1
		c0,0-0.1,0.1-0.1,0.2l-0.2,0.1c-0.9,0.3-1.7,0.9-2.5,1.5c-0.1,0.1-0.2,0.2-0.2,0.2l-0.8,0.7c-0.2,0.1-0.3,0.3-0.5,0.5
		c-0.2,0.2-0.4,0.4-0.6,0.5c-0.2,0.1-0.3,0.2-0.4,0.3c-0.1,0.1,0,0-0.1,0.1l-0.1,0.1l-0.1-0.1c-0.1,0.1-0.2,0.2-0.3,0.2l0,0.1
		l0.1,0.1c-0.2,0.2-0.3,0.3-0.4,0.5c-0.4,0.4-0.9,0.7-1.2,1.2c-0.3,0.4-0.5,0.8-0.7,1.3c-0.4,1-0.8,2.1-0.9,3.2c0,0.1,0,0.1,0,0.2
		c0,0.3,0.1,0.7,0,1c0-0.1-0.1-0.1-0.1-0.2L30.7,21l-0.1-0.6l0-0.1l0-0.1c0-0.2,0.1-0.4,0.1-0.6c0.1-1.1,0.6-2,1.1-3
		c0.1-0.1,0.2-0.3,0.3-0.5c0.3-0.5,0.7-1,1.1-1.3l0.2-0.2l0.2-0.2c0.6-0.4,1.2-0.8,1.7-1.2c0.4-0.3,0.7-0.8,1.1-1.1
		C37.3,11.2,38.5,10.5,39.7,10z"/>
	<path class="st4" d="M36.9,12l0.1,0c-0.2,0.2-0.4,0.4-0.6,0.6l0,0.1c-0.2,0.3-0.5,0.6-0.6,1l-0.6,1.4c-0.1,0.2-0.2,0.5-0.3,0.7
		c-0.5,1.5-1.2,2.9-1.6,4.4c-0.1,0.4,0,0.7-0.1,1.1c0,0.5-0.2,1-0.3,1.5c-0.1,0.4-0.1,0.9-0.2,1.3c-0.4,0-0.6,0.1-0.9,0.3
		c-0.1,0-0.1-0.1-0.2-0.1c0.1-0.3,0.1-0.7,0.1-1.1c0.1-0.4,0.1-0.8,0.2-1.2c0.2-0.8,0.5-1.5,0.7-2.3l1.7-4.3
		c0.2-0.5,0.4-1.1,0.8-1.5c0.2-0.4,0.6-0.9,0.8-1.3L36.9,12z"/>
	<path class="st5" d="M33.6,14.4c0.5-1.1,1.1-2.2,1.7-3.2l1-1.8c0.2-0.3,0.4-0.7,0.6-1c0.2,0.1,4.9,0.1,5.4,0l0,0.9l-0.1,0l-2.5,0.9
		c0,0,0.1-0.1,0.1-0.2c0.2-0.1-0.1,0.1,0.1-0.1l-0.3,0c-1.2,0.5-2.4,1.1-3.3,2c-0.4,0.4-0.7,0.8-1.1,1.1
		C34.8,13.6,34.2,14,33.6,14.4z"/>
	<path class="st3" d="M39.7,10l0.1,0c0.4-0.2,2-0.7,2.3-0.7c0,0,0.1,0,0.1,0l-2.5,0.9c0,0,0.1-0.1,0.1-0.2c0.2-0.1-0.1,0.1,0.1-0.1
		L39.7,10z"/>
	<path class="st6" d="M38.1,31.4c-0.4-0.1-0.9,0-1.3-0.1l0-0.2l0,0c0-0.2,0-0.5,0-0.7c0-0.1,0,0,0-0.1c0-0.2,0-0.4,0-0.6l0-2.3
		c0-0.8,0.1-1.6,0.3-2.3c0.4-2.1,1.4-4.5,2.9-6c-0.3-0.3-0.8-0.7-1.1-1.1c0.8,0.6,1.7,1.2,2.6,1.6c2.6,1.4,5.5,2.1,8.5,2.2
		c0.8,0,1.7,0,2.5-0.1l-2.2-1.1c-1.8-1-3.5-2.2-5.2-3.4l0-0.1c2.2,1.1,4.4,2,6.7,2.7l2.5,0.6c0.1,0,0.1,0,0.2,0.1l-0.1,0l-0.1,0
		l0,0.1l0.2,0c0.3,0,0.7,0,1,0.1c0.8,0.1,1.5,0.2,2.3,0.1c0.2,0,0.4,0,0.7,0l0.2,0l1.4-0.3l0.3,0.1L59.8,21L58,22.3
		c-0.2,0.1-0.5,0.3-0.7,0.4l-1.1,0.7c-0.2,0.1-0.5,0.3-0.7,0.4c-0.2,0.1-0.4,0.3-0.6,0.3l-0.5,0.2l0.1-1.2L54,23.4L53,23.7l-1.4,0.4
		l-1.2,0.2c-1.2,0.1-2.4-0.4-3.5-0.9c-1-0.5-1.9-1-2.8-1.5c-1.3-0.8-2.6-1.5-3.8-2.5c-0.2,0.2-0.5,0.5-0.6,0.8
		c-0.7,1-1.3,2.2-1.7,3.4c-0.1,0.3-0.5,1.4-0.4,1.7l0,0.1c-0.2,0.5-0.6,3.9-0.4,4.5C37.4,30.3,37.8,30.9,38.1,31.4L38.1,31.4z"/>
	
		<linearGradient id="SVGID_00000013171196925921405120000009020408058511191203_" gradientUnits="userSpaceOnUse" x1="57.6624" y1="61.3507" x2="56.5112" y2="64.2511" gradientTransform="matrix(1 0 0 -1 0 84.3154)">
		<stop  offset="0" style="stop-color:#FFC48D"/>
		<stop  offset="1" style="stop-color:#DDC0B1"/>
	</linearGradient>
	<path style="fill:url(#SVGID_00000013171196925921405120000009020408058511191203_);" d="M60.2,20.3l0.3,0.1L59.8,21L58,22.3
		c-0.2,0.1-0.5,0.3-0.7,0.4l-1.1,0.7c-0.2,0.1-0.5,0.3-0.7,0.4c-0.2,0.1-0.4,0.3-0.6,0.3l-0.5,0.2l0.1-1.2l3.7-1.9
		c-1.2-0.1-2.5-0.5-3.6-0.8c0.3,0,0.7,0,1,0.1c0.8,0.1,1.5,0.2,2.3,0.1c0.2,0,0.4,0,0.7,0l0.2,0L60.2,20.3z"/>
	<path class="st6" d="M58.6,20.6c0,0-0.1-0.1-0.1-0.1c-0.1-0.1-0.2-0.1-0.3-0.1l-1-0.5L55,18.8c-1.1-0.6-2.2-1.3-3.2-2.1
		c-1.4-1-2.6-2.1-4.1-2.9c-1-0.6-2.1-1-3.2-1.5l-1-0.4c-0.2-0.1-0.3-0.1-0.5-0.2c0.2,0,0.5,0.1,0.7,0.1c1.4,0.3,2.8,0.8,4.1,1.1
		c0.6,0.2,1.3,0.3,2,0.4c-0.5-0.4-0.9-0.8-1.2-1.4l0-0.1l0.3,0c0.3,0.2,0.5,0.3,0.8,0.3l0.1,0c0,0.1-0.1,0.2,0,0.2
		c0.1,0.1,0.4,0.2,0.6,0.2c0.8,0.2,1.6,0.4,2.4,0.5c1.4,0.2,2.8,0.2,4.2,0.1c0.3,0,0.7-0.1,1-0.2l0.3,0l0,0l-0.9,1l5.9,3.5l2.2,1.3
		c0.3,0.2,0.6,0.4,0.9,0.6l-0.1,0L66,19.4c-0.8,0.5-1.7,0.8-2.5,1.3c-0.7-0.3-1.5-0.9-2.2-1.3l-3.7-2.2c-0.7-0.4-1.5-0.9-2.2-1.3
		c-0.2,0.2-0.5,0.5-0.8,0.5l-3.3-0.3l0,0l0.1,0.1c0.5,0.3,1.2,0.4,1.8,0.6c0.2,0,0.4,0.1,0.6,0.2c0,0,0.1,0.1,0.2,0.2l0.6,0.6
		l0.9,0.8c0.7,0.6,1.5,1.1,2.3,1.6c0.3,0.2,0.7,0.3,1,0.5L58.6,20.6z"/>
	<path class="st3" d="M55.5,15.9l1.8-1.7c0.4,0.2,0.8,0.5,1.3,0.7l2,1.2l5.5,3.3c-0.8,0.5-1.7,0.8-2.5,1.3c-0.7-0.3-1.5-0.9-2.2-1.3
		l-3.7-2.2C57,16.7,56.2,16.2,55.5,15.9z"/>
	
		<linearGradient id="SVGID_00000171685261525678443150000007727958292664026794_" gradientUnits="userSpaceOnUse" x1="45.9529" y1="50.5236" x2="47.0017" y2="64.4356" gradientTransform="matrix(1 0 0 -1 0 84.3154)">
		<stop  offset="0" style="stop-color:#C5836E"/>
		<stop  offset="1" style="stop-color:#FFC87F"/>
	</linearGradient>
	<path style="fill:url(#SVGID_00000171685261525678443150000007727958292664026794_);" d="M38,23.4c0.4-1.2,1-2.3,1.7-3.4
		c0.2-0.2,0.4-0.6,0.6-0.8c1.2,1,2.4,1.8,3.8,2.5c0.9,0.5,1.9,1.1,2.8,1.5c1.1,0.5,2.3,1,3.5,0.9l1.2-0.2l1.4-0.4l1.1-0.3l0.5-0.2
		l-0.1,1.2l0.5-0.2c0.2-0.1,0.4-0.2,0.6-0.3c-0.3,1.2-0.9,2.1-1.5,3.1c-0.1,0.2-0.2,0.4-0.3,0.6c-0.1,0.2-0.1,0.4-0.1,0.6
		c-0.1,0.9,0,1.8-0.2,2.6c-0.2,1.2-0.7,2.5-1.2,3.6l0,0.1c0,0.2,0,0.2-0.2,0.3c-0.2,0.1-0.5,0.6-0.6,0.8c0.1,0.1,0.1,0.1,0.2,0.2
		l-0.1,0.2l0-0.2c0-0.1,0,0-0.1-0.1l-0.1,0l0-0.1c-0.1,0.1-0.1,0.1-0.2,0.1l0-0.1c0.2-0.3,0.2-0.9,0.2-1.2c-0.5-0.8-1.3-1.2-2.1-1.6
		c-0.1-0.2,0.1-0.3,0-0.5l-0.2-0.1c0-0.1,0-0.2,0-0.4c-0.1-0.2-0.3-0.2-0.5-0.3c-0.2-0.1-0.4-0.2-0.5-0.4c-0.6-0.8,0.3-3.8,0.6-4.8
		l0.3-1.5c-1.3-0.4-2.6-1.1-3.7-1.8l-2.7-1.8c-0.6-0.4-1.4-0.9-2.1-1.1c0,0-0.2-0.1-0.2-0.1c-0.3,0.1-1.2,1.6-1.4,1.9L38.4,23
		C38.3,23.1,38.2,23.3,38,23.4L38,23.4z"/>
	<path class="st4" d="M51.6,24.1l1.4-0.4c0.2,0.2,0.4,0.3,0.6,0.5c-0.1,0-0.2,0.1-0.2,0.2l0,0l-0.2,0.1l0,0l-0.8,0.4l-2.7,1.4
		c0-0.2,0-0.6,0-0.8c0-0.1,0.2-0.2,0.3-0.2l1.2-0.7C51.2,24.4,51.5,24.3,51.6,24.1z"/>
	<path class="st6" d="M49.6,26.2l0-0.3l0.1,0c0.3-0.1,0.6-0.2,0.9-0.4c0.7-0.3,1.4-0.7,2.1-0.9c0.2-0.1,0.3-0.1,0.4-0.1l-0.8,0.4
		L49.6,26.2z"/>
	<path class="st3" d="M54,23.4l0.5-0.2l-0.1,1.2l0.5-0.2c0.2-0.1,0.4-0.2,0.6-0.3c-0.3,1.2-0.9,2.1-1.5,3.1
		c-0.1,0.2-0.2,0.4-0.3,0.6c-0.1,0.2-0.1,0.4-0.1,0.6c-0.1,0.9,0,1.8-0.2,2.6c-0.2,1.2-0.7,2.5-1.2,3.6l0,0.1c0,0.2,0,0.2-0.2,0.3
		c-0.2,0.1-0.5,0.6-0.6,0.8c0.1,0.1,0.1,0.1,0.2,0.2l-0.1,0.2l0-0.2c0-0.1,0,0-0.1-0.1l-0.1,0l0-0.1c-0.1,0.1-0.1,0.1-0.2,0.1l0-0.1
		c0.2-0.3,0.2-0.9,0.2-1.2c0.1-0.5,0.3-1,0.5-1.5c0.5-1.4,1-2.8,0.7-4.3c-0.1,0.3-0.1,0.6-0.3,0.8c-0.3,0.4-0.7,0.6-1.2,0.6
		c-0.4,0-0.9,0-1.2-0.3c-0.3-0.3-0.5-0.7-0.5-1.1c-0.1-0.4,0-0.7,0.1-1.1c0-0.1,0-0.1,0-0.2c0.4-0.9,1.3-1.5,2.1-1.9
		c0.2,0,0.5-0.1,0.7,0.1c0.3,0.2,0.4,0.5,0.7,0.8l0.2-1.6l0,0c-0.2,0.1-0.4,0.1-0.6,0.1c-0.1,0-0.2-0.1-0.3-0.1l0.8-0.4l0,0l0.2-0.1
		l0,0c0.1-0.1,0.1-0.1,0.2-0.2c-0.2-0.2-0.4-0.3-0.6-0.5L54,23.4z"/>
	<path class="st6" d="M53.6,24.2l0.2,0.2l0.1,0c0.1,0.1,0.1,0.3,0.1,0.4l-0.1,0l-0.2-0.3l-0.3-0.2l0,0
		C53.4,24.3,53.5,24.3,53.6,24.2z"/>
	<path class="st7" d="M53,23.7l1.1-0.3c-0.1,0.3-0.2,0.7-0.2,1l-0.1,0l-0.2-0.2C53.4,24.1,53.2,23.9,53,23.7z"/>
	<path class="st6" d="M54.4,24.4l0.5-0.2c-0.1,0.5-0.3,1-0.5,1.5c-0.2,0.4-0.4,0.7-0.5,1.1c-0.1,0.1-0.1,0.2-0.2,0.2
		C53.8,26.2,54.1,25.2,54.4,24.4z"/>
	<path class="st4" d="M52.2,27.5c0,0.6-0.1,1.2-0.5,1.7c-0.2,0.2-0.5,0.4-0.8,0.4c-0.2,0-0.5-0.1-0.6-0.3c-0.1-0.1-0.1-0.2-0.2-0.3
		c0.2-0.2,0.3-0.4,0.5-0.6l0,0c0.1,0.1,0.2,0.3,0.4,0.4c0.7,0.2,0.7-0.7,1.1-0.9l0.1,0L52.2,27.5z"/>
	<path class="st6" d="M51.6,25.6c0.2,0,0.5-0.1,0.7,0.1c0.3,0.2,0.4,0.5,0.7,0.8c0.1,0.1,0.1,0.1,0.1,0.2l0,0.1l-0.1,0l-0.1-0.2h0
		l0,0.7c0,0,0,0,0-0.1c0-0.2-0.1-0.4-0.1-0.6c-0.1-0.2-0.3-0.3-0.5-0.4c-0.1,0.3,0,0.6,0,0.9C52.1,27,52.1,27,52,27
		c-0.1,0.1-0.1,0.1,0,0.3c0.1,0.1,0.2,0.1,0.3,0.2l-0.1,0.3l-0.1,0c-0.4,0.2-0.4,1.1-1.1,0.9c-0.2,0-0.3-0.2-0.4-0.4l0,0
		c-0.1,0.2-0.3,0.4-0.5,0.6c-0.1-0.3-0.2-0.6-0.2-0.9l0-0.5c-0.2,0.1-0.3,0.2-0.4,0.3l0,0.3l-0.1,0.4c-0.1-0.4,0-0.7,0.1-1.1
		c0-0.1,0-0.1,0-0.2C49.9,26.5,50.8,25.9,51.6,25.6z"/>
	<path class="st11" d="M49.5,27.6c0.1-0.1,0.1-0.3,0.2-0.4c0.1-0.2,0.3-0.4,0.5-0.6c-0.1,0.3-0.2,0.7-0.3,1
		c-0.2,0.1-0.3,0.2-0.4,0.3l0,0.3l-0.1,0.4C49.3,28.3,49.4,28,49.5,27.6z"/>
	<path class="st3" d="M38,23.4L38,23.4c0.2-0.1,0.3-0.3,0.4-0.4l0.5-0.9c0.2-0.3,1.1-1.9,1.4-1.9c0,0,0.2,0,0.2,0.1
		c0.7,0.2,1.5,0.7,2.1,1.1l2.7,1.8c1.1,0.7,2.4,1.4,3.7,1.8l-0.3,1.5c-0.2,1-1.1,4-0.6,4.8c0.1,0.2,0.3,0.3,0.5,0.4
		c0.2,0.1,0.4,0.1,0.5,0.3c0.1,0.1,0,0.2,0,0.4c-0.1,0.2-0.2,0.4-0.5,0.5c-0.2,0.1-0.5,0-0.7,0c-0.5,0-1,0-1.5,0.1
		c-0.2,0-0.4,0-0.5,0.2l0,0c-1.2,0.5-2.4,1.1-3.5,1.8c-1.8-0.7-3.2-1.8-4.3-3.4c-0.3-0.5-0.8-1.1-1-1.7c-0.2-0.6,0.1-3.9,0.4-4.5
		l0-0.1C37.5,24.9,37.9,23.7,38,23.4z"/>
	<path class="st5" d="M48.6,31.6c0.2,0.1,0.4,0.1,0.5,0.3c0.1,0.1,0,0.2,0,0.4c-0.1,0.2-0.2,0.4-0.5,0.5c-0.2,0.1-0.5,0-0.7,0
		c-0.5,0-1,0-1.5,0.1c-0.2,0-0.4,0-0.5,0.2l-0.1,0c-0.1-0.1-0.2-0.2-0.3-0.3c0-0.1,0-0.2,0.1-0.3c0.2-0.3,0.7-0.5,1-0.6
		c0.3-0.1,0.6-0.1,0.9-0.1C47.9,31.7,48.4,31.7,48.6,31.6z"/>
	
		<linearGradient id="SVGID_00000173134523941809742370000002091280790891880064_" gradientUnits="userSpaceOnUse" x1="41.975" y1="58.5407" x2="42.5685" y2="60.7424" gradientTransform="matrix(1 0 0 -1 0 84.3154)">
		<stop  offset="0" style="stop-color:#513430"/>
		<stop  offset="1" style="stop-color:#6E4738"/>
	</linearGradient>
	<path style="fill:url(#SVGID_00000173134523941809742370000002091280790891880064_);" d="M42.4,24.9c-0.4-0.1-0.8-0.3-1.3-0.3
		c-1.2-0.2-2.4,0.3-3.5,0.6c1.2-0.7,2.5-1.4,3.8-1.7l0.1,0c0.7-0.2,1.5,0.3,2.1,0.6c0.8,0.4,1.6,0.7,2.3,1.2
		c0.1,0.1,0.3,0.2,0.4,0.3l0,0.8l-0.7-0.2C44.6,25.6,43.5,25.2,42.4,24.9z"/>
	<path class="st6" d="M42.4,24.9c1.1,0.3,2.1,0.7,3.2,1.2l0,0c0.1,0.2,0.4,0.4,0.6,0.5l0,0c-0.1,0-0.2,0-0.3,0
		c-0.1,0.5,0.2,1.1-0.1,1.6l0,0c0,0.1,0,0.1,0,0.2l0-0.1c-0.1-0.4-0.2-0.7-0.3-1.1c-0.1-0.2-0.2-0.4-0.4-0.7l0,0.4
		c0.1,0.6-0.1,1.2-0.4,1.7c-0.2,0.4-0.5,0.6-0.9,0.8c-0.4,0.1-0.9,0.1-1.3-0.1C42.2,29.3,42,29.2,42,29c0,0-0.1-0.1-0.1-0.1
		c-0.4-0.5-0.4-1-0.3-1.6l0.4,0.2c0.2-0.1,0.4-0.2,0.5-0.3c0.1-0.1,0.1-0.2,0.1-0.3c0-0.2-0.3-0.4-0.5-0.5c0.1-0.1,0.3-0.3,0.4-0.5
		c-0.8,0.1-2.2,0.2-2.7,0.8c-0.1,0.1-0.1,0.2-0.1,0.3c-0.1,0.1-0.1,0.3-0.2,0.4l0-0.1c0-0.1,0-0.2,0-0.3c0-0.2-0.1-0.6,0-0.7
		c0.2-0.2,0.5-0.3,0.7-0.4c0.5-0.2,0.9-0.5,1.4-0.7C41.8,25,42.1,25,42.4,24.9L42.4,24.9z"/>
	<path class="st4" d="M42,29c0-0.2-0.1-0.3-0.1-0.5l0.4-0.5l0.1,0.1c0.2,0.2,0.3,0.3,0.6,0.3c0.3,0.1,0.7,0,1-0.2
		c0.4-0.3,0.4-0.7,0.5-1.1l0.2,0.2c0.1,0.1,0.2,0.3,0.3,0.4c0.1,0.3-0.1,0.7-0.1,0.9l0,0.1c-0.2,0.4-0.5,0.6-0.9,0.8
		c-0.4,0.1-0.9,0.1-1.3-0.1C42.2,29.3,42,29.2,42,29z"/>
	<path class="st7" d="M42.4,24.9c1.1,0.3,2.1,0.7,3.2,1.2l0,0c0.1,0.2,0.4,0.4,0.6,0.5l0,0c-0.1,0-0.2,0-0.3,0
		c-0.1,0.5,0.2,1.1-0.1,1.6l0,0c0-0.6-0.2-1.3-0.6-1.7c-0.6-0.7-1.6-0.8-2.5-0.9c-0.9,0-2.2,0.1-2.8,0.7c-0.1,0.3-0.3,0.5-0.3,0.8
		c0-0.1,0-0.2,0-0.3c0-0.2-0.1-0.6,0-0.7c0.2-0.2,0.5-0.3,0.7-0.4c0.5-0.2,0.9-0.5,1.4-0.7C41.8,25,42.1,25,42.4,24.9L42.4,24.9z"/>
	<path class="st9" d="M54.7,16.4c0.3,0,0.6-0.3,0.8-0.5c0.8,0.4,1.5,0.9,2.2,1.3l3.7,2.2c0.7,0.4,1.4,1,2.2,1.3
		c0.8-0.5,1.7-0.8,2.5-1.3l0.1,0.1l9,17.4l-0.3,0.8l-1.3,3.9l-0.3,0.8c0,0.2-0.1,0.4-0.2,0.6c-0.2-0.3-0.4-0.6-0.6-0.9
		c-0.8-1.3-1.4-2.6-2.1-3.9L65.7,29L64,25.6l-1.2-2.2c-0.2-0.3-0.3-0.7-0.6-1c-0.2-0.2-0.5-0.4-0.8-0.5c-0.5-0.3-1.1-0.6-1.6-0.9
		l0,0l0.7-0.6l-0.3-0.1l-1.4,0.3c-0.3-0.2-0.7-0.3-1-0.5c-0.8-0.4-1.6-1-2.3-1.6l-0.9-0.8L54,17.1c0,0-0.1-0.1-0.2-0.2
		c-0.2-0.1-0.4-0.1-0.6-0.2c-0.6-0.2-1.3-0.3-1.8-0.6l-0.1-0.1l0,0L54.7,16.4z"/>
	<path class="st4" d="M56.3,17.6c0.4,0,1.9,1.1,2.3,1.4l2,1.3c0.8,0.4,1.6,0.9,2.4,1.1l10.6,20l-0.3,0.8c0,0.2-0.1,0.4-0.2,0.6
		c-0.2-0.3-0.4-0.6-0.6-0.9c-0.8-1.3-1.4-2.6-2.1-3.9L65.7,29L64,25.6l-1.2-2.2c-0.2-0.3-0.3-0.7-0.6-1c-0.2-0.2-0.5-0.4-0.8-0.5
		c-0.5-0.3-1.1-0.6-1.6-0.9l0,0l0.7-0.6l-0.3-0.1L56.3,17.6z"/>
	
		<linearGradient id="SVGID_00000176044739294305669220000017237625335987203460_" gradientUnits="userSpaceOnUse" x1="68.8933" y1="33.7688" x2="50.0931" y2="55.8599" gradientTransform="matrix(1 0 0 -1 0 84.3154)">
		<stop  offset="0" style="stop-color:#124376"/>
		<stop  offset="1" style="stop-color:#2974A2"/>
	</linearGradient>
	<path style="fill:url(#SVGID_00000176044739294305669220000017237625335987203460_);" d="M59.8,21L59.8,21c0.6,0.3,1.1,0.6,1.7,0.9
		c0.3,0.1,0.6,0.3,0.8,0.5c0.2,0.3,0.4,0.7,0.6,1l1.2,2.2l1.7,3.3l4.8,9.1c0.7,1.3,1.3,2.6,2.1,3.9c0.2,0.3,0.4,0.6,0.6,0.9
		c0,0,0,0.1,0.1,0.1l-9.1,19.5l-0.1,0l-0.2-0.1c0.2-0.2,0.2-0.5,0.2-0.8c0-0.1,0-0.3,0.1-0.4c0-0.1,0-0.2,0-0.4c0-0.1,0-0.3,0-0.3
		c0-0.1,0.2-0.2,0.3-0.3c0.2-0.3,0.3-0.6,0.5-0.9l0-0.1L65,59l0-0.1c0.3-1,0.5-1.9,0.7-2.9c0-0.3,0.1-0.6,0.1-0.8
		c0-0.2,0-0.4,0.1-0.5c-0.1-0.1-0.2-0.2-0.3-0.3c-0.2-0.1-0.3-0.2-0.5-0.3c-0.3-0.1-0.6-0.2-1-0.2c0.1,0.1,0.1,0.2,0.1,0.4l0,0
		l-0.1,0c0,0.2,0,0.5,0,0.7l-0.2,0.4l-0.1,0.2c-0.1,0.1-0.1,0.3-0.2,0.4l-0.2,0.1l-1.2,1c-0.4,0.3-0.8,0.6-1.2,0.8
		c-0.7,0.4-1.4,0.8-2.1,1l0.1-1.2l0-3.9l-0.2-2.7c0-0.8-0.1-1.6-0.2-2.3c-0.1-0.5-0.1-1.1-0.3-1.6c0-0.3-0.1-0.6-0.2-0.9
		c-0.2-1.3-0.5-2.6-1-3.8l0,0c0-0.1-0.1-0.1-0.1-0.2l0-0.1c0-0.1,0-0.2,0-0.3l-0.1,0l0-0.1l0-0.1L56.9,42c0,0.1,0,0.1,0,0.2
		c0,0.1,0,0.3,0,0.4l-0.1-0.2l0-0.1l-0.2,1c-0.2,0.9-0.5,1.8-1,2.7c-0.1-0.2,0-0.4,0-0.7c0.1-0.5,0.3-1,0.4-1.6
		c0.1-0.2,0.1-0.4,0.2-0.6c0-0.5,0-1-0.1-1.5c-0.3-1.4-0.8-2.8-1.6-4c-0.2-0.4-0.5-0.8-0.8-1.2c-0.5-0.6-1.2-1-1.6-1.6l0-0.1
		c0.1-0.1,0.1-0.1,0.2-0.3l0-0.1c0.5-1.1,1-2.4,1.2-3.6c0.2-0.9,0.1-1.8,0.2-2.6c0-0.2,0-0.4,0.1-0.6c0.1-0.2,0.2-0.4,0.3-0.6
		c0.6-1,1.2-1.9,1.5-3.1c0.2-0.2,0.5-0.3,0.7-0.4l1.1-0.7c0.2-0.1,0.4-0.3,0.7-0.4L59.8,21z"/>
	
		<linearGradient id="SVGID_00000065763670155872959480000006605703117865722802_" gradientUnits="userSpaceOnUse" x1="62.6416" y1="39.3432" x2="53.8428" y2="38.0212" gradientTransform="matrix(1 0 0 -1 0 84.3154)">
		<stop  offset="0" style="stop-color:#DBA77C"/>
		<stop  offset="1" style="stop-color:#F8CDB0"/>
	</linearGradient>
	<path style="fill:url(#SVGID_00000065763670155872959480000006605703117865722802_);" d="M52.2,34.4L52.2,34.4
		c1.5,1.3,2.7,2.7,3.7,4.4c0.3,0.5,0.6,1.1,0.8,1.6c0.1,0.2,0.1,0.4,0.2,0.7c0,0,0,0.1,0,0.1c0.1,0.1,0.3,0.1,0.4,0.2l1,0.5
		c0.2,0.1,0.4,0.2,0.6,0.4c0.2,0.2,0.3,0.4,0.4,0.6c0.4,0.7,0.9,1.4,1.3,2.1c1.1,2,2,4.1,2.7,6.2l0.5,1.9c0,0.1,0.1,0.6,0.2,0.7
		c0.1,0.1,0.1,0.2,0.1,0.4l0,0l-0.1,0c0,0.2,0,0.5,0,0.7l-0.2,0.4l-0.1,0.2c-0.1,0.1-0.1,0.3-0.2,0.4l-0.2,0.1l-1.2,1
		c-0.1-0.2,0-0.6,0-0.8l-1.3-7c-0.1-0.5-0.2-1.3-0.5-1.6c-0.2-0.3-0.2-0.8-0.3-1.1c-0.1-0.3-0.3-0.8-0.3-1.1c0-0.1,0-0.2,0-0.3
		c0-0.1,0-0.1-0.1-0.2c-0.1-0.1-0.1-0.1-0.1-0.2l0-0.1c0-0.2,0-0.3-0.1-0.5l0-0.1c0.1,0.1,0.1,0.2,0.2,0.3c0.1,0.2,0.2,0.3,0.2,0.5
		c0.1,0.1,0.1,0.3,0.2,0.4l0,0.1c0,0.1,0.1,0.2,0.2,0.3l0,0c-0.2-0.6-0.5-1.4-0.9-1.9c-0.1-0.2-0.1-0.6-0.3-0.8
		c-0.2-0.4-0.7-0.6-1-0.7L57,41.8l0.1,0.8l0,0c0-0.1-0.1-0.1-0.1-0.2l0-0.1c0-0.1,0-0.2,0-0.3l-0.1,0l0-0.1l0-0.1L56.9,42
		c0,0.1,0,0.1,0,0.2c0,0.1,0,0.3,0,0.4l-0.1-0.2l0-0.1l-0.2,1c-0.2,0.9-0.5,1.8-1,2.7c-0.1-0.2,0-0.4,0-0.7c0.1-0.5,0.3-1,0.4-1.6
		c0.1-0.2,0.1-0.4,0.2-0.6c0-0.5,0-1-0.1-1.5c-0.3-1.4-0.8-2.8-1.6-4c-0.2-0.4-0.5-0.8-0.8-1.2c-0.5-0.6-1.2-1-1.6-1.6l0-0.1
		C52.1,34.6,52.1,34.6,52.2,34.4z"/>
	<path class="st1" d="M60.3,47.8c-0.2-0.3-0.2-0.8-0.3-1.1c-0.1-0.3-0.3-0.8-0.3-1.1c0-0.1,0-0.2,0-0.3c0-0.1,0-0.1-0.1-0.2
		c-0.1-0.1-0.1-0.1-0.1-0.2l0-0.1c0-0.2,0-0.3-0.1-0.5l0-0.1c0.1,0.1,0.1,0.2,0.2,0.3c0.1,0.2,0.2,0.3,0.2,0.5
		c0.1,0.1,0.1,0.3,0.2,0.4l0,0.1c0,0.1,0.1,0.2,0.2,0.3l0,0l1.3,3.7L63,53l0.4,1.4c0.1,0.4,0.1,0.9,0.3,1.2
		c-0.1,0.1-0.1,0.3-0.2,0.4l-0.2,0.1l-1.2,1c-0.1-0.2,0-0.6,0-0.8l-1.3-7C60.7,48.9,60.6,48.2,60.3,47.8z"/>
	<path class="st6" d="M57.1,42.6L57,41.8l1.1,0.6c0.3,0.2,0.8,0.4,1,0.7c0.1,0.2,0.2,0.5,0.3,0.8c0.4,0.5,0.7,1.3,0.9,1.9l0,0
		c-0.1-0.1-0.1-0.1-0.2-0.3l0-0.1c0-0.1-0.1-0.3-0.2-0.4c-0.1-0.1-0.2-0.3-0.2-0.5c0-0.1-0.1-0.2-0.2-0.3l0,0.1c0,0.2,0,0.3,0.1,0.5
		l0,0.1c0,0.1,0,0.2,0.1,0.2c0,0.1,0,0.1,0.1,0.2c0,0.1,0,0.2,0,0.3c0,0.3,0.2,0.8,0.3,1.1c0.1,0.3,0.1,0.8,0.3,1.1
		c0.3,0.4,0.3,1.2,0.5,1.6l1.3,7c0,0.2,0,0.6,0,0.8c-0.4,0.3-0.8,0.6-1.2,0.8c-0.7,0.4-1.4,0.8-2.1,1l0.1-1.2l0-3.9l-0.2-2.7
		c0-0.8-0.1-1.6-0.2-2.3c-0.1-0.5-0.1-1.1-0.3-1.6c0-0.3-0.1-0.6-0.2-0.9C57.8,45.1,57.5,43.8,57.1,42.6z"/>
	<path class="st1" d="M59.4,43.9c0.4,0.5,0.7,1.3,0.9,1.9l0,0c-0.1-0.1-0.1-0.1-0.2-0.3l0-0.1c0-0.1-0.1-0.3-0.2-0.4
		c-0.1-0.1-0.2-0.3-0.2-0.5c0-0.1-0.1-0.2-0.2-0.3l0,0.1c0,0.2,0,0.3,0.1,0.5l0,0.1c0,0.1,0,0.2,0.1,0.2c0,0.1,0,0.1,0.1,0.2
		c0,0.1,0,0.2,0,0.3c0,0.3,0.2,0.8,0.3,1.1c0.1,0.3,0.1,0.8,0.3,1.1c0.3,0.4,0.3,1.2,0.5,1.6c-0.2,0.3-0.1,0.8-0.1,1.1l-0.1,1.8
		c-0.1,1.2-0.4,2.4-0.7,3.5c-0.2,0.6-0.4,1.2-0.7,1.8l-0.1,0l0-0.1l-0.1,0.4l0-3.9l0.1,0.2h0c0.1-0.4,0.1-0.9,0.2-1.4l0.4-4.8l0-1.1
		c0-0.3-0.1-0.6,0-1L59.4,43.9z"/>
	<path class="st9" d="M59.4,43.9c0.4,0.5,0.7,1.3,0.9,1.9l0,0c-0.1-0.1-0.1-0.1-0.2-0.3l0-0.1c0-0.1-0.1-0.3-0.2-0.4
		c-0.1-0.1-0.2-0.3-0.2-0.5c0-0.1-0.1-0.2-0.2-0.3l0,0.1c0,0.2,0,0.3,0.1,0.5l0,0.1c0,0.1,0,0.2,0.1,0.2c0,0.1,0,0.1,0.1,0.2
		c0,0.1,0,0.2,0,0.3c0,0.3,0.2,0.8,0.3,1.1c0.1,0.3,0.1,0.8,0.3,1.1c0.1,0.8,0.1,1.5,0.1,2.3c0,0.6-0.1,1.2-0.1,1.9
		c-0.2-0.3-0.2-0.9-0.2-1.3c0-0.7,0-1.4,0-2c-0.1-0.9-0.3-1.8-0.5-2.7L59.4,43.9z"/>
	<path class="st6" d="M60.3,47.8c0.3,0.4,0.3,1.2,0.5,1.6c-0.2,0.3-0.1,0.8-0.1,1.1l-0.1,1.8c-0.1,1.2-0.4,2.4-0.7,3.5
		c-0.2,0.6-0.4,1.2-0.7,1.8l-0.1,0l0-0.1c0.1-0.5,0.4-1,0.5-1.4c0.3-1,0.6-2.1,0.7-3.2c0-0.3,0.1-0.6,0-0.9c0-0.6,0.1-1.2,0.1-1.9
		C60.4,49.3,60.4,48.6,60.3,47.8z"/>
	<path class="st2" d="M60.8,49.4l1.3,7c0,0.2,0,0.6,0,0.8c-0.4,0.3-0.8,0.6-1.2,0.8c-0.7,0.4-1.4,0.8-2.1,1l0.1-1.2l0.1-0.4l0,0.1
		l0.1,0c0.4-0.5,0.5-1.2,0.7-1.8c0.4-1.1,0.6-2.3,0.7-3.5l0.1-1.8C60.7,50.2,60.6,49.7,60.8,49.4z"/>
	<path class="st2" d="M59.8,21L59.8,21c0.6,0.3,1.1,0.6,1.7,0.9c0.3,0.1,0.6,0.3,0.8,0.5c0.2,0.3,0.4,0.7,0.6,1l1.2,2.2l1.7,3.3
		l4.8,9.1c0.7,1.3,1.3,2.6,2.1,3.9c0.2,0.3,0.4,0.6,0.6,0.9c0,0,0,0.1,0.1,0.1l-9.1,19.5l-0.1,0l-0.2-0.1c0.2-0.2,0.2-0.5,0.2-0.8
		c0-0.1,0-0.3,0.1-0.4c0-0.1,0-0.2,0-0.4c0-0.1,0-0.3,0-0.3c0-0.1,0.2-0.2,0.3-0.3c0.2-0.3,0.3-0.6,0.5-0.9l0-0.1L65,59l0-0.1
		c0.3-1,0.5-1.9,0.7-2.9c0-0.3,0.1-0.6,0.1-0.8c0-0.2,0-0.4,0.1-0.5c-0.1-0.1-0.2-0.2-0.3-0.3c-0.2-0.1-0.3-0.2-0.5-0.3l0,0l0-0.1
		c0.1-0.3,0.2-0.5,0.3-0.8l0.6-1.2l1.2-2.3l3.3-6.6c-0.2-0.5-0.5-1-0.8-1.5l-1.1-2.2l-3.8-7.4L64,30.5c-0.2-0.4-0.5-0.8-0.7-1.2
		l0-0.1c-0.2-0.3-0.4-0.7-0.5-1l-1.2-2.4c-0.1-0.2-0.2-0.6-0.4-0.8c-0.1-0.1-0.5-0.3-0.7-0.4l-1.8-1.1l-1.3-0.8l0,0
		c0.2-0.1,0.4-0.3,0.7-0.4L59.8,21z"/>
	<path class="st3" d="M65,59L65,59c0.2-1.1,0.5-2,0.7-3c0-0.3,0.1-0.6,0.1-0.8c0-0.2,0-0.4,0.1-0.5l0.8,0.9L65,59z"/>
	
		<linearGradient id="SVGID_00000145056589431100709200000013417870952555652996_" gradientUnits="userSpaceOnUse" x1="71.7476" y1="39.6028" x2="51.4905" y2="52.6806" gradientTransform="matrix(1 0 0 -1 0 84.3154)">
		<stop  offset="0" style="stop-color:#2C6792"/>
		<stop  offset="1" style="stop-color:#71BED0"/>
	</linearGradient>
	<path style="fill:url(#SVGID_00000145056589431100709200000013417870952555652996_);" d="M58,22.3L58,22.3c0.9,0.7,1.9,1.2,2.8,1.8
		l0.7,0.4c0.1,0,0.2,0.1,0.2,0.1c0.1,0.1,0.2,0.4,0.3,0.5l0.7,1.4l1.1,2c0.2,0.2,0.3,0.5,0.4,0.7l0.6,1.1l1.9,3.7l3.6,6.9l0.7,1.3
		c0.1,0.2,0.3,0.5,0.3,0.7l-0.9,1.9l-2.8,5.7l-1.4,2.8c-0.2,0.3-0.3,0.7-0.5,1c-0.2-0.1-0.3-0.2-0.5-0.3l0,0l0-0.1
		c0.1-0.3,0.2-0.5,0.3-0.8l0.6-1.2l1.2-2.3l3.3-6.6c-0.2-0.5-0.5-1-0.8-1.5l-1.1-2.2l-3.8-7.4L64,30.5c-0.2-0.4-0.5-0.8-0.7-1.2
		l0-0.1c-0.2-0.3-0.4-0.7-0.5-1l-1.2-2.4c-0.1-0.2-0.2-0.6-0.4-0.8c-0.1-0.1-0.5-0.3-0.7-0.4l-1.8-1.1l-1.3-0.8l0,0
		C57.5,22.6,57.7,22.4,58,22.3z"/>
	<path class="st6" d="M33.3,33.2c0.1-0.1,0.3-0.2,0.5-0.3l0.1,0c0.5-0.1,1.2-0.2,1.7,0c0,0.2,0,0.2,0.1,0.3c0.1,0.2,0.1,0.3,0.1,0.5
		c0.1,0.3,0.2,0.5,0.4,0.8l0,0.1l0,0.1c0.2,0.3,0.3,0.7,0.4,1.1c0,0.1,0.1,0.2,0.1,0.2c0.2,0.1,0.9,0.6,0.9,0.8l0,0l0.1,0l0.5,0.4
		c0.3,0.1,0.5,0.3,0.8,0.4l1.2,0.7c2,1.1,4,1.9,6.3,2.1c0.4,0,0.9,0.1,1.3,0.1c0.3,0,0.8-0.3,1.1-0.5l0.1-0.1l0,0l1.5-2.1l1-1.8
		l0.1-0.2c-0.1-0.1-0.2,0-0.2-0.2c0.1-0.2,0.4-0.7,0.6-0.8l0,0.1c0.5,0.6,1.2,1,1.6,1.6c0.3,0.4,0.6,0.8,0.8,1.2
		c0.7,1.2,1.3,2.6,1.6,4c0.1,0.5,0.1,1,0.1,1.5c0,0.2-0.1,0.4-0.2,0.6c-0.1,0.5-0.3,1-0.4,1.6c-0.1,0.3-0.1,0.5,0,0.7
		c0.4-0.9,0.7-1.8,1-2.7l0.2-1l0,0.1l0.1,0.2c0-0.1,0-0.3,0-0.4c0-0.1,0-0.1,0-0.2l0.1-0.1l0,0.1l0,0.1l0.1,0c0,0.1,0,0.2,0,0.3
		l0,0.1c0,0.1,0,0.1,0.1,0.2l0,0c0.4,1.2,0.7,2.5,1,3.8c0.1,0.3,0.2,0.6,0.2,0.9c0.1,0.5,0.2,1.1,0.3,1.6c0.1,0.8,0.2,1.5,0.2,2.3
		l0.2,2.7l0,3.9L58.8,59l-0.1,0.5c-0.1,0.9-0.2,1.9-0.6,2.7c-0.3,0.5-0.7,0.9-1.1,1.3c-0.3,0.3-0.6,0.6-0.8,0.8
		c-0.1,0-0.1,0-0.1,0.1c0.5-0.8,1-1.5,1.4-2.4c-0.2,0.1-0.4,0.4-0.6,0.5l-0.6,0.6l-1.9,1.7c-0.6,0.6-1.2,1.1-1.8,1.7
		c-0.4,0.3-0.8,0.6-1.2,0.9l-0.1-0.1L51,66.7l-1.9-3.2L47.5,61l-0.3-0.5L47,60.2l-0.4-0.6L46.2,59l-0.1-0.2l-0.2-0.2l-0.4-0.6
		l-0.2-0.3l-0.5-0.8c-0.4-0.5-0.8-1.1-1.1-1.7l-0.2-0.3c-0.1-0.2-0.3-0.5-0.4-0.7L43,53.9c0-0.2-0.1-0.5-0.2-0.7l-0.4-1.2l-1-2.4
		c-0.7-0.4-1.5-0.8-2.2-1.2c-1.8-1-3.4-2.2-4.8-3.7c-0.6-0.8-1.3-1.5-1.8-2.3c-0.4-0.6-0.7-1.2-1-1.8l-0.3-0.6
		c-0.1-0.3-0.2-0.6-0.3-0.9l-0.1,0l0.1-0.1c0-0.2-0.1-0.3-0.1-0.5c-0.1-0.7-0.1-1.5,0-2.2c0.1-0.7,0.4-1.3,0.8-1.9
		c0.1-0.1,0.2-0.3,0.3-0.4c0.2-0.1,0.3-0.3,0.5-0.5C32.8,33.4,33,33.3,33.3,33.2z"/>
	<path class="st2" d="M45.5,57.9l2.7-3l0.1,0l0.1,0.3c0,0.1,0.1,0.3,0,0.4c0,0.1-0.2,0.3-0.3,0.4l-1.7,1.9c-0.2,0.2-0.5,0.4-0.6,0.7
		L45.5,57.9z"/>
	<path class="st2" d="M44.8,56.8c0.6-0.5,2.7-2.9,3.2-3l0.2,0.6l-2.8,3.2L44.8,56.8z"/>
	
		<linearGradient id="SVGID_00000149348384461242726100000011530877522797647488_" gradientUnits="userSpaceOnUse" x1="47.3022" y1="30.6674" x2="30.0828" y2="48.0422" gradientTransform="matrix(1 0 0 -1 0 84.3154)">
		<stop  offset="0" style="stop-color:#5B5F5A"/>
		<stop  offset="1" style="stop-color:#CAC8C6"/>
	</linearGradient>
	<path style="fill:url(#SVGID_00000149348384461242726100000011530877522797647488_);" d="M38.2,46.9c-0.3-0.1-0.5-0.3-0.8-0.4
		c-0.6-0.4-1.2-0.8-1.8-1.2c-1.5-1.3-2.9-2.7-3.9-4.5c-0.4-0.7-0.7-1.6-0.8-2.4c-0.1-1,0.1-2.2,0.5-3.1c0.1-0.2,0.2-0.4,0.4-0.6
		l0,0.1c0,0.2-0.1,0.4-0.2,0.5c-0.4,2,0.1,3.8,1.2,5.5c1,1.7,2.4,3.2,4,4.3c0.3,0.2,0.6,0.4,0.9,0.6c0.2,0.1,0.5,0.2,0.6,0.3
		l2.2,1.2c0.8,0.5,1.9,0.8,2.8,1c0.3,0,0.6,0.1,0.8,0.1c0.4-0.1,1.1,0.5,1.5,0.7c1,0.7,2,1.7,2.5,2.9c0.1,0.3,0.2,0.4,0.2,0.8
		c0,0.1,0,0.1,0,0.1l0,0.1c-2.3-1.6-4.7-3.1-7.2-4.2c-0.1-0.1-0.2-0.1-0.3-0.2c-0.2-0.1-0.4-0.2-0.6-0.3l-1.4-0.7
		C38.7,47.2,38.4,47.1,38.2,46.9z"/>
	<path class="st3" d="M33.3,33.2c0.3,0.1,0.7,0.3,0.9,0.5c-0.2,0.3-0.4,0.6-0.5,0.9c-0.2,0.7-0.1,1.5,0.1,2.2
		c0.5,1.8,1.4,3.4,2.5,4.8c2,2.6,4.4,4.5,7.2,6.1l0.7,0.4c-0.3,0-0.6-0.1-0.8-0.1c-1-0.2-2-0.4-2.8-1l-2.2-1.2
		c-0.1-0.1-0.4-0.3-0.6-0.3c-0.3-0.2-0.6-0.4-0.9-0.6c-1.6-1.1-3-2.6-4-4.3c-1-1.7-1.6-3.5-1.2-5.5c0-0.2,0.2-0.4,0.2-0.5l0-0.1
		c0.1-0.1,0.1-0.2,0.2-0.3l0,0c0.2-0.1,0.3-0.3,0.5-0.5C32.8,33.4,33,33.3,33.3,33.2z"/>
	
		<linearGradient id="SVGID_00000004504125821514500210000000041623126309770393_" gradientUnits="userSpaceOnUse" x1="34.854" y1="40.6443" x2="47.3687" y2="42.5924" gradientTransform="matrix(1 0 0 -1 0 84.3154)">
		<stop  offset="0" style="stop-color:#413A39"/>
		<stop  offset="1" style="stop-color:#5B666E"/>
	</linearGradient>
	<path style="fill:url(#SVGID_00000004504125821514500210000000041623126309770393_);" d="M33.3,33.2c0.1-0.1,0.3-0.2,0.5-0.3l0.1,0
		c0.5-0.1,1.2-0.2,1.7,0c0,0.2,0,0.2,0.1,0.3c0.1,0.2,0.1,0.3,0.1,0.5c0.1,0.3,0.2,0.5,0.4,0.8l0,0.1c0.1,0.5,0.3,1,0.5,1.5
		c-0.2,0.2-0.4,0.4-0.6,0.6c-0.3,0.4-0.5,0.9-0.5,1.4c0,1.1,0.6,2.1,1.3,2.9c0.8,0.8,1.6,1.6,2.5,2.3l0.3,0.2c0.1,0,0,0,0.1-0.1
		l0.1,0.1c0.1,0.4,2.9,2.5,3.3,2.7c0.1,0,0.1,0.1,0.2,0.1l0,0c0.5,0.1,0.9,0.3,1.4,0.4c0.9,0.2,1.9,0.4,2.8,0.4c0.4,0,0.8,0,1.2-0.1
		l0.3,2.6c0,0.6,0.1,1.4-0.1,2c0,0.2,0.1,0.3,0.2,0.4l-0.5,0.6c0-0.1,0-0.1,0-0.1c0-0.3-0.1-0.5-0.2-0.8c-0.5-1.2-1.5-2.1-2.5-2.9
		c-0.3-0.2-1.1-0.8-1.5-0.7l-0.7-0.4c-2.8-1.5-5.3-3.5-7.2-6.1c-1.1-1.4-2-3-2.5-4.8c-0.2-0.7-0.3-1.5-0.1-2.2
		c0.1-0.3,0.3-0.6,0.5-0.9C34,33.4,33.6,33.3,33.3,33.2z"/>
	<path class="st11" d="M43.3,46.2L43.3,46.2c0.5,0.1,1,0.3,1.4,0.4c0.9,0.2,1.9,0.4,2.8,0.4c0.4,0,0.8,0,1.2-0.1l0.3,2.6
		c0,0.6,0.1,1.4-0.1,2c-0.6-1.1-1.4-2.1-2.3-3c-0.5-0.4-1-0.8-1.5-1.2C44.5,47,43.9,46.7,43.3,46.2L43.3,46.2z"/>
	
		<linearGradient id="SVGID_00000090288844941059031010000013056686277129979288_" gradientUnits="userSpaceOnUse" x1="60.9697" y1="38.146" x2="49.3353" y2="18.3747" gradientTransform="matrix(1 0 0 -1 0 84.3154)">
		<stop  offset="0" style="stop-color:#522A26"/>
		<stop  offset="1" style="stop-color:#434051"/>
	</linearGradient>
	<path style="fill:url(#SVGID_00000090288844941059031010000013056686277129979288_);" d="M56.8,42.4l0.1,0.2c0-0.1,0-0.3,0-0.4
		c0-0.1,0-0.1,0-0.2l0.1-0.1l0,0.1l0,0.1l0.1,0c0,0.1,0,0.2,0,0.3l0,0.1c0,0.1,0,0.1,0.1,0.2l0,0c0.4,1.2,0.7,2.5,1,3.8
		c0.1,0.3,0.2,0.6,0.2,0.9c0.1,0.5,0.2,1.1,0.3,1.6c0.1,0.8,0.2,1.5,0.2,2.3l0.2,2.7l0,3.9L58.8,59l-0.1,0.5
		c-0.1,0.9-0.2,1.9-0.6,2.7c-0.3,0.5-0.7,0.9-1.1,1.3c-0.3,0.3-0.6,0.6-0.8,0.8c-0.1,0-0.1,0-0.1,0.1c0.5-0.8,1-1.5,1.4-2.4
		c-0.2,0.1-0.4,0.4-0.6,0.5l-0.6,0.6l-1.9,1.7c-0.6,0.6-1.2,1.1-1.8,1.7c-0.4,0.3-0.8,0.6-1.2,0.9l-0.1-0.1L51,66.7l0.2-0.2
		c1.3-1.5,2.5-3,3.6-4.6c0.2-0.3,0.5-0.6,0.6-0.9c0.1-0.2,0.1-0.5,0.2-0.8l0.4-2.5c0-0.2,0.3-0.4,0.3-0.6c0-0.2-0.1-0.6-0.1-0.8
		l-0.1-1L56,53.1l-0.3-3c0-0.9,0.1-1.7,0.3-2.5c0.5-1.3,0.6-2.7,1-4.1l0-0.3C56.8,42.9,56.8,42.6,56.8,42.4z"/>
	
		<linearGradient id="SVGID_00000082340677097074915270000018061156082252140946_" gradientUnits="userSpaceOnUse" x1="59.6565" y1="26.9019" x2="51.2273" y2="31.109" gradientTransform="matrix(1 0 0 -1 0 84.3154)">
		<stop  offset="0" style="stop-color:#80747A"/>
		<stop  offset="1" style="stop-color:#D78E78"/>
	</linearGradient>
	<path style="fill:url(#SVGID_00000082340677097074915270000018061156082252140946_);" d="M56.8,42.4l0.1,0.2c0-0.1,0-0.3,0-0.4
		c0-0.1,0-0.1,0-0.2l0.1-0.1l0,0.1l0,0.1l0.1,0c0,0.1,0,0.2,0,0.3l0,0.1c0,0.1,0,0.1,0.1,0.2l0,0c0.4,1.2,0.7,2.5,1,3.8
		c0.1,0.3,0.2,0.6,0.2,0.9c0.1,0.5,0.2,1.1,0.3,1.6c0.1,0.8,0.2,1.5,0.2,2.3l0.2,2.7l0,3.9L58.8,59l-0.1,0.5
		c-0.1,0.9-0.2,1.9-0.6,2.7c-0.3,0.5-0.7,0.9-1.1,1.3c-0.3,0.3-0.6,0.6-0.8,0.8c-0.1,0-0.1,0-0.1,0.1c0.5-0.8,1-1.5,1.4-2.4
		c-0.2,0.1-0.4,0.4-0.6,0.5l-0.6,0.6l-1.9,1.7c-0.6,0.6-1.2,1.1-1.8,1.7c-0.4,0.3-0.8,0.6-1.2,0.9l-0.1-0.1c0.2-0.3,0.5-0.6,0.8-0.9
		l1.2-1.3l2.6-3.1c0.2-0.3,0.6-0.6,0.7-1c0.2-0.4,0.2-0.9,0.2-1.3c0.1-1.2,0.2-2.5,0.2-3.7c0-1.5-0.3-3-0.2-4.5
		c0.2,0.5,0.3,1,0.4,1.6c0.1,0.9,0.2,1.8,0.2,2.7c0.2-0.9,0.5-1.8,0.6-2.7c0.2-1.3,0.3-2.7,0.2-4.1l-0.2-1.7l-0.9-4l0-0.3
		C56.8,42.9,56.8,42.6,56.8,42.4z"/>
	<path class="st5" d="M57.4,62c0.2-0.4,0.3-1.1,0.4-1.6c0.3-1.7,0.6-3.4,0.7-5.2l0-3.6c0-0.3,0.1-0.6,0.1-1l0,0c0,0.1,0,0.2,0,0.3
		c0,0.1,0.1,0.1,0.1,0.2l0.2,2.7l0,3.9L58.8,59l-0.1,0.5c-0.1,0.9-0.2,1.9-0.6,2.7c-0.3,0.5-0.7,0.9-1.1,1.3
		c-0.3,0.3-0.6,0.6-0.8,0.8c-0.1,0-0.1,0-0.1,0.1C56.5,63.6,57.1,62.9,57.4,62z"/>
	<path class="st4" d="M50.8,50.3c0.2,0,0.7,0.5,0.9,0.7l3.7,3.9c0.1,0.1,0.1,0.5,0.2,0.6l0.4,1.4c-0.5,0.5-1.1,1-1.6,1.4
		c-0.4,0.4-0.9,0.9-1.4,1.2c-0.5,0.4-0.9,0.9-1.4,1.4l-2.4,2.6L47.5,61l-0.3-0.5L47,60.2l-0.4-0.6L46.2,59l-0.1-0.2
		c0.2-0.1,0.4-0.2,0.6-0.3c0.7-0.7,1.5-1.5,2.1-2.3L48.5,55L48,53.5l0,0c0.2-0.3,0.5-0.6,0.8-0.9L50.8,50.3z"/>
	<path class="st9" d="M54.1,55.2L54.1,55.2c0.3,0.3,0.4,0.7,0.5,1c0,0.1,0.1,0.3,0,0.4l0,0l-0.1,0l0-0.1l-0.1-0.1L54.1,55.2z"/>
	<path class="st6" d="M50.1,57c0.2,0.3,0.6,0.6,0.9,0.9c0.3,0.3,0.6,0.7,1,0.9c-0.2,0.1-0.3,0.3-0.4,0.5c-0.4,0.5-2.2,2.4-2.6,2.4
		c0.3-0.4,0.6-0.8,1-1.1l1.6-1.5c0-0.1-0.3-0.3-0.4-0.4l-1-1L48,59.9c-0.2,0.2-0.4,0.4-0.6,0.6c0,0-0.1,0-0.2,0L47,60.2l2.8-2.8
		L50.1,57z"/>
	<path class="st5" d="M50.8,50.3c0.2,0.4,0.4,0.9,0.5,1.3l-2.1,2.4l0.6,2.4l0,0.1l0,0c0.1,0.2,0.2,0.4,0.3,0.6l-0.4,0.4L47,60.2
		l-0.4-0.6L46.2,59l-0.1-0.2c0.2-0.1,0.4-0.2,0.6-0.3c0.7-0.7,1.5-1.5,2.1-2.3L48.5,55L48,53.5l0,0c0.2-0.3,0.5-0.6,0.8-0.9
		L50.8,50.3z"/>
	<path class="st2" d="M46.1,58.7c0.2-0.1,0.4-0.2,0.6-0.3L46.2,59L46.1,58.7z"/>
	<path class="st9" d="M49.8,56.3l0,0.1l0,0c0.1,0.2,0.2,0.4,0.3,0.6l-0.4,0.4L47,60.2l-0.4-0.6l2.2-2.2l0.7-0.6
		C49.6,56.5,49.7,56.4,49.8,56.3z"/>
	<path class="st6" d="M54.5,56.6c-0.1,0.3-1.5,1.3-1.8,1.6c-0.5-0.4-1-0.9-1.5-1.4c-0.3-0.3-0.7-0.6-0.8-0.9
		c-0.3-0.6-0.4-1.3-0.6-1.9l1.6-1.7c0.2,0.2,0.5,0.4,0.7,0.6l1.4,1.6c0.2,0.2,0.5,0.4,0.6,0.7L54.5,56.6L54.5,56.6z"/>
	<path class="st9" d="M51.7,52.9l0.2,0L52,53c0.6,0.9,1.4,1.7,1.9,2.6c0.2,0.3,0.3,0.6,0.4,0.9l-0.2-0.1c-0.3-0.3-0.5-0.7-0.7-1.1
		l-0.7-1C52.4,53.8,51.9,53.4,51.7,52.9z"/>
	<path class="st4" d="M54.2,56.4l-1.3,1.2l-1.4-1.2c-0.2-0.2-0.5-0.4-0.6-0.6c-0.1-0.2-0.1-0.4-0.2-0.6L50.4,54
		c0.4-0.4,0.8-0.8,1.3-1.2c0.2,0.5,0.7,1,1,1.4l0.7,1C53.6,55.7,53.9,56.1,54.2,56.4z"/>
	<path class="st6" d="M36.2,34.5L36.2,34.5c0.2,0.4,0.3,0.8,0.4,1.1c0,0.1,0.1,0.2,0.1,0.2c0.2,0.1,0.9,0.6,0.9,0.8l0,0l0.1,0
		l0.5,0.4c0.3,0.1,0.5,0.3,0.8,0.4l1.2,0.7c2,1.1,4,1.9,6.3,2.1c0.4,0,0.9,0.1,1.3,0.1c0.3,0,0.8-0.3,1.1-0.5l0.1-0.1l0,0l1.5-2.1
		l1-1.8l0.1-0.2c-0.1-0.1-0.2,0-0.2-0.2c0.1-0.2,0.4-0.7,0.6-0.8l0,0.1c0.5,0.6,1.2,1,1.6,1.6c0.3,0.4,0.6,0.8,0.8,1.2
		c0.7,1.2,1.3,2.6,1.6,4c0.1,0.5,0.1,1,0.1,1.5c0,0.2-0.1,0.4-0.2,0.6c-0.1,0.5-0.3,1-0.4,1.6c-0.1,0.3-0.1,0.5,0,0.7
		c-0.1,0.4-0.3,0.7-0.4,1c-0.5,1-1.1,2-1.7,3l-1,1.3c-0.2-0.2-0.4-0.5-0.7-0.6l-0.2-0.1c-0.2-0.2-0.4-0.4-0.7-0.5l-0.6,0.4
		c-0.1,0.1-0.2,0.2-0.4,0.3L49,52c-0.1-0.1-0.1-0.3-0.2-0.4c0.2-0.6,0.2-1.4,0.1-2l-0.3-2.6C48.3,47,48,47,47.6,47
		c-1,0-1.9-0.2-2.8-0.4c-0.5-0.1-0.9-0.3-1.4-0.4l0,0c-0.1,0-0.1,0-0.2-0.1c-0.4-0.2-3.2-2.3-3.3-2.7l-0.1-0.1c-0.1,0.1,0,0-0.1,0.1
		l-0.3-0.2c-0.9-0.7-1.7-1.5-2.5-2.3c-0.8-0.8-1.4-1.8-1.3-2.9c0-0.5,0.2-1,0.5-1.4c0.2-0.2,0.4-0.4,0.6-0.6
		C36.4,35.5,36.3,35,36.2,34.5z"/>
	<path class="st7" d="M39.5,43c-0.6-0.5-1.2-1.3-1.7-1.9c-0.1-0.2-0.3-0.4-0.4-0.6c-0.1-0.1,0-0.3,0.1-0.4c0.6,1.1,1.4,2,2.3,2.8
		c0.2,0.2,0.6,0.5,0.8,0.8C40.2,43.5,39.9,43.2,39.5,43z"/>
	<path class="st11" d="M50.4,39.9l0.4,0.4c0.2,0.3,0.3,0.6,0.4,0.9c0.2,0.6,0.2,1.3,0.1,1.9c-0.2,1.3-0.7,2.5-1.9,3.4
		c-0.2,0.1-0.3,0.2-0.5,0.3c0-0.1,0-0.2-0.1-0.3c-0.3-0.4-1.5-0.7-1.9-0.7c0.5,0,1.1-0.3,1.5-0.5l0.6-0.4c1-0.8,1.6-1.8,1.8-3
		c0-0.7-0.1-1.3-0.4-1.9L50.4,39.9z"/>
	<path class="st3" d="M43.3,46.2c-0.1,0-0.1,0-0.2-0.1c-0.4-0.2-3.2-2.3-3.3-2.7c1.7,1,3.5,1.7,5.4,2.1c0.5,0.1,1.1,0.1,1.6,0.3
		c0.5,0.1,1.7,0.3,1.9,0.7c0.1,0.1,0.1,0.2,0.1,0.3l-0.2,0.1C48.3,47,48,47,47.6,47c-1,0-1.9-0.2-2.8-0.4
		C44.3,46.5,43.8,46.3,43.3,46.2L43.3,46.2z"/>
	<path class="st1" d="M50.8,40.3c0.1,0.1,0.2,0.2,0.3,0.3c0.4,0.4,0.6,0.8,0.9,1.3c0.1,0.3,0.2,0.6,0.2,0.9c0,1.4-0.3,2.7-0.8,4
		c-0.2,0.6-0.5,1.2-0.7,1.8c-0.1,0.3-0.2,0.6-0.3,0.9c-0.1,0.3-0.1,0.7-0.2,1c-0.1,0.1-0.2,0.2-0.4,0.3L49,52
		c-0.1-0.1-0.1-0.3-0.2-0.4c0.2-0.6,0.2-1.4,0.1-2l-0.3-2.6l0.2-0.1c0.2-0.1,0.3-0.2,0.5-0.3c1.2-0.8,1.7-2,1.9-3.4
		c0-0.6,0-1.3-0.1-1.9C51.1,40.9,51,40.6,50.8,40.3z"/>
	<path class="st2" d="M51.6,35.7c-0.1-0.1-0.2,0-0.2-0.2c0.1-0.2,0.4-0.7,0.6-0.8l0,0.1c0.5,0.6,1.2,1,1.6,1.6
		c0.3,0.4,0.6,0.8,0.8,1.2c0.7,1.2,1.3,2.6,1.6,4c0.1,0.5,0.1,1,0.1,1.5c0,0.2-0.1,0.4-0.2,0.6c-0.1,0.5-0.3,1-0.4,1.6
		c-0.1,0.3-0.1,0.5,0,0.7c-0.1,0.4-0.3,0.7-0.4,1c-0.5,1-1.1,2-1.7,3l-1,1.3c-0.2-0.2-0.4-0.5-0.7-0.6l-0.2-0.1
		c-0.2-0.2-0.4-0.4-0.7-0.5l-0.6,0.4c0.1-0.3,0.1-0.6,0.2-1c0.1-0.3,0.2-0.6,0.3-0.9c0.2-0.6,0.5-1.2,0.7-1.8c0.5-1.3,0.8-2.6,0.8-4
		l0,0c0.1-0.1,0-0.3,0-0.4c0-0.4,0-0.8-0.1-1.2c-0.2-1-0.5-1.9-1.2-2.8c-0.2-0.3-0.5-0.4-0.7-0.7l0,0l1-1.8L51.6,35.7z"/>
	
		<linearGradient id="SVGID_00000130614227080635835400000014362457984216363162_" gradientUnits="userSpaceOnUse" x1="49.895" y1="34.0952" x2="55.2785" y2="48.1399" gradientTransform="matrix(1 0 0 -1 0 84.3154)">
		<stop  offset="0" style="stop-color:#5B516C"/>
		<stop  offset="1" style="stop-color:#96808A"/>
	</linearGradient>
	<path style="fill:url(#SVGID_00000130614227080635835400000014362457984216363162_);" d="M51.6,35.7c-0.1-0.1-0.2,0-0.2-0.2
		c0.1-0.2,0.4-0.7,0.6-0.8l0,0.1c0.5,0.6,1.2,1,1.6,1.6c0.3,0.4,0.6,0.8,0.8,1.2c0.7,1.2,1.3,2.6,1.6,4c0.1,0.5,0.1,1,0.1,1.5
		c0,0.2-0.1,0.4-0.2,0.6c-0.1,0.5-0.3,1-0.4,1.6c-0.1,0.3-0.1,0.5,0,0.7c-0.1,0.4-0.3,0.7-0.4,1c-0.5,1-1.1,2-1.7,3l-1,1.3
		c-0.2-0.2-0.4-0.5-0.7-0.6c0-0.1,0.1-0.2,0.2-0.2c0.8-1.9,1.5-3.8,2.1-5.8c0.3-0.8,0.5-1.7,0.6-2.6c0.1-0.6,0-1.1,0-1.7
		c-0.1-0.3-0.2-0.6-0.2-0.9c-0.3-1-0.8-2-1.5-2.8c-0.3-0.3-0.6-0.6-1-0.9C51.9,35.8,51.8,35.7,51.6,35.7z"/>
	<path class="st3" d="M54.7,40.4c0.1,0.1,0.2,0.4,0.2,0.5c0.3,1,0.3,2,0.2,3c0,0.7-0.1,1.3-0.3,2c-0.4,1.3-1.2,2.8-2.1,3.8
		c-0.2,0.2-0.4,0.5-0.6,0.7c-0.1,0-0.1,0-0.1,0.1c0.8-1.9,1.5-3.8,2.1-5.8c0.3-0.8,0.5-1.7,0.6-2.6C54.8,41.5,54.7,41,54.7,40.4z"/>
	<path class="st3" d="M37.6,36.7L37.6,36.7l0.6,0.4c0.3,0.1,0.5,0.3,0.8,0.4l1.2,0.7c2,1.1,4,1.9,6.3,2.1c0.4,0,0.9,0.1,1.3,0.1
		c0.3,0,0.8-0.3,1.1-0.5l0.1-0.1c-0.1,0.6-0.1,1.1-0.2,1.7c0,0.9,0.1,2.1,0.5,3c-0.3,0.2-0.6,0.4-0.9,0.6c-0.4,0.2-0.9,0.5-1.4,0.5
		c-1.6-0.1-3.2-0.5-4.7-1.1c-0.6-0.3-1.2-0.5-1.8-0.9c-0.2-0.3-0.5-0.5-0.8-0.8c-0.9-0.9-1.7-1.8-2.3-2.8
		C37.9,39,37.8,37.7,37.6,36.7z"/>
	<path class="st9" d="M38.2,37.1c0.3,0.1,0.5,0.3,0.8,0.4l1.2,0.7c2,1.1,4,1.9,6.3,2.1c0.4,0,0.9,0.1,1.3,0.1c0.3,0,0.8-0.3,1.1-0.5
		l0.1-0.1c-0.1,0.6-0.1,1.1-0.2,1.7c0,0.9,0.1,2.1,0.5,3c-0.3,0.2-0.6,0.4-0.9,0.6c-0.4,0.2-0.9,0.5-1.4,0.5
		c-0.3-0.4-0.7-0.6-1.1-0.9c-1-0.8-2-1.8-2.6-3c-0.2-0.3-0.3-0.6-0.4-0.9c-0.1-0.1-0.1-0.4-0.2-0.5c-0.1-0.1-0.3-0.2-0.4-0.2
		l-0.7-0.5c-0.8-0.5-1.5-1.1-2.2-1.6C39,37.7,38.6,37.4,38.2,37.1z"/>
	<rect x="-0.2" y="0" class="st27" width="85" height="85"/>
</g>
</svg>
