<svg width="15" height="8" viewBox="0 0 15 8" fill="none" xmlns="http://www.w3.org/2000/svg">
<path d="M8.28027 7.52438L14.2597 1.86438C14.3589 1.77142 14.4376 1.66082 14.4914 1.53896C14.5451 1.4171 14.5728 1.28639 14.5728 1.15438C14.5728 1.02237 14.5451 0.891663 14.4914 0.769804C14.4376 0.647945 14.3589 0.537344 14.2597 0.444381C14.0614 0.25813 13.7932 0.153588 13.5136 0.153588C13.234 0.153588 12.9658 0.25813 12.7675 0.444381L7.47595 5.39438L2.23733 0.444381C2.03904 0.25813 1.77081 0.153588 1.49122 0.153588C1.21163 0.153588 0.943401 0.25813 0.745114 0.444381C0.645117 0.536995 0.565563 0.64744 0.511064 0.769316C0.456564 0.891191 0.428204 1.02207 0.427622 1.15438C0.428204 1.28669 0.456564 1.41757 0.511064 1.53945C0.565563 1.66132 0.645117 1.77177 0.745114 1.86438L6.72455 7.52438C6.82366 7.62589 6.94393 7.70689 7.07781 7.7623C7.21169 7.81771 7.35626 7.84631 7.50241 7.84631C7.64857 7.84631 7.79314 7.81771 7.92701 7.7623C8.06089 7.70689 8.18116 7.62589 8.28027 7.52438Z" fill="#323146"/>
</svg>
