<svg width="15" height="8" viewBox="0 0 15 8" fill="none" xmlns="http://www.w3.org/2000/svg">
<path d="M6.71973 0.475619L0.740292 6.13562C0.641098 6.22858 0.562366 6.33918 0.508638 6.46104C0.454909 6.5829 0.427246 6.71361 0.427246 6.84562C0.427246 6.97763 0.454909 7.10834 0.508638 7.2302C0.562366 7.35206 0.641098 7.46266 0.740292 7.55562C0.938579 7.74187 1.20681 7.84641 1.4864 7.84641C1.76599 7.84641 2.03422 7.74187 2.23251 7.55562L7.52405 2.60562L12.7627 7.55562C12.961 7.74187 13.2292 7.84641 13.5088 7.84641C13.7884 7.84641 14.0566 7.74187 14.2549 7.55562C14.3549 7.463 14.4344 7.35256 14.4889 7.23068C14.5434 7.10881 14.5718 6.97793 14.5724 6.84562C14.5718 6.71331 14.5434 6.58243 14.4889 6.46055C14.4344 6.33868 14.3549 6.22823 14.2549 6.13562L8.27545 0.475619C8.17634 0.374115 8.05607 0.293106 7.92219 0.237699C7.78831 0.182291 7.64374 0.153687 7.49759 0.153687C7.35143 0.153687 7.20686 0.182291 7.07299 0.237699C6.93911 0.293106 6.81884 0.374115 6.71973 0.475619Z" fill="#323146"/>
</svg>
