<?xml version="1.0" encoding="utf-8"?>
<!-- Generator: Adobe Illustrator 27.1.1, SVG Export Plug-In . SVG Version: 6.00 Build 0)  -->
<svg version="1.1" id="Слой_1" xmlns="http://www.w3.org/2000/svg" xmlns:xlink="http://www.w3.org/1999/xlink" x="0px" y="0px"
	 viewBox="0 0 24 24" style="enable-background:new 0 0 24 24;" xml:space="preserve">
<style type="text/css">
	.st0{fill:#393931;}
</style>
<path class="st0" d="M22.5,6H2.2c0-1-0.8-1.9-1.9-1.9C0.2,4.1,0,4.3,0,4.5s0.2,0.4,0.4,0.4C1,4.9,1.5,5.4,1.5,6v13.5
	c0,0.2,0.2,0.4,0.4,0.4s0.4-0.2,0.4-0.4v-0.4H3c0.6,0,1.1-0.5,1.1-1.1v0h18.4c0.8,0,1.5-0.7,1.5-1.5v-9C24,6.7,23.3,6,22.5,6z
	 M23.2,16.5c0,0.4-0.3,0.7-0.7,0.7H3.8c-0.2,0-0.4,0.2-0.4,0.4V18c0,0.2-0.2,0.4-0.4,0.4H2.2V6.7h20.3c0.4,0,0.7,0.3,0.7,0.7V16.5z"
	/>
<path class="st0" d="M11.2,9c-1.1,0-2,0.6-2.5,1.4c0,0-0.1,0.1-0.1,0.1C8.4,11,8.2,11.5,8.2,12c0,0.5,0.1,1,0.4,1.5c0,0,0,0,0,0.1
	c0.5,0.9,1.5,1.5,2.6,1.5c1.7,0,3-1.3,3-3c0-0.5-0.1-1-0.4-1.5c0,0,0,0,0-0.1C13.3,9.6,12.3,9,11.2,9z M9,12c0-0.2,0-0.4,0.1-0.6
	c0.2,0.1,0.4,0.3,0.7,0.5c0.3,0.2,0.6,0.3,0.8,0.4c-0.1,0.1-0.3,0.2-0.5,0.3c-0.4,0.2-0.7,0.3-0.9,0.4C9.1,12.7,9,12.3,9,12z
	 M13.5,12c0,0.2,0,0.4-0.1,0.6c-0.2-0.2-0.4-0.3-0.7-0.5c-0.3-0.2-0.5-0.3-0.7-0.3c0.1-0.1,0.3-0.2,0.4-0.3c0.4-0.2,0.7-0.3,0.9-0.4
	C13.4,11.3,13.5,11.7,13.5,12z M12.8,10.4c-0.2,0.1-0.5,0.2-0.8,0.4c-0.3,0.2-0.5,0.3-0.7,0.5c0-0.2,0-0.3,0-0.6
	c0-0.5,0.1-0.8,0.1-0.9C12,9.8,12.5,10,12.8,10.4z M10.7,9.8c0,0.2-0.1,0.5-0.1,0.9c0,0.3,0,0.6,0.1,0.8c-0.1-0.1-0.3-0.1-0.5-0.2
	c-0.4-0.2-0.6-0.4-0.7-0.6C9.7,10.3,10.2,10,10.7,9.8z M9.7,13.6c0.2-0.1,0.5-0.2,0.8-0.4c0.3-0.2,0.5-0.3,0.7-0.5
	c0,0.2,0,0.3,0,0.6c0,0.5-0.1,0.8-0.1,0.9C10.5,14.2,10,14,9.7,13.6z M11.8,14.2c0-0.2,0.1-0.5,0.1-0.9c0-0.4,0-0.6-0.1-0.9
	c0.1,0.1,0.3,0.1,0.5,0.3c0.4,0.2,0.7,0.5,0.8,0.6C12.8,13.7,12.4,14,11.8,14.2z"/>
<path class="st0" d="M20.6,7.9c-0.2,0-0.4,0.2-0.4,0.4s0.2,0.4,0.4,0.4c0.4,0,0.8,0.3,0.8,0.8v5.2c0,0.4-0.3,0.8-0.8,0.8h-9.4
	c-1.9,0-3.4-1.5-3.4-3.4s1.5-3.4,3.4-3.4h7.9c0.2,0,0.4-0.2,0.4-0.4s-0.2-0.4-0.4-0.4h-7.9C9,7.9,7.1,9.7,7.1,12
	c0,2.3,1.9,4.1,4.1,4.1h9.4c0.8,0,1.5-0.7,1.5-1.5V9.4C22.1,8.5,21.5,7.9,20.6,7.9z"/>
<path class="st0" d="M5.2,10.9H4.1c-0.4,0-0.8,0.3-0.8,0.8v0.8c0,0.4,0.3,0.8,0.8,0.8h1.1c0.4,0,0.8-0.3,0.8-0.8v-0.8
	C6,11.2,5.7,10.9,5.2,10.9z M4.1,12.4v-0.8h1.1l0,0.8H4.1z"/>
<path class="st0" d="M5.2,8.2H4.1C3.7,8.2,3.4,8.6,3.4,9v0.8c0,0.4,0.3,0.8,0.8,0.8h1.1c0.4,0,0.8-0.3,0.8-0.8V9
	C6,8.6,5.7,8.2,5.2,8.2z M4.1,9.7V9h1.1l0,0.8H4.1z"/>
<path class="st0" d="M5.2,13.5H4.1c-0.4,0-0.8,0.3-0.8,0.8V15c0,0.4,0.3,0.8,0.8,0.8h1.1C5.7,15.7,6,15.4,6,15v-0.8
	C6,13.8,5.7,13.5,5.2,13.5z M4.1,15v-0.8h1.1l0,0.8H4.1z"/>
<path class="st0" d="M20.2,9.4h-1.1c-0.2,0-0.4,0.2-0.4,0.4s0.2,0.4,0.4,0.4h1.1c0.2,0,0.4-0.2,0.4-0.4S20.5,9.4,20.2,9.4z"/>
<path class="st0" d="M20.2,13.9h-1.1c-0.2,0-0.4,0.2-0.4,0.4s0.2,0.4,0.4,0.4h1.1c0.2,0,0.4-0.2,0.4-0.4S20.5,13.9,20.2,13.9z"/>
<path class="st0" d="M20.2,10.5h-1.1c-0.2,0-0.4,0.2-0.4,0.4s0.2,0.4,0.4,0.4h1.1c0.2,0,0.4-0.2,0.4-0.4S20.5,10.5,20.2,10.5z"/>
<path class="st0" d="M20.2,11.6h-1.1c-0.2,0-0.4,0.2-0.4,0.4s0.2,0.4,0.4,0.4h1.1c0.2,0,0.4-0.2,0.4-0.4S20.5,11.6,20.2,11.6z"/>
<path class="st0" d="M20.2,12.7h-1.1c-0.2,0-0.4,0.2-0.4,0.4s0.2,0.4,0.4,0.4h1.1c0.2,0,0.4-0.2,0.4-0.4S20.5,12.7,20.2,12.7z"/>
</svg>
