<?xml version="1.0" encoding="utf-8"?>
<!-- Generator: Adobe Illustrator 27.1.1, SVG Export Plug-In . SVG Version: 6.00 Build 0)  -->
<svg version="1.1" id="Слой_1" xmlns="http://www.w3.org/2000/svg" xmlns:xlink="http://www.w3.org/1999/xlink" x="0px" y="0px"
	 viewBox="0 0 24 24" style="enable-background:new 0 0 24 24;" xml:space="preserve">
<style type="text/css">
	.st0{clip-path:url(#SVGID_00000032640901052968181030000018049645984175969696_);}
	.st1{fill:#393931;}
</style>
<g>
	<defs>
		<rect id="SVGID_1_" y="0" width="24" height="24"/>
	</defs>
	<clipPath id="SVGID_00000146501619718335778160000017764081007598097832_">
		<use xlink:href="#SVGID_1_"  style="overflow:visible;"/>
	</clipPath>
	<g style="clip-path:url(#SVGID_00000146501619718335778160000017764081007598097832_);">
		<path class="st1" d="M21.1,5.6H2.9C2.7,5.6,2.5,5.8,2.5,6v10c0,0.2,0.2,0.4,0.4,0.4h18.2c0.2,0,0.4-0.2,0.4-0.4V6
			C21.5,5.8,21.3,5.6,21.1,5.6z M20.7,15.6H3.3V9.7h17.5V15.6z M20.7,8.9H3.3V6.4h17.5V8.9z"/>
		<path class="st1" d="M9.5,7.3h-5c-0.2,0-0.4,0.2-0.4,0.4C4.1,7.9,4.3,8,4.5,8h5c0.2,0,0.4-0.2,0.4-0.4C9.9,7.4,9.7,7.3,9.5,7.3z"
			/>
		<path class="st1" d="M12,7.3h-0.8c-0.2,0-0.4,0.2-0.4,0.4C10.8,7.9,11,8,11.2,8H12c0.2,0,0.4-0.2,0.4-0.4
			C12.4,7.4,12.2,7.3,12,7.3z"/>
		<path class="st1" d="M14.5,7.3h-0.8c-0.2,0-0.4,0.2-0.4,0.4c0,0.2,0.2,0.4,0.4,0.4h0.8c0.2,0,0.4-0.2,0.4-0.4
			C14.9,7.4,14.7,7.3,14.5,7.3z"/>
		<path class="st1" d="M17,7.3h-0.8c-0.2,0-0.4,0.2-0.4,0.4c0,0.2,0.2,0.4,0.4,0.4H17c0.2,0,0.4-0.2,0.4-0.4
			C17.4,7.4,17.2,7.3,17,7.3z"/>
		<path class="st1" d="M19.5,7.3h-0.8c-0.2,0-0.4,0.2-0.4,0.4c0,0.2,0.2,0.4,0.4,0.4h0.8c0.2,0,0.4-0.2,0.4-0.4
			C19.9,7.4,19.7,7.3,19.5,7.3z"/>
		<path class="st1" d="M11.2,10.6H4.5c-0.2,0-0.4,0.2-0.4,0.4v3.3c0,0.2,0.2,0.4,0.4,0.4h6.6c0.2,0,0.4-0.2,0.4-0.4V11
			C11.6,10.7,11.4,10.6,11.2,10.6z M10.8,13.9H4.9V13h5.9V13.9z M10.8,12.2H4.9v-0.9h5.9V12.2z"/>
		<path class="st1" d="M19.5,10.6H17c-0.2,0-0.4,0.2-0.4,0.4v3.3c0,0.2,0.2,0.4,0.4,0.4h2.5c0.2,0,0.4-0.2,0.4-0.4V11
			C19.9,10.7,19.7,10.6,19.5,10.6z M19.1,13.9h-1.7V13h1.7V13.9z M19.1,12.2h-1.7v-0.9h1.7V12.2z"/>
		<path class="st1" d="M23.6,17.2h-0.4V5.6c0-0.9-0.7-1.6-1.6-1.6H2.5c-0.9,0-1.6,0.7-1.6,1.6v11.6H0.4c-0.2,0-0.4,0.2-0.4,0.4v0.8
			c0,0.9,0.7,1.6,1.6,1.6h20.7c0.9,0,1.6-0.7,1.6-1.6v-0.8C24,17.4,23.8,17.2,23.6,17.2z M1.6,5.6c0-0.5,0.4-0.9,0.9-0.9h19.1
			c0.5,0,0.9,0.4,0.9,0.9v11.6H1.6V5.6z M23.2,18.4c0,0.5-0.4,0.9-0.9,0.9H1.6c-0.5,0-0.9-0.4-0.9-0.9V18h8.8c0,0,0,0,0,0
			c0,0.2,0.2,0.4,0.4,0.4h4.1c0.2,0,0.4-0.2,0.4-0.4c0,0,0,0,0,0h8.8V18.4z"/>
		<path class="st1" d="M15.3,10.6h-2.5c-0.2,0-0.4,0.2-0.4,0.4v3.3c0,0.2,0.2,0.4,0.4,0.4h2.5c0.2,0,0.4-0.2,0.4-0.4V11
			C15.7,10.7,15.5,10.6,15.3,10.6z M14.9,13.9h-1.7V13h1.7V13.9z M14.9,12.2h-1.7v-0.9h1.7V12.2z"/>
	</g>
</g>
</svg>
