<?xml version="1.0" encoding="utf-8"?>
<!-- Generator: Adobe Illustrator 27.1.1, SVG Export Plug-In . SVG Version: 6.00 Build 0)  -->
<svg version="1.1" id="Слой_1" xmlns="http://www.w3.org/2000/svg" xmlns:xlink="http://www.w3.org/1999/xlink" x="0px" y="0px"
	 viewBox="0 0 24 24" style="enable-background:new 0 0 24 24;" xml:space="preserve">
<style type="text/css">
	.st0{fill:#393931;}
</style>
<path class="st0" d="M7.2,1.1h9.6c0,0,0,0,0.1,0c0.5,0.1,0.8,0.5,0.8,1.1c0,0.5,0,1,0,1.4c0,0.3-0.1,0.5-0.3,0.5
	c-0.2,0-0.3-0.2-0.3-0.5c0-0.4,0-0.9,0-1.3c0-0.4-0.1-0.5-0.5-0.5H7.5C7.1,1.8,7,2,7,2.3C7,3,7,3.7,7,4.4c0,0.1,0,0.1,0,0.2h0.3
	c4,0,8,0,12.1,0c0.7,0,1.3,0.5,1.2,1.2c0,0.2,0,0.4,0,0.7c0.4,0,0.7,0,1,0c0.6,0,1,0.3,1.3,0.8c0,0.1,0.1,0.2,0.1,0.3V19
	c-0.3,0.9-0.9,1.2-1.7,1.1c-0.2,0-0.4,0-0.7,0c0,0.1,0,0.1,0,0.2c0,0.3,0,0.5,0,0.8c0,0.6-0.5,0.9-1.2,0.9H4.6c0,0-0.1,0-0.1,0
	c-0.6,0-1-0.5-1-1.1c0-0.2,0-0.5,0-0.8c-0.3,0-0.6,0-1,0c-0.9,0-1.4-0.6-1.4-1.5c0-3.6,0-7.1,0-10.7c0-0.8,0.5-1.6,1.5-1.5
	c0.3,0,0.6,0,0.9,0c0-0.3,0-0.6,0-0.8c0-0.5,0.3-1,0.8-1c0.4,0,0.9,0,1.3,0c0.2,0,0.5,0,0.7,0V4.3c0-0.7,0-1.4,0-2.1
	c0-0.2,0.1-0.5,0.2-0.6c0.1-0.2,0.3-0.3,0.6-0.4C7.2,1.1,7.2,1.1,7.2,1.1z M12,5.3H4.6c-0.4,0-0.5,0.1-0.5,0.5v15
	c0,0.4,0.1,0.5,0.5,0.5h14.8c0.4,0,0.5-0.1,0.5-0.5c0-5,0-10,0-15c0-0.4-0.1-0.5-0.5-0.5H12z M3.5,7.2c-0.4,0-0.8,0-1.1,0
	C2.2,7.2,2.1,7.3,2,7.3C1.8,7.5,1.8,7.7,1.8,8c0,3.5,0,7.1,0,10.6c0,0.1,0,0.1,0,0.2c0,0.3,0.2,0.6,0.5,0.6c0.4,0,0.8,0,1.2,0
	L3.5,7.2z M20.6,19.4c0.3,0,0.6,0,0.9,0c0.6,0,0.8-0.3,0.8-0.9c0-3.5,0-7,0-10.6c0-0.1,0-0.1,0-0.2c0-0.3-0.2-0.6-0.5-0.6
	c-0.4,0-0.8,0-1.2,0L20.6,19.4z"/>
<path class="st0" d="M12.2,4.2c-0.3,0-0.5,0-0.8,0c-0.3,0-0.4-0.1-0.4-0.5c0-0.3,0-0.7,0-1c0-0.3,0.1-0.4,0.4-0.4c0.6,0,1.2,0,1.8,0
	c0.3,0,0.4,0.1,0.4,0.4c0,0.3,0,0.7,0,1c0,0.3-0.1,0.4-0.4,0.4C12.7,4.2,12.5,4.2,12.2,4.2z M12.7,3.4V3h-1.1v0.4H12.7z"/>
<path class="st0" d="M9.7,3C9.5,3,9.3,2.9,9.3,2.6c0-0.2,0.2-0.4,0.4-0.4c0.2,0,0.4,0.1,0.4,0.4C10.1,2.8,9.9,3,9.7,3z"/>
<path class="st0" d="M14.7,3c-0.2,0-0.4-0.1-0.4-0.4c0-0.2,0.2-0.4,0.4-0.4c0.2,0,0.4,0.1,0.4,0.4C15.1,2.8,14.9,3,14.7,3z"/>
<path class="st0" d="M9.7,4.2C9.4,4.1,9.3,4,9.3,3.8c0-0.2,0.2-0.4,0.4-0.4c0.2,0,0.4,0.1,0.4,0.4C10.1,4,9.9,4.2,9.7,4.2z"/>
<path class="st0" d="M14.7,4.2c-0.2,0-0.4-0.1-0.4-0.4c0-0.2,0.2-0.4,0.4-0.4c0.3,0,0.4,0.1,0.4,0.4C15.1,4,14.9,4.1,14.7,4.2z"/>
<path class="st0" d="M17,9.1c0.3,0.4,0.5,0.8,0.8,1.2c0.1,0.2,0.1,0.4-0.1,0.6c-0.2,0.1-0.4,0-0.5-0.2c-0.2-0.3-0.4-0.7-0.7-1
	L15,11.1c1.1,1.5,1,3.4,0,4.7l1.4,1.5c0.4-0.4,0.6-0.9,0.9-1.4c0.4-0.8,0.5-1.7,0.5-2.6c0,0,0-0.1,0-0.1c0-0.2,0.2-0.4,0.3-0.4
	c0.2,0,0.3,0.2,0.4,0.4c0,1-0.1,1.9-0.5,2.8c-0.3,0.7-0.6,1.2-1.1,1.8c0.2,0.2,0.4,0.4,0.7,0.6c0.1,0.1,0.2,0.3,0.1,0.4
	c-0.1,0.1-0.2,0.2-0.4,0.2c-0.1,0-0.2-0.1-0.2-0.2c-0.2-0.2-0.4-0.4-0.5-0.6c-2.9,2.2-5.7,2.2-8.6,0c-0.2,0.2-0.3,0.4-0.5,0.6
	C7.2,19.1,7,19.1,6.8,19c-0.2-0.2-0.2-0.4,0.1-0.6c0.2-0.2,0.4-0.4,0.6-0.6c-2.2-2.4-2.2-6.3,0-8.7C7.2,8.9,7,8.7,6.8,8.5
	C6.7,8.4,6.7,8.4,6.7,8.3c0-0.1,0-0.2,0-0.2C6.8,7.9,7,7.8,7.1,7.9C7.2,7.9,7.3,8,7.3,8c0.2,0.2,0.4,0.4,0.5,0.6
	c2.9-2.2,5.7-2.2,8.6,0C16.7,8.4,16.8,8.2,17,8c0.2-0.2,0.4-0.2,0.6-0.1c0.2,0.2,0.1,0.4-0.1,0.6C17.3,8.7,17.2,8.9,17,9.1z
	 M9.4,15.8c-0.5-0.7-0.8-1.5-0.8-2.3c0-0.8,0.3-1.7,0.8-2.3L7.9,9.7c-2,2.3-1.7,5.7,0,7.6L9.4,15.8z M9.9,10.6
	c0.7-0.5,1.5-0.8,2.3-0.8c0.8,0,1.6,0.3,2.3,0.8l1.4-1.5c-2.1-2-5.5-1.9-7.4,0L9.9,10.6z M8.5,17.8c2.2,2,5.6,1.8,7.4,0l-1.4-1.4
	c-1.5,1.1-3.1,1.1-4.6,0L8.5,17.8z M9.9,15.3l1.8-1.8l-1.8-1.8C9,12.7,9,14.3,9.9,15.3z M10.4,15.8c0.8,0.8,2.7,0.8,3.5,0L12.2,14
	L10.4,15.8z M12.2,12.9l1.8-1.8c-1-0.9-2.7-0.8-3.6,0L12.2,12.9z M12.7,13.5l1.8,1.8c0.9-1.1,0.8-2.7,0-3.6L12.7,13.5z"/>
<path class="st0" d="M18,12c-0.2,0-0.4-0.2-0.4-0.4c0,0,0-0.1,0-0.1c0,0,0-0.1,0.1-0.1c0,0,0.1-0.1,0.1-0.1c0,0,0.1,0,0.1,0
	c0.2,0,0.4,0.2,0.4,0.4c0,0,0,0.1,0,0.1c0,0,0,0.1-0.1,0.1c0,0-0.1,0.1-0.1,0.1C18.1,12,18,12,18,12z"/>
</svg>
