<?xml version="1.0" encoding="utf-8"?>
<!-- Generator: Adobe Illustrator 27.1.1, SVG Export Plug-In . SVG Version: 6.00 Build 0)  -->
<svg version="1.1" id="Слой_1" xmlns="http://www.w3.org/2000/svg" xmlns:xlink="http://www.w3.org/1999/xlink" x="0px" y="0px"
	 viewBox="0 0 37 36" style="enable-background:new 0 0 37 36;" xml:space="preserve">
<style type="text/css">
	.st0{fill:#393931;}
</style>
<path class="st0" d="M34.2,25L34.2,25C34.2,25,34.2,25,34.2,25C34.2,25,34.2,25,34.2,25L34.2,25c-0.2-0.8-0.7-1.4-1.4-1.7V11
	c0-0.8,0-1.5,0-2.1c0-0.6-0.2-1.1-0.4-1.7h0c-0.4-0.8-1.1-1.4-1.9-1.9C29.9,5.1,29.4,5,28.8,5c-0.6,0-1.3,0-2.1,0H9.3
	c-0.8,0-1.5,0-2.1,0C6.7,5,6.1,5.1,5.6,5.4C4.8,5.8,4.2,6.4,3.7,7.2h0C3.5,7.8,3.4,8.3,3.3,8.9c0,0.6,0,1.3,0,2.1v12.3
	c-0.9,0.5-1.5,1.4-1.5,2.4v0.5c0,0.8,0,1.5,0.1,2.1h0c0.4,1.5,1.5,2.6,3,3l0,0c0.6,0.2,1.3,0.1,2.1,0.1h22c0.8,0,1.5,0,2.1-0.1l0,0
	c1.5-0.4,2.6-1.5,3-3l0,0c0.2-0.6,0.1-1.3,0.1-2.1C34.3,25.8,34.3,25.3,34.2,25z M5.8,11c0-0.9,0-1.4,0-1.9c0-0.4,0.1-0.6,0.2-0.7v0
	C6.1,8,6.4,7.8,6.7,7.6C6.9,7.6,7,7.5,7.5,7.5c0.4,0,1,0,1.9,0h17.4c0.9,0,1.4,0,1.9,0c0.4,0,0.6,0.1,0.7,0.2v0
	c0.3,0.2,0.6,0.4,0.8,0.8l0,0c0.1,0.1,0.1,0.3,0.2,0.7c0,0.4,0,1,0,1.9v11.9H30h-6.5c-0.3,0-0.7,0-1,0.1h0c-0.3,0.1-0.5,0.2-0.8,0.3
	l0,0c0,0,0,0,0,0c0,0,0,0,0,0c-0.3,0.2-0.6,0.4-0.8,0.7l-0.1,0.1c-0.1,0.1-0.2,0.2-0.3,0.3c0,0,0,0,0,0c0,0,0,0-0.1,0c0,0,0,0-0.1,0
	c-0.1,0-0.2,0-0.4,0h-4c-0.2,0-0.3,0-0.4,0c0,0,0,0-0.1,0c0,0,0,0-0.1,0c0,0,0,0,0,0c-0.1-0.1-0.1-0.1-0.3-0.3l0,0L15.1,24l0,0
	c-0.2-0.2-0.5-0.5-0.8-0.7l0,0c0,0,0,0,0,0l0,0c-0.2-0.2-0.5-0.3-0.8-0.3h0c-0.3-0.1-0.7-0.1-1-0.1H5.8V11z M23,25.5L23,25.5
	L23,25.5C23,25.5,23,25.5,23,25.5z M20.5,24.4L20.5,24.4L20.5,24.4C20.5,24.4,20.5,24.4,20.5,24.4z M13,25.5
	C13,25.5,13,25.5,13,25.5C13,25.5,13,25.5,13,25.5L13,25.5z M31.7,27.6c-0.2,0.6-0.6,1.1-1.2,1.2c-0.2,0-0.4,0.1-1.5,0.1H7
	c-1,0-1.3,0-1.5-0.1c-0.6-0.2-1.1-0.6-1.2-1.2v0c0-0.2-0.1-0.4-0.1-1.5v-0.5c0-0.1,0.1-0.2,0.2-0.2h8c0.2,0,0.3,0,0.4,0
	c0,0,0,0,0.1,0c0,0,0,0,0.1,0c0,0,0,0,0,0c0.1,0.1,0.1,0.1,0.3,0.3l0.1,0.1l0,0c0.2,0.2,0.5,0.5,0.8,0.7l0,0c0,0,0,0,0,0
	c0,0,0,0,0,0l0,0c0.2,0.2,0.5,0.3,0.8,0.3h0c0.3,0.1,0.7,0.1,1,0.1h4c0.3,0,0.7,0,1-0.1h0c0.3-0.1,0.5-0.2,0.8-0.3l0,0c0,0,0,0,0,0
	s0,0,0,0l0,0c0.3-0.2,0.6-0.4,0.8-0.7l0.1-0.1c0.1-0.1,0.2-0.2,0.3-0.3c0,0,0,0,0,0c0,0,0,0,0.1,0c0,0,0,0,0.1,0c0.1,0,0.2,0,0.4,0
	H30h1c0.2,0,0.4,0,0.5,0c0,0,0.1,0,0.1,0c0.1,0,0.1,0.1,0.2,0.2c0,0,0,0,0,0.1c0,0.1,0,0.2,0,0.5C31.8,27.2,31.8,27.4,31.7,27.6z"/>
</svg>
