<svg width="37" height="36" viewBox="0 0 37 36" fill="none" xmlns="http://www.w3.org/2000/svg">
<path d="M5.49398 7.63803L6.60773 8.20553L6.60775 8.2055L5.49398 7.63803ZM6.80502 6.32698L7.37249 7.44075L7.37252 7.44074L6.80502 6.32698ZM30.529 6.32698L29.9615 7.44073L29.9615 7.44074L30.529 6.32698ZM31.84 7.63803L30.7262 8.2054L30.7263 8.20555L31.84 7.63803ZM32.167 24V25.25C32.8574 25.25 33.417 24.6904 33.417 24H32.167ZM23.4382 24.0414L23.1467 22.8259L23.1465 22.8259L23.4382 24.0414ZM23.0046 24.2211L23.6574 25.287L23.6581 25.2866L23.0046 24.2211ZM22.4641 24.7029L21.5802 23.819L21.5802 23.819L22.4641 24.7029ZM22.3699 24.7971L23.2538 25.681L23.2538 25.681L22.3699 24.7971ZM21.8295 25.2789L21.1766 24.2129L21.1759 24.2134L21.8295 25.2789ZM21.3958 25.4586L21.6873 26.6741L21.6875 26.6741L21.3958 25.4586ZM15.9382 25.4586L15.6465 26.6741L15.6467 26.6741L15.9382 25.4586ZM15.5046 25.2789L16.1583 24.2135L16.1574 24.2129L15.5046 25.2789ZM14.9641 24.7971L14.0797 25.6806L14.0803 25.6811L14.9641 24.7971ZM14.8699 24.7029L15.7543 23.8194L15.7537 23.8189L14.8699 24.7029ZM14.3294 24.2211L13.6757 25.2865L13.6766 25.2871L14.3294 24.2211ZM13.8958 24.0414L14.1877 22.8259L14.1873 22.8259L13.8958 24.0414ZM3.76922 27.7764L4.97663 27.4529L4.97661 27.4528L3.76922 27.7764ZM5.89053 29.8978L5.5669 31.1052L5.56723 31.1053L5.89053 29.8978ZM31.4434 29.8978L31.7668 31.1053L31.767 31.1052L31.4434 29.8978ZM33.5649 27.7764L34.7722 28.1L34.7723 28.0997L33.5649 27.7764ZM33.6159 25.1118L32.4084 25.4351L32.4086 25.4357L33.6159 25.1118ZM32.5552 24.0511L32.2313 25.2584L32.2319 25.2586L32.5552 24.0511ZM30.667 22.75C29.9767 22.75 29.417 23.3096 29.417 24C29.417 24.6904 29.9767 25.25 30.667 25.25V22.75ZM6.41699 24V10.8H3.91699V24H6.41699ZM6.41699 10.8C6.41699 9.93929 6.41797 9.36894 6.45371 8.93139C6.48827 8.50844 6.54899 8.3208 6.60773 8.20553L4.38023 7.07053C4.11198 7.59698 4.00921 8.15025 3.96202 8.72781C3.91602 9.29077 3.91699 9.98054 3.91699 10.8H6.41699ZM6.60775 8.2055C6.77551 7.87622 7.04321 7.60852 7.37249 7.44075L6.23756 5.21321C5.43784 5.62067 4.78766 6.27085 4.38021 7.07056L6.60775 8.2055ZM7.37252 7.44074C7.4878 7.382 7.67544 7.32128 8.09839 7.28672C8.53594 7.25097 9.1063 7.25 9.967 7.25V4.75C9.14755 4.75 8.45778 4.74903 7.89481 4.79502C7.31725 4.84221 6.76398 4.94498 6.23753 5.21323L7.37252 7.44074ZM9.967 7.25H27.367V4.75H9.967V7.25ZM27.367 7.25C28.2277 7.25 28.7981 7.25097 29.2356 7.28672C29.6586 7.32128 29.8463 7.382 29.9615 7.44073L31.0965 5.21324C30.5701 4.94498 30.0168 4.84221 29.4392 4.79502C28.8762 4.74903 28.1865 4.75 27.367 4.75V7.25ZM29.9615 7.44074C30.2908 7.60853 30.5585 7.87625 30.7262 8.2054L32.9538 7.07066C32.5464 6.27082 31.8961 5.62066 31.0965 5.21323L29.9615 7.44074ZM30.7263 8.20555C30.785 8.32082 30.8457 8.50845 30.8803 8.9314C30.916 9.36895 30.917 9.9393 30.917 10.8H33.417C33.417 9.98055 33.418 9.29078 33.372 8.72781C33.3248 8.15025 33.222 7.59697 32.9538 7.07051L30.7263 8.20555ZM30.917 10.8V24H33.417V10.8H30.917ZM32.167 22.75H24.1611V25.25H32.167V22.75ZM24.1611 22.75C23.8537 22.75 23.4965 22.742 23.1467 22.8259L23.7297 25.2569C23.7128 25.261 23.7171 25.2569 23.7839 25.2539C23.8622 25.2503 23.9668 25.25 24.1611 25.25V22.75ZM23.1465 22.8259C22.8656 22.8933 22.5972 23.0045 22.351 23.1556L23.6581 25.2866C23.6804 25.273 23.7045 25.263 23.7299 25.2569L23.1465 22.8259ZM22.3517 23.1551C22.0447 23.3432 21.7974 23.6018 21.5802 23.819L23.348 25.5868C23.4854 25.4494 23.5596 25.3756 23.6174 25.3229C23.6667 25.2778 23.6725 25.2778 23.6574 25.287L22.3517 23.1551ZM21.5802 23.819L21.486 23.9132L23.2538 25.681L23.348 25.5868L21.5802 23.819ZM21.486 23.9132C21.3487 24.0506 21.2745 24.1244 21.2166 24.1771C21.1673 24.2222 21.1615 24.2222 21.1766 24.2129L22.4823 26.3448C22.7894 26.1568 23.0366 25.8982 23.2538 25.681L21.486 23.9132ZM21.1759 24.2134C21.1537 24.227 21.1295 24.237 21.1041 24.2431L21.6875 26.6741C21.9684 26.6067 22.2368 26.4955 22.483 26.3444L21.1759 24.2134ZM21.1043 24.2431C21.1212 24.239 21.1169 24.2431 21.0501 24.2461C20.9719 24.2497 20.8672 24.25 20.673 24.25V26.75C20.9803 26.75 21.3375 26.758 21.6873 26.6741L21.1043 24.2431ZM20.673 24.25H16.6611V26.75H20.673V24.25ZM16.6611 24.25C16.4668 24.25 16.3621 24.2497 16.2839 24.2461C16.2171 24.2431 16.2128 24.239 16.2297 24.2431L15.6467 26.6741C15.9965 26.758 16.3537 26.75 16.6611 26.75V24.25ZM16.2299 24.2431C16.2044 24.237 16.1804 24.227 16.1583 24.2135L14.8508 26.3443C15.0972 26.4955 15.3657 26.6067 15.6465 26.6741L16.2299 24.2431ZM16.1574 24.2129C16.1724 24.2221 16.1667 24.2222 16.1174 24.1771C16.0595 24.1243 15.9853 24.0505 15.8478 23.9131L14.0803 25.6811C14.2974 25.8982 14.5447 26.1569 14.8518 26.3449L16.1574 24.2129ZM15.8484 23.9136L15.7543 23.8194L13.9856 25.5863L14.0797 25.6806L15.8484 23.9136ZM15.7537 23.8189C15.5366 23.6018 15.2893 23.3431 14.9822 23.1551L13.6766 25.2871C13.6616 25.2779 13.6673 25.2778 13.7166 25.3229C13.7745 25.3757 13.8487 25.4495 13.9862 25.5869L15.7537 23.8189ZM14.9832 23.1557C14.7367 23.0045 14.4683 22.8933 14.1877 22.8259L13.604 25.2569C13.6295 25.263 13.6537 25.273 13.6757 25.2865L14.9832 23.1557ZM14.1873 22.8259C13.8376 22.742 13.4803 22.75 13.1729 22.75V25.25C13.3672 25.25 13.4719 25.2503 13.5502 25.2539C13.617 25.2569 13.6212 25.261 13.6043 25.2569L14.1873 22.8259ZM13.1729 22.75H5.16699V25.25H13.1729V22.75ZM5.16699 22.75C3.64823 22.75 2.41699 23.9812 2.41699 25.5H4.91699C4.91699 25.3619 5.02891 25.25 5.16699 25.25V22.75ZM2.41699 25.5V25.9999H4.91699V25.5H2.41699ZM2.41699 25.9999C2.41699 26.8494 2.40625 27.5195 2.56182 28.1L4.97661 27.4528C4.92773 27.2704 4.91699 27.0104 4.91699 25.9999H2.41699ZM2.56181 28.0999C2.95479 29.5666 4.10036 30.7121 5.5669 31.1052L6.21417 28.6905C5.61016 28.5286 5.13844 28.0568 4.97663 27.4529L2.56181 28.0999ZM5.56723 31.1053C6.14764 31.2607 6.81745 31.25 7.667 31.25V28.75C6.65661 28.75 6.39645 28.7393 6.21383 28.6904L5.56723 31.1053ZM7.667 31.25H29.667V28.75H7.667V31.25ZM29.667 31.25C30.5165 31.25 31.1864 31.2607 31.7668 31.1053L31.1201 28.6904C30.9375 28.7393 30.6774 28.75 29.667 28.75V31.25ZM31.767 31.1052C33.2336 30.7121 34.3791 29.5666 34.7722 28.1L32.3575 27.4528C32.1956 28.0568 31.7238 28.5286 31.1198 28.6905L31.767 31.1052ZM34.7723 28.0997C34.9277 27.5194 34.917 26.8495 34.917 25.9999H32.417C32.417 27.0104 32.4063 27.2705 32.3574 27.453L34.7723 28.0997ZM34.917 25.9999C34.917 25.6156 34.9278 25.1778 34.8232 24.7879L32.4086 25.4357C32.4008 25.407 32.4074 25.4117 32.4119 25.51C32.4167 25.615 32.417 25.7561 32.417 25.9999H34.917ZM34.8233 24.7885C34.5692 23.8393 33.8277 23.0978 32.8785 22.8437L32.2319 25.2586C32.318 25.2817 32.3853 25.349 32.4084 25.4351L34.8233 24.7885ZM32.8791 22.8438C32.4892 22.7392 32.0514 22.75 31.6671 22.75V25.25C31.9109 25.25 32.0521 25.2503 32.157 25.2551C32.2553 25.2596 32.26 25.2662 32.2313 25.2584L32.8791 22.8438ZM31.6671 22.75H30.667V25.25H31.6671V22.75Z" fill="#393931"/>
</svg>
