<?xml version="1.0" encoding="utf-8"?>
<!-- Generator: Adobe Illustrator 27.1.1, SVG Export Plug-In . SVG Version: 6.00 Build 0)  -->
<svg version="1.1" id="Слой_1" xmlns="http://www.w3.org/2000/svg" xmlns:xlink="http://www.w3.org/1999/xlink" x="0px" y="0px"
	 viewBox="0 0 159 109" style="enable-background:new 0 0 159 109;" xml:space="preserve">
<style type="text/css">
	.st0{fill-rule:evenodd;clip-rule:evenodd;fill:#FFFFFF;}
	.st1{fill-rule:evenodd;clip-rule:evenodd;fill:#FFFFFF;filter:url(#Adobe_OpacityMaskFilter);}
	.st2{mask:url(#path-10-inside-1_117_4076_00000079468208645331548090000016571137057651504011_);fill:#C2C2C2;}
	.st3{fill:#050607;}
	.st4{fill:#6C7599;}
	.st5{fill:#9EE5E7;}
	.st6{fill:#2A465B;}
	.st7{fill:#1B3143;}
	.st8{fill:#EC4D38;}
	.st9{fill:#F48829;}
	.st10{fill:#F2F4F7;}
	.st11{fill:#F2A335;}
	.st12{fill:#48748B;}
	.st13{fill:url(#SVGID_1_);}
	.st14{fill:#18B89F;}
	.st15{fill:#61D1B5;}
	.st16{fill:url(#SVGID_00000021822690483574002120000015384039657138411187_);}
	.st17{fill:#628A9E;}
	.st18{fill:#DAEDEC;}
	.st19{fill:#E4646D;}
	.st20{fill:url(#SVGID_00000010293514603043943450000018329234199571177374_);}
	.st21{fill:#7E4B40;}
	.st22{fill:#AB5D3C;}
	.st23{fill:#BC2742;}
	.st24{fill:#F4CE58;}
	.st25{fill:#EAB0B7;}
	.st26{fill:#C2C2C2;stroke:#393931;stroke-linejoin:round;}
</style>
<path class="st0" d="M118.2,12.3c0-6.6-5.4-12-12-12h-94c-6.6,0-12,5.4-12,12v84.3c0,6.6,5.4,12,12,12h134c6.6,0,12-5.4,12-12V52.3
	c0-6.6-5.4-12-12-12h-16c-6.6,0-12-5.4-12-12V12.3z"/>
<defs>
	<filter id="Adobe_OpacityMaskFilter" filterUnits="userSpaceOnUse" x="-0.8" y="-0.7" width="160" height="110.3">
		<feColorMatrix  type="matrix" values="1 0 0 0 0  0 1 0 0 0  0 0 1 0 0  0 0 0 1 0"/>
	</filter>
</defs>
<mask maskUnits="userSpaceOnUse" x="-0.8" y="-0.7" width="160" height="110.3" id="path-10-inside-1_117_4076_00000079468208645331548090000016571137057651504011_">
	<path class="st1" d="M118.2,12.3c0-6.6-5.4-12-12-12h-94c-6.6,0-12,5.4-12,12v84.3c0,6.6,5.4,12,12,12h134c6.6,0,12-5.4,12-12V52.3
		c0-6.6-5.4-12-12-12h-16c-6.6,0-12-5.4-12-12V12.3z"/>
</mask>
<path class="st2" d="M12.2,1.3h94v-2h-94V1.3z M1.2,96.7V12.3h-2v84.3H1.2z M146.2,107.7h-134v2h134V107.7z M157.2,52.3v44.3h2V52.3
	H157.2z M146.2,39.3h-16v2h16V39.3z M119.2,28.3v-16h-2v16H119.2z M130.2,39.3c-6.1,0-11-4.9-11-11h-2c0,7.2,5.8,13,13,13V39.3z
	 M159.2,52.3c0-7.2-5.8-13-13-13v2c6.1,0,11,4.9,11,11H159.2z M146.2,109.7c7.2,0,13-5.8,13-13h-2c0,6.1-4.9,11-11,11V109.7z
	 M-0.8,96.7c0,7.2,5.8,13,13,13v-2c-6.1,0-11-4.9-11-11H-0.8z M106.2,1.3c6.1,0,11,4.9,11,11h2c0-7.2-5.8-13-13-13V1.3z M12.2-0.7
	c-7.2,0-13,5.8-13,13h2c0-6.1,4.9-11,11-11V-0.7z"/>
<path class="st3" d="M85.3,83.6l-5.7-3.3l-8.2-4.8l-10.7-6.2l-3.2-1.9l-0.6-0.4c0,0-0.2-0.1-0.2-0.1c-0.1,0-0.3,0.1-0.4,0.1
	c-0.6,0.2-1.2,0.3-1.8,0.5L54,67.8c0,0-0.2,0.1-0.2,0.1c0,0-0.1-0.1-0.2-0.1l-0.6-0.4l-2-1.2l0-3.3l-1.5,0c-0.8,0-1.4,0.1-2-0.5
	c-0.8-0.8-0.6-1.7-0.6-2.7l0-3.7c0-0.6-0.1-1.3,0.1-1.9c0.1-0.3,0.2-0.6,0.5-0.8c0.3-0.3,0.6-0.5,1-0.7l1.2-0.8l0-4l-0.9-0.1
	c-0.3-0.1-0.8,0-1.1-0.1l-0.1,0c-0.3-0.2-0.5-0.5-0.6-0.8C47,46.4,47,45.9,47,45.5l0-2.4l0-2.4c0-0.4,0-0.9,0-1.4
	c0-0.3,0.1-0.5,0.2-0.7c0.2-0.4,0.6-0.6,0.9-0.8l1.2-0.7c0.1-0.1,0.3-0.2,0.3-0.2c0,0,0-0.2,0-0.2c0-0.8-0.1-1.6,0.6-2.1
	c0.4-0.4,1-0.6,1.5-0.9l3-1.8l4.6-2.9l6.2-3.8c0.2-0.1,0.4-0.2,0.7-0.3c0.5-0.1,1-0.1,1.5,0.2c0.8,0.4,1.5,0.9,2.2,1.3l5.4,3.2
	l13.3,7.7l15.2,8.8l4.1,2.4l2,1.2c0.3,0.2,0.7,0.4,1,0.6c0.4,0.3,0.8,0.8,0.9,1.3c0,0.3,0,0.6,0,0.8l0,1.6l0,6l0,10.2l0,3.3
	c0,0.5,0,1.1,0,1.6c0,0.3-0.2,0.7-0.4,1c-0.2,0.2-0.3,0.4-0.6,0.5c-0.3,0.2-0.7,0.4-1.1,0.6l-2,1.2l-6.8,4L98.1,84
	c-0.5,0.2-0.9,0.5-1.4,0.8L94.6,86c-0.6,0.4-1.2,0.9-1.9,1.1c-0.4,0.1-1,0.1-1.4,0c-0.5-0.1-0.9-0.5-1.3-0.7L85.3,83.6z"/>
<path class="st4" d="M60.6,35.9l0-1c0.7,0.3,1.2,0.7,1.6,1.4c-0.2,0-0.5-0.2-0.8-0.2C61.2,35.9,60.9,35.9,60.6,35.9z"/>
<path class="st5" d="M49.7,38.5L49.7,38.5c0.1,0.1,0.1,0.3,0.1,0.4l0,1.2l-1.3,0c-0.1,0-0.1,0-0.1,0c0-0.2,0-0.4,0-0.6l0,0
	C48.6,39,49.3,38.8,49.7,38.5z"/>
<path class="st5" d="M48.4,55.2c0-0.4,0-0.8,0.2-1.1c0.3-0.3,0.8-0.6,1.2-0.8l0,1.9L48.4,55.2z"/>
<path class="st6" d="M48.4,45l1.5,0l0,1.5l-1.4,0L48.4,45z"/>
<path class="st7" d="M54.4,62.9l1,0l0,2.4l-1-0.5L54.4,62.9z"/>
<path class="st7" d="M48.4,59.9l1.4,0c0,0.6,0.2,1.1,0.4,1.7l-1,0c-0.1,0-0.3,0-0.4,0c-0.1,0-0.2-0.2-0.3-0.2c0-0.1,0-0.3,0-0.5
	L48.4,59.9z"/>
<path class="st8" d="M76,74.9c0.2,0.2,0.6,0.4,0.9,0.6l1.4,0.8l0,1.6L76,76.5L76,74.9z"/>
<path class="st8" d="M69.9,71.4l2.3,1.3l0,1.6L69.9,73L69.9,71.4z"/>
<path class="st8" d="M82,78.3c0.7,0.6,1.5,0.9,2.3,1.4l0-0.6c0,0.5,0,1,0,1.5c0,0.2,0,0.6,0,0.8L82.1,80L82,78.3z"/>
<path class="st8" d="M79,76.7c0.8,0.5,1.6,0.8,2.3,1.3l0,1.6L79,78.3L79,76.7z"/>
<path class="st8" d="M66.8,69.6c0.7,0.5,1.6,0.9,2.3,1.4c0.1,0.5,0,1.1,0,1.6l-2.3-1.4L66.8,69.6z"/>
<path class="st8" d="M87.3,78.5c0.1,0.3,0,0.9,0,1.2l0,3.4l-2.2-1.3l0-1.7l2.2,1.3c0-0.3,0-0.7,0-1L87.3,78.5z"/>
<path class="st8" d="M63.7,67.8l2.3,1.4l0,1.6l-2.3-1.3L63.7,67.8z"/>
<path class="st8" d="M72.9,73.1l2.3,1.4l0,1.6l-2.3-1.4L72.9,73.1z"/>
<path class="st9" d="M65.2,27.8l0.1,0.2c-0.7,0.8-1.6,1.3-2.5,1.8l-2.4,1.5l-4.8,3l-0.7,0c0.4-0.4,0.9-0.6,1.4-0.9l3.2-2l2.4-1.5
	L65.2,27.8z"/>
<path class="st10" d="M58.1,34.2c-0.3,0-0.7,0-1,0c0.1-0.1,0.3-0.2,0.4-0.3c0.5-0.3,1-0.6,1.5-0.9l3.2-2l2.5-1.6l0,0.8L58.1,34.2z"
	/>
<path class="st4" d="M48.4,40.5l1.5,0l0,4.1l-1.5,0L48.4,40.5z"/>
<path class="st4" d="M48.4,55.2l1.5,0l0,3.2c0,0.2,0.1,0.8,0,1c-0.4,0.1-1,0-1.4,0l0-4L48.4,55.2z"/>
<path class="st7" d="M48.4,55.2l1.5,0l0,3.2c0,0.2,0.1,0.8,0,1l0-4l-1.4,0L48.4,55.2z"/>
<path class="st11" d="M85.1,80.1c0-0.3,0-0.6,0-0.9l0-2l1.3,0.7c0.3,0.2,0.6,0.3,0.9,0.6l0,1.9c0,0.3,0,0.7,0,1L85.1,80.1z"/>
<path class="st11" d="M69.9,71.4l0-2c0-0.3,0-0.6,0-0.9l2.3,1.3l0,2.9L69.9,71.4z"/>
<path class="st11" d="M63.7,67.8l0-2.8l2.3,1.4l0,2.8L63.7,67.8z"/>
<path class="st11" d="M66.8,69.6l0-2.8l2.3,1.4l0,2.8C68.4,70.5,67.5,70.1,66.8,69.6z"/>
<path class="st11" d="M76,74.9l0-2.9l2.3,1.4l0,2.9l-1.4-0.8C76.6,75.3,76.2,75.1,76,74.9z"/>
<path class="st11" d="M72.9,73.1l0-2.9l2.4,1.4l0,0.1l0,2.8L72.9,73.1z"/>
<path class="st11" d="M82,78.3l0-2.9l2.3,1.3l0,2.4l0,0.6C83.6,79.3,82.7,78.9,82,78.3z"/>
<path class="st11" d="M79,76.7l0-3l2.3,1.3v3C80.6,77.5,79.7,77.1,79,76.7z"/>
<path class="st6" d="M56.1,64l6.9,3.9l0,1.1l-6.9-4l0,0L56.1,64z"/>
<path class="st6" d="M52.4,64l0-1c0.1-0.1,0.3,0,0.5,0h1.5l0,1.9l1,0.5l0.7,0.4l-2,0.6c-0.1-0.1-0.2-0.1-0.3-0.2l-1.3-0.8
	C52.4,65,52.4,64.4,52.4,64z"/>
<path class="st4" d="M52.4,64c0.5,0.2,0.9,0.5,1.4,0.8l0,1c0,0.1,0,0.3,0,0.4l-1.3-0.8C52.4,65,52.4,64.4,52.4,64z"/>
<path class="st7" d="M60.4,61.4l0.4,0.9l-7.6,0l-1,0c-0.1,0-0.2,0-0.3,0c-0.1,0-0.3-0.2-0.4-0.3c-0.1-0.1-0.2-0.3-0.3-0.5L60.4,61.4
	z"/>
<path class="st6" d="M51.1,51.9l0,7.8l8.8,0c0,0.2,0.1,0.5,0.2,0.7l0.3,0.9l-9.3,0L51.1,51.9z"/>
<path class="st12" d="M65.3,56.6c0-0.2,0-0.5,0-0.7l0-1.4l0-4.7l0-17.8l0.8,0.5l0,23.6l0,0c-0.1,0.2-0.2,0.4-0.4,0.5l-0.2,0.1
	L65.3,56.6z"/>
<path class="st7" d="M106.8,72.2l0,2.9l-13.2,8l2.3-3.9l0,0c0.2,0,2.1-1.3,2.4-1.5l3.4-2.1l3.4-2.1l0.9-0.5c0.2-0.1,0.4-0.2,0.6-0.4
	C106.8,72.5,106.8,72.3,106.8,72.2z"/>
<path class="st6" d="M96,79.1c0.2-0.4,0.5-0.9,0.7-1.3c0.1-0.2,0.2-0.4,0.3-0.6c0.2-0.2,0.4-0.3,0.6-0.4l1.6-1l4.7-3l0.9-0.6
	c0.2-0.1,0.4-0.3,0.6-0.4c0.1-0.1,0.2-0.3,0.2-0.4c0.1-0.6,0-1.2,0-1.8l0-3.4l0-11.4l1.2-1.1l0,18.5c0,0.1,0,0.3,0,0.4
	c-0.2,0.1-0.4,0.3-0.6,0.4l-0.9,0.5l-3.4,2.1l-3.4,2.1C98.1,77.9,96.2,79.2,96,79.1L96,79.1z"/>
<path class="st6" d="M60.6,35.9c0.3,0,0.6,0,0.8,0.1c0.2,0.1,0.5,0.2,0.8,0.2c0.1,0.1,0.1,0.2,0.1,0.3c0.1,0.5,0.1,1.2,0.1,1.7
	l0,3.1l0,13l0,3.9c0,0.5,0.1,1.1,0,1.7c0,0.2-0.2,0.4-0.2,0.5l-0.8,1.4l-0.5-1.4c-0.1-0.3-0.2-0.5-0.2-0.8c0-0.3,0-0.5,0-0.8l0-1.5
	l0-5.1L60.6,35.9z"/>
<linearGradient id="SVGID_1_" gradientUnits="userSpaceOnUse" x1="77.9249" y1="60.0171" x2="86.1003" y2="73.1232" gradientTransform="matrix(1 0 0 -1 0 109.276)">
	<stop  offset="0" style="stop-color:#F2C872"/>
	<stop  offset="1" style="stop-color:#F6BDCD"/>
</linearGradient>
<path class="st13" d="M54.6,33.6c0.4-0.3,1-0.6,1.4-0.9l2.9-1.8l5.4-3.3l1.3-0.8c0.2-0.2,0.5-0.3,0.7-0.5c0.2-0.1,0.4-0.1,0.6-0.1
	c0.3,0,0.5,0.2,0.8,0.4l1,0.6l3.9,2.3l4.6,2.7l7.7,4.5L99.6,45l6.8,4l2.4,1.4c0.5,0.3,1.1,0.6,1.6,1l-0.5,0.2l0,0
	c-1.5-0.6-2.9-1.5-4.4-2.3l-5.3-3.1L84.4,37L79.1,34l-8.7-5.1l-2.3-1.3c-0.5-0.3-0.9-0.5-1.4-0.8c-0.6,0.2-1.1,0.6-1.6,0.9l-3.3,2
	l-2.4,1.5l-3.2,2c-0.5,0.3-1,0.6-1.4,0.9l-0.2,0c-0.4,0-0.7,0-1.1,0L54.6,33.6z"/>
<path class="st14" d="M104.8,54.9c0.1,0.4,0,0.9,0,1.3l0,3.3l0,11.7c-0.4,0.5-1.2,0.9-1.8,1.3l-2.9,1.9l-3.5,2.2l-6.7-3.8l1.2-2
	l6.2,3.6c0.3-0.7,0.7-1.5,0.9-2.3c0.5,0.3,1,0.7,1.5,0.8c0.8-0.2,1.6-0.8,2.3-1.3c0.5-0.3,1.2-0.6,1.5-1c0.1-0.1,0.2-0.3,0.2-0.4
	c0.1-0.4,0-0.8,0-1.2c0-0.8,0-1.6,0-2.4c-0.2-0.4-0.5-0.6-0.9-0.8c0.1-0.5,0.2-1,0.2-1.5l0.3-2.3l0.3-2.6c0.1-0.1,0.2-0.2,0.2-0.3
	c0.2-0.3,0.3-0.7,0.3-1l0,0c0.2-0.2,0.2-0.6,0.3-0.9C104.6,56.4,104.8,55.7,104.8,54.9z"/>
<path class="st7" d="M64.7,30.2l0,28.6l-1.5,1.3l0-15.8l0-4.5l0-1.9c0-0.5,0-1-0.1-1.5l0-0.1c-0.2-0.8-0.8-1.5-1.5-1.9l-0.2-0.1
	c-0.8-0.4-1.7-0.3-2.6-0.3c-0.2,0-0.4,0-0.6,0L64.7,30.2z"/>
<path class="st15" d="M65.4,28.9l41.1,24l-0.7,0.7l-0.7,0.6L65.4,30.9L65.4,28.9z"/>
<path class="st8" d="M65.2,27.8c0.5-0.3,1.1-0.7,1.6-0.9c0.5,0.2,0.9,0.5,1.4,0.8l2.3,1.3l8.7,5.1l5.3,3.1l15.7,9.1l5.3,3.1
	c1.4,0.8,2.8,1.7,4.4,2.3l-0.1,0c-0.4,0.2-0.8,0.3-1.1,0.5c-0.4,0.2-0.7,0.5-1.1,0.7c0-0.1-0.1-0.1-0.1-0.2
	c-0.3-0.3-0.8-0.5-1.1-0.8l-2.1-1.3l-7.3-4.3l-15.1-8.8l-9-5.2l-4.6-2.7l-2-1.2c-0.2-0.1-0.7-0.5-0.9-0.5L65.2,27.8z"/>
<linearGradient id="SVGID_00000087376560739828531690000005129353007551740544_" gradientUnits="userSpaceOnUse" x1="95.5169" y1="52.9199" x2="103.9753" y2="27.5818" gradientTransform="matrix(1 0 0 -1 0 109.276)">
	<stop  offset="0" style="stop-color:#BD341D"/>
	<stop  offset="1" style="stop-color:#DF4B20"/>
</linearGradient>
<path style="fill:url(#SVGID_00000087376560739828531690000005129353007551740544_);" d="M110.3,51.3c0.2,0.2,0.2,0.3,0.2,0.6
	c0,2.4,0,22.8,0,22.9c0,0.1-0.2,0.2-0.2,0.2c-0.2,0.2-0.5,0.4-0.8,0.5l-1.3,0.8l-3.4,2L95.2,84l-2.5,1.5c-0.2,0.1-0.4,0.2-0.7,0.2
	c-0.1,0-0.3-0.1-0.4-0.1c-0.4-0.2-0.9-0.5-1.3-0.8L88,83.5l0-0.8l2.1,1.2c0.4,0.2,0.9,0.6,1.3,0.8c0.2,0.1,0.5,0.1,0.8,0
	c0.7-0.2,1.3-0.7,1.9-1l3.3-2l5.7-3.4l3.1-1.8l1-0.6c0.1-0.1,0.2-0.1,0.3-0.2c0.1-0.1,0-0.4,0-0.5l0-22c0,0,0-0.2,0-0.2
	c0.4-0.2,0.7-0.5,1.1-0.7c0.4-0.2,0.7-0.3,1.1-0.5l0.1,0l0,0L110.3,51.3z"/>
<path class="st8" d="M110.3,51.3c0.2,0.2,0.2,0.3,0.2,0.6c-0.2-0.2-0.5-0.3-0.8-0.4L110.3,51.3z"/>
<path class="st3" d="M108.6,55.6c0-0.2-0.1-0.9,0.1-1c0.1-0.1,0.4-0.2,0.6-0.2c0.1,0,0.2,0.1,0.3,0.2c0.1,0.1,0.1,0.3,0.1,0.5
	c0,0.4,0,0.9,0,1.3c-0.1,0.2-0.2,0.2-0.4,0.3l-0.6-0.1L108.6,55.6z"/>
<path class="st11" d="M107.5,53c0.6,0.8,0.8,1.6,1.1,2.6l0,1l0.6,0.1c0.1,0.2,0.1,0.4,0.1,0.6l0,0.1c0.1,0,0.2,0.1,0.3,0.2
	c0.1,0.3,0.1,0.7,0.1,1c0,0.1,0,0.3,0,0.5c0,0.1-0.2,0.2-0.3,0.3c0,0.2,0,0.5-0.1,0.7c0.1,0.1,0.3,0.2,0.3,0.3l0,12.9
	c0,0.2,0,0.5-0.1,0.6c-0.1,0.1-0.2,0.1-0.3,0.1c-0.4,0.4-1.1,0.7-1.6,1L107.5,53z"/>
<path class="st3" d="M109.3,57.4c0.1,0,0.2,0.1,0.3,0.2c0.1,0.3,0.1,0.7,0.1,1c0,0.1,0,0.3,0,0.5c0,0.1-0.2,0.2-0.3,0.3
	c-0.2,0-0.4,0-0.5,0c-0.1,0-0.2-0.1-0.2-0.2c0-0.1,0-0.2,0-0.4l0-0.8c0-0.1,0-0.3,0-0.4C108.8,57.5,109.1,57.5,109.3,57.4z"/>
<path class="st3" d="M109.3,60.1c0.1,0.1,0.3,0.2,0.3,0.3l0,12.9c0,0.2,0,0.5-0.1,0.6c-0.1,0.1-0.2,0.1-0.3,0.1
	c-0.1,0-0.3,0-0.3-0.1c-0.1-0.1-0.1-0.3-0.2-0.4l0-2.3l0-4.4l0-4c0-0.8,0-1.5,0-2.3c0-0.1,0-0.2,0.1-0.3
	C108.9,60.1,109.1,60.1,109.3,60.1z"/>
<path class="st17" d="M62.7,61.3l2.4-1.8l31.1,17.8l-1.4,2.5L62.7,61.3z"/>
<path class="st6" d="M94.8,79.7l-1.5,2.4c-0.3,0.5-0.6,1.1-0.9,1.5c-0.1,0.1-0.2,0.2-0.3,0.2c-0.1,0-0.4,0-0.5,0
	c-0.4-0.1-0.8-0.5-1.2-0.7L88,81.8l0-3.7L63,63.8l0,3.4l-6.8-3.9c-0.1-0.1-0.1-0.2-0.1-0.3c0.2-0.1,4.2,0,4.7,0c0.1,0,0.6,0,0.7,0
	c0.1,0,0.2-0.2,0.2-0.3c0.2-0.3,0.6-1.2,0.9-1.3L94.8,79.7z"/>
<path class="st6" d="M99.3,51.7l1.7,1L89.3,72.5c-0.6-0.3-1.2-0.7-1.8-1l-3.2-1.8l-11.1-6.4L67.4,60L66,59.2
	c-0.2-0.1-0.5-0.2-0.7-0.4c0-0.7,0.1-1.5,0-2.3l0.1,0.1l14.8,8.5c0.3-0.3,0.6-0.7,1-1l2.1,1.2c0.4,0.3,0.8,0.5,1.3,0.7l9.2-5.3
	c0-0.1,0.1-0.2,0.2-0.3l0,0L99.3,51.7z"/>
<path class="st12" d="M84.6,66l9.2-5.3c-0.1,0.3-0.3,0.6-0.5,0.9l-1,1.7l-3.5,5.8l-4.6-2.8L84.6,66z"/>
<path class="st15" d="M91.1,70.8l10.6-17.7c0.7,0.3,1.4,0.8,2,1.2c0.3,0.2,0.8,0.4,1.1,0.6c0,0.7-0.2,1.5-0.3,2.2
	c-0.1,0.3-0.1,0.7-0.3,0.9l0,0c0,0.4-0.1,0.7-0.3,1c-0.1,0.1-0.2,0.2-0.2,0.3l-0.3,2.6l-0.3,2.3c-0.1,0.5-0.1,1-0.2,1.5
	c0.3,0.2,0.7,0.5,0.9,0.8c0.1,0.8,0,1.6,0,2.4c0,0.4,0,0.8,0,1.2c0,0.1-0.1,0.3-0.2,0.4c-0.4,0.4-1,0.7-1.5,1
	c-0.7,0.4-1.5,1-2.3,1.3c-0.6-0.2-1-0.6-1.5-0.8c-0.1,0.7-0.5,1.6-0.9,2.3L91.1,70.8z"/>
<path class="st3" d="M99.6,60.4c0.4,0,0.7,0.1,1,0.3c0.4,0.2,0.7,0.6,0.8,1c0.1,0.5,0,1-0.2,1.5c-0.3,0.5-0.7,0.7-1.3,0.8
	c-0.5,0-0.8,0-1.2-0.3c-0.4-0.3-0.7-0.7-0.8-1.2c-0.1-0.5,0-1,0.3-1.4C98.6,60.7,99,60.5,99.6,60.4z"/>
<path class="st18" d="M98.7,62.5L98.7,62.5c-0.1-0.4-0.1-0.7,0.1-1c0.1-0.2,0.4-0.4,0.7-0.5c0.4-0.1,0.6,0,0.9,0.2L98.7,62.5z"/>
<path class="st19" d="M100.4,61.3c0.2,0.2,0.4,0.5,0.4,0.8c0,0.1,0,0.3,0,0.4l0,0c-0.1,0.3-0.3,0.5-0.5,0.6c-0.3,0.1-0.6,0.1-0.9,0
	c-0.3-0.1-0.5-0.4-0.6-0.7L100.4,61.3z"/>
<path class="st3" d="M103.6,59.4c-0.3,0.2-0.6,0.4-0.9,0.5c-0.4,0.1-0.9,0.1-1.3-0.1c-0.5-0.3-0.8-0.7-0.9-1.2c-0.1-0.5,0-1,0.2-1.4
	c0.3-0.4,0.7-0.7,1.2-0.8c0.5-0.1,0.9,0,1.3,0.3c0.5,0.4,0.7,0.9,0.8,1.5c0,0.4-0.1,0.7-0.3,1C103.8,59.2,103.7,59.3,103.6,59.4z"/>
<path class="st18" d="M101.3,58.5c0-0.1-0.1-0.3-0.1-0.5c0-0.3,0.1-0.6,0.4-0.8c0.2-0.2,0.5-0.3,0.8-0.3c0.4,0,0.6,0.2,0.8,0.5
	c-0.1,0.1-0.2,0.1-0.3,0.1c-0.4,0.1-0.7,0.4-1,0.7C101.7,58.3,101.5,58.4,101.3,58.5z"/>
<linearGradient id="SVGID_00000154418708888553436200000004664691307279654551_" gradientUnits="userSpaceOnUse" x1="102.2021" y1="51.3774" x2="102.7431" y2="50.2442" gradientTransform="matrix(1 0 0 -1 0 109.276)">
	<stop  offset="0" style="stop-color:#9A666D"/>
	<stop  offset="1" style="stop-color:#B07C83"/>
</linearGradient>
<path style="fill:url(#SVGID_00000154418708888553436200000004664691307279654551_);" d="M103.2,57.4c0.2,0.3,0.3,0.6,0.2,1
	c0,0.3-0.2,0.5-0.4,0.6c-0.3,0.2-0.6,0.3-1,0.2c-0.3-0.1-0.5-0.3-0.7-0.6l-0.1-0.1c0.2-0.1,0.4-0.2,0.6-0.3c0.3-0.2,0.6-0.5,1-0.7
	C103,57.5,103.1,57.5,103.2,57.4z"/>
<path class="st3" d="M98.2,72.1c-0.4-0.2-2-1-2.1-1.4l0-0.1c-0.1-0.8,0-1.8,0-2.6c0-0.4-0.1-1.1,0.1-1.4c0.2-0.3,0.6-0.5,0.8-0.7
	c0.5-0.4,1.1-1,1.7-1.1c0.4-0.1,2.5-0.1,2.8,0.1c0.4,0.2,0.9,0.7,1.3,1c0.3,0.2,0.7,0.5,0.9,0.8c0.1,0.8,0,1.6,0,2.4
	c0,0.4,0,0.8,0,1.2c0,0.1-0.1,0.3-0.2,0.4c-0.4,0.4-1,0.7-1.5,1c-0.7,0.4-1.5,1-2.2,1.3C99.1,72.7,98.7,72.3,98.2,72.1z"/>
<path class="st18" d="M96.7,70.3c-0.1-0.4,0-0.9,0-1.4c0-0.7,0-1.4,0-2l1.1-0.8c0.3-0.2,0.6-0.4,0.9-0.6l2,0c0.1,0,0.4,0,0.5,0
	c0.1,0,0.2,0.1,0.2,0.2l0.5,0.5c-0.3,0.2-0.7,0.5-1.1,0.7c-0.6-0.3-1-0.5-1.7-0.3c-0.5,0.2-1.1,0.6-1.3,1.1
	c-0.3,0.5-0.3,1.2-0.1,1.8c-0.2,0.3-0.5,0.5-0.8,0.7C97,70.1,96.8,70.2,96.7,70.3z"/>
<path class="st17" d="M102,66.1l0.6,0.5c0.1,0.1,0.3,0.2,0.4,0.3l0,3.3c-0.3,0.2-3.1,2.1-3.3,2c-0.1,0-0.4-0.2-0.5-0.3l-1.7-1
	c-0.2-0.1-0.6-0.3-0.7-0.4c0,0,0-0.1,0-0.1c0.1-0.1,0.2-0.2,0.3-0.2c0.3-0.2,0.6-0.4,0.8-0.7l0,0.1c0.1,0.3,0.4,0.7,0.7,0.9
	c0.5,0.3,1.1,0.5,1.7,0.3c0.5-0.1,1.1-0.6,1.3-1.1c0.2-0.4,0.3-1.2,0.2-1.7l0-0.1c-0.2-0.5-0.4-0.8-0.8-1.1
	C101.3,66.6,101.7,66.3,102,66.1z"/>
<path class="st3" d="M97.8,69.4c-0.2-0.6-0.2-1.3,0.1-1.8c0.3-0.5,0.8-0.9,1.3-1.1c0.6-0.2,1.1,0,1.7,0.3c0.4,0.3,0.7,0.6,0.8,1.1
	l0,0.1c0.2,0.5,0.1,1.2-0.2,1.7c-0.3,0.5-0.8,0.9-1.3,1.1c-0.6,0.1-1.2,0-1.7-0.3C98.3,70.1,97.9,69.8,97.8,69.4L97.8,69.4z"/>
<path class="st6" d="M98.3,68.7c0-0.2,0-0.4,0-0.5c0.1-0.4,0.5-0.8,0.8-1c0.3-0.2,0.7-0.2,1.1-0.1L98.3,68.7z"/>
<path class="st7" d="M100.3,67.1c0.4,0.2,0.7,0.6,0.9,1c0.1,0.4,0,0.9-0.2,1.2c-0.2,0.3-0.5,0.5-0.9,0.6c-0.4,0.1-0.9,0-1.3-0.2
	c-0.3-0.2-0.5-0.5-0.5-0.8c0-0.1,0-0.1,0-0.2L100.3,67.1z"/>
<path class="st14" d="M66.8,32.8L82.7,42c-0.1,0.2-0.4,0.3-0.5,0.5l-1.1,0.9l-5.3,4.2l-8.9,7L66.8,32.8z"/>
<path class="st10" d="M68.9,36.4l9.3,5.4c-0.1,0.1-0.3,0.2-0.4,0.4l-0.8,0.6L74.1,45l-5.2,4L68.9,36.4z"/>
<path class="st17" d="M51.1,40.6l0-3.2c0-0.4-0.1-0.9,0-1.3c0.1-0.2,0.2-0.5,0.4-0.6c0.2-0.2,0.5-0.4,0.8-0.4c0.3,0,0.6,0,1,0l1.6,0
	l5.1-0.1l0,1l0,23.9l-8.8,0l0-7.8L51.1,40.6z"/>
<path class="st10" d="M51.1,40.6l0-3.2c0-0.4-0.1-0.9,0-1.3c0.1-0.2,0.2-0.5,0.4-0.6c0.2-0.2,0.5-0.4,0.8-0.4c0.3,0,0.6,0,1,0l1.6,0
	l5.1-0.1l0,1l-7.4,0c-0.2,0-0.4,0.1-0.5,0.3c-0.1,0.1-0.2,0.3-0.2,0.4c-0.1,0.6-0.1,1.4-0.2,2l-0.3,2.7c0,0.4-0.1,0.9-0.2,1.3l0-1.3
	C51.2,41.1,51.2,40.8,51.1,40.6z"/>
<path class="st3" d="M56.3,42.4c0.5,0,1.4-0.1,1.7,0.2c0,0.1,0,0.1,0,0.2l0,1.5c0,0.3,0,0.6,0,0.9c0,0.1,0,0.1-0.1,0.2
	c-0.1,0-0.1,0.1-0.2,0.1c-0.3,0-0.7,0-0.9,0l-2.2,0c-0.3,0-1.4,0.1-1.6-0.1c-0.1-0.1-0.1-0.2-0.1-0.3c0-0.4,0-0.9,0-1.4
	c0-0.3,0-0.7,0-1c0-0.1,0.1-0.1,0.1-0.2c0.1,0,0.2-0.1,0.3-0.1c0.3,0,0.7,0,1,0L56.3,42.4z"/>
<path class="st21" d="M53.9,43.1l2.3,0c0.3,0,0.7,0,1,0l0,0c0.1,0.1,0.1,1.5,0,1.7l-3.6,0l0,0c0-0.2,0-1.6,0-1.7L53.9,43.1z"/>
<path class="st9" d="M53.9,43.1c0.1,0.1,0.1,0.1,0.2,0.2L54,43.5c0,0.2,0.1,0.4,0.1,0.6c-0.1,0.2-0.2,0.5-0.4,0.7
	c0-0.3-0.1-1.4,0-1.6L53.9,43.1z"/>
<path class="st22" d="M53.9,43.1l2.3,0c0.3,0,0.7,0,1,0c-0.1,0.3-0.4,0.5-0.6,0.7c-0.3,0-2.3-0.1-2.4,0.1l-0.2,0.2
	C54,43.9,54,43.7,54,43.5l0.1-0.1C54.1,43.3,54,43.2,53.9,43.1L53.9,43.1z"/>
<path class="st3" d="M53.4,38.1c0.5,0,4.2-0.1,4.4,0c0.1,0,0.2,0.1,0.3,0.3c0.1,0.2,0,2.4,0,2.6c-0.1,0.1-0.2,0.2-0.3,0.2l-3.2,0
	l-0.8,0c-0.1,0-0.3,0-0.4,0c-0.1,0-0.2-0.1-0.2-0.2c0-0.2-0.1-2.4,0-2.5C53.1,38.2,53.2,38.2,53.4,38.1z"/>
<path class="st23" d="M57.2,38.8L57.2,38.8l0.1,0l0,1.7l-3.7,0l0-1.7l0.1-0.1l0.3,0L57.2,38.8z"/>
<path class="st24" d="M53.8,38.8l0.3,0l0.1,0.8c-0.1,0.3-0.2,0.5-0.4,0.8l0-0.9C53.8,39.3,53.7,39.1,53.8,38.8z"/>
<path class="st11" d="M54.1,38.8l3.1,0c-0.1,0.3-0.5,0.5-0.7,0.7c-0.3,0-2.1-0.1-2.2,0.1l0,0.1L54.1,38.8z"/>
<path class="st3" d="M53.2,46.7c0.3-0.1,0.7,0,1,0l2.3,0l0.9,0c0.1,0,0.3,0,0.4,0c0.1,0,0.2,0.1,0.2,0.2c0.1,0.2,0.1,2.5,0,2.6
	c-0.1,0.1-0.2,0.1-0.3,0.2l-0.1,0l-2.8,0l-1.1,0c-0.2,0-0.4,0-0.6,0c-0.1,0-0.2-0.1-0.2-0.1c-0.1-0.2-0.1-2.3,0-2.6
	C53,46.8,53.1,46.8,53.2,46.7z"/>
<path class="st11" d="M53.7,47.4c0.2,0.1,0.3,0.3,0.3,0.5c-0.1,0.1-0.2,0.1-0.3,0.1L53.7,47.4z"/>
<path class="st22" d="M53.7,47.4c0.2-0.1,0.7,0,0.9,0l2.6,0c-0.1,0.2-0.4,0.6-0.6,0.7l-1.8,0c-0.2,0-0.6,0-0.7,0.1
	c0-0.1-0.1-0.2-0.1-0.4C54,47.6,53.9,47.5,53.7,47.4z"/>
<path class="st21" d="M57.3,47.3c0.1,0.2,0.1,1.5,0.1,1.8l-3.7,0c0-0.3-0.1-0.8,0-1.1l0,0c0.1,0,0.2-0.1,0.3-0.1
	c0,0.1,0,0.2,0.1,0.4c0.2-0.1,0.5-0.1,0.7-0.1l1.8,0C56.9,47.9,57.3,47.6,57.3,47.3z"/>
<path class="st9" d="M53.7,47.9c0.1,0,0.2-0.1,0.3-0.1c0,0.1,0,0.2,0.1,0.4c-0.1,0.3-0.2,0.5-0.4,0.7L53.7,47.9L53.7,47.9z"/>
<path class="st3" d="M53.2,55.2l4.4,0c0.2,0,0.2,0,0.4,0.2c0.2,0.2,0.1,1.5,0.1,1.8c0,0.2,0,0.5,0,0.7c0,0.1-0.2,0.2-0.3,0.3
	c-0.2,0-0.4,0-0.6,0l-1.1,0l-1.9,0c-0.3,0-0.6,0-0.9,0c-0.1,0-0.2-0.1-0.3-0.2c-0.1-0.3-0.1-2.4,0-2.6C53,55.3,53.1,55.3,53.2,55.2z
	"/>
<path class="st9" d="M53.7,57.4c0-0.3,0-0.7,0-1c0-0.2,0-0.4,0-0.6l2.2,0c0.4,0,1-0.1,1.4,0c0,0,0,0.1,0,0.2
	c-0.1,0.2-0.5,0.5-0.7,0.6c-0.3,0-2.3-0.1-2.5,0C54,56.9,53.9,57.3,53.7,57.4z"/>
<path class="st23" d="M57.3,55.9c0,0.2,0,0.4,0,0.6l0,1.2l-2.7,0c-0.3,0-0.7,0.1-1,0l0-0.2c0.2-0.1,0.3-0.6,0.4-0.8
	c0.1-0.1,2.1,0,2.5,0c0.2-0.1,0.6-0.4,0.7-0.6C57.3,56,57.3,55.9,57.3,55.9z"/>
<path class="st3" d="M53.3,50.9l3,0c0.4,0,1.1-0.1,1.5,0c0.1,0,0.2,0.1,0.3,0.2c0.1,0.2,0.1,2.4,0,2.6c-0.1,0.1-0.2,0.2-0.3,0.2
	l-4.4,0c-0.1,0-0.2-0.1-0.3-0.2c-0.1-0.2-0.1-2.5,0-2.7C53.1,51,53.1,50.9,53.3,50.9z"/>
<path class="st11" d="M53.7,51.6l0.4,0c0,0.2,0,0.3,0,0.4c0,0.1,0,0.3,0,0.5c-0.1,0.2-0.2,0.5-0.4,0.7c-0.1-0.1,0,0-0.1-0.1
	C53.7,52.6,53.6,52,53.7,51.6z"/>
<path class="st22" d="M53.7,51.6c0.3-0.1,0.9,0,1.2,0c0.8,0,1.6-0.1,2.4,0c0,0.2-0.5,0.6-0.7,0.8l-1.4,0c-0.3,0-0.8-0.1-1.1,0.1
	c0-0.1,0-0.3,0-0.5c0-0.2,0.1-0.2,0-0.4L53.7,51.6z"/>
<path class="st21" d="M57.3,51.6c0.1,0.2,0,1.5,0,1.8l-3.6,0c-0.1-0.1,0-0.2,0-0.3c0,0.1,0,0.1,0.1,0.1c0.1-0.2,0.3-0.5,0.4-0.7
	c0.3-0.2,0.8-0.1,1.1-0.1l1.4,0C56.8,52.2,57.3,51.8,57.3,51.6z"/>
<path class="st3" d="M66.2,56c0.4-0.4,1-0.8,1.5-1.2l3.5-2.7l7.1-5.6l5.2-4.1l10.8,6.4l5,3L94,60.5l0,0c-0.1,0.1-0.1,0.2-0.2,0.3
	L84.6,66c-0.5-0.2-0.9-0.4-1.3-0.7l-2.1-1.2c-0.4,0.3-0.7,0.6-1,1l-14.8-8.5l0.2-0.1C65.9,56.4,66.1,56.2,66.2,56z"/>
<path class="st19" d="M83.4,62.5l0.8,0.6l0,2L82,63.7L83.4,62.5z"/>
<path class="st25" d="M82,63.7c-0.2-0.1-0.5-0.2-0.7-0.4l-1.2-0.7L77,60.8l1.6-1.1l4.8,2.8L82,63.7z"/>
<path class="st23" d="M79,52.8l4.8,2.9c-0.5,0.4-1.2,0.7-1.7,1L79,58.5L79,52.8z"/>
<path class="st19" d="M90.6,59.6c0,0,0.1,0,0.1,0c0.1,0,0.3,0.2,0.4,0.2l1.5,0.8c-0.2,0.2-0.5,0.3-0.7,0.4l-1.5,0.8l-4.1,2.4L85,65
	c0-0.1,0-0.4,0-0.5l0-1.6c0.6-0.5,1.4-0.9,2.1-1.3L90.6,59.6z"/>
<path class="st21" d="M90.2,52.7L90.2,52.7c0.1,0.1,0.1,0.3,0.1,0.5l0,1.1l0,4.2l-2.9-1.8l-2-1.2L90.2,52.7z"/>
<path class="st11" d="M85,56.2l4.9,2.9c-0.6,0.4-1.3,0.8-1.9,1.1L85,62.1L85,56.2z"/>
<path class="st10" d="M84.2,46L84.2,46c0.1,0.1,0.1,1.8,0.1,2.1l-5.6,3.4l-1-0.7l-0.8-0.5L84.2,46z"/>
<path class="st10" d="M76.4,51.1l1.8,1.2l0,6.7c0,0.1-0.6,0.5-0.8,0.6l-1.1,0.7L76.4,51.1z"/>
<path class="st8" d="M85,49l5,3l-1.8,1.1L85,55C84.9,54.8,85,49.6,85,49z"/>
<path class="st11" d="M84.2,56.2C84.3,56.2,84.2,56.2,84.2,56.2l0.1,6l-3.1-1.9l-2-1.1L84.2,56.2z"/>
<path class="st10" d="M85,46l7.7,4.5L92,50.9l-1.3,0.7l-4.1-2.4c-0.5-0.3-1.1-0.7-1.6-0.9l0,0L85,46z"/>
<path class="st11" d="M84.2,49.1L84.2,49.1l0.1,4.2l0,1.2c0,0.2,0,0.4,0,0.6l-3.1-1.8l-1.9-1.1L84.2,49.1z"/>
<path class="st19" d="M93.1,51.1L93.1,51.1c0.1,0.3,0.1,0.7,0.1,1l0,1.9l0,6l-1.3-0.7L91.1,59l0-6.7C91.7,51.9,92.4,51.5,93.1,51.1z
	"/>
<path class="st12" d="M94.2,48.7l5,3L94,60.5l0,0l0-10c-0.1-0.2-0.2-0.3-0.4-0.4C93.7,49.6,93.9,49.1,94.2,48.7z"/>
<path class="st17" d="M66.2,56c0.4-0.4,1-0.8,1.5-1.2l3.5-2.7l7.1-5.6l5.2-4.1l10.8,6.4c-0.3,0.4-0.5,0.9-0.8,1.3L88,46.9l-2.4-1.4
	c-0.3-0.2-0.5-0.3-0.8-0.5c-0.1-0.1-0.2-0.1-0.3-0.1c-0.2,0-0.5,0.3-0.7,0.4l-1.4,0.8l-4.9,3l-1.1,0.7c-0.2,0.1-0.4,0.2-0.6,0.4
	c0,0-0.1,0.1-0.1,0.1c-0.1,0.2,0,0.7,0,1l0,2.4l0,4.6l0,2.3c0,0.1,0,0.2,0.1,0.2c0.1,0.1,0.2,0.2,0.3,0.2c0.3,0.2,0.7,0.4,1,0.6
	l1.6,1l2.5,1.5c-0.4,0.3-0.7,0.6-1,1l-14.8-8.5l0.2-0.1C65.9,56.4,66.1,56.2,66.2,56z"/>
<path class="st26" d="M150.3,27.2V13.6l-11.7-6.8l-11.8,6.8v13.6l11.8,6.8L150.3,27.2z"/>
</svg>
