<?xml version="1.0" encoding="utf-8"?>
<!-- Generator: Adobe Illustrator 27.1.1, SVG Export Plug-In . SVG Version: 6.00 Build 0)  -->
<svg version="1.1" id="Слой_1" xmlns="http://www.w3.org/2000/svg" xmlns:xlink="http://www.w3.org/1999/xlink" x="0px" y="0px"
	 viewBox="0 0 159 109" style="enable-background:new 0 0 159 109;" xml:space="preserve">
<style type="text/css">
	.st0{fill:#66FECB;}
	.st1{fill:url(#SVGID_1_);}
	.st2{fill:#5EDEB3;}
	.st3{fill:#01B478;}
	.st4{fill:#1DCE92;}
	.st5{fill:#2AFFB7;}
	.st6{fill:#FFFFFF;}
	.st7{fill:#441F00;}
	.st8{fill:url(#SVGID_00000145749562607983284590000005808143553055917223_);}
	.st9{fill:url(#SVGID_00000000187246311315798610000002306436846685136573_);}
	.st10{fill:#434343;}
	.st11{fill:url(#SVGID_00000059286817208596960570000007655767725142682803_);}
	.st12{fill-rule:evenodd;clip-rule:evenodd;fill:#FFFFFF;}
	.st13{fill-rule:evenodd;clip-rule:evenodd;fill:#FFFFFF;filter:url(#Adobe_OpacityMaskFilter);}
	.st14{mask:url(#path-27-inside-1_117_5670_00000011010391096554208690000003217088317996387744_);fill:#C2C2C2;}
	.st15{fill:#413E76;}
	.st16{fill:none;stroke:#000000;stroke-linejoin:round;}
	.st17{fill:#98A5C5;stroke:#000000;stroke-linejoin:round;}
	.st18{fill:#030015;stroke:#000000;stroke-linejoin:round;}
	.st19{fill:#413E76;stroke:#000000;stroke-linejoin:round;}
	.st20{fill:#246282;stroke:#000000;stroke-linejoin:round;}
	.st21{fill:#342664;stroke:#000000;stroke-linejoin:round;}
	.st22{fill:#130B30;stroke:#000000;stroke-linejoin:round;}
	.st23{fill:#170F3E;stroke:#000000;stroke-linejoin:round;}
	.st24{fill:url(#SVGID_00000066504523278093620580000000479891517684993937_);stroke:#000000;stroke-linejoin:round;}
	.st25{fill:#33A6AA;stroke:#000000;stroke-linejoin:round;}
	.st26{fill:#3DC2D7;stroke:#000000;stroke-linejoin:round;}
	.st27{fill:#065655;stroke:#000000;stroke-linejoin:round;}
	.st28{fill:#E6EDE9;stroke:#000000;stroke-linejoin:round;}
	.st29{fill:#0E7872;stroke:#000000;stroke-linejoin:round;}
	.st30{fill:#278D95;stroke:#000000;stroke-linejoin:round;}
	.st31{fill:#97D5B1;stroke:#000000;stroke-linejoin:round;}
	.st32{fill:#098F75;stroke:#000000;stroke-linejoin:round;}
	.st33{fill:url(#SVGID_00000168819979567361259000000009495467055868542092_);stroke:#000000;stroke-linejoin:round;}
	.st34{fill:url(#SVGID_00000121977515185828148580000005795172571259733170_);stroke:#000000;stroke-linejoin:round;}
	.st35{fill:url(#SVGID_00000065773176017611680050000003947879751802689715_);stroke:#000000;stroke-linejoin:round;}
	.st36{fill:#98A5C5;}
	.st37{fill:#030015;}
	.st38{fill:#246282;}
	.st39{fill:#342664;}
	.st40{fill:#130B30;}
	.st41{fill:#170F3E;}
	.st42{fill:url(#SVGID_00000121277709930011825040000010849513452406516920_);}
	.st43{fill:#33A6AA;}
	.st44{fill:#3DC2D7;}
	.st45{fill:#065655;}
	.st46{fill:#E6EDE9;}
	.st47{fill:#0E7872;}
	.st48{fill:#278D95;}
	.st49{fill:#97D5B1;}
	.st50{fill:#098F75;}
	.st51{fill:url(#SVGID_00000018931103938769994110000002739463751587424423_);}
	.st52{fill:url(#SVGID_00000037681528582528930420000010945066705466465936_);}
	.st53{fill:url(#SVGID_00000153663291120015684940000011401151203687477162_);}
</style>
<path class="st0" d="M149.6,27V13.4l-11.7-6.8l-11.8,6.8V27l11.8,6.8L149.6,27z"/>
<path class="st0" d="M144.7,24.2v-7.9l-6.9-4l-6.9,4v7.9l6.9,4L144.7,24.2z"/>
<linearGradient id="SVGID_1_" gradientUnits="userSpaceOnUse" x1="137.8345" y1="86.0901" x2="137.8345" y2="92.0546" gradientTransform="matrix(1 0 0 -1 0 109.276)">
	<stop  offset="0" style="stop-color:#9C3600"/>
	<stop  offset="4.000000e-02" style="stop-color:#A44401"/>
	<stop  offset="0.25" style="stop-color:#CD8909"/>
	<stop  offset="0.4" style="stop-color:#E7B40D"/>
	<stop  offset="0.48" style="stop-color:#F1C40F"/>
	<stop  offset="0.53" style="stop-color:#F2C615"/>
	<stop  offset="0.6" style="stop-color:#F3CC25"/>
	<stop  offset="0.67" style="stop-color:#F7D53F"/>
	<stop  offset="0.75" style="stop-color:#FBE363"/>
	<stop  offset="0.81" style="stop-color:#FFF088"/>
	<stop  offset="1" style="stop-color:#FFF8D6"/>
</linearGradient>
<path class="st1" d="M140.4,21.7v-3l-2.6-1.5l-2.6,1.5v3l2.6,1.5L140.4,21.7z"/>
<path class="st2" d="M137.8,12.3V6.6l11.8,6.8l-4.9,2.8L137.8,12.3z"/>
<path class="st3" d="M144.7,24.2v-7.9l4.9-2.8V27L144.7,24.2z"/>
<path class="st4" d="M137.8,28.1v5.6l11.8-6.8l-4.9-2.8L137.8,28.1z"/>
<path class="st3" d="M131,24.2l-4.9,2.8l11.8,6.8v-5.6L131,24.2z"/>
<path class="st2" d="M126.1,13.4l4.9,2.8v7.9l-4.9,2.8V13.4z"/>
<path class="st5" d="M137.8,12.3l-6.9,4l-4.9-2.8l11.8-6.8V12.3z"/>
<path class="st6" d="M149.6,13.4l-5.2,2.6l-6.3-3.7l-0.2-5.8l-0.2,5.8l-6.3,3.7l-5.2-2.6l4.9,2.8v2.8c0.1-0.9,0.2-1.8,0.3-2.6
	l6.6-3.6l6.6,3.6c0.1,0.9,0.2,1.8,0.3,2.6v-2.8l0.1,0L149.6,13.4z"/>
<path class="st7" d="M137.8,5.1l0.7,0.4l11.7,6.8l0.7,0.4v15.1l-0.7,0.4l-11.7,6.8l-0.7,0.4l-0.7-0.4l-11.7-6.8l-0.7-0.4V12.7
	l0.7-0.4l11.7-6.8L137.8,5.1z M137.8,4.3c-0.1,0-0.3,0-0.4,0.1l-0.7,0.4L125,11.6l-0.7,0.4c-0.1,0.1-0.2,0.2-0.3,0.3
	c-0.1,0.1-0.1,0.3-0.1,0.4v15.1c0,0.1,0,0.3,0.1,0.4c0.1,0.1,0.2,0.2,0.3,0.3l0.7,0.4l11.7,6.8l0.7,0.4c0.1,0.1,0.3,0.1,0.4,0.1
	c0.1,0,0.3,0,0.4-0.1l0.7-0.4l11.8-6.8l0.7-0.4c0.1-0.1,0.2-0.2,0.3-0.3c0.1-0.1,0.1-0.3,0.1-0.4V12.7c0-0.1,0-0.3-0.1-0.4
	s-0.2-0.2-0.3-0.3l-0.7-0.4l-11.7-6.8l-0.7-0.4C138.1,4.4,138,4.4,137.8,4.3L137.8,4.3z"/>
<linearGradient id="SVGID_00000052064426654016704120000012333698776002238100_" gradientUnits="userSpaceOnUse" x1="137.8345" y1="73.9999" x2="137.8345" y2="104.1442" gradientTransform="matrix(1 0 0 -1 0 109.276)">
	<stop  offset="0" style="stop-color:#9C3600"/>
	<stop  offset="4.000000e-02" style="stop-color:#A44401"/>
	<stop  offset="0.25" style="stop-color:#CD8909"/>
	<stop  offset="0.4" style="stop-color:#E7B40D"/>
	<stop  offset="0.48" style="stop-color:#F1C40F"/>
	<stop  offset="0.53" style="stop-color:#F2C615"/>
	<stop  offset="0.6" style="stop-color:#F3CC25"/>
	<stop  offset="0.67" style="stop-color:#F7D53F"/>
	<stop  offset="0.75" style="stop-color:#FBE363"/>
	<stop  offset="0.81" style="stop-color:#FFF088"/>
	<stop  offset="1" style="stop-color:#FFF8D6"/>
</linearGradient>
<path style="fill:url(#SVGID_00000052064426654016704120000012333698776002238100_);" d="M150.2,12.3l-11.7-6.8l-0.7-0.4l-0.7,0.4
	l-11.7,6.8l-0.7,0.4v15.1l0.7,0.4l11.7,6.8l0.7,0.4l0.7-0.4l11.7-6.8l0.7-0.4V12.7L150.2,12.3z M137.8,30.8l-1.7,2l-8.4-4.9l0.9-2.4
	l-2.5-0.5v-9.7l2.5-0.5l-0.9-2.4l8.4-4.9l1.7,2l1.7-2l8.4,4.9l-0.9,2.4l2.5,0.5v9.7l-2.5,0.5l0.9,2.4l-8.4,4.9L137.8,30.8z"/>
<path class="st7" d="M149.6,15.3l-2.5-0.5l0.9-2.4l-8.4-4.9l-1.7,2l-1.7-2l-8.4,4.9l0.9,2.4l-2.5,0.5v9.7l2.5,0.5l-0.9,2.4l8.4,4.9
	l1.7-2l1.7,2l8.4-4.9l-0.9-2.4l2.5-0.5L149.6,15.3z M139.6,8.3l7.7,4.4l-0.7,2c0,0.1,0,0.1,0,0.2l-5.9,3.4l-2.6-1.5V10
	c0.1,0,0.1-0.1,0.1-0.1L139.6,8.3z M137.8,23.2l-2.6-1.5v-3l2.6-1.5l2.6,1.5v3L137.8,23.2z M136.1,8.3l1.4,1.6c0,0,0.1,0.1,0.1,0.1
	v6.8l-2.6,1.5l-5.9-3.4c0-0.1,0-0.1,0-0.2l-0.7-2L136.1,8.3z M126.6,15.8l2.1-0.4c0.1,0,0.1,0,0.2-0.1l5.9,3.4v3l-5.9,3.4
	c-0.1,0-0.1-0.1-0.2-0.1l-2.1-0.4V15.8z M136.1,32.1l-7.7-4.4l0.7-2c0-0.1,0-0.1,0-0.2l5.9-3.4l2.6,1.5v6.8c-0.1,0-0.1,0.1-0.1,0.1
	L136.1,32.1z M147.3,27.7l-7.7,4.4l-1.4-1.6c0,0-0.1-0.1-0.1-0.1v-6.8l2.6-1.5l5.9,3.4c0,0.1,0,0.1,0,0.2L147.3,27.7z M149.1,24.6
	L147,25c-0.1,0-0.1,0-0.2,0.1l-5.9-3.4v-3l5.9-3.4c0.1,0,0.1,0.1,0.2,0.1l2.1,0.4V24.6z"/>
<path class="st0" d="M149.3,26.6V13.1l-11.7-6.8l-11.8,6.8v13.6l11.8,6.8L149.3,26.6z"/>
<path class="st0" d="M144.4,23.8v-7.9l-6.9-4l-6.9,4v7.9l6.9,4L144.4,23.8z"/>
<linearGradient id="SVGID_00000144329428390779126060000009295272712907821228_" gradientUnits="userSpaceOnUse" x1="137.5845" y1="86.43" x2="137.5845" y2="92.3945" gradientTransform="matrix(1 0 0 -1 0 109.276)">
	<stop  offset="0" style="stop-color:#686868"/>
	<stop  offset="4.000000e-02" style="stop-color:#5D5D5D"/>
	<stop  offset="0.25" style="stop-color:#8B8B8B"/>
	<stop  offset="0.4" style="stop-color:#8D8D8D"/>
	<stop  offset="0.48" style="stop-color:#A0A0A0"/>
	<stop  offset="0.53" style="stop-color:#C0C0C0"/>
	<stop  offset="0.6" style="stop-color:#ABABAB"/>
	<stop  offset="0.67" style="stop-color:#BDBDBD"/>
	<stop  offset="0.75" style="stop-color:#C2C2C2"/>
	<stop  offset="0.81" style="stop-color:#D8D8D8"/>
	<stop  offset="1" style="stop-color:#FFFFFF"/>
</linearGradient>
<path style="fill:url(#SVGID_00000144329428390779126060000009295272712907821228_);" d="M140.2,21.4v-3l-2.6-1.5l-2.6,1.5v3
	l2.6,1.5L140.2,21.4z"/>
<path class="st2" d="M137.6,11.9V6.3l11.8,6.8l-4.9,2.8L137.6,11.9z"/>
<path class="st3" d="M144.4,23.8v-7.9l4.9-2.8v13.6L144.4,23.8z"/>
<path class="st4" d="M137.6,27.8v5.6l11.8-6.8l-4.9-2.8L137.6,27.8z"/>
<path class="st3" d="M130.7,23.8l-4.9,2.8l11.8,6.8v-5.6L130.7,23.8z"/>
<path class="st2" d="M125.8,13.1l4.9,2.8v7.9l-4.9,2.8V13.1z"/>
<path class="st5" d="M137.6,11.9l-6.9,4l-4.9-2.8l11.8-6.8V11.9z"/>
<path class="st6" d="M149.3,13.1l-5.2,2.6l-6.3-3.7l-0.2-5.8l-0.2,5.8l-6.3,3.7l-5.2-2.6l4.9,2.8v2.8c0.1-0.9,0.2-1.8,0.3-2.6
	l6.6-3.6l6.6,3.6c0.1,0.9,0.2,1.8,0.3,2.6v-2.8l0.1,0L149.3,13.1z"/>
<path class="st10" d="M137.6,4.8l0.7,0.4L150,12l0.7,0.4v15.1l-0.7,0.4l-11.7,6.8l-0.7,0.4l-0.7-0.4l-11.7-6.8l-0.7-0.4V12.3
	l0.7-0.4l11.7-6.8L137.6,4.8z M137.6,4c-0.1,0-0.3,0-0.4,0.1l-0.7,0.4l-11.7,6.8l-0.7,0.4c-0.1,0.1-0.2,0.2-0.3,0.3
	c-0.1,0.1-0.1,0.3-0.1,0.4v15.1c0,0.1,0,0.3,0.1,0.4c0.1,0.1,0.2,0.2,0.3,0.3l0.7,0.4l11.7,6.8l0.7,0.4c0.1,0.1,0.3,0.1,0.4,0.1
	c0.1,0,0.3,0,0.4-0.1l0.7-0.4l11.8-6.8l0.7-0.4c0.1-0.1,0.2-0.2,0.3-0.3s0.1-0.3,0.1-0.4V12.3c0-0.1,0-0.3-0.1-0.4s-0.2-0.2-0.3-0.3
	l-0.7-0.4l-11.7-6.8L138,4.1C137.9,4,137.7,4,137.6,4L137.6,4z"/>
<linearGradient id="SVGID_00000103250701976343814180000016243805761903918239_" gradientUnits="userSpaceOnUse" x1="137.5845" y1="74.3398" x2="137.5845" y2="104.4841" gradientTransform="matrix(1 0 0 -1 0 109.276)">
	<stop  offset="0" style="stop-color:#686868"/>
	<stop  offset="4.000000e-02" style="stop-color:#5D5D5D"/>
	<stop  offset="0.25" style="stop-color:#8B8B8B"/>
	<stop  offset="0.4" style="stop-color:#8D8D8D"/>
	<stop  offset="0.48" style="stop-color:#A0A0A0"/>
	<stop  offset="0.53" style="stop-color:#C0C0C0"/>
	<stop  offset="0.6" style="stop-color:#ABABAB"/>
	<stop  offset="0.67" style="stop-color:#BDBDBD"/>
	<stop  offset="0.75" style="stop-color:#C2C2C2"/>
	<stop  offset="0.81" style="stop-color:#D8D8D8"/>
	<stop  offset="1" style="stop-color:#FFFFFF"/>
</linearGradient>
<path style="fill:url(#SVGID_00000103250701976343814180000016243805761903918239_);" d="M150,12l-11.7-6.8l-0.7-0.4l-0.7,0.4
	L125.2,12l-0.7,0.4v15.1l0.7,0.4l11.7,6.8l0.7,0.4l0.7-0.4l11.7-6.8l0.7-0.4V12.3L150,12z M137.6,30.5l-1.7,2l-8.4-4.9l0.9-2.4
	l-2.5-0.5V15l2.5-0.5l-0.9-2.4l8.4-4.9l1.7,2l1.7-2l8.4,4.9l-0.9,2.4l2.5,0.5v9.7l-2.5,0.5l0.9,2.4l-8.4,4.9L137.6,30.5z"/>
<path class="st10" d="M149.3,15l-2.5-0.5l0.9-2.4l-8.4-4.9l-1.7,2l-1.7-2l-8.4,4.9l0.9,2.4l-2.5,0.5v9.7l2.5,0.5l-0.9,2.4l8.4,4.9
	l1.7-2l1.7,2l8.4-4.9l-0.9-2.4l2.5-0.5L149.3,15z M139.4,7.9l7.7,4.4l-0.7,2c0,0.1,0,0.1,0,0.2l-5.9,3.4l-2.6-1.5V9.7
	c0.1,0,0.1-0.1,0.1-0.1L139.4,7.9z M137.6,22.8l-2.6-1.5v-3l2.6-1.5l2.6,1.5v3L137.6,22.8z M135.8,7.9l1.4,1.6c0,0,0.1,0.1,0.1,0.1
	v6.8l-2.6,1.5l-5.9-3.4c0-0.1,0-0.1,0-0.2l-0.7-2L135.8,7.9z M126.4,15.4l2.1-0.4c0.1,0,0.1,0,0.2-0.1l5.9,3.4v3l-5.9,3.4
	c-0.1,0-0.1-0.1-0.2-0.1l-2.1-0.4V15.4z M135.8,31.8l-7.7-4.4l0.7-2c0-0.1,0-0.1,0-0.2l5.9-3.4l2.6,1.5v6.8c-0.1,0-0.1,0.1-0.1,0.1
	L135.8,31.8z M147,27.4l-7.7,4.4l-1.4-1.6c0,0-0.1-0.1-0.1-0.1v-6.8l2.6-1.5l5.9,3.4c0,0.1,0,0.1,0,0.2L147,27.4z M148.8,24.3
	l-2.1,0.4c-0.1,0-0.1,0-0.2,0.1l-5.9-3.4v-3l5.9-3.4c0.1,0,0.1,0.1,0.2,0.1l2.1,0.4V24.3z"/>
<path class="st12" d="M118.2,12.3c0-6.6-5.4-12-12-12h-94c-6.6,0-12,5.4-12,12v84.3c0,6.6,5.4,12,12,12h134c6.6,0,12-5.4,12-12V52.3
	c0-6.6-5.4-12-12-12h-16c-6.6,0-12-5.4-12-12V12.3z"/>
<defs>
	<filter id="Adobe_OpacityMaskFilter" filterUnits="userSpaceOnUse" x="-0.8" y="-0.7" width="160" height="110.3">
		<feColorMatrix  type="matrix" values="1 0 0 0 0  0 1 0 0 0  0 0 1 0 0  0 0 0 1 0"/>
	</filter>
</defs>
<mask maskUnits="userSpaceOnUse" x="-0.8" y="-0.7" width="160" height="110.3" id="path-27-inside-1_117_5670_00000011010391096554208690000003217088317996387744_">
	<path class="st13" d="M118.2,12.3c0-6.6-5.4-12-12-12h-94c-6.6,0-12,5.4-12,12v84.3c0,6.6,5.4,12,12,12h134c6.6,0,12-5.4,12-12
		V52.3c0-6.6-5.4-12-12-12h-16c-6.6,0-12-5.4-12-12V12.3z"/>
</mask>
<path class="st14" d="M12.2,1.3h94v-2h-94V1.3z M1.2,96.7V12.3h-2v84.3H1.2z M146.2,107.7h-134v2h134V107.7z M157.2,52.3v44.3h2
	V52.3H157.2z M146.2,39.3h-16v2h16V39.3z M119.2,28.3v-16h-2v16H119.2z M130.2,39.3c-6.1,0-11-4.9-11-11h-2c0,7.2,5.8,13,13,13V39.3
	z M159.2,52.3c0-7.2-5.8-13-13-13v2c6.1,0,11,4.9,11,11H159.2z M146.2,109.7c7.2,0,13-5.8,13-13h-2c0,6.1-4.9,11-11,11V109.7z
	 M-0.8,96.7c0,7.2,5.8,13,13,13v-2c-6.1,0-11-4.9-11-11H-0.8z M106.2,1.3c6.1,0,11,4.9,11,11h2c0-7.2-5.8-13-13-13V1.3z M12.2-0.7
	c-7.2,0-13,5.8-13,13h2c0-6.1,4.9-11,11-11V-0.7z"/>
<path class="st15" d="M51.5,73.8l55.5-1.5l-1.2,3.1c-0.1,0.2-0.3,0.8-0.3,0.9c-0.1,0.1-0.4,0-0.6,0l-2.3,0l-8.6,0l-39.5,0.1
	L51.5,73.8C51.7,74.2,51.3,73.4,51.5,73.8z"/>
<path class="st16" d="M51.5,73.8l55.5-1.5l-1.2,3.1c-0.1,0.2-0.3,0.8-0.3,0.9c-0.1,0.1-0.4,0-0.6,0l-2.3,0l-8.6,0l-39.5,0.1
	L51.5,73.8z M51.5,73.8C51.3,73.4,51.7,74.2,51.5,73.8z"/>
<path class="st17" d="M61.1,38.4l0-2.9l0.8,1.5c0,0,0,0.1,0,0.1l0,2.1l0,4l0,11.6l0,2.9c0,0.5,0,1,0,1.5l-0.8,0l0,0.1l-0.1,0.1
	c-0.1-0.5,0-1.1,0-1.7l0-3.2l0-11.4c0.1-0.6,0-1.3,0-1.9l0-3.8l0-0.8c0-0.2,0-0.3,0-0.5l0,1.5C61.1,37.9,61.1,38.2,61.1,38.4
	L61.1,38.4z"/>
<path class="st18" d="M61.1,43.2c0.1-0.6,0-1.3,0-1.9l0-3.8l0-0.8c0-0.2,0-0.3,0-0.5l0,1.5c0,0.2,0,0.4,0,0.6l0,0.1l0,20.9l0,0.1
	l-0.1,0.1c-0.1-0.5,0-1.1,0-1.7l0-3.2L61.1,43.2z"/>
<path class="st19" d="M98.6,35.7l0,23.3l-1.1,0c-0.1,0-0.1,0-0.1,0l0-16.4l0-3.9l0-1c0-0.1,0-0.3,0-0.4c0-0.1,0.3-0.3,0.3-0.4
	L98.6,35.7z"/>
<path class="st20" d="M79.9,35l18.7,0c-0.2,0.3-0.4,0.5-0.6,0.8L97.2,37l-14.6,0l-4.4,0L77,37c-0.2,0-0.5,0-0.7,0c0.4,0,0.8,0,1.2,0
	l2.4,0l0-0.6c0.3,0,0.7,0.1,0.9-0.1c0-0.1,0.1-0.1,0.1-0.2c0-0.2,0-0.3-0.1-0.4c-0.2-0.1-0.7,0-0.9,0L79.9,35z"/>
<path class="st17" d="M61.3,35l18.6,0l0,0l0,0.6c0.3,0,0.7-0.1,0.9,0c0.1,0.1,0.1,0.2,0.1,0.4c0,0.1,0,0.1-0.1,0.2
	c-0.2,0.1-0.7,0.1-0.9,0.1l0,0.6l-2.4,0c-0.4,0-0.8,0-1.2,0l-14.1,0L61.3,35L61.3,35z"/>
<path class="st18" d="M79.9,35.6c0.3,0,0.7-0.1,0.9,0c0.1,0.1,0.1,0.2,0.1,0.4c0,0.1,0,0.1-0.1,0.2c-0.2,0.1-0.7,0.1-0.9,0.1
	c-0.2,0-0.9,0.1-1.1-0.1c-0.1-0.1-0.1-0.1-0.1-0.2c0-0.2,0-0.3,0.1-0.4C79.1,35.5,79.6,35.6,79.9,35.6z"/>
<path class="st21" d="M79,35.9L79,35.9c0.2-0.1,1.6-0.1,1.7,0c0,0.1,0,0.1,0,0.2c-0.2,0-0.5,0-0.8,0c-0.3,0-0.7,0-1,0
	C78.9,36.1,79,36,79,35.9z"/>
<path class="st22" d="M85.1,33.8l9.9,0l2.7,0c0.4,0,0.8,0,1.2,0c0.2,0,0.3,0.1,0.4,0.3c0.1,0.1,0.2,0.3,0.3,0.4l0,17.6l0,5.5l0,1.5
	c0,0.2,0,0.5,0,0.7c0,0.1,0,0.2-0.1,0.3L99,60c-0.1,0-0.3,0-0.5,0c0,0.1,0,0.2,0,0.3c-0.1-0.3,0.1-0.8-0.1-1.1l-0.1,0l0.4-0.1
	l0-24.3l-2.5,0l-10.5,0l-4.1,0l-1.2,0c-0.2,0-0.5,0-0.7,0l-0.1,0l0-1L85.1,33.8L85.1,33.8z"/>
<path class="st19" d="M76.8,59l-14.5,0l0-21.7l17.7,0l0,1.1l-1.6,0l-10.2,0l-3.1,0c-0.6,0-1.1-0.1-1.7,0l0,19.2l12.2,0l0,0
	c0.9,0.1,1.9,0,2.8,0c0.3,0,0.7-0.1,0.9,0l0,1.4l-1.6,0C77.4,58.9,77.1,58.9,76.8,59z"/>
<path class="st23" d="M79.9,37.3l13.9,0l2.6,0c0.2,0,0.6,0,0.8,0l0,21.7l-14.5,0l-3.2,0l-1.9,0c-0.3,0-0.6,0-0.9,0
	c0.3,0,0.6,0,0.9,0l1.6,0l0-1.4c-0.2-0.1-0.7,0-0.9,0c-0.9,0-1.9,0-2.8,0l0,0c0.2,0,0.5,0,0.8,0l1.3,0l3.9,0l14.6,0l0-19.1l-17.7,0
	l0,0l1.6,0L79.9,37.3z"/>
<path class="st21" d="M60.5,34c0.1-0.1,0.3-0.2,0.5-0.2c0.3,0,0.7,0,1.1,0l2.3,0l8.3,0l12.5,0l0,0l-5.2,0l0,1l0.1,0l0.3,0
	c-0.1,0-0.2,0-0.4,0c-0.1,0-0.3,0-0.5,0l-1,0c-0.3,0-0.5,0-0.8,0.1l1.4,0c0.2,0,0.5,0,0.7,0l0.6,0v0c-0.1,0-0.3,0-0.5,0l-18.6,0
	c0,0-0.1,0-0.1,0c0,0,0-0.1-0.1-0.1l-0.1,0c-0.1,0.2,0,0.4,0,0.6l0,1.1l0,4.3l0,1.6c0,0.3,0,0.6,0,0.8l0,11.4l0,3.2
	c0,0.5-0.1,1.2,0,1.7c0,0.2,0.1,0.5,0.1,0.8c0,0-0.1,0.2-0.1,0.2L60.7,61c-0.6,0.9-1.3,1.9-1.8,2.9c-0.2,0.4-0.5,0.7-0.7,1.1
	l-2.6,4.1l-1.8,2.8l-0.6,0.9c-0.1,0.1-0.2,0.3-0.3,0.4c0,0.1,0,0.3,0.1,0.4l0,0.2c0.1,0,0.1,0.1,0.2,0.1l0,0.1c-0.1,0-0.1,0-0.2,0
	c-0.2,0-0.4,0-0.6,0l-0.9,0c-0.1,0.1-0.1,0.1-0.1,0.2l-0.2-0.2l8.9-14c-0.1-0.1-0.2-0.3-0.2-0.4c0-0.2,0-0.3,0-0.5l0-0.8l0-2.8
	l0-4.3c0-0.2,0-0.5,0-0.7l0-1.5l0-4.2c0-0.2,0-0.5,0-0.8l0-1.6l0-5c0-0.8,0-1.7,0-2.5C60,34.5,60.2,34.2,60.5,34z"/>
<path class="st18" d="M79.9,34.8L79.9,34.8l0.4,0C80.2,34.9,80,34.9,79.9,34.8c-0.1,0.1-0.3,0.1-0.5,0.1l-1,0c-0.3,0-0.5,0-0.8,0.1
	l1.4,0c0.2,0,0.5,0,0.7,0l0.6,0v0c-0.1,0-0.3,0-0.5,0l-18.6,0c0,0-0.1,0-0.1,0c0,0,0-0.1-0.1-0.1l4.5,0l9.6,0l3.2,0l0.9,0
	C79.6,34.9,79.7,34.9,79.9,34.8z"/>
<path class="st18" d="M60.5,34c0,0.1-0.2,0.2-0.2,0.3c-0.1,0.1-0.1,0.2-0.2,0.4l0,0c-0.1,0.5,0,1,0,1.4l0,3.7l0,11.1l0,6.5
	c0,0.6,0,1.2,0,1.8c0,0.1,0,0.2,0.1,0.3l0.2,0.2c0,0.1-0.1,0.2-0.2,0.4l-1.3,2.1l-3.5,5.6l-1.9,3.1c-0.6,1-1.2,2-1.9,2.9l1.6,0
	c0.1,0,0.1,0.1,0.2,0.1l0,0.1c-0.1,0-0.1,0-0.2,0c-0.2,0-0.4,0-0.6,0l-0.9,0c-0.1,0.1-0.1,0.1-0.1,0.2l-0.2-0.2l8.9-14
	c-0.1-0.1-0.2-0.3-0.2-0.4c0-0.2,0-0.3,0-0.5l0-0.8l0-2.8l0-4.3c0-0.2,0-0.5,0-0.7l0-1.5l0-4.2c0-0.2,0-0.5,0-0.8l0-1.6l0-5
	c0-0.8,0-1.7,0-2.5C60,34.5,60.2,34.2,60.5,34z"/>
<linearGradient id="SVGID_00000078012086570404355410000001381648277785933444_" gradientUnits="userSpaceOnUse" x1="97.0651" y1="54.7168" x2="62.255" y2="67.9565" gradientTransform="matrix(1 0 0 -1 0 109.276)">
	<stop  offset="0" style="stop-color:#000001"/>
	<stop  offset="1" style="stop-color:#03021A"/>
</linearGradient>
<path style="fill:url(#SVGID_00000078012086570404355410000001381648277785933444_);stroke:#000000;stroke-linejoin:round;" d="
	M75.5,57.5l-12.2,0l0-19.2c0.5-0.1,1.1,0,1.7,0l3.1,0l10.2,0l0,0l17.7,0l0,19.1l-14.6,0l-3.9,0l-1.3,0C76,57.5,75.8,57.5,75.5,57.5z
	"/>
<path class="st25" d="M89.6,51.9l-3.8-3.8l6.4,0L89.6,51.9z"/>
<path class="st26" d="M63.6,57.2c0,0,0-0.1,0-0.1l0-0.7c0,0,0-0.2,0-0.2c0-0.1,0.2-0.2,0.2-0.2l0.6-0.7l5.3-5.6l1.2,1.8
	c-0.8,0.5-1.5,1.1-2.2,1.7l-1.9,1.5l-2.6,2.1C64.1,56.8,63.8,57.1,63.6,57.2z"/>
<path class="st25" d="M64.9,38.6l4.7,0l0,10.6l-2-2L67,46.5c-0.1-0.1-0.2-0.2-0.3-0.3l2.7-7.4l0,0L64.9,38.6L64.9,38.6z"/>
<path class="st27" d="M95.3,39.3c0.1-0.2,0.3-0.3,0.5-0.4l0,8.9l-6.5,0c0.3-0.1,0.6,0,0.9,0l2.1,0c0.2-0.7,0.5-1.4,0.7-2.1l0.9-2.4
	l1.2-3.1C95.2,39.9,95.4,39.5,95.3,39.3z"/>
<path class="st28" d="M71.1,51.4l-1.2-1.8l0,0c0.2-0.2,0.4-0.4,0.7-0.7l1.9-1.8l4.9-4.8l1.9-1.8l1.3-1.3c0.1-0.1,0.2-0.3,0.3-0.4
	c0,0,0,0,0,0l0.2,0c-0.6,1.1-1.6,2-2.4,3l-4.6,5.9l-1.3,1.7L71.1,51.4z"/>
<path class="st25" d="M63.6,55.3l0-12l3,3.1c-0.3,0.7-0.5,1.4-0.7,2.1l-1.6,4.8L64,54.5C63.9,54.8,63.8,55.1,63.6,55.3z"/>
<path class="st29" d="M86,57.3l-0.4,0l0-9l3.8,3.8c-0.1,0.3-0.3,0.5-0.5,0.8l-1.3,1.9l-1.2,1.7C86.3,56.7,86,57,86,57.3z"/>
<path class="st29" d="M66.6,46.5l2.9,3l-6,6.3c0-0.2,0-0.4,0-0.5c0.2-0.2,0.3-0.6,0.4-0.9l0.3-1.1l1.6-4.8
	C66.1,47.9,66.3,47.1,66.6,46.5z"/>
<path class="st29" d="M84,49.3c0,0,0.1-0.1,0.1-0.1l0.6-0.5c0,0.1,0,0.2-0.1,0.3c-0.4,0.6-0.8,1.2-1.2,1.8l-2.6,4
	c-0.5,0.8-1.1,1.6-1.5,2.5l-4.1,0l0.8-0.7l0-0.1l-0.3,0.3c-0.1,0.1-0.2,0.3-0.4,0.3c-0.1,0-0.1,0.1-0.2,0.1c-0.1,0-0.1,0-0.2-0.1
	l0.7-0.7l0,0l-0.1,0l4.8-4.3c0,0.1-0.2,0.2-0.3,0.3c0,0,0,0.1,0.1,0.1l0,0l0.6-0.6l0.1-0.1c0.1-0.1,0.1-0.1,0.2-0.2l0,0
	c0.1,0,0,0,0.1,0l0.1-0.1l0.1-0.1c0.3-0.3,0.7-0.6,1-0.9l0.1-0.1c0.1-0.1,0,0,0.1-0.1c0.4-0.4,0.8-0.7,1.2-1.1
	C83.9,49.3,84,49.3,84,49.3z"/>
<path class="st18" d="M80.5,52c0,0.1-0.2,0.2-0.3,0.3c0,0,0,0.1,0.1,0.1l0,0l0.6-0.6l0.1-0.1c0.1-0.1,0.1-0.1,0.2-0.2l0,0
	c0.1,0,0,0,0.1,0l0.1-0.1l0.1-0.1c0.3-0.3,0.7-0.6,1-0.9l0.1-0.1c0.1-0.1,0,0,0.1-0.1c0.4-0.4,0.8-0.7,1.2-1.1c0,0,0.1,0,0.1,0
	l-8,7.2l0-0.1l-0.3,0.3c-0.1,0.1-0.2,0.3-0.4,0.3c-0.1,0-0.1,0.1-0.2,0.1c-0.1,0-0.1,0-0.2-0.1l0.7-0.7l0,0l-0.1,0L80.5,52z"/>
<path class="st27" d="M89.4,52l3.6,3.5l1.2,1.2c0.2,0.2,0.4,0.4,0.5,0.6l-8.7,0c0.1-0.3,0.3-0.5,0.4-0.8l1.2-1.7l1.3-1.9
	C89.1,52.6,89.3,52.3,89.4,52z"/>
<path class="st20" d="M95.3,39.3c0,0.3-0.1,0.6-0.2,0.9l-1.2,3.1L93,45.6c-0.3,0.7-0.5,1.4-0.7,2.1l-2.1,0c-0.3,0-0.6,0-0.9,0
	l-3.5,0L95.3,39.3z"/>
<path class="st27" d="M84.8,48.7c0.2-0.2,0.3-0.3,0.5-0.5l0,9.1l-4,0l-1.2,0c-0.2,0-0.5,0-0.7,0c0.4-0.9,1-1.6,1.5-2.5l2.6-4
	c0.4-0.6,0.8-1.2,1.2-1.8C84.7,48.9,84.7,48.8,84.8,48.7z"/>
<path class="st26" d="M66.7,46.1l-3.1-3.2l0-4.3l1.3,0l0,0l4.4,0l0,0L66.7,46.1z"/>
<path class="st30" d="M70.9,51.5l3.8,5.7l-8.2,0l-1.9,0c-0.3,0-0.7,0-0.9,0c0.2,0,0.5-0.4,0.7-0.5l2.6-2.1l1.9-1.5
	C69.4,52.5,70.1,51.9,70.9,51.5z"/>
<path class="st30" d="M92.2,48.1l3.6,0l0,9.2l-0.7,0l-5.5-5.4L92.2,48.1z"/>
<path class="st29" d="M69.9,38.6l10.7,0l-5.3,5.3l-5.4,5.3L69.9,38.6z"/>
<path class="st31" d="M81.1,38.6l0.7,0L75,57l-0.1,0.1c-0.1-0.1-0.2-0.3-0.3-0.4l-0.6-0.9l-3-4.4l1.7-2.1l1.3-1.7l4.6-5.9
	C79.5,40.6,80.5,39.7,81.1,38.6z"/>
<path class="st32" d="M81.8,38.6l13.8,0L82.9,49.9c-0.2,0.2-2.4,2-2.4,2.1l-4.8,4.3c-0.2,0.2-0.5,0.5-0.7,0.6L81.8,38.6z"/>
<path class="st18" d="M98.5,60.2c0-0.1,0-0.2,0-0.3c0.1,0,0.3,0,0.5,0l0.7,0c0.1,0.4,0.4,0.8,0.7,1.2l3.3,5.3l3.3,5.4l1.3,2
	l-3.2,2.7l-0.1,0l-9.3,0l-8.3,0l-12.2,0l-13.1,0l-7.6,0c0.1-0.1,0.2-0.1,0.3-0.1l1.5,0l3.9,0l12.6,0l31.9,0l0-1.1l-50,0l-1-0.8
	c-0.1-0.1-0.3-0.2-0.3-0.4c0.2,0.1,0.4,0.2,0.5,0.4l0.9,0.7l38.8,0l8.2,0l2.2,0c0.2,0,0.4,0,0.6,0c0.1,0,0.3-0.2,0.3-0.2l1.1-0.9
	l0.2-0.2c0.2-0.1,0.4-0.1,0.6-0.1l1.1,0c-0.3-0.4-0.5-0.8-0.8-1.2l-1.2-1.9l-1.1-1.8l-1.6-2.7L99.6,60c-0.2,0-0.3,0-0.5,0
	c-0.2,0-0.4,0-0.5,0c-0.1,0.2,0.3,0.8,0.4,1l1.6,2.6l4.5,7.3l0.9,1.5c0.1,0.2,0.2,0.3,0.3,0.6l0,0l-0.4-0.7l-1.2-1.9l-3.3-5.3
	l-2.3-3.7l-0.4-0.6c0-0.1-0.1-0.2-0.1-0.3c0,0-0.1,0-0.1,0L98.5,60.2z"/>
<path class="st22" d="M106.8,74l1,0l-2.3,2l-0.6,0.5l0-0.9c0-0.1,0-0.2,0-0.3c0.1-0.1,0.2-0.1,0.3-0.2l0.6-0.4
	c0.2-0.2,0.4-0.4,0.7-0.5C106.5,74,106.7,74,106.8,74z"/>
<path class="st23" d="M106.2,73.2L106.2,73.2c0-0.2-0.1-0.4-0.2-0.6l-0.9-1.5l-4.5-7.3L99,61.2c-0.1-0.2-0.5-0.8-0.4-1
	c0.2,0,0.4,0,0.5,0c0.2,0,0.3,0,0.5,0l3.7,6.1l1.6,2.7l1.1,1.8l1.2,1.9c0.3,0.4,0.5,0.8,0.8,1.2l-1.1,0c-0.2,0-0.4,0-0.6,0.1
	l-0.2,0.2l-52.7,0L53.3,74l0-0.1c0-0.1-0.1-0.1-0.2-0.1l0-0.2c0-0.1-0.1-0.3-0.1-0.4c0-0.1,0.2-0.3,0.3-0.4l0.6-0.9l1.8-2.8l2.6-4.1
	c0.2-0.4,0.4-0.8,0.7-1.1L59,64l-3.7,6L54,72.1c-0.3,0.4-0.5,0.8-0.8,1.2l26.5,0l0-0.9l-1.3,0l-0.1,0c0.2,0,0.5,0,0.7,0l1.6,0l4.6,0
	c0.8,0,1.6,0,2.3,0c0.1,0,0.1,0,0.2-0.1c0-0.3-0.2-0.5-0.3-0.8l2.4,0.2l5.2,0.4l5.7,0.5l3.5,0.3C104.9,73,105.6,73.2,106.2,73.2z"/>
<path class="st19" d="M87.4,71.5l2.4,0.2l5.2,0.4l5.7,0.5l3.5,0.3c0.7,0.1,1.3,0.2,2,0.2l0.1,0.1c-0.2,0.1-0.4,0-0.6,0l-1.3,0
	l-7.3,0l-10.1,0l-7.4,0l0-0.9l-1.3,0l-0.1,0c0.2,0,0.5,0,0.7,0l1.6,0l4.6,0c0.8,0,1.6,0,2.3,0c0.1,0,0.1,0,0.2-0.1
	C87.7,72.1,87.5,71.8,87.4,71.5z"/>
<path class="st21" d="M98.5,60.6C98.5,60.6,98.6,60.6,98.5,60.6c0.1,0.1,0.2,0.2,0.2,0.3l0.4,0.6l2.3,3.7l3.3,5.3l1.2,1.9l0.4,0.7
	c-0.7,0-1.3-0.1-2-0.2l-3.5-0.3l-5.7-0.5l-5.2-0.4l-2.4-0.2c0,0-0.3-0.7-0.3-0.8c-0.3-0.7-0.5-1.4-0.8-2.1l-5.4,0l2.8,0l0,0
	l-4.2-0.3l0-0.6l-0.8,0c0.7-0.1,1.5,0,2.2,0l4.2,0l10.7,0l5,0c-0.2-0.3-0.4-0.6-0.7-1l-1.5-2.1l-1.5-2.1c-0.3-0.4-0.5-0.8-0.8-1.1
	c-0.1-0.3-0.2-0.6-0.2-0.8L98.5,60.6z"/>
<linearGradient id="SVGID_00000155127018284530757540000016147217609020735137_" gradientUnits="userSpaceOnUse" x1="82.6407" y1="53.742" x2="73.2877" y2="28.6129" gradientTransform="matrix(1 0 0 -1 0 109.276)">
	<stop  offset="0" style="stop-color:#5E4698"/>
	<stop  offset="1" style="stop-color:#8373AE"/>
</linearGradient>
<path style="fill:url(#SVGID_00000155127018284530757540000016147217609020735137_);stroke:#000000;stroke-linejoin:round;" d="
	M98.4,59.2L98.4,59.2c0.2,0.4,0,0.8,0.1,1.1l0,0.2l-2.1,0c0.1,0.3,0.1,0.6,0.2,0.8c0.3,0.3,0.5,0.7,0.8,1.1l1.5,2.1l1.5,2.1
	c0.2,0.3,0.5,0.6,0.7,1l-5,0l-10.7,0l-4.2,0c-0.7,0-1.5-0.1-2.2,0l0.8,0l0,0.6l4.2,0.3l0,0l-2.8,0l5.4,0c0.3,0.7,0.5,1.4,0.8,2.1
	c0,0.1,0.3,0.8,0.3,0.8c0.1,0.2,0.2,0.5,0.3,0.8c-0.1,0.1-0.1,0.1-0.2,0.1c-0.8,0.1-1.6,0-2.3,0l-4.6,0l-1.6,0c-0.2,0-0.5,0-0.7,0
	l0.1,0l1.3,0l0,0.9l-26.5,0c0.3-0.4,0.6-0.8,0.8-1.2l1.3-2.1l3.7-6l-0.1-0.1c0.5-1,1.2-1.9,1.8-2.9l0.3-0.6c0,0,0.1-0.1,0.1-0.2
	c0-0.2,0-0.5-0.1-0.8l0.1-0.1l0-0.1l0.8,0l17.3,0L98.4,59.2z"/>
<linearGradient id="SVGID_00000152963046211086858620000012600451200034877332_" gradientUnits="userSpaceOnUse" x1="69.0491" y1="49.9582" x2="69.07" y2="48.6277" gradientTransform="matrix(1 0 0 -1 0 109.276)">
	<stop  offset="0" style="stop-color:#000101"/>
	<stop  offset="1" style="stop-color:#020016"/>
</linearGradient>
<path style="fill:url(#SVGID_00000152963046211086858620000012600451200034877332_);stroke:#000000;stroke-linejoin:round;" d="
	M61.2,59.4l0.1,0.3l0,0.6l18,0.1l0,0.2l-1.2,0c-0.2,0-0.4,0-0.6,0l-16.3,0L59,64l-0.1-0.1c0.5-1,1.2-1.9,1.8-2.9l0.3-0.6
	c0,0,0.1-0.1,0.1-0.2c0-0.2,0-0.5-0.1-0.8L61.2,59.4z"/>
<path class="st21" d="M62,59.3l17.3,0l0,0.4l0,0c0,0.2,0.1,0.5,0,0.7l-18-0.1l0-0.6l-0.1-0.3l0-0.1L62,59.3z"/>
<path class="st19" d="M62,59.3l17.3,0l0,0.4l0,0l-18,0l-0.1-0.3l0-0.1L62,59.3z"/>
<path class="st23" d="M98.4,59.2L98.4,59.2c0.2,0.4,0,0.8,0.1,1.1l0,0.2l-2.1,0l-19,0c0.2,0,0.4,0,0.6,0l1.2,0l0-0.2
	c0.1-0.2,0-0.5,0-0.7l0,0l0-0.4L98.4,59.2z"/>
<path class="st21" d="M98.4,59.2L98.4,59.2l0.1,0.4l-19.1,0l0-0.4L98.4,59.2z"/>
<path class="st18" d="M78.2,72.4l-6.5,0l1.6-3.8l7.7,0l5.4,0c0.3,0.7,0.5,1.4,0.8,2.1c0,0.1,0.3,0.8,0.3,0.8
	c0.1,0.2,0.2,0.5,0.3,0.8c-0.1,0.1-0.1,0.1-0.2,0.1c-0.8,0.1-1.6,0-2.3,0l-4.6,0l-1.6,0C78.7,72.4,78.4,72.4,78.2,72.4z"/>
<linearGradient id="SVGID_00000143578490587537095180000004836836782610097589_" gradientUnits="userSpaceOnUse" x1="87.4755" y1="37.8778" x2="72.2764" y2="39.4482" gradientTransform="matrix(1 0 0 -1 0 109.276)">
	<stop  offset="0" style="stop-color:#1E6E99"/>
	<stop  offset="1" style="stop-color:#C5DFF2"/>
</linearGradient>
<path style="fill:url(#SVGID_00000143578490587537095180000004836836782610097589_);stroke:#000000;stroke-linejoin:round;" d="
	M76.1,72.2l-4,0c0-0.1,0.2-0.5,0.2-0.6l1.1-2.8l4,0l8.8,0l1.3,3.3L76.1,72.2z"/>
<path class="st18" d="M58.3,67.7c0-0.2,3.7-5.7,4.1-6.3l34.2,0c0.3,0.3,0.5,0.7,0.8,1.1l1.5,2.1l1.5,2.1c0.2,0.3,0.5,0.6,0.7,1l-5,0
	l-10.7,0l-4.2,0c-0.7,0-1.5-0.1-2.2,0l-5.6,0l-1.5,0l-2.9,0l-7.7,0l-1.9,0C58.9,67.8,58.5,67.8,58.3,67.7z"/>
<path class="st27" d="M100.3,67l0.4,0.5l-2.8,0L97.6,67L100.3,67z"/>
<path class="st27" d="M79.7,66.1l0,1.3l-3.1,0c0-0.1,0-0.3,0-0.5l3.1,0L79.7,66.1L79.7,66.1z"/>
<path class="st27" d="M62.1,67l-0.3,0.5l-2.9,0l0.3-0.5L62.1,67z"/>
<path class="st26" d="M94.7,62.4l-0.4-0.6l2.3,0c0.1,0,0.3,0.5,0.4,0.6c-0.2,0.1-0.5,0-0.7,0L94.7,62.4z"/>
<path class="st27" d="M83.1,67l0,0.4l-3.1,0c0-0.3-0.1-1.8,0-2l0,0.7l0,0.8l2.1,0C82.4,67,82.8,66.9,83.1,67z"/>
<path class="st27" d="M97.2,67l0.3,0.5l-3.1,0L94.1,67L97.2,67z"/>
<path class="st27" d="M86.7,66.9l0.1,0.5l-3.3,0l0-0.5c0.2,0,0.4,0,0.6,0l1.8,0C86.1,67,86.4,67,86.7,66.9z"/>
<path class="st26" d="M80,62.4l0-0.6l2.5,0l0.1,0.6L80,62.4z"/>
<path class="st27" d="M62.5,67l3.1,0c-0.1,0.2-0.1,0.3-0.2,0.5l-3.1,0l0,0L62.5,67z"/>
<path class="st26" d="M71.3,62.4l0.2-0.6l2.5,0l-0.2,0.6L71.3,62.4z"/>
<path class="st27" d="M93.7,67l0.2,0.5l-3.2,0L90.6,67L93.7,67z"/>
<path class="st27" d="M87,67l3.2,0l0.2,0.5l-3.3,0L87,67z"/>
<path class="st27" d="M69.6,66.9c0.2,0.1,2.8,0.1,3.1,0.1l-0.1,0.5l-3.2,0L69.6,66.9z"/>
<path class="st26" d="M68.2,62.4l0.4-0.6l2.5,0l-0.2,0.6L68.2,62.4z"/>
<path class="st27" d="M69.2,67L69,67.4l-3.2,0l0.3-0.5c0.4,0,0.8,0,1.2,0L69.2,67z"/>
<path class="st26" d="M91.8,62.4l-0.3-0.6H94c0.1,0,0.3,0.5,0.4,0.6c-0.2,0.1-0.5,0-0.7,0L91.8,62.4z"/>
<path class="st27" d="M76.3,67l0,0.5l-3.3,0l0.1-0.5l0,0.1L76.3,67z"/>
<path class="st26" d="M62.2,62.4l0.4-0.6l2.6,0l-0.4,0.6L62.2,62.4z"/>
<path class="st26" d="M88.8,62.4l-0.3-0.6l2.6,0l0.3,0.6L88.8,62.4z"/>
<path class="st26" d="M85.8,62.4l-0.2-0.6l2.5,0l0.2,0.6L85.8,62.4z"/>
<path class="st26" d="M82.8,62.4l-0.1-0.6l2.6,0l0.2,0.6L82.8,62.4z"/>
<path class="st26" d="M74.1,62.4l0.2-0.6l2.6,0l-0.1,0.6L74.1,62.4z"/>
<path class="st26" d="M65.3,62.4c0.1-0.2,0.2-0.4,0.4-0.6l2.6,0l-0.3,0.6L65.3,62.4z"/>
<path class="st30" d="M97.1,62.4l0.6,0.8l-2.5,0l-0.5-0.8l1.7,0C96.6,62.4,97,62.4,97.1,62.4z"/>
<path class="st22" d="M58.3,67.7c0.1,0,0.1,0,0.2,0l5.4,0c-0.2,0-0.4,0-0.5,0l-1.2,0c-0.1,0-0.3,0-0.5,0l0,0c-0.1,0-0.2,0-0.4,0
	l-0.7,0c-0.2,0-0.4,0-0.5,0c-0.1,0-0.2,0-0.4,0c-0.1,0-0.3,0-0.4,0c0,0-0.1,0-0.1,0c-0.1,0-0.3,0-0.5,0c-0.1,0-0.1,0-0.1,0l0,0l0,0
	c0.1,0,0,0,0.1,0l0.1,0c0.2,0,0.4,0,0.6,0l1.3,0l6.4,0l1.4,0c0.1,0,0.3,0,0.4,0l0,0.1l-0.2,0c0.1,0.1,0.3,0,0.5,0l0,0
	c0,0-0.1,0-0.1,0l0,0l0.1,0c0.1,0,0.3,0,0.4,0l1.6,0.1c0.6,0,1.2,0,1.8,0l-1.5,0l-2.9,0l-7.7,0l-1.9,0
	C58.9,67.8,58.5,67.8,58.3,67.7z"/>
<path class="st26" d="M95.9,64.3l-0.4-0.8l2.4,0l0.5,0.8L95.9,64.3z"/>
<path class="st26" d="M61,64.2l0.5-0.7l2.7,0l-0.5,0.7L61,64.2z"/>
<path class="st26" d="M97.1,66.2l-0.5-0.7l2.6,0l0.5,0.7L97.1,66.2z"/>
<path class="st26" d="M63,66.1l0.4-0.7l2.9,0L66,66.2L63,66.1z"/>
<path class="st26" d="M59.8,66.1l0.5-0.7l2.8,0l-0.4,0.7l-2,0C60.4,66.2,60,66.2,59.8,66.1z"/>
<path class="st26" d="M70.6,64.2l0.3-0.7l2.7,0l-0.2,0.7l-1.8,0C71.3,64.2,70.8,64.3,70.6,64.2z"/>
<path class="st26" d="M64.1,64.2l0.5-0.7l2.7,0c-0.1,0.2-0.2,0.5-0.4,0.7L64.1,64.2z"/>
<path class="st30" d="M97.1,66.2l2.6,0l0.5,0.7l-2.7,0L97.1,66.2z"/>
<path class="st30" d="M94.4,62.4l0.5,0.8l-2.7,0l-0.4-0.8l1.9,0C93.9,62.4,94.2,62.4,94.4,62.4z"/>
<path class="st30" d="M80,62.4l2.5,0l0.1,0.8l-2.6,0L80,62.4z"/>
<path class="st26" d="M80,65.5l2.9,0l0.1,0.7l-3,0L80,65.5z"/>
<path class="st30" d="M73.8,62.4l-0.2,0.8c-0.2,0.1-0.5,0-0.8,0l-1.9,0l0.3-0.8L73.8,62.4z"/>
<path class="st26" d="M76.7,66l0.1-0.6l2.9,0l0,0.7l0,0c-0.4,0.1-0.8,0-1.2,0c-0.6,0-1.2,0-1.7,0L76.7,66z"/>
<path class="st26" d="M67.3,64.2l0.4-0.7l2.8,0l-0.3,0.7L67.3,64.2z"/>
<path class="st26" d="M80,64.3l0-0.8l2.7,0l0.1,0.8L80,64.3z"/>
<path class="st26" d="M69.9,66.1l0.2-0.7l2.9,0l-0.2,0.7l-2,0C70.6,66.2,70.2,66.2,69.9,66.1z"/>
<path class="st30" d="M65.3,62.4l2.6,0l-0.4,0.8l-2.7,0L65.3,62.4z"/>
<path class="st26" d="M76.9,64.2l0.1-0.7l2.7,0l0,0.8l-1.7,0C77.6,64.3,77.2,64.3,76.9,64.2z"/>
<path class="st26" d="M66.4,66.1l0.3-0.7l2,0c0.3,0,0.7,0,1,0l-0.3,0.7L66.4,66.1z"/>
<path class="st30" d="M62.2,62.4l2.6,0l-0.4,0.8h-2.7L62.2,62.4z"/>
<path class="st26" d="M73.7,64.2l0.2-0.7c0.2-0.1,0.6,0,0.8,0l2,0l-0.1,0.7C76.2,64.2,73.9,64.3,73.7,64.2z"/>
<path class="st30" d="M74.1,62.4l2.6,0l-0.1,0.8l-2.7,0L74.1,62.4z"/>
<path class="st30" d="M91.5,62.4l0.4,0.8l-2.8,0l-0.3-0.8L91.5,62.4z"/>
<path class="st30" d="M88.4,62.4l0.4,0.8l-2.8,0l-0.2-0.8L88.4,62.4z"/>
<path class="st26" d="M92.8,64.3l-0.4-0.8l2.7,0l0.5,0.8L92.8,64.3z"/>
<path class="st26" d="M93.7,66.2l-0.4-0.7l2.9,0l0.4,0.7c-0.3,0.1-0.7,0-0.9,0L93.7,66.2z"/>
<path class="st26" d="M73.2,66.1l0.2-0.7l3.1,0l-0.1,0.7l-2.1,0C73.9,66.2,73.5,66.2,73.2,66.1z"/>
<path class="st26" d="M89.5,64.3l-0.3-0.8l2.8,0l0.3,0.7c-0.3,0.1-0.7,0-1,0L89.5,64.3z"/>
<path class="st30" d="M82.8,62.4l2.7,0l0.2,0.8l-2.8,0L82.8,62.4z"/>
<path class="st26" d="M86.3,64.3l-0.2-0.8l2.8,0l0.3,0.8L86.3,64.3z"/>
<path class="st26" d="M83.1,64.3L83,63.5l2.8,0l0.2,0.7c-0.3,0.1-0.6,0-0.9,0L83.1,64.3z"/>
<path class="st30" d="M68.2,62.4l2.7,0l-0.3,0.8l-2.8,0L68.2,62.4z"/>
<path class="st26" d="M86.8,66.2l-0.2-0.7l3,0l0.3,0.7c-0.3,0.1-0.7,0-1,0L86.8,66.2z"/>
<path class="st26" d="M90.3,66.2L90,65.5l3,0l0.4,0.7L90.3,66.2z"/>
<path class="st26" d="M83.3,66.2c0-0.1-0.1-0.6-0.1-0.7l3,0l0.2,0.7L83.3,66.2z"/>
<path class="st30" d="M59.8,66.1c0.2,0.1,0.6,0,0.8,0l2,0L62.1,67l-2.9,0L59.8,66.1z"/>
<path class="st30" d="M98.4,64.3l0.6,0.9l-2.6,0c-0.2-0.2-0.4-0.6-0.6-0.9L98.4,64.3z"/>
<path class="st30" d="M96.7,66.2l0.5,0.8l-3.1,0l-0.4-0.8l2,0C96,66.2,96.4,66.3,96.7,66.2z"/>
<path class="st30" d="M93.3,66.2l0.4,0.8l-3.2,0l-0.3-0.8L93.3,66.2z"/>
<path class="st30" d="M61,64.2l2.7,0l-0.5,0.9l-2.7,0L61,64.2z"/>
<path class="st30" d="M69.9,66.1c0.3,0.1,0.7,0,1,0l2,0L72.7,67c-0.4,0-3,0-3.1-0.1L69.9,66.1z"/>
<path class="st30" d="M89.9,66.2l0.3,0.8L87,67l-0.2-0.8l2.1,0C89.2,66.2,89.6,66.2,89.9,66.2z"/>
<path class="st30" d="M86.5,66.2l0.2,0.7c-0.2,0.1-0.6,0-0.8,0L84,67c-0.2,0-0.4,0-0.6,0l-0.1-0.8L86.5,66.2z"/>
<path class="st30" d="M80,66.2l3,0l0.1,0.8c-0.3,0-0.7,0-1,0L80,67L80,66.2z"/>
<path class="st30" d="M76.6,67l0.1-0.9l0,0.1c0.6,0.1,1.2,0,1.7,0c0.4,0,0.8,0,1.2,0l0,0.8L76.6,67z"/>
<path class="st30" d="M63,66.1l3,0L65.6,67l-3.1,0L63,66.1z"/>
<path class="st30" d="M66.4,66.1l3.1,0L69.2,67l-2,0c-0.4,0-0.8,0-1.2,0L66.4,66.1z"/>
<path class="st30" d="M80,64.3l2.8,0l0.1,0.9l-2.9,0L80,64.3z"/>
<path class="st30" d="M95.5,64.3l0.6,0.9l-1.9,0c-0.3,0-0.6,0-0.9,0l-0.4-0.9L95.5,64.3z"/>
<path class="st30" d="M64.1,64.2l2.8,0l-0.4,0.9l-2.9,0L64.1,64.2z"/>
<path class="st30" d="M79.7,64.3l0,0.9l-2.9,0l0.1-0.9c0.3,0.1,0.8,0,1.1,0L79.7,64.3z"/>
<path class="st30" d="M73.2,66.1c0.3,0.1,0.7,0,1,0l2.1,0L76.3,67l-3.2,0l0-0.1L73.2,66.1z"/>
<path class="st30" d="M92.4,64.2l0.5,0.9l-3,0l-0.3-0.9l1.9,0C91.7,64.3,92.1,64.3,92.4,64.2z"/>
<path class="st30" d="M70.6,64.2c0.2,0.1,0.7,0,0.9,0l1.8,0l-0.2,0.9l-2.9,0L70.6,64.2z"/>
<path class="st30" d="M89.2,64.3c0,0.1,0.3,0.8,0.3,0.9l-3,0l-0.2-0.9L89.2,64.3z"/>
<path class="st30" d="M86,64.2l0.2,0.9l-3,0l-0.1-0.9l2,0C85.3,64.3,85.7,64.3,86,64.2z"/>
<path class="st30" d="M73.7,64.2c0.2,0.1,2.5,0,2.9,0l-0.1,0.9l-3,0L73.7,64.2z"/>
<path class="st30" d="M70.2,64.2l-0.3,0.9c-0.3,0-0.6,0-0.9,0l-2.1,0l0.5-0.9L70.2,64.2z"/>
<path class="st30" d="M77,62.3l0-0.5c0.4,0,2.4-0.1,2.6,0c0.1,0.4,0,0.9,0,1.4l-2.7,0L77,62.3z"/>
<path class="st26" d="M77,62.3l0-0.5c0.4,0,2.4-0.1,2.6,0l0,0.6C79.3,62.4,77.1,62.4,77,62.3L77,62.3z"/>
<path class="st15" d="M51.5,73.8l55.5-1.5l-1.2,3.1c-0.1,0.2-0.3,0.8-0.3,0.9c-0.1,0.1-0.4,0-0.6,0l-2.3,0l-8.6,0l-39.5,0.1
	L51.5,73.8C51.7,74.2,51.3,73.4,51.5,73.8z"/>
<path class="st36" d="M61.1,38.4l0-2.9l0.8,1.5c0,0,0,0.1,0,0.1l0,2.1l0,4l0,11.6l0,2.9c0,0.5,0,1,0,1.5l-0.8,0l0,0.1l-0.1,0.1
	c-0.1-0.5,0-1.1,0-1.7l0-3.2l0-11.4c0.1-0.6,0-1.3,0-1.9l0-3.8l0-0.8c0-0.2,0-0.3,0-0.5l0,1.5C61.1,37.9,61.1,38.2,61.1,38.4
	L61.1,38.4z"/>
<path class="st37" d="M61.1,43.2c0.1-0.6,0-1.3,0-1.9l0-3.8l0-0.8c0-0.2,0-0.3,0-0.5l0,1.5c0,0.2,0,0.4,0,0.6l0,0.1l0,20.9l0,0.1
	l-0.1,0.1c-0.1-0.5,0-1.1,0-1.7l0-3.2L61.1,43.2z"/>
<path class="st15" d="M98.6,35.7l0,23.3l-1.1,0c-0.1,0-0.1,0-0.1,0l0-16.4l0-3.9l0-1c0-0.1,0-0.3,0-0.4c0-0.1,0.3-0.3,0.3-0.4
	L98.6,35.7z"/>
<path class="st38" d="M79.9,35l18.7,0c-0.2,0.3-0.4,0.5-0.6,0.8L97.2,37l-14.6,0l-4.4,0L77,37c-0.2,0-0.5,0-0.7,0c0.4,0,0.8,0,1.2,0
	l2.4,0l0-0.6c0.3,0,0.7,0.1,0.9-0.1c0-0.1,0.1-0.1,0.1-0.2c0-0.2,0-0.3-0.1-0.4c-0.2-0.1-0.7,0-0.9,0L79.9,35z"/>
<path class="st36" d="M61.3,35l18.6,0l0,0l0,0.6c0.3,0,0.7-0.1,0.9,0c0.1,0.1,0.1,0.2,0.1,0.4c0,0.1,0,0.1-0.1,0.2
	c-0.2,0.1-0.7,0.1-0.9,0.1l0,0.6l-2.4,0c-0.4,0-0.8,0-1.2,0l-14.1,0L61.3,35L61.3,35z"/>
<path class="st37" d="M79.9,35.6c0.3,0,0.7-0.1,0.9,0c0.1,0.1,0.1,0.2,0.1,0.4c0,0.1,0,0.1-0.1,0.2c-0.2,0.1-0.7,0.1-0.9,0.1
	c-0.2,0-0.9,0.1-1.1-0.1c-0.1-0.1-0.1-0.1-0.1-0.2c0-0.2,0-0.3,0.1-0.4C79.1,35.5,79.6,35.6,79.9,35.6z"/>
<path class="st39" d="M79,35.9L79,35.9c0.2-0.1,1.6-0.1,1.7,0c0,0.1,0,0.1,0,0.2c-0.2,0-0.5,0-0.8,0c-0.3,0-0.7,0-1,0
	C78.9,36.1,79,36,79,35.9z"/>
<path class="st40" d="M85.1,33.8l9.9,0l2.7,0c0.4,0,0.8,0,1.2,0c0.2,0,0.3,0.1,0.4,0.3c0.1,0.1,0.2,0.3,0.3,0.4l0,17.6l0,5.5l0,1.5
	c0,0.2,0,0.5,0,0.7c0,0.1,0,0.2-0.1,0.3L99,60c-0.1,0-0.3,0-0.5,0c0,0.1,0,0.2,0,0.3c-0.1-0.3,0.1-0.8-0.1-1.1l-0.1,0l0.4-0.1
	l0-24.3l-2.5,0l-10.5,0l-4.1,0l-1.2,0c-0.2,0-0.5,0-0.7,0l-0.1,0l0-1L85.1,33.8L85.1,33.8z"/>
<path class="st15" d="M76.8,59l-14.5,0l0-21.7l17.7,0l0,1.1l-1.6,0l-10.2,0l-3.1,0c-0.6,0-1.1-0.1-1.7,0l0,19.2l12.2,0l0,0
	c0.9,0.1,1.9,0,2.8,0c0.3,0,0.7-0.1,0.9,0l0,1.4l-1.6,0C77.4,58.9,77.1,58.9,76.8,59z"/>
<path class="st41" d="M79.9,37.3l13.9,0l2.6,0c0.2,0,0.6,0,0.8,0l0,21.7l-14.5,0l-3.2,0l-1.9,0c-0.3,0-0.6,0-0.9,0
	c0.3,0,0.6,0,0.9,0l1.6,0l0-1.4c-0.2-0.1-0.7,0-0.9,0c-0.9,0-1.9,0-2.8,0l0,0c0.2,0,0.5,0,0.8,0l1.3,0l3.9,0l14.6,0l0-19.1l-17.7,0
	l0,0l1.6,0L79.9,37.3z"/>
<path class="st39" d="M60.5,34c0.1-0.1,0.3-0.2,0.5-0.2c0.3,0,0.7,0,1.1,0l2.3,0l8.3,0l12.5,0l0,0l-5.2,0l0,1l0.1,0l0.3,0
	c-0.1,0-0.2,0-0.4,0c-0.1,0-0.3,0-0.5,0l-1,0c-0.3,0-0.5,0-0.8,0.1l1.4,0c0.2,0,0.5,0,0.7,0l0.6,0v0c-0.1,0-0.3,0-0.5,0l-18.6,0
	c0,0-0.1,0-0.1,0c0,0,0-0.1-0.1-0.1l-0.1,0c-0.1,0.2,0,0.4,0,0.6l0,1.1l0,4.3l0,1.6c0,0.3,0,0.6,0,0.8l0,11.4l0,3.2
	c0,0.5-0.1,1.2,0,1.7c0,0.2,0.1,0.5,0.1,0.8c0,0-0.1,0.2-0.1,0.2L60.7,61c-0.6,0.9-1.3,1.9-1.8,2.9c-0.2,0.4-0.5,0.7-0.7,1.1
	l-2.6,4.1l-1.8,2.8l-0.6,0.9c-0.1,0.1-0.2,0.3-0.3,0.4c0,0.1,0,0.3,0.1,0.4l0,0.2c0.1,0,0.1,0.1,0.2,0.1l0,0.1c-0.1,0-0.1,0-0.2,0
	c-0.2,0-0.4,0-0.6,0l-0.9,0c-0.1,0.1-0.1,0.1-0.1,0.2l-0.2-0.2l8.9-14c-0.1-0.1-0.2-0.3-0.2-0.4c0-0.2,0-0.3,0-0.5l0-0.8l0-2.8
	l0-4.3c0-0.2,0-0.5,0-0.7l0-1.5l0-4.2c0-0.2,0-0.5,0-0.8l0-1.6l0-5c0-0.8,0-1.7,0-2.5C60,34.5,60.2,34.2,60.5,34z"/>
<path class="st37" d="M79.9,34.8L79.9,34.8l0.4,0C80.2,34.9,80,34.9,79.9,34.8c-0.1,0.1-0.3,0.1-0.5,0.1l-1,0c-0.3,0-0.5,0-0.8,0.1
	l1.4,0c0.2,0,0.5,0,0.7,0l0.6,0v0c-0.1,0-0.3,0-0.5,0l-18.6,0c0,0-0.1,0-0.1,0c0,0,0-0.1-0.1-0.1l4.5,0l9.6,0l3.2,0l0.9,0
	C79.6,34.9,79.7,34.9,79.9,34.8z"/>
<path class="st37" d="M60.5,34c0,0.1-0.2,0.2-0.2,0.3c-0.1,0.1-0.1,0.2-0.2,0.4l0,0c-0.1,0.5,0,1,0,1.4l0,3.7l0,11.1l0,6.5
	c0,0.6,0,1.2,0,1.8c0,0.1,0,0.2,0.1,0.3l0.2,0.2c0,0.1-0.1,0.2-0.2,0.4l-1.3,2.1l-3.5,5.6l-1.9,3.1c-0.6,1-1.2,2-1.9,2.9l1.6,0
	c0.1,0,0.1,0.1,0.2,0.1l0,0.1c-0.1,0-0.1,0-0.2,0c-0.2,0-0.4,0-0.6,0l-0.9,0c-0.1,0.1-0.1,0.1-0.1,0.2l-0.2-0.2l8.9-14
	c-0.1-0.1-0.2-0.3-0.2-0.4c0-0.2,0-0.3,0-0.5l0-0.8l0-2.8l0-4.3c0-0.2,0-0.5,0-0.7l0-1.5l0-4.2c0-0.2,0-0.5,0-0.8l0-1.6l0-5
	c0-0.8,0-1.7,0-2.5C60,34.5,60.2,34.2,60.5,34z"/>
<linearGradient id="SVGID_00000161592414419883879410000007730831377790742445_" gradientUnits="userSpaceOnUse" x1="97.0651" y1="54.7168" x2="62.255" y2="67.9565" gradientTransform="matrix(1 0 0 -1 0 109.276)">
	<stop  offset="0" style="stop-color:#000001"/>
	<stop  offset="1" style="stop-color:#03021A"/>
</linearGradient>
<path style="fill:url(#SVGID_00000161592414419883879410000007730831377790742445_);" d="M75.5,57.5l-12.2,0l0-19.2
	c0.5-0.1,1.1,0,1.7,0l3.1,0l10.2,0l0,0l17.7,0l0,19.1l-14.6,0l-3.9,0l-1.3,0C76,57.5,75.8,57.5,75.5,57.5z"/>
<path class="st43" d="M89.6,51.9l-3.8-3.8l6.4,0L89.6,51.9z"/>
<path class="st44" d="M63.6,57.2c0,0,0-0.1,0-0.1l0-0.7c0,0,0-0.2,0-0.2c0-0.1,0.2-0.2,0.2-0.2l0.6-0.7l5.3-5.6l1.2,1.8
	c-0.8,0.5-1.5,1.1-2.2,1.7l-1.9,1.5l-2.6,2.1C64.1,56.8,63.8,57.1,63.6,57.2z"/>
<path class="st43" d="M64.9,38.6l4.7,0l0,10.6l-2-2L67,46.5c-0.1-0.1-0.2-0.2-0.3-0.3l2.7-7.4l0,0L64.9,38.6L64.9,38.6z"/>
<path class="st45" d="M95.3,39.3c0.1-0.2,0.3-0.3,0.5-0.4l0,8.9l-6.5,0c0.3-0.1,0.6,0,0.9,0l2.1,0c0.2-0.7,0.5-1.4,0.7-2.1l0.9-2.4
	l1.2-3.1C95.2,39.9,95.4,39.5,95.3,39.3z"/>
<path class="st46" d="M71.1,51.4l-1.2-1.8l0,0c0.2-0.2,0.4-0.4,0.7-0.7l1.9-1.8l4.9-4.8l1.9-1.8l1.3-1.3c0.1-0.1,0.2-0.3,0.3-0.4
	c0,0,0,0,0,0l0.2,0c-0.6,1.1-1.6,2-2.4,3l-4.6,5.9l-1.3,1.7L71.1,51.4z"/>
<path class="st43" d="M63.6,55.3l0-12l3,3.1c-0.3,0.7-0.5,1.4-0.7,2.1l-1.6,4.8L64,54.5C63.9,54.8,63.8,55.1,63.6,55.3z"/>
<path class="st47" d="M86,57.3l-0.4,0l0-9l3.8,3.8c-0.1,0.3-0.3,0.5-0.5,0.8l-1.3,1.9l-1.2,1.7C86.3,56.7,86,57,86,57.3z"/>
<path class="st47" d="M66.6,46.5l2.9,3l-6,6.3c0-0.2,0-0.4,0-0.5c0.2-0.2,0.3-0.6,0.4-0.9l0.3-1.1l1.6-4.8
	C66.1,47.9,66.3,47.1,66.6,46.5z"/>
<path class="st47" d="M84,49.3c0,0,0.1-0.1,0.1-0.1l0.6-0.5c0,0.1,0,0.2-0.1,0.3c-0.4,0.6-0.8,1.2-1.2,1.8l-2.6,4
	c-0.5,0.8-1.1,1.6-1.5,2.5l-4.1,0l0.8-0.7l0-0.1l-0.3,0.3c-0.1,0.1-0.2,0.3-0.4,0.3c-0.1,0-0.1,0.1-0.2,0.1c-0.1,0-0.1,0-0.2-0.1
	l0.7-0.7l0,0l-0.1,0l4.8-4.3c0,0.1-0.2,0.2-0.3,0.3c0,0,0,0.1,0.1,0.1l0,0l0.6-0.6l0.1-0.1c0.1-0.1,0.1-0.1,0.2-0.2l0,0
	c0.1,0,0,0,0.1,0l0.1-0.1l0.1-0.1c0.3-0.3,0.7-0.6,1-0.9l0.1-0.1c0.1-0.1,0,0,0.1-0.1c0.4-0.4,0.8-0.7,1.2-1.1
	C83.9,49.3,84,49.3,84,49.3z"/>
<path class="st37" d="M80.5,52c0,0.1-0.2,0.2-0.3,0.3c0,0,0,0.1,0.1,0.1l0,0l0.6-0.6l0.1-0.1c0.1-0.1,0.1-0.1,0.2-0.2l0,0
	c0.1,0,0,0,0.1,0l0.1-0.1l0.1-0.1c0.3-0.3,0.7-0.6,1-0.9l0.1-0.1c0.1-0.1,0,0,0.1-0.1c0.4-0.4,0.8-0.7,1.2-1.1c0,0,0.1,0,0.1,0
	l-8,7.2l0-0.1l-0.3,0.3c-0.1,0.1-0.2,0.3-0.4,0.3c-0.1,0-0.1,0.1-0.2,0.1c-0.1,0-0.1,0-0.2-0.1l0.7-0.7l0,0l-0.1,0L80.5,52z"/>
<path class="st45" d="M89.4,52l3.6,3.5l1.2,1.2c0.2,0.2,0.4,0.4,0.5,0.6l-8.7,0c0.1-0.3,0.3-0.5,0.4-0.8l1.2-1.7l1.3-1.9
	C89.1,52.6,89.3,52.3,89.4,52z"/>
<path class="st38" d="M95.3,39.3c0,0.3-0.1,0.6-0.2,0.9l-1.2,3.1L93,45.6c-0.3,0.7-0.5,1.4-0.7,2.1l-2.1,0c-0.3,0-0.6,0-0.9,0
	l-3.5,0L95.3,39.3z"/>
<path class="st45" d="M84.8,48.7c0.2-0.2,0.3-0.3,0.5-0.5l0,9.1l-4,0l-1.2,0c-0.2,0-0.5,0-0.7,0c0.4-0.9,1-1.6,1.5-2.5l2.6-4
	c0.4-0.6,0.8-1.2,1.2-1.8C84.7,48.9,84.7,48.8,84.8,48.7z"/>
<path class="st44" d="M66.7,46.1l-3.1-3.2l0-4.3l1.3,0l0,0l4.4,0l0,0L66.7,46.1z"/>
<path class="st48" d="M70.9,51.5l3.8,5.7l-8.2,0l-1.9,0c-0.3,0-0.7,0-0.9,0c0.2,0,0.5-0.4,0.7-0.5l2.6-2.1l1.9-1.5
	C69.4,52.5,70.1,51.9,70.9,51.5z"/>
<path class="st48" d="M92.2,48.1l3.6,0l0,9.2l-0.7,0l-5.5-5.4L92.2,48.1z"/>
<path class="st47" d="M69.9,38.6l10.7,0l-5.3,5.3l-5.4,5.3L69.9,38.6z"/>
<path class="st49" d="M81.1,38.6l0.7,0L75,57l-0.1,0.1c-0.1-0.1-0.2-0.3-0.3-0.4l-0.6-0.9l-3-4.4l1.7-2.1l1.3-1.7l4.6-5.9
	C79.5,40.6,80.5,39.7,81.1,38.6z"/>
<path class="st50" d="M81.8,38.6l13.8,0L82.9,49.9c-0.2,0.2-2.4,2-2.4,2.1l-4.8,4.3c-0.2,0.2-0.5,0.5-0.7,0.6L81.8,38.6z"/>
<path class="st37" d="M98.5,60.2c0-0.1,0-0.2,0-0.3c0.1,0,0.3,0,0.5,0l0.7,0c0.1,0.4,0.4,0.8,0.7,1.2l3.3,5.3l3.3,5.4l1.3,2
	l-3.2,2.7l-0.1,0l-9.3,0l-8.3,0l-12.2,0l-13.1,0l-7.6,0c0.1-0.1,0.2-0.1,0.3-0.1l1.5,0l3.9,0l12.6,0l31.9,0l0-1.1l-50,0l-1-0.8
	c-0.1-0.1-0.3-0.2-0.3-0.4c0.2,0.1,0.4,0.2,0.5,0.4l0.9,0.7l38.8,0l8.2,0l2.2,0c0.2,0,0.4,0,0.6,0c0.1,0,0.3-0.2,0.3-0.2l1.1-0.9
	l0.2-0.2c0.2-0.1,0.4-0.1,0.6-0.1l1.1,0c-0.3-0.4-0.5-0.8-0.8-1.2l-1.2-1.9l-1.1-1.8l-1.6-2.7L99.6,60c-0.2,0-0.3,0-0.5,0
	c-0.2,0-0.4,0-0.5,0c-0.1,0.2,0.3,0.8,0.4,1l1.6,2.6l4.5,7.3l0.9,1.5c0.1,0.2,0.2,0.3,0.3,0.6l0,0l-0.4-0.7l-1.2-1.9l-3.3-5.3
	l-2.3-3.7l-0.4-0.6c0-0.1-0.1-0.2-0.1-0.3c0,0-0.1,0-0.1,0L98.5,60.2z"/>
<path class="st40" d="M106.8,74l1,0l-2.3,2l-0.6,0.5l0-0.9c0-0.1,0-0.2,0-0.3c0.1-0.1,0.2-0.1,0.3-0.2l0.6-0.4
	c0.2-0.2,0.4-0.4,0.7-0.5C106.5,74,106.7,74,106.8,74z"/>
<path class="st41" d="M106.2,73.2L106.2,73.2c0-0.2-0.1-0.4-0.2-0.6l-0.9-1.5l-4.5-7.3L99,61.2c-0.1-0.2-0.5-0.8-0.4-1
	c0.2,0,0.4,0,0.5,0c0.2,0,0.3,0,0.5,0l3.7,6.1l1.6,2.7l1.1,1.8l1.2,1.9c0.3,0.4,0.5,0.8,0.8,1.2l-1.1,0c-0.2,0-0.4,0-0.6,0.1
	l-0.2,0.2l-52.7,0L53.3,74l0-0.1c0-0.1-0.1-0.1-0.2-0.1l0-0.2c0-0.1-0.1-0.3-0.1-0.4c0-0.1,0.2-0.3,0.3-0.4l0.6-0.9l1.8-2.8l2.6-4.1
	c0.2-0.4,0.4-0.8,0.7-1.1L59,64l-3.7,6L54,72.1c-0.3,0.4-0.5,0.8-0.8,1.2l26.5,0l0-0.9l-1.3,0l-0.1,0c0.2,0,0.5,0,0.7,0l1.6,0l4.6,0
	c0.8,0,1.6,0,2.3,0c0.1,0,0.1,0,0.2-0.1c0-0.3-0.2-0.5-0.3-0.8l2.4,0.2l5.2,0.4l5.7,0.5l3.5,0.3C104.9,73,105.6,73.2,106.2,73.2z"/>
<path class="st15" d="M87.4,71.5l2.4,0.2l5.2,0.4l5.7,0.5l3.5,0.3c0.7,0.1,1.3,0.2,2,0.2l0.1,0.1c-0.2,0.1-0.4,0-0.6,0l-1.3,0
	l-7.3,0l-10.1,0l-7.4,0l0-0.9l-1.3,0l-0.1,0c0.2,0,0.5,0,0.7,0l1.6,0l4.6,0c0.8,0,1.6,0,2.3,0c0.1,0,0.1,0,0.2-0.1
	C87.7,72.1,87.5,71.8,87.4,71.5z"/>
<path class="st39" d="M98.5,60.6C98.5,60.6,98.6,60.6,98.5,60.6c0.1,0.1,0.2,0.2,0.2,0.3l0.4,0.6l2.3,3.7l3.3,5.3l1.2,1.9l0.4,0.7
	c-0.7,0-1.3-0.1-2-0.2l-3.5-0.3l-5.7-0.5l-5.2-0.4l-2.4-0.2c0,0-0.3-0.7-0.3-0.8c-0.3-0.7-0.5-1.4-0.8-2.1l-5.4,0l2.8,0l0,0
	l-4.2-0.3l0-0.6l-0.8,0c0.7-0.1,1.5,0,2.2,0l4.2,0l10.7,0l5,0c-0.2-0.3-0.4-0.6-0.7-1l-1.5-2.1l-1.5-2.1c-0.3-0.4-0.5-0.8-0.8-1.1
	c-0.1-0.3-0.2-0.6-0.2-0.8L98.5,60.6z"/>
<linearGradient id="SVGID_00000134224464062187428860000016486256821870389923_" gradientUnits="userSpaceOnUse" x1="82.6407" y1="53.742" x2="73.2877" y2="28.6129" gradientTransform="matrix(1 0 0 -1 0 109.276)">
	<stop  offset="0" style="stop-color:#5E4698"/>
	<stop  offset="1" style="stop-color:#8373AE"/>
</linearGradient>
<path style="fill:url(#SVGID_00000134224464062187428860000016486256821870389923_);" d="M98.4,59.2L98.4,59.2
	c0.2,0.4,0,0.8,0.1,1.1l0,0.2l-2.1,0c0.1,0.3,0.1,0.6,0.2,0.8c0.3,0.3,0.5,0.7,0.8,1.1l1.5,2.1l1.5,2.1c0.2,0.3,0.5,0.6,0.7,1l-5,0
	l-10.7,0l-4.2,0c-0.7,0-1.5-0.1-2.2,0l0.8,0l0,0.6l4.2,0.3l0,0l-2.8,0l5.4,0c0.3,0.7,0.5,1.4,0.8,2.1c0,0.1,0.3,0.8,0.3,0.8
	c0.1,0.2,0.2,0.5,0.3,0.8c-0.1,0.1-0.1,0.1-0.2,0.1c-0.8,0.1-1.6,0-2.3,0l-4.6,0l-1.6,0c-0.2,0-0.5,0-0.7,0l0.1,0l1.3,0l0,0.9
	l-26.5,0c0.3-0.4,0.6-0.8,0.8-1.2l1.3-2.1l3.7-6l-0.1-0.1c0.5-1,1.2-1.9,1.8-2.9l0.3-0.6c0,0,0.1-0.1,0.1-0.2c0-0.2,0-0.5-0.1-0.8
	l0.1-0.1l0-0.1l0.8,0l17.3,0L98.4,59.2z"/>
<linearGradient id="SVGID_00000108997980627911759490000006224492072407740568_" gradientUnits="userSpaceOnUse" x1="69.0491" y1="49.9582" x2="69.07" y2="48.6277" gradientTransform="matrix(1 0 0 -1 0 109.276)">
	<stop  offset="0" style="stop-color:#000101"/>
	<stop  offset="1" style="stop-color:#020016"/>
</linearGradient>
<path style="fill:url(#SVGID_00000108997980627911759490000006224492072407740568_);" d="M61.2,59.4l0.1,0.3l0,0.6l18,0.1l0,0.2
	l-1.2,0c-0.2,0-0.4,0-0.6,0l-16.3,0L59,64l-0.1-0.1c0.5-1,1.2-1.9,1.8-2.9l0.3-0.6c0,0,0.1-0.1,0.1-0.2c0-0.2,0-0.5-0.1-0.8
	L61.2,59.4z"/>
<path class="st39" d="M62,59.3l17.3,0l0,0.4l0,0c0,0.2,0.1,0.5,0,0.7l-18-0.1l0-0.6l-0.1-0.3l0-0.1L62,59.3z"/>
<path class="st15" d="M62,59.3l17.3,0l0,0.4l0,0l-18,0l-0.1-0.3l0-0.1L62,59.3z"/>
<path class="st41" d="M98.4,59.2L98.4,59.2c0.2,0.4,0,0.8,0.1,1.1l0,0.2l-2.1,0l-19,0c0.2,0,0.4,0,0.6,0l1.2,0l0-0.2
	c0.1-0.2,0-0.5,0-0.7l0,0l0-0.4L98.4,59.2z"/>
<path class="st39" d="M98.4,59.2L98.4,59.2l0.1,0.4l-19.1,0l0-0.4L98.4,59.2z"/>
<path class="st37" d="M78.2,72.4l-6.5,0l1.6-3.8l7.7,0l5.4,0c0.3,0.7,0.5,1.4,0.8,2.1c0,0.1,0.3,0.8,0.3,0.8
	c0.1,0.2,0.2,0.5,0.3,0.8c-0.1,0.1-0.1,0.1-0.2,0.1c-0.8,0.1-1.6,0-2.3,0l-4.6,0l-1.6,0C78.7,72.4,78.4,72.4,78.2,72.4z"/>
<linearGradient id="SVGID_00000023259995943209866240000013007207581758372272_" gradientUnits="userSpaceOnUse" x1="87.4755" y1="37.8778" x2="72.2764" y2="39.4482" gradientTransform="matrix(1 0 0 -1 0 109.276)">
	<stop  offset="0" style="stop-color:#1E6E99"/>
	<stop  offset="1" style="stop-color:#C5DFF2"/>
</linearGradient>
<path style="fill:url(#SVGID_00000023259995943209866240000013007207581758372272_);" d="M76.1,72.2l-4,0c0-0.1,0.2-0.5,0.2-0.6
	l1.1-2.8l4,0l8.8,0l1.3,3.3L76.1,72.2z"/>
<path class="st37" d="M58.3,67.7c0-0.2,3.7-5.7,4.1-6.3l34.2,0c0.3,0.3,0.5,0.7,0.8,1.1l1.5,2.1l1.5,2.1c0.2,0.3,0.5,0.6,0.7,1l-5,0
	l-10.7,0l-4.2,0c-0.7,0-1.5-0.1-2.2,0l-5.6,0l-1.5,0l-2.9,0l-7.7,0l-1.9,0C58.9,67.8,58.5,67.8,58.3,67.7z"/>
<path class="st45" d="M100.3,67l0.4,0.5l-2.8,0L97.6,67L100.3,67z"/>
<path class="st45" d="M79.7,66.1l0,1.3l-3.1,0c0-0.1,0-0.3,0-0.5l3.1,0L79.7,66.1L79.7,66.1z"/>
<path class="st45" d="M62.1,67l-0.3,0.5l-2.9,0l0.3-0.5L62.1,67z"/>
<path class="st44" d="M94.7,62.4l-0.4-0.6l2.3,0c0.1,0,0.3,0.5,0.4,0.6c-0.2,0.1-0.5,0-0.7,0L94.7,62.4z"/>
<path class="st45" d="M83.1,67l0,0.4l-3.1,0c0-0.3-0.1-1.8,0-2l0,0.7l0,0.8l2.1,0C82.4,67,82.8,66.9,83.1,67z"/>
<path class="st45" d="M97.2,67l0.3,0.5l-3.1,0L94.1,67L97.2,67z"/>
<path class="st45" d="M86.7,66.9l0.1,0.5l-3.3,0l0-0.5c0.2,0,0.4,0,0.6,0l1.8,0C86.1,67,86.4,67,86.7,66.9z"/>
<path class="st44" d="M80,62.4l0-0.6l2.5,0l0.1,0.6L80,62.4z"/>
<path class="st45" d="M62.5,67l3.1,0c-0.1,0.2-0.1,0.3-0.2,0.5l-3.1,0l0,0L62.5,67z"/>
<path class="st44" d="M71.3,62.4l0.2-0.6l2.5,0l-0.2,0.6L71.3,62.4z"/>
<path class="st45" d="M93.7,67l0.2,0.5l-3.2,0L90.6,67L93.7,67z"/>
<path class="st45" d="M87,67l3.2,0l0.2,0.5l-3.3,0L87,67z"/>
<path class="st45" d="M69.6,66.9c0.2,0.1,2.8,0.1,3.1,0.1l-0.1,0.5l-3.2,0L69.6,66.9z"/>
<path class="st44" d="M68.2,62.4l0.4-0.6l2.5,0l-0.2,0.6L68.2,62.4z"/>
<path class="st45" d="M69.2,67L69,67.4l-3.2,0l0.3-0.5c0.4,0,0.8,0,1.2,0L69.2,67z"/>
<path class="st44" d="M91.8,62.4l-0.3-0.6H94c0.1,0,0.3,0.5,0.4,0.6c-0.2,0.1-0.5,0-0.7,0L91.8,62.4z"/>
<path class="st45" d="M76.3,67l0,0.5l-3.3,0l0.1-0.5l0,0.1L76.3,67z"/>
<path class="st44" d="M62.2,62.4l0.4-0.6l2.6,0l-0.4,0.6L62.2,62.4z"/>
<path class="st44" d="M88.8,62.4l-0.3-0.6l2.6,0l0.3,0.6L88.8,62.4z"/>
<path class="st44" d="M85.8,62.4l-0.2-0.6l2.5,0l0.2,0.6L85.8,62.4z"/>
<path class="st44" d="M82.8,62.4l-0.1-0.6l2.6,0l0.2,0.6L82.8,62.4z"/>
<path class="st44" d="M74.1,62.4l0.2-0.6l2.6,0l-0.1,0.6L74.1,62.4z"/>
<path class="st44" d="M65.3,62.4c0.1-0.2,0.2-0.4,0.4-0.6l2.6,0l-0.3,0.6L65.3,62.4z"/>
<path class="st48" d="M97.1,62.4l0.6,0.8l-2.5,0l-0.5-0.8l1.7,0C96.6,62.4,97,62.4,97.1,62.4z"/>
<path class="st40" d="M58.3,67.7c0.1,0,0.1,0,0.2,0l5.4,0c-0.2,0-0.4,0-0.5,0l-1.2,0c-0.1,0-0.3,0-0.5,0l0,0c-0.1,0-0.2,0-0.4,0
	l-0.7,0c-0.2,0-0.4,0-0.5,0c-0.1,0-0.2,0-0.4,0c-0.1,0-0.3,0-0.4,0c0,0-0.1,0-0.1,0c-0.1,0-0.3,0-0.5,0c-0.1,0-0.1,0-0.1,0l0,0l0,0
	c0.1,0,0,0,0.1,0l0.1,0c0.2,0,0.4,0,0.6,0l1.3,0l6.4,0l1.4,0c0.1,0,0.3,0,0.4,0l0,0.1l-0.2,0c0.1,0.1,0.3,0,0.5,0l0,0
	c0,0-0.1,0-0.1,0l0,0l0.1,0c0.1,0,0.3,0,0.4,0l1.6,0.1c0.6,0,1.2,0,1.8,0l-1.5,0l-2.9,0l-7.7,0l-1.9,0
	C58.9,67.8,58.5,67.8,58.3,67.7z"/>
<path class="st44" d="M95.9,64.3l-0.4-0.8l2.4,0l0.5,0.8L95.9,64.3z"/>
<path class="st44" d="M61,64.2l0.5-0.7l2.7,0l-0.5,0.7L61,64.2z"/>
<path class="st44" d="M97.1,66.2l-0.5-0.7l2.6,0l0.5,0.7L97.1,66.2z"/>
<path class="st44" d="M63,66.1l0.4-0.7l2.9,0L66,66.2L63,66.1z"/>
<path class="st44" d="M59.8,66.1l0.5-0.7l2.8,0l-0.4,0.7l-2,0C60.4,66.2,60,66.2,59.8,66.1z"/>
<path class="st44" d="M70.6,64.2l0.3-0.7l2.7,0l-0.2,0.7l-1.8,0C71.3,64.2,70.8,64.3,70.6,64.2z"/>
<path class="st44" d="M64.1,64.2l0.5-0.7l2.7,0c-0.1,0.2-0.2,0.5-0.4,0.7L64.1,64.2z"/>
<path class="st48" d="M97.1,66.2l2.6,0l0.5,0.7l-2.7,0L97.1,66.2z"/>
<path class="st48" d="M94.4,62.4l0.5,0.8l-2.7,0l-0.4-0.8l1.9,0C93.9,62.4,94.2,62.4,94.4,62.4z"/>
<path class="st48" d="M80,62.4l2.5,0l0.1,0.8l-2.6,0L80,62.4z"/>
<path class="st44" d="M80,65.5l2.9,0l0.1,0.7l-3,0L80,65.5z"/>
<path class="st48" d="M73.8,62.4l-0.2,0.8c-0.2,0.1-0.5,0-0.8,0l-1.9,0l0.3-0.8L73.8,62.4z"/>
<path class="st44" d="M76.7,66l0.1-0.6l2.9,0l0,0.7l0,0c-0.4,0.1-0.8,0-1.2,0c-0.6,0-1.2,0-1.7,0L76.7,66z"/>
<path class="st44" d="M67.3,64.2l0.4-0.7l2.8,0l-0.3,0.7L67.3,64.2z"/>
<path class="st44" d="M80,64.3l0-0.8l2.7,0l0.1,0.8L80,64.3z"/>
<path class="st44" d="M69.9,66.1l0.2-0.7l2.9,0l-0.2,0.7l-2,0C70.6,66.2,70.2,66.2,69.9,66.1z"/>
<path class="st48" d="M65.3,62.4l2.6,0l-0.4,0.8l-2.7,0L65.3,62.4z"/>
<path class="st44" d="M76.9,64.2l0.1-0.7l2.7,0l0,0.8l-1.7,0C77.6,64.3,77.2,64.3,76.9,64.2z"/>
<path class="st44" d="M66.4,66.1l0.3-0.7l2,0c0.3,0,0.7,0,1,0l-0.3,0.7L66.4,66.1z"/>
<path class="st48" d="M62.2,62.4l2.6,0l-0.4,0.8h-2.7L62.2,62.4z"/>
<path class="st44" d="M73.7,64.2l0.2-0.7c0.2-0.1,0.6,0,0.8,0l2,0l-0.1,0.7C76.2,64.2,73.9,64.3,73.7,64.2z"/>
<path class="st48" d="M74.1,62.4l2.6,0l-0.1,0.8l-2.7,0L74.1,62.4z"/>
<path class="st48" d="M91.5,62.4l0.4,0.8l-2.8,0l-0.3-0.8L91.5,62.4z"/>
<path class="st48" d="M88.4,62.4l0.4,0.8l-2.8,0l-0.2-0.8L88.4,62.4z"/>
<path class="st44" d="M92.8,64.3l-0.4-0.8l2.7,0l0.5,0.8L92.8,64.3z"/>
<path class="st44" d="M93.7,66.2l-0.4-0.7l2.9,0l0.4,0.7c-0.3,0.1-0.7,0-0.9,0L93.7,66.2z"/>
<path class="st44" d="M73.2,66.1l0.2-0.7l3.1,0l-0.1,0.7l-2.1,0C73.9,66.2,73.5,66.2,73.2,66.1z"/>
<path class="st44" d="M89.5,64.3l-0.3-0.8l2.8,0l0.3,0.7c-0.3,0.1-0.7,0-1,0L89.5,64.3z"/>
<path class="st48" d="M82.8,62.4l2.7,0l0.2,0.8l-2.8,0L82.8,62.4z"/>
<path class="st44" d="M86.3,64.3l-0.2-0.8l2.8,0l0.3,0.8L86.3,64.3z"/>
<path class="st44" d="M83.1,64.3L83,63.5l2.8,0l0.2,0.7c-0.3,0.1-0.6,0-0.9,0L83.1,64.3z"/>
<path class="st48" d="M68.2,62.4l2.7,0l-0.3,0.8l-2.8,0L68.2,62.4z"/>
<path class="st44" d="M86.8,66.2l-0.2-0.7l3,0l0.3,0.7c-0.3,0.1-0.7,0-1,0L86.8,66.2z"/>
<path class="st44" d="M90.3,66.2L90,65.5l3,0l0.4,0.7L90.3,66.2z"/>
<path class="st44" d="M83.3,66.2c0-0.1-0.1-0.6-0.1-0.7l3,0l0.2,0.7L83.3,66.2z"/>
<path class="st48" d="M59.8,66.1c0.2,0.1,0.6,0,0.8,0l2,0L62.1,67l-2.9,0L59.8,66.1z"/>
<path class="st48" d="M98.4,64.3l0.6,0.9l-2.6,0c-0.2-0.2-0.4-0.6-0.6-0.9L98.4,64.3z"/>
<path class="st48" d="M96.7,66.2l0.5,0.8l-3.1,0l-0.4-0.8l2,0C96,66.2,96.4,66.3,96.7,66.2z"/>
<path class="st48" d="M93.3,66.2l0.4,0.8l-3.2,0l-0.3-0.8L93.3,66.2z"/>
<path class="st48" d="M61,64.2l2.7,0l-0.5,0.9l-2.7,0L61,64.2z"/>
<path class="st48" d="M69.9,66.1c0.3,0.1,0.7,0,1,0l2,0L72.7,67c-0.4,0-3,0-3.1-0.1L69.9,66.1z"/>
<path class="st48" d="M89.9,66.2l0.3,0.8L87,67l-0.2-0.8l2.1,0C89.2,66.2,89.6,66.2,89.9,66.2z"/>
<path class="st48" d="M86.5,66.2l0.2,0.7c-0.2,0.1-0.6,0-0.8,0L84,67c-0.2,0-0.4,0-0.6,0l-0.1-0.8L86.5,66.2z"/>
<path class="st48" d="M80,66.2l3,0l0.1,0.8c-0.3,0-0.7,0-1,0L80,67L80,66.2z"/>
<path class="st48" d="M76.6,67l0.1-0.9l0,0.1c0.6,0.1,1.2,0,1.7,0c0.4,0,0.8,0,1.2,0l0,0.8L76.6,67z"/>
<path class="st48" d="M63,66.1l3,0L65.6,67l-3.1,0L63,66.1z"/>
<path class="st48" d="M66.4,66.1l3.1,0L69.2,67l-2,0c-0.4,0-0.8,0-1.2,0L66.4,66.1z"/>
<path class="st48" d="M80,64.3l2.8,0l0.1,0.9l-2.9,0L80,64.3z"/>
<path class="st48" d="M95.5,64.3l0.6,0.9l-1.9,0c-0.3,0-0.6,0-0.9,0l-0.4-0.9L95.5,64.3z"/>
<path class="st48" d="M64.1,64.2l2.8,0l-0.4,0.9l-2.9,0L64.1,64.2z"/>
<path class="st48" d="M79.7,64.3l0,0.9l-2.9,0l0.1-0.9c0.3,0.1,0.8,0,1.1,0L79.7,64.3z"/>
<path class="st48" d="M73.2,66.1c0.3,0.1,0.7,0,1,0l2.1,0L76.3,67l-3.2,0l0-0.1L73.2,66.1z"/>
<path class="st48" d="M92.4,64.2l0.5,0.9l-3,0l-0.3-0.9l1.9,0C91.7,64.3,92.1,64.3,92.4,64.2z"/>
<path class="st48" d="M70.6,64.2c0.2,0.1,0.7,0,0.9,0l1.8,0l-0.2,0.9l-2.9,0L70.6,64.2z"/>
<path class="st48" d="M89.2,64.3c0,0.1,0.3,0.8,0.3,0.9l-3,0l-0.2-0.9L89.2,64.3z"/>
<path class="st48" d="M86,64.2l0.2,0.9l-3,0l-0.1-0.9l2,0C85.3,64.3,85.7,64.3,86,64.2z"/>
<path class="st48" d="M73.7,64.2c0.2,0.1,2.5,0,2.9,0l-0.1,0.9l-3,0L73.7,64.2z"/>
<path class="st48" d="M70.2,64.2l-0.3,0.9c-0.3,0-0.6,0-0.9,0l-2.1,0l0.5-0.9L70.2,64.2z"/>
<path class="st48" d="M77,62.3l0-0.5c0.4,0,2.4-0.1,2.6,0c0.1,0.4,0,0.9,0,1.4l-2.7,0L77,62.3z"/>
<path class="st44" d="M77,62.3l0-0.5c0.4,0,2.4-0.1,2.6,0l0,0.6C79.3,62.4,77.1,62.4,77,62.3L77,62.3z"/>
</svg>
