<?xml version="1.0" encoding="utf-8"?>
<!-- Generator: Adobe Illustrator 27.1.1, SVG Export Plug-In . SVG Version: 6.00 Build 0)  -->
<svg version="1.1" id="Слой_1" xmlns="http://www.w3.org/2000/svg" xmlns:xlink="http://www.w3.org/1999/xlink" x="0px" y="0px"
	 viewBox="0 0 159 110" style="enable-background:new 0 0 159 110;" xml:space="preserve">
<style type="text/css">
	.st0{fill-rule:evenodd;clip-rule:evenodd;fill:#FFFFFF;}
	.st1{fill-rule:evenodd;clip-rule:evenodd;fill:#FFFFFF;filter:url(#Adobe_OpacityMaskFilter);}
	.st2{mask:url(#path-1-inside-1_117_5668_00000126302841582526774280000008113105512273153938_);fill:#C2C2C2;}
	.st3{fill:#484D51;stroke:#000000;stroke-linejoin:round;}
	.st4{fill:#1D1F20;stroke:#000000;stroke-linejoin:round;}
	.st5{fill:#0DFCF0;stroke:#000000;stroke-linejoin:round;}
	.st6{fill:#2E3032;stroke:#000000;stroke-linejoin:round;}
	.st7{fill:url(#SVGID_1_);stroke:#000000;stroke-linejoin:round;}
	.st8{fill:#818C96;stroke:#000000;stroke-linejoin:round;}
	.st9{fill:#64676B;stroke:#000000;stroke-linejoin:round;}
	.st10{fill:#DFA715;stroke:#000000;stroke-linejoin:round;}
	.st11{fill:#AEC1D3;stroke:#000000;stroke-linejoin:round;}
	.st12{fill:url(#SVGID_00000083786412454915951410000002220619185219898778_);stroke:#000000;stroke-linejoin:round;}
	.st13{fill:url(#SVGID_00000179643961649989314600000017616508652323972758_);stroke:#000000;stroke-linejoin:round;}
	.st14{fill:url(#SVGID_00000154401452667089067130000015568425417635728830_);stroke:#000000;stroke-linejoin:round;}
	.st15{fill:#90A7D3;stroke:#000000;stroke-linejoin:round;}
	.st16{fill:#9E1217;stroke:#000000;stroke-linejoin:round;}
	.st17{fill:url(#SVGID_00000103980936501342513280000011346181771619261871_);stroke:#000000;stroke-linejoin:round;}
	.st18{fill:#EA2128;stroke:#000000;stroke-linejoin:round;}
	.st19{fill:#7B7C83;stroke:#000000;stroke-linejoin:round;}
	.st20{fill:#DADBDB;stroke:#000000;stroke-linejoin:round;}
	.st21{fill:#F2A2A7;stroke:#000000;stroke-linejoin:round;}
	.st22{fill:url(#SVGID_00000096042899698126900310000014997712635770038670_);stroke:#000000;stroke-linejoin:round;}
	.st23{fill:#030302;stroke:#000000;stroke-linejoin:round;}
	.st24{fill:#FC5757;stroke:#000000;stroke-linejoin:round;}
	.st25{fill:#60ADB8;stroke:#000000;stroke-linejoin:round;}
	.st26{fill:#580E0F;stroke:#000000;stroke-linejoin:round;}
	.st27{fill:#BCBBBA;stroke:#000000;stroke-linejoin:round;}
	.st28{fill:#484D51;}
	.st29{fill:#1D1F20;}
	.st30{fill:#0DFCF0;}
	.st31{fill:#2E3032;}
	.st32{fill:url(#SVGID_00000072266101523151435450000018014538756793867452_);}
	.st33{fill:#818C96;}
	.st34{fill:#64676B;}
	.st35{fill:#DFA715;}
	.st36{fill:#AEC1D3;}
	.st37{fill:url(#SVGID_00000140692452411833707560000008670032747737479358_);}
	.st38{fill:url(#SVGID_00000007410508806157520140000016843113736605089450_);}
	.st39{fill:url(#SVGID_00000176020519934591610840000008352177529753641383_);}
	.st40{fill:#90A7D3;}
	.st41{fill:#9E1217;}
	.st42{fill:url(#SVGID_00000051376021060841709060000001246302563113542565_);}
	.st43{fill:#EA2128;}
	.st44{fill:#7B7C83;}
	.st45{fill:#DADBDB;}
	.st46{fill:#F2A2A7;}
	.st47{fill:url(#SVGID_00000074434836452775778240000002199876024881072514_);}
	.st48{fill:#030302;}
	.st49{fill:#FC5757;}
	.st50{fill:#60ADB8;}
	.st51{fill:#580E0F;}
	.st52{fill:#BCBBBA;}
	.st53{fill:#66FECB;}
	.st54{fill:url(#SVGID_00000078761613643783397850000009246934639907214525_);}
	.st55{fill:#5EDEB3;}
	.st56{fill:#01B478;}
	.st57{fill:#1DCE92;}
	.st58{fill:#2AFFB7;}
	.st59{fill:#FFFFFF;}
	.st60{fill:#441F00;}
	.st61{fill:url(#SVGID_00000125603097531898132790000007376268684005352589_);}
	.st62{fill:url(#SVGID_00000086672903918908485600000004098404740420862108_);}
	.st63{fill:#434343;}
	.st64{fill:url(#SVGID_00000113341536077553100300000013831433400810801819_);}
</style>
<path class="st0" d="M118.5,12.7c0-6.6-5.4-12-12-12h-94c-6.6,0-12,5.4-12,12V97c0,6.6,5.4,12,12,12h134c6.6,0,12-5.4,12-12V52.7
	c0-6.6-5.4-12-12-12h-16c-6.6,0-12-5.4-12-12V12.7z"/>
<defs>
	<filter id="Adobe_OpacityMaskFilter" filterUnits="userSpaceOnUse" x="-0.5" y="-0.3" width="160" height="110.3">
		<feColorMatrix  type="matrix" values="1 0 0 0 0  0 1 0 0 0  0 0 1 0 0  0 0 0 1 0"/>
	</filter>
</defs>
<mask maskUnits="userSpaceOnUse" x="-0.5" y="-0.3" width="160" height="110.3" id="path-1-inside-1_117_5668_00000126302841582526774280000008113105512273153938_">
	<path class="st1" d="M118.5,12.7c0-6.6-5.4-12-12-12h-94c-6.6,0-12,5.4-12,12V97c0,6.6,5.4,12,12,12h134c6.6,0,12-5.4,12-12V52.7
		c0-6.6-5.4-12-12-12h-16c-6.6,0-12-5.4-12-12V12.7z"/>
</mask>
<path class="st2" d="M12.5,1.7h94v-2h-94V1.7z M1.5,97V12.7h-2V97H1.5z M146.5,108h-134v2h134V108z M157.5,52.7V97h2V52.7H157.5z
	 M146.5,39.7h-16v2h16V39.7z M119.5,28.7v-16h-2v16H119.5z M130.5,39.7c-6.1,0-11-4.9-11-11h-2c0,7.2,5.8,13,13,13V39.7z
	 M159.5,52.7c0-7.2-5.8-13-13-13v2c6.1,0,11,4.9,11,11H159.5z M146.5,110c7.2,0,13-5.8,13-13h-2c0,6.1-4.9,11-11,11V110z M-0.5,97
	c0,7.2,5.8,13,13,13v-2c-6.1,0-11-4.9-11-11H-0.5z M106.5,1.7c6.1,0,11,4.9,11,11h2c0-7.2-5.8-13-13-13V1.7z M12.5-0.3
	c-7.2,0-13,5.8-13,13h2c0-6.1,4.9-11,11-11V-0.3z"/>
<path class="st3" d="M108.6,56.2c0,0.3-0.2,0.6-0.3,0.9l-0.8,2.1c-0.1,0.2-0.3,0.5-0.3,0.7l0,0c-0.1-0.2,0.1-0.7,0.2-0.9
	C107.7,58.1,108.1,57,108.6,56.2z"/>
<path class="st4" d="M69.9,68.3l0.1,0c0,0,0,0,0,0.1c0,0,0,0.1,0,0.2l0,0.7l0,3.8L70,73c-0.1,0-0.1,0-0.1,0c0-0.6,0-1.2,0-1.8l0-2
	C69.9,68.9,69.8,68.6,69.9,68.3z"/>
<path class="st5" d="M56.1,49.1L56.1,49.1L56,48.1l2.1,0l0,0.1c-0.1,0.3,0,0.7,0,1L56.1,49.1z"/>
<path class="st5" d="M57.2,50.8l0.9,0c0,0.3-0.1,0.8,0,1l-2.1,0l0-1L57.2,50.8z"/>
<path class="st5" d="M58.2,53.4L58.2,53.4l0,1.1l-2.1,0c-0.1-0.2-0.1-0.8,0-1.1L58.2,53.4z"/>
<path class="st5" d="M56,56l2.1,0l0,1.1l-2.1,0L56,56z"/>
<path class="st5" d="M58.1,59.7c-0.2,0-0.5,0-0.7,0l-1.4,0l0-1.1l2.2,0C58.1,58.9,58.1,59.3,58.1,59.7z"/>
<path class="st4" d="M65.2,73.6l1.4,0l-6,2.6c-0.4,0.1-0.7,0.3-1.2,0.4c0.2-0.1,0.4-0.2,0.6-0.3l1.2-0.6l1.3-0.8l1.4-0.7
	C64.3,74,64.8,73.8,65.2,73.6z"/>
<path class="st6" d="M55.5,51.6c-0.1-0.6,0-1.3,0-1.9l0-1.4c0-0.2,0-0.4,0-0.6l0,1.7h2.6c0,0.3-0.1,0.8,0,1.1l-2.6,0
	C55.6,50.9,55.6,51.3,55.5,51.6z"/>
<linearGradient id="SVGID_1_" gradientUnits="userSpaceOnUse" x1="61.4528" y1="41.7352" x2="59.7608" y2="41.7287" gradientTransform="matrix(1 0 0 -1 0 111.276)">
	<stop  offset="0" style="stop-color:#CC890B"/>
	<stop  offset="1" style="stop-color:#AF6E0F"/>
</linearGradient>
<path class="st7" d="M59.7,67.8l1.9,2l-1.7,1.6L59.7,67.8z"/>
<path class="st4" d="M49.1,72.7l2.2,0l0,2.3l-2.2,0c0-0.5,0-1,0-1.4C49.1,73.3,49.2,73,49.1,72.7z"/>
<path class="st8" d="M103,40c0.1-0.1,0.3,0,0.4,0l0.9,0l3.1,0l0,0c-0.4,0.1-0.8,0-1.2,0c-0.1,0-0.3,0-0.3,0c0,0-0.1,0.1-0.2,0.2
	l-0.5,0.5l-1.3,1.2c-0.4,0.4-0.8,0.7-1.2,1.1l0,0l0,0c-0.2-0.2-0.5-0.4-0.6-0.6c-0.1-0.1-0.2-0.2-0.3-0.2L103,40z"/>
<path class="st9" d="M103,40c0.1-0.1,0.3,0,0.4,0l0.9,0l3.1,0l0,0c-0.4,0.1-0.8,0-1.2,0c-0.1,0-0.3,0-0.3,0c0,0-0.1,0.1-0.2,0.2
	l-0.5,0.5l-1.3,1.2c-0.4,0.4-0.8,0.7-1.2,1.1l0,0l0,0c-0.2-0.2-0.5-0.4-0.6-0.6l3.5-2.4L103,40z"/>
<path class="st4" d="M65.4,37.6l0,1.8l-5.9,5.8l-0.1,0l0,0c0-0.1,0-0.3,0.1-0.4c0.5-0.8,1.2-1.5,1.8-2.1
	C62.7,41,64.1,39.4,65.4,37.6z"/>
<path class="st9" d="M55.8,32c0.1,0,0.3,0.1,0.4,0.1l1,0.4l1.4,0.5l6.3,2.2l3.4,1.2l-2.1,0c-0.3,0-0.6,0-0.9,0
	c-0.3-0.1-0.6-0.2-0.9-0.4l-2-0.9C60.3,34.1,57.9,33.1,55.8,32z"/>
<path class="st4" d="M103.8,68.3l1.3,0c0.2,0.2,0.4,0.6,0.6,0.9l1.7,2.7c0.2,0.3,0.5,0.7,0.6,1l-0.1,0l-1.4,0l-1.7-2.7l-0.8-1.3
	c-0.1-0.1-0.3-0.4-0.3-0.5L103.8,68.3z"/>
<path class="st9" d="M59.3,35.9l1.1,0.7c0.1,0.1,0.3,0.2,0.3,0.2c0.1,0,0.2,0,0.3,0l1.3-0.2c0.6-0.1,1.3-0.1,2-0.3l0,0l1.2,0.5
	l-0.3,0.4c-0.3,0.1-0.6,0.4-0.9,0.6c-0.6,0.4-1.1,0.8-1.7,1.1l-1.9-1.6l-0.8-0.7c-0.1-0.1-0.3-0.2-0.4-0.4
	C59.3,36.2,59.3,36,59.3,35.9z"/>
<path class="st10" d="M56,42.1c0-0.2-0.1-1.2,0-1.3c0-0.1,0.2-0.2,0.2-0.3l0.7-0.9l2.2-2.8l1.6,1.4L56,42.1L56,42.1z"/>
<path class="st6" d="M70.7,71.6l0-0.6L87,71l0.3,0.5l-7.5,0.1l-0.6,0c-0.1,0-0.3,0-0.4,0l-1.1,0l-4.9,0l-1.5,0
	C71.2,71.6,70.9,71.7,70.7,71.6z"/>
<path class="st11" d="M89.8,53.8l3.2,1.5c0.5,0.2,1.1,0.4,1.5,0.7c0.3,0.1,0.5,0.4,0.7,0.5c0.3,0.2,0.7,0.4,1.1,0.6l-0.6,0.1
	l-2.6,0.4c-0.3,0.1-0.8,0.2-1.1,0.2L89.8,53.8z"/>
<linearGradient id="SVGID_00000108308858659031442010000011719260843258267566_" gradientUnits="userSpaceOnUse" x1="96.8977" y1="60.8845" x2="97.4278" y2="65.9578" gradientTransform="matrix(1 0 0 -1 0 111.276)">
	<stop  offset="0" style="stop-color:#5BB6CE"/>
	<stop  offset="1" style="stop-color:#F3EFF0"/>
</linearGradient>
<path style="fill:url(#SVGID_00000108308858659031442010000011719260843258267566_);stroke:#000000;stroke-linejoin:round;" d="
	M95.2,45.6c0.2-0.1,3.9,0,4.5,0l-0.9,0.9c0,0-0.1,0.1-0.1,0.1l-2.2,2.1c-0.5,0.5-1,1-1.4,1.5l0,0.1c0-0.4,0-0.8,0-1.2l0-2.2
	C95.1,46.4,95.1,46,95.2,45.6z"/>
<path class="st11" d="M91.4,49.5l2.7,5.8l-1.3-0.5l-3.3-1.5L91.4,49.5z"/>
<path class="st11" d="M101.3,51.6c0.4,0.2,0.8,0.5,1.1,0.7l2.9,1.7l-1.7,2.8c-0.4,0.6-0.8,1.2-1.3,1.7c-0.1-0.5-0.1-1.1-0.1-1.7
	C102.1,55.1,101.9,53.3,101.3,51.6z"/>
<linearGradient id="SVGID_00000018218348869038998690000001691948450728842634_" gradientUnits="userSpaceOnUse" x1="59.2267" y1="69.2207" x2="57.9776" y2="70.9746" gradientTransform="matrix(1 0 0 -1 0 111.276)">
	<stop  offset="0" style="stop-color:#D38D0A"/>
	<stop  offset="1" style="stop-color:#C27313"/>
</linearGradient>
<path style="fill:url(#SVGID_00000018218348869038998690000001691948450728842634_);stroke:#000000;stroke-linejoin:round;" d="
	M60.9,38.2l1.2,1.1l-6.1,5.3l0-2.4l0.1,0.1L60.9,38.2z"/>
<linearGradient id="SVGID_00000123416496285671153800000005044487128063138952_" gradientUnits="userSpaceOnUse" x1="92.0659" y1="58.9198" x2="95.6304" y2="65.0064" gradientTransform="matrix(1 0 0 -1 0 111.276)">
	<stop  offset="0" style="stop-color:#6B98CD"/>
	<stop  offset="1" style="stop-color:#C1E9E3"/>
</linearGradient>
<path style="fill:url(#SVGID_00000123416496285671153800000005044487128063138952_);stroke:#000000;stroke-linejoin:round;" d="
	M92.2,48.4l1.6-1.8c0.3-0.3,0.6-0.7,0.9-0.9l-0.1,2.8c0,0.2,0,0.4,0,0.6l0,1.3c0,0.2,0,0.5,0,0.6c-0.1,0.2-0.2,0.4-0.3,0.6
	c-0.3,0.6-0.5,1.2-0.5,1.9L91.7,49L92.2,48.4z"/>
<path class="st15" d="M100.1,45.7l3.3,2.8l-4.8,0.7c-1,0.1-1.8,0.3-2.7,0.7L100.1,45.7z"/>
<path class="st11" d="M101.5,54.2c0.1,0.5,0.2,1,0.2,1.5l0.2,3.4l-0.8,0.8c0,0-0.2,0.2-0.2,0.2c-0.1,0.1-0.5,0-0.7,0l-2.5,0.1
	l-0.5,0l1.8-2.3c0.7-0.8,1.5-1.7,2-2.7C101.2,55,101.3,54.6,101.5,54.2z"/>
<path class="st11" d="M103.6,48.9c0.3,0.6,0.5,1.3,0.8,1.9c0.4,0.9,0.8,1.9,1.1,2.9l-3.1-1.8l-2.1-1.3c-0.6-0.3-1.1-0.6-1.7-0.9
	L103.6,48.9z"/>
<path class="st15" d="M99.2,56.9l0.1,0l0,0l-2.7,3.5l-1.9,0.1l-1.1-1.1l-1.3-1.3l4.5-0.7C97.7,57.3,98.4,57.2,99.2,56.9z"/>
<path class="st6" d="M65.6,68.1c0.3-0.1,0.7,0,1,0l2.7,0l0,5l-0.5,0c0-0.4,0.1-2.3-0.1-2.6c-0.1-0.1-0.2-0.2-0.4-0.2
	c-0.2,0-0.3,0-0.4,0.1c-0.2,0.2-0.2,0.7-0.2,1l0,1.6l-0.5,0l0-1.5c0-0.3,0-0.6,0-0.8c0-0.1-0.1-0.2-0.1-0.2
	c-0.1-0.1-0.2-0.2-0.3-0.2c-0.1,0-0.2,0-0.3,0.1c-0.1,0.1-0.2,0.2-0.2,0.3c-0.1,0.3,0,0.6,0,0.8l0,1.5l-0.5,0
	C65.6,72.4,65.7,68.5,65.6,68.1L65.6,68.1z"/>
<path class="st16" d="M91.9,58.3l2.6,2.5l-1.1,2.3l-1-0.7L89,60.3L91.9,58.3z"/>
<path class="st16" d="M103.5,57.9l3,1.8l-3.3,2.4l-1.4,0.9l-0.7-2.4C102,59.8,102.7,58.9,103.5,57.9z"/>
<linearGradient id="SVGID_00000086689320818332901050000011545034367624759740_" gradientUnits="userSpaceOnUse" x1="58.5442" y1="74.2434" x2="57.9155" y2="81.0621" gradientTransform="matrix(1 0 0 -1 0 111.276)">
	<stop  offset="0" style="stop-color:#A19EA1"/>
	<stop  offset="1" style="stop-color:#C2C3C1"/>
</linearGradient>
<path style="fill:url(#SVGID_00000086689320818332901050000011545034367624759740_);stroke:#000000;stroke-linejoin:round;" d="
	M53.3,31.6c-0.4-0.3-0.8-0.6-1.1-0.9l1.4,0.6l10.8,5l0,0c-0.6,0.1-1.3,0.2-2,0.3l-1.3,0.2c-0.1,0-0.2,0.1-0.3,0
	c-0.1,0-0.3-0.2-0.3-0.2l-1.1-0.7c-0.1-0.1-0.3-0.2-0.4-0.3l-1-0.7l-2.8-2C54.5,32.5,53.8,32.1,53.3,31.6z"/>
<path class="st16" d="M87.9,47.8l3.3,1.3l-1.7,3.7l-0.3,0.5l-2.1,0.4l0.4-2.6C87.6,50,87.6,48.8,87.9,47.8z"/>
<path class="st18" d="M106.8,48c0.1,0,0,0,0.1,0l1.6,5.6c-0.3,0-2.4,0.1-2.5,0c0,0-0.1,0-0.1-0.1l-1.8-4.7L106.8,48z"/>
<path class="st16" d="M106.6,54l2,0l-1.9,5.4L106,59l-2.3-1.4l2.1-3.5L106.6,54z"/>
<path class="st3" d="M105.6,68.3l6.5,0c-0.1,0.2-0.3,0.4-0.5,0.6l-1.6,1.9l-1.7,2.1L105.6,68.3z"/>
<path class="st19" d="M96.5,39.9l6,0l-1.1,2.2l-1.7,0l-6,0L96.5,39.9z"/>
<path class="st18" d="M93.7,42.6l7.6,0l-0.9,1.6L99.9,45l-5.2,0L93.7,42.6z"/>
<path class="st16" d="M88.9,53.8c0.1,0,0.1,0,0.2,0c0.3,0.4,0.5,0.9,0.8,1.4l1.6,2.8l-2.3,1.6L88.6,60L87,54.1L88.9,53.8z"/>
<path class="st18" d="M101.6,42.7l5.1,4.9l-1.7,0.5l-1.1,0.3l-2.6-2.3l-0.7-0.6c-0.1-0.1-0.2-0.2-0.3-0.3L101.6,42.7z"/>
<path class="st6" d="M55.5,52l2.2,0l0.4,0c0.1,0.2,0,0.8,0.1,1.1l-2.6,0l0,1.5l0.7,0l0.1,0c0.4,0,0.7,0,1.1,0c0.2,0,0.5,0,0.7,0
	l0,1.1l-1.8,0c-0.2,0-0.6-0.1-0.8,0c-0.1,0.3,0,1.2,0,1.6l2.6,0c0.1,0.3,0,0.8,0.1,1.1l-2.6,0l0,1.6l2.8,0c0.1,0.2,0.1,0.7,0.1,0.9
	c0.1,1.1,0.2,2.1,0.3,3.2l-0.2-0.2l-2.4-2.5l-0.5-0.5c0,0-0.1-0.1-0.1-0.1c0-0.1,0-0.4,0-0.6l0-1.9l0-1.6L55.5,52z"/>
<path class="st10" d="M59.9,71.3c-0.2,0.1-0.3,0.3-0.5,0.4l-2.9-3c-0.1-0.1-0.4-0.3-0.4-0.5c0,0,0-0.2,0-0.2l0-0.6l0-3.6l3.7,3.8
	L59.9,71.3z"/>
<path class="st18" d="M93.3,42.7l1.2,2.5c-0.5,0.5-1,1.1-1.5,1.6l-1.7,1.9L90,48.1l-1.8-0.7L93.3,42.7z"/>
<path class="st20" d="M61.3,55l-0.8-0.1l18-10.2l-0.6,1.6L61.3,55z"/>
<path class="st3" d="M107.7,48.6l4-2.8l0.5-0.4c0.1,0,0.2-0.1,0.2-0.2c0,0,0-0.2,0-0.2l0,1.3c0,0.2,0,0.4,0,0.6
	c-0.1,0.3-0.2,0.6-0.4,0.8l-0.7,1.5l-2.8,6.2c0-0.1,0.1-0.3,0.1-0.4l0.4-1c0-0.1,0-0.1,0-0.2c-0.1-0.6-0.3-1.3-0.5-1.9L107.7,48.6z"
	/>
<path class="st6" d="M62.5,39c0.6-0.3,1.2-0.7,1.7-1.1c0.3-0.2,0.6-0.4,0.9-0.6c-0.4,0.7-1,1.3-1.5,2l-3.4,4.1l-0.9,1
	c-0.1,0.1-0.2,0.2-0.3,0.3c-0.4,0.4-0.8,0.8-0.8,1.3l0,1.7l-1.8,0c-0.2,0-0.6,0-0.7,0l0,0l0-2.2l7.2-6.3L62.5,39z"/>
<path class="st16" d="M100.2,60.6l0.4,0l0.8,2.6c-2.1,0.4-4.2,0.6-6.3,0.4l-1.3-0.2c0-0.3,0.3-0.6,0.4-0.8l0.8-1.6L100.2,60.6z"/>
<path class="st9" d="M61.8,70.2l0.8,0.9c0.1,0.1,0.6,0.5,0.6,0.7c-0.7,0.6-1.4,1.1-2.1,1.6l-2.6,1.9l-5.1,3.6
	c-0.5,0.3-1,0.6-1.5,0.9l0-0.7c0.3-0.4,0.7-0.7,1.1-1l2.1-1.8l3.6-3.2L61.8,70.2z"/>
<path class="st8" d="M111.5,39.9c0.1,0,0.2,0,0.3,0c0.1,0,0.3,0.2,0.3,0.3l0,0l-0.1,0.1c-0.3,0.4-0.8,0.6-1.1,0.9l-0.2-0.1
	c-0.4-0.2-0.8-0.3-1.2-0.2c-0.3,0.1-0.5,0.3-0.7,0.5c-0.3,0.1-0.5,0.4-0.7,0.6l-3.7,2.6l-1.7-1.6l0,0l0,0c0.3-0.4,0.8-0.8,1.2-1.1
	l1.3-1.2l0.5-0.5c0,0,0.1-0.1,0.2-0.2c0.1,0,0.3,0,0.3,0c0.4,0,0.8,0,1.2,0l0,0c0.4-0.1,0.9,0,1.3,0L111.5,39.9z"/>
<path class="st19" d="M111.5,39.9c0.1,0,0.2,0,0.3,0c0.1,0,0.3,0.2,0.3,0.3l0,0l-0.1,0.1c-0.3,0.4-0.8,0.6-1.1,0.9l-0.2-0.1
	c0,0,0,0,0-0.1c0.2-0.5,0.6-0.8,1-1.1l0,0L111.5,39.9z"/>
<path class="st3" d="M107.5,60.2c0.5-0.5,1.1-1,1.7-1.4l3.4-2.8l0,8L107.5,60.2z"/>
<path class="st3" d="M97.3,66.4l0.8-1.8c0.1-0.1,0.1-0.4,0.2-0.5c0,0,0.2,0,0.2,0c0.9-0.1,1.9-0.1,2.8-0.4c1.1-0.3,2.2-1.2,3.1-1.9
	l2.3-1.7c0.4,0.4,0.8,0.7,1.3,1l1.9,1.4L97.3,66.4z"/>
<path class="st6" d="M58.7,64.2l6.4,6.9l0,1.3c0,0.2,0,0.4,0,0.6l-9.8,5.2v-0.1c0.9-0.6,1.8-1.3,2.6-1.9l1.8-1.4
	c1-0.7,1.9-1.4,2.8-2.2c0.3-0.3,0.6-0.5,0.8-0.8l0-0.1c0-0.2-0.5-0.5-0.6-0.7l-0.8-0.9l0.4-0.4l-3.5-3.7
	C58.8,65.5,58.8,64.8,58.7,64.2z"/>
<path class="st9" d="M108.6,56.2c0.1-0.2,0.3-0.5,0.4-0.8l1-2.1l2.6-5.6l0,8.3l-3.4,2.8c-0.5,0.4-1.2,0.9-1.7,1.4l-0.3-0.3
	c0-0.2,0.2-0.5,0.3-0.7l0.8-2.1C108.4,56.8,108.6,56.5,108.6,56.2z"/>
<path class="st3" d="M81.2,47.2L79.4,44l3.1-4.1l9,0l3.2,0l0.8,0c0.1,0,0.3,0,0.4,0l-9.3,0L81.2,47.2z"/>
<path class="st6" d="M95,64.1L95,64.1c0.4,0.1,0.8,0,1.2,0l1.7,0l-1.8,3.7c-0.4,0-0.8,0-1.2,0l-2.4,0l-8.4,0
	c0.1-0.2,0.2-0.4,0.4-0.6l0,0c0.1,0,0.2,0,0.4-0.1l0.9-0.2l3.9-1c1.5-0.4,3.1-0.8,4.5-1.4C94.5,64.5,94.9,64.4,95,64.1L95,64.1z"/>
<path class="st3" d="M84.5,67.3l4.3-6.5c1.2,0.7,2.3,1.6,3.5,2.4c0.4,0.2,0.8,0.5,1.2,0.7c0.5,0.2,1,0.3,1.5,0.3l0.1,0.1
	c-0.2,0.2-0.6,0.3-0.8,0.4c-1.5,0.6-3,1-4.5,1.4l-3.9,1l-0.9,0.2C84.8,67.2,84.7,67.3,84.5,67.3L84.5,67.3z"/>
<path class="st9" d="M66.7,39.9l15.2,0l-1.7,2.2l-1.3,1.7L66.7,39.9z"/>
<path class="st3" d="M50.5,36.2l0.9,0l0,36l-1.5,0c-0.1,0-0.4,0-0.5,0l1.1,0L50.5,36.2z"/>
<path class="st18" d="M97.1,50c0.9-0.1,1.8,0.2,2.5,0.7c0.7,0.4,1.2,1.1,1.4,1.9c0.2,0.9,0,1.7-0.4,2.5c-0.5,0.9-1.3,1.3-2.2,1.6
	c-1,0.2-1.7,0-2.5-0.5c-0.7-0.4-1.3-1.2-1.4-2l0-0.1l0-0.1c-0.2-0.9,0-1.7,0.5-2.5C95.4,50.7,96.1,50.2,97.1,50z"/>
<path class="st21" d="M98.1,50.6c0.3,0,0.7,0,1,0.1c0.6,0.2,1,0.7,1.3,1.3c0.2,0.4,0.2,0.8,0,1.2c-0.2,0.4-0.5,0.6-0.9,0.7
	c-0.4,0.1-0.8,0-1.2-0.2c-0.5-0.2-0.9-0.6-1-1.1c-0.2-0.4-0.2-0.9,0-1.2C97.4,51,97.7,50.8,98.1,50.6z"/>
<linearGradient id="SVGID_00000032633621508199775830000009958299477711781049_" gradientUnits="userSpaceOnUse" x1="104.8116" y1="65.5444" x2="113.2066" y2="67.7477" gradientTransform="matrix(1 0 0 -1 0 111.276)">
	<stop  offset="0" style="stop-color:#606166"/>
	<stop  offset="1" style="stop-color:#848586"/>
</linearGradient>
<path style="fill:url(#SVGID_00000032633621508199775830000009958299477711781049_);stroke:#000000;stroke-linejoin:round;" d="
	M112.2,40.2l0.3,0.3l0,3.1l0,1.5c0,0,0,0.2,0,0.2c0,0.1-0.2,0.1-0.2,0.2l-0.5,0.4l-4,2.8l-0.1-0.4l-0.1-0.4c0-0.1,0-0.1-0.1-0.2
	c-0.2-0.3-0.5-0.5-0.8-0.8l-2.2-2.1l3.7-2.6c0.2-0.2,0.4-0.4,0.7-0.6c0.2-0.2,0.4-0.4,0.7-0.5c0.4-0.1,0.8,0,1.2,0.2l0.2,0.1
	c0.4-0.3,0.8-0.6,1.1-0.9L112.2,40.2L112.2,40.2z"/>
<path class="st3" d="M108.1,42c0.2-0.2,0.4-0.4,0.7-0.6c-0.2,0.5-0.4,0.9-0.2,1.4c0.1,0.4,0.5,0.7,0.8,0.8c0.3,0.1,0.6,0.1,0.9,0
	c0.4-0.2,0.8-0.5,0.9-1c0-0.1,0.1-0.3,0.1-0.4l0,0l0,0c0.1,0.1,0.1,0.2,0,0.3c-0.1,0.7-0.8,1.3-1.3,1.7c-0.4,0.3-0.8,0.4-1.3,0.3
	c-0.4-0.1-0.7-0.3-0.9-0.7c-0.2-0.3-0.2-0.8-0.1-1.1l0,0C107.9,42.5,108,42.3,108.1,42z"/>
<path class="st9" d="M107.6,48.2c1.4-1.3,2.7-2.8,4.2-4c0.2-0.2,0.5-0.5,0.7-0.6l0,1.5c0,0,0,0.2,0,0.2c0,0.1-0.2,0.1-0.2,0.2
	l-0.5,0.4l-4,2.8L107.6,48.2z"/>
<path class="st23" d="M108.8,41.5c0.2-0.2,0.4-0.4,0.7-0.5c0.4-0.1,0.8,0,1.2,0.2l0.2,0.1c0.2,0.3,0.5,0.7,0.4,1.1
	c0,0.1,0,0.3-0.1,0.4c-0.1,0.4-0.5,0.8-0.9,1c-0.3,0.1-0.6,0.2-0.9,0c-0.3-0.1-0.7-0.5-0.8-0.8C108.4,42.4,108.5,42,108.8,41.5z"/>
<path class="st18" d="M110.8,42c0.1,0.3,0.1,0.5-0.1,0.8c-0.2,0.3-0.5,0.4-0.8,0.5c-0.3-0.1-0.6-0.2-0.8-0.6c0-0.1-0.1-0.2-0.1-0.3
	c0.3,0,1.6,0.1,1.7,0C110.7,42.3,110.7,42.2,110.8,42L110.8,42z"/>
<path class="st24" d="M109,42.5c0-0.2,0-0.3,0-0.5c0.1-0.3,0.3-0.5,0.5-0.6c0.2-0.1,0.4-0.1,0.6,0c0.3,0.1,0.5,0.4,0.6,0.6l0,0.1
	c0,0.1,0,0.2,0,0.4C110.6,42.5,109.3,42.5,109,42.5z"/>
<path class="st9" d="M59.6,56.1l6.9,8.3l2.1,2.6c0.2,0.3,0.6,0.6,0.7,0.9l-0.1,0c-0.4,0-3.8,0-3.9,0c-0.5-0.5-0.9-1-1.3-1.5
	l-2.8-3.3l-1.2-1.3c-0.1-0.1-0.3-0.3-0.3-0.4c0-0.1,0-0.2,0-0.3l0-0.9L59.6,56.1z"/>
<path class="st25" d="M49.4,72.2c-0.1-0.2,0-0.4,0-0.5l0-1.2l0-4.6l0-29.6l1.1,0l0,35.9L49.4,72.2z"/>
<path class="st9" d="M81.8,48.1l1.9-1.1l6.4-3.6l5-2.9c0.1,0,0.1,0,0.2,0L93,42.4l-1.5,1.4l-3,2.6c-0.3,0.3-0.9,0.7-1,1
	c-0.2,0.3-0.2,0.8-0.2,1.1L87,50.3l-0.3,2.1c-0.1,0.5-0.2,1-0.2,1.5c0,0.2,0.1,0.5,0.1,0.7l0.3,1c0.2,0.8,0.5,1.6,0.7,2.5L81.8,48.1
	z"/>
<path class="st4" d="M59.7,54.9L59.7,54.9c0.6,0.4,1.5,0.4,2.2,0.6l2.1,0.4l8.8,1.6c-0.2,0.2-0.5,0.3-0.7,0.5l-1.8,1.2l-4.8,3.2
	c-0.6-0.6-1.1-1.3-1.6-1.9l-1.7-2.1l-2.6-3.2l0-2.8l0,1.7c0,0.2,0,0.4,0,0.6C59.6,54.9,59.6,54.9,59.7,54.9z"/>
<path class="st19" d="M81.2,47.2l5.4-7.2l9.3,0c-0.1,0.2-0.5,0.5-0.7,0.6c-0.1,0-0.1,0-0.2,0l-5,2.9L83.7,47l-1.9,1.1L81.2,47.2z"/>
<path class="st6" d="M87.5,61.3L87.5,61.3c0.1,0.1,0.1,0.1,0.1,0.1c0,0.1,0,0.2,0,0.2c0,0.1-0.2,0.3-0.2,0.4l-0.5,0.8
	c-1.1,1.7-2.1,3.4-3.2,5l-13.7,0l-3.2-4l-0.3-0.4c0.5,0.2,1.1,0.4,1.6,0.6l2.7,0.9l6.8,2.3L87.5,61.3z"/>
<path class="st8" d="M73.3,57.8l3.5,7.8l0.4,0.9c0,0.1,0.1,0.2,0.1,0.3c0,0,0.1,0,0.1,0.1c0,0-0.1,0-0.1,0c-0.1,0-0.5-0.1-0.6-0.2
	l-2.9-1l-6.2-2l-1.9-0.7c0.1-0.1,0.3-0.2,0.4-0.3l0.8-0.5l4.4-2.9l1.4-0.9C72.8,58.1,73.1,58,73.3,57.8L73.3,57.8z"/>
<path class="st20" d="M65.9,37.3l0-0.2c0.2-0.1,1.3-0.1,1.6-0.1l6.1,0l23.7,0l11.9,0l1.6,1.7l0,0c-0.3,0.2-4-0.1-4.7-0.1l-5.2-0.1
	l-2.5,0l-7.9-0.2L87,38.1l-8.9-0.3l-4.6-0.2l-5-0.1l-1.6-0.1C66.6,37.3,66.2,37.4,65.9,37.3z"/>
<path class="st11" d="M73.3,57.8c0,0,0.1-0.1,0.2-0.1c0.1,0,0.3,0.1,0.3,0.1l1.5,0.4l4.9,1.4l6.2,1.7l-9,5.4c0,0-0.1,0-0.1-0.1
	c0-0.1-0.1-0.2-0.1-0.3l-0.4-0.9L73.3,57.8z"/>
<path class="st6" d="M109.9,62.6l2.6,2l0,3.3l-15.9,0l0.7-1.5L109.9,62.6z"/>
<path class="st23" d="M109.7,64.7c0.3,0,0.5,0,0.8,0.2c0.4,0.2,0.7,0.6,0.8,1c0.1,0.3,0,0.6-0.1,0.9c-0.2,0.4-0.5,0.5-0.9,0.6
	c-0.3,0-0.5,0-0.8-0.2c-0.4-0.2-0.7-0.5-0.8-0.9c-0.1-0.3-0.1-0.7,0.1-1C108.9,65,109.3,64.8,109.7,64.7z"/>
<path class="st26" d="M110.6,65.6c0.1,0.2,0.1,0.4,0.1,0.6c-0.1,0.3-0.2,0.4-0.4,0.6c-0.2,0.1-0.5,0.1-0.7,0.1
	c-0.2-0.1-0.3-0.2-0.5-0.4c0.1,0,0.2,0,0.3-0.1c0.3-0.1,0.7-0.4,0.8-0.7l0,0C110.4,65.6,110.5,65.6,110.6,65.6z"/>
<path class="st18" d="M109.1,66.5c-0.1-0.2-0.2-0.4-0.1-0.7c0-0.2,0.1-0.4,0.3-0.5c0.2-0.2,0.5-0.2,0.7-0.2c0.3,0,0.5,0.3,0.6,0.5
	c-0.1,0-0.3,0-0.4,0l0,0c-0.1,0.3-0.5,0.6-0.8,0.7C109.3,66.4,109.2,66.5,109.1,66.5z"/>
<path class="st27" d="M65.9,37.3c0.4,0.1,0.7,0,1.1,0.1l1.6,0.1l5,0.1l4.6,0.2l8.9,0.3l3.5,0.1l7.9,0.2l2.5,0l5.2,0.1
	c0.6,0,4.4,0.2,4.7,0.1l0,0h0l0.7,0.7l-45.7,0.1L65.9,37.3z"/>
<path class="st6" d="M48,33c0.2-0.1,0.5,0,0.8,0c0.5,0,1,0,1.5,0l0.3,0l0,2.2l-0.8,0c-0.1,0-0.3,0-0.4,0c-0.1,0-0.2,0.1-0.2,0.2
	c-0.1,0.1-0.1,0.1-0.2,0.2c-0.1,0.2,0,0.5,0,0.8l0,1.5l0,6.6l0,27.6c0,0.2,0,0.4,0.2,0.5l0,0c0.1,0.2,0,0.6,0,0.9c0,0.5,0,1,0,1.4
	l-1.4,0c-0.1,0-0.1-0.1-0.2-0.2c-0.1-0.3-0.1-2.8-0.1-3.3l0-7l0-23.4l0-6l0-1.2c0-0.2,0-0.4,0-0.6l0-0.1C47.7,33.1,47.8,33.1,48,33z
	"/>
<path class="st8" d="M48,33l2.1,0l-2.5,2.2l0-1.8l0-0.1C47.7,33.1,47.8,33.1,48,33z"/>
<path class="st11" d="M77.9,46.2l-4.5,11L61.3,55L77.9,46.2z"/>
<path class="st9" d="M53.9,76.8L52,78.4L52,31.2l7,5.2c-0.2,0.4-0.6,0.8-0.9,1.2l-0.1,0L53.9,34L53.9,76.8z"/>
<path class="st3" d="M53.9,76.8l0-42.8l4.2,3.4l0.1,0l-2.6,3.2l0,4.9l0,2.2c-0.1,0.2,0,0.4,0,0.6l0,1.4c0,0.6-0.1,1.3,0,1.9l0,0.4
	l0,4.7l0,1.6l0,1.9c0,0.2,0,0.4,0,0.6c0,0,0.1,0.1,0.1,0.1l0.5,0.5l2.4,2.5l0.2,0.2l0,0.1c0.1,0.6,0.1,1.3,0.1,1.9L56.7,64
	c-0.2-0.2-0.5-0.6-0.8-0.7c-0.1,0-0.2,0-0.3,0.1c0,0.1-0.1,0.1-0.1,0.2c0,0.3,0,0.6,0,0.8l0,1.5c0,0.8-0.1,1.7,0,2.6
	c0,0.3,3,3.2,3.4,3.7L53.9,76.8z"/>
<path class="st3" d="M81.4,48.3L83,51l2.8,4.7l1.4,2.4c0.2,0.4,0.5,0.8,0.7,1.1c0.2,0.4,0.3,0.9,0.5,1.3l0,0l-0.7,0.4
	c-0.1,0-0.2,0.1-0.3,0.1c-0.1,0-0.5-0.1-0.6-0.2l-2.8-0.8l-9.9-2.7l5.2-12.8l1.4,2.3L81.4,48.3z"/>
<path class="st8" d="M80.5,46.8l0.9,1.6l-5.1,5.5c0.6-1.4,1.5-2.7,2.3-4.1L80.5,46.8z"/>
<path class="st3" d="M70.7,68.3l32.5,0l2.7,4.5l-0.1,0.1l-17.1,0.1l-1.3-2.3l-16.6,0L70.7,68.3z"/>
<path class="st3" d="M59.6,52.5l0-6.5c0.2-0.3,0.5-0.5,0.7-0.8l1.3-1.3l2.5-2.6c0.4-0.4,0.9-1,1.4-1.3c0.1,0,0.1,0,0.2,0l10,3.3
	l1.7,0.6c0.3,0.1,0.6,0.2,0.9,0.3L59.7,54.9l0,0c0,0-0.1-0.1-0.1-0.1c0-0.2,0-0.4,0-0.6L59.6,52.5z"/>
<path class="st8" d="M75.8,43.3l1.7,0.6c0,0-0.1,0.1-0.1,0.1c-0.2,0.2-0.6,0.4-0.9,0.6l-2.1,1.2l-4.7,2.6l-4.2,2.1l-1.1,0.5
	c-0.1,0.1-0.3,0.2-0.5,0.2L75.8,43.3z"/>
<path class="st6" d="M59.6,52.5l0-6.5c0.2-0.3,0.5-0.5,0.7-0.8l1.3-1.3l2.5-2.6c0.4-0.4,0.9-1,1.4-1.3c0.1,0,0.1,0,0.2,0
	c-0.2,0.4-0.3,0.8-0.5,1.1l-1,2.4l-2.1,5.3l-1.8,4.5c-0.2,0.5-0.5,1-0.6,1.6l0,0c0,0-0.1-0.1-0.1-0.1c0-0.2,0-0.4,0-0.6L59.6,52.5z"
	/>
<path class="st28" d="M108.6,56.2c0,0.3-0.2,0.6-0.3,0.9l-0.8,2.1c-0.1,0.2-0.3,0.5-0.3,0.7l0,0c-0.1-0.2,0.1-0.7,0.2-0.9
	C107.7,58.1,108.1,57,108.6,56.2z"/>
<path class="st29" d="M69.9,68.3l0.1,0c0,0,0,0,0,0.1c0,0,0,0.1,0,0.2l0,0.7l0,3.8L70,73c-0.1,0-0.1,0-0.1,0c0-0.6,0-1.2,0-1.8l0-2
	C69.9,68.9,69.8,68.6,69.9,68.3z"/>
<path class="st30" d="M56.1,49.1L56.1,49.1L56,48.1l2.1,0l0,0.1c-0.1,0.3,0,0.7,0,1L56.1,49.1z"/>
<path class="st30" d="M57.2,50.8l0.9,0c0,0.3-0.1,0.8,0,1l-2.1,0l0-1L57.2,50.8z"/>
<path class="st30" d="M58.2,53.4L58.2,53.4l0,1.1l-2.1,0c-0.1-0.2-0.1-0.8,0-1.1L58.2,53.4z"/>
<path class="st30" d="M56,56l2.1,0l0,1.1l-2.1,0L56,56z"/>
<path class="st30" d="M58.1,59.7c-0.2,0-0.5,0-0.7,0l-1.4,0l0-1.1l2.2,0C58.1,58.9,58.1,59.3,58.1,59.7z"/>
<path class="st29" d="M65.2,73.6l1.4,0l-6,2.6c-0.4,0.1-0.7,0.3-1.2,0.4c0.2-0.1,0.4-0.2,0.6-0.3l1.2-0.6l1.3-0.8l1.4-0.7
	C64.3,74,64.8,73.8,65.2,73.6z"/>
<path class="st31" d="M55.5,51.6c-0.1-0.6,0-1.3,0-1.9l0-1.4c0-0.2,0-0.4,0-0.6l0,1.7h2.6c0,0.3-0.1,0.8,0,1.1l-2.6,0
	C55.6,50.9,55.6,51.3,55.5,51.6z"/>
<linearGradient id="SVGID_00000010282629471430522960000006960105321575911574_" gradientUnits="userSpaceOnUse" x1="61.4528" y1="41.7352" x2="59.7608" y2="41.7287" gradientTransform="matrix(1 0 0 -1 0 111.276)">
	<stop  offset="0" style="stop-color:#CC890B"/>
	<stop  offset="1" style="stop-color:#AF6E0F"/>
</linearGradient>
<path style="fill:url(#SVGID_00000010282629471430522960000006960105321575911574_);" d="M59.7,67.8l1.9,2l-1.7,1.6L59.7,67.8z"/>
<path class="st29" d="M49.1,72.7l2.2,0l0,2.3l-2.2,0c0-0.5,0-1,0-1.4C49.1,73.3,49.2,73,49.1,72.7z"/>
<path class="st33" d="M103,40c0.1-0.1,0.3,0,0.4,0l0.9,0l3.1,0l0,0c-0.4,0.1-0.8,0-1.2,0c-0.1,0-0.3,0-0.3,0c0,0-0.1,0.1-0.2,0.2
	l-0.5,0.5l-1.3,1.2c-0.4,0.4-0.8,0.7-1.2,1.1l0,0l0,0c-0.2-0.2-0.5-0.4-0.6-0.6c-0.1-0.1-0.2-0.2-0.3-0.2L103,40z"/>
<path class="st34" d="M103,40c0.1-0.1,0.3,0,0.4,0l0.9,0l3.1,0l0,0c-0.4,0.1-0.8,0-1.2,0c-0.1,0-0.3,0-0.3,0c0,0-0.1,0.1-0.2,0.2
	l-0.5,0.5l-1.3,1.2c-0.4,0.4-0.8,0.7-1.2,1.1l0,0l0,0c-0.2-0.2-0.5-0.4-0.6-0.6l3.5-2.4L103,40z"/>
<path class="st29" d="M65.4,37.6l0,1.8l-5.9,5.8l-0.1,0l0,0c0-0.1,0-0.3,0.1-0.4c0.5-0.8,1.2-1.5,1.8-2.1
	C62.7,41,64.1,39.4,65.4,37.6z"/>
<path class="st34" d="M55.8,32c0.1,0,0.3,0.1,0.4,0.1l1,0.4l1.4,0.5l6.3,2.2l3.4,1.2l-2.1,0c-0.3,0-0.6,0-0.9,0
	c-0.3-0.1-0.6-0.2-0.9-0.4l-2-0.9C60.3,34.1,57.9,33.1,55.8,32z"/>
<path class="st29" d="M103.8,68.3l1.3,0c0.2,0.2,0.4,0.6,0.6,0.9l1.7,2.7c0.2,0.3,0.5,0.7,0.6,1l-0.1,0l-1.4,0l-1.7-2.7l-0.8-1.3
	c-0.1-0.1-0.3-0.4-0.3-0.5L103.8,68.3z"/>
<path class="st34" d="M59.3,35.9l1.1,0.7c0.1,0.1,0.3,0.2,0.3,0.2c0.1,0,0.2,0,0.3,0l1.3-0.2c0.6-0.1,1.3-0.1,2-0.3l0,0l1.2,0.5
	l-0.3,0.4c-0.3,0.1-0.6,0.4-0.9,0.6c-0.6,0.4-1.1,0.8-1.7,1.1l-1.9-1.6l-0.8-0.7c-0.1-0.1-0.3-0.2-0.4-0.4
	C59.3,36.2,59.3,36,59.3,35.9z"/>
<path class="st35" d="M56,42.1c0-0.2-0.1-1.2,0-1.3c0-0.1,0.2-0.2,0.2-0.3l0.7-0.9l2.2-2.8l1.6,1.4L56,42.1L56,42.1z"/>
<path class="st31" d="M70.7,71.6l0-0.6L87,71l0.3,0.5l-7.5,0.1l-0.6,0c-0.1,0-0.3,0-0.4,0l-1.1,0l-4.9,0l-1.5,0
	C71.2,71.6,70.9,71.7,70.7,71.6z"/>
<path class="st36" d="M89.8,53.8l3.2,1.5c0.5,0.2,1.1,0.4,1.5,0.7c0.3,0.1,0.5,0.4,0.7,0.5c0.3,0.2,0.7,0.4,1.1,0.6l-0.6,0.1
	l-2.6,0.4c-0.3,0.1-0.8,0.2-1.1,0.2L89.8,53.8z"/>
<linearGradient id="SVGID_00000052096621949509135260000017158671455123478663_" gradientUnits="userSpaceOnUse" x1="96.8977" y1="60.8845" x2="97.4278" y2="65.9578" gradientTransform="matrix(1 0 0 -1 0 111.276)">
	<stop  offset="0" style="stop-color:#5BB6CE"/>
	<stop  offset="1" style="stop-color:#F3EFF0"/>
</linearGradient>
<path style="fill:url(#SVGID_00000052096621949509135260000017158671455123478663_);" d="M95.2,45.6c0.2-0.1,3.9,0,4.5,0l-0.9,0.9
	c0,0-0.1,0.1-0.1,0.1l-2.2,2.1c-0.5,0.5-1,1-1.4,1.5l0,0.1c0-0.4,0-0.8,0-1.2l0-2.2C95.1,46.4,95.1,46,95.2,45.6z"/>
<path class="st36" d="M91.4,49.5l2.7,5.8l-1.3-0.5l-3.3-1.5L91.4,49.5z"/>
<path class="st36" d="M101.3,51.6c0.4,0.2,0.8,0.5,1.1,0.7l2.9,1.7l-1.7,2.8c-0.4,0.6-0.8,1.2-1.3,1.7c-0.1-0.5-0.1-1.1-0.1-1.7
	C102.1,55.1,101.9,53.3,101.3,51.6z"/>
<linearGradient id="SVGID_00000180332323945109902460000009420801358535896730_" gradientUnits="userSpaceOnUse" x1="59.2267" y1="69.2207" x2="57.9776" y2="70.9746" gradientTransform="matrix(1 0 0 -1 0 111.276)">
	<stop  offset="0" style="stop-color:#D38D0A"/>
	<stop  offset="1" style="stop-color:#C27313"/>
</linearGradient>
<path style="fill:url(#SVGID_00000180332323945109902460000009420801358535896730_);" d="M60.9,38.2l1.2,1.1l-6.1,5.3l0-2.4l0.1,0.1
	L60.9,38.2z"/>
<linearGradient id="SVGID_00000046314085032051938190000012930279620418079377_" gradientUnits="userSpaceOnUse" x1="92.0659" y1="58.9198" x2="95.6304" y2="65.0064" gradientTransform="matrix(1 0 0 -1 0 111.276)">
	<stop  offset="0" style="stop-color:#6B98CD"/>
	<stop  offset="1" style="stop-color:#C1E9E3"/>
</linearGradient>
<path style="fill:url(#SVGID_00000046314085032051938190000012930279620418079377_);" d="M92.2,48.4l1.6-1.8
	c0.3-0.3,0.6-0.7,0.9-0.9l-0.1,2.8c0,0.2,0,0.4,0,0.6l0,1.3c0,0.2,0,0.5,0,0.6c-0.1,0.2-0.2,0.4-0.3,0.6c-0.3,0.6-0.5,1.2-0.5,1.9
	L91.7,49L92.2,48.4z"/>
<path class="st40" d="M100.1,45.7l3.3,2.8l-4.8,0.7c-1,0.1-1.8,0.3-2.7,0.7L100.1,45.7z"/>
<path class="st36" d="M101.5,54.2c0.1,0.5,0.2,1,0.2,1.5l0.2,3.4l-0.8,0.8c0,0-0.2,0.2-0.2,0.2c-0.1,0.1-0.5,0-0.7,0l-2.5,0.1
	l-0.5,0l1.8-2.3c0.7-0.8,1.5-1.7,2-2.7C101.2,55,101.3,54.6,101.5,54.2z"/>
<path class="st36" d="M103.6,48.9c0.3,0.6,0.5,1.3,0.8,1.9c0.4,0.9,0.8,1.9,1.1,2.9l-3.1-1.8l-2.1-1.3c-0.6-0.3-1.1-0.6-1.7-0.9
	L103.6,48.9z"/>
<path class="st40" d="M99.2,56.9l0.1,0l0,0l-2.7,3.5l-1.9,0.1l-1.1-1.1l-1.3-1.3l4.5-0.7C97.7,57.3,98.4,57.2,99.2,56.9z"/>
<path class="st31" d="M65.6,68.1c0.3-0.1,0.7,0,1,0l2.7,0l0,5l-0.5,0c0-0.4,0.1-2.3-0.1-2.6c-0.1-0.1-0.2-0.2-0.4-0.2
	c-0.2,0-0.3,0-0.4,0.1c-0.2,0.2-0.2,0.7-0.2,1l0,1.6l-0.5,0l0-1.5c0-0.3,0-0.6,0-0.8c0-0.1-0.1-0.2-0.1-0.2
	c-0.1-0.1-0.2-0.2-0.3-0.2c-0.1,0-0.2,0-0.3,0.1c-0.1,0.1-0.2,0.2-0.2,0.3c-0.1,0.3,0,0.6,0,0.8l0,1.5l-0.5,0
	C65.6,72.4,65.7,68.5,65.6,68.1L65.6,68.1z"/>
<path class="st41" d="M91.9,58.3l2.6,2.5l-1.1,2.3l-1-0.7L89,60.3L91.9,58.3z"/>
<path class="st41" d="M103.5,57.9l3,1.8l-3.3,2.4l-1.4,0.9l-0.7-2.4C102,59.8,102.7,58.9,103.5,57.9z"/>
<linearGradient id="SVGID_00000148641110377290531870000007398063755390108344_" gradientUnits="userSpaceOnUse" x1="58.5442" y1="74.2434" x2="57.9155" y2="81.0621" gradientTransform="matrix(1 0 0 -1 0 111.276)">
	<stop  offset="0" style="stop-color:#A19EA1"/>
	<stop  offset="1" style="stop-color:#C2C3C1"/>
</linearGradient>
<path style="fill:url(#SVGID_00000148641110377290531870000007398063755390108344_);" d="M53.3,31.6c-0.4-0.3-0.8-0.6-1.1-0.9
	l1.4,0.6l10.8,5l0,0c-0.6,0.1-1.3,0.2-2,0.3l-1.3,0.2c-0.1,0-0.2,0.1-0.3,0c-0.1,0-0.3-0.2-0.3-0.2l-1.1-0.7
	c-0.1-0.1-0.3-0.2-0.4-0.3l-1-0.7l-2.8-2C54.5,32.5,53.8,32.1,53.3,31.6z"/>
<path class="st41" d="M87.9,47.8l3.3,1.3l-1.7,3.7l-0.3,0.5l-2.1,0.4l0.4-2.6C87.6,50,87.6,48.8,87.9,47.8z"/>
<path class="st43" d="M106.8,48c0.1,0,0,0,0.1,0l1.6,5.6c-0.3,0-2.4,0.1-2.5,0c0,0-0.1,0-0.1-0.1l-1.8-4.7L106.8,48z"/>
<path class="st41" d="M106.6,54l2,0l-1.9,5.4L106,59l-2.3-1.4l2.1-3.5L106.6,54z"/>
<path class="st28" d="M105.6,68.3l6.5,0c-0.1,0.2-0.3,0.4-0.5,0.6l-1.6,1.9l-1.7,2.1L105.6,68.3z"/>
<path class="st44" d="M96.5,39.9l6,0l-1.1,2.2l-1.7,0l-6,0L96.5,39.9z"/>
<path class="st43" d="M93.7,42.6l7.6,0l-0.9,1.6L99.9,45l-5.2,0L93.7,42.6z"/>
<path class="st41" d="M88.9,53.8c0.1,0,0.1,0,0.2,0c0.3,0.4,0.5,0.9,0.8,1.4l1.6,2.8l-2.3,1.6L88.6,60L87,54.1L88.9,53.8z"/>
<path class="st43" d="M101.6,42.7l5.1,4.9l-1.7,0.5l-1.1,0.3l-2.6-2.3l-0.7-0.6c-0.1-0.1-0.2-0.2-0.3-0.3L101.6,42.7z"/>
<path class="st31" d="M55.5,52l2.2,0l0.4,0c0.1,0.2,0,0.8,0.1,1.1l-2.6,0l0,1.5l0.7,0l0.1,0c0.4,0,0.7,0,1.1,0c0.2,0,0.5,0,0.7,0
	l0,1.1l-1.8,0c-0.2,0-0.6-0.1-0.8,0c-0.1,0.3,0,1.2,0,1.6l2.6,0c0.1,0.3,0,0.8,0.1,1.1l-2.6,0l0,1.6l2.8,0c0.1,0.2,0.1,0.7,0.1,0.9
	c0.1,1.1,0.2,2.1,0.3,3.2l-0.2-0.2l-2.4-2.5l-0.5-0.5c0,0-0.1-0.1-0.1-0.1c0-0.1,0-0.4,0-0.6l0-1.9l0-1.6L55.5,52z"/>
<path class="st35" d="M59.9,71.3c-0.2,0.1-0.3,0.3-0.5,0.4l-2.9-3c-0.1-0.1-0.4-0.3-0.4-0.5c0,0,0-0.2,0-0.2l0-0.6l0-3.6l3.7,3.8
	L59.9,71.3z"/>
<path class="st43" d="M93.3,42.7l1.2,2.5c-0.5,0.5-1,1.1-1.5,1.6l-1.7,1.9L90,48.1l-1.8-0.7L93.3,42.7z"/>
<path class="st45" d="M61.3,55l-0.8-0.1l18-10.2l-0.6,1.6L61.3,55z"/>
<path class="st28" d="M107.7,48.6l4-2.8l0.5-0.4c0.1,0,0.2-0.1,0.2-0.2c0,0,0-0.2,0-0.2l0,1.3c0,0.2,0,0.4,0,0.6
	c-0.1,0.3-0.2,0.6-0.4,0.8l-0.7,1.5l-2.8,6.2c0-0.1,0.1-0.3,0.1-0.4l0.4-1c0-0.1,0-0.1,0-0.2c-0.1-0.6-0.3-1.3-0.5-1.9L107.7,48.6z"
	/>
<path class="st31" d="M62.5,39c0.6-0.3,1.2-0.7,1.7-1.1c0.3-0.2,0.6-0.4,0.9-0.6c-0.4,0.7-1,1.3-1.5,2l-3.4,4.1l-0.9,1
	c-0.1,0.1-0.2,0.2-0.3,0.3c-0.4,0.4-0.8,0.8-0.8,1.3l0,1.7l-1.8,0c-0.2,0-0.6,0-0.7,0l0,0l0-2.2l7.2-6.3L62.5,39z"/>
<path class="st41" d="M100.2,60.6l0.4,0l0.8,2.6c-2.1,0.4-4.2,0.6-6.3,0.4l-1.3-0.2c0-0.3,0.3-0.6,0.4-0.8l0.8-1.6L100.2,60.6z"/>
<path class="st34" d="M61.8,70.2l0.8,0.9c0.1,0.1,0.6,0.5,0.6,0.7c-0.7,0.6-1.4,1.1-2.1,1.6l-2.6,1.9l-5.1,3.6
	c-0.5,0.3-1,0.6-1.5,0.9l0-0.7c0.3-0.4,0.7-0.7,1.1-1l2.1-1.8l3.6-3.2L61.8,70.2z"/>
<path class="st33" d="M111.5,39.9c0.1,0,0.2,0,0.3,0c0.1,0,0.3,0.2,0.3,0.3l0,0l-0.1,0.1c-0.3,0.4-0.8,0.6-1.1,0.9l-0.2-0.1
	c-0.4-0.2-0.8-0.3-1.2-0.2c-0.3,0.1-0.5,0.3-0.7,0.5c-0.3,0.1-0.5,0.4-0.7,0.6l-3.7,2.6l-1.7-1.6l0,0l0,0c0.3-0.4,0.8-0.8,1.2-1.1
	l1.3-1.2l0.5-0.5c0,0,0.1-0.1,0.2-0.2c0.1,0,0.3,0,0.3,0c0.4,0,0.8,0,1.2,0l0,0c0.4-0.1,0.9,0,1.3,0L111.5,39.9z"/>
<path class="st44" d="M111.5,39.9c0.1,0,0.2,0,0.3,0c0.1,0,0.3,0.2,0.3,0.3l0,0l-0.1,0.1c-0.3,0.4-0.8,0.6-1.1,0.9l-0.2-0.1
	c0,0,0,0,0-0.1c0.2-0.5,0.6-0.8,1-1.1l0,0L111.5,39.9z"/>
<path class="st28" d="M107.5,60.2c0.5-0.5,1.1-1,1.7-1.4l3.4-2.8l0,8L107.5,60.2z"/>
<path class="st28" d="M97.3,66.4l0.8-1.8c0.1-0.1,0.1-0.4,0.2-0.5c0,0,0.2,0,0.2,0c0.9-0.1,1.9-0.1,2.8-0.4c1.1-0.3,2.2-1.2,3.1-1.9
	l2.3-1.7c0.4,0.4,0.8,0.7,1.3,1l1.9,1.4L97.3,66.4z"/>
<path class="st31" d="M58.7,64.2l6.4,6.9l0,1.3c0,0.2,0,0.4,0,0.6l-9.8,5.2v-0.1c0.9-0.6,1.8-1.3,2.6-1.9l1.8-1.4
	c1-0.7,1.9-1.4,2.8-2.2c0.3-0.3,0.6-0.5,0.8-0.8l0-0.1c0-0.2-0.5-0.5-0.6-0.7l-0.8-0.9l0.4-0.4l-3.5-3.7
	C58.8,65.5,58.8,64.8,58.7,64.2z"/>
<path class="st34" d="M108.6,56.2c0.1-0.2,0.3-0.5,0.4-0.8l1-2.1l2.6-5.6l0,8.3l-3.4,2.8c-0.5,0.4-1.2,0.9-1.7,1.4l-0.3-0.3
	c0-0.2,0.2-0.5,0.3-0.7l0.8-2.1C108.4,56.8,108.6,56.5,108.6,56.2z"/>
<path class="st28" d="M81.2,47.2L79.4,44l3.1-4.1l9,0l3.2,0l0.8,0c0.1,0,0.3,0,0.4,0l-9.3,0L81.2,47.2z"/>
<path class="st31" d="M95,64.1L95,64.1c0.4,0.1,0.8,0,1.2,0l1.7,0l-1.8,3.7c-0.4,0-0.8,0-1.2,0l-2.4,0l-8.4,0
	c0.1-0.2,0.2-0.4,0.4-0.6l0,0c0.1,0,0.2,0,0.4-0.1l0.9-0.2l3.9-1c1.5-0.4,3.1-0.8,4.5-1.4C94.5,64.5,94.9,64.4,95,64.1L95,64.1z"/>
<path class="st28" d="M84.5,67.3l4.3-6.5c1.2,0.7,2.3,1.6,3.5,2.4c0.4,0.2,0.8,0.5,1.2,0.7c0.5,0.2,1,0.3,1.5,0.3l0.1,0.1
	c-0.2,0.2-0.6,0.3-0.8,0.4c-1.5,0.6-3,1-4.5,1.4l-3.9,1l-0.9,0.2C84.8,67.2,84.7,67.3,84.5,67.3L84.5,67.3z"/>
<path class="st34" d="M66.7,39.9l15.2,0l-1.7,2.2l-1.3,1.7L66.7,39.9z"/>
<path class="st28" d="M50.5,36.2l0.9,0l0,36l-1.5,0c-0.1,0-0.4,0-0.5,0l1.1,0L50.5,36.2z"/>
<path class="st43" d="M97.1,50c0.9-0.1,1.8,0.2,2.5,0.7c0.7,0.4,1.2,1.1,1.4,1.9c0.2,0.9,0,1.7-0.4,2.5c-0.5,0.9-1.3,1.3-2.2,1.6
	c-1,0.2-1.7,0-2.5-0.5c-0.7-0.4-1.3-1.2-1.4-2l0-0.1l0-0.1c-0.2-0.9,0-1.7,0.5-2.5C95.4,50.7,96.1,50.2,97.1,50z"/>
<path class="st46" d="M98.1,50.6c0.3,0,0.7,0,1,0.1c0.6,0.2,1,0.7,1.3,1.3c0.2,0.4,0.2,0.8,0,1.2c-0.2,0.4-0.5,0.6-0.9,0.7
	c-0.4,0.1-0.8,0-1.2-0.2c-0.5-0.2-0.9-0.6-1-1.1c-0.2-0.4-0.2-0.9,0-1.2C97.4,51,97.7,50.8,98.1,50.6z"/>
<linearGradient id="SVGID_00000101794337079060507060000016350425129083826874_" gradientUnits="userSpaceOnUse" x1="104.8116" y1="65.5444" x2="113.2066" y2="67.7477" gradientTransform="matrix(1 0 0 -1 0 111.276)">
	<stop  offset="0" style="stop-color:#606166"/>
	<stop  offset="1" style="stop-color:#848586"/>
</linearGradient>
<path style="fill:url(#SVGID_00000101794337079060507060000016350425129083826874_);" d="M112.2,40.2l0.3,0.3l0,3.1l0,1.5
	c0,0,0,0.2,0,0.2c0,0.1-0.2,0.1-0.2,0.2l-0.5,0.4l-4,2.8l-0.1-0.4l-0.1-0.4c0-0.1,0-0.1-0.1-0.2c-0.2-0.3-0.5-0.5-0.8-0.8l-2.2-2.1
	l3.7-2.6c0.2-0.2,0.4-0.4,0.7-0.6c0.2-0.2,0.4-0.4,0.7-0.5c0.4-0.1,0.8,0,1.2,0.2l0.2,0.1c0.4-0.3,0.8-0.6,1.1-0.9L112.2,40.2
	L112.2,40.2z"/>
<path class="st28" d="M108.1,42c0.2-0.2,0.4-0.4,0.7-0.6c-0.2,0.5-0.4,0.9-0.2,1.4c0.1,0.4,0.5,0.7,0.8,0.8c0.3,0.1,0.6,0.1,0.9,0
	c0.4-0.2,0.8-0.5,0.9-1c0-0.1,0.1-0.3,0.1-0.4l0,0l0,0c0.1,0.1,0.1,0.2,0,0.3c-0.1,0.7-0.8,1.3-1.3,1.7c-0.4,0.3-0.8,0.4-1.3,0.3
	c-0.4-0.1-0.7-0.3-0.9-0.7c-0.2-0.3-0.2-0.8-0.1-1.1l0,0C107.9,42.5,108,42.3,108.1,42z"/>
<path class="st34" d="M107.6,48.2c1.4-1.3,2.7-2.8,4.2-4c0.2-0.2,0.5-0.5,0.7-0.6l0,1.5c0,0,0,0.2,0,0.2c0,0.1-0.2,0.1-0.2,0.2
	l-0.5,0.4l-4,2.8L107.6,48.2z"/>
<path class="st48" d="M108.8,41.5c0.2-0.2,0.4-0.4,0.7-0.5c0.4-0.1,0.8,0,1.2,0.2l0.2,0.1c0.2,0.3,0.5,0.7,0.4,1.1
	c0,0.1,0,0.3-0.1,0.4c-0.1,0.4-0.5,0.8-0.9,1c-0.3,0.1-0.6,0.2-0.9,0c-0.3-0.1-0.7-0.5-0.8-0.8C108.4,42.4,108.5,42,108.8,41.5z"/>
<path class="st43" d="M110.8,42c0.1,0.3,0.1,0.5-0.1,0.8c-0.2,0.3-0.5,0.4-0.8,0.5c-0.3-0.1-0.6-0.2-0.8-0.6c0-0.1-0.1-0.2-0.1-0.3
	c0.3,0,1.6,0.1,1.7,0C110.7,42.3,110.7,42.2,110.8,42L110.8,42z"/>
<path class="st49" d="M109,42.5c0-0.2,0-0.3,0-0.5c0.1-0.3,0.3-0.5,0.5-0.6c0.2-0.1,0.4-0.1,0.6,0c0.3,0.1,0.5,0.4,0.6,0.6l0,0.1
	c0,0.1,0,0.2,0,0.4C110.6,42.5,109.3,42.5,109,42.5z"/>
<path class="st34" d="M59.6,56.1l6.9,8.3l2.1,2.6c0.2,0.3,0.6,0.6,0.7,0.9l-0.1,0c-0.4,0-3.8,0-3.9,0c-0.5-0.5-0.9-1-1.3-1.5
	l-2.8-3.3l-1.2-1.3c-0.1-0.1-0.3-0.3-0.3-0.4c0-0.1,0-0.2,0-0.3l0-0.9L59.6,56.1z"/>
<path class="st50" d="M49.4,72.2c-0.1-0.2,0-0.4,0-0.5l0-1.2l0-4.6l0-29.6l1.1,0l0,35.9L49.4,72.2z"/>
<path class="st34" d="M81.8,48.1l1.9-1.1l6.4-3.6l5-2.9c0.1,0,0.1,0,0.2,0L93,42.4l-1.5,1.4l-3,2.6c-0.3,0.3-0.9,0.7-1,1
	c-0.2,0.3-0.2,0.8-0.2,1.1L87,50.3l-0.3,2.1c-0.1,0.5-0.2,1-0.2,1.5c0,0.2,0.1,0.5,0.1,0.7l0.3,1c0.2,0.8,0.5,1.6,0.7,2.5L81.8,48.1
	z"/>
<path class="st29" d="M59.7,54.9L59.7,54.9c0.6,0.4,1.5,0.4,2.2,0.6l2.1,0.4l8.8,1.6c-0.2,0.2-0.5,0.3-0.7,0.5l-1.8,1.2l-4.8,3.2
	c-0.6-0.6-1.1-1.3-1.6-1.9l-1.7-2.1l-2.6-3.2l0-2.8l0,1.7c0,0.2,0,0.4,0,0.6C59.6,54.9,59.6,54.9,59.7,54.9z"/>
<path class="st44" d="M81.2,47.2l5.4-7.2l9.3,0c-0.1,0.2-0.5,0.5-0.7,0.6c-0.1,0-0.1,0-0.2,0l-5,2.9L83.7,47l-1.9,1.1L81.2,47.2z"/>
<path class="st31" d="M87.5,61.3L87.5,61.3c0.1,0.1,0.1,0.1,0.1,0.1c0,0.1,0,0.2,0,0.2c0,0.1-0.2,0.3-0.2,0.4l-0.5,0.8
	c-1.1,1.7-2.1,3.4-3.2,5l-13.7,0l-3.2-4l-0.3-0.4c0.5,0.2,1.1,0.4,1.6,0.6l2.7,0.9l6.8,2.3L87.5,61.3z"/>
<path class="st33" d="M73.3,57.8l3.5,7.8l0.4,0.9c0,0.1,0.1,0.2,0.1,0.3c0,0,0.1,0,0.1,0.1c0,0-0.1,0-0.1,0c-0.1,0-0.5-0.1-0.6-0.2
	l-2.9-1l-6.2-2l-1.9-0.7c0.1-0.1,0.3-0.2,0.4-0.3l0.8-0.5l4.4-2.9l1.4-0.9C72.8,58.1,73.1,58,73.3,57.8L73.3,57.8z"/>
<path class="st45" d="M65.9,37.3l0-0.2c0.2-0.1,1.3-0.1,1.6-0.1l6.1,0l23.7,0l11.9,0l1.6,1.7l0,0c-0.3,0.2-4-0.1-4.7-0.1l-5.2-0.1
	l-2.5,0l-7.9-0.2L87,38.1l-8.9-0.3l-4.6-0.2l-5-0.1l-1.6-0.1C66.6,37.3,66.2,37.4,65.9,37.3z"/>
<path class="st36" d="M73.3,57.8c0,0,0.1-0.1,0.2-0.1c0.1,0,0.3,0.1,0.3,0.1l1.5,0.4l4.9,1.4l6.2,1.7l-9,5.4c0,0-0.1,0-0.1-0.1
	c0-0.1-0.1-0.2-0.1-0.3l-0.4-0.9L73.3,57.8z"/>
<path class="st31" d="M109.9,62.6l2.6,2l0,3.3l-15.9,0l0.7-1.5L109.9,62.6z"/>
<path class="st48" d="M109.7,64.7c0.3,0,0.5,0,0.8,0.2c0.4,0.2,0.7,0.6,0.8,1c0.1,0.3,0,0.6-0.1,0.9c-0.2,0.4-0.5,0.5-0.9,0.6
	c-0.3,0-0.5,0-0.8-0.2c-0.4-0.2-0.7-0.5-0.8-0.9c-0.1-0.3-0.1-0.7,0.1-1C108.9,65,109.3,64.8,109.7,64.7z"/>
<path class="st51" d="M110.6,65.6c0.1,0.2,0.1,0.4,0.1,0.6c-0.1,0.3-0.2,0.4-0.4,0.6c-0.2,0.1-0.5,0.1-0.7,0.1
	c-0.2-0.1-0.3-0.2-0.5-0.4c0.1,0,0.2,0,0.3-0.1c0.3-0.1,0.7-0.4,0.8-0.7l0,0C110.4,65.6,110.5,65.6,110.6,65.6z"/>
<path class="st43" d="M109.1,66.5c-0.1-0.2-0.2-0.4-0.1-0.7c0-0.2,0.1-0.4,0.3-0.5c0.2-0.2,0.5-0.2,0.7-0.2c0.3,0,0.5,0.3,0.6,0.5
	c-0.1,0-0.3,0-0.4,0l0,0c-0.1,0.3-0.5,0.6-0.8,0.7C109.3,66.4,109.2,66.5,109.1,66.5z"/>
<path class="st52" d="M65.9,37.3c0.4,0.1,0.7,0,1.1,0.1l1.6,0.1l5,0.1l4.6,0.2l8.9,0.3l3.5,0.1l7.9,0.2l2.5,0l5.2,0.1
	c0.6,0,4.4,0.2,4.7,0.1l0,0h0l0.7,0.7l-45.7,0.1L65.9,37.3z"/>
<path class="st31" d="M48,33c0.2-0.1,0.5,0,0.8,0c0.5,0,1,0,1.5,0l0.3,0l0,2.2l-0.8,0c-0.1,0-0.3,0-0.4,0c-0.1,0-0.2,0.1-0.2,0.2
	c-0.1,0.1-0.1,0.1-0.2,0.2c-0.1,0.2,0,0.5,0,0.8l0,1.5l0,6.6l0,27.6c0,0.2,0,0.4,0.2,0.5l0,0c0.1,0.2,0,0.6,0,0.9c0,0.5,0,1,0,1.4
	l-1.4,0c-0.1,0-0.1-0.1-0.2-0.2c-0.1-0.3-0.1-2.8-0.1-3.3l0-7l0-23.4l0-6l0-1.2c0-0.2,0-0.4,0-0.6l0-0.1C47.7,33.1,47.8,33.1,48,33z
	"/>
<path class="st33" d="M48,33l2.1,0l-2.5,2.2l0-1.8l0-0.1C47.7,33.1,47.8,33.1,48,33z"/>
<path class="st36" d="M77.9,46.2l-4.5,11L61.3,55L77.9,46.2z"/>
<path class="st34" d="M53.9,76.8L52,78.4L52,31.2l7,5.2c-0.2,0.4-0.6,0.8-0.9,1.2l-0.1,0L53.9,34L53.9,76.8z"/>
<path class="st28" d="M53.9,76.8l0-42.8l4.2,3.4l0.1,0l-2.6,3.2l0,4.9l0,2.2c-0.1,0.2,0,0.4,0,0.6l0,1.4c0,0.6-0.1,1.3,0,1.9l0,0.4
	l0,4.7l0,1.6l0,1.9c0,0.2,0,0.4,0,0.6c0,0,0.1,0.1,0.1,0.1l0.5,0.5l2.4,2.5l0.2,0.2l0,0.1c0.1,0.6,0.1,1.3,0.1,1.9L56.7,64
	c-0.2-0.2-0.5-0.6-0.8-0.7c-0.1,0-0.2,0-0.3,0.1c0,0.1-0.1,0.1-0.1,0.2c0,0.3,0,0.6,0,0.8l0,1.5c0,0.8-0.1,1.7,0,2.6
	c0,0.3,3,3.2,3.4,3.7L53.9,76.8z"/>
<path class="st28" d="M81.4,48.3L83,51l2.8,4.7l1.4,2.4c0.2,0.4,0.5,0.8,0.7,1.1c0.2,0.4,0.3,0.9,0.5,1.3l0,0l-0.7,0.4
	c-0.1,0-0.2,0.1-0.3,0.1c-0.1,0-0.5-0.1-0.6-0.2l-2.8-0.8l-9.9-2.7l5.2-12.8l1.4,2.3L81.4,48.3z"/>
<path class="st33" d="M80.5,46.8l0.9,1.6l-5.1,5.5c0.6-1.4,1.5-2.7,2.3-4.1L80.5,46.8z"/>
<path class="st28" d="M70.7,68.3l32.5,0l2.7,4.5l-0.1,0.1l-17.1,0.1l-1.3-2.3l-16.6,0L70.7,68.3z"/>
<path class="st28" d="M59.6,52.5l0-6.5c0.2-0.3,0.5-0.5,0.7-0.8l1.3-1.3l2.5-2.6c0.4-0.4,0.9-1,1.4-1.3c0.1,0,0.1,0,0.2,0l10,3.3
	l1.7,0.6c0.3,0.1,0.6,0.2,0.9,0.3L59.7,54.9l0,0c0,0-0.1-0.1-0.1-0.1c0-0.2,0-0.4,0-0.6L59.6,52.5z"/>
<path class="st33" d="M75.8,43.3l1.7,0.6c0,0-0.1,0.1-0.1,0.1c-0.2,0.2-0.6,0.4-0.9,0.6l-2.1,1.2l-4.7,2.6l-4.2,2.1l-1.1,0.5
	c-0.1,0.1-0.3,0.2-0.5,0.2L75.8,43.3z"/>
<path class="st31" d="M59.6,52.5l0-6.5c0.2-0.3,0.5-0.5,0.7-0.8l1.3-1.3l2.5-2.6c0.4-0.4,0.9-1,1.4-1.3c0.1,0,0.1,0,0.2,0
	c-0.2,0.4-0.3,0.8-0.5,1.1l-1,2.4l-2.1,5.3l-1.8,4.5c-0.2,0.5-0.5,1-0.6,1.6l0,0c0,0-0.1-0.1-0.1-0.1c0-0.2,0-0.4,0-0.6L59.6,52.5z"
	/>
<path class="st53" d="M150.3,27V13.4l-11.7-6.8l-11.8,6.8V27l11.8,6.8L150.3,27z"/>
<path class="st53" d="M145.4,24.2v-7.9l-6.9-4l-6.9,4v7.9l6.9,4L145.4,24.2z"/>
<linearGradient id="SVGID_00000072968440528680480200000005002158170353951363_" gradientUnits="userSpaceOnUse" x1="138.5845" y1="88.0899" x2="138.5845" y2="94.0544" gradientTransform="matrix(1 0 0 -1 0 111.276)">
	<stop  offset="0" style="stop-color:#9C3600"/>
	<stop  offset="4.000000e-02" style="stop-color:#A44401"/>
	<stop  offset="0.25" style="stop-color:#CD8909"/>
	<stop  offset="0.4" style="stop-color:#E7B40D"/>
	<stop  offset="0.48" style="stop-color:#F1C40F"/>
	<stop  offset="0.53" style="stop-color:#F2C615"/>
	<stop  offset="0.6" style="stop-color:#F3CC25"/>
	<stop  offset="0.67" style="stop-color:#F7D53F"/>
	<stop  offset="0.75" style="stop-color:#FBE363"/>
	<stop  offset="0.81" style="stop-color:#FFF088"/>
	<stop  offset="1" style="stop-color:#FFF8D6"/>
</linearGradient>
<path style="fill:url(#SVGID_00000072968440528680480200000005002158170353951363_);" d="M141.2,21.7v-3l-2.6-1.5l-2.6,1.5v3
	l2.6,1.5L141.2,21.7z"/>
<path class="st55" d="M138.6,12.3V6.6l11.8,6.8l-4.9,2.8L138.6,12.3z"/>
<path class="st56" d="M145.4,24.2v-7.9l4.9-2.8V27L145.4,24.2z"/>
<path class="st57" d="M138.6,28.1v5.6l11.8-6.8l-4.9-2.8L138.6,28.1z"/>
<path class="st56" d="M131.7,24.2l-4.9,2.8l11.8,6.8v-5.6L131.7,24.2z"/>
<path class="st55" d="M126.8,13.4l4.9,2.8v7.9l-4.9,2.8V13.4z"/>
<path class="st58" d="M138.6,12.3l-6.9,4l-4.9-2.8l11.8-6.8V12.3z"/>
<path class="st59" d="M150.3,13.4l-5.2,2.6l-6.3-3.7l-0.2-5.8l-0.2,5.8l-6.3,3.7l-5.2-2.6l4.9,2.8v2.8c0.1-0.9,0.2-1.8,0.3-2.6
	l6.6-3.6l6.6,3.6c0.1,0.9,0.2,1.8,0.3,2.6v-2.8l0.1,0L150.3,13.4z"/>
<path class="st60" d="M138.6,5.1l0.7,0.4l11.7,6.8l0.7,0.4v15.1l-0.7,0.4l-11.7,6.8l-0.7,0.4l-0.7-0.4l-11.7-6.8l-0.7-0.4V12.7
	l0.7-0.4l11.7-6.8L138.6,5.1z M138.6,4.4c-0.1,0-0.3,0-0.4,0.1l-0.7,0.4l-11.7,6.8l-0.7,0.4c-0.1,0.1-0.2,0.2-0.3,0.3
	c-0.1,0.1-0.1,0.3-0.1,0.4v15.1c0,0.1,0,0.3,0.1,0.4c0.1,0.1,0.2,0.2,0.3,0.3l0.7,0.4l11.7,6.8l0.7,0.4c0.1,0.1,0.3,0.1,0.4,0.1
	c0.1,0,0.3,0,0.4-0.1l0.7-0.4l11.8-6.8l0.7-0.4c0.1-0.1,0.2-0.2,0.3-0.3c0.1-0.1,0.1-0.3,0.1-0.4V12.7c0-0.1,0-0.3-0.1-0.4
	c-0.1-0.1-0.2-0.2-0.3-0.3l-0.7-0.4l-11.7-6.8L139,4.5C138.9,4.4,138.7,4.4,138.6,4.4L138.6,4.4z"/>
<linearGradient id="SVGID_00000047032035595832980250000014422934680146724002_" gradientUnits="userSpaceOnUse" x1="138.5845" y1="75.9997" x2="138.5845" y2="106.1439" gradientTransform="matrix(1 0 0 -1 0 111.276)">
	<stop  offset="0" style="stop-color:#9C3600"/>
	<stop  offset="4.000000e-02" style="stop-color:#A44401"/>
	<stop  offset="0.25" style="stop-color:#CD8909"/>
	<stop  offset="0.4" style="stop-color:#E7B40D"/>
	<stop  offset="0.48" style="stop-color:#F1C40F"/>
	<stop  offset="0.53" style="stop-color:#F2C615"/>
	<stop  offset="0.6" style="stop-color:#F3CC25"/>
	<stop  offset="0.67" style="stop-color:#F7D53F"/>
	<stop  offset="0.75" style="stop-color:#FBE363"/>
	<stop  offset="0.81" style="stop-color:#FFF088"/>
	<stop  offset="1" style="stop-color:#FFF8D6"/>
</linearGradient>
<path style="fill:url(#SVGID_00000047032035595832980250000014422934680146724002_);" d="M151,12.3l-11.7-6.8l-0.7-0.4l-0.7,0.4
	l-11.7,6.8l-0.7,0.4v15.1l0.7,0.4l11.7,6.8l0.7,0.4l0.7-0.4l11.7-6.8l0.7-0.4V12.7L151,12.3z M138.6,30.9l-1.7,2l-8.4-4.9l0.9-2.4
	l-2.5-0.5v-9.7l2.5-0.5l-0.9-2.4l8.4-4.9l1.7,2l1.7-2l8.4,4.9l-0.9,2.4l2.5,0.5v9.7l-2.5,0.5l0.9,2.4l-8.4,4.9L138.6,30.9z"/>
<path class="st60" d="M150.3,15.3l-2.5-0.5l0.9-2.4l-8.4-4.9l-1.7,2l-1.7-2l-8.4,4.9l0.9,2.4l-2.5,0.5v9.7l2.5,0.5l-0.9,2.4l8.4,4.9
	l1.7-2l1.7,2l8.4-4.9l-0.9-2.4l2.5-0.5L150.3,15.3z M140.4,8.3l7.7,4.4l-0.7,2c0,0.1,0,0.1,0,0.2l-5.9,3.4l-2.6-1.5V10
	c0.1,0,0.1-0.1,0.1-0.1L140.4,8.3z M138.6,23.2l-2.6-1.5v-3l2.6-1.5l2.6,1.5v3L138.6,23.2z M136.8,8.3l1.4,1.6c0,0,0.1,0.1,0.1,0.1
	v6.8l-2.6,1.5l-5.9-3.4c0-0.1,0-0.1,0-0.2l-0.7-2L136.8,8.3z M127.4,15.8l2.1-0.4c0.1,0,0.1,0,0.2-0.1l5.9,3.4v3l-5.9,3.4
	c-0.1,0-0.1-0.1-0.2-0.1l-2.1-0.4V15.8z M136.8,32.1l-7.7-4.4l0.7-2c0-0.1,0-0.1,0-0.2l5.9-3.4l2.6,1.5v6.8c-0.1,0-0.1,0.1-0.1,0.1
	L136.8,32.1z M148,27.7l-7.7,4.4l-1.4-1.6c0,0-0.1-0.1-0.1-0.1v-6.8l2.6-1.5l5.9,3.4c0,0.1,0,0.1,0,0.2L148,27.7z M149.8,24.6
	l-2.1,0.4c-0.1,0-0.1,0-0.2,0.1l-5.9-3.4v-3l5.9-3.4c0.1,0,0.1,0.1,0.2,0.1l2.1,0.4V24.6z"/>
<path class="st53" d="M150.3,26.6V13.1l-11.7-6.8l-11.8,6.8v13.6l11.8,6.8L150.3,26.6z"/>
<path class="st53" d="M145.4,23.8v-7.9l-6.9-4l-6.9,4v7.9l6.9,4L145.4,23.8z"/>
<linearGradient id="SVGID_00000060743282588843513180000000567433185218728076_" gradientUnits="userSpaceOnUse" x1="138.5845" y1="88.43" x2="138.5845" y2="94.3945" gradientTransform="matrix(1 0 0 -1 0 111.276)">
	<stop  offset="0" style="stop-color:#686868"/>
	<stop  offset="4.000000e-02" style="stop-color:#5D5D5D"/>
	<stop  offset="0.25" style="stop-color:#8B8B8B"/>
	<stop  offset="0.4" style="stop-color:#8D8D8D"/>
	<stop  offset="0.48" style="stop-color:#A0A0A0"/>
	<stop  offset="0.53" style="stop-color:#C0C0C0"/>
	<stop  offset="0.6" style="stop-color:#ABABAB"/>
	<stop  offset="0.67" style="stop-color:#BDBDBD"/>
	<stop  offset="0.75" style="stop-color:#C2C2C2"/>
	<stop  offset="0.81" style="stop-color:#D8D8D8"/>
	<stop  offset="1" style="stop-color:#FFFFFF"/>
</linearGradient>
<path style="fill:url(#SVGID_00000060743282588843513180000000567433185218728076_);" d="M141.2,21.4v-3l-2.6-1.5l-2.6,1.5v3
	l2.6,1.5L141.2,21.4z"/>
<path class="st55" d="M138.6,11.9V6.3l11.8,6.8l-4.9,2.8L138.6,11.9z"/>
<path class="st56" d="M145.4,23.8v-7.9l4.9-2.8v13.6L145.4,23.8z"/>
<path class="st57" d="M138.6,27.8v5.6l11.8-6.8l-4.9-2.8L138.6,27.8z"/>
<path class="st56" d="M131.7,23.8l-4.9,2.8l11.8,6.8v-5.6L131.7,23.8z"/>
<path class="st55" d="M126.8,13.1l4.9,2.8v7.9l-4.9,2.8V13.1z"/>
<path class="st58" d="M138.6,11.9l-6.9,4l-4.9-2.8l11.8-6.8V11.9z"/>
<path class="st59" d="M150.3,13.1l-5.2,2.6l-6.3-3.7l-0.2-5.8l-0.2,5.8l-6.3,3.7l-5.2-2.6l4.9,2.8v2.8c0.1-0.9,0.2-1.8,0.3-2.6
	l6.6-3.6l6.6,3.6c0.1,0.9,0.2,1.8,0.3,2.6v-2.8l0.1,0L150.3,13.1z"/>
<path class="st63" d="M138.6,4.8l0.7,0.4L151,12l0.7,0.4v15.1l-0.7,0.4l-11.7,6.8l-0.7,0.4l-0.7-0.4l-11.7-6.8l-0.7-0.4V12.3
	l0.7-0.4l11.7-6.8L138.6,4.8z M138.6,4c-0.1,0-0.3,0-0.4,0.1l-0.7,0.4l-11.7,6.8l-0.7,0.4c-0.1,0.1-0.2,0.2-0.3,0.3
	c-0.1,0.1-0.1,0.3-0.1,0.4v15.1c0,0.1,0,0.3,0.1,0.4c0.1,0.1,0.2,0.2,0.3,0.3l0.7,0.4l11.7,6.8l0.7,0.4c0.1,0.1,0.3,0.1,0.4,0.1
	c0.1,0,0.3,0,0.4-0.1l0.7-0.4l11.8-6.8l0.7-0.4c0.1-0.1,0.2-0.2,0.3-0.3s0.1-0.3,0.1-0.4V12.3c0-0.1,0-0.3-0.1-0.4s-0.2-0.2-0.3-0.3
	l-0.7-0.4l-11.7-6.8L139,4.1C138.9,4,138.7,4,138.6,4L138.6,4z"/>
<linearGradient id="SVGID_00000097495598045190991760000015304639221003582346_" gradientUnits="userSpaceOnUse" x1="138.5845" y1="76.3398" x2="138.5845" y2="106.484" gradientTransform="matrix(1 0 0 -1 0 111.276)">
	<stop  offset="0" style="stop-color:#686868"/>
	<stop  offset="4.000000e-02" style="stop-color:#5D5D5D"/>
	<stop  offset="0.25" style="stop-color:#8B8B8B"/>
	<stop  offset="0.4" style="stop-color:#8D8D8D"/>
	<stop  offset="0.48" style="stop-color:#A0A0A0"/>
	<stop  offset="0.53" style="stop-color:#C0C0C0"/>
	<stop  offset="0.6" style="stop-color:#ABABAB"/>
	<stop  offset="0.67" style="stop-color:#BDBDBD"/>
	<stop  offset="0.75" style="stop-color:#C2C2C2"/>
	<stop  offset="0.81" style="stop-color:#D8D8D8"/>
	<stop  offset="1" style="stop-color:#FFFFFF"/>
</linearGradient>
<path style="fill:url(#SVGID_00000097495598045190991760000015304639221003582346_);" d="M151,12l-11.7-6.8l-0.7-0.4l-0.7,0.4
	L126.2,12l-0.7,0.4v15.1l0.7,0.4l11.7,6.8l0.7,0.4l0.7-0.4l11.7-6.8l0.7-0.4V12.3L151,12z M138.6,30.5l-1.7,2l-8.4-4.9l0.9-2.4
	l-2.5-0.5V15l2.5-0.5l-0.9-2.4l8.4-4.9l1.7,2l1.7-2l8.4,4.9l-0.9,2.4l2.5,0.5v9.7l-2.5,0.5l0.9,2.4l-8.4,4.9L138.6,30.5z"/>
<path class="st63" d="M150.3,15l-2.5-0.5l0.9-2.4l-8.4-4.9l-1.7,2l-1.7-2l-8.4,4.9l0.9,2.4l-2.5,0.5v9.7l2.5,0.5l-0.9,2.4l8.4,4.9
	l1.7-2l1.7,2l8.4-4.9l-0.9-2.4l2.5-0.5L150.3,15z M140.4,7.9l7.7,4.4l-0.7,2c0,0.1,0,0.1,0,0.2l-5.9,3.4l-2.6-1.5V9.7
	c0.1,0,0.1-0.1,0.1-0.1L140.4,7.9z M138.6,22.8l-2.6-1.5v-3l2.6-1.5l2.6,1.5v3L138.6,22.8z M136.8,7.9l1.4,1.6c0,0,0.1,0.1,0.1,0.1
	v6.8l-2.6,1.5l-5.9-3.4c0-0.1,0-0.1,0-0.2l-0.7-2L136.8,7.9z M127.4,15.4l2.1-0.4c0.1,0,0.1,0,0.2-0.1l5.9,3.4v3l-5.9,3.4
	c-0.1,0-0.1-0.1-0.2-0.1l-2.1-0.4V15.4z M136.8,31.8l-7.7-4.4l0.7-2c0-0.1,0-0.1,0-0.2l5.9-3.4l2.6,1.5v6.8c-0.1,0-0.1,0.1-0.1,0.1
	L136.8,31.8z M148,27.4l-7.7,4.4l-1.4-1.6c0,0-0.1-0.1-0.1-0.1v-6.8l2.6-1.5l5.9,3.4c0,0.1,0,0.1,0,0.2L148,27.4z M149.8,24.3
	l-2.1,0.4c-0.1,0-0.1,0-0.2,0.1l-5.9-3.4v-3l5.9-3.4c0.1,0,0.1,0.1,0.2,0.1l2.1,0.4V24.3z"/>
</svg>
