<?xml version="1.0" encoding="utf-8"?>
<!-- Generator: Adobe Illustrator 27.1.1, SVG Export Plug-In . SVG Version: 6.00 Build 0)  -->
<svg version="1.1" id="Слой_1" xmlns="http://www.w3.org/2000/svg" xmlns:xlink="http://www.w3.org/1999/xlink" x="0px" y="0px"
	 viewBox="0 0 159 109" style="enable-background:new 0 0 159 109;" xml:space="preserve">
<style type="text/css">
	.st0{fill:#66FECB;}
	.st1{fill:#5EDEB3;}
	.st2{fill:#01B478;}
	.st3{fill:#1DCE92;}
	.st4{fill:#2AFFB7;}
	.st5{fill:#FFFFFF;}
	.st6{fill:#003725;}
	.st7{fill-rule:evenodd;clip-rule:evenodd;fill:#FFFFFF;}
	.st8{fill-rule:evenodd;clip-rule:evenodd;fill:#FFFFFF;filter:url(#Adobe_OpacityMaskFilter);}
	.st9{mask:url(#path-10-inside-1_117_3621_00000063609420546351101510000005415754102395847340_);fill:#C2C2C2;}
	.st10{fill:#786705;}
	.st11{fill:#36B68D;}
	.st12{fill:#DB4853;}
	.st13{fill:#1A1A1A;}
	.st14{fill:#26D0C5;}
	.st15{fill:#807B0A;}
	.st16{fill:#959D0C;}
	.st17{fill:#A73146;}
	.st18{fill:#5C1B2B;}
	.st19{fill:#F8EB2F;}
	.st20{fill:#279478;}
	.st21{fill:#07D8E9;}
	.st22{fill:#61E1B7;}
	.st23{fill:#B6881A;}
	.st24{fill:#DDE0D6;}
	.st25{fill:#DB6453;}
	.st26{fill:#A2A799;}
	.st27{fill:#3E5E65;}
</style>
<g>
	<path class="st0" d="M150.3,27.1V13.6l-11.7-6.8l-11.8,6.8v13.6l11.8,6.8L150.3,27.1z"/>
	<path class="st0" d="M145.4,24.3v-7.9l-6.9-4l-6.9,4v7.9l6.9,4L145.4,24.3z"/>
	<path class="st1" d="M138.5,12.4V6.8l11.8,6.8l-4.9,2.8L138.5,12.4z"/>
	<path class="st2" d="M145.4,24.3v-7.9l4.9-2.8v13.6L145.4,24.3z"/>
	<path class="st3" d="M138.5,28.3v5.6l11.8-6.8l-4.9-2.8L138.5,28.3z"/>
	<path class="st2" d="M131.7,24.3l-4.9,2.8l11.8,6.8v-5.6L131.7,24.3z"/>
	<path class="st4" d="M138.5,12.4l-6.9,4l-4.9-2.8l11.8-6.8V12.4z"/>
	<path class="st5" d="M150.3,13.6l-5.2,2.6l-6.3-3.7l-0.2-5.8l-0.2,5.8l-6.3,3.7l-5.2-2.6l4.9,2.8v2.8c0.1-0.9,0.2-1.8,0.3-2.6
		l6.6-3.6l6.6,3.6c0.1,0.9,0.2,1.8,0.3,2.6v-2.8l0.1,0L150.3,13.6z"/>
	<path class="st6" d="M138.5,6.8l11.8,6.8v13.6l-11.8,6.8l-11.7-6.8V13.6L138.5,6.8z M138.5,6c-0.1,0-0.3,0-0.4,0.1l-11.8,6.8
		c-0.1,0.1-0.2,0.2-0.3,0.3c-0.1,0.1-0.1,0.3-0.1,0.4v13.6c0,0.1,0,0.3,0.1,0.4c0.1,0.1,0.2,0.2,0.3,0.3l11.8,6.8
		c0.1,0.1,0.3,0.1,0.4,0.1c0.1,0,0.3,0,0.4-0.1l11.7-6.8c0.1-0.1,0.2-0.2,0.3-0.3c0.1-0.1,0.1-0.3,0.1-0.4V13.6c0-0.1,0-0.3-0.1-0.4
		c-0.1-0.1-0.2-0.2-0.3-0.3l-11.7-6.8C138.8,6,138.7,6,138.5,6L138.5,6z"/>
</g>
<path class="st7" d="M118.2,12c0-6.6-5.4-12-12-12h-94c-6.6,0-12,5.4-12,12v84.3c0,6.6,5.4,12,12,12h134c6.6,0,12-5.4,12-12V52
	c0-6.6-5.4-12-12-12h-16c-6.6,0-12-5.4-12-12V12z"/>
<defs>
	<filter id="Adobe_OpacityMaskFilter" filterUnits="userSpaceOnUse" x="-0.8" y="-1" width="160" height="110.3">
		<feColorMatrix  type="matrix" values="1 0 0 0 0  0 1 0 0 0  0 0 1 0 0  0 0 0 1 0"/>
	</filter>
</defs>
<mask maskUnits="userSpaceOnUse" x="-0.8" y="-1" width="160" height="110.3" id="path-10-inside-1_117_3621_00000063609420546351101510000005415754102395847340_">
	<path class="st8" d="M118.2,12c0-6.6-5.4-12-12-12h-94c-6.6,0-12,5.4-12,12v84.3c0,6.6,5.4,12,12,12h134c6.6,0,12-5.4,12-12V52
		c0-6.6-5.4-12-12-12h-16c-6.6,0-12-5.4-12-12V12z"/>
</mask>
<path class="st9" d="M12.2,1h94v-2h-94V1z M1.2,96.3V12h-2v84.3H1.2z M146.2,107.3h-134v2h134V107.3z M157.2,52v44.3h2V52H157.2z
	 M146.2,39h-16v2h16V39z M119.2,28V12h-2v16H119.2z M130.2,39c-6.1,0-11-4.9-11-11h-2c0,7.2,5.8,13,13,13V39z M159.2,52
	c0-7.2-5.8-13-13-13v2c6.1,0,11,4.9,11,11H159.2z M146.2,109.3c7.2,0,13-5.8,13-13h-2c0,6.1-4.9,11-11,11V109.3z M-0.8,96.3
	c0,7.2,5.8,13,13,13v-2c-6.1,0-11-4.9-11-11H-0.8z M106.2,1c6.1,0,11,4.9,11,11h2c0-7.2-5.8-13-13-13V1z M12.2-1
	c-7.2,0-13,5.8-13,13h2c0-6.1,4.9-11,11-11V-1z"/>
<path d="M79.5,24.7l9.6,6.3l0,0.9l1.5,1c0.2-0.2,0.3-0.3,0.5-0.4l2.6,1.7l0,0.8c0.2,0.2,0.5,0.3,0.7,0.5l1.4,0.9l5.9,3.8l0,1
	l5.1,3.4l0,19.9l-4.8,3.2l0,0.9c-0.1,0.1-0.3,0.2-0.4,0.3l-0.9,0.6l-4.4,2.9l-1.7,1.1c-0.3,0.2-0.6,0.4-0.8,0.6l0,0.7l-2.8,1.9
	l-0.4-0.3c-0.2,0.1-0.4,0.2-0.5,0.3l-1,0.7l0,0.7c-0.4,0.2-0.7,0.4-1,0.6l-1.7,1.1l-6.8,4.4l-0.2-0.2l-9.3-6l0-0.8
	c-0.1-0.2-0.5-0.3-0.6-0.4l-1-0.7l-0.7,0.5L65.3,75l0-1.1L57,68.7l0-1.1l-4.8-3.1l0-19.9l5-3.3l0-1.1l7.9-5.2l0-0.9l3.1-2l0,0.8
	l1.6-1.1l0-0.8L79.5,24.7z"/>
<path class="st10" d="M68.8,44c0.1,0,0.1,0,0.2,0.1c0,0.1,0.1,0.2,0,0.2c0,0.1-0.1,0.1-0.2,0.1c0,0-0.1,0-0.1,0
	c-0.1,0-0.1-0.1-0.2-0.1c0,0,0-0.1,0-0.1C68.6,44.1,68.7,44,68.8,44z"/>
<path class="st11" d="M93.8,44.6l0.7,0.4l0,4.8c-0.1-0.5,0-1,0-1.5l0-3L94,44.9C93.9,44.8,93.9,44.8,93.8,44.6L93.8,44.6z"/>
<path class="st11" d="M85.2,40l0.7-0.5l0.8,0.5c-0.2,0.1-0.4,0.3-0.6,0.4L85.2,40z"/>
<path class="st12" d="M89,34c0-0.3-0.1-0.6,0-0.9l1.3,0.9l0,0.8L89,34z"/>
<path class="st13" d="M77.3,49.9l0.6,0l-1.4,1.2l-0.3,0.3l0-1.5L77.3,49.9z"/>
<path class="st14" d="M87.4,41.5l0.8-0.5l1.3,0.8l-0.5,0.4c-0.1,0-0.2,0.1-0.2,0.2c-0.1-0.1-0.3-0.2-0.4-0.3
	C88,41.9,87.7,41.7,87.4,41.5z"/>
<path class="st14" d="M91.1,43.9l0.8-0.5l1.4,0.9l-0.7,0.5L91.1,43.9z"/>
<path class="st15" d="M58.4,58.6l1.1-0.8l0,1.3c-0.3,0.3-0.7,0.5-1.1,0.7L58.4,58.6z"/>
<path class="st15" d="M58.4,49l1.1,0.7l0,1.4c-0.1-0.1-1.2-0.7-1.2-0.8c0.1-0.1,0-0.3,0-0.4L58.4,49z"/>
<path class="st14" d="M89.1,42.6c0.2-0.2,0.5-0.4,0.8-0.5l1.5,1l-0.8,0.5C90.1,43.3,89.5,43,89.1,42.6z"/>
<path class="st15" d="M100.7,60.1l-1.3-0.8l0-1.4l1.3,0.9c-0.1,0.1,0,0.3,0,0.4L100.7,60.1z"/>
<path class="st16" d="M100.8,50.2l-1.3,0.9l0-1.4c0.1-0.1,0.2-0.2,0.3-0.3l0.9-0.6L100.8,50.2z"/>
<path class="st17" d="M89,34l1.3,0.8l0-0.8c0.1,0.2,0,0.5,0,0.7l0,1.8l-1.4-0.9L89,34z"/>
<path class="st10" d="M86.8,74.5l0-2.1l0.8-0.5c0.1,0,0.2-0.1,0.3-0.2c0,0.7,0.1,5.4,0,5.6l0-3.5L86.8,74.5z"/>
<path class="st13" d="M76.2,55.5l2.4,0l-1.1,0.9l-1.3,1.1L76.2,55.5z"/>
<path class="st10" d="M71.1,77.3c0-0.1,0-0.3,0-0.4l0-0.9l0-4.4l1.1,0.7l0,2.3l-0.7-0.5c-0.1-0.1-0.2-0.2-0.4-0.2L71.1,77.3z"/>
<path class="st10" d="M66.4,70.8l0-2.2l1.2,0.8l0,4.4l0,1c0,0.1,0,0.3,0,0.4l0-3.6L66.4,70.8z"/>
<path class="st10" d="M91.4,71.5l0-1.4c0-0.2,0-0.5,0-0.8c0.4-0.3,0.8-0.6,1.3-0.8l0,3c0,0.4,0,0.8,0,1.1c0-0.2,0-0.5,0-0.7l0-1.3
	L91.4,71.5z"/>
<path class="st18" d="M68.7,72.3l0-2.2l1.3,0.8l0,4.9l0,0l0,0c0.1-0.1,0-0.4,0-0.5l0-1.5c0-0.2,0-0.4,0-0.6c0,0,0,0-0.1-0.1
	L68.7,72.3z"/>
<path class="st18" d="M89,73.1l0-2.2c0.1-0.1,1.4-0.9,1.4-0.9l0,3.9l0,0.7c0,0.1,0,0.2,0,0.3c0-0.3,0-0.6,0-0.9l0-1.9L89,73.1z"/>
<path class="st17" d="M68.7,72.3l1.3,0.8c0,0,0,0,0.1,0.1c0,0.2,0,0.4,0,0.6l0,1.5c0,0.1,0,0.4,0,0.5L68.7,75L68.7,72.3z"/>
<path class="st19" d="M71.1,77.3l0-3.3c0.1,0.1,0.3,0.2,0.4,0.2l0.7,0.5l0,3.3C71.9,77.8,71.4,77.6,71.1,77.3z"/>
<path class="st17" d="M89,73.1l1.3-0.9l0,1.9c0,0.3,0,0.6,0,0.9c-0.1,0.1-0.3,0.2-0.4,0.3L89,76L89,73.1z"/>
<path class="st19" d="M86.8,74.5l1.1-0.7l0,3.5L86.8,78L86.8,74.5z"/>
<path class="st19" d="M67.5,33.9l0,3.4c-0.1,0.1-0.3,0.2-0.4,0.3L66.3,38c-0.1-0.3,0-0.7,0-1l0-2.4L67.5,33.9z"/>
<path class="st18" d="M69.9,33.1L69.9,33.1c0.1,0.2,0.1,0.5,0.1,0.8l0,1.7l-1.6,1l0-1.1c0-0.1,0-0.3,0-0.4l0-1L69.9,33.1z"/>
<path class="st12" d="M69.9,33.1c0.1,0.2,0,0.8,0,1l-1,0.7c-0.1,0.1-0.4,0.3-0.5,0.3l0-1L69.9,33.1z"/>
<path class="st19" d="M91.4,33.9c0.4,0.2,0.8,0.5,1.2,0.8l0,3.2l-1.2-0.8c-0.1-0.3,0-0.7,0-1L91.4,33.9z"/>
<path class="st14" d="M81.9,65.5l2,2c-0.1,0.2-0.9,0.7-1.2,0.8l-2-2c0.1-0.1,0.3-0.2,0.4-0.3L81.9,65.5z"/>
<path class="st14" d="M84.2,64l2,2.1l-1.2,0.8l-2-2.1c0.1-0.1,0.3-0.2,0.4-0.3L84.2,64z"/>
<path class="st14" d="M86.3,62.5L86.3,62.5l2.1,2.1c0,0.1-0.2,0.2-0.3,0.2l-0.8,0.6l-0.1,0l-2-2.1L86.3,62.5z"/>
<path class="st19" d="M66.4,70.8l1.2,0.8l0,3.6c-0.1,0-0.3-0.1-0.4-0.2l-0.8-0.5L66.4,70.8z"/>
<path class="st19" d="M91.4,71.5l1.3-0.8l0,1.3c0,0.2,0,0.5,0,0.7l0,1.5L91.4,75L91.4,71.5z"/>
<path class="st14" d="M88.5,61L88.5,61l2.1,2.1l-1.2,0.8l-0.1,0c-0.2-0.1-0.5-0.5-0.7-0.7l-1.4-1.5L88.5,61z"/>
<path class="st14" d="M92.9,57.8l2.2,2.3l-1.1,0.8l-0.1,0l-2.1-2.2L92.9,57.8z"/>
<path class="st14" d="M90.7,59.4l2.1,2.2l-1.2,0.8l-0.1,0l-2.1-2.2L90.7,59.4z"/>
<path class="st17" d="M98.6,64.7l0.9-0.6l0-3.6l0,0l1.3,0.8l0,0l0,2.9l-0.5,0.4c0,0-0.1,0.1-0.2,0.2c-0.1,0-0.2,0-0.3,0L98.6,64.7
	l0,0.8C98.5,65.3,98.6,64.9,98.6,64.7z"/>
<path class="st19" d="M100.7,60.1l0-0.9c0-0.1,0-0.3,0-0.4l3.7,2.4c-0.1,0.4,0,0.9-0.1,1.3L100.7,60.1z"/>
<path class="st19" d="M104.5,46.4l0,0.9c0,0.1,0,0.3,0,0.4l-3.7,2.4l0-1.4L104.5,46.4z"/>
<path class="st18" d="M59.5,42.8l0,5.7l-1.2-0.8l0-4.2C58.7,43.3,59.1,43,59.5,42.8z"/>
<path class="st11" d="M77.5,36.5l1.2-0.8c0.2-0.1,0.5-0.4,0.7-0.4l5.7,3.7l-0.8,0.5l-3.6-2.4l-0.1,0c-0.2-0.1-0.3-0.3-0.5-0.4
	c-0.3-0.2-0.5-0.5-0.8-0.7l-1.2,1C78,36.7,77.8,36.7,77.5,36.5z"/>
<path class="st17" d="M99.5,42.7c0.4,0.2,0.8,0.5,1.3,0.8l0,4.1c0,0.1-1.1,0.7-1.3,0.8L99.5,42.7z"/>
<path class="st20" d="M58.3,51.3l1.2,0.8l0,3.3l0,0.9c0,0.2,0,0.3,0,0.5l-1.2,0.8L58.3,51.3z"/>
<path class="st20" d="M100.7,57.8l-1.2-0.8l0-5.1l1.3-0.9L100.7,57.8z"/>
<path class="st21" d="M83,50.5l1.7,0l0,6.1l-1.6,0L83,50.5z"/>
<path class="st22" d="M94.5,49.9l0,7.8l-0.8-0.8l0-10l0-1.5c0-0.2,0-0.5,0-0.7l0.1,0.1l0,0.1c0,0.1,0.1,0.1,0.1,0.2l0.5,0.5l0,3
	C94.5,48.9,94.5,49.4,94.5,49.9z"/>
<path class="st18" d="M98.6,64.7c0,0.2-0.1,0.6,0,0.8l1,0.6l-3.8,2.5l-1.4,0.9c-0.2,0.1-0.4,0.3-0.7,0.4l0-2.1
	c0.1-0.1,0.3-0.2,0.4-0.3l1.2-0.8L98.6,64.7z"/>
<path class="st22" d="M92.1,56.5L92.1,56.5l0.2,0.8c0,0.1-2.8,2-3.1,2.2l-4.1,2.9l-4.9,3.5L80,65.7l-0.4-0.3L92.1,56.5z"/>
<path class="st18" d="M73.3,78.8c0-0.1,0-0.3,0-0.5l0-0.9l0-4.3l5.9,3.9l0,2.1c-0.2-0.1-0.4-0.2-0.5-0.4l-1.1-0.7l-4.3-2.8
	L73.3,78.8z"/>
<path class="st18" d="M79.7,79.3l0-2.1l6.1-4l0,2.1l-4.4,2.9l-1.1,0.7C80,79,79.9,79.2,79.7,79.3z"/>
<path class="st21" d="M92.6,44.8l-1.9,1.3l-3.2,2.2l-1,0.7c-0.1,0.1-0.2,0.2-0.3,0.2c-0.2,0.1-0.5,0-0.7,0l-2.1,0l7.8-5.3L92.6,44.8
	z"/>
<path class="st18" d="M58.3,61.2l1.2-0.9l0,2.5c0,0.4-0.1,0.8,0,1.2l4.3,2.8l1,0.7c0.2,0.1,0.4,0.2,0.5,0.4l0,2.2l-5.9-3.8l0-1.1
	l-1.1-0.7L58.3,61.2z"/>
<path class="st21" d="M90.7,43.6l-6.1,4.1l-1.5,1c-0.1,0.1-0.3,0.3-0.5,0.3c-0.1,0-2.7,0-2.9,0l9.5-6.6C89.5,43,90.1,43.3,90.7,43.6
	z"/>
<path class="st21" d="M88.7,42.4L86.2,44l-3.2,2.2l-3.2,2.2l-0.7,0.5c-0.1,0.1-0.2,0.2-0.3,0.2c-0.1,0-0.4,0-0.6,0l-1.7,0
	c1-0.9,2.1-1.6,3.2-2.4l5.1-3.6l2.5-1.8c0.3,0.2,0.6,0.4,0.9,0.6C88.4,42.2,88.6,42.3,88.7,42.4z"/>
<path class="st23" d="M104.5,46.4l1.2-0.8l0,17.8c-0.1,0-0.3-0.2-0.4-0.3l-0.8-0.6c0.1-0.4,0-0.9,0.1-1.3c0.1-0.2,0-0.5,0-0.7l0-1.9
	l0-6.8l0-2.7c0-0.4,0-0.9,0-1.4c0-0.1,0-0.3,0-0.4L104.5,46.4z"/>
<path class="st24" d="M73.2,65.5c0.4,0,0.9,0,1.3,0l2.3,0c0.1,0,0.4-0.1,0.6,0c0.1,0,0.3,0.2,0.4,0.3l2.3,1.9l1.5,1.4L80,70.1
	c-0.2,0.1-0.4,0.3-0.5,0.3l-6.6-4.2l0.1-0.4C73,65.7,73.1,65.6,73.2,65.5z"/>
<path class="st17" d="M73.3,78.8l0-3.4l4.3,2.8l1.1,0.7c0.2,0.1,0.4,0.3,0.5,0.4l0,3.4L75.2,80L74,79.2C73.8,79.1,73.5,79,73.3,78.8
	z"/>
<path class="st25" d="M79.7,79.3c0.2-0.1,0.4-0.2,0.6-0.4l1.1-0.7l4.4-2.9l0,3.5l-6.1,3.9L79.7,79.3z"/>
<path class="st21" d="M91.7,47.7C91.8,47.7,91.7,47.7,91.7,47.7l0.1,1.1c0,0.1,0,0.2,0,0.3c0,0-0.2,0.2-0.3,0.2l-0.9,0.9l-4.1,3.9
	c0.2,0.2,2,1.7,2.1,1.7c0.2,0,0.8-0.6,1-0.6c0.1,0,0.4,0,0.6,0l1.5,0L90,56.8l-1.2,1.1c-0.2-0.1-0.3-0.3-0.5-0.4l-1-0.8
	c-0.7-0.5-1.4-1.1-2-1.6l0-2.5L91.7,47.7z"/>
<path class="st13" d="M87.3,40.6c0.1,0,0.2,0.1,0.3,0.1c-0.2,0.2-0.5,0.3-0.7,0.5l-1.6,1.1L80,46l-3.1,2.2c-0.2,0.1-0.3,0.3-0.5,0.5
	c-1.1,1-2.2,2.1-3.2,3.1l-4.8,5c-0.7,0.8-1.5,1.5-2.1,2.3l-0.1,0.1l0,0l0-3.7c0.8-0.5,1.5-1.1,2.3-1.6l7.6-5.4l4.8-3.3l3-2.1
	l2.7-1.8C86.7,41,87,40.8,87.3,40.6z"/>
<path class="st11" d="M100.7,51.1l2.9-1.9l0,10.4l-2.9-1.9L100.7,51.1z"/>
<path d="M102.2,51.2c0.2,0,0.3,0,0.5,0.1c0.2,0.1,0.3,0.2,0.4,0.4c0.1,0.2,0.1,0.4,0,0.6c-0.1,0.2-0.3,0.4-0.5,0.4
	c-0.1,0-0.3,0-0.4,0c-0.2-0.1-0.4-0.2-0.5-0.4c-0.1-0.2-0.1-0.4,0-0.6C101.7,51.4,101.9,51.3,102.2,51.2z"/>
<path d="M102.2,56.2c0.1,0,0.2,0,0.4,0c0.2,0.1,0.4,0.2,0.5,0.4c0.1,0.2,0.1,0.3,0,0.5c-0.1,0.3-0.3,0.4-0.5,0.5c-0.2,0-0.3,0-0.5,0
	c-0.2-0.1-0.4-0.2-0.4-0.4c-0.1-0.2-0.1-0.4,0-0.6C101.8,56.4,102,56.3,102.2,56.2z"/>
<path class="st22" d="M58.3,57.6l-1.4,0.9c-0.5,0.4-1.1,0.8-1.7,1.1l0-10.3l3,2L58.3,57.6z"/>
<path d="M56.6,51.1l0.1,0c0.3,0.1,0.6,0.3,0.9,0.5l0,1L56.8,53l-0.1,0c0,0-0.1,0-0.1,0c-0.1,0-0.2-0.1-0.2-0.1
	c-0.2-0.1-0.4-0.2-0.6-0.3l0-1.1L56.6,51.1z"/>
<path d="M56.6,55.9c0.3,0.1,0.6,0.4,0.9,0.5l0,1l-0.8,0.4l-0.1,0c-0.3-0.1-0.5-0.3-0.8-0.5c0-0.3,0-0.7,0-1.1L56.6,55.9z"/>
<path class="st13" d="M93,45.2L93,45.2L93,56l0,0c-0.1-0.1-0.1-0.2-0.3-0.3c-0.2-0.1-0.4-0.1-0.6,0L92,55.8c0.2-0.3,0.6-0.5,0.9-0.8
	c0-0.1,0-0.2,0-0.3c0-0.1-0.1-0.2-0.2-0.3l-2.1,0c-0.3,0-0.8-0.1-1.1,0c-0.3,0.1-0.5,0.4-0.7,0.5l-1.1-0.9c0.1-0.2,0.3-0.3,0.4-0.5
	l1.4-1.3l2.6-2.5l0,0c0.1-0.1,0.4-0.4,0.4-0.6l0-1.6c0-0.2,0-0.5,0-0.7c0-0.1-0.1-0.2-0.2-0.3c-0.2,0-0.3,0-0.5,0.1
	c-0.3,0.2-0.5,0.4-0.8,0.6l-2.1,1.5l-2.5,1.8l-1.2,0.9l0-1.6c0.3,0,0.7,0,0.9,0c0.2-0.1,0.3-0.2,0.5-0.3l0.9-0.6L93,45.2z"/>
<path class="st11" d="M66.1,44.1l0.8-0.5c0.2,0.2,0.4,0.3,0.5,0.5l-0.2,0.1l1.3,1.2l0,0c-0.1,0.6,0,1.2,0,1.8l0,3.2l-0.5,0.3
	l-3.4,2.3l0-8L66.1,44.1z"/>
<path class="st22" d="M66.7,44.6C66.7,44.6,66.7,44.6,66.7,44.6c0.1,0,0.1,0,0.2-0.1c0.1-0.1,0.3-0.2,0.4-0.3l1.3,1.2l0,0
	c-0.1,0.6,0,1.2,0,1.8l0,3.2l-0.5,0.3c-0.1-0.5,0-1.1,0-1.6l0-3.3L66.7,44.6z"/>
<path class="st19" d="M58.4,59.9l-5.1,3.5l0-17.6l5,3.2l0,0.9c0,0.1,0,0.3,0,0.4l-3.9-2.6l0,13.5l2.5-1.7c0.5-0.3,1-0.7,1.5-1
	L58.4,59.9z"/>
<path class="st25" d="M99.5,42.7l0-0.3c-0.7-0.5-1.4-1-2.2-1.4l-2.4-1.6l-0.8-0.5c-0.1-0.1-0.3-0.2-0.4-0.3l0-1.6c0-0.2,0-0.5,0-0.7
	l6.9,4.5l0,1.1l4.5,2.9l0,0l-4.4,2.8l0-4.1C100.3,43.2,99.9,42.9,99.5,42.7z"/>
<path class="st25" d="M58.3,47.7l-4.6-2.9l4.5-3l0-1.1l7-4.6l0,2.5l-5.8,3.7l0,0.4c-0.4,0.2-0.8,0.5-1.2,0.7L58.3,47.7z"/>
<path class="st21" d="M78.4,50.5l3.9,0l0,1.5c-0.4,0-3.1,0-3.2,0c-0.2,0.1-0.4,0.3-0.5,0.4c-0.3,0.3-0.6,0.5-0.9,0.7l4.6,0l0,1.8
	c0,0,0,0.2,0,0.2c-0.1,0.1-0.3,0.2-0.3,0.3l-1.5,1.3l-2,1.9l-2.2,2l0-2.2l4.2-3.8l-4.4,0l0-2.3L78.4,50.5z"/>
<path class="st17" d="M65.3,70.1l0,2.6L58.1,68l0-1c0-0.1-3.9-2.6-4.3-2.9l4.5-3.1l0,3.3l1.1,0.7l0,1.1L65.3,70.1z"/>
<path class="st22" d="M85.2,40l0.9,0.5L65.3,54.9l0,5.5l0,0c0.3,0.2,0.7,0.4,1,0.6l1.5,0.9l3.1,2c0.5,0.4,1.1,0.7,1.6,1.1
	c0.2,0.2,0.5,0.3,0.7,0.5c-0.1,0.1-0.2,0.1-0.3,0.2l-0.1,0.4L72,65.6c-0.1,0-0.3-0.2-0.4-0.2l-1.2-0.8l-5.9-3.8l0-6.3
	c0.2-0.2,0.5-0.4,0.7-0.5l1.2-0.9l4.9-3.5l10.1-7.1l2.5-1.7C84.4,40.5,84.8,40.2,85.2,40z"/>
<path class="st25" d="M100.7,61.3l4.4,2.9l-3.3,2.2l-0.7,0.4c-0.1,0.1-0.3,0.2-0.4,0.3V68l-7.1,4.7l0-2.7c0.2-0.1,0.5-0.3,0.7-0.4
	l1.4-0.9l3.8-2.5l-1-0.6l0-0.7l1.1,0.1c0.1,0,0.2,0,0.3,0c0,0,0.2-0.1,0.2-0.2l0.5-0.4L100.7,61.3L100.7,61.3z"/>
<path class="st21" d="M75.4,51C75.4,51,75.4,51,75.4,51l0.1,9.6l-1.7,0l0-5.9l-3.1,3l2.4,0l0,1.1l0,0.4l-3.8,0l-1,1
	c-0.4,0-0.8,0-1.2,0c-0.2,0-0.8,0.1-1-0.1c0,0,0-0.1,0-0.1c0-0.1,0.1-0.2,0.2-0.2l0.8-0.8l6.6-6.5L75.4,51z"/>
<path class="st21" d="M66.9,43.6l2.3-1.5c0.1,0,0.2,0.1,0.3,0.2l0.4,0.3l10.1,0l-11.1,7.6l0-3.9l0-0.6c0,0,0-0.1,0-0.2
	c0-0.1,0.2-0.2,0.2-0.2l1.2-1.2l-0.9-0.8c-0.1-0.1-0.4-0.3-0.5-0.5c-0.2,0-0.3,0.2-0.5,0.3c-0.3,0.3-0.7,0.6-1,0.9
	C67.3,43.9,67.1,43.8,66.9,43.6z"/>
<path class="st26" d="M60.7,43C60.8,43,60.8,43,60.7,43c0.1,0.1,0.3,0.2,0.3,0.2l0.7,0.4l1.1,0.7c0.2,0.1,0.3,0.2,0.5,0.3
	c-0.1,0.4,0,0.9,0,1.4l0,2.7l0,9.4l0,2.3c0,0.3,0,0.7,0,0.9c-0.2,0.1-0.5,0.3-0.7,0.5l-1.5,1c-0.1,0.1-0.4,0.3-0.5,0.3L60.7,43
	L60.7,43z"/>
<path class="st26" d="M98.1,42.8l0.3,0.2l0,20c-0.3-0.1-0.7-0.4-1-0.6l-1.9-1.2c0.2-0.4,0.5-0.7,0.7-1.1c-0.1-0.1-0.4-0.3-0.4-0.4
	c0-0.1,0-0.4,0-0.5l0-1.8l0-8.7l0-2.8l0-0.8c0-0.1,0-0.3,0-0.4c0,0,0.1,0,0.1-0.1c0.2-0.2,0.5-0.4,0.7-0.5l1-0.6
	C97.7,43.1,97.9,43,98.1,42.8z"/>
<path class="st22" d="M78.2,37l1.2-1c0.3,0.2,0.6,0.5,0.8,0.7c0.1,0.1,0.3,0.3,0.5,0.4l0.1,0l3.6,2.4l-4,2.7l-7.3,0l-2.3,0
	c-0.2,0-0.5,0-0.6,0c-0.1,0-0.4-0.3-0.5-0.4l7.9-5.3C77.8,36.7,78,36.7,78.2,37z"/>
<path d="M78.2,37l1.2-1c0.3,0.2,0.6,0.5,0.8,0.7c0.1,0.1,0.3,0.3,0.5,0.4c0.1,0.1,0.1,0.1,0.2,0.2l-1.5,1.4l-1.5-1.4
	C77.9,37.2,78.1,37.1,78.2,37z"/>
<path class="st10" d="M79.3,37l0.1,0c0.1,0,0.1,0,0.1,0.1c0.1,0.1,0.1,0.1,0.1,0.2c0,0.1-0.1,0.1-0.1,0.2c-0.1,0-0.2,0-0.2,0
	c-0.1-0.1-0.1-0.1-0.1-0.2C79.2,37.1,79.2,37.1,79.3,37z"/>
<path class="st19" d="M79.5,26c0.2,0.1,0.4,0.3,0.6,0.4l1.2,0.8l6.7,4.4l0,3.3c-0.1,0-3.8-2.4-4.1-2.7l-4.2-2.8l-0.2-0.1
	c-0.3,0.1-0.5,0.3-0.7,0.5l-1.5,1l-6.2,4l0-3.3L79.5,26z"/>
<path class="st27" d="M60.6,63c0.2,0,0.4-0.2,0.5-0.3l1.5-1c0.2-0.2,0.4-0.3,0.7-0.5c0,0.1,0,0.1,0.1,0.2l15.5,10l0,3.9l-18.3-12
	L60.6,63z"/>
<path class="st27" d="M95.4,61.1l1.9,1.2c0.3,0.2,0.7,0.5,1,0.6l0,0.5l-18.2,12l0-3.9l15-10C95.2,61.4,95.3,61.3,95.4,61.1
	L95.4,61.1z"/>
<path class="st13" d="M85.3,56.2c0.2,0.1,0.4,0.3,0.6,0.5l2,1.6l-9.7,6.8c-0.1-0.1-0.4-0.4-0.5-0.4c-0.3-0.1-0.6,0-0.9,0l-2.5,0
	l-0.5,0c-0.1,0-0.2,0-0.2,0c-0.1,0-0.2-0.1-0.2-0.2L72.4,64l-2.3-1.5l-1.7-1.1c-0.3-0.2-0.6-0.4-0.9-0.6l0,0l0.8,0
	c0.1,0,0.2,0,0.3,0c0.1,0,0.8-0.8,1-1c0.3,0,0.7,0,1.1,0l2.4,0l0,1.4l2.7,0l0.5,0c0.1,0,0.2,0,0.2,0c0.2,0,1.5-1.3,1.7-1.5l2.6-2.3
	l1.5-1.4l0,1.1l2.9,0L85.3,56.2z"/>
<path class="st24" d="M60.7,43c0.5-0.5,1.2-0.8,1.8-1.2l3.5-2.3l7.9-5.2l5.5-3.6l18.6,12.1c-0.2,0.2-0.4,0.4-0.7,0.5l-1,0.6
	c-0.2,0.2-0.6,0.3-0.7,0.5c0,0-0.1,0-0.1,0.1l-0.1,0L79.4,34l-4.8,3.2l-6.5,4.3L65,43.6l-1,0.7c-0.2,0.1-0.4,0.3-0.6,0.4
	c-0.2-0.1-0.3-0.2-0.5-0.3l-1.1-0.7l-0.7-0.4C61,43.2,60.9,43.1,60.7,43C60.8,43,60.8,43,60.7,43z"/>
</svg>
