<?xml version="1.0" encoding="utf-8"?>
<!-- Generator: Adobe Illustrator 27.1.1, SVG Export Plug-In . SVG Version: 6.00 Build 0)  -->
<svg version="1.1" id="Слой_1" xmlns="http://www.w3.org/2000/svg" xmlns:xlink="http://www.w3.org/1999/xlink" x="0px" y="0px"
	 viewBox="0 0 36 36" style="enable-background:new 0 0 36 36;" xml:space="preserve">
<style type="text/css">
	.st0{fill:#393931;}
</style>
<g>
	<polygon class="st0" points="21.5,30.6 21.5,30.6 21,29.4 	"/>
	<path class="st0" d="M31.8,13.2c-0.1-0.2-0.2-0.5-0.4-0.8l-3-5.9h0c-0.2-0.4-0.4-0.9-0.8-1.2l0,0c-0.3-0.3-0.6-0.5-1-0.6l0,0l0,0
		l0,0l0,0c-0.5-0.2-1-0.2-1.5-0.2h-15c-0.4,0-1,0-1.5,0.2l0,0l0,0l0,0l0,0C8.3,4.7,8,4.9,7.7,5.2h0l0,0l0,0l0,0
		C7.3,5.6,7.1,6.1,6.9,6.5l-3,5.9c-0.1,0.3-0.3,0.5-0.4,0.8c-0.1,0.2-0.2,0.6-0.1,1.1c0.1,0.5,0.4,1,0.8,1.3h0l0,0h0h0
		c0.4,0.3,0.8,0.3,1,0.3c0.2,0,0.4,0,0.7,0v10.2c0,0.6,0,1.1,0,1.6c0,0.5,0.1,0.9,0.3,1.4l0,0l0,0l0,0l0,0c0.3,0.7,0.9,1.2,1.5,1.5
		l0,0c0.4,0.2,0.9,0.3,1.4,0.3c0.4,0,1,0,1.6,0h7.8c0.6,0,1.1,0,1.6,0c0.5,0,0.9-0.1,1.4-0.3h0l0,0c0.7-0.3,1.2-0.9,1.5-1.5h0
		c0.2-0.4,0.3-0.9,0.3-1.4c0-0.4,0-1,0-1.6v-5.4c0-0.7-0.6-1.2-1.2-1.2c-0.7,0-1.2,0.6-1.2,1.2v1.8H8.4v-6.5h18.5v13.8
		c0,0.7,0.6,1.2,1.2,1.2c0.7,0,1.2-0.6,1.2-1.2V15.9c0.2,0,0.5,0,0.7,0c0.3,0,0.6-0.1,1-0.3l0,0c0.5-0.3,0.8-0.8,0.8-1.3l0,0
		C32,13.8,31.9,13.4,31.8,13.2z M25.9,7L25.9,7L25.9,7C25.9,7,25.9,7,25.9,7z M9.5,6.9C9.5,6.9,9.5,6.9,9.5,6.9
		C9.5,6.9,9.5,6.9,9.5,6.9L9.5,6.9z M9.1,7.6L9.1,7.6c0.1-0.3,0.2-0.4,0.3-0.5c0,0,0-0.1,0-0.1c0,0,0.1,0,0.1-0.1c0,0,0,0,0.1,0
		c0.1,0,0.3,0,0.6,0h15c0.3,0,0.4,0,0.6,0c0,0,0.1,0,0.1,0c0,0,0.1,0,0.1,0.1c0,0,0,0,0,0.1c0.1,0.1,0.1,0.2,0.3,0.5v0l2.9,5.9h-23
		L9.1,7.6z M20.9,24.9v1.2c0,0.7,0,1.1,0,1.4c0,0.3-0.1,0.4-0.1,0.4l0,0c-0.1,0.2-0.2,0.3-0.4,0.4l0,0c0,0-0.1,0.1-0.4,0.1
		c-0.3,0-0.7,0-1.4,0h-7.8c-0.7,0-1.1,0-1.4,0c-0.3,0-0.4-0.1-0.4-0.1h0l0,0l0,0l0,0c-0.2-0.1-0.3-0.2-0.4-0.4l0,0
		c0,0-0.1-0.1-0.1-0.4c0-0.3,0-0.7,0-1.4v-1.2H20.9z"/>
</g>
</svg>
