<svg width="36" height="36" viewBox="0 0 36 36" fill="none" xmlns="http://www.w3.org/2000/svg">
<path d="M23.7502 21C23.7502 20.3096 23.1906 19.75 22.5002 19.75C21.8099 19.75 21.2502 20.3096 21.2502 21H23.7502ZM22.255 28.7715L23.3687 29.339L23.3688 29.339L22.255 28.7715ZM21.2717 29.7547L21.8392 30.8685L21.8393 30.8685L21.2717 29.7547ZM8.72879 29.7547L9.2963 28.641L9.29625 28.641L8.72879 29.7547ZM7.7455 28.7715L6.63171 29.3389L6.63177 29.3391L7.7455 28.7715ZM8.75026 15C8.75026 14.3096 8.19062 13.75 7.50026 13.75C6.8099 13.75 6.25026 14.3096 6.25026 15H8.75026ZM29.7503 15C29.7503 14.3096 29.1906 13.75 28.5003 13.75C27.8099 13.75 27.2503 14.3096 27.2503 15H29.7503ZM27.2503 30C27.2503 30.6903 27.8099 31.25 28.5003 31.25C29.1906 31.25 29.7503 30.6903 29.7503 30H27.2503ZM7.50026 22.75C6.8099 22.75 6.25026 23.3096 6.25026 24C6.25026 24.6904 6.8099 25.25 7.50026 25.25V22.75ZM22.5002 25.25C23.1906 25.25 23.7502 24.6904 23.7502 24C23.7502 23.3096 23.1906 22.75 22.5002 22.75V25.25ZM8.33692 7.32669L7.2189 6.76764L7.21888 6.76767L8.33692 7.32669ZM5.36859 13.2633L6.48663 13.8224L6.48663 13.8224L5.36859 13.2633ZM4.97184 14.3596L6.20842 14.1769L6.20842 14.1769L4.97184 14.3596ZM5.28393 14.8646L4.56747 15.8889L4.56753 15.8889L5.28393 14.8646ZM30.7167 14.8646L31.4329 15.889L31.4331 15.8889L30.7167 14.8646ZM31.0287 14.3596L32.2652 14.5423L32.2653 14.5422L31.0287 14.3596ZM30.6319 13.2633L29.5139 13.8224L29.5139 13.8224L30.6319 13.2633ZM27.6636 7.32669L26.5455 7.88562L26.5455 7.88571L27.6636 7.32669ZM27.1228 6.42837L27.9976 5.53554L27.9974 5.5353L27.1228 6.42837ZM26.5624 6.08197L26.9701 4.90034L26.9699 4.90025L26.5624 6.08197ZM9.43822 6.08197L9.03065 4.90029L9.03058 4.90031L9.43822 6.08197ZM8.87774 6.42837L8.0031 5.53534L8.00308 5.53536L8.87774 6.42837ZM21.2502 21V26.4H23.7502V21H21.2502ZM21.2502 26.4C21.2502 27.0507 21.2493 27.4635 21.2237 27.776C21.1994 28.0739 21.1591 28.1689 21.1412 28.204L23.3688 29.339C23.5961 28.8927 23.6785 28.4321 23.7154 27.9796C23.7512 27.5417 23.7502 27.0094 23.7502 26.4H21.2502ZM21.1413 28.204C21.0454 28.3921 20.8924 28.5451 20.7042 28.641L21.8393 30.8685C22.4977 30.5329 23.0332 29.9975 23.3687 29.339L21.1413 28.204ZM20.7043 28.641C20.6692 28.6589 20.5741 28.6992 20.2763 28.7235C19.9638 28.749 19.551 28.75 18.9002 28.75V31.25C19.5097 31.25 20.0419 31.251 20.4798 31.2152C20.9324 31.1782 21.393 31.0959 21.8392 30.8685L20.7043 28.641ZM18.9002 28.75H11.1003V31.25H18.9002V28.75ZM11.1003 28.75C10.4496 28.75 10.0368 28.749 9.72427 28.7235C9.42639 28.6992 9.33136 28.6589 9.2963 28.641L8.16128 30.8685C8.60752 31.0959 9.06818 31.1782 9.52068 31.2152C9.95858 31.251 10.4908 31.25 11.1003 31.25V28.75ZM9.29625 28.641C9.10814 28.5451 8.95511 28.3921 8.85922 28.2039L6.63177 29.3391C6.96731 29.9975 7.50272 30.533 8.16133 30.8685L9.29625 28.641ZM8.85928 28.2041C8.84138 28.1689 8.8011 28.0739 8.77676 27.776C8.75123 27.4635 8.75026 27.0507 8.75026 26.4H6.25026C6.25026 27.0094 6.24929 27.5417 6.28507 27.9796C6.32204 28.4321 6.40437 28.8927 6.63171 29.3389L8.85928 28.2041ZM8.75026 26.4V15H6.25026V26.4H8.75026ZM27.2503 15V30H29.7503V15H27.2503ZM7.50026 25.25H22.5002V22.75H7.50026V25.25ZM7.21888 6.76767L4.25056 12.7043L6.48663 13.8224L9.45495 7.88571L7.21888 6.76767ZM4.25056 12.7043C4.11771 12.97 3.97843 13.2458 3.88512 13.4847C3.79247 13.7219 3.66991 14.0999 3.73527 14.5423L6.20842 14.1769C6.22424 14.284 6.21415 14.3657 6.20673 14.4046C6.20044 14.4377 6.19602 14.4397 6.21378 14.3943C6.23114 14.3498 6.25983 14.2845 6.30789 14.1842C6.35569 14.0843 6.41334 13.9689 6.48663 13.8224L4.25056 12.7043ZM3.73527 14.5423C3.81567 15.0866 4.11674 15.5736 4.56747 15.8889L6.0004 13.8403C6.11303 13.9191 6.18832 14.0408 6.20842 14.1769L3.73527 14.5423ZM4.56753 15.8889C4.93397 16.1452 5.3269 16.2047 5.5805 16.2279C5.83588 16.2512 6.14483 16.25 6.4419 16.25V13.75C6.27802 13.75 6.14903 13.75 6.03837 13.7481C5.9271 13.7462 5.85587 13.7426 5.80836 13.7383C5.75976 13.7338 5.76358 13.7308 5.79594 13.7399C5.83406 13.7507 5.91168 13.7782 6.00034 13.8403L4.56753 15.8889ZM6.4419 16.25H29.5587V13.75H6.4419V16.25ZM29.5587 16.25C29.8557 16.25 30.1647 16.2512 30.4201 16.2279C30.6737 16.2047 31.0665 16.1452 31.4329 15.889L30.0004 13.8402C30.089 13.7782 30.1665 13.7507 30.2047 13.7399C30.237 13.7308 30.2408 13.7338 30.1922 13.7383C30.1447 13.7426 30.0734 13.7462 29.9622 13.7481C29.8515 13.75 29.7225 13.75 29.5587 13.75V16.25ZM31.4331 15.8889C31.8841 15.5734 32.1849 15.0862 32.2652 14.5423L29.7921 14.1769C29.8121 14.0412 29.8873 13.9193 30.0002 13.8403L31.4331 15.8889ZM32.2653 14.5422C32.3305 14.0999 32.2081 13.722 32.1154 13.4847C32.0221 13.2458 31.8828 12.97 31.7499 12.7043L29.5139 13.8224C29.5872 13.969 29.6448 14.0843 29.6926 14.1842C29.7407 14.2845 29.7693 14.3498 29.7867 14.3942C29.8045 14.4397 29.8 14.4376 29.7938 14.4046C29.7863 14.3657 29.7763 14.284 29.7921 14.1771L32.2653 14.5422ZM31.7499 12.7043L28.7816 6.76767L26.5455 7.88571L29.5139 13.8224L31.7499 12.7043ZM28.7816 6.76776C28.5813 6.36695 28.3624 5.893 27.9976 5.53554L26.2479 7.3212C26.2282 7.30183 26.238 7.30223 26.2892 7.39042C26.3477 7.49136 26.4184 7.63138 26.5455 7.88562L28.7816 6.76776ZM27.9974 5.5353C27.7063 5.2502 27.3554 5.03329 26.9701 4.90034L26.1547 7.26361C26.1897 7.27568 26.2216 7.29541 26.2482 7.32144L27.9974 5.5353ZM26.9699 4.90025C26.4868 4.7337 25.9649 4.75 25.5171 4.75V7.25C25.8014 7.25 25.9581 7.25056 26.0747 7.25782C26.1764 7.26417 26.1811 7.27273 26.1549 7.2637L26.9699 4.90025ZM25.5171 4.75H10.4836V7.25H25.5171V4.75ZM10.4836 4.75C10.0357 4.75 9.51367 4.73369 9.03065 4.90029L9.84578 7.26366C9.81951 7.27273 9.82413 7.26417 9.92589 7.25782C10.0424 7.25056 10.1992 7.25 10.4836 7.25V4.75ZM9.03058 4.90031C8.64527 5.03323 8.2943 5.25013 8.0031 5.53534L9.75238 7.3214C9.77885 7.29548 9.81077 7.27574 9.84585 7.26364L9.03058 4.90031ZM8.00308 5.53536C7.63805 5.89289 7.41916 6.36714 7.2189 6.76764L9.45494 7.88573C9.58211 7.63139 9.65274 7.4914 9.71134 7.39043C9.76253 7.30225 9.77226 7.30194 9.7524 7.32138L8.00308 5.53536Z" fill="#393931"/>
</svg>
