<?xml version="1.0" encoding="utf-8"?>
<!-- Generator: Adobe Illustrator 27.1.1, SVG Export Plug-In . SVG Version: 6.00 Build 0)  -->
<svg version="1.1" id="Слой_1" xmlns="http://www.w3.org/2000/svg" xmlns:xlink="http://www.w3.org/1999/xlink" x="0px" y="0px"
	 viewBox="0 0 8 12" style="enable-background:new 0 0 8 12;" xml:space="preserve">
<style type="text/css">
	.st0{fill:#393931;}
</style>
<path class="st0" d="M5,0.8L4.1,5.2l3.1,0l-4.2,6l0.8-4.9l-3.1,0L5,0.8z M5,0C5,0,4.9,0,5,0C4.8,0,4.7,0.1,4.6,0.1
	c-0.1,0-0.1,0.1-0.2,0.1c0,0,0,0,0,0.1L0.2,5.9C0,6.1,0,6.4,0.1,6.7c0.1,0.3,0.4,0.4,0.7,0.4l2.2,0l-0.7,4c-0.1,0.3,0.1,0.7,0.4,0.8
	C2.8,12,2.9,12,3,12c0.2,0,0.4-0.1,0.6-0.3l4.2-6C8,5.4,8,5.1,7.9,4.9C7.7,4.6,7.5,4.5,7.2,4.5L5,4.5l0.7-3.5c0-0.1,0-0.1,0-0.2
	C5.7,0.4,5.4,0,5,0C5,0,5,0,5,0L5,0z"/>
</svg>
