<svg width="8" height="12" viewBox="0 0 8 12" fill="none" xmlns="http://www.w3.org/2000/svg">
<path d="M4.97708 0.758292L4.13108 5.20429L7.19633 5.21442L3.02371 11.2414L3.87008 6.35029L0.804832 6.33942L4.97708 0.758292ZM4.97746 0.00866699C4.95721 0.00866699 4.93696 0.00941699 4.91708 0.010917C4.78471 0.021417 4.69696 0.066042 4.59308 0.135792C4.53533 0.174042 4.48246 0.221292 4.43596 0.275667C4.42208 0.291792 4.40933 0.308667 4.39733 0.325917L0.194707 5.88792C0.028957 6.11554 0.00420694 6.41554 0.131707 6.66642C0.259207 6.91729 0.516457 7.07629 0.798832 7.07854L2.96371 7.09429L2.28308 11.1045C2.21858 11.4492 2.40233 11.7927 2.72558 11.931C2.82196 11.9723 2.92321 11.9922 3.02296 11.9922C3.25883 11.9922 3.45233 11.8819 3.59783 11.6828L7.80533 5.65579C7.97108 5.42817 7.99546 5.12779 7.86833 4.87729C7.74083 4.62642 7.48358 4.46742 7.20121 4.46554L5.03633 4.46179L5.70983 0.936042C5.72408 0.879417 5.73121 0.820542 5.73121 0.759792C5.73121 0.354042 5.40833 0.023292 5.00408 0.010167C4.99508 0.00979199 4.98646 0.00979199 4.97746 0.00979199V0.00866699Z" fill="#393931"/>
</svg>
