<?xml version="1.0" encoding="utf-8"?>
<!-- Generator: Adobe Illustrator 27.1.1, SVG Export Plug-In . SVG Version: 6.00 Build 0)  -->
<svg version="1.1" id="Слой_1" xmlns="http://www.w3.org/2000/svg" xmlns:xlink="http://www.w3.org/1999/xlink" x="0px" y="0px"
	 viewBox="0 0 108 108" style="enable-background:new 0 0 108 108;" xml:space="preserve">
<style type="text/css">
	.st0{fill-rule:evenodd;clip-rule:evenodd;fill:#E3E3E3;}
	.st1{fill-rule:evenodd;clip-rule:evenodd;fill:#FFFFFF;filter:url(#Adobe_OpacityMaskFilter);}
	.st2{mask:url(#path-2-inside-1_129_11564_00000137128640450597883500000012398019325630210713_);fill:#393931;}
	.st3{fill:#C2C2C2;stroke:#393931;stroke-width:0.8744;stroke-linejoin:round;}
	.st4{fill:#050607;}
	.st5{fill:#6C7599;}
	.st6{fill:#9EE5E7;}
	.st7{fill:#2A465B;}
	.st8{fill:#1B3143;}
	.st9{fill:#EC4D38;}
	.st10{fill:#F48829;}
	.st11{fill:#F2F4F7;}
	.st12{fill:#F2A335;}
	.st13{fill:#48748B;}
	.st14{fill:url(#SVGID_1_);}
	.st15{fill:#18B89F;}
	.st16{fill:#61D1B5;}
	.st17{fill:url(#SVGID_00000093868348400129667010000006758080420972547501_);}
	.st18{fill:#628A9E;}
	.st19{fill:#DAEDEC;}
	.st20{fill:#E4646D;}
	.st21{fill:url(#SVGID_00000132056661739927821710000017614993854037471659_);}
	.st22{fill:#7E4B40;}
	.st23{fill:#AB5D3C;}
	.st24{fill:#BC2742;}
	.st25{fill:#F4CE58;}
	.st26{fill:#EAB0B7;}
</style>
<path class="st0" d="M76,12c0-6.6-5.4-12-12-12H12C5.4,0,0,5.4,0,12v84c0,6.6,5.4,12,12,12h84c6.6,0,12-5.4,12-12V44
	c0-6.6-5.4-12-12-12h-8c-6.6,0-12-5.4-12-12V12z"/>
<defs>
	<filter id="Adobe_OpacityMaskFilter" filterUnits="userSpaceOnUse" x="-1" y="-1" width="110" height="110">
		<feColorMatrix  type="matrix" values="1 0 0 0 0  0 1 0 0 0  0 0 1 0 0  0 0 0 1 0"/>
	</filter>
</defs>
<mask maskUnits="userSpaceOnUse" x="-1" y="-1" width="110" height="110" id="path-2-inside-1_129_11564_00000137128640450597883500000012398019325630210713_">
	<path class="st1" d="M76,12c0-6.6-5.4-12-12-12H12C5.4,0,0,5.4,0,12v84c0,6.6,5.4,12,12,12h84c6.6,0,12-5.4,12-12V44
		c0-6.6-5.4-12-12-12h-8c-6.6,0-12-5.4-12-12V12z"/>
</mask>
<path class="st2" d="M12,1h52v-2H12V1z M1,96V12h-2v84H1z M96,107H12v2h84V107z M107,44v52h2V44H107z M96,31h-8v2h8V31z M77,20v-8
	h-2v8H77z M88,31c-6.1,0-11-4.9-11-11h-2c0,7.2,5.8,13,13,13V31z M109,44c0-7.2-5.8-13-13-13v2c6.1,0,11,4.9,11,11H109z M96,109
	c7.2,0,13-5.8,13-13h-2c0,6.1-4.9,11-11,11V109z M-1,96c0,7.2,5.8,13,13,13v-2c-6.1,0-11-4.9-11-11H-1z M64,1c6.1,0,11,4.9,11,11h2
	c0-7.2-5.8-13-13-13V1z M12-1C4.8-1-1,4.8-1,12h2C1,5.9,5.9,1,12,1V-1z"/>
<path class="st3" d="M103.9,21.3V9.4l-10.2-6l-10.3,6v11.9l10.3,6L103.9,21.3z"/>
<g>
	<path class="st4" d="M57.6,85.6l-5.7-3.3l-8.2-4.8L33,71.3l-3.2-1.9L29.2,69L29,68.9c-0.1,0-0.3,0.1-0.4,0.1
		c-0.6,0.2-1.2,0.3-1.8,0.5l-0.5,0.3l-0.2,0.1c0,0-0.1-0.1-0.2-0.1l-0.6-0.4l-2-1.2v-3.3h-1.5c-0.8,0-1.4,0.1-2-0.5
		c-0.8-0.8-0.6-1.7-0.6-2.7V58c0-0.6-0.1-1.3,0.1-1.9c0.1-0.3,0.2-0.6,0.5-0.8c0.3-0.3,0.6-0.5,1-0.7l1.2-0.8v-4l-0.9-0.1
		c-0.3-0.1-0.8,0-1.1-0.1h-0.1c-0.3-0.2-0.5-0.5-0.6-0.8c0-0.4,0-0.9,0-1.3v-2.4v-2.4c0-0.4,0-0.9,0-1.4c0-0.3,0.1-0.5,0.2-0.7
		c0.2-0.4,0.6-0.6,0.9-0.8l1.2-0.7c0.1-0.1,0.3-0.2,0.3-0.2v-0.2c0-0.8-0.1-1.6,0.6-2.1c0.4-0.4,1-0.6,1.5-0.9l3-1.8l4.6-2.9
		l6.2-3.8c0.2-0.1,0.4-0.2,0.7-0.3c0.5-0.1,1-0.1,1.5,0.2c0.8,0.4,1.5,0.9,2.2,1.3l5.4,3.2l13.3,7.7l15.2,8.8l4.1,2.4l2,1.2
		c0.3,0.2,0.7,0.4,1,0.6c0.4,0.3,0.8,0.8,0.9,1.3c0,0.3,0,0.6,0,0.8V56v6v10.2v3.3c0,0.5,0,1.1,0,1.6c0,0.3-0.2,0.7-0.4,1
		c-0.2,0.2-0.3,0.4-0.6,0.5c-0.3,0.2-0.7,0.4-1.1,0.6l-2,1.2l-6.8,4L70.4,86c-0.5,0.2-0.9,0.5-1.4,0.8L66.9,88
		c-0.6,0.4-1.2,0.9-1.9,1.1c-0.4,0.1-1,0.1-1.4,0c-0.5-0.1-0.9-0.5-1.3-0.7L57.6,85.6z"/>
	<path class="st5" d="M32.9,37.9v-1c0.7,0.3,1.2,0.7,1.6,1.4c-0.2,0-0.5-0.2-0.8-0.2C33.5,37.9,33.2,37.9,32.9,37.9z"/>
	<path class="st6" d="M22,40.5L22,40.5c0.1,0.1,0.1,0.3,0.1,0.4v1.2h-1.3c-0.1,0-0.1,0-0.1,0c0-0.2,0-0.4,0-0.6l0,0
		C20.9,41,21.6,40.8,22,40.5z"/>
	<path class="st6" d="M20.7,57.2c0-0.4,0-0.8,0.2-1.1c0.3-0.3,0.8-0.6,1.2-0.8v1.9L20.7,57.2z"/>
	<path class="st7" d="M20.7,47h1.5v1.5h-1.4L20.7,47z"/>
	<path class="st8" d="M26.7,64.9h1v2.4l-1-0.5V64.9z"/>
	<path class="st8" d="M20.7,61.9h1.4c0,0.6,0.2,1.1,0.4,1.7h-1c-0.1,0-0.3,0-0.4,0c-0.1,0-0.2-0.2-0.3-0.2c0-0.1,0-0.3,0-0.5
		L20.7,61.9z"/>
	<path class="st9" d="M48.3,76.9c0.2,0.2,0.6,0.4,0.9,0.6l1.4,0.8v1.6l-2.3-1.4V76.9z"/>
	<path class="st9" d="M42.2,73.4l2.3,1.3v1.6L42.2,75V73.4z"/>
	<path class="st9" d="M54.3,80.3c0.7,0.6,1.5,0.9,2.3,1.4v-0.6c0,0.5,0,1,0,1.5c0,0.2,0,0.6,0,0.8L54.4,82L54.3,80.3z"/>
	<path class="st9" d="M51.3,78.7c0.8,0.5,1.6,0.8,2.3,1.3v1.6l-2.3-1.3V78.7z"/>
	<path class="st9" d="M39.1,71.6c0.7,0.5,1.6,0.9,2.3,1.4c0.1,0.5,0,1.1,0,1.6l-2.3-1.4V71.6z"/>
	<path class="st9" d="M59.6,80.5c0.1,0.3,0,0.9,0,1.2v3.4l-2.2-1.3v-1.7l2.2,1.3c0-0.3,0-0.7,0-1V80.5z"/>
	<path class="st9" d="M36,69.8l2.3,1.4v1.6L36,71.5V69.8z"/>
	<path class="st9" d="M45.2,75.1l2.3,1.4v1.6l-2.3-1.4V75.1z"/>
	<path class="st10" d="M37.5,29.8l0.1,0.2c-0.7,0.8-1.6,1.3-2.5,1.8l-2.4,1.5l-4.8,3h-0.7c0.4-0.4,0.9-0.6,1.4-0.9l3.2-2l2.4-1.5
		L37.5,29.8z"/>
	<path class="st11" d="M30.4,36.2c-0.3,0-0.7,0-1,0c0.1-0.1,0.3-0.2,0.4-0.3c0.5-0.3,1-0.6,1.5-0.9l3.2-2l2.5-1.6v0.8L30.4,36.2z"/>
	<path class="st5" d="M20.7,42.5h1.5v4.1h-1.5V42.5z"/>
	<path class="st5" d="M20.7,57.2h1.5v3.2c0,0.2,0.1,0.8,0,1c-0.4,0.1-1,0-1.4,0v-4L20.7,57.2z"/>
	<path class="st8" d="M20.7,57.2h1.5v3.2c0,0.2,0.1,0.8,0,1v-4h-1.4L20.7,57.2z"/>
	<path class="st12" d="M57.4,82.1c0-0.3,0-0.6,0-0.9v-2l1.3,0.7c0.3,0.2,0.6,0.3,0.9,0.6v1.9c0,0.3,0,0.7,0,1L57.4,82.1z"/>
	<path class="st12" d="M42.2,73.4v-2c0-0.3,0-0.6,0-0.9l2.3,1.3v2.9L42.2,73.4z"/>
	<path class="st12" d="M36,69.8V67l2.3,1.4v2.8L36,69.8z"/>
	<path class="st12" d="M39.1,71.6v-2.8l2.3,1.4V73C40.7,72.5,39.8,72.1,39.1,71.6z"/>
	<path class="st12" d="M48.3,76.9V74l2.3,1.4v2.9l-1.4-0.8C48.9,77.3,48.5,77.1,48.3,76.9z"/>
	<path class="st12" d="M45.2,75.1v-2.9l2.4,1.4v0.1v2.8L45.2,75.1z"/>
	<path class="st12" d="M54.3,80.3v-2.9l2.3,1.3v2.4v0.6C55.9,81.3,55,80.9,54.3,80.3z"/>
	<path class="st12" d="M51.3,78.7v-3l2.3,1.3v3C52.9,79.5,52,79.1,51.3,78.7z"/>
	<path class="st7" d="M28.4,66l6.9,3.9V71l-6.9-4l0,0V66z"/>
	<path class="st7" d="M24.7,66v-1c0.1-0.1,0.3,0,0.5,0h1.5v1.9l1,0.5l0.7,0.4l-2,0.6c-0.1-0.1-0.2-0.1-0.3-0.2l-1.3-0.8
		C24.7,67,24.7,66.4,24.7,66z"/>
	<path class="st5" d="M24.7,66c0.5,0.2,0.9,0.5,1.4,0.8v1c0,0.1,0,0.3,0,0.4l-1.3-0.8C24.7,67,24.7,66.4,24.7,66z"/>
	<path class="st8" d="M32.7,63.4l0.4,0.9h-7.6h-1c-0.1,0-0.2,0-0.3,0s-0.3-0.2-0.4-0.3c-0.1-0.1-0.2-0.3-0.3-0.5L32.7,63.4z"/>
	<path class="st7" d="M23.4,53.9v7.8h8.8c0,0.2,0.1,0.5,0.2,0.7l0.3,0.9h-9.3V53.9z"/>
	<path class="st13" d="M37.6,58.6c0-0.2,0-0.5,0-0.7v-1.4v-4.7V34l0.8,0.5v23.6l0,0c-0.1,0.2-0.2,0.4-0.4,0.5l-0.2,0.1L37.6,58.6z"
		/>
	<path class="st8" d="M79.1,74.2v2.9l-13.2,8l2.3-3.9l0,0c0.2,0,2.1-1.3,2.4-1.5l3.4-2.1l3.4-2.1l0.9-0.5c0.2-0.1,0.4-0.2,0.6-0.4
		C79.1,74.5,79.1,74.3,79.1,74.2z"/>
	<path class="st7" d="M68.3,81.1c0.2-0.4,0.5-0.9,0.7-1.3c0.1-0.2,0.2-0.4,0.3-0.6c0.2-0.2,0.4-0.3,0.6-0.4l1.6-1l4.7-3l0.9-0.6
		c0.2-0.1,0.4-0.3,0.6-0.4c0.1-0.1,0.2-0.3,0.2-0.4c0.1-0.6,0-1.2,0-1.8v-3.4V56.8l1.2-1.1v18.5c0,0.1,0,0.3,0,0.4
		c-0.2,0.1-0.4,0.3-0.6,0.4l-0.9,0.5l-3.4,2.1l-3.4,2.1C70.4,79.9,68.5,81.2,68.3,81.1L68.3,81.1z"/>
	<path class="st7" d="M32.9,37.9c0.3,0,0.6,0,0.8,0.1s0.5,0.2,0.8,0.2c0.1,0.1,0.1,0.2,0.1,0.3c0.1,0.5,0.1,1.2,0.1,1.7v3.1v13v3.9
		c0,0.5,0.1,1.1,0,1.7c0,0.2-0.2,0.4-0.2,0.5l-0.8,1.4l-0.5-1.4c-0.1-0.3-0.2-0.5-0.2-0.8s0-0.5,0-0.8v-1.5v-5.1L32.9,37.9z"/>
	
		<linearGradient id="SVGID_1_" gradientUnits="userSpaceOnUse" x1="50.1573" y1="537.2285" x2="58.3327" y2="524.1224" gradientTransform="matrix(1 0 0 1 0 -486)">
		<stop  offset="0" style="stop-color:#F2C872"/>
		<stop  offset="1" style="stop-color:#F6BDCD"/>
	</linearGradient>
	<path class="st14" d="M26.9,35.6c0.4-0.3,1-0.6,1.4-0.9l2.9-1.8l5.4-3.3l1.3-0.8c0.2-0.2,0.5-0.3,0.7-0.5c0.2-0.1,0.4-0.1,0.6-0.1
		c0.3,0,0.5,0.2,0.8,0.4l1,0.6l3.9,2.3l4.6,2.7l7.7,4.5L71.9,47l6.8,4l2.4,1.4c0.5,0.3,1.1,0.6,1.6,1l-0.5,0.2l0,0
		c-1.5-0.6-2.9-1.5-4.4-2.3l-5.3-3.1L56.7,39l-5.3-3l-8.7-5.1l-2.3-1.3c-0.5-0.3-0.9-0.5-1.4-0.8c-0.6,0.2-1.1,0.6-1.6,0.9l-3.3,2
		l-2.4,1.5l-3.2,2c-0.5,0.3-1,0.6-1.4,0.9h-0.2c-0.4,0-0.7,0-1.1,0L26.9,35.6z"/>
	<path class="st15" d="M77.1,56.9c0.1,0.4,0,0.9,0,1.3v3.3v11.7c-0.4,0.5-1.2,0.9-1.8,1.3l-2.9,1.9l-3.5,2.2l-6.7-3.8l1.2-2l6.2,3.6
		c0.3-0.7,0.7-1.5,0.9-2.3c0.5,0.3,1,0.7,1.5,0.8c0.8-0.2,1.6-0.8,2.3-1.3c0.5-0.3,1.2-0.6,1.5-1c0.1-0.1,0.2-0.3,0.2-0.4
		c0.1-0.4,0-0.8,0-1.2c0-0.8,0-1.6,0-2.4c-0.2-0.4-0.5-0.6-0.9-0.8c0.1-0.5,0.2-1,0.2-1.5l0.3-2.3l0.3-2.6c0.1-0.1,0.2-0.2,0.2-0.3
		c0.2-0.3,0.3-0.7,0.3-1l0,0c0.2-0.2,0.2-0.6,0.3-0.9C76.9,58.4,77.1,57.7,77.1,56.9z"/>
	<path class="st8" d="M37,32.2v28.6l-1.5,1.3V46.3v-4.5v-1.9c0-0.5,0-1-0.1-1.5v-0.1c-0.2-0.8-0.8-1.5-1.5-1.9l-0.2-0.1
		C32.9,35.9,32,36,31.1,36c-0.2,0-0.4,0-0.6,0L37,32.2z"/>
	<path class="st16" d="M37.7,30.9l41.1,24l-0.7,0.7l-0.7,0.6L37.7,32.9V30.9z"/>
	<path class="st9" d="M37.5,29.8c0.5-0.3,1.1-0.7,1.6-0.9c0.5,0.2,0.9,0.5,1.4,0.8l2.3,1.3l8.7,5.1l5.3,3.1l15.7,9.1l5.3,3.1
		c1.4,0.8,2.8,1.7,4.4,2.3h-0.1c-0.4,0.2-0.8,0.3-1.1,0.5c-0.4,0.2-0.7,0.5-1.1,0.7c0-0.1-0.1-0.1-0.1-0.2c-0.3-0.3-0.8-0.5-1.1-0.8
		l-2.1-1.3l-7.3-4.3l-15.1-8.8l-9-5.2l-4.6-2.7l-2-1.2c-0.2-0.1-0.7-0.5-0.9-0.5L37.5,29.8z"/>
	
		<linearGradient id="SVGID_00000044867984172491479970000012514909795829890438_" gradientUnits="userSpaceOnUse" x1="67.7658" y1="544.3444" x2="76.2242" y2="569.6825" gradientTransform="matrix(1 0 0 1 0 -486)">
		<stop  offset="0" style="stop-color:#BD341D"/>
		<stop  offset="1" style="stop-color:#DF4B20"/>
	</linearGradient>
	<path style="fill:url(#SVGID_00000044867984172491479970000012514909795829890438_);" d="M82.6,53.3c0.2,0.2,0.2,0.3,0.2,0.6
		c0,2.4,0,22.8,0,22.9S82.6,77,82.6,77c-0.2,0.2-0.5,0.4-0.8,0.5l-1.3,0.8l-3.4,2L67.5,86L65,87.5c-0.2,0.1-0.4,0.2-0.7,0.2
		c-0.1,0-0.3-0.1-0.4-0.1c-0.4-0.2-0.9-0.5-1.3-0.8l-2.3-1.3v-0.8l2.1,1.2c0.4,0.2,0.9,0.6,1.3,0.8c0.2,0.1,0.5,0.1,0.8,0
		c0.7-0.2,1.3-0.7,1.9-1l3.3-2l5.7-3.4l3.1-1.8l1-0.6c0.1-0.1,0.2-0.1,0.3-0.2c0.1-0.1,0-0.4,0-0.5v-22V55c0.4-0.2,0.7-0.5,1.1-0.7
		s0.7-0.3,1.1-0.5h0.1l0,0L82.6,53.3z"/>
	<path class="st9" d="M82.6,53.3c0.2,0.2,0.2,0.3,0.2,0.6c-0.2-0.2-0.5-0.3-0.8-0.4L82.6,53.3z"/>
	<path class="st4" d="M80.9,57.6c0-0.2-0.1-0.9,0.1-1c0.1-0.1,0.4-0.2,0.6-0.2c0.1,0,0.2,0.1,0.3,0.2c0.1,0.1,0.1,0.3,0.1,0.5
		c0,0.4,0,0.9,0,1.3c-0.1,0.2-0.2,0.2-0.4,0.3L81,58.6L80.9,57.6z"/>
	<path class="st12" d="M79.8,55c0.6,0.8,0.8,1.6,1.1,2.6v1l0.6,0.1c0.1,0.2,0.1,0.4,0.1,0.6v0.1c0.1,0,0.2,0.1,0.3,0.2
		c0.1,0.3,0.1,0.7,0.1,1c0,0.1,0,0.3,0,0.5c0,0.1-0.2,0.2-0.3,0.3c0,0.2,0,0.5-0.1,0.7c0.1,0.1,0.3,0.2,0.3,0.3v12.9
		c0,0.2,0,0.5-0.1,0.6S81.6,76,81.5,76c-0.4,0.4-1.1,0.7-1.6,1L79.8,55z"/>
	<path class="st4" d="M81.6,59.4c0.1,0,0.2,0.1,0.3,0.2c0.1,0.3,0.1,0.7,0.1,1c0,0.1,0,0.3,0,0.5c0,0.1-0.2,0.2-0.3,0.3
		c-0.2,0-0.4,0-0.5,0S81,61.3,81,61.2c0-0.1,0-0.2,0-0.4V60c0-0.1,0-0.3,0-0.4C81.1,59.5,81.4,59.5,81.6,59.4z"/>
	<path class="st4" d="M81.6,62.1c0.1,0.1,0.3,0.2,0.3,0.3v12.9c0,0.2,0,0.5-0.1,0.6S81.6,76,81.5,76c-0.1,0-0.3,0-0.3-0.1
		c-0.1-0.1-0.1-0.3-0.2-0.4v-2.3v-4.4v-4c0-0.8,0-1.5,0-2.3c0-0.1,0-0.2,0.1-0.3C81.2,62.1,81.4,62.1,81.6,62.1z"/>
	<path class="st18" d="M35,63.3l2.4-1.8l31.1,17.8l-1.4,2.5L35,63.3z"/>
	<path class="st7" d="M67.1,81.7l-1.5,2.4c-0.3,0.5-0.6,1.1-0.9,1.5c-0.1,0.1-0.2,0.2-0.3,0.2c-0.1,0-0.4,0-0.5,0
		c-0.4-0.1-0.8-0.5-1.2-0.7l-2.4-1.3v-3.7l-25-14.3v3.4l-6.8-3.9c-0.1-0.1-0.1-0.2-0.1-0.3c0.2-0.1,4.2,0,4.7,0c0.1,0,0.6,0,0.7,0
		c0.1,0,0.2-0.2,0.2-0.3c0.2-0.3,0.6-1.2,0.9-1.3L67.1,81.7z"/>
	<path class="st7" d="M71.6,53.7l1.7,1L61.6,74.5c-0.6-0.3-1.2-0.7-1.8-1l-3.2-1.8l-11.1-6.4L39.7,62l-1.4-0.8
		c-0.2-0.1-0.5-0.2-0.7-0.4c0-0.7,0.1-1.5,0-2.3l0.1,0.1l14.8,8.5c0.3-0.3,0.6-0.7,1-1l2.1,1.2c0.4,0.3,0.8,0.5,1.3,0.7l9.2-5.3
		c0-0.1,0.1-0.2,0.2-0.3l0,0L71.6,53.7z"/>
	<path class="st13" d="M56.9,68l9.2-5.3c-0.1,0.3-0.3,0.6-0.5,0.9l-1,1.7l-3.5,5.8l-4.6-2.8L56.9,68z"/>
	<path class="st16" d="M63.4,72.8L74,55.1c0.7,0.3,1.4,0.8,2,1.2c0.3,0.2,0.8,0.4,1.1,0.6c0,0.7-0.2,1.5-0.3,2.2
		c-0.1,0.3-0.1,0.7-0.3,0.9l0,0c0,0.4-0.1,0.7-0.3,1c-0.1,0.1-0.2,0.2-0.2,0.3l-0.3,2.6l-0.3,2.3c-0.1,0.5-0.1,1-0.2,1.5
		c0.3,0.2,0.7,0.5,0.9,0.8c0.1,0.8,0,1.6,0,2.4c0,0.4,0,0.8,0,1.2c0,0.1-0.1,0.3-0.2,0.4c-0.4,0.4-1,0.7-1.5,1
		c-0.7,0.4-1.5,1-2.3,1.3c-0.6-0.2-1-0.6-1.5-0.8c-0.1,0.7-0.5,1.6-0.9,2.3L63.4,72.8z"/>
	<path class="st4" d="M71.9,62.4c0.4,0,0.7,0.1,1,0.3c0.4,0.2,0.7,0.6,0.8,1c0.1,0.5,0,1-0.2,1.5c-0.3,0.5-0.7,0.7-1.3,0.8
		c-0.5,0-0.8,0-1.2-0.3c-0.4-0.3-0.7-0.7-0.8-1.2c-0.1-0.5,0-1,0.3-1.4C70.9,62.7,71.3,62.5,71.9,62.4z"/>
	<path class="st19" d="M71,64.5L71,64.5c-0.1-0.4-0.1-0.7,0.1-1c0.1-0.2,0.4-0.4,0.7-0.5c0.4-0.1,0.6,0,0.9,0.2L71,64.5z"/>
	<path class="st20" d="M72.7,63.3c0.2,0.2,0.4,0.5,0.4,0.8c0,0.1,0,0.3,0,0.4l0,0c-0.1,0.3-0.3,0.5-0.5,0.6c-0.3,0.1-0.6,0.1-0.9,0
		s-0.5-0.4-0.6-0.7L72.7,63.3z"/>
	<path class="st4" d="M75.9,61.4c-0.3,0.2-0.6,0.4-0.9,0.5c-0.4,0.1-0.9,0.1-1.3-0.1c-0.5-0.3-0.8-0.7-0.9-1.2s0-1,0.2-1.4
		c0.3-0.4,0.7-0.7,1.2-0.8s0.9,0,1.3,0.3c0.5,0.4,0.7,0.9,0.8,1.5c0,0.4-0.1,0.7-0.3,1C76.1,61.2,76,61.3,75.9,61.4z"/>
	<path class="st19" d="M73.6,60.5c0-0.1-0.1-0.3-0.1-0.5c0-0.3,0.1-0.6,0.4-0.8c0.2-0.2,0.5-0.3,0.8-0.3c0.4,0,0.6,0.2,0.8,0.5
		c-0.1,0.1-0.2,0.1-0.3,0.1c-0.4,0.1-0.7,0.4-1,0.7C74,60.3,73.8,60.4,73.6,60.5z"/>
	
		<linearGradient id="SVGID_00000035488875608170700810000003539225003026600378_" gradientUnits="userSpaceOnUse" x1="74.4468" y1="545.8901" x2="74.9878" y2="547.0234" gradientTransform="matrix(1 0 0 1 0 -486)">
		<stop  offset="0" style="stop-color:#9A666D"/>
		<stop  offset="1" style="stop-color:#B07C83"/>
	</linearGradient>
	<path style="fill:url(#SVGID_00000035488875608170700810000003539225003026600378_);" d="M75.5,59.4c0.2,0.3,0.3,0.6,0.2,1
		c0,0.3-0.2,0.5-0.4,0.6c-0.3,0.2-0.6,0.3-1,0.2c-0.3-0.1-0.5-0.3-0.7-0.6l-0.1-0.1c0.2-0.1,0.4-0.2,0.6-0.3c0.3-0.2,0.6-0.5,1-0.7
		C75.3,59.5,75.4,59.5,75.5,59.4z"/>
	<path class="st4" d="M70.5,74.1c-0.4-0.2-2-1-2.1-1.4v-0.1c-0.1-0.8,0-1.8,0-2.6c0-0.4-0.1-1.1,0.1-1.4s0.6-0.5,0.8-0.7
		c0.5-0.4,1.1-1,1.7-1.1c0.4-0.1,2.5-0.1,2.8,0.1c0.4,0.2,0.9,0.7,1.3,1c0.3,0.2,0.7,0.5,0.9,0.8c0.1,0.8,0,1.6,0,2.4
		c0,0.4,0,0.8,0,1.2c0,0.1-0.1,0.3-0.2,0.4c-0.4,0.4-1,0.7-1.5,1c-0.7,0.4-1.5,1-2.2,1.3C71.4,74.7,71,74.3,70.5,74.1z"/>
	<path class="st19" d="M69,72.3c-0.1-0.4,0-0.9,0-1.4c0-0.7,0-1.4,0-2l1.1-0.8c0.3-0.2,0.6-0.4,0.9-0.6h2c0.1,0,0.4,0,0.5,0
		s0.2,0.1,0.2,0.2l0.5,0.5c-0.3,0.2-0.7,0.5-1.1,0.7c-0.6-0.3-1-0.5-1.7-0.3c-0.5,0.2-1.1,0.6-1.3,1.1c-0.3,0.5-0.3,1.2-0.1,1.8
		c-0.2,0.3-0.5,0.5-0.8,0.7C69.3,72.1,69.1,72.2,69,72.3z"/>
	<path class="st18" d="M74.3,68.1l0.6,0.5c0.1,0.1,0.3,0.2,0.4,0.3v3.3c-0.3,0.2-3.1,2.1-3.3,2c-0.1,0-0.4-0.2-0.5-0.3l-1.7-1
		c-0.2-0.1-0.6-0.3-0.7-0.4v-0.1c0.1-0.1,0.2-0.2,0.3-0.2c0.3-0.2,0.6-0.4,0.8-0.7v0.1c0.1,0.3,0.4,0.7,0.7,0.9
		c0.5,0.3,1.1,0.5,1.7,0.3c0.5-0.1,1.1-0.6,1.3-1.1c0.2-0.4,0.3-1.2,0.2-1.7v-0.1c-0.2-0.5-0.4-0.8-0.8-1.1
		C73.6,68.6,74,68.3,74.3,68.1z"/>
	<path class="st4" d="M70.1,71.4c-0.2-0.6-0.2-1.3,0.1-1.8c0.3-0.5,0.8-0.9,1.3-1.1c0.6-0.2,1.1,0,1.7,0.3c0.4,0.3,0.7,0.6,0.8,1.1
		V70c0.2,0.5,0.1,1.2-0.2,1.7c-0.3,0.5-0.8,0.9-1.3,1.1c-0.6,0.1-1.2,0-1.7-0.3C70.6,72.1,70.2,71.8,70.1,71.4L70.1,71.4z"/>
	<path class="st7" d="M70.6,70.7c0-0.2,0-0.4,0-0.5c0.1-0.4,0.5-0.8,0.8-1s0.7-0.2,1.1-0.1L70.6,70.7z"/>
	<path class="st8" d="M72.6,69.1c0.4,0.2,0.7,0.6,0.9,1c0.1,0.4,0,0.9-0.2,1.2c-0.2,0.3-0.5,0.5-0.9,0.6s-0.9,0-1.3-0.2
		c-0.3-0.2-0.5-0.5-0.5-0.8c0-0.1,0-0.1,0-0.2L72.6,69.1z"/>
	<path class="st15" d="M39.1,34.8L55,44c-0.1,0.2-0.4,0.3-0.5,0.5l-1.1,0.9l-5.3,4.2l-8.9,7L39.1,34.8z"/>
	<path class="st11" d="M41.2,38.4l9.3,5.4c-0.1,0.1-0.3,0.2-0.4,0.4l-0.8,0.6L46.4,47l-5.2,4V38.4z"/>
	<path class="st18" d="M23.4,42.6v-3.2c0-0.4-0.1-0.9,0-1.3c0.1-0.2,0.2-0.5,0.4-0.6c0.2-0.2,0.5-0.4,0.8-0.4s0.6,0,1,0h1.6l5.1-0.1
		v1v23.9h-8.8v-7.8L23.4,42.6z"/>
	<path class="st11" d="M23.4,42.6v-3.2c0-0.4-0.1-0.9,0-1.3c0.1-0.2,0.2-0.5,0.4-0.6c0.2-0.2,0.5-0.4,0.8-0.4s0.6,0,1,0h1.6l5.1-0.1
		v1h-7.4c-0.2,0-0.4,0.1-0.5,0.3c-0.1,0.1-0.2,0.3-0.2,0.4c-0.1,0.6-0.1,1.4-0.2,2l-0.3,2.7c0,0.4-0.1,0.9-0.2,1.3v-1.3
		C23.5,43.1,23.5,42.8,23.4,42.6z"/>
	<path class="st4" d="M28.6,44.4c0.5,0,1.4-0.1,1.7,0.2c0,0.1,0,0.1,0,0.2v1.5c0,0.3,0,0.6,0,0.9c0,0.1,0,0.1-0.1,0.2
		c-0.1,0-0.1,0.1-0.2,0.1c-0.3,0-0.7,0-0.9,0h-2.2c-0.3,0-1.4,0.1-1.6-0.1c-0.1-0.1-0.1-0.2-0.1-0.3c0-0.4,0-0.9,0-1.4
		c0-0.3,0-0.7,0-1c0-0.1,0.1-0.1,0.1-0.2c0.1,0,0.2-0.1,0.3-0.1c0.3,0,0.7,0,1,0L28.6,44.4z"/>
	<path class="st22" d="M26.2,45.1h2.3c0.3,0,0.7,0,1,0l0,0c0.1,0.1,0.1,1.5,0,1.7h-3.6l0,0c0-0.2,0-1.6,0-1.7H26.2z"/>
	<path class="st10" d="M26.2,45.1c0.1,0.1,0.1,0.1,0.2,0.2l-0.1,0.2c0,0.2,0.1,0.4,0.1,0.6c-0.1,0.2-0.2,0.5-0.4,0.7
		c0-0.3-0.1-1.4,0-1.6L26.2,45.1z"/>
	<path class="st23" d="M26.2,45.1h2.3c0.3,0,0.7,0,1,0c-0.1,0.3-0.4,0.5-0.6,0.7c-0.3,0-2.3-0.1-2.4,0.1l-0.2,0.2c0-0.2,0-0.4,0-0.6
		l0.1-0.1C26.4,45.3,26.3,45.2,26.2,45.1L26.2,45.1z"/>
	<path class="st4" d="M25.7,40.1c0.5,0,4.2-0.1,4.4,0c0.1,0,0.2,0.1,0.3,0.3s0,2.4,0,2.6c-0.1,0.1-0.2,0.2-0.3,0.2h-3.2h-0.8
		c-0.1,0-0.3,0-0.4,0c-0.1,0-0.2-0.1-0.2-0.2c0-0.2-0.1-2.4,0-2.5C25.4,40.2,25.5,40.2,25.7,40.1z"/>
	<path class="st24" d="M29.5,40.8L29.5,40.8L29.5,40.8l0.1,1.7h-3.7v-1.7l0.1-0.1h0.3L29.5,40.8z"/>
	<path class="st25" d="M26.1,40.8h0.3l0.1,0.8c-0.1,0.3-0.2,0.5-0.4,0.8v-0.9C26.1,41.3,26,41.1,26.1,40.8z"/>
	<path class="st12" d="M26.4,40.8h3.1c-0.1,0.3-0.5,0.5-0.7,0.7c-0.3,0-2.1-0.1-2.2,0.1v0.1L26.4,40.8z"/>
	<path class="st4" d="M25.5,48.7c0.3-0.1,0.7,0,1,0h2.3h0.9c0.1,0,0.3,0,0.4,0c0.1,0,0.2,0.1,0.2,0.2c0.1,0.2,0.1,2.5,0,2.6
		s-0.2,0.1-0.3,0.2h-0.1h-2.8H26c-0.2,0-0.4,0-0.6,0c-0.1,0-0.2-0.1-0.2-0.1c-0.1-0.2-0.1-2.3,0-2.6C25.3,48.8,25.4,48.8,25.5,48.7z
		"/>
	<path class="st12" d="M26,49.4c0.2,0.1,0.3,0.3,0.3,0.5C26.2,50,26.1,50,26,50V49.4z"/>
	<path class="st23" d="M26,49.4c0.2-0.1,0.7,0,0.9,0h2.6c-0.1,0.2-0.4,0.6-0.6,0.7h-1.8c-0.2,0-0.6,0-0.7,0.1c0-0.1-0.1-0.2-0.1-0.4
		C26.3,49.6,26.2,49.5,26,49.4z"/>
	<path class="st22" d="M29.6,49.3c0.1,0.2,0.1,1.5,0.1,1.8H26c0-0.3-0.1-0.8,0-1.1l0,0c0.1,0,0.2-0.1,0.3-0.1c0,0.1,0,0.2,0.1,0.4
		c0.2-0.1,0.5-0.1,0.7-0.1h1.8C29.2,49.9,29.6,49.6,29.6,49.3z"/>
	<path class="st10" d="M26,49.9c0.1,0,0.2-0.1,0.3-0.1c0,0.1,0,0.2,0.1,0.4c-0.1,0.3-0.2,0.5-0.4,0.7L26,49.9L26,49.9z"/>
	<path class="st4" d="M25.5,57.2h4.4c0.2,0,0.2,0,0.4,0.2s0.1,1.5,0.1,1.8c0,0.2,0,0.5,0,0.7c0,0.1-0.2,0.2-0.3,0.3
		c-0.2,0-0.4,0-0.6,0h-1.1h-1.9c-0.3,0-0.6,0-0.9,0c-0.1,0-0.2-0.1-0.3-0.2c-0.1-0.3-0.1-2.4,0-2.6C25.3,57.3,25.4,57.3,25.5,57.2z"
		/>
	<path class="st10" d="M26,59.4c0-0.3,0-0.7,0-1c0-0.2,0-0.4,0-0.6h2.2c0.4,0,1-0.1,1.4,0c0,0,0,0.1,0,0.2c-0.1,0.2-0.5,0.5-0.7,0.6
		c-0.3,0-2.3-0.1-2.5,0C26.3,58.9,26.2,59.3,26,59.4z"/>
	<path class="st24" d="M29.6,57.9c0,0.2,0,0.4,0,0.6v1.2h-2.7c-0.3,0-0.7,0.1-1,0v-0.2c0.2-0.1,0.3-0.6,0.4-0.8c0.1-0.1,2.1,0,2.5,0
		c0.2-0.1,0.6-0.4,0.7-0.6C29.6,58,29.6,57.9,29.6,57.9z"/>
	<path class="st4" d="M25.6,52.9h3c0.4,0,1.1-0.1,1.5,0c0.1,0,0.2,0.1,0.3,0.2c0.1,0.2,0.1,2.4,0,2.6c-0.1,0.1-0.2,0.2-0.3,0.2h-4.4
		c-0.1,0-0.2-0.1-0.3-0.2c-0.1-0.2-0.1-2.5,0-2.7C25.4,53,25.4,52.9,25.6,52.9z"/>
	<path class="st12" d="M26,53.6h0.4c0,0.2,0,0.3,0,0.4c0,0.1,0,0.3,0,0.5c-0.1,0.2-0.2,0.5-0.4,0.7c-0.1-0.1,0,0-0.1-0.1
		C26,54.6,25.9,54,26,53.6z"/>
	<path class="st23" d="M26,53.6c0.3-0.1,0.9,0,1.2,0c0.8,0,1.6-0.1,2.4,0c0,0.2-0.5,0.6-0.7,0.8h-1.4c-0.3,0-0.8-0.1-1.1,0.1
		c0-0.1,0-0.3,0-0.5s0.1-0.2,0-0.4L26,53.6z"/>
	<path class="st22" d="M29.6,53.6c0.1,0.2,0,1.5,0,1.8H26c-0.1-0.1,0-0.2,0-0.3c0,0.1,0,0.1,0.1,0.1c0.1-0.2,0.3-0.5,0.4-0.7
		c0.3-0.2,0.8-0.1,1.1-0.1H29C29.1,54.2,29.6,53.8,29.6,53.6z"/>
	<path class="st4" d="M38.5,58c0.4-0.4,1-0.8,1.5-1.2l3.5-2.7l7.1-5.6l5.2-4.1l10.8,6.4l5,3l-5.3,8.7l0,0c-0.1,0.1-0.1,0.2-0.2,0.3
		L56.9,68c-0.5-0.2-0.9-0.4-1.3-0.7l-2.1-1.2c-0.4,0.3-0.7,0.6-1,1l-14.8-8.5l0.2-0.1C38.2,58.4,38.4,58.2,38.5,58z"/>
	<path class="st20" d="M55.7,64.5l0.8,0.6v2l-2.2-1.4L55.7,64.5z"/>
	<path class="st26" d="M54.3,65.7c-0.2-0.1-0.5-0.2-0.7-0.4l-1.2-0.7l-3.1-1.8l1.6-1.1l4.8,2.8L54.3,65.7z"/>
	<path class="st24" d="M51.3,54.8l4.8,2.9c-0.5,0.4-1.2,0.7-1.7,1l-3.1,1.8V54.8z"/>
	<path class="st20" d="M62.9,61.6L62.9,61.6c0.2,0,0.4,0.2,0.5,0.2l1.5,0.8c-0.2,0.2-0.5,0.3-0.7,0.4l-1.5,0.8l-4.1,2.4L57.3,67
		c0-0.1,0-0.4,0-0.5v-1.6c0.6-0.5,1.4-0.9,2.1-1.3L62.9,61.6z"/>
	<path class="st22" d="M62.5,54.7L62.5,54.7c0.1,0.1,0.1,0.3,0.1,0.5v1.1v4.2l-2.9-1.8l-2-1.2L62.5,54.7z"/>
	<path class="st12" d="M57.3,58.2l4.9,2.9c-0.6,0.4-1.3,0.8-1.9,1.1l-3,1.9V58.2z"/>
	<path class="st11" d="M56.5,48L56.5,48c0.1,0.1,0.1,1.8,0.1,2.1L51,53.5l-1-0.7l-0.8-0.5L56.5,48z"/>
	<path class="st11" d="M48.7,53.1l1.8,1.2V61c0,0.1-0.6,0.5-0.8,0.6l-1.1,0.7L48.7,53.1z"/>
	<path class="st9" d="M57.3,51l5,3l-1.8,1.1L57.3,57C57.2,56.8,57.3,51.6,57.3,51z"/>
	<path class="st12" d="M56.5,58.2C56.6,58.2,56.5,58.2,56.5,58.2l0.1,6l-3.1-1.9l-2-1.1L56.5,58.2z"/>
	<path class="st11" d="M57.3,48l7.7,4.5l-0.7,0.4L63,53.6l-4.1-2.4c-0.5-0.3-1.1-0.7-1.6-0.9l0,0V48z"/>
	<path class="st12" d="M56.5,51.1L56.5,51.1l0.1,4.2v1.2c0,0.2,0,0.4,0,0.6l-3.1-1.8l-1.9-1.1L56.5,51.1z"/>
	<path class="st20" d="M65.4,53.1L65.4,53.1c0.1,0.3,0.1,0.7,0.1,1V56v6l-1.3-0.7L63.4,61v-6.7C64,53.9,64.7,53.5,65.4,53.1z"/>
	<path class="st13" d="M66.5,50.7l5,3l-5.2,8.8l0,0v-10c-0.1-0.2-0.2-0.3-0.4-0.4C66,51.6,66.2,51.1,66.5,50.7z"/>
	<path class="st18" d="M38.5,58c0.4-0.4,1-0.8,1.5-1.2l3.5-2.7l7.1-5.6l5.2-4.1l10.8,6.4c-0.3,0.4-0.5,0.9-0.8,1.3l-5.5-3.2
		l-2.4-1.4c-0.3-0.2-0.5-0.3-0.8-0.5c-0.1-0.1-0.2-0.1-0.3-0.1c-0.2,0-0.5,0.3-0.7,0.4l-1.4,0.8l-4.9,3l-1.1,0.7
		c-0.2,0.1-0.4,0.2-0.6,0.4L48,52.3c-0.1,0.2,0,0.7,0,1v2.4v4.6v2.3c0,0.1,0,0.2,0.1,0.2c0.1,0.1,0.2,0.2,0.3,0.2
		c0.3,0.2,0.7,0.4,1,0.6l1.6,1l2.5,1.5c-0.4,0.3-0.7,0.6-1,1l-14.8-8.5l0.2-0.1C38.2,58.4,38.4,58.2,38.5,58z"/>
</g>
</svg>
