<?xml version="1.0" encoding="utf-8"?>
<!-- Generator: Adobe Illustrator 27.1.1, SVG Export Plug-In . SVG Version: 6.00 Build 0)  -->
<svg version="1.1" id="Слой_1" xmlns="http://www.w3.org/2000/svg" xmlns:xlink="http://www.w3.org/1999/xlink" x="0px" y="0px"
	 viewBox="0 0 108 108" style="enable-background:new 0 0 108 108;" xml:space="preserve">
<style type="text/css">
	.st0{fill-rule:evenodd;clip-rule:evenodd;fill:#E3E3E3;}
	.st1{fill-rule:evenodd;clip-rule:evenodd;fill:#FFFFFF;filter:url(#Adobe_OpacityMaskFilter);}
	.st2{mask:url(#path-2-inside-1_129_11564_00000137128640450597883500000012398019325630210713_);fill:#393931;}
	.st3{fill:#66FECB;}
	.st4{fill:#5EDEB3;}
	.st5{fill:#01B478;}
	.st6{fill:#1DCE92;}
	.st7{fill:#2AFFB7;}
	.st8{fill:#FFFFFF;}
	.st9{fill:#003725;}
	.st10{fill:#050607;}
	.st11{fill:#6C7599;}
	.st12{fill:#9EE5E7;}
	.st13{fill:#2A465B;}
	.st14{fill:#1B3143;}
	.st15{fill:#EC4D38;}
	.st16{fill:#F48829;}
	.st17{fill:#F2F4F7;}
	.st18{fill:#F2A335;}
	.st19{fill:#48748B;}
	.st20{fill:#40677F;}
	.st21{fill:url(#SVGID_1_);}
	.st22{fill:#18B89F;}
	.st23{fill:#61D1B5;}
	.st24{fill:#EC9038;}
	.st25{fill:#ED4343;}
	.st26{fill:#77B2C9;}
	.st27{fill:#DAEDEC;}
	.st28{fill:#E4646D;}
	.st29{fill:url(#SVGID_00000158711643448054312850000005823555764094283149_);}
	.st30{fill:#628A9E;}
	.st31{fill:#5D6B84;}
	.st32{fill:#7E4B40;}
	.st33{fill:#AB5D3C;}
	.st34{fill:#BC2742;}
	.st35{fill:#F4CE58;}
	.st36{fill:#F45D6B;}
	.st37{fill:#EAB0B7;}
	.st38{fill:#8BFF66;}
	.st39{fill:#002DA2;}
	.st40{fill:#1AB900;}
	.st41{fill:#EDD0B4;}
	.st42{fill:#FF33A4;}
	.st43{fill:#FFADDB;}
</style>
<path class="st0" d="M76,12c0-6.6-5.4-12-12-12H12C5.4,0,0,5.4,0,12v84c0,6.6,5.4,12,12,12h84c6.6,0,12-5.4,12-12V44
	c0-6.6-5.4-12-12-12h-8c-6.6,0-12-5.4-12-12V12z"/>
<defs>
	<filter id="Adobe_OpacityMaskFilter" filterUnits="userSpaceOnUse" x="-1" y="-1" width="110" height="110">
		<feColorMatrix  type="matrix" values="1 0 0 0 0  0 1 0 0 0  0 0 1 0 0  0 0 0 1 0"/>
	</filter>
</defs>
<mask maskUnits="userSpaceOnUse" x="-1" y="-1" width="110" height="110" id="path-2-inside-1_129_11564_00000137128640450597883500000012398019325630210713_">
	<path class="st1" d="M76,12c0-6.6-5.4-12-12-12H12C5.4,0,0,5.4,0,12v84c0,6.6,5.4,12,12,12h84c6.6,0,12-5.4,12-12V44
		c0-6.6-5.4-12-12-12h-8c-6.6,0-12-5.4-12-12V12z"/>
</mask>
<path class="st2" d="M12,1h52v-2H12V1z M1,96V12h-2v84H1z M96,107H12v2h84V107z M107,44v52h2V44H107z M96,31h-8v2h8V31z M77,20v-8
	h-2v8H77z M88,31c-6.1,0-11-4.9-11-11h-2c0,7.2,5.8,13,13,13V31z M109,44c0-7.2-5.8-13-13-13v2c6.1,0,11,4.9,11,11H109z M96,109
	c7.2,0,13-5.8,13-13h-2c0,6.1-4.9,11-11,11V109z M-1,96c0,7.2,5.8,13,13,13v-2c-6.1,0-11-4.9-11-11H-1z M64,1c6.1,0,11,4.9,11,11h2
	c0-7.2-5.8-13-13-13V1z M12-1C4.8-1-1,4.8-1,12h2C1,5.9,5.9,1,12,1V-1z"/>
<g>
	<path class="st3" d="M103.9,21.2V9.5L93.8,3.7L83.6,9.5v11.7l10.2,5.8L103.9,21.2z"/>
	<path class="st3" d="M99.6,18.8V12l-5.9-3.4L87.8,12v6.8l5.9,3.4L99.6,18.8z"/>
	<path class="st4" d="M93.7,8.6V3.7l10.2,5.8l-4.2,2.4L93.7,8.6z"/>
	<path class="st5" d="M99.6,18.8V12l4.2-2.4v11.7L99.6,18.8z"/>
	<path class="st6" d="M93.7,22.2V27l10.2-5.8l-4.2-2.4L93.7,22.2z"/>
	<path class="st5" d="M87.9,18.8l-4.2,2.4l10.2,5.8v-4.8L87.9,18.8z"/>
	<path class="st7" d="M93.7,8.6L87.8,12l-4.2-2.4l10.2-5.8V8.6z"/>
	<path class="st8" d="M103.9,9.5l-4.5,2.2L94,8.6l-0.2-5l-0.2,5l-5.4,3.2l-4.5-2.2l4.2,2.4v2.4c0.1-0.8,0.2-1.5,0.3-2.2L93.9,9
		l5.7,3.1c0.1,0.8,0.2,1.5,0.3,2.2v-2.4h0.1L103.9,9.5z"/>
	<path class="st9" d="M93.7,3.7l10.2,5.8v11.7l-10.2,5.8l-10.1-5.8V9.5L93.7,3.7z M93.7,3c-0.1,0-0.3,0-0.3,0.1L83.2,8.9
		C83.1,9,83,9.1,83,9.2c-0.1,0.1-0.1,0.3-0.1,0.3v11.7c0,0.1,0,0.3,0.1,0.3c0.1,0.1,0.2,0.2,0.3,0.3l10.2,5.8
		c0.1,0.1,0.3,0.1,0.3,0.1c0.1,0,0.3,0,0.3-0.1l10.1-5.8c0.1-0.1,0.2-0.2,0.3-0.3s0.1-0.3,0.1-0.3V9.5c0-0.1,0-0.3-0.1-0.3
		s-0.2-0.2-0.3-0.3L94,3.1C94,3.1,93.9,3,93.7,3L93.7,3z"/>
</g>
<g>
	<path class="st10" d="M57.7,85.8L52,82.5l-8.2-4.8l-10.7-6.2l-3.2-1.9l-0.6-0.4l-0.2-0.1c-0.1,0-0.3,0.1-0.4,0.1
		c-0.6,0.2-1.2,0.3-1.8,0.5L26.4,70l-0.2,0.1c0,0-0.1-0.1-0.2-0.1l-0.6-0.4l-2-1.2v-3.3h-1.5c-0.8,0-1.4,0.1-2-0.5
		c-0.8-0.8-0.6-1.7-0.6-2.7v-3.7c0-0.6-0.1-1.3,0.1-1.9c0.1-0.3,0.2-0.6,0.5-0.8c0.3-0.3,0.6-0.5,1-0.7l1.2-0.8v-4l-0.9-0.1
		c-0.3-0.1-0.8,0-1.1-0.1H20c-0.3-0.2-0.5-0.5-0.6-0.8c0-0.4,0-0.9,0-1.3v-2.4v-2.4c0-0.4,0-0.9,0-1.4c0-0.3,0.1-0.5,0.2-0.7
		c0.2-0.4,0.6-0.6,0.9-0.8l1.2-0.7c0.1-0.1,0.3-0.2,0.3-0.2v-0.2c0-0.8-0.1-1.6,0.6-2.1c0.4-0.4,1-0.6,1.5-0.9l3-1.8l4.6-2.9
		l6.2-3.8c0.2-0.1,0.4-0.2,0.7-0.3c0.5-0.1,1-0.1,1.5,0.2c0.8,0.4,1.5,0.9,2.2,1.3l5.4,3.2L61,39.5l15.2,8.8l4.1,2.4l2,1.2
		c0.3,0.2,0.7,0.4,1,0.6c0.4,0.3,0.8,0.8,0.9,1.3c0,0.3,0,0.6,0,0.8v1.6v6v10.2v3.3c0,0.5,0,1.1,0,1.6c0,0.3-0.2,0.7-0.4,1
		c-0.2,0.2-0.3,0.4-0.6,0.5c-0.3,0.2-0.7,0.4-1.1,0.6l-2,1.2l-6.8,4l-2.8,1.6c-0.5,0.2-0.9,0.5-1.4,0.8L67,88.2
		c-0.6,0.4-1.2,0.9-1.9,1.1c-0.4,0.1-1,0.1-1.4,0c-0.5-0.1-0.9-0.5-1.3-0.7L57.7,85.8z"/>
	<path class="st11" d="M33,38.1v-1c0.7,0.3,1.2,0.7,1.6,1.4c-0.2,0-0.5-0.2-0.8-0.2C33.6,38.1,33.3,38.1,33,38.1z"/>
	<path class="st12" d="M22.1,40.7L22.1,40.7c0.1,0.1,0.1,0.3,0.1,0.4v1.2h-1.3c-0.1,0-0.1,0-0.1,0c0-0.2,0-0.4,0-0.6l0,0
		C21,41.2,21.7,41,22.1,40.7z"/>
	<path class="st12" d="M20.8,57.4c0-0.4,0-0.8,0.2-1.1c0.3-0.3,0.8-0.6,1.2-0.8v1.9L20.8,57.4z"/>
	<path class="st13" d="M20.8,47.2h1.5v1.5h-1.4L20.8,47.2z"/>
	<path class="st14" d="M26.8,65.1h1v2.4l-1-0.5V65.1z"/>
	<path class="st14" d="M20.8,62.1h1.4c0,0.6,0.2,1.1,0.4,1.7h-1c-0.1,0-0.3,0-0.4,0c-0.1,0-0.2-0.2-0.3-0.2c0-0.1,0-0.3,0-0.5
		L20.8,62.1z"/>
	<path class="st15" d="M48.4,77.1c0.2,0.2,0.6,0.4,0.9,0.6l1.4,0.8v1.6l-2.3-1.4V77.1z"/>
	<path class="st15" d="M42.3,73.6l2.3,1.3v1.6l-2.3-1.3V73.6z"/>
	<path class="st15" d="M54.4,80.5c0.7,0.6,1.5,0.9,2.3,1.4v-0.6c0,0.5,0,1,0,1.5c0,0.2,0,0.6,0,0.8l-2.2-1.4L54.4,80.5z"/>
	<path class="st15" d="M51.4,78.9c0.8,0.5,1.6,0.8,2.3,1.3v1.6l-2.3-1.3V78.9z"/>
	<path class="st15" d="M39.2,71.8c0.7,0.5,1.6,0.9,2.3,1.4c0.1,0.5,0,1.1,0,1.6l-2.3-1.4V71.8z"/>
	<path class="st15" d="M59.7,80.7c0.1,0.3,0,0.9,0,1.2v3.4L57.5,84v-1.7l2.2,1.3c0-0.3,0-0.7,0-1V80.7z"/>
	<path class="st15" d="M36.1,70l2.3,1.4V73l-2.3-1.3V70z"/>
	<path class="st15" d="M45.3,75.3l2.3,1.4v1.6l-2.3-1.4V75.3z"/>
	<path class="st16" d="M37.6,30l0.1,0.2C37,31,36.1,31.5,35.2,32l-2.4,1.5l-4.8,3h-0.7c0.4-0.4,0.9-0.6,1.4-0.9l3.2-2l2.4-1.5
		L37.6,30z"/>
	<path class="st17" d="M30.5,36.4c-0.3,0-0.7,0-1,0c0.1-0.1,0.3-0.2,0.4-0.3c0.5-0.3,1-0.6,1.5-0.9l3.2-2l2.5-1.6v0.8L30.5,36.4z"/>
	<path class="st11" d="M20.8,42.7h1.5v4.1h-1.5V42.7z"/>
	<path class="st11" d="M20.8,57.4h1.5v3.2c0,0.2,0.1,0.8,0,1c-0.4,0.1-1,0-1.4,0v-4L20.8,57.4z"/>
	<path class="st14" d="M20.8,57.4h1.5v3.2c0,0.2,0.1,0.8,0,1v-4h-1.4L20.8,57.4z"/>
	<path class="st18" d="M57.5,82.3c0-0.3,0-0.6,0-0.9v-2l1.3,0.7c0.3,0.2,0.6,0.3,0.9,0.6v1.9c0,0.3,0,0.7,0,1L57.5,82.3z"/>
	<path class="st18" d="M42.3,73.6v-2c0-0.3,0-0.6,0-0.9l2.3,1.3v2.9L42.3,73.6z"/>
	<path class="st18" d="M36.1,70v-2.8l2.3,1.4v2.8L36.1,70z"/>
	<path class="st18" d="M39.2,71.8V69l2.3,1.4v2.8C40.8,72.7,39.9,72.3,39.2,71.8z"/>
	<path class="st18" d="M48.4,77.1v-2.9l2.3,1.4v2.9l-1.4-0.8C49,77.5,48.6,77.3,48.4,77.1z"/>
	<path class="st18" d="M45.3,75.3v-2.9l2.4,1.4v0.1v2.8L45.3,75.3z"/>
	<path class="st18" d="M54.4,80.5v-2.9l2.3,1.3v2.4v0.6C56,81.5,55.1,81.1,54.4,80.5z"/>
	<path class="st18" d="M51.4,78.9v-3l2.3,1.3v3C53,79.7,52.1,79.3,51.4,78.9z"/>
	<path class="st13" d="M28.5,66.2l6.9,3.9v1.1l-6.9-4l0,0V66.2z"/>
	<path class="st13" d="M24.8,66.2v-1c0.1-0.1,0.3,0,0.5,0h1.5v1.9l1,0.5l0.7,0.4l-2,0.6c-0.1-0.1-0.2-0.1-0.3-0.2l-1.3-0.8
		C24.8,67.2,24.8,66.6,24.8,66.2z"/>
	<path class="st11" d="M24.8,66.2c0.5,0.2,0.9,0.5,1.4,0.8v1c0,0.1,0,0.3,0,0.4l-1.3-0.8C24.8,67.2,24.8,66.6,24.8,66.2z"/>
	<path class="st14" d="M32.8,63.6l0.4,0.9h-7.6h-1c-0.1,0-0.2,0-0.3,0s-0.3-0.2-0.4-0.3c-0.1-0.1-0.2-0.3-0.3-0.5L32.8,63.6z"/>
	<path class="st13" d="M23.5,54.1v7.8h8.8c0,0.2,0.1,0.5,0.2,0.7l0.3,0.9h-9.3V54.1z"/>
	<path class="st19" d="M37.7,58.8c0-0.2,0-0.5,0-0.7v-1.4V52V34.2l0.8,0.5v23.6l0,0c-0.1,0.2-0.2,0.4-0.4,0.5l-0.2,0.1L37.7,58.8z"
		/>
	<path class="st14" d="M79.2,74.4v2.9l-13.2,8l2.3-3.9l0,0c0.2,0,2.1-1.3,2.4-1.5l3.4-2.1l3.4-2.1l0.9-0.5c0.2-0.1,0.4-0.2,0.6-0.4
		C79.2,74.7,79.2,74.5,79.2,74.4z"/>
	<path class="st20" d="M68.4,81.3c0.2-0.4,0.5-0.9,0.7-1.3c0.1-0.2,0.2-0.4,0.3-0.6c0.2-0.2,0.4-0.3,0.6-0.4l1.6-1l4.7-3l0.9-0.6
		c0.2-0.1,0.4-0.3,0.6-0.4c0.1-0.1,0.2-0.3,0.2-0.4c0.1-0.6,0-1.2,0-1.8v-3.4V57l1.2-1.1v18.5c0,0.1,0,0.3,0,0.4
		c-0.2,0.1-0.4,0.3-0.6,0.4l-0.9,0.5l-3.4,2.1l-3.4,2.1C70.5,80.1,68.6,81.4,68.4,81.3L68.4,81.3z"/>
	<path class="st20" d="M33,38.1c0.3,0,0.6,0,0.8,0.1s0.5,0.2,0.8,0.2c0.1,0.1,0.1,0.2,0.1,0.3c0.1,0.5,0.1,1.2,0.1,1.7v3.1v13v3.9
		c0,0.5,0.1,1.1,0,1.7c0,0.2-0.2,0.4-0.2,0.5L33.8,64l-0.5-1.4c-0.1-0.3-0.2-0.5-0.2-0.8s0-0.5,0-0.8v-1.5v-5.1L33,38.1z"/>
	
		<linearGradient id="SVGID_1_" gradientUnits="userSpaceOnUse" x1="50.2698" y1="537.421" x2="58.4452" y2="524.3148" gradientTransform="matrix(1 0 0 1 0 -486)">
		<stop  offset="0" style="stop-color:#F2C872"/>
		<stop  offset="1" style="stop-color:#F6BDCD"/>
	</linearGradient>
	<path class="st21" d="M27,35.8c0.4-0.3,1-0.6,1.4-0.9l2.9-1.8l5.4-3.3L38,29c0.2-0.2,0.5-0.3,0.7-0.5c0.2-0.1,0.4-0.1,0.6-0.1
		c0.3,0,0.5,0.2,0.8,0.4l1,0.6l3.9,2.3l4.6,2.7l7.7,4.5L72,47.2l6.8,4l2.4,1.4c0.5,0.3,1.1,0.6,1.6,1l-0.5,0.2l0,0
		c-1.5-0.6-2.9-1.5-4.4-2.3l-5.3-3.1l-15.8-9.2l-5.3-3l-8.7-5.1l-2.3-1.3c-0.5-0.3-0.9-0.5-1.4-0.8c-0.6,0.2-1.1,0.6-1.6,0.9l-3.3,2
		l-2.4,1.5l-3.2,2c-0.5,0.3-1,0.6-1.4,0.9H27c-0.4,0-0.7,0-1.1,0L27,35.8z"/>
	<path class="st22" d="M77.2,57.1c0.1,0.4,0,0.9,0,1.3v3.3v11.7c-0.4,0.5-1.2,0.9-1.8,1.3l-2.9,1.9L69,78.8L62.3,75l1.2-2l6.2,3.6
		c0.3-0.7,0.7-1.5,0.9-2.3c0.5,0.3,1,0.7,1.5,0.8c0.8-0.2,1.6-0.8,2.3-1.3c0.5-0.3,1.2-0.6,1.5-1c0.1-0.1,0.2-0.3,0.2-0.4
		c0.1-0.4,0-0.8,0-1.2c0-0.8,0-1.6,0-2.4c-0.2-0.4-0.5-0.6-0.9-0.8c0.1-0.5,0.2-1,0.2-1.5l0.3-2.3l0.3-2.6c0.1-0.1,0.2-0.2,0.2-0.3
		c0.2-0.3,0.3-0.7,0.3-1l0,0c0.2-0.2,0.2-0.6,0.3-0.9C77,58.6,77.2,57.9,77.2,57.1z"/>
	<path class="st14" d="M37.1,32.4V61l-1.5,1.3V46.5V42v-1.9c0-0.5,0-1-0.1-1.5v-0.1c-0.2-0.8-0.8-1.5-1.5-1.9l-0.2-0.1
		c-0.8-0.4-1.7-0.3-2.6-0.3c-0.2,0-0.4,0-0.6,0L37.1,32.4z"/>
	<path class="st23" d="M37.8,31.1l41.1,24l-0.7,0.7l-0.7,0.6L37.8,33.1V31.1z"/>
	<path class="st24" d="M37.6,30c0.5-0.3,1.1-0.7,1.6-0.9c0.5,0.2,0.9,0.5,1.4,0.8l2.3,1.3l8.7,5.1l5.3,3.1l15.7,9.1l5.3,3.1
		c1.4,0.8,2.8,1.7,4.4,2.3h-0.1c-0.4,0.2-0.8,0.3-1.1,0.5c-0.4,0.2-0.7,0.5-1.1,0.7c0-0.1-0.1-0.1-0.1-0.2c-0.3-0.3-0.8-0.5-1.1-0.8
		l-2.1-1.3l-7.3-4.3l-15.1-8.8l-9-5.2l-4.6-2.7l-2-1.2c-0.2-0.1-0.7-0.5-0.9-0.5L37.6,30z"/>
	<path class="st25" d="M82.7,53.5c0.2,0.2,0.2,0.3,0.2,0.6c0,2.4,0,22.8,0,22.9s-0.2,0.2-0.2,0.2c-0.2,0.2-0.5,0.4-0.8,0.5l-1.3,0.8
		l-3.4,2l-9.6,5.7l-2.5,1.5c-0.2,0.1-0.4,0.2-0.7,0.2c-0.1,0-0.3-0.1-0.4-0.1c-0.4-0.2-0.9-0.5-1.3-0.8l-2.3-1.3v-0.8l2.1,1.2
		c0.4,0.2,0.9,0.6,1.3,0.8c0.2,0.1,0.5,0.1,0.8,0c0.7-0.2,1.3-0.7,1.9-1l3.3-2l5.7-3.4l3.1-1.8l1-0.6c0.1-0.1,0.2-0.1,0.3-0.2
		c0.1-0.1,0-0.4,0-0.5v-22v-0.2c0.4-0.2,0.7-0.5,1.1-0.7s0.7-0.3,1.1-0.5h0.1l0,0L82.7,53.5z"/>
	<path class="st15" d="M82.7,53.5c0.2,0.2,0.2,0.3,0.2,0.6c-0.2-0.2-0.5-0.3-0.8-0.4L82.7,53.5z"/>
	<path class="st10" d="M81,57.8c0-0.2-0.1-0.9,0.1-1c0.1-0.1,0.4-0.2,0.6-0.2c0.1,0,0.2,0.1,0.3,0.2c0.1,0.1,0.1,0.3,0.1,0.5
		c0,0.4,0,0.9,0,1.3c-0.1,0.2-0.2,0.2-0.4,0.3l-0.6-0.1L81,57.8z"/>
	<path class="st18" d="M79.9,55.2c0.6,0.8,0.8,1.6,1.1,2.6v1l0.6,0.1c0.1,0.2,0.1,0.4,0.1,0.6v0.1c0.1,0,0.2,0.1,0.3,0.2
		c0.1,0.3,0.1,0.7,0.1,1c0,0.1,0,0.3,0,0.5c0,0.1-0.2,0.2-0.3,0.3c0,0.2,0,0.5-0.1,0.7c0.1,0.1,0.3,0.2,0.3,0.3v12.9
		c0,0.2,0,0.5-0.1,0.6s-0.2,0.1-0.3,0.1c-0.4,0.4-1.1,0.7-1.6,1L79.9,55.2z"/>
	<path class="st10" d="M81.7,59.6c0.1,0,0.2,0.1,0.3,0.2c0.1,0.3,0.1,0.7,0.1,1c0,0.1,0,0.3,0,0.5c0,0.1-0.2,0.2-0.3,0.3
		c-0.2,0-0.4,0-0.5,0s-0.2-0.1-0.2-0.2c0-0.1,0-0.2,0-0.4v-0.8c0-0.1,0-0.3,0-0.4C81.2,59.7,81.5,59.7,81.7,59.6z"/>
	<path class="st10" d="M81.7,62.3c0.1,0.1,0.3,0.2,0.3,0.3v12.9c0,0.2,0,0.5-0.1,0.6s-0.2,0.1-0.3,0.1c-0.1,0-0.3,0-0.3-0.1
		c-0.1-0.1-0.1-0.3-0.2-0.4v-2.3V69v-4c0-0.8,0-1.5,0-2.3c0-0.1,0-0.2,0.1-0.3C81.3,62.3,81.5,62.3,81.7,62.3z"/>
	<path class="st26" d="M35.1,63.5l2.4-1.8l31.1,17.8L67.2,82L35.1,63.5z"/>
	<path class="st20" d="M67.2,81.9l-1.5,2.4c-0.3,0.5-0.6,1.1-0.9,1.5c-0.1,0.1-0.2,0.2-0.3,0.2c-0.1,0-0.4,0-0.5,0
		c-0.4-0.1-0.8-0.5-1.2-0.7L60.4,84v-3.7L35.4,66v3.4l-6.8-3.9c-0.1-0.1-0.1-0.2-0.1-0.3c0.2-0.1,4.2,0,4.7,0c0.1,0,0.6,0,0.7,0
		c0.1,0,0.2-0.2,0.2-0.3c0.2-0.3,0.6-1.2,0.9-1.3L67.2,81.9z"/>
	<path class="st13" d="M71.7,53.9l1.7,1L61.7,74.7c-0.6-0.3-1.2-0.7-1.8-1l-3.2-1.8l-11.1-6.4l-5.8-3.3l-1.4-0.8
		c-0.2-0.1-0.5-0.2-0.7-0.4c0-0.7,0.1-1.5,0-2.3l0.1,0.1l14.8,8.5c0.3-0.3,0.6-0.7,1-1l2.1,1.2c0.4,0.3,0.8,0.5,1.3,0.7l9.2-5.3
		c0-0.1,0.1-0.2,0.2-0.3l0,0L71.7,53.9z"/>
	<path class="st19" d="M57,68.2l9.2-5.3c-0.1,0.3-0.3,0.6-0.5,0.9l-1,1.7l-3.5,5.8l-4.6-2.8L57,68.2z"/>
	<path class="st23" d="M63.5,73l10.6-17.7c0.7,0.3,1.4,0.8,2,1.2c0.3,0.2,0.8,0.4,1.1,0.6c0,0.7-0.2,1.5-0.3,2.2
		c-0.1,0.3-0.1,0.7-0.3,0.9l0,0c0,0.4-0.1,0.7-0.3,1c-0.1,0.1-0.2,0.2-0.2,0.3l-0.3,2.6l-0.3,2.3c-0.1,0.5-0.1,1-0.2,1.5
		c0.3,0.2,0.7,0.5,0.9,0.8c0.1,0.8,0,1.6,0,2.4c0,0.4,0,0.8,0,1.2c0,0.1-0.1,0.3-0.2,0.4c-0.4,0.4-1,0.7-1.5,1
		c-0.7,0.4-1.5,1-2.3,1.3c-0.6-0.2-1-0.6-1.5-0.8c-0.1,0.7-0.5,1.6-0.9,2.3L63.5,73z"/>
	<path class="st10" d="M72,62.6c0.4,0,0.7,0.1,1,0.3c0.4,0.2,0.7,0.6,0.8,1c0.1,0.5,0,1-0.2,1.5c-0.3,0.5-0.7,0.7-1.3,0.8
		c-0.5,0-0.8,0-1.2-0.3c-0.4-0.3-0.7-0.7-0.8-1.2c-0.1-0.5,0-1,0.3-1.4C71,62.9,71.4,62.7,72,62.6z"/>
	<path class="st27" d="M71.1,64.7L71.1,64.7c-0.1-0.4-0.1-0.7,0.1-1c0.1-0.2,0.4-0.4,0.7-0.5c0.4-0.1,0.6,0,0.9,0.2L71.1,64.7z"/>
	<path class="st28" d="M72.8,63.5c0.2,0.2,0.4,0.5,0.4,0.8c0,0.1,0,0.3,0,0.4l0,0c-0.1,0.3-0.3,0.5-0.5,0.6c-0.3,0.1-0.6,0.1-0.9,0
		s-0.5-0.4-0.6-0.7L72.8,63.5z"/>
	<path class="st10" d="M76,61.6c-0.3,0.2-0.6,0.4-0.9,0.5c-0.4,0.1-0.9,0.1-1.3-0.1c-0.5-0.3-0.8-0.7-0.9-1.2s0-1,0.2-1.4
		c0.3-0.4,0.7-0.7,1.2-0.8s0.9,0,1.3,0.3c0.5,0.4,0.7,0.9,0.8,1.5c0,0.4-0.1,0.7-0.3,1C76.2,61.4,76.1,61.5,76,61.6z"/>
	<path class="st27" d="M73.7,60.7c0-0.1-0.1-0.3-0.1-0.5c0-0.3,0.1-0.6,0.4-0.8c0.2-0.2,0.5-0.3,0.8-0.3c0.4,0,0.6,0.2,0.8,0.5
		c-0.1,0.1-0.2,0.1-0.3,0.1c-0.4,0.1-0.7,0.4-1,0.7C74.1,60.5,73.9,60.6,73.7,60.7z"/>
	
		<linearGradient id="SVGID_00000018942945145508875330000010708465393883910543_" gradientUnits="userSpaceOnUse" x1="74.5593" y1="546.0826" x2="75.1003" y2="547.2158" gradientTransform="matrix(1 0 0 1 0 -486)">
		<stop  offset="0" style="stop-color:#9A666D"/>
		<stop  offset="1" style="stop-color:#B07C83"/>
	</linearGradient>
	<path style="fill:url(#SVGID_00000018942945145508875330000010708465393883910543_);" d="M75.6,59.6c0.2,0.3,0.3,0.6,0.2,1
		c0,0.3-0.2,0.5-0.4,0.6c-0.3,0.2-0.6,0.3-1,0.2c-0.3-0.1-0.5-0.3-0.7-0.6l-0.1-0.1c0.2-0.1,0.4-0.2,0.6-0.3c0.3-0.2,0.6-0.5,1-0.7
		C75.4,59.7,75.5,59.7,75.6,59.6z"/>
	<path class="st10" d="M70.6,74.3c-0.4-0.2-2-1-2.1-1.4v-0.1c-0.1-0.8,0-1.8,0-2.6c0-0.4-0.1-1.1,0.1-1.4s0.6-0.5,0.8-0.7
		c0.5-0.4,1.1-1,1.7-1.1c0.4-0.1,2.5-0.1,2.8,0.1c0.4,0.2,0.9,0.7,1.3,1c0.3,0.2,0.7,0.5,0.9,0.8c0.1,0.8,0,1.6,0,2.4
		c0,0.4,0,0.8,0,1.2c0,0.1-0.1,0.3-0.2,0.4c-0.4,0.4-1,0.7-1.5,1c-0.7,0.4-1.5,1-2.2,1.3C71.5,74.9,71.1,74.5,70.6,74.3z"/>
	<path class="st27" d="M69.1,72.5c-0.1-0.4,0-0.9,0-1.4c0-0.7,0-1.4,0-2l1.1-0.8c0.3-0.2,0.6-0.4,0.9-0.6h2c0.1,0,0.4,0,0.5,0
		s0.2,0.1,0.2,0.2l0.5,0.5c-0.3,0.2-0.7,0.5-1.1,0.7c-0.6-0.3-1-0.5-1.7-0.3c-0.5,0.2-1.1,0.6-1.3,1.1c-0.3,0.5-0.3,1.2-0.1,1.8
		c-0.2,0.3-0.5,0.5-0.8,0.7C69.4,72.3,69.2,72.4,69.1,72.5z"/>
	<path class="st30" d="M74.4,68.3l0.6,0.5c0.1,0.1,0.3,0.2,0.4,0.3v3.3c-0.3,0.2-3.1,2.1-3.3,2c-0.1,0-0.4-0.2-0.5-0.3l-1.7-1
		c-0.2-0.1-0.6-0.3-0.7-0.4v-0.1c0.1-0.1,0.2-0.2,0.3-0.2c0.3-0.2,0.6-0.4,0.8-0.7v0.1c0.1,0.3,0.4,0.7,0.7,0.9
		c0.5,0.3,1.1,0.5,1.7,0.3c0.5-0.1,1.1-0.6,1.3-1.1c0.2-0.4,0.3-1.2,0.2-1.7v-0.1c-0.2-0.5-0.4-0.8-0.8-1.1
		C73.7,68.8,74.1,68.5,74.4,68.3z"/>
	<path class="st10" d="M70.2,71.6C70,71,70,70.3,70.3,69.8c0.3-0.5,0.8-0.9,1.3-1.1c0.6-0.2,1.1,0,1.7,0.3c0.4,0.3,0.7,0.6,0.8,1.1
		v0.1c0.2,0.5,0.1,1.2-0.2,1.7c-0.3,0.5-0.8,0.9-1.3,1.1c-0.6,0.1-1.2,0-1.7-0.3C70.7,72.3,70.3,72,70.2,71.6L70.2,71.6z"/>
	<path class="st13" d="M70.7,70.9c0-0.2,0-0.4,0-0.5c0.1-0.4,0.5-0.8,0.8-1s0.7-0.2,1.1-0.1L70.7,70.9z"/>
	<path class="st14" d="M72.7,69.3c0.4,0.2,0.7,0.6,0.9,1c0.1,0.4,0,0.9-0.2,1.2c-0.2,0.3-0.5,0.5-0.9,0.6s-0.9,0-1.3-0.2
		c-0.3-0.2-0.5-0.5-0.5-0.8c0-0.1,0-0.1,0-0.2L72.7,69.3z"/>
	<path class="st31" d="M39.2,35l15.9,9.2c-0.1,0.2-0.4,0.3-0.5,0.5l-1.1,0.9l-5.3,4.2l-8.9,7L39.2,35z"/>
	<path class="st17" d="M41.3,38.6l9.3,5.4c-0.1,0.1-0.3,0.2-0.4,0.4L49.4,45l-2.9,2.2l-5.2,4V38.6z"/>
	<path class="st26" d="M23.5,42.8v-3.2c0-0.4-0.1-0.9,0-1.3c0.1-0.2,0.2-0.5,0.4-0.6c0.2-0.2,0.5-0.4,0.8-0.4s0.6,0,1,0h1.6l5.1-0.1
		v1v23.9h-8.8v-7.8L23.5,42.8z"/>
	<path class="st17" d="M23.5,42.8v-3.2c0-0.4-0.1-0.9,0-1.3c0.1-0.2,0.2-0.5,0.4-0.6c0.2-0.2,0.5-0.4,0.8-0.4s0.6,0,1,0h1.6l5.1-0.1
		v1H25c-0.2,0-0.4,0.1-0.5,0.3c-0.1,0.1-0.2,0.3-0.2,0.4c-0.1,0.6-0.1,1.4-0.2,2l-0.3,2.7c0,0.4-0.1,0.9-0.2,1.3v-1.3
		C23.6,43.3,23.6,43,23.5,42.8z"/>
	<path class="st10" d="M28.7,44.6c0.5,0,1.4-0.1,1.7,0.2c0,0.1,0,0.1,0,0.2v1.5c0,0.3,0,0.6,0,0.9c0,0.1,0,0.1-0.1,0.2
		c-0.1,0-0.1,0.1-0.2,0.1c-0.3,0-0.7,0-0.9,0H27c-0.3,0-1.4,0.1-1.6-0.1c-0.1-0.1-0.1-0.2-0.1-0.3c0-0.4,0-0.9,0-1.4
		c0-0.3,0-0.7,0-1c0-0.1,0.1-0.1,0.1-0.2c0.1,0,0.2-0.1,0.3-0.1c0.3,0,0.7,0,1,0L28.7,44.6z"/>
	<path class="st32" d="M26.3,45.3h2.3c0.3,0,0.7,0,1,0l0,0c0.1,0.1,0.1,1.5,0,1.7H26l0,0c0-0.2,0-1.6,0-1.7H26.3z"/>
	<path class="st16" d="M26.3,45.3c0.1,0.1,0.1,0.1,0.2,0.2l-0.1,0.2c0,0.2,0.1,0.4,0.1,0.6c-0.1,0.2-0.2,0.5-0.4,0.7
		c0-0.3-0.1-1.4,0-1.6L26.3,45.3z"/>
	<path class="st33" d="M26.3,45.3h2.3c0.3,0,0.7,0,1,0c-0.1,0.3-0.4,0.5-0.6,0.7c-0.3,0-2.3-0.1-2.4,0.1l-0.2,0.2c0-0.2,0-0.4,0-0.6
		l0.1-0.1C26.5,45.5,26.4,45.4,26.3,45.3L26.3,45.3z"/>
	<path class="st10" d="M25.8,40.3c0.5,0,4.2-0.1,4.4,0c0.1,0,0.2,0.1,0.3,0.3s0,2.4,0,2.6c-0.1,0.1-0.2,0.2-0.3,0.2H27h-0.8
		c-0.1,0-0.3,0-0.4,0c-0.1,0-0.2-0.1-0.2-0.2c0-0.2-0.1-2.4,0-2.5C25.5,40.4,25.6,40.4,25.8,40.3z"/>
	<path class="st34" d="M29.6,41L29.6,41L29.6,41l0.1,1.7H26V41l0.1-0.1h0.3L29.6,41z"/>
	<path class="st35" d="M26.2,41h0.3l0.1,0.8c-0.1,0.3-0.2,0.5-0.4,0.8v-0.9C26.2,41.5,26.1,41.3,26.2,41z"/>
	<path class="st18" d="M26.5,41h3.1c-0.1,0.3-0.5,0.5-0.7,0.7c-0.3,0-2.1-0.1-2.2,0.1v0.1L26.5,41z"/>
	<path class="st10" d="M25.6,48.9c0.3-0.1,0.7,0,1,0h2.3h0.9c0.1,0,0.3,0,0.4,0c0.1,0,0.2,0.1,0.2,0.2c0.1,0.2,0.1,2.5,0,2.6
		s-0.2,0.1-0.3,0.2H30h-2.8h-1.1c-0.2,0-0.4,0-0.6,0c-0.1,0-0.2-0.1-0.2-0.1c-0.1-0.2-0.1-2.3,0-2.6C25.4,49,25.5,49,25.6,48.9z"/>
	<path class="st18" d="M26.1,49.6c0.2,0.1,0.3,0.3,0.3,0.5c-0.1,0.1-0.2,0.1-0.3,0.1V49.6z"/>
	<path class="st33" d="M26.1,49.6c0.2-0.1,0.7,0,0.9,0h2.6c-0.1,0.2-0.4,0.6-0.6,0.7h-1.8c-0.2,0-0.6,0-0.7,0.1
		c0-0.1-0.1-0.2-0.1-0.4C26.4,49.8,26.3,49.7,26.1,49.6z"/>
	<path class="st32" d="M29.7,49.5c0.1,0.2,0.1,1.5,0.1,1.8h-3.7c0-0.3-0.1-0.8,0-1.1l0,0c0.1,0,0.2-0.1,0.3-0.1c0,0.1,0,0.2,0.1,0.4
		c0.2-0.1,0.5-0.1,0.7-0.1H29C29.3,50.1,29.7,49.8,29.7,49.5z"/>
	<path class="st16" d="M26.1,50.1c0.1,0,0.2-0.1,0.3-0.1c0,0.1,0,0.2,0.1,0.4c-0.1,0.3-0.2,0.5-0.4,0.7L26.1,50.1L26.1,50.1z"/>
	<path class="st10" d="M25.6,57.4H30c0.2,0,0.2,0,0.4,0.2s0.1,1.5,0.1,1.8c0,0.2,0,0.5,0,0.7c0,0.1-0.2,0.2-0.3,0.3
		c-0.2,0-0.4,0-0.6,0h-1.1h-1.9c-0.3,0-0.6,0-0.9,0c-0.1,0-0.2-0.1-0.3-0.2c-0.1-0.3-0.1-2.4,0-2.6C25.4,57.5,25.5,57.5,25.6,57.4z"
		/>
	<path class="st16" d="M26.1,59.6c0-0.3,0-0.7,0-1c0-0.2,0-0.4,0-0.6h2.2c0.4,0,1-0.1,1.4,0c0,0,0,0.1,0,0.2
		c-0.1,0.2-0.5,0.5-0.7,0.6c-0.3,0-2.3-0.1-2.5,0C26.4,59.1,26.3,59.5,26.1,59.6z"/>
	<path class="st34" d="M29.7,58.1c0,0.2,0,0.4,0,0.6v1.2H27c-0.3,0-0.7,0.1-1,0v-0.2c0.2-0.1,0.3-0.6,0.4-0.8c0.1-0.1,2.1,0,2.5,0
		c0.2-0.1,0.6-0.4,0.7-0.6C29.7,58.2,29.7,58.1,29.7,58.1z"/>
	<path class="st10" d="M25.7,53.1h3c0.4,0,1.1-0.1,1.5,0c0.1,0,0.2,0.1,0.3,0.2c0.1,0.2,0.1,2.4,0,2.6c-0.1,0.1-0.2,0.2-0.3,0.2
		h-4.4c-0.1,0-0.2-0.1-0.3-0.2c-0.1-0.2-0.1-2.5,0-2.7C25.5,53.2,25.5,53.1,25.7,53.1z"/>
	<path class="st18" d="M26.1,53.8h0.4c0,0.2,0,0.3,0,0.4c0,0.1,0,0.3,0,0.5c-0.1,0.2-0.2,0.5-0.4,0.7c-0.1-0.1,0,0-0.1-0.1
		C26.1,54.8,26,54.2,26.1,53.8z"/>
	<path class="st33" d="M26.1,53.8c0.3-0.1,0.9,0,1.2,0c0.8,0,1.6-0.1,2.4,0c0,0.2-0.5,0.6-0.7,0.8h-1.4c-0.3,0-0.8-0.1-1.1,0.1
		c0-0.1,0-0.3,0-0.5s0.1-0.2,0-0.4L26.1,53.8z"/>
	<path class="st32" d="M29.7,53.8c0.1,0.2,0,1.5,0,1.8h-3.6c-0.1-0.1,0-0.2,0-0.3c0,0.1,0,0.1,0.1,0.1c0.1-0.2,0.3-0.5,0.4-0.7
		c0.3-0.2,0.8-0.1,1.1-0.1h1.4C29.2,54.4,29.7,54,29.7,53.8z"/>
	<path class="st10" d="M38.6,58.2c0.4-0.4,1-0.8,1.5-1.2l3.5-2.7l7.1-5.6l5.2-4.1L66.7,51l5,3l-5.3,8.7l0,0
		c-0.1,0.1-0.1,0.2-0.2,0.3L57,68.2c-0.5-0.2-0.9-0.4-1.3-0.7l-2.1-1.2c-0.4,0.3-0.7,0.6-1,1l-14.8-8.5l0.2-0.1
		C38.3,58.6,38.5,58.4,38.6,58.2z"/>
	<path class="st36" d="M55.8,64.7l0.8,0.6v2l-2.2-1.4L55.8,64.7z"/>
	<path class="st37" d="M54.4,65.9c-0.2-0.1-0.5-0.2-0.7-0.4l-1.2-0.7L49.4,63l1.6-1.1l4.8,2.8L54.4,65.9z"/>
	<path class="st38" d="M51.4,55l4.8,2.9c-0.5,0.4-1.2,0.7-1.7,1l-3.1,1.8V55z"/>
	<path class="st36" d="M63,61.8L63,61.8c0.2,0,0.4,0.2,0.5,0.2l1.5,0.8c-0.2,0.2-0.5,0.3-0.7,0.4L62.8,64l-4.1,2.4l-1.3,0.8
		c0-0.1,0-0.4,0-0.5v-1.6c0.6-0.5,1.4-0.9,2.1-1.3L63,61.8z"/>
	<path class="st39" d="M62.6,54.9L62.6,54.9c0.1,0.1,0.1,0.3,0.1,0.5v1.1v4.2l-2.9-1.8l-2-1.2L62.6,54.9z"/>
	<path class="st40" d="M57.4,58.4l4.9,2.9c-0.6,0.4-1.3,0.8-1.9,1.1l-3,1.9V58.4z"/>
	<path class="st41" d="M56.6,48.2L56.6,48.2c0.1,0.1,0.1,1.8,0.1,2.1l-5.6,3.4l-1-0.7l-0.8-0.5L56.6,48.2z"/>
	<path class="st41" d="M48.8,53.3l1.8,1.2v6.7c0,0.1-0.6,0.5-0.8,0.6l-1.1,0.7L48.8,53.3z"/>
	<path class="st42" d="M57.4,51.2l5,3l-1.8,1.1l-3.2,1.9C57.3,57,57.4,51.8,57.4,51.2z"/>
	<path class="st43" d="M56.6,58.4C56.7,58.4,56.6,58.4,56.6,58.4l0.1,6l-3.1-1.9l-2-1.1L56.6,58.4z"/>
	<path class="st41" d="M57.4,48.2l7.7,4.5l-0.7,0.4l-1.3,0.7L59,51.4c-0.5-0.3-1.1-0.7-1.6-0.9l0,0V48.2z"/>
	<path class="st43" d="M56.6,51.3L56.6,51.3l0.1,4.2v1.2c0,0.2,0,0.4,0,0.6l-3.1-1.8l-1.9-1.1L56.6,51.3z"/>
	<path class="st36" d="M65.5,53.3L65.5,53.3c0.1,0.3,0.1,0.7,0.1,1v1.9v6l-1.3-0.7l-0.8-0.3v-6.7C64.1,54.1,64.8,53.7,65.5,53.3z"/>
	<path class="st19" d="M66.6,50.9l5,3l-5.2,8.8l0,0v-10c-0.1-0.2-0.2-0.3-0.4-0.4C66.1,51.8,66.3,51.3,66.6,50.9z"/>
	<path class="st30" d="M38.6,58.2c0.4-0.4,1-0.8,1.5-1.2l3.5-2.7l7.1-5.6l5.2-4.1L66.7,51c-0.3,0.4-0.5,0.9-0.8,1.3l-5.5-3.2
		L58,47.7c-0.3-0.2-0.5-0.3-0.8-0.5c-0.1-0.1-0.2-0.1-0.3-0.1c-0.2,0-0.5,0.3-0.7,0.4l-1.4,0.8l-4.9,3L48.8,52
		c-0.2,0.1-0.4,0.2-0.6,0.4l-0.1,0.1c-0.1,0.2,0,0.7,0,1v2.4v4.6v2.3c0,0.1,0,0.2,0.1,0.2c0.1,0.1,0.2,0.2,0.3,0.2
		c0.3,0.2,0.7,0.4,1,0.6l1.6,1l2.5,1.5c-0.4,0.3-0.7,0.6-1,1l-14.8-8.5l0.2-0.1C38.3,58.6,38.5,58.4,38.6,58.2z"/>
</g>
</svg>
