<?xml version="1.0" encoding="utf-8"?>
<!-- Generator: Adobe Illustrator 27.1.1, SVG Export Plug-In . SVG Version: 6.00 Build 0)  -->
<svg version="1.1" id="Слой_1" xmlns="http://www.w3.org/2000/svg" xmlns:xlink="http://www.w3.org/1999/xlink" x="0px" y="0px"
	 viewBox="0 0 108 108" style="enable-background:new 0 0 108 108;" xml:space="preserve">
<style type="text/css">
	.st0{fill-rule:evenodd;clip-rule:evenodd;fill:#E3E3E3;}
	.st1{fill-rule:evenodd;clip-rule:evenodd;fill:#FFFFFF;filter:url(#Adobe_OpacityMaskFilter);}
	.st2{mask:url(#path-2-inside-1_129_11564_00000137128640450597883500000012398019325630210713_);fill:#393931;}
	.st3{fill:#1C1F33;}
	.st4{fill:#0F0F28;}
	.st5{fill:#125B6E;}
	.st6{fill:#010002;}
	.st7{fill:#80828C;}
	.st8{fill:#525356;}
	.st9{fill:url(#SVGID_1_);}
	.st10{fill:#8EC7D5;}
	.st11{fill:#1E343A;}
	.st12{fill:#0A7678;}
	.st13{fill:url(#SVGID_00000043441556304004399980000010764481104350624672_);}
	.st14{fill:#46ABAD;}
	.st15{fill:#66FECB;}
	.st16{fill:#5EDEB3;}
	.st17{fill:#01B478;}
	.st18{fill:#1DCE92;}
	.st19{fill:#2AFFB7;}
	.st20{fill:#FFFFFF;}
	.st21{fill:#003725;}
</style>
<path class="st0" d="M76,12c0-6.6-5.4-12-12-12H12C5.4,0,0,5.4,0,12v84c0,6.6,5.4,12,12,12h84c6.6,0,12-5.4,12-12V44
	c0-6.6-5.4-12-12-12h-8c-6.6,0-12-5.4-12-12V12z"/>
<defs>
	<filter id="Adobe_OpacityMaskFilter" filterUnits="userSpaceOnUse" x="-1" y="-1" width="110" height="110">
		<feColorMatrix  type="matrix" values="1 0 0 0 0  0 1 0 0 0  0 0 1 0 0  0 0 0 1 0"/>
	</filter>
</defs>
<mask maskUnits="userSpaceOnUse" x="-1" y="-1" width="110" height="110" id="path-2-inside-1_129_11564_00000137128640450597883500000012398019325630210713_">
	<path class="st1" d="M76,12c0-6.6-5.4-12-12-12H12C5.4,0,0,5.4,0,12v84c0,6.6,5.4,12,12,12h84c6.6,0,12-5.4,12-12V44
		c0-6.6-5.4-12-12-12h-8c-6.6,0-12-5.4-12-12V12z"/>
</mask>
<path class="st2" d="M12,1h52v-2H12V1z M1,96V12h-2v84H1z M96,107H12v2h84V107z M107,44v52h2V44H107z M96,31h-8v2h8V31z M77,20v-8
	h-2v8H77z M88,31c-6.1,0-11-4.9-11-11h-2c0,7.2,5.8,13,13,13V31z M109,44c0-7.2-5.8-13-13-13v2c6.1,0,11,4.9,11,11H109z M96,109
	c7.2,0,13-5.8,13-13h-2c0,6.1-4.9,11-11,11V109z M-1,96c0,7.2,5.8,13,13,13v-2c-6.1,0-11-4.9-11-11H-1z M64,1c6.1,0,11,4.9,11,11h2
	c0-7.2-5.8-13-13-13V1z M12-1C4.8-1-1,4.8-1,12h2C1,5.9,5.9,1,12,1V-1z"/>
<g>
	<path class="st3" d="M17.6,78.7l2.2-3.5l1.2-1.9l2.9-4.7l1.8-2.8c0.1-0.2,0.5-0.6,0.5-0.8c0-0.1,0-0.1,0-0.2c-0.1-0.7,0-1.4,0-2.1
		v-4.4V51V40.1v-6.6v-1.1c0-0.2,0-0.5,0-0.6c0.2-0.1,0.4-0.1,0.6-0.1h11.1h21h11.8h3.6c0.6,0,1.3,0,1.9,0c0.1,0,0.2,0.1,0.2,0.2
		c0.1,0.4,0,0.7,0,0.9v1.8v5.9v18.6v4.6v1.2c0,0.1,0,0.4,0,0.5c0.1,0.2,0.2,0.5,0.4,0.7l0.8,1.3l2.6,4.1l1.2,1.9l2.6,4.1
		c0.4,0.6,0.7,1.1,1.1,1.6c-0.2-0.1-0.7,0-0.9,0l-0.1-0.2l-5.5-8.8l-0.8-1.2L77,68.1c0-0.1-0.1-0.1-0.1-0.2l-0.4-0.6
		c-0.1-0.1-0.2-0.4-0.4-0.5L76,66.7l0,0l-0.4-0.6L75.5,66l-0.1-0.2c-0.1-0.1-0.1-0.1-0.1-0.4c-0.1-0.1,0-0.8,0-1.1l-0.1-2.5V48.8
		V37.1v-3.4c0,0,0,0,0-0.1c-0.1-0.1-0.2-0.1-0.4-0.1l0,0c-0.6-0.1-1.3,0-1.9,0h-3.3h-9.5H27.1v3.7v7.3v14.6v5.3v0.8v0.2
		c0,0.1-0.1,0.2-0.2,0.5c-0.5,0.8-0.9,1.5-1.4,2.2l-4.7,7.4l-1.9,2.9c-0.2,0.4-0.5,0.7-0.6,1.1C18.2,78.7,17.8,78.7,17.6,78.7z"/>
	<path class="st4" d="M17.6,78.7c0.2,0.1,0.6,0,0.8,0c0.2-0.4,0.4-0.7,0.6-1.1l1.9-2.9l4.7-7.4c0.5-0.7,1.1-1.5,1.4-2.2
		c0.1-0.1,0.2-0.2,0.2-0.5c0,0,0-0.1,0-0.2v-0.8v-5.3V43.7v-7.3v-3.7h33.1h9.5h3.3c0.6,0,1.3,0,1.9,0l0,0c0.1,0,0.2,0.1,0.4,0.1
		c0,0,0,0,0,0.1v3.4v11.7v13.1l0.1,2.5c0,0.1,0,0.9,0,1.1c0,0.1,0.1,0.2,0.1,0.4l0.1,0.2l0.1,0.1l0.4,0.6l0,0c0,0,0,0.1,0.1,0.1
		c0.1,0.1,0.2,0.4,0.4,0.5l0.4,0.6c0,0.1,0.1,0.1,0.1,0.2l0.6,0.8l0.8,1.2l5.5,8.8l0.1,0.2c0.4,0,0.7-0.1,0.9,0
		c0.1,0.1,0.2,0.2,0.2,0.5c0,0.2-0.1,0.4-0.2,0.6c-0.1,0.2-0.2,0.6-0.5,0.8l-0.1,0.1c-0.7,0.8-1.5,1.3-2.6,1.4c-1.2,0.1-2.3,0-3.5,0
		h-6.4H51.4H30.6H24c-1.2,0-2.2,0.1-3.4,0c-0.8,0-1.4-0.4-2-0.8c-0.2,0-0.5-0.2-0.6-0.5c-0.4-0.5-0.7-0.9-0.8-1.5c0-0.1,0-0.2,0-0.4
		C17.3,79,17.5,78.7,17.6,78.7z"/>
	<path class="st5" d="M23.9,79.2h61l-0.5,1.1h-5.9H18.1l-0.5-1.2L23.9,79.2z"/>
	<path class="st6" d="M77.3,79.6c0.2,0,1.5-0.1,1.6,0c0,0.1,0.1,0.2,0.1,0.4S78.9,80,78.9,80l0,0c-0.4,0.1-0.8,0-1.2,0
		c-0.1,0-0.4,0-0.5,0c-0.1-0.1-0.1-0.1-0.1-0.2C77.2,79.7,77.3,79.7,77.3,79.6z"/>
	<path class="st3" d="M18.6,81.3c-0.1-0.2-0.4-0.5-0.6-0.7h66.3c-0.7,0.8-1.5,1.3-2.6,1.4c-1.2,0.1-2.3,0-3.5,0h-6.4H51.3H30.5h-6.6
		c-1.2,0-2.2,0.1-3.4,0C19.9,82,19.2,81.8,18.6,81.3z"/>
	<path class="st7" d="M27.5,64.7V33.1h41.2h5.6l-2.5,2H29.8v5.9l0,0c0,0.7,0,1.5,0,2.2V47V59v2.5c0,0.1,0,0.6,0,0.7
		s-0.4,0.4-0.5,0.5l-1.2,1.3C28,64.1,27.8,64.5,27.5,64.7z"/>
	<path class="st8" d="M68.8,33.1h5.5h0.1H75v31.7H27.5c0-0.1,0,0,0-0.1c0.2-0.2,0.5-0.5,0.7-0.7l1.2-1.3c0.1-0.1,0.4-0.4,0.5-0.5
		c0-0.1,0-0.5,0-0.7v-2.5V47.1v-3.9c0-0.7,0-1.5,0-2.2l0,0v21.3H64h5.9h1.9c0.2,0,0.6,0,0.8,0c0.1,0,0.2-0.1,0.2-0.2
		c0-0.1,0-0.2,0-0.4v-0.9v-3.7V42.6v-4.3v-2.1c0-0.2,0-0.7,0-0.9c-0.1-0.1-0.6,0-0.7,0l2.5-2L68.8,33.1z"/>
	
		<linearGradient id="SVGID_1_" gradientUnits="userSpaceOnUse" x1="56.8166" y1="545.8359" x2="48.6688" y2="573.33" gradientTransform="matrix(1 0 0 1 0 -486)">
		<stop  offset="0" style="stop-color:#626267"/>
		<stop  offset="1" style="stop-color:#7C838D"/>
	</linearGradient>
	<path class="st9" d="M27.3,65.2c0.5,0,1.1,0,1.6,0h3.3h10.5h21.5h10.9l8.4,13.5h-8.5H18.9L27.3,65.2z"/>
	<path class="st4" d="M43.3,73.2L43.3,73.2c0.1,0,0.4,0,0.5,0h0.8H48h7.1h3.7c0.1,0,0.1,0,0.1,0l0.1,0.1c0.2,0.6,0.5,1.3,0.6,2
		l0.5,1.4c0.1,0.2,0.2,0.5,0.2,0.7c0,0.1,0,0.1,0,0.1l-0.1,0.1c-0.1,0-0.4,0-0.5,0h-1.1H47.2h-3.5c-0.6,0-1.2,0-1.9,0
		c-0.1,0-0.1,0-0.2-0.1v-0.1c0-0.1,0.1-0.4,0.1-0.5l0.4-0.9l0.9-2.7C43.2,73.4,43.3,73.2,43.3,73.2z"/>
	<path class="st10" d="M43.6,73.5h15.2l1.2,3.7h-1.4H42.1L43.6,73.5z"/>
	<path class="st4" d="M29.2,66.2h44.1c0.4,0.4,0.6,0.8,0.8,1.2l1.9,3.2l0.7,1.2c0.1,0.1,0.2,0.4,0.4,0.6c0,0.1,0,0.1,0,0.2
		c0,0,0,0-0.1,0.1c-0.1,0-3.2,0-3.6,0H38.5h-9.7h-2.3c-0.4,0-0.7,0-0.9,0c-0.1,0-0.1-0.1-0.2-0.1c0-0.1,0-0.1,0-0.2
		c0.1-0.2,0.2-0.4,0.4-0.6l0.7-1.2L29.2,66.2z"/>
	<path class="st11" d="M49.4,66.8h3.9l0.1,1.5c0,0.1,0.1,0.5,0,0.6h-0.2h-4.1L49.4,66.8z"/>
	<path class="st11" d="M53.6,66.8h4c0.1,0.1,0.1,0.4,0.1,0.5l0.5,1.6h-4.4L53.6,66.8z"/>
	<path class="st11" d="M60.9,66.8h1.2c0.1,0,0,0,0.1,0.1l1.1,2h-2.8h-1.6l-0.6-2.1H60.9z"/>
	<path class="st11" d="M62.7,66.8h4.1c0.2,0.1,0.4,0.5,0.5,0.6l1.1,1.5h-4.6L62.7,66.8z"/>
	<path class="st11" d="M47.2,66.8H49l-0.4,2.1h-2.8H44l0.7-2.1L47.2,66.8z"/>
	<path class="st11" d="M40.1,66.8c0.6,0,4.1,0,4.2,0L43.8,68c-0.1,0.2-0.1,0.6-0.4,0.8h-0.2h-4.3L40.1,66.8z"/>
	<path class="st11" d="M35.1,66.8h4.4l-1.2,2.1h-0.1h-4.6L35.1,66.8z"/>
	<path class="st11" d="M29.5,66.8h5.2l-1.3,2.1c0,0,0,0-0.1,0H33h-0.7h-4.1L29.5,66.8z"/>
	<path class="st11" d="M67.3,66.8H73l1.3,2.1h-5.4L67.3,66.8z"/>
	<path class="st11" d="M49.1,69.4h4.4c0,0.4,0.2,2.5,0.2,2.6h-0.2h-4.7L49.1,69.4z"/>
	<path class="st11" d="M33.5,69.4h4.7l-0.9,1.8c-0.1,0.2-0.2,0.6-0.5,0.8h-0.1h-4.8L33.5,69.4z"/>
	<path class="st11" d="M54,69.4h4.6l0.8,2.6h-5.2L54,69.4z"/>
	<path class="st11" d="M64.1,69.4h4.7l1.9,2.6h-5.2L64.1,69.4z"/>
	<path class="st11" d="M38.8,69.4h4.7l-0.7,2c-0.1,0.2-0.1,0.5-0.2,0.6h-0.4h-4.8L38.8,69.4z"/>
	<path class="st11" d="M60.7,69.4h2.8l1.4,2.6h-1.8h-3.4l-0.8-2.6H60.7z"/>
	<path class="st11" d="M43.9,69.4h4.7L48.3,72h-0.5H43L43.9,69.4z"/>
	<path class="st11" d="M27.9,69.3H33l-1.6,2.6l0,0c0,0,0,0-0.1,0s-0.4,0-0.5,0h-0.9h-3.7L27.9,69.3z"/>
	<path class="st11" d="M69.2,69.4h5.4l1.6,2.7h-5L69.2,69.4z"/>
	<path class="st4" d="M71.9,35.1c0.2,0,0.6,0,0.7,0c0.1,0.2,0.1,0.7,0,0.9v2.1v4.3V57v3.7v0.9c0,0.1,0,0.2,0,0.4s-0.1,0.2-0.2,0.2
		c-0.2,0.1-0.6,0-0.8,0h-1.9h-5.9H29.8V40.9v-5.9L71.9,35.1z"/>
	<path class="st3" d="M72.4,35.3L72.4,35.3l0.1,0.1v16.5v6.8v2.9c0,0.1,0,0.2-0.1,0.4c-0.1,0-0.1,0-0.2,0c-0.6,0-1.2,0-1.8,0h-4.1
		H43h-4.7h-8.2c-0.1,0,0,0-0.1,0V35.4L72.4,35.3z"/>
	<path class="st6" d="M68.3,35.8H72v1.9c0,0.2,0,0.6,0,0.7l0,0v-0.1c0-0.2,0-0.6,0-0.8v-1.5h-0.6H71c-0.4-0.1-0.8,0-1.2,0h-2.7
		c0.1-0.1,0.4,0,0.5,0L68.3,35.8z"/>
	<path class="st4" d="M53.9,35.8h14.3h-0.9c-0.1,0-0.4,0-0.5,0h2.7c0.4,0,0.8,0,1.2,0H55.9c0.2-0.1,0.6,0,0.8,0h1.6l0,0h-0.1
		c-0.2-0.1-0.6,0-0.9,0h-2.7C54.7,35.8,54.1,35.8,53.9,35.8z"/>
	<path class="st4" d="M71.8,61.4c0.1-0.2,0-3.4,0-3.9c0.1,0.1,0,0.5,0,0.6v2.2C71.9,60.6,71.9,61.1,71.8,61.4L71.8,61.4
		c0.1-0.2,0.1-0.5,0.1-0.6l0,0c0,0.2,0,0.5,0,0.7H33.3l0,0h6.1c0.1,0,0,0,0.1,0l0,0l0,0c-1.1,0.1-2.2,0-3.4,0h-0.8
		c-0.1,0-0.2,0-0.2,0l0,0h-0.1h-0.1c-0.4,0-2.3-0.1-2.6,0l0,0h-0.1c0,0,0,0-0.1,0s-1.2,0-1.2,0c-0.1,0-0.2,0-0.4-0.1v-0.5
		c0-0.2,0-0.5,0-0.6c0,0.2-0.1,0.8,0,1.1c0.2,0.1,0.6,0,0.8,0h1.6h6.2c0.9,0.1,1.9,0,2.9,0h5.2h16.2h6.3h1.4
		C71.4,61.4,71.7,61.4,71.8,61.4z"/>
	<path class="st12" d="M30.7,38.2v-0.1c0-0.1,0-0.1,0-0.2c0-0.2,0-0.5,0-0.7c0-0.2,0-0.5,0-0.7c0-0.1,0-0.4,0-0.5l0,0l0,0
		c-0.1,0.1,0,0.8-0.1,1.1v-1.2c0.1-0.1,2.7,0,3,0h7.5h4.6h2.1H54c0.2,0.1,0.8,0,1.1,0h2.7c0.2,0,0.6,0,0.9,0h0.1l0,0h-1.6
		c-0.2,0-0.6,0-0.8,0h14.8h0.5h0.6v1.5c0,0.2,0,0.6,0,0.8v0.1v23.2c-0.1,0-0.4,0-0.6,0h-1.4h-6.3H47.7h-5.2c-0.9,0-2,0-2.9,0
		c0.1,0,0.2,0,0.4-0.1c0.9-0.6,1.9-1.4,2.8-2.1l5.5-4.4l13.8-11.1l6.7-5.4c-0.4,0-0.8,0-1.2,0h-2.2h-7.6h-17L30.7,38.2V42V38.2z"/>
	<path class="st4" d="M30.7,38.2v-0.1c0-0.1,0-0.1,0-0.2c0-0.2,0-0.5,0-0.7c0-0.2,0-0.5,0-0.7c0-0.1,0-0.4,0-0.5l0,0l0,0
		c-0.1,0.1,0,0.8-0.1,1.1v-1.2c0.1-0.1,2.7,0,3,0h7.5l0,0c-0.4,0.1-0.8,0-1.2,0h-2.8c-0.5,0-0.8,0-1.3,0h-0.4l0,0h8.1h4.8h1.3
		c0.2,0,0.5,0,0.6,0s0.2,0,0.4,0H30.8L30.7,38.2z"/>
	<path class="st6" d="M47.7,35.8h6.2c0.2,0.1,0.8,0,1.1,0h2.7c0.2,0,0.6,0,0.9,0h0.1l0,0H57c-0.2,0-0.6,0-0.8,0h-5.6
		c-0.1,0-0.2,0-0.4,0c-0.2,0-0.5,0-0.6,0h-1.3h-4.8h-8.1l0,0h0.4c0.5,0,0.8,0,1.3,0h2.8c0.4,0,0.8,0,1.2,0l0,0h4.6H47.7z"/>
	
		<linearGradient id="SVGID_00000129205944016592657360000017321272273458649268_" gradientUnits="userSpaceOnUse" x1="68.5281" y1="523.853" x2="72.0354" y2="522.8843" gradientTransform="matrix(1 0 0 1 0 -486)">
		<stop  offset="0" style="stop-color:#092537"/>
		<stop  offset="1" style="stop-color:#0A3B40"/>
	</linearGradient>
	<path style="fill:url(#SVGID_00000129205944016592657360000017321272273458649268_);" d="M71.3,35.8h0.6v1.5c0,0.2,0,0.6,0,0.8v0.1
		h-3.4l2.2-1.8C70.7,36.2,71.2,36,71.3,35.8z"/>
	<path class="st14" d="M30.7,41.9v-3.7h9.6h17h7.6h2.2c0.4,0,0.8,0,1.2,0l-6.7,5.4L47.8,54.6l-5.5,4.4c-0.9,0.7-1.8,1.5-2.8,2.1
		c-0.1,0.1-0.2,0.1-0.4,0.1h-6.2h-1.6c-0.2,0-0.6,0-0.8,0L30.7,41.9z"/>
</g>
<g>
	<path class="st15" d="M103.4,21.1V9.4L93.4,3.6L83.2,9.4v11.7l10.1,5.8L103.4,21.1z"/>
	<path class="st15" d="M99.2,18.7v-6.9l-5.9-3.4l-5.9,3.4v6.9l5.9,3.4L99.2,18.7z"/>
	<path class="st16" d="M93.4,8.5V3.6l10.1,5.8l-4.2,2.4L93.4,8.5z"/>
	<path class="st17" d="M99.2,18.7v-6.9l4.2-2.4v11.7L99.2,18.7z"/>
	<path class="st18" d="M93.4,22v4.8l10.1-5.8l-4.2-2.4L93.4,22z"/>
	<path class="st17" d="M87.4,18.7l-4.2,2.4l10.1,5.8v-4.8L87.4,18.7z"/>
	<path class="st19" d="M93.4,8.5l-5.9,3.4l-4.2-2.4l10.1-5.8V8.5z"/>
	<path class="st20" d="M103.4,9.4L99,11.6l-5.4-3.2l-0.2-5l-0.2,5l-5.4,3.2l-4.5-2.2l4.2,2.4v2.4c0.1-0.8,0.2-1.5,0.3-2.2l5.7-3.1
		l5.7,3.1c0.1,0.8,0.2,1.5,0.3,2.2v-2.4h0.1L103.4,9.4z"/>
	<path class="st21" d="M93.4,3.6l10.1,5.8v11.7l-10.1,5.8l-10.1-5.8V9.4L93.4,3.6z M93.4,3C93.3,3,93.1,3,93,3L82.9,8.9
		c-0.1,0.1-0.2,0.2-0.3,0.3c-0.1,0.1-0.1,0.3-0.1,0.3v11.7c0,0.1,0,0.3,0.1,0.3c0.1,0.1,0.2,0.2,0.3,0.3L93,27.6
		c0.1,0.1,0.3,0.1,0.3,0.1c0.1,0,0.3,0,0.3-0.1l10.1-5.8c0.1-0.1,0.2-0.2,0.3-0.3c0.1-0.1,0.1-0.3,0.1-0.3V9.4c0-0.1,0-0.3-0.1-0.3
		c-0.1-0.1-0.2-0.2-0.3-0.3L93.7,3C93.5,3,93.5,3,93.4,3L93.4,3z"/>
</g>
</svg>
