<?xml version="1.0" encoding="utf-8"?>
<!-- Generator: Adobe Illustrator 27.1.1, SVG Export Plug-In . SVG Version: 6.00 Build 0)  -->
<svg version="1.1" id="Слой_1" xmlns="http://www.w3.org/2000/svg" xmlns:xlink="http://www.w3.org/1999/xlink" x="0px" y="0px"
	 viewBox="0 0 37 36" style="enable-background:new 0 0 37 36;" xml:space="preserve">
<style type="text/css">
	.st0{fill-rule:evenodd;clip-rule:evenodd;fill:#393931;}
</style>
<path class="st0" d="M18.3,4.1c-1,0-1.9,0.8-1.9,1.9s0.8,1.9,1.9,1.9S20.2,7,20.2,6S19.4,4.1,18.3,4.1z M14.2,6
	c0-2.3,1.8-4.1,4.1-4.1s4.1,1.8,4.1,4.1s-1.8,4.1-4.1,4.1S14.2,8.3,14.2,6z M25.8,10.7c2.1-0.5,4.1,1.2,4.1,3.3
	c0,1.5-0.9,2.8-2.3,3.2l-3.3,1.1c-0.2,0.1-0.3,0.1-0.4,0.1c-0.1,0-0.1,0-0.1,0c-0.1,0.1-0.2,0.2-0.2,0.4c0,0,0,0,0,0.1
	c0,0.1,0.1,0.2,0.2,0.4l1.9,4.9c0.8,2.2-0.8,4.5-3.1,4.5c-1.2,0-2.3-0.6-2.9-1.7l-1.4-2.4l-1.4,2.4c-0.6,1-1.7,1.7-2.9,1.7
	c-2.3,0-4-2.3-3.1-4.5l1.9-4.9c0.1-0.2,0.1-0.3,0.2-0.4c0-0.1,0-0.1,0-0.1c0-0.1,0-0.3-0.2-0.4c0,0,0,0-0.1,0
	c-0.1,0-0.2-0.1-0.4-0.1L9,17.3c-1.4-0.5-2.3-1.8-2.3-3.2c0-2.2,2-3.8,4.1-3.3l2.8,0.6c0.2,0,0.2,0.1,0.3,0.1c2.9,0.6,5.8,0.6,8.7,0
	c0.1,0,0.1,0,0.3-0.1L25.8,10.7z M27.7,14.1c0-0.7-0.7-1.3-1.4-1.1l-2.9,0.6c-0.2,0-0.2,0.1-0.3,0.1c-3.2,0.7-6.4,0.7-9.6,0
	c-0.1,0-0.2,0-0.3-0.1l-2.9-0.6C9.6,12.8,9,13.3,9,14.1c0,0.5,0.3,1,0.8,1.1l3.3,1.1c0,0,0.1,0,0.1,0c0.3,0.1,0.6,0.2,0.9,0.4
	c0.9,0.5,1.4,1.6,1.2,2.6c0,0.3-0.2,0.6-0.3,0.9c0,0,0,0.1,0,0.1L13,25.2c-0.3,0.7,0.3,1.5,1,1.5c0.4,0,0.7-0.2,0.9-0.5l2.4-4.1
	c0.2-0.4,0.6-0.6,1-0.6c0.4,0,0.8,0.2,1,0.6l2.4,4.1c0.2,0.3,0.6,0.5,0.9,0.5c0.8,0,1.3-0.8,1-1.5l-1.9-4.9c0,0,0-0.1,0-0.1
	c-0.1-0.3-0.2-0.6-0.3-0.9c-0.1-1,0.3-2,1.2-2.6c0.3-0.2,0.6-0.3,0.9-0.4c0,0,0.1,0,0.1,0l3.3-1.1C27.4,15,27.7,14.6,27.7,14.1z
	 M8.2,21.2c0.3,0.6,0.1,1.2-0.5,1.5c-2.3,1.1-3.2,2.4-3.2,3.5c0,1.1,1.1,2.6,3.7,3.7c2.5,1.1,6.1,1.9,10.1,1.9c4,0,7.6-0.7,10.1-1.9
	c2.6-1.2,3.7-2.6,3.7-3.7c0-1.1-0.9-2.3-3.2-3.5c-0.6-0.3-0.8-1-0.5-1.5c0.3-0.6,1-0.8,1.5-0.5c2.5,1.2,4.4,3.1,4.4,5.5
	c0,2.6-2.3,4.5-5.1,5.8c-2.9,1.3-6.8,2.1-11.1,2.1c-4.3,0-8.2-0.8-11.1-2.1c-2.8-1.3-5.1-3.2-5.1-5.8c0-2.4,2-4.3,4.4-5.5
	C7.2,20.5,7.9,20.7,8.2,21.2z"/>
</svg>
