<?xml version="1.0" encoding="utf-8"?>
<!-- Generator: Adobe Illustrator 27.1.1, SVG Export Plug-In . SVG Version: 6.00 Build 0)  -->
<svg version="1.1" id="Слой_1" xmlns="http://www.w3.org/2000/svg" xmlns:xlink="http://www.w3.org/1999/xlink" x="0px" y="0px"
	 viewBox="0 0 160 109" style="enable-background:new 0 0 160 109;" xml:space="preserve">
<style type="text/css">
	.st0{fill:#F4F6F1;}
	.st1{fill:none;stroke:#C2C2C2;}
	.st2{fill:url(#SVGID_1_);}
	.st3{fill:#E2C04F;}
	.st4{fill:#BF951E;}
	.st5{fill:#8A6E10;}
	.st6{fill:#B69932;}
	.st7{fill:#634902;}
	.st8{fill:#9B8122;}
	.st9{fill:#EB9503;}
	.st10{fill:#C64904;}
	.st11{fill:#D07202;stroke:#441F00;stroke-width:2;stroke-linejoin:round;}
	.st12{fill:#FBBF05;stroke:#441F00;stroke-width:2;stroke-linejoin:round;}
	.st13{fill:#30290B;stroke:#441F00;stroke-width:2;stroke-linejoin:round;}
	.st14{fill:#080706;stroke:#441F00;stroke-width:2;stroke-linejoin:round;}
	.st15{fill:#FEFEFE;stroke:#441F00;stroke-width:2;stroke-linejoin:round;}
	.st16{fill:#E78A02;stroke:#441F00;stroke-width:2;stroke-linejoin:round;}
	.st17{fill:#FBD522;stroke:#441F00;stroke-width:2;stroke-linejoin:round;}
	
		.st18{fill:url(#SVGID_00000035511472987078939720000018068771506932533152_);stroke:#441F00;stroke-width:2;stroke-linejoin:round;}
	.st19{fill:#DCDCD8;stroke:#441F00;stroke-width:2;stroke-linejoin:round;}
	.st20{fill:#D07202;}
	.st21{fill:#FBBF05;}
	.st22{fill:#30290B;}
	.st23{fill:#080706;}
	.st24{fill:#FEFEFE;}
	.st25{fill:#E78A02;}
	.st26{fill:#FBD522;}
	.st27{fill:url(#SVGID_00000113327947209563446620000004272267850378827653_);}
	.st28{fill:#DCDCD8;}
	.st29{fill-rule:evenodd;clip-rule:evenodd;fill:url(#SVGID_00000099622996613055041980000008234752706484871334_);}
	.st30{fill:#441F00;}
	.st31{fill:#111111;stroke:#919191;stroke-width:0.2;stroke-miterlimit:10;}
	.st32{fill:#FFFFFF;stroke:#919191;stroke-width:0.2;stroke-miterlimit:10;}
</style>
<path class="st0" d="M12.5,0.5H148c6.4,0,11.5,5.1,11.5,11.5v85c0,6.4-5.1,11.5-11.5,11.5H12.5C6.1,108.5,1,103.4,1,97V12
	C1,5.6,6.1,0.5,12.5,0.5z"/>
<path class="st1" d="M12.5,0.5H148c6.4,0,11.5,5.1,11.5,11.5v85c0,6.4-5.1,11.5-11.5,11.5H12.5C6.1,108.5,1,103.4,1,97V12
	C1,5.6,6.1,0.5,12.5,0.5z"/>
<linearGradient id="SVGID_1_" gradientUnits="userSpaceOnUse" x1="80.35" y1="580.5" x2="80.35" y2="501.1" gradientTransform="matrix(1 0 0 1 0 -486)">
	<stop  offset="0" style="stop-color:#9C3600"/>
	<stop  offset="4.000000e-02" style="stop-color:#A44401"/>
	<stop  offset="0.25" style="stop-color:#CD8909"/>
	<stop  offset="0.4" style="stop-color:#E7B40D"/>
	<stop  offset="0.48" style="stop-color:#F1C40F"/>
	<stop  offset="0.53" style="stop-color:#F2C615"/>
	<stop  offset="0.6" style="stop-color:#F3CC25"/>
	<stop  offset="0.67" style="stop-color:#F7D53F"/>
	<stop  offset="0.75" style="stop-color:#FBE363"/>
	<stop  offset="0.81" style="stop-color:#FFF088"/>
	<stop  offset="1" style="stop-color:#FFF8D6"/>
</linearGradient>
<path class="st2" d="M80.3,15.1L114.7,35v39.7L80.3,94.5L46,74.7V35L80.3,15.1z"/>
<path class="st3" d="M80.3,19v35.2L49.8,36.6L80.3,19z"/>
<path class="st4" d="M80.3,54.2L49.8,71.8V36.6L80.3,54.2z"/>
<path class="st5" d="M80.3,54.2v35.2L49.8,71.8L80.3,54.2z"/>
<path class="st6" d="M80.3,19l30.5,17.6L80.3,54.2V19z"/>
<path class="st7" d="M80.3,54.2l30.5,17.6L80.3,89.4V54.2z"/>
<path class="st8" d="M80.3,54.2l30.5-17.6v35.2L80.3,54.2z"/>
<path class="st9" d="M95.2,38.6c0.3,0.2,0.4,0.5,0.6,0.8l1,1.3l4.7,6c0.3,0.4,0.8,0.9,0.9,1.3v0.1l0.1,0.1l-4.7-2.7L96,44.4
	c-0.3-0.2-0.6-0.4-0.9-0.5L95.2,38.6z"/>
<path class="st10" d="M80.4,35.8l7.4,2.9l-2.1,2c-0.4,0.4-0.8,0.9-1.3,1.1c-0.4,0.2-1.1,0.3-1.5,0.3h-0.3l-7.3-0.5l-2.1-2L80.4,35.8
	z"/>
<path class="st10" d="M64.9,43.8v1.5l-2.6,6.8l-0.5,3.1l-0.6,3.2c0,0.2-0.3,0.9-0.2,1.1c0,0.1,0.1,0.1,0.1,0.1l0.8,1.8l2.2,4.6
	l1.5,3.2c0.2,0.5,0.4,1,0.7,1.4l0.1,0.3l-4.9,7.4c-0.6,0-3.1,0.2-3.4,0.5L58,78.6l0.1-3.8v-0.1l0.1-13.2v-8.9v-2.7
	c0-0.5,0-1.1-0.1-1.6v-0.1L64.9,43.8z"/>
<path class="st10" d="M95,43.8c0.3,0.1,0.6,0.3,0.9,0.5l1.8,1.1l4.7,2.7l0.3,0.2v0.1c-0.1,0.5,0,1.1,0,1.6v2.6V61v13.3v1.1v2.3v0.7
	l-0.1,0.4l-3.1-3.6c-0.2-0.6-0.2-1.3-0.3-1.9L99,70.6l-1.8-11.9c0-0.1,0-0.2,0-0.3c-0.2-0.6-0.3-1.3-0.5-2l-0.8-3.9l-0.7-3.3
	c-0.1-0.4-0.2-0.9-0.3-1.3c0-0.5,0-1.1,0-1.6L95,43.8z"/>
<path class="st11" d="M61.9,77.3c-0.1,0-0.2-0.1-0.3-0.1c-0.3,0-1.2,0-1.9,0.1c-0.4,0-0.8,0.1-1.1,0.2c-0.2,0-0.3,0.1-0.5,0.1
	c-0.1,0-0.4,0.1-0.6,0.3c-0.2,0.2-0.4,0.5-0.3,0.9c0,0.3,0.2,0.6,0.5,0.8l6,3.1l0,0l9.8,4.8l0,0l4,2l0,0l0,0l1.6,0.8l0,0h0.1
	c0.2,0.1,0.6,0.3,1,0.3c0.5,0.1,0.9-0.2,1.1-0.6s0-0.9-0.4-1.2l-12.2-7.7l0,0l-4.1-2.4l0,0L63,77.9l-0.1-0.1
	C62.6,77.6,62.3,77.4,61.9,77.3z M58.6,79.6L58.6,79.6L58.6,79.6z"/>
<path class="st12" d="M69.8,43.5c0.1-0.1,0.2-0.1,0.3-0.2c0,0.1,0.1,0.1,0.1,0.1c0.1,0.1,0.2,0.2,0.2,0.2l0,0l0,0l0.9,1
	c0.8,1,1.5,2,2.2,3l0,0l0.1,0.1c0.1,0.2,0.2,0.3,0.3,0.5c0.1,0.1,0.1,0.2,0.1,0.2l0,0c0,0.1,0,0.2,0,0.3l2.1,7
	c0.1,0.3,0.3,0.6,0.7,0.7l5.5,1.8c0.3,0.1,0.6,0.1,0.8-0.1l6.4-3.9l4.1,2.7l0,0l0,0c0.2,0.2,0.5,0.3,0.8,0.5
	c0.7,0.5,1.5,1.1,2.3,1.5c0.4,0.2,0.8,0.1,1.1-0.1c0.3-0.3,0.4-0.7,0.3-1.1c-0.1-0.4-0.2-0.8-0.3-1.2c0-0.2-0.1-0.4-0.1-0.6l0,0
	L96.9,52l0,0l-0.8-3l0,0c0-0.2-0.1-0.4-0.1-0.5c-0.1-0.3-0.1-0.5-0.1-0.7c0-0.3,0-0.6,0-1c0-0.1,0-0.3,0-0.5l0,0l0,0l0.1-2.4l0,0
	l0,0l0.2-5.2v-0.1c0-0.3,0-0.5,0-0.8c0-0.2,0-0.4,0-0.6l0,0l0,0v-3l0,0c0-0.1,0-0.2,0-0.4l0,0c0-0.1,0-0.3,0-0.4c0-0.3,0-0.7-0.1-1
	c0-0.1-0.1-0.3-0.2-0.4l0,0l-0.1-0.1c0-0.1-0.1-0.1-0.3-0.2c-0.1-0.1-0.3-0.1-0.4-0.1s-0.1,0-0.2,0l0,0c-0.2,0-0.3,0-0.5,0
	c-0.7,0.2-1.2,0.7-1.5,1.1c-0.1,0.1-0.1,0.1-0.1,0.1l0,0c-0.4,0.4-0.8,0.8-1.2,1.1c0,0,0,0-0.1,0.1l-3.1,2.8l0,0
	c-0.2,0.2-0.3,0.3-0.5,0.5c-0.3,0.3-0.6,0.6-1,0.9l-0.1,0.1l-2.5,2.4h-8.9L73.5,39L65,31.1c-0.3-0.3-0.7-0.3-1.1-0.2
	c-0.4,0.2-0.6,0.5-0.6,1l0.6,11.9v1.5c0,0.4,0.2,0.7,0.5,0.9s0.7,0.2,1,0l3.2-2c0.1-0.1,0.3-0.2,0.4-0.2c0,0,0.1,0,0.1-0.1
	c0.1-0.1,0.2-0.1,0.2-0.1C69.4,43.7,69.6,43.6,69.8,43.5L69.8,43.5L69.8,43.5z"/>
<path class="st13" d="M81.4,49.9c-0.3,0-0.6,0.1-0.8,0.4l-0.9,1.2l0,0L79.4,52l-0.1,0.1c-0.2,0.4-0.5,0.8-0.8,1.2
	c-0.1,0.2-0.2,0.3-0.3,0.5c-0.2,0.3-0.2,0.7-0.1,1c0.2,0.3,0.5,0.5,0.9,0.6l5.5,0.2c0.5,0,1-0.4,1-0.9l0.4-3.5
	c0-0.3-0.1-0.6-0.2-0.8c-0.2-0.2-0.5-0.3-0.7-0.3h-2L81.4,49.9z"/>
<path class="st14" d="M81.4,49.9c-0.3,0-0.6,0.1-0.8,0.4l-0.9,1.2c-0.3,0.4-0.3,0.9,0.1,1.3L80,53c0.4,0.4,0.8,0.8,1.2,1.2
	c0.3,0.3,0.8,0.3,1.2,0c0.5-0.4,0.9-0.9,1.2-1.2l0.1-0.1l0,0c0-0.1,0.1-0.1,0.1-0.2c0.3-0.3,0.6-0.7,0.9-1.1c0.2-0.3,0.2-0.7,0.1-1
	c-0.2-0.3-0.5-0.5-0.9-0.5c-0.1,0-0.2,0-0.3,0l0,0l0,0c-0.1,0-0.2,0-0.2,0h-0.1c-0.1,0-0.2-0.1-0.3-0.1L81.4,49.9z M83.2,50L83.2,50
	L83.2,50z"/>
<path class="st15" d="M80.8,50.7c0.2-0.2,0.4-0.3,0.7-0.3l0,0c0.1,0,0.2,0,0.4,0c0.2,0,0.5,0.1,0.8,0.4L80.8,50.7z M80.8,50.7
	L80.8,50.7c-0.1,0.1-0.5,0.4-0.6,1.1l0,0c0,0.2,0,0.4,0.1,0.6c0.1,0.2,0.2,0.4,0.4,0.6l0,0c0.4,0.4,1,0.4,1.2,0.4s0.5-0.1,0.6-0.3
	l0,0c0.1-0.1,0.6-0.5,0.6-1.1l0,0 M80.8,50.7l2.4,1.3 M83.2,52c0-0.1,0-0.4-0.1-0.6 M83.2,52l-0.1-0.6 M81.2,51.8L81.2,51.8
	L81.2,51.8c0-0.1,0.1-0.2,0.1-0.2l0,0l0,0C81.2,51.7,81.2,51.7,81.2,51.8L81.2,51.8L81.2,51.8z M81.2,51.8L81.2,51.8L81.2,51.8z
	 M83.1,51.4c-0.1-0.2-0.2-0.4-0.4-0.6L83.1,51.4z M81.5,52.2L81.5,52.2L81.5,52.2L81.5,52.2L81.5,52.2L81.5,52.2
	c-0.1,0-0.2-0.1-0.2-0.2c0-0.1,0-0.1,0-0.2l0,0C81.2,52,81.3,52.1,81.5,52.2C81.4,52.2,81.4,52.2,81.5,52.2
	C81.4,52.2,81.4,52.2,81.5,52.2C81.4,52.2,81.4,52.2,81.5,52.2z M81.2,51.8L81.2,51.8L81.2,51.8z M82.2,52.1L82.2,52.1
	c0-0.1,0-0.1,0-0.2v-0.1l0,0c0,0,0,0,0,0.1l0,0C82.2,51.9,82.2,52,82.2,52.1C82.2,52,82.2,52.1,82.2,52.1z M82.2,51.8L82.2,51.8
	c0-0.1-0.1-0.2-0.2-0.3l0,0l0,0l0,0l0,0l0,0C82.1,51.6,82.1,51.7,82.2,51.8C82.2,51.7,82.2,51.8,82.2,51.8z M82,51.4L82,51.4
	c-0.1,0-0.1,0-0.2,0v-0.1C81.9,51.3,82,51.4,82,51.4z"/>
<path class="st16" d="M70.1,42.3c0.3,0.4,0.7,0.5,1.2,0.4c0,0,0,0,0.1,0s0.2,0,0.3,0c0.1,0,0.2,0,0.4,0l0,0c0.1,0,0.2,0,0.4,0l0,0
	l3-0.1c0.4,0,0.8-0.3,0.9-0.6c0.1-0.4,0-0.8-0.2-1.1l-2.1-2l0,0L68.7,34l0,0l-2.4-2.1l0,0c-0.1,0-0.1-0.1-0.2-0.1
	c-0.3-0.3-0.8-0.7-1.3-0.9c-0.4-0.2-0.9-0.1-1.2,0.2c-0.3,0.3-0.3,0.8-0.1,1.2L70.1,42.3z"/>
<path class="st15" d="M63.4,32.5l0.5,11.3v1.5c0,0.4,0.2,0.7,0.5,0.9s0.7,0.2,1,0l3.2-2c0.1-0.1,0.3-0.2,0.4-0.2c0,0,0.1,0,0.1-0.1
	c0.1-0.1,0.2-0.1,0.3-0.2c0.5-0.2,0.7-0.8,0.5-1.3l-4.5-10.3c-0.2-0.4-0.7-0.7-1.1-0.6C63.8,31.6,63.4,32,63.4,32.5z"/>
<path class="st17" d="M82.7,41.1c-0.5,0-0.9,0.3-1,0.7l-0.1,0.1l0,0L81.5,42l-1.1,1l0,0c-0.4,0.3-0.8,0.7-1.2,1
	c-1.5,1.3-3,2.6-4.6,3.7c-0.3,0.2-0.4,0.5-0.4,0.8s0.1,0.6,0.4,0.8l1.9,1.5l0,0c0.1,0.1,0.2,0.2,0.4,0.3c0.9,0.7,1.7,1.2,2.4,2l0,0
	c0.2,0.2,0.5,0.4,0.8,0.4s0.6-0.1,0.8-0.4l0.3-0.5l0,0l0.9-1.2c0.1-0.1,0.2-0.3,0.2-0.4l1.6-8.7c0.1-0.3,0-0.6-0.2-0.8
	s-0.4-0.4-0.7-0.4L82.7,41.1z"/>
<path class="st17" d="M95.5,33c0-0.4-0.2-0.8-0.6-1c-0.4-0.2-0.9,0-1.2,0.3l-8.4,10.6c-0.2,0.2-0.2,0.5-0.2,0.8s0.2,0.5,0.4,0.7
	l3.2,2.3l0,0l4,3c0.3,0.2,0.7,0.3,1,0.1s0.6-0.5,0.6-0.8L95.5,33z"/>
<path class="st15" d="M68.6,41.8C68.6,41.8,68.7,41.8,68.6,41.8L68.6,41.8L68.6,41.8L68.6,41.8L68.6,41.8c0.3-0.2,0.6-0.4,0.9-0.6
	s0.7-0.4,1.1-0.4c0.3-0.1,0.6,0,0.9,0.2s0.4,0.5,0.4,0.8c0,0.1,0,0.2,0,0.2l0,0c0,0,0,0,0,0.1l0,0v0.1c0,0,0,0,0.1,0.1l0,0l0.9,1.1
	l0,0c0.9,1,1.6,2.1,2.4,3.3c0,0,0,0.1,0.1,0.1c0.1,0.2,0.3,0.4,0.4,0.7c0.1,0.2,0.3,0.6,0.3,1.1l1.9,6.3l4.5,1.5l6.6-4
	c0.3-0.2,0.7-0.2,1.1,0l4.6,3.1l0,0c0.3,0.2,0.6,0.4,0.9,0.6c0,0,0.1,0,0.1,0.1c0.1-0.4,0.4-0.8,0.8-0.8c0.5-0.1,1,0.2,1.2,0.8
	l0.5,2c0,0.2,0,0.4,0,0.6l2.6,16.1l2.2,2.5l0.4,0.2c0.3,0.2,0.6,0.5,0.6,0.9v0.1c0,0,0,0,0,0.1s0,0.2,0,0.3c0,0.3-0.1,0.7-0.5,1l0,0
	c-0.4,0.4-0.9,0.6-1.2,0.7l-20.7,9.9c-0.1,0.1-0.2,0.1-0.3,0.1c-0.3,0.3-0.8,0.3-1.2,0.1L80,90.6l0,0l-12.2-7.7l-4.1-2.4l0,0
	L62,79.6l0,0c-0.1-0.1-0.3-0.2-0.5-0.3c-0.1-0.1-0.2-0.1-0.2-0.1h-0.1l0,0l0,0l0,0l0,0l0,0l0,0l0.5-0.9c0,0,0.6,0.3,0.9,0.5
	L68.6,41.8z M68.6,41.8c-0.2,0.1-0.4,0.2-0.6,0.3c-0.1,0-0.1,0.1-0.1,0.1c-0.1,0.1-0.2,0.1-0.2,0.2l0,0l0,0l-3.2,2
	c-0.2,0.1-0.3,0.3-0.4,0.5l-2.6,7c0,0.1,0,0.1,0,0.2L60,59.4c0,0.2,0,0.4,0.1,0.6 M68.6,41.8L60.2,60 M60.1,60.1l5.2,10.7L60.1,60.1
	z"/>
<path class="st14" d="M70.4,56.1c0.4-0.2,0.8-0.1,1.1,0.1c0.1,0.1,0.3,0.2,0.5,0.4c0.1,0,0.1,0.1,0.2,0.1c0.2,0.1,0.4,0.2,0.5,0.3
	l0,0l2.4,1.6c0.4,0.3,0.6,0.8,0.3,1.3c-0.1,0.3-0.3,0.5-0.4,0.6s-0.1,0.1-0.2,0.2l0,0c-0.1,0.1-0.1,0.1-0.1,0.2l0,0l-2.1,2.2
	l1.5,0.5l0,0l1.4,0.5l0,0l0,0l0,0l0,0 M70.4,56.1l-1.2,9.4c0.5-0.3,1-0.6,1.6-0.9l0.2,0.1l0.2,0.7c-0.1,0-0.2,0-0.2,0 M70.4,56.1
	l-3.8,2c-0.2,0.1-0.4,0.4-0.5,0.6c-0.1,0.3,0,0.6,0.1,0.8l1.6,2.5l0,0l0,0c0.3,0.4,0.6,0.9,1,1.3 M70.4,56.1l-1.5,7.3 M75.5,64.3
	C75.6,64.3,75.6,64.3,75.5,64.3C75.6,64.3,75.6,64.3,75.5,64.3L75.5,64.3l0.2,0.1l0,0l0,0l0,0l0,0l0,0
	C75.7,64.4,75.7,64.4,75.5,64.3C75.7,64.4,75.6,64.3,75.5,64.3l0.1,0.4l0,0l0,0c0,0,0.1-0.1,0.2-0.1l0.4-0.2l0,0l3-1.7l0.8-0.5l0,0
	l1.6-1l0.5,0.9l0.2,1c-0.2,0-0.4,0.1-0.7,0.3c-0.1,0.1-0.3,0.1-0.4,0.2l0,0c-0.1,0.1-0.3,0.2-0.4,0.2L80,64.2l0,0l-3,1.5l0,0
	c0,0-0.1,0-0.1,0.1l0,0c-0.1,0-0.1,0.1-0.2,0.1l0,0c0,0-0.1,0-0.1,0.1c-0.1,0.1-0.2,0.1-0.3,0.2c-0.1,0-0.1,0.1-0.2,0.1l0,0
	c0,0-0.2,0.1-0.3,0.1l0,0h-0.1l0,0c-0.1,0-0.2,0-0.3,0c-0.1,0-0.1,0-0.1,0c-0.1,0-0.1-0.1-0.2-0.1H75l0,0l0,0l0,0l0,0l-1.4-0.5
	L71.8,65l0,0l-0.9-0.3l0.2,0.7H71 M75.5,64.3c0.1,0,0.2-0.1,0.2-0.1l0,0l0,0c0.1,0,0.2-0.1,0.2-0.1l0,0l0,0l3.9-2.1l0,0l0,0
	c0.1-0.1,0.2-0.1,0.4-0.2l0,0c0.1-0.1,0.3-0.2,0.4-0.2c0.3-0.2,0.7-0.4,1.1-0.5c0.5-0.1,1,0.1,1.2,0.6s0,1-0.4,1.2L80,64.4l0,0
	l-3.4,1.9l0,0l0,0c0,0,0,0-0.1,0l0,0c-0.1,0-0.1,0.1-0.2,0.1s-0.2,0.1-0.3,0.2c0,0-0.1,0.1-0.2,0.1s-0.2,0.1-0.3,0.1l0,0
	c-0.1,0-0.2,0-0.3,0c-0.1,0-0.1,0-0.2,0s-0.2,0-0.2-0.1c-0.1,0-0.1,0-0.2-0.1l0,0h-0.1l0,0l0,0l0,0l-3.2-0.9l0,0l0,0
	c-0.1,0-0.2-0.1-0.3-0.1l0,0l0,0c-0.1,0-0.2-0.1-0.2-0.1s0,0-0.1,0 M75.5,64.3l-6.7-0.9 M71,65.4C70.9,65.4,70.9,65.4,71,65.4
	 M71,65.4l-3.1,0.9c-0.4,0.1-0.9-0.1-1.2-0.5c-0.2-0.4-0.1-0.9,0.2-1.2c0.3-0.3,0.7-0.5,1-0.7c0.1,0,0.1-0.1,0.2-0.1l0,0
	c0.2-0.1,0.5-0.3,0.7-0.4 M70.9,65.4L70.9,65.4L70.9,65.4z"/>
<path class="st12" d="M67.4,70.5c-0.1-0.4-0.4-0.6-0.8-0.7s-0.8,0.1-1,0.4l-4.9,7.4c-0.2,0.3-0.2,0.6-0.1,0.9
	c0.1,0.3,0.3,0.5,0.6,0.6c0.1,0.1,0.3,0.1,0.5,0.3c0.1,0.1,0.2,0.1,0.3,0.2l0,0l0,0l1.5,0.9l0,0l0,0l4.1,2.4c0.3,0.2,0.7,0.2,1,0
	s0.5-0.6,0.5-0.9c-0.1-1.9-0.4-3.7-0.7-5.6c-0.1-0.6-0.2-1.2-0.3-1.8l-0.3-2.3l0,0c0-0.1,0-0.1,0-0.2C67.6,71.6,67.6,71,67.4,70.5z"
	/>
<linearGradient id="SVGID_00000126311691853582361850000018196818598929967030_" gradientUnits="userSpaceOnUse" x1="62.8308" y1="534.3203" x2="74.8306" y2="535.5427" gradientTransform="matrix(1 0 0 1 0 -486)">
	<stop  offset="0" style="stop-color:#FFBD03"/>
	<stop  offset="1" style="stop-color:#FEE104"/>
</linearGradient>
<path style="fill:url(#SVGID_00000126311691853582361850000018196818598929967030_);stroke:#441F00;stroke-width:2;stroke-linejoin:round;" d="
	M68.6,41.8C68.6,41.8,68.7,41.8,68.6,41.8L68.6,41.8L68.6,41.8L68.6,41.8L68.6,41.8c0.3-0.2,0.6-0.4,0.9-0.6s0.7-0.4,1.1-0.4
	c0.3-0.1,0.6,0,0.9,0.2s0.4,0.5,0.4,0.8c0,0.1,0,0.2,0,0.2l0,0c0,0,0,0,0,0.1l0,0v0.1c0,0,0,0,0.1,0.1l0,0l0.9,1.1l0,0
	c0.9,1,1.6,2.1,2.4,3.3L68.6,41.8z M68.6,41.8c-0.2,0.1-0.4,0.2-0.6,0.3c-0.1,0-0.1,0.1-0.1,0.1c-0.1,0.1-0.2,0.1-0.2,0.2l0,0l0,0
	l-3.2,2c-0.2,0.1-0.3,0.3-0.4,0.5l-2.6,6.8c-0.1,0.4,0,0.8,0.3,1.1l4.7,4.1c0.3,0.2,0.6,0.3,1,0.2l3.6-1.2l0,0 M68.6,41.8L71,55.9
	 M76,48.8c0,0.1-0.1,0.3-0.1,0.4c-0.1,0.1-0.3,0.5-0.6,1.1c-0.3,0.6-0.7,1.3-1.1,2s-0.8,1.4-1.1,1.9c-0.1,0.3-0.3,0.5-0.4,0.7
	c-0.1,0.1-0.1,0.2-0.2,0.2l-0.1,0.1l0,0c0,0-0.1,0.1-0.3,0.2L76,48.8z M76,48.8c0-0.5-0.2-1-0.3-1.3 M76,48.8l-0.3-1.3 M70.9,55.9
	L70.9,55.9 M70.9,55.9L70.9,55.9 M70.9,55.9c0.1,0,0.2-0.1,0.3-0.1 M70.9,55.9l0.3-0.1 M75.7,47.5c-0.1-0.3-0.3-0.5-0.4-0.7
	 M75.7,47.5l-0.4-0.7 M75.3,46.8C75.3,46.8,75.3,46.7,75.3,46.8L75.3,46.8z M71.2,55.9c0.1,0,0.2-0.1,0.3-0.1 M71.2,55.9l0.3-0.1
	 M71.5,55.8c0.2-0.1,0.5-0.2,0.8-0.3L71.5,55.8z"/>
<path class="st14" d="M68.8,49.5c-0.3-0.2-0.7-0.3-1.1-0.1L66,50.2c-0.5,0.2-0.7,0.8-0.5,1.3c0.1,0.3,0.3,0.7,0.4,1
	c0,0.1,0.1,0.1,0.1,0.2c0.2,0.4,0.3,0.7,0.4,1c0.1,0.4,0.5,0.7,0.9,0.7l1.6,0.2l0,0l1.6,0.1c0.3,0,0.7-0.1,0.9-0.4
	c0.2-0.3,0.3-0.6,0.1-0.9l-0.9-2.5c-0.1-0.3-0.3-0.5-0.6-0.6h-0.1C69.5,49.9,69.1,49.7,68.8,49.5z"/>
<path class="st15" d="M67.4,50.1C67.6,50,67.8,50,68,50c0.1,0,0.3,0,0.5,0.1s0.4,0.2,0.5,0.4c0.1,0.1,0.2,0.2,0.2,0.4l0,0
	c0,0.1,0.1,0.2,0.1,0.4s0,0.5-0.1,0.7L67.4,50.1z M67.4,50.1L67.4,50.1 M67.4,50.1L67.4,50.1 M68.6,52.8c-0.2,0.1-0.4,0.1-0.6,0.1
	c-0.1,0-0.4,0-0.6-0.1s-0.4-0.2-0.6-0.4c-0.1-0.1-0.2-0.2-0.2-0.3c-0.1-0.2-0.2-0.5-0.1-1L68.6,52.8z M68.6,52.8L68.6,52.8
	 M68.6,52.8L68.6,52.8 M68.5,51.6L68.5,51.6c0,0.1,0,0.1-0.1,0.2l0,0l0,0C68.4,51.7,68.4,51.7,68.5,51.6z M68.5,51.6L68.5,51.6
	L68.5,51.6L68.5,51.6L68.5,51.6L68.5,51.6L68.5,51.6L68.5,51.6L68.5,51.6z M67.5,51.4C67.5,51.3,67.5,51.3,67.5,51.4
	C67.6,51.3,67.6,51.3,67.5,51.4c0.1-0.2,0.1-0.2,0.2-0.2l0,0l0,0C67.7,51.2,67.6,51.3,67.5,51.4L67.5,51.4L67.5,51.4
	C67.5,51.3,67.5,51.3,67.5,51.4L67.5,51.4z M67.5,51.4L67.5,51.4L67.5,51.4L67.5,51.4L67.5,51.4z M68.6,52.8c0.1,0,0.6-0.3,0.8-0.8
	L68.6,52.8z M67.4,50.1c-0.2,0.1-0.7,0.4-0.9,1L67.4,50.1z M67.8,51.9L67.8,51.9L67.8,51.9C67.8,51.9,67.7,51.9,67.8,51.9L67.8,51.9
	L67.8,51.9z M68.3,51L68.3,51C68.2,51,68.2,51,68.3,51L68.3,51C68.2,51,68.2,51,68.3,51L68.3,51z"/>
<path class="st19" d="M61.5,58.7c-0.4-0.2-0.9-0.1-1.2,0.2s-0.4,0.8-0.2,1.2l0.8,1.8l0,0l2.2,4.6l0,0l1.5,3.2l0,0
	c0,0.1,0.1,0.2,0.1,0.3c0.2,0.4,0.4,0.8,0.7,1.2c0.2,0.3,0.6,0.5,1,0.4s0.7-0.4,0.8-0.8v-0.1l8,5.8c0.3,0.2,0.8,0.3,1.1,0l18.4-12.3
	c0.4-0.3,0.6-0.8,0.4-1.3c-0.2-0.4-0.7-0.7-1.2-0.5l-5.7,1.7l-7.2,2l0,0l0,0l-5.5,1.5c-0.1,0-0.2,0.1-0.2,0.1h-0.1
	c-0.1,0-0.1,0-0.1,0s0,0-0.1,0l0,0l0,0c0,0,0,0-0.1,0c0,0,0,0-0.1,0l-1.3-0.5L68.3,65c0,0-0.1,0-0.1-0.1l-0.1-0.1l0,0
	c0,0-0.1-0.1-0.1-0.2l0,0l-1-0.9l0,0l-3.1-2.9l0,0l0,0l-1.3-1.2l0,0l-0.1-0.1C62.3,59.2,61.9,58.9,61.5,58.7z M75.1,67.8L75.1,67.8
	L75.1,67.8z"/>
<path class="st12" d="M94,43.8L94,43.8L94,43.8L94,43.8z M94,43.8L94,43.8v0.4 M94,43.8l9.8,34.7 M94,44.1L94,44.1
	c0-0.1,0-0.1-0.1-0.2c0-0.1,0-0.2,0-0.3s0-0.2,0.1-0.3c0-0.1,0.1-0.2,0.2-0.3s0.2-0.1,0.2-0.2c0.1,0,0.1-0.1,0.2-0.1s0.1,0,0.1,0
	c0.1,0,0.1,0,0.2,0H95c0,0,0,0,0.1,0h0.1l0,0c0,0,0,0,0.1,0c0,0,0,0,0.1,0h0.1h0.1c0,0,0,0,0.1,0l0,0l0,0c0,0,0,0,0.1,0.1
	c0,0,0,0,0.1,0c0,0,0,0,0.1,0.1c0,0,0.1,0.1,0.1,0.2c0,0,0,0.1,0.1,0.1c0,0.1,0,0.1,0,0.2c0,0.1,0,0.2,0,0.3s0,0.2-0.1,0.3L96,47.4
	l0.8,3.5l0.2,0.9l0,0l0,0l0.8,3.9l0,0c0.1,0.2,0.1,0.4,0.1,0.6v0.1l0.1,0.5l0.2,0.6c0,0,0,0,0,0.1 M94,44.1l-0.1,2.1 M94,44.1
	l-0.1,2.1 M98.2,58.1C98.2,58.2,98.2,58.2,98.2,58.1l0.1,0.4v0.1 M98.2,58.1L98.2,58.1c0,0.1,0.1,0.3,0.1,0.5 M98.2,58.1l3.8,18.2
	 M98.2,58.6C98.2,58.6,98.2,58.7,98.2,58.6c0,0.2,0,0.4-0.1,0.5l-0.6,1.2l2.3,14.9l1.6,1.9 M98.2,58.6l2.5,16.3l1.2,1.5 M101.3,77.2
	l1.5,0.6v0.7 M101.3,77.2l0.8-0.6l-0.2-0.2 M101.3,77.2l0.3-0.9l0.3,0.1 M102.8,78.4c0,0.1,0,0.1,0,0.2c0,0.2,0,0.4-0.2,0.6
	s-0.6,0.4-0.9,0.5 M102.8,78.4h1l0,0 M102.8,78.4h1 M101.8,79.7l-19.7,9.5c0,0,0,0.1-0.1,0.1l0,0c-0.1,0.1-0.1,0.2-0.2,0.3
	c-0.1,0.2-0.2,0.3-0.2,0.4l-0.5-0.2H81l0,0v0.1l-0.1,0.8h-0.1 M101.8,79.7l0.4,0.9l0,0 M101.8,79.7l0.4,0.9l0,0 M80.8,90.6
	L80.8,90.6L80.8,90.6L80.8,90.6L80.8,90.6l0.3-0.9l-0.3-0.1l0.1-0.6l-0.1-0.3l0.2-0.1v-0.1h0.1l0.3-0.1L80.5,88
	c0,0.1-0.1,0.1-0.1,0.2l0,0c-0.1,0.1-0.1,0.2-0.2,0.3c-0.1,0.2-0.3,0.5-0.3,0.7c-0.1,0.3-0.1,0.6,0.1,0.9s0.4,0.4,0.7,0.5H80.8z
	 M80.8,90.6c0.2,0.1,0.5,0.1,0.7,0l20.7-9.9 M102.2,80.6c0.3-0.1,0.8-0.3,1.2-0.7l0,0c0.3-0.3,0.4-0.7,0.5-1c0-0.1,0-0.2,0-0.3v-0.1
	v-0.1 M82.5,86.5l-1.1,1.9l-0.1,0.1L80.5,88l1.1-2 M82.5,86.5l3.5-6.4 M82.5,86.5L81.6,86l0,0 M82.5,86.5L81.6,86l0,0 M86,80.1
	l6.6-12.2 M86,80.1l-0.9-0.5l6.6-12.2 M86,80.1l-0.9-0.5L81.6,86 M92.6,67.9l3.9-7.7l-0.2-1.4l0,0v-0.2l0,0 M92.6,67.9l-0.9-0.5l0,0
	 M92.6,67.9l-0.9-0.5l0,0 M96.2,58.5L96.2,58.5L96,58l0,0 M96.2,58.5c-0.1-0.2-0.1-0.4-0.1-0.5 M96.2,58.5l-4.5,8.9 M96,58
	C96,58,96,57.9,96,58C96,57.9,96,57.9,96,58 M96,58C96,58,96,57.9,96,58L96,58 M96,57.9l-0.1-0.6 M96,57.9c-0.1-0.2-0.1-0.4-0.1-0.6
	 M95.9,57.2c0-0.1,0-0.1,0-0.2c0-0.2-0.1-0.3-0.1-0.5l0,0l0,0L95,52.6l-0.2-0.9 M95.9,57.2l-1.2-5.5 M94.7,51.7l-0.5-2.3l0,0
	L93.9,48v-0.1c0,0.4,0.1,0.9,0.2,1.2c0,0.1,0,0.2,0.1,0.3l0,0l0,0L94.7,51.7z M93.9,47.9L93.9,47.9l0.1-1.7l0,0l0,0 M93.9,47.9
	l0.1-3.8l-0.1,2.1l0,0l0,0 M93.9,47.9c0-0.5,0-1,0-1.4c0-0.1,0-0.2,0-0.3 M93.9,47.9v-1.7 M96.1,49c0-0.2-0.1-0.4-0.1-0.5
	c-0.1-0.3-0.1-0.4-0.1-0.7L96.1,49z M94.7,44.7C94.7,44.7,94.6,44.7,94.7,44.7C94.6,44.7,94.6,44.7,94.7,44.7
	C94.6,44.7,94.6,44.7,94.7,44.7C94.6,44.7,94.6,44.7,94.7,44.7C94.6,44.7,94.6,44.7,94.7,44.7L94.7,44.7L94.7,44.7z M95.9,47.7
	c0-0.3,0-0.6,0-0.9c0-0.1,0-0.3,0-0.5l0,0l0,0l0.1-2L95.9,47.7z"/>
<path class="st11" d="M100.4,74.5c-0.3-0.4-1-0.5-1.4-0.1l-9.3,7.2l0,0l-5.9,4.6l-2.1,1.6l-0.9,0.7l0,0l0,0c0,0,0,0-0.1,0l0,0
	l-0.1,0.1c-0.1,0.1-0.3,0.2-0.4,0.5c-0.1,0.2-0.2,0.5-0.1,0.8s0.3,0.5,0.5,0.6h0.1c0.3,0.1,0.6,0.1,0.9,0l20.7-9.9
	c0.3-0.1,0.8-0.3,1.2-0.7l0,0c0.3-0.3,0.4-0.7,0.5-1c0-0.1,0-0.2,0-0.3v-0.1v-0.1c0-0.5-0.4-1-0.9-1l0,0L100.4,74.5z"/>
<path class="st20" d="M61.6,78.2c0.3,0.1,0.6,0.3,0.9,0.5l1.5,0.9l4.1,2.4l12.2,7.7c-0.3,0-0.6-0.2-0.8-0.3l-1.6-0.8l-4-2l-9.8-4.8
	l-6-3.1C58.4,78.4,61,78.2,61.6,78.2z"/>
<path class="st21" d="M64.9,43.8l-0.6-12l8.6,8l2.5,1.6H85l2.8-2.7c0.5-0.4,1-1,1.5-1.4l3.1-2.8c0.5-0.4,0.9-0.8,1.3-1.2
	s0.7-0.8,1.3-1c0.2,0,0.2,0,0.3,0.2c0.1,0.5,0.1,1.1,0.1,1.6v3c0,0.5-0.1,1,0,1.5L95,43.8l-0.1,2.4c0,0.5-0.1,1.1,0,1.6
	c0,0.4,0.2,0.9,0.3,1.3l0.7,3.3l0.8,3.9c0.1,0.6,0.2,1.4,0.5,2c-1-0.5-2-1.3-3-2l-4.6-3.1l-7,4.2l-5.5-1.8l-2.1-7
	c0-0.5-0.4-1.1-0.6-1.5c-0.7-1.1-1.4-2.2-2.3-3.2L71.2,43c-0.1-0.1-0.3-0.4-0.4-0.5c0-0.2,0-0.5,0-0.7c-0.5,0.1-1.2,0.5-1.6,0.8
	c-0.1,0.1-0.2,0.1-0.3,0.1c-0.3,0.1-0.6,0.4-0.9,0.5l-3.2,2L64.9,43.8z"/>
<path class="st22" d="M81.4,50.9l1.5,0.1h2l-0.4,3.5L79,54.2c0.4-0.6,0.8-1.1,1.2-1.7l0.3-0.5L81.4,50.9z"/>
<path class="st23" d="M81.4,50.9l1.5,0.1l0,0c0.2,0.1,0.7,0,1,0c-0.3,0.4-0.6,0.8-0.9,1.2s-0.7,0.8-1.1,1.2
	c-0.4-0.3-0.8-0.7-1.1-1.1L80.5,52L81.4,50.9z"/>
<path class="st24" d="M81.5,51.4c0.2,0,0.4,0,0.6,0.1c0.1,0.1,0.1,0.2,0.1,0.4s-0.2,0.3-0.3,0.4c-0.2,0-0.4,0-0.5-0.1
	s-0.2-0.3-0.1-0.4C81.2,51.6,81.4,51.5,81.5,51.4z"/>
<path class="st25" d="M70.9,41.8l-6.6-10c0.5,0.2,0.9,0.6,1.3,0.9l2.4,2.1l5.3,4.8l2.1,2l-3,0.1C72,41.7,71.3,41.6,70.9,41.8z"/>
<path class="st24" d="M64.9,43.8l-0.5-11.3L69,42.8c-0.3,0.1-0.6,0.4-0.9,0.5l-3.2,2V43.8z"/>
<path class="st26" d="M82.7,42.1H83l-1.6,8.7L80.5,52l-0.3,0.5v-0.1H80c-0.9-0.9-1.9-1.6-2.9-2.3l-1.9-1.5c2.1-1.4,4-3.2,5.9-4.8
	l1.1-0.9c0.2-0.1,0.4-0.3,0.5-0.5C82.7,42.3,82.7,42.2,82.7,42.1z"/>
<path class="st26" d="M94.5,32.9l-1.3,15.9l-4-3L86,43.5L94.5,32.9z"/>
<path class="st24" d="M69,42.8c0.1,0,0.2,0,0.3-0.1c0.5-0.3,1.1-0.7,1.6-0.8c0,0.2-0.1,0.5,0,0.7c0,0.1,0.3,0.4,0.4,0.5l0.9,1.1
	c0.8,1,1.6,2,2.3,3.2c0.2,0.4,0.7,1,0.6,1.5l2.1,7l5.5,1.8l7-4.2l4.6,3.1c1,0.7,2,1.4,3,2l-0.5-2l3,18.9l2.6,2.9l0.5,0.3
	c0,0.3,0.1,0.5-0.2,0.7c-0.2,0.2-0.6,0.4-0.9,0.5l-20.7,9.9H81h-0.3c-0.1,0.1-0.1,0.2-0.2,0.3l-0.3-0.2L68.1,82L64,79.6l-1.5-0.9
	c-0.3-0.2-0.9-0.5-0.9-0.5l4.9-7.4L61,59.6l1.3-7.4l2.6-7l3.2-2C68.4,43.1,68.7,42.9,69,42.8z"/>
<path class="st23" d="M70.8,57c0.4,0.4,1,0.6,1.4,0.9l2.4,1.6c-0.1,0.3-0.4,0.5-0.6,0.8l-2.3,2.5c-0.3,0.3-0.7,0.6-0.9,0.9l2.9,1.1
	l1.4,0.5c0.1,0,0.3,0.2,0.4,0.2s0.7-0.4,0.9-0.5l3.9-2.1c0.5-0.3,1.2-0.7,1.8-0.8l-2.5,1.5l-3.4,1.9c-0.2,0.1-0.5,0.4-0.7,0.4
	c-0.1,0-0.4-0.1-0.6-0.2l-3.2-0.9c-0.3-0.1-0.8-0.3-1.1-0.3l-3.2,0.9c0.3-0.3,0.7-0.5,1-0.7c0.6-0.4,1.2-0.7,1.8-1
	c-0.2-0.2-0.4-0.3-0.5-0.5c-0.5-0.5-0.9-1.1-1.3-1.7L67,59L70.8,57z"/>
<path class="st21" d="M66.5,70.9c0.2,0.5,0.2,1,0.3,1.5l0.3,2.3c0.4,2.4,0.8,4.9,1,7.3L64,79.6l-1.5-0.9c-0.3-0.2-0.6-0.4-0.9-0.5
	L66.5,70.9z"/>
<linearGradient id="SVGID_00000044882736363721858520000000984216080782237364_" gradientUnits="userSpaceOnUse" x1="62.8201" y1="534.4255" x2="74.8199" y2="535.6479" gradientTransform="matrix(1 0 0 1 0 -486)">
	<stop  offset="0" style="stop-color:#FFBD03"/>
	<stop  offset="1" style="stop-color:#FEE104"/>
</linearGradient>
<path style="fill:url(#SVGID_00000044882736363721858520000000984216080782237364_);" d="M69,42.8c0.1,0,0.2,0,0.3-0.1
	c0.5-0.3,1.1-0.7,1.6-0.8c0,0.2-0.1,0.5,0,0.7c0,0.1,0.3,0.4,0.4,0.5l0.9,1.1c0.8,1,1.6,2,2.3,3.2c0.2,0.4,0.7,1,0.6,1.5
	c-0.3,0.6-3.1,5.7-3.3,5.9c-0.3,0.2-0.8,0.3-1.1,0.4l-3.7,1l-4.7-4.1l2.6-6.8l3.2-2C68.4,43.1,68.7,42.9,69,42.8z"/>
<path class="st23" d="M68.2,50.3c0.4,0.3,1,0.6,1.4,0.8h0.1l0.9,2.5L69,53.5l-1.6-0.2c-0.2-0.7-0.6-1.5-0.9-2.2L68.2,50.3z"/>
<path class="st24" d="M67.9,51c0.2,0,0.3,0.1,0.5,0.2c0.1,0.2,0.1,0.3,0,0.5S68.2,51.9,68,52c-0.2,0-0.4-0.1-0.5-0.2
	c0-0.1-0.1-0.2,0-0.3C67.6,51.2,67.8,51.1,67.9,51z"/>
<path class="st28" d="M61.1,59.6c0.3,0.2,0.6,0.4,0.8,0.7l1.3,1.2l3.1,2.9l0.9,0.9c0.2,0.2,0.4,0.5,0.7,0.6l5.3,2.2l1.4,0.5
	c0.1,0,0.3,0.2,0.5,0.2s0.6-0.2,0.8-0.2l5.5-1.5l7.2-2l5.7-1.7L75.9,75.6l-9.7-7.1l0.1,1.2c0,0.3,0.1,0.5,0,0.8
	c-0.3-0.4-0.5-0.9-0.7-1.4l-1.5-3.2l-2.2-4.6L61.1,59.6z"/>
<path class="st21" d="M95,43.8C94.7,43.6,95.4,43.9,95,43.8l-0.2,4l2.1,9.9l0.2,0.6v0.3l2.5,16.6l1.6,1.9l1.5,0.6v0.7
	c0,0.3,0.1,0.5-0.2,0.7c-0.2,0.2-0.6,0.4-0.9,0.5l-20.7,9.9h-0.1h-0.3c0.1-0.4,0.4-0.7,0.6-1.1l1.1-2l3.5-6.4l6.6-12.2l4.7-9.2
	c0-0.1,0-0.2,0-0.3c-0.2-0.6-0.3-1.3-0.5-2l-0.8-3.9L95,49.1c-0.1-0.4-0.2-0.9-0.3-1.3c0-0.5,0-1.1,0.1-1.6L95,43.8z"/>
<path class="st20" d="M99.7,75.2l3.1,3.6l0.1-0.4c0,0.3,0.1,0.5-0.2,0.7c-0.2,0.2-0.6,0.4-0.9,0.5l-20.7,9.9H81
	c0.1-0.1,0.3-0.2,0.4-0.3l0.9-0.7l2.1-1.6l5.9-4.6L99.7,75.2z"/>
<linearGradient id="SVGID_00000181087387557558792240000006711173142399714228_" gradientUnits="userSpaceOnUse" x1="80.35" y1="579.8" x2="80.35" y2="500.5" gradientTransform="matrix(1 0 0 1 0 -486)">
	<stop  offset="0" style="stop-color:#9C3600"/>
	<stop  offset="4.000000e-02" style="stop-color:#A44401"/>
	<stop  offset="0.25" style="stop-color:#CD8909"/>
	<stop  offset="0.4" style="stop-color:#E7B40D"/>
	<stop  offset="0.48" style="stop-color:#F1C40F"/>
	<stop  offset="0.53" style="stop-color:#F2C615"/>
	<stop  offset="0.6" style="stop-color:#F3CC25"/>
	<stop  offset="0.67" style="stop-color:#F7D53F"/>
	<stop  offset="0.75" style="stop-color:#FBE363"/>
	<stop  offset="0.81" style="stop-color:#FFF088"/>
	<stop  offset="1" style="stop-color:#FFF8D6"/>
</linearGradient>
<path style="fill-rule:evenodd;clip-rule:evenodd;fill:url(#SVGID_00000181087387557558792240000006711173142399714228_);" d="
	M114.7,34.3L80.3,14.5L46,34.3V74l34.4,19.8L114.7,74V34.3z M79.6,18.6c0.3-0.2,0.6-0.2,0.9-0.2l0,0c0.3,0,0.6,0.1,0.9,0.2l29.5,17
	c0.3,0.2,0.5,0.4,0.6,0.6c0.2,0.3,0.2,0.6,0.2,0.9v34.1c0,0.3-0.1,0.6-0.2,0.9c-0.2,0.3-0.4,0.5-0.6,0.6l-29.5,17
	c-0.3,0.2-0.6,0.2-0.9,0.2s-0.6-0.1-0.9-0.2l-29.5-17c-0.3-0.2-0.5-0.4-0.6-0.6c-0.2-0.3-0.2-0.6-0.2-0.9V37.1
	c0-0.3,0.1-0.6,0.2-0.9c0.2-0.3,0.4-0.5,0.6-0.6L79.6,18.6z"/>
<path class="st30" d="M80.5,20.7l1.5,0.9l26.6,15.3l1.5,0.9v34.1l-1.5,0.9L81.9,88l-1.5,0.9L79,88L52.4,72.7L51,71.9V37.8l1.5-0.9
	L79,21.6L80.5,20.7z M80.5,19c-0.3,0-0.6,0.1-0.9,0.2l-1.5,0.9L51.5,35.4L50,36.3c-0.3,0.2-0.5,0.4-0.6,0.6
	c-0.2,0.3-0.2,0.6-0.2,0.9v34.1c0,0.3,0.1,0.6,0.2,0.9c0.2,0.3,0.4,0.5,0.6,0.6l1.5,0.9l26.6,15.3l1.5,0.9c0.3,0.2,0.6,0.2,0.9,0.2
	s0.6-0.1,0.9-0.2l1.5-0.9l26.6-15.3l1.5-0.9c0.3-0.2,0.5-0.4,0.6-0.6c0.2-0.3,0.2-0.6,0.2-0.9V37.8c0-0.3-0.1-0.6-0.2-0.9
	c-0.2-0.3-0.4-0.5-0.6-0.6l-1.5-0.9L82.8,20.1l-1.5-0.9C81.1,19.1,80.8,19,80.5,19L80.5,19z"/>
<path class="st30" d="M80.3,16.5l1.6,0.9l29.6,17.1l1.6,0.9v38l-1.6,0.9L81.9,91.6l-1.6,0.9l-1.6-0.9L49,74.5l-1.6-0.9v-38l1.6-0.9
	l29.6-17.1L80.3,16.5z M80.3,14.5c-0.3,0-0.7,0.1-1,0.3l-1.6,0.9L48,32.8l-1.6,0.9c-0.3,0.2-0.5,0.4-0.7,0.7s-0.3,0.6-0.3,1v38
	c0,0.3,0.1,0.7,0.3,1s0.4,0.5,0.7,0.7L48,76l29.6,17.1l1.6,0.9c0.3,0.2,0.6,0.3,1,0.3c0.3,0,0.7-0.1,1-0.3l1.6-0.9L112.4,76l1.6-0.9
	c0.3-0.2,0.6-0.4,0.7-0.7c0.2-0.3,0.3-0.6,0.3-1v-38c0-0.3-0.1-0.7-0.3-1c-0.2-0.3-0.4-0.5-0.7-0.7l-1.6-0.9L82.9,15.7l-1.6-0.9
	C80.9,14.6,80.6,14.5,80.3,14.5L80.3,14.5z"/>
<g>
	<g>
		<polygon class="st31" points="91.1,77.5 86,77.5 83,81.3 81.7,77.5 76.9,77.5 79.7,84.4 73.8,91.5 78.8,91.5 81.9,87.7 83.4,91.4 
			88.1,91.4 85.1,84.6 		"/>
		<polygon class="st31" points="96.8,73.6 91.5,76.8 90.5,81.5 95.5,78.6 92.8,91.5 97.3,91.5 101,73.6 		"/>
	</g>
	<g>
		<path class="st32" d="M81.1,85.9h-0.2L77.6,90h-3.7l5.4-6.5L76.6,77h3.7l1.5,4.2H82l3.2-4.2H89l-5.5,6.5l2.8,6.4h-3.6L81.1,85.9z
			 M92.4,90l2.8-13.3H95l-4.8,2.8l0.7-3.4l5-3h3.5L95.9,90H92.4z"/>
	</g>
</g>
</svg>
