<?xml version="1.0" encoding="utf-8"?>
<!-- Generator: Adobe Illustrator 27.1.1, SVG Export Plug-In . SVG Version: 6.00 Build 0)  -->
<svg version="1.1" id="Слой_1" xmlns="http://www.w3.org/2000/svg" xmlns:xlink="http://www.w3.org/1999/xlink" x="0px" y="0px"
	 viewBox="0 0 21 24" style="enable-background:new 0 0 21 24;" xml:space="preserve">
<style type="text/css">
	.st0{fill:url(#SVGID_1_);}
	.st1{fill:#32B7FF;}
	.st2{fill:#3490C1;}
	.st3{fill:#0270AC;}
	.st4{fill:#0098EA;}
	.st5{fill:#025887;}
	.st6{fill:#441F00;}
	.st7{fill-rule:evenodd;clip-rule:evenodd;fill:url(#SVGID_00000158022952333928449490000015872150623401053065_);}
	.st8{fill:#FFFFFF;filter:url(#Adobe_OpacityMaskFilter);}
	.st9{fill-rule:evenodd;clip-rule:evenodd;}
	.st10{mask:url(#path-10-outside-1_2091_379_00000166647100452509985110000005955465503829064106_);fill:#441F00;}
</style>
<linearGradient id="SVGID_1_" gradientUnits="userSpaceOnUse" x1="10.501" y1="1.276" x2="10.501" y2="25.084" gradientTransform="matrix(1 0 0 -1 0 25.276)">
	<stop  offset="0" style="stop-color:#9C3600"/>
	<stop  offset="4.000000e-02" style="stop-color:#A44401"/>
	<stop  offset="0.25" style="stop-color:#CD8909"/>
	<stop  offset="0.4" style="stop-color:#E7B40D"/>
	<stop  offset="0.48" style="stop-color:#F1C40F"/>
	<stop  offset="0.53" style="stop-color:#F2C615"/>
	<stop  offset="0.6" style="stop-color:#F3CC25"/>
	<stop  offset="0.67" style="stop-color:#F7D53F"/>
	<stop  offset="0.75" style="stop-color:#FBE363"/>
	<stop  offset="0.81" style="stop-color:#FFF088"/>
	<stop  offset="1" style="stop-color:#FFF8D6"/>
</linearGradient>
<path class="st0" d="M10.5,0.2l10.3,6V18l-10.3,6L0.2,18V6.1L10.5,0.2z"/>
<path class="st1" d="M10.5,1.3l0,10.6L1.3,6.6L10.5,1.3z"/>
<path class="st2" d="M10.5,11.9l-9.1,5.3V6.6L10.5,11.9z"/>
<path class="st3" d="M10.5,11.9l0,10.6l-9.1-5.3L10.5,11.9z"/>
<path class="st4" d="M10.5,1.3l9.1,5.3l-9.1,5.3V1.3z"/>
<path class="st5" d="M10.5,11.9l9.1,5.3l-9.1,5.3V11.9z"/>
<path class="st3" d="M10.5,11.9l9.1-5.3v10.6L10.5,11.9z"/>
<path class="st6" d="M10.5,0.6L11,0.9L19.9,6l0.5,0.3v11.4L19.9,18L11,23.1l-0.5,0.3L10,23.1L1.1,18l-0.5-0.3V6.3L1.1,6L10,0.9
	L10.5,0.6z M10.5,0c-0.1,0-0.2,0-0.3,0.1L9.7,0.4L0.8,5.5L0.3,5.8C0.2,5.8,0.1,5.9,0.1,6C0,6.1,0,6.2,0,6.3v11.4
	c0,0.1,0,0.2,0.1,0.3c0.1,0.1,0.1,0.2,0.2,0.2l0.5,0.3l8.9,5.1l0.5,0.3c0.1,0.1,0.2,0.1,0.3,0.1c0.1,0,0.2,0,0.3-0.1l0.5-0.3
	l8.9-5.1l0.5-0.3c0.1-0.1,0.2-0.1,0.2-0.2c0.1-0.1,0.1-0.2,0.1-0.3V6.3c0-0.1,0-0.2-0.1-0.3c-0.1-0.1-0.1-0.2-0.2-0.2l-0.5-0.3
	l-8.9-5.1l-0.5-0.3C10.7,0,10.6,0,10.5,0L10.5,0z"/>
<path class="st6" d="M10.5,1.9L11,2.1l8,4.6L19.4,7v10.2l-0.4,0.3l-8,4.6l-0.4,0.3l-0.4-0.3l-8-4.6l-0.4-0.3V7l0.4-0.3l8-4.6
	L10.5,1.9z M10.5,1.3c-0.1,0-0.2,0-0.3,0.1L9.8,1.7l-8,4.6L1.4,6.5c-0.1,0-0.1,0.1-0.2,0.2c0,0.1-0.1,0.2-0.1,0.3v10.2
	c0,0.1,0,0.2,0.1,0.3c0,0.1,0.1,0.1,0.2,0.2l0.4,0.3l8,4.6l0.4,0.3c0.1,0,0.2,0.1,0.3,0.1c0.1,0,0.2,0,0.3-0.1l0.4-0.3l8-4.6
	l0.4-0.3c0.1,0,0.1-0.1,0.2-0.2c0-0.1,0.1-0.2,0.1-0.3V7c0-0.1,0-0.2-0.1-0.3s-0.1-0.1-0.2-0.2l-0.4-0.3l-8-4.6l-0.4-0.3
	C10.7,1.4,10.6,1.3,10.5,1.3L10.5,1.3z"/>
<linearGradient id="SVGID_00000078733414323204422540000013451468648375603376_" gradientUnits="userSpaceOnUse" x1="10.4634" y1="5.6919" x2="10.4634" y2="17.2119" gradientTransform="matrix(1 0 0 -1 0 25.276)">
	<stop  offset="0" style="stop-color:#9C3600"/>
	<stop  offset="4.000000e-02" style="stop-color:#A44401"/>
	<stop  offset="0.25" style="stop-color:#CD8909"/>
	<stop  offset="0.4" style="stop-color:#E7B40D"/>
	<stop  offset="0.48" style="stop-color:#F1C40F"/>
	<stop  offset="0.53" style="stop-color:#F2C615"/>
	<stop  offset="0.6" style="stop-color:#F3CC25"/>
	<stop  offset="0.67" style="stop-color:#F7D53F"/>
	<stop  offset="0.75" style="stop-color:#FBE363"/>
	<stop  offset="0.81" style="stop-color:#FFF088"/>
	<stop  offset="1" style="stop-color:#FFF8D6"/>
</linearGradient>
<path style="fill-rule:evenodd;clip-rule:evenodd;fill:url(#SVGID_00000078733414323204422540000013451468648375603376_);" d="
	M16.3,8.1l-5.9,11.5L4.6,8.1H16.3z M10,9.1v7.5L6.5,9.1H10z M10.9,9.1v7.5l3.5-7.5H10.9z"/>
<defs>
	<filter id="Adobe_OpacityMaskFilter" filterUnits="userSpaceOnUse" x="4.1" y="7.6" width="12.7" height="12.5">
		<feColorMatrix  type="matrix" values="1 0 0 0 0  0 1 0 0 0  0 0 1 0 0  0 0 0 1 0"/>
	</filter>
</defs>
<mask maskUnits="userSpaceOnUse" x="4.1" y="7.6" width="12.7" height="12.5" id="path-10-outside-1_2091_379_00000166647100452509985110000005955465503829064106_">
	<rect x="3.6" y="7.1" class="st8" width="14" height="14"/>
	<path class="st9" d="M16.3,8.1l-5.9,11.5L4.6,8.1H16.3z M10,9.1v7.5L6.5,9.1H10z M10.9,9.1v7.5l3.5-7.5H10.9z"/>
</mask>
<path class="st10" d="M10.5,19.6L10,19.8c0.1,0.2,0.3,0.3,0.4,0.3s0.4-0.1,0.4-0.3L10.5,19.6z M16.3,8.1l0.4,0.2
	c0.1-0.2,0.1-0.3,0-0.5c-0.1-0.1-0.3-0.2-0.4-0.2V8.1z M4.6,8.1V7.6c-0.2,0-0.3,0.1-0.4,0.2C4.1,8,4.1,8.1,4.2,8.3L4.6,8.1z
	 M10,16.6l-0.5,0.2c0.1,0.2,0.3,0.3,0.6,0.3c0.2-0.1,0.4-0.3,0.4-0.5H10z M10,9.1h0.5c0-0.3-0.2-0.5-0.5-0.5V9.1z M6.5,9.1V8.6
	c-0.2,0-0.3,0.1-0.4,0.2C6,8.9,6,9.1,6.1,9.3L6.5,9.1z M10.9,16.6h-0.5c0,0.2,0.2,0.4,0.4,0.5c0.2,0.1,0.5-0.1,0.6-0.3L10.9,16.6z
	 M10.9,9.1V8.6c-0.3,0-0.5,0.2-0.5,0.5H10.9z M14.4,9.1l0.5,0.2c0.1-0.2,0.1-0.3,0-0.5c-0.1-0.1-0.3-0.2-0.4-0.2V9.1z M10.9,19.8
	l5.9-11.5l-0.9-0.5L10,19.4L10.9,19.8z M4.2,8.3L10,19.8l0.9-0.5L5.1,7.8L4.2,8.3z M16.3,7.6H4.6v1h11.7V7.6z M10.5,16.6V9.1h-1v7.5
	H10.5z M6.1,9.3l3.5,7.5l0.9-0.4L7,8.9L6.1,9.3z M10,8.6H6.5v1H10V8.6z M11.4,16.6V9.1h-1v7.5H11.4z M13.9,8.9l-3.5,7.5l0.9,0.4
	l3.5-7.5L13.9,8.9z M10.9,9.6h3.5v-1h-3.5V9.6z"/>
</svg>
