<?xml version="1.0" encoding="utf-8"?>
<!-- Generator: Adobe Illustrator 27.1.1, SVG Export Plug-In . SVG Version: 6.00 Build 0)  -->
<svg version="1.1" id="Слой_1" xmlns="http://www.w3.org/2000/svg" xmlns:xlink="http://www.w3.org/1999/xlink" x="0px" y="0px"
	 viewBox="0 0 109 109" style="enable-background:new 0 0 109 109;" xml:space="preserve">
<style type="text/css">
	.st0{fill:#E3E3E3;}
	.st1{fill:none;stroke:#393931;}
	.st2{opacity:0.3;clip-path:url(#SVGID_00000138559109107395417010000016130476248042603177_);}
	.st3{fill:#393931;}
</style>
<path class="st0" d="M16,0.8h76.3c8.6,0,15.5,6.9,15.5,15.5v76.3c0,8.6-6.9,15.5-15.5,15.5H16c-8.6,0-15.5-6.9-15.5-15.5V16.3
	C0.5,7.8,7.4,0.8,16,0.8z"/>
<path class="st1" d="M16,0.8h76.3c8.6,0,15.5,6.9,15.5,15.5v76.3c0,8.6-6.9,15.5-15.5,15.5H16c-8.6,0-15.5-6.9-15.5-15.5V16.3
	C0.5,7.8,7.4,0.8,16,0.8z"/>
<g>
	<defs>
		<rect id="SVGID_1_" x="21.7" y="22" width="65" height="65"/>
	</defs>
	<clipPath id="SVGID_00000062168387373787432610000010692839535809399683_">
		<use xlink:href="#SVGID_1_"  style="overflow:visible;"/>
	</clipPath>
	<g style="opacity:0.3;clip-path:url(#SVGID_00000062168387373787432610000010692839535809399683_);">
		<path class="st3" d="M82.6,38.2H27.8c0-2.8-2.3-5.1-5.1-5.1c-0.6,0-1,0.5-1,1c0,0.6,0.5,1,1,1c1.7,0,3,1.4,3,3v36.6
			c0,0.6,0.5,1,1,1c0.6,0,1-0.5,1-1v-1h2c1.7,0,3-1.4,3-3v0h49.8c2.2,0,4.1-1.8,4.1-4.1V42.3C86.7,40.1,84.8,38.2,82.6,38.2z
			 M84.6,66.7c0,1.1-0.9,2-2,2H31.8c-0.6,0-1,0.5-1,1v1c0,0.6-0.5,1-1,1h-2V40.3h54.8c1.1,0,2,0.9,2,2V66.7z"/>
		<path class="st3" d="M52.1,46.4c-2.9,0-5.5,1.5-6.9,3.8c-0.1,0.1-0.2,0.2-0.2,0.4c-0.6,1.2-1,2.5-1,3.9c0,1.4,0.4,2.8,1,4
			c0,0.1,0.1,0.1,0.1,0.1c1.4,2.4,4,4,7,4c4.5,0,8.1-3.6,8.1-8.1c0-1.4-0.4-2.8-1-4c0-0.1-0.1-0.1-0.1-0.1
			C57.7,48,55.1,46.4,52.1,46.4z M46,54.5c0-0.6,0.1-1.1,0.2-1.6c0.5,0.4,1.1,0.9,1.9,1.3c0.8,0.5,1.5,0.8,2.1,1
			c-0.3,0.3-0.8,0.6-1.3,0.9c-1.1,0.6-1.9,0.9-2.3,1C46.2,56.3,46,55.4,46,54.5z M58.2,54.5c0,0.5-0.1,1-0.2,1.5
			c-0.5-0.4-1.1-0.9-1.9-1.4c-0.8-0.4-1.4-0.7-1.9-0.9c0.3-0.2,0.7-0.5,1.2-0.8c1.1-0.6,1.9-0.9,2.3-1C58,52.7,58.2,53.6,58.2,54.5z
			 M56.4,50.2c-0.6,0.2-1.3,0.5-2.1,1c-0.8,0.5-1.4,0.9-1.8,1.3c-0.1-0.4-0.1-0.9-0.1-1.5c0-1.2,0.2-2.1,0.3-2.5
			C54.2,48.6,55.5,49.2,56.4,50.2z M50.6,48.6c-0.1,0.6-0.2,1.4-0.2,2.3c0,0.9,0.1,1.6,0.2,2.2c-0.4-0.2-0.8-0.4-1.4-0.7
			c-1.1-0.6-1.7-1.2-2-1.5C48,49.8,49.2,49,50.6,48.6z M47.8,58.8c0.6-0.2,1.3-0.5,2.1-1c0.8-0.5,1.4-0.9,1.8-1.3
			c0.1,0.4,0.1,0.9,0.1,1.5c0,1.2-0.2,2.1-0.3,2.5C50.1,60.4,48.8,59.8,47.8,58.8z M53.7,60.4c0.1-0.6,0.2-1.4,0.2-2.3
			c0-1-0.1-1.7-0.2-2.3c0.4,0.2,0.9,0.4,1.4,0.7c1.1,0.6,1.8,1.2,2.1,1.6C56.3,59.1,55.1,60,53.7,60.4z"/>
		<path class="st3" d="M77.5,43.3c-0.6,0-1,0.5-1,1c0,0.6,0.5,1,1,1c1.1,0,2,0.9,2,2v14.2c0,1.1-0.9,2-2,2H52.1
			c-5,0-9.1-4.1-9.1-9.1s4.1-9.1,9.1-9.1h21.3c0.6,0,1-0.5,1-1c0-0.6-0.5-1-1-1H52.1c-6.2,0-11.2,5-11.2,11.2
			c0,6.2,5,11.2,11.2,11.2h25.4c2.2,0,4.1-1.8,4.1-4.1V47.4C81.6,45.1,79.8,43.3,77.5,43.3z"/>
		<path class="st3" d="M35.9,51.4h-3c-1.1,0-2,0.9-2,2v2c0,1.1,0.9,2,2,2h3c1.1,0,2-0.9,2-2v-2C37.9,52.4,37,51.4,35.9,51.4z
			 M32.8,55.5v-2h3l0,2H32.8z"/>
		<path class="st3" d="M35.9,44.3h-3c-1.1,0-2,0.9-2,2v2c0,1.1,0.9,2,2,2h3c1.1,0,2-0.9,2-2v-2C37.9,45.2,37,44.3,35.9,44.3z
			 M32.8,48.4v-2h3l0,2H32.8z"/>
		<path class="st3" d="M35.9,58.6h-3c-1.1,0-2,0.9-2,2v2c0,1.1,0.9,2,2,2h3c1.1,0,2-0.9,2-2v-2C37.9,59.5,37,58.6,35.9,58.6z
			 M32.8,62.6v-2h3l0,2H32.8z"/>
		<path class="st3" d="M76.5,47.4h-3c-0.6,0-1,0.5-1,1c0,0.6,0.5,1,1,1h3c0.6,0,1-0.5,1-1C77.5,47.8,77.1,47.4,76.5,47.4z"/>
		<path class="st3" d="M76.5,59.6h-3c-0.6,0-1,0.5-1,1c0,0.6,0.5,1,1,1h3c0.6,0,1-0.5,1-1C77.5,60,77.1,59.6,76.5,59.6z"/>
		<path class="st3" d="M76.5,50.4h-3c-0.6,0-1,0.5-1,1c0,0.6,0.5,1,1,1h3c0.6,0,1-0.5,1-1C77.5,50.9,77.1,50.4,76.5,50.4z"/>
		<path class="st3" d="M76.5,53.5h-3c-0.6,0-1,0.5-1,1c0,0.6,0.5,1,1,1h3c0.6,0,1-0.5,1-1C77.5,53.9,77.1,53.5,76.5,53.5z"/>
		<path class="st3" d="M76.5,56.5h-3c-0.6,0-1,0.5-1,1c0,0.6,0.5,1,1,1h3c0.6,0,1-0.5,1-1C77.5,57,77.1,56.5,76.5,56.5z"/>
	</g>
</g>
</svg>
