<svg width="109" height="109" viewBox="0 0 109 109" fill="none" xmlns="http://www.w3.org/2000/svg">
<rect x="0.5" y="0.829956" width="107.33" height="107.33" rx="15.5" fill="#E3E3E3"/>
<rect x="0.5" y="0.829956" width="107.33" height="107.33" rx="15.5" stroke="#393931"/>
<g opacity="0.3" clip-path="url(#clip0_449_397)">
<path d="M82.6029 38.245H27.7588C27.7588 35.4449 25.4807 33.1669 22.6807 33.1669C22.1198 33.1669 21.665 33.6216 21.665 34.1825C21.665 34.7434 22.1198 35.1981 22.6807 35.1981C24.3608 35.1981 25.7275 36.5649 25.7275 38.245V74.8075C25.7275 75.3684 26.1823 75.8231 26.7432 75.8231C27.304 75.8231 27.7588 75.3684 27.7588 74.8075V73.7919H29.7913C31.4706 73.7919 32.8369 72.4256 32.8369 70.7463V70.745H82.6029C84.8428 70.745 86.665 68.9227 86.665 66.6829V42.3071C86.665 40.0673 84.8428 38.245 82.6029 38.245ZM84.6338 66.6829C84.6338 67.8027 83.7228 68.7137 82.6029 68.7137H31.8213C31.2604 68.7137 30.8057 69.1685 30.8057 69.7294V70.7463C30.8057 71.3056 30.3507 71.7606 29.7913 71.7606H27.7588V40.2762H82.6029C83.7228 40.2762 84.6338 41.1873 84.6338 42.3071V66.6829Z" fill="#393931"/>
<path d="M52.1338 46.37C49.2238 46.37 46.6676 47.9087 45.2322 50.2141C45.1327 50.3219 45.0572 50.4498 45.0117 50.5892C44.3731 51.749 44.0088 53.0801 44.0088 54.495C44.0088 55.943 44.3913 57.3026 45.0579 58.4812C45.0817 58.5317 45.1096 58.58 45.1412 58.6259C46.5578 61.0145 49.1613 62.62 52.1338 62.62C56.614 62.62 60.2588 58.9752 60.2588 54.495C60.2588 53.047 59.8763 51.6874 59.2096 50.5088C59.1859 50.4583 59.158 50.41 59.1264 50.3641C57.7098 47.9754 55.1063 46.37 52.1338 46.37ZM46.04 54.495C46.04 53.937 46.1168 53.3971 46.258 52.8833C46.7145 53.2868 47.3312 53.7377 48.1668 54.2201C48.9762 54.6875 49.6574 54.9918 50.2244 55.1865C49.8915 55.4482 49.4643 55.7432 48.9285 56.0525C47.8558 56.6717 47.0475 56.9461 46.5976 57.0366C46.2406 56.2624 46.04 55.4019 46.04 54.495ZM58.2275 54.495C58.2275 55.0159 58.1615 55.5217 58.038 56.0046C57.5788 55.5949 56.9536 55.1352 56.1008 54.6429C55.3442 54.2061 54.6998 53.9119 54.1558 53.7164C54.471 53.4771 54.8621 53.2129 55.3391 52.9375C56.4115 52.3185 57.22 52.0439 57.67 51.9534C58.027 52.7276 58.2275 53.588 58.2275 54.495ZM56.4436 50.1912C55.8644 50.3846 55.163 50.6939 54.3236 51.1785C53.5299 51.6368 52.9332 52.0668 52.4841 52.4545C52.4271 52.0425 52.3877 51.5391 52.3877 50.9403C52.3877 49.7009 52.5545 48.8632 52.7011 48.4285C54.1567 48.5636 55.4655 49.2117 56.4436 50.1912ZM50.562 48.6078C50.4396 49.2066 50.3564 49.9696 50.3564 50.9403C50.3564 51.8361 50.4272 52.5553 50.5343 53.1315C50.1507 52.9751 49.6977 52.7585 49.1823 52.461C48.1283 51.8525 47.49 51.2982 47.1803 50.9524C47.9921 49.8206 49.1807 48.977 50.562 48.6078ZM47.8236 58.7985C48.403 58.605 49.1041 58.2965 49.944 57.8115C50.7377 57.3532 51.3344 56.9232 51.7835 56.5355C51.8405 56.9475 51.8799 57.4508 51.8799 58.0497C51.8799 59.2891 51.7131 60.1268 51.5664 60.5615C50.1108 60.4264 48.8016 59.7782 47.8236 58.7985ZM53.7056 60.3822C53.828 59.7834 53.9111 59.0204 53.9111 58.0497C53.9111 57.0806 53.8282 56.3187 53.7062 55.7205C54.0955 55.8775 54.5578 56.0975 55.0853 56.402C56.1979 57.0443 56.849 57.6273 57.1373 57.9673C56.3248 59.1346 55.1154 60.0054 53.7056 60.3822Z" fill="#393931"/>
<path d="M77.5244 43.3231C76.9635 43.3231 76.5088 43.7779 76.5088 44.3387C76.5088 44.8996 76.9635 45.3544 77.5244 45.3544C78.6444 45.3544 79.5557 46.2656 79.5557 47.3856V61.6044C79.5557 62.7244 78.6444 63.6356 77.5244 63.6356H52.1338C47.0936 63.6356 42.9932 59.5352 42.9932 54.495C42.9932 49.4548 47.0936 45.3544 52.1338 45.3544H73.4619C74.0228 45.3544 74.4775 44.8996 74.4775 44.3387C74.4775 43.7779 74.0228 43.3231 73.4619 43.3231H52.1338C45.9736 43.3231 40.9619 48.3348 40.9619 54.495C40.9619 60.6551 45.9736 65.6669 52.1338 65.6669H77.5244C79.7645 65.6669 81.5869 63.8445 81.5869 61.6044V47.3856C81.5869 45.1455 79.7645 43.3231 77.5244 43.3231Z" fill="#393931"/>
<path d="M35.8838 51.4481H32.8369C31.7169 51.4481 30.8057 52.3594 30.8057 53.4794V55.5106C30.8057 56.6306 31.7169 57.5419 32.8369 57.5419H35.8838C37.0038 57.5419 37.915 56.6306 37.915 55.5106V53.4794C37.915 52.3594 37.0038 51.4481 35.8838 51.4481ZM32.8369 55.5106V53.4794H35.8838L35.8839 55.5106H32.8369Z" fill="#393931"/>
<path d="M35.8838 44.3387H32.8369C31.7169 44.3387 30.8057 45.25 30.8057 46.37V48.4012C30.8057 49.5212 31.7169 50.4325 32.8369 50.4325H35.8838C37.0038 50.4325 37.915 49.5212 37.915 48.4012V46.37C37.915 45.25 37.0038 44.3387 35.8838 44.3387ZM32.8369 48.4012V46.37H35.8838L35.8839 48.4012H32.8369Z" fill="#393931"/>
<path d="M35.8838 58.5575H32.8369C31.7169 58.5575 30.8057 59.4688 30.8057 60.5887V62.62C30.8057 63.74 31.7169 64.6512 32.8369 64.6512H35.8838C37.0038 64.6512 37.915 63.74 37.915 62.62V60.5887C37.915 59.4688 37.0038 58.5575 35.8838 58.5575ZM32.8369 62.62V60.5887H35.8838L35.8839 62.62H32.8369Z" fill="#393931"/>
<path d="M76.5088 47.3856H73.4619C72.901 47.3856 72.4463 47.8404 72.4463 48.4012C72.4463 48.9621 72.901 49.4169 73.4619 49.4169H76.5088C77.0697 49.4169 77.5244 48.9621 77.5244 48.4012C77.5244 47.8404 77.0697 47.3856 76.5088 47.3856Z" fill="#393931"/>
<path d="M76.5088 59.5731H73.4619C72.901 59.5731 72.4463 60.0279 72.4463 60.5887C72.4463 61.1496 72.901 61.6044 73.4619 61.6044H76.5088C77.0697 61.6044 77.5244 61.1496 77.5244 60.5887C77.5244 60.0279 77.0697 59.5731 76.5088 59.5731Z" fill="#393931"/>
<path d="M76.5088 50.4325H73.4619C72.901 50.4325 72.4463 50.8872 72.4463 51.4481C72.4463 52.009 72.901 52.4637 73.4619 52.4637H76.5088C77.0697 52.4637 77.5244 52.009 77.5244 51.4481C77.5244 50.8872 77.0697 50.4325 76.5088 50.4325Z" fill="#393931"/>
<path d="M76.5088 53.4794H73.4619C72.901 53.4794 72.4463 53.9341 72.4463 54.495C72.4463 55.0559 72.901 55.5106 73.4619 55.5106H76.5088C77.0697 55.5106 77.5244 55.0559 77.5244 54.495C77.5244 53.9341 77.0697 53.4794 76.5088 53.4794Z" fill="#393931"/>
<path d="M76.5088 56.5262H73.4619C72.901 56.5262 72.4463 56.981 72.4463 57.5419C72.4463 58.1027 72.901 58.5575 73.4619 58.5575H76.5088C77.0697 58.5575 77.5244 58.1027 77.5244 57.5419C77.5244 56.981 77.0697 56.5262 76.5088 56.5262Z" fill="#393931"/>
</g>
<defs>
<clipPath id="clip0_449_397">
<rect width="65" height="65" fill="white" transform="translate(21.665 21.995)"/>
</clipPath>
</defs>
</svg>
